<?xml version="1.0" encoding="UTF-8" standalone="no"?>
<svg
   xmlns:dc="http://purl.org/dc/elements/1.1/"
   xmlns:cc="http://creativecommons.org/ns#"
   xmlns:rdf="http://www.w3.org/1999/02/22-rdf-syntax-ns#"
   xmlns:svg="http://www.w3.org/2000/svg"
   xmlns="http://www.w3.org/2000/svg"
   viewBox="0 0 18.666668 22.666668"
   height="22.666668"
   width="18.666668"
   xml:space="preserve"
   id="svg2"
   version="1.1"><metadata
     id="metadata8"><rdf:RDF><cc:Work
         rdf:about=""><dc:format>image/svg+xml</dc:format><dc:type
           rdf:resource="http://purl.org/dc/dcmitype/StillImage" /></cc:Work></rdf:RDF></metadata><defs
     id="defs6" /><g
     transform="matrix(1.3333333,0,0,-1.3333333,0,22.666667)"
     id="g10"><g
       transform="scale(0.1)"
       id="g12"><path
         id="path14"
         style="fill:#00679b;fill-opacity:1;fill-rule:evenodd;stroke:none"
         d="m 80.2969,5.35547 h 6.4062 C 88.7148,6.5 104.516,5.71484 119.434,30.9922 c 6.843,11.5937 12.574,28.3281 13.941,44.4531 1.629,19.207 -4.219,34.2227 -14.879,43.1287 -10.633,8.883 -27.0663,10.051 -40.2382,5.098 -1.8203,-0.684 -3.668,-1.461 -5.3242,-1.981 1.3437,3.942 12.2031,17.645 15.3359,20.68 3.3828,3.277 6.0977,5.406 9.6641,8.367 1.0391,0.86 4.7854,2.914 2.4454,4.848 l -12.2462,5.793 c -4.3906,1.422 -6.5976,-4.328 -8.9765,-8.586 -3.1407,-5.621 -9.4844,-18.594 -11.5977,-24.461 -0.6914,-1.926 -1.7773,-4.734 -2.6484,-6.418 -3.4141,0.828 -5.8282,2.789 -12.6289,3.844 -13.9961,2.16 -28.2657,-2.016 -36.7266,-12.317 C 9.82422,106.473 6.60938,100.223 5.10156,90.4805 2.49219,73.6328 8.54297,50.4375 16.5039,36.1719 22.4844,25.4531 29.2344,15.5703 40.1367,9.65625 49.0117,4.84766 57.9219,4.26172 67.2813,7.87891 c 2.8476,1.09765 3.4492,-0.20703 6.164,-0.96094 1.6953,-0.46875 5.7266,-1.01563 6.8516,-1.5625 z M 42.0117,168.93 h -5.4062 c -2.168,-1.496 -3.1602,-1.293 -3.1446,-5.223 0.0469,-11.812 5.6133,-21.812 15.9063,-27.219 3.1797,-1.668 18,-6.597 19.707,-0.531 0.5,1.766 0.0235,6.012 -0.3008,7.895 -2.3281,13.386 -10.2734,21.152 -23.0546,24.23 -0.5821,0.145 -1.1133,0.234 -1.7774,0.332 -0.3086,0.043 -0.6406,0.07 -0.9414,0.141 l -0.9883,0.375" /></g></g></svg>