<?xml version="1.0" encoding="UTF-8" standalone="no"?>
<svg
   xmlns:dc="http://purl.org/dc/elements/1.1/"
   xmlns:cc="http://creativecommons.org/ns#"
   xmlns:rdf="http://www.w3.org/1999/02/22-rdf-syntax-ns#"
   xmlns:svg="http://www.w3.org/2000/svg"
   xmlns="http://www.w3.org/2000/svg"
   viewBox="0 0 22.666668 22.666668"
   height="22.666668"
   width="22.666668"
   xml:space="preserve"
   id="svg2"
   version="1.1"><metadata
     id="metadata8"><rdf:RDF><cc:Work
         rdf:about=""><dc:format>image/svg+xml</dc:format><dc:type
           rdf:resource="http://purl.org/dc/dcmitype/StillImage" /></cc:Work></rdf:RDF></metadata><defs
     id="defs6" /><g
     transform="matrix(1.3333333,0,0,-1.3333333,0,22.666667)"
     id="g10"><g
       transform="scale(0.1)"
       id="g12"><path
         id="path14"
         style="fill:#00679c;fill-opacity:1;fill-rule:evenodd;stroke:none"
         d="m 85.6992,160.898 c 42.0708,0 76.1718,-34.101 76.1718,-76.1753 0,-42.0664 -34.101,-76.16801 -76.1718,-76.16801 -42.0703,0 -76.17186,34.10161 -76.17186,76.16801 0,42.0743 34.10156,76.1753 76.17186,76.1753 z m 0.1485,-3.652 c 39.9843,0 72.3903,-32.406 72.3903,-72.3905 0,-39.9883 -32.406,-72.3946 -72.3903,-72.3946 -39.9844,0 -72.3946,32.4063 -72.3946,72.3946 0,39.9845 32.4102,72.3905 72.3946,72.3905" /><path
         id="path16"
         style="fill:#00679c;fill-opacity:1;fill-rule:nonzero;stroke:none"
         d="m 90.6406,118.313 c 0,-1.266 -0.5937,-2.489 -1.7617,-3.61 -1.1719,-1.121 -2.4687,-1.68 -3.9141,-1.68 -1.25,0 -2.246,0.368 -2.9648,1.106 -0.7227,0.738 -1.0742,1.73 -1.0742,3.012 0,1.25 0.5937,2.437 1.7617,3.543 1.1719,1.105 2.4219,1.668 3.7383,1.668 1.3281,0 2.3711,-0.356 3.1094,-1.059 0.7382,-0.703 1.1054,-1.699 1.1054,-2.98 z M 90.0664,67.3672 c 0,-3.0313 0.4297,-4.8594 1.2969,-5.4649 0.8633,-0.6132 3.0937,-0.9453 6.6836,-1.0117 v -2.6914 c -2.2266,0.1602 -4.3594,0.2696 -6.4102,0.3516 -2.0351,0.082 -4.0078,0.1133 -5.9336,0.1133 -1.9062,0 -3.9101,-0.0313 -5.9922,-0.1133 -2.1015,-0.082 -4.3164,-0.1914 -6.6718,-0.3516 l -0.0469,2.6914 c 4.582,0.2227 7.3086,0.6407 8.1758,1.2657 0.8672,0.6289 1.2968,2.375 1.2968,5.2109 v 27.4766 c 0,2.5664 -0.4296,4.1835 -1.2968,4.8554 -0.8672,0.6758 -2.9961,1.0118 -6.4297,1.0118 h -1.7461 v 2.691 c 2.918,0.129 5.7851,0.305 8.6094,0.563 2.8203,0.238 5.625,0.578 8.414,0.976 l 0.0508,-37.5738" /></g></g></svg>