<?xml version="1.0" encoding="UTF-8" standalone="no"?>
<svg
   xmlns:dc="http://purl.org/dc/elements/1.1/"
   xmlns:cc="http://creativecommons.org/ns#"
   xmlns:rdf="http://www.w3.org/1999/02/22-rdf-syntax-ns#"
   xmlns:svg="http://www.w3.org/2000/svg"
   xmlns="http://www.w3.org/2000/svg"
   viewBox="0 0 22.666668 22.666668"
   height="22.666668"
   width="22.666668"
   xml:space="preserve"
   id="svg2"
   version="1.1"><metadata
     id="metadata8"><rdf:RDF><cc:Work
         rdf:about=""><dc:format>image/svg+xml</dc:format><dc:type
           rdf:resource="http://purl.org/dc/dcmitype/StillImage" /></cc:Work></rdf:RDF></metadata><defs
     id="defs6" /><g
     transform="matrix(1.3333333,0,0,-1.3333333,0,22.666667)"
     id="g10"><g
       transform="scale(0.1)"
       id="g12"><path
         id="path14"
         style="fill:#00679c;fill-opacity:1;fill-rule:evenodd;stroke:none"
         d="m 87.2422,125.176 c 0.3242,-0.215 0.5508,-0.414 0.9297,-0.668 l 2.8242,-1.973 c 0.6328,-0.48 1.2461,-0.82 1.8867,-1.305 0.3242,-0.25 0.6016,-0.402 0.961,-0.644 l 19.9652,-13.891 c 0.386,-0.257 0.543,-0.414 0.929,-0.672 l 1.891,-1.308 c 0.375,-0.25 0.742,-0.422 0.984,-0.754 H 56.875 c 0.2266,0.344 0.5313,0.504 0.875,0.727 l 6.5938,4.593 c 1.3398,0.887 2.4414,1.727 3.7773,2.614 z M 59.3711,57.1797 v 3.1875 h 1.5547 c 0.1836,-0.043 0.3867,-0.0664 0.5937,-0.0664 h 52.0315 c 0.144,0 0.293,0.0234 0.437,0.0664 h 0.895 v -3.1875 z m -1.3086,-3.1953 h 58.4215 c 0.758,0 1.602,0.6484 1.602,1.4531 v 6.6758 c 0,0.7265 -0.727,1.4531 -1.457,1.4531 h -1.477 v 4.8633 c 0,0.7305 -0.726,1.457 -1.457,1.457 H 61.3711 c -1.1172,0 -1.7422,-0.7461 -1.7422,-1.6015 V 63.5664 H 57.918 c -1.1172,0 -1.7461,-0.7422 -1.7461,-1.5976 V 55.582 c 0,-1.0195 0.8437,-1.5976 1.8906,-1.5976 z m 53.8905,9.582 H 62.8242 v 3.1211 H 111.953 Z M 77.9453,107.301 c 0,-0.746 1.4336,-0.434 3.4883,-0.434 0.6758,0 0.4336,1.125 0.4336,2.469 0,0.973 0,1.941 0,2.906 1.1328,-0.754 1.9961,-2.051 2.5039,-2.582 1.7656,-1.844 1.0508,-1.484 4.0391,-1.484 0.4843,0 1.375,1.304 2.0664,1.996 0.3593,0.363 0.6875,0.644 1.0234,1.016 0.4375,0.484 0.3789,0.656 0.9766,1.054 l -0.0039,-4.363 c -0.0118,-1.293 -0.3438,-1.012 3.6367,-1.012 0.3359,0 0.4336,0.102 0.4336,0.434 v 8.578 c 0,0.332 -0.0977,0.434 -0.4336,0.434 -5.0508,0 -3.2969,0.25 -4.8321,-1.27 -0.664,-0.66 -3.3867,-3.508 -3.8867,-4.25 -1.1406,0.762 -5.0078,5.52 -5.5234,5.52 H 77.9453 Z M 62.3984,94.5156 H 68.5 V 76.0625 h -6.1016 z m -3.1992,1.1641 V 75.043 c 0,-1.1719 0.4649,-2.1797 1.6016,-2.1797 h 9.4414 c 0.7891,0 1.4531,0.7109 1.4531,1.164 v 22.2305 c 0,0.9102 -0.8047,1.4531 -1.7422,1.4531 h -8.8633 c -1.2304,0 -1.8906,-0.8125 -1.8906,-2.0312 z m 24.9961,-1.1641 h 6.1016 V 76.0625 h -6.1016 z m -3.1992,1.7422 V 74.3203 c 0,-0.7344 0.7227,-1.457 1.4531,-1.457 h 9.5899 c 0.9453,0 1.4531,0.9336 1.4531,1.8867 v 21.0703 c 0,0.6016 -0.1563,0.9922 -0.4375,1.3086 -0.2578,0.293 -0.6094,0.582 -1.1602,0.582 h -9.1562 c -0.9375,0 -1.7422,-0.5429 -1.7422,-1.4531 z m 24.8479,-1.7422 h 6.105 V 76.0625 h -6.105 z m -3.196,1.3047 V 74.4648 c 0,-0.7617 0.653,-1.6015 1.454,-1.6015 h 9.589 c 0.731,0 1.454,0.7226 1.454,1.457 v 21.6485 c 0,1.121 -0.743,1.7421 -1.598,1.7421 h -9.301 c -1.019,0 -1.598,-0.8398 -1.598,-1.8906 z M 86.957,128.664 H 87.5 c 0.5195,-0.133 1.1328,-0.641 2.4492,-1.512 0.4766,-0.316 0.7305,-0.539 1.1875,-0.839 0.4414,-0.293 0.6836,-0.477 1.1055,-0.79 3.793,-2.765 8.8988,-6.132 12.8788,-8.918 l 2.297,-1.628 c 0.406,-0.309 0.809,-0.508 1.215,-0.817 0.43,-0.328 0.719,-0.523 1.195,-0.84 l 13.895,-9.644 c 0.418,-0.289 0.644,-0.68 0.722,-1.078 V 102 c -0.125,-0.672 -0.656,-1.234 -1.453,-1.234 H 51.5 c -1.1875,0 -1.457,0.82 -1.457,1.742 0,0.617 0.3828,0.965 0.7851,1.254 l 11.7539,8.152 c 0.3907,0.301 0.75,0.504 1.125,0.762 l 2.2969,1.629 c 0.4063,0.308 0.8086,0.508 1.2109,0.816 2.6524,2.008 8.7305,6.121 11.6602,8.106 0.4297,0.289 0.6992,0.515 1.1055,0.789 0.4297,0.285 0.7461,0.547 1.1875,0.843 0.4062,0.266 0.7695,0.493 1.1406,0.75 l 2.293,1.633 c 1.2461,0.821 1.8554,1.293 2.3554,1.422" /><path
         id="path16"
         style="fill:#00679c;fill-opacity:1;fill-rule:evenodd;stroke:none"
         d="m 84.2969,161.461 c 42.0661,0 76.1681,-34.102 76.1681,-76.1719 0,-42.0703 -34.102,-76.17191 -76.1681,-76.17191 -42.0742,0 -76.17581,34.10161 -76.17581,76.17191 0,42.0699 34.10161,76.1719 76.17581,76.1719 z m 0.1445,-3.652 c 39.9886,0 72.3946,-32.403 72.3946,-72.391 0,-39.9844 -32.406,-72.3946 -72.3946,-72.3946 -39.9844,0 -72.3945,32.4102 -72.3945,72.3946 0,39.988 32.4101,72.391 72.3945,72.391" /></g></g></svg>