<?xml version="1.0" encoding="UTF-8" standalone="no"?>
<svg
   xmlns:dc="http://purl.org/dc/elements/1.1/"
   xmlns:cc="http://creativecommons.org/ns#"
   xmlns:rdf="http://www.w3.org/1999/02/22-rdf-syntax-ns#"
   xmlns:svg="http://www.w3.org/2000/svg"
   xmlns="http://www.w3.org/2000/svg"
   viewBox="0 0 21.333332 22.666668"
   height="22.666668"
   width="21.333332"
   xml:space="preserve"
   id="svg2"
   version="1.1"><metadata
     id="metadata8"><rdf:RDF><cc:Work
         rdf:about=""><dc:format>image/svg+xml</dc:format><dc:type
           rdf:resource="http://purl.org/dc/dcmitype/StillImage" /></cc:Work></rdf:RDF></metadata><defs
     id="defs6" /><g
     transform="matrix(1.3333333,0,0,-1.3333333,0,22.666667)"
     id="g10"><g
       transform="scale(0.1)"
       id="g12"><path
         id="path14"
         style="fill:#00679c;fill-opacity:1;fill-rule:evenodd;stroke:none"
         d="m 56.1367,83.4531 c 0.125,1.7578 -0.5781,12.5625 -0.7734,14.5391 -0.2344,2.3048 -0.8594,2.3438 0.539,4.0708 0.9024,1.125 1.5391,1.644 2.7383,2.554 0.5899,0.446 0.8282,0.766 1.4805,1.153 2.6641,1.589 2.3477,1.293 2.4219,2.835 0.0898,1.891 0.8125,5.739 0.8008,7.004 l -0.1485,-8.386 c 5.0938,-0.434 10.1133,-1.043 15.2578,-1.383 2.9805,-0.195 12.5742,-0.836 13.9766,-2.5 0.6875,-1.043 1.8398,-17.8244 2.5976,-19.4845 0.5547,0.6679 1.7266,6.125 1.918,6.9414 0.8281,3.5937 1.9336,12.1911 1.8203,15.7971 -0.1133,3.531 -2.4765,6.488 -4.414,8.914 -0.7188,0.902 -1.5078,1.472 -2.2266,2.238 -4.957,5.297 -18.1055,11.141 -24.9648,4.645 -0.3672,-0.352 -0.7383,-0.664 -1.0938,-1.059 -1.957,-2.133 -1.7422,-2.887 -3.6094,-3.051 -2.4375,-0.207 -4.9648,-0.898 -6.875,-1.832 -1.7929,-0.875 -3.0156,-3.148 -3.7656,-5.179 -1.9766,-5.34 -1.8594,-9.79 -0.5898,-15.0708 0.6836,-2.8398 3.2343,-11.6367 4.9101,-12.7461 z M 75.7461,53.793 c 0.7148,1.582 2.6016,4.3086 2.9766,5.3437 l -6.1641,-0.0039 2.793,-4.9687 c 0.2695,-0.3399 0.1328,-0.1758 0.3945,-0.3711 z M 57.5156,88.1016 c 0.8594,0.1289 2.0664,0.5547 2.9922,0.7539 3.7344,0.8203 6.8555,0.2617 10.3945,-0.6367 l 0.1329,2.4648 c -1.6758,0.2773 -6.5157,1.0508 -7.9805,0.5898 -1.5195,-0.4804 -4.7656,-2.3828 -5.5391,-3.1718 z m 21.7383,2.6328 0.0742,-2.4805 c 2.0196,0.2266 3.043,1.0156 6.7696,1 3.625,-0.0195 4.582,-0.8516 6.6211,-1.1601 -0.8555,0.8632 -3.8321,2.6093 -5.4297,3.1562 -1.8047,0.6094 -6.0352,-0.3906 -8.0352,-0.5156 z M 56.875,63.1367 c 0.5469,-0.4961 2.9453,-1.0195 3.6055,-1.1523 3.8242,-0.7617 7.3984,-0.7813 10.9453,1.0664 1.3711,0.7109 3.418,2.6875 4.0898,4.0117 0.836,-0.6133 4.0664,-7.4648 15.1719,-5.0937 0.8359,0.1757 3.2539,0.7968 3.6914,1.1406 -3.1758,0.1679 -2.6797,-0.0821 -5.7305,1.2226 -2.4765,1.0586 -4.4687,2.4375 -6.4375,3.9844 -0.6015,0.4727 -1.2187,1.2617 -1.7968,1.6719 -1.7774,1.2578 -4.0391,0.1875 -4.7149,-1.0938 -3.1328,2.3516 -3.2539,2.6993 -6.6289,-0.5039 -2.4297,-2.3047 -7.8555,-5.4414 -12.1953,-5.2539" /><path
         id="path16"
         style="fill:#00679c;fill-opacity:1;fill-rule:evenodd;stroke:none"
         d="m 76.1992,162.098 c 42.0668,0 76.1678,-34.102 76.1678,-76.1722 0,-42.0703 -34.101,-76.17189 -76.1678,-76.17189 -42.0742,0 -76.1757625,34.10159 -76.1757625,76.17189 0,42.0702 34.1015625,76.1722 76.1757625,76.1722 z m 0.1446,-3.653 c 39.9882,0 72.3902,-32.406 72.3902,-72.3903 0,-39.9844 -32.402,-72.3945 -72.3902,-72.3945 -39.9844,0 -72.39458,32.4101 -72.39458,72.3945 0,39.9843 32.41018,72.3903 72.39458,72.3903" /></g></g></svg>