<?xml version="1.0" encoding="UTF-8" standalone="no"?>
<svg
   xmlns:dc="http://purl.org/dc/elements/1.1/"
   xmlns:cc="http://creativecommons.org/ns#"
   xmlns:rdf="http://www.w3.org/1999/02/22-rdf-syntax-ns#"
   xmlns:svg="http://www.w3.org/2000/svg"
   xmlns="http://www.w3.org/2000/svg"
   viewBox="0 0 22.666668 21.333332"
   height="21.333332"
   width="22.666668"
   xml:space="preserve"
   id="svg2"
   version="1.1"><metadata
     id="metadata8"><rdf:RDF><cc:Work
         rdf:about=""><dc:format>image/svg+xml</dc:format><dc:type
           rdf:resource="http://purl.org/dc/dcmitype/StillImage" /></cc:Work></rdf:RDF></metadata><defs
     id="defs6" /><g
     transform="matrix(1.3333333,0,0,-1.3333333,0,21.333333)"
     id="g10"><g
       transform="scale(0.1)"
       id="g12"><path
         id="path14"
         style="fill:#00679c;fill-opacity:1;fill-rule:evenodd;stroke:none"
         d="m 84.1641,159.387 c 42.0659,0 76.1679,-34.102 76.1679,-76.1722 0,-42.0703 -34.102,-76.17183 -76.1679,-76.17183 -42.0743,0 -76.17582,34.10153 -76.17582,76.17183 0,42.0702 34.10152,76.1722 76.17582,76.1722 z m 0.1445,-3.653 c 39.9884,0 72.3904,-32.402 72.3904,-72.3902 0,-39.9844 -32.402,-72.3946 -72.3904,-72.3946 -39.9844,0 -72.3945,32.4102 -72.3945,72.3946 0,39.9882 32.4101,72.3902 72.3945,72.3902" /><path
         id="path16"
         style="fill:#00679c;fill-opacity:1;fill-rule:evenodd;stroke:none"
         d="m 115.277,62.8633 h 1.215 v -2.4297 h -1.215 z M 84.9023,126.043 h -1.2148 v -1.215 h 1.2148 v -1.215 h 1.2149 v 1.215 h 1.2148 v 1.215 h -1.2148 v 1.215 h -1.2149 z m 29.1607,-24.301 h 1.214 v 6.078 h -1.214 z m -58.3208,0 h 1.2148 v 6.078 h -1.2148 z m 28.5547,20.051 h -0.6094 v -4.258 h 3.6445 v 4.258 h -0.6054 v 0.605 H 84.2969 Z M 53.918,99.918 h -0.6055 v -0.6055 h -1.2148 v -1.2148 h -0.6094 v -0.6094 h -0.6055 v -3.0352 h 10.9336 v 3.0352 h -0.6055 v 0.6094 h -0.6093 v 1.2148 h -1.2149 v 0.6055 h -0.6054 v 0.609 H 53.918 Z m 58.32,0 h -0.605 v -0.6055 h -1.215 v -1.2148 h -0.609 v -0.6094 h -0.61 v -3.0352 h 10.938 v 3.0352 h -0.606 v 0.6094 h -0.609 v 1.2148 h -1.215 v 0.6055 h -0.609 v 0.609 h -4.86 z m -39.4841,1.824 h 25.5117 v 2.43 H 72.7539 Z M 58.1719,89.5938 h 1.2148 v -2.4297 h -1.2148 z m -2.4297,0 h 1.2148 v -2.4297 h -1.2148 z m -2.4297,0 h 1.2148 v -2.4297 h -1.2148 z m -3.6445,3.039 h 0.6054 v -0.6133 h 0.6094 v -6.0742 h 10.9336 v 6.0742 h 0.6094 v 0.6133 h 0.6055 v 0.6055 H 49.668 Z m 66.824,-3.039 h 1.215 v -2.4297 h -1.215 z m -2.429,0 h 1.214 v -2.4297 h -1.214 z m -2.43,0 h 1.215 v -2.4297 h -1.215 z m -3.645,3.039 h 0.606 v -0.6133 h 0.605 v -6.0742 h 10.938 v 6.0742 h 0.605 v 0.6133 h 0.61 v 0.6055 h -13.364 z m -4.863,-17.6172 h -0.605 v 1.211 h 1.214 v -0.6055 h -0.609 z m -2.43,3.6446 H 99.4805 V 65.293 h 2.4335 v 5.4687 h 0.606 v 0.6055 h 1.214 v -0.6055 h 0.61 V 65.293 h 2.426 v 13.3672 h -1.211 v 1.2109 h -4.864 z M 67.8906,75.0156 h -0.6054 v 1.211 H 68.5 v -0.6055 h -0.6094 z m -2.4297,3.6446 H 64.2461 V 65.293 h 2.4336 v 5.4687 h 0.6055 v 0.6055 H 68.5 v -0.6055 h 0.6055 V 65.293 h 2.4297 v 13.3672 h -1.211 v 1.2109 h -4.8633 z m 29.1602,-3.6446 h -0.6055 v 1.211 h 1.2149 v -0.6055 h -0.6094 z m -2.4297,3.6446 H 90.9766 V 65.293 h 2.4297 v 5.4687 h 0.6093 v 0.6055 h 1.2149 v -0.6055 h 0.6093 V 65.293 h 2.4258 v 13.3672 h -1.2148 v 1.2109 h -4.8594 z m -15.793,-3.6446 h -0.6093 v 1.211 h 1.2148 v -0.6055 h -0.6055 z m -2.4336,3.6446 H 72.7539 V 65.293 h 2.4297 v 5.4687 h 0.6055 v 0.6055 h 1.2148 v -0.6055 h 0.6094 V 65.293 h 2.4258 v 13.3672 h -1.211 v 1.2109 h -4.8633 z m 11.543,-3.6446 h -0.6055 v 1.211 h 1.2149 v -0.6055 h -0.6094 z m -3.0351,3.6446 H 81.2578 V 65.293 h 2.4297 v 4.8593 h 0.6094 v 0.6094 h 0.6054 v 0.6055 h 1.2149 v -0.6055 h 0.6094 V 70.1523 H 87.332 V 65.293 h 2.4297 v 13.3672 h -1.2148 v 1.2109 h -6.0742 z m 29.7653,-7.293 h 4.86 v -0.6055 h -0.606 v -0.6094 h -3.644 v 0.6094 h -0.61 z m 3.039,5.4687 h 1.215 v -3.039 h -1.215 z m -2.429,0 h 1.215 v -3.039 h -1.215 z m -0.61,1.8243 h 4.86 v -0.6094 h -0.606 v -0.6094 h -3.644 v 0.6094 h -0.61 z m -3.039,0 h -1.211 V 65.293 h 4.86 v 4.2539 h 1.215 V 65.293 h 1.214 v 4.2539 h 1.215 V 65.293 h 3.645 v 13.3672 h 0.605 v 0.6054 h 0.61 v 0.6055 h -12.153 z m -55.281,-7.293 h 4.8633 v -0.6055 h -0.6094 v -0.6094 h -3.6446 v 0.6094 H 53.918 Z m 3.039,5.4687 h 1.2149 v -3.039 H 56.957 Z m -2.4297,0 h 1.2149 v -3.039 h -1.2149 z m -0.6093,1.8243 h 4.8633 v -0.6094 h -0.6094 v -0.6094 h -3.6446 v 0.6094 H 53.918 Z m -4.25,0.6054 h 0.6054 v -0.6054 h 0.6094 V 65.293 h 3.6445 v 4.2539 h 1.2149 V 65.293 h 1.2148 v 4.2539 h 1.2149 V 65.293 h 4.8594 v 13.3672 h -1.2149 v 1.2109 H 49.668 Z m 35.2343,33.4104 h 1.2149 v -2.426 h -1.2149 z m -3.039,3.039 h -1.2149 v -0.61 H 79.4336 V 114.5 h -1.2109 v -0.605 h -0.6094 v -0.61 h -0.6094 v -0.609 h -1.8203 v -3.035 h -0.6094 v -1.215 h -0.6094 v -3.039 h 23.086 v 3.039 h -0.6055 v 1.215 h -0.6055 v 3.035 h -1.8242 v 0.609 h -0.6093 v 0.61 H 92.8008 V 114.5 H 91.582 v 0.605 h -1.2109 v 0.61 h -1.2188 v 0.609 h -7.289 z m 9.1133,-19.4377 h 1.2148 v -4.2578 h -1.2148 z m -2.4297,0 h 1.2148 v -4.2578 h -1.2148 z m -2.4297,0 h 1.2148 v -4.2578 h -1.2148 z m -2.4297,0 h 1.2148 v -4.2578 h -1.2148 z m -2.4297,0 h 1.2149 v -4.2578 h -1.2149 z m -2.4297,0 h 1.211 v -4.2578 h -1.211 z m -6.0742,3.6407 h 0.6055 v -0.6055 h 0.6054 v -9.7187 h 23.086 v 9.7187 h 0.6094 v 0.6055 h 0.6054 v 0.609 H 72.7539 Z M 47.2383,48.2813 h 76.5427 v 3.6484 H 47.2383 Z m 51.0273,38.2734 h 1.2149 v -3.0352 h -1.2149 z m -8.5039,0 h 1.2149 v -3.0352 h -1.2149 z m -9.7226,0 h 1.2187 v -3.0352 h -1.2187 z m -8.5039,0 h 1.2187 v -3.0352 h -1.2187 z m 0,0.6094 h -1.211 v -1.2188 h -1.2187 v -2.4258 h -4.8594 v 3.0352 h -1.2148 v -3.0352 h -1.2149 v 1.2149 H 49.668 V 84.125 h 0.6054 v -0.6055 h 0.6094 v -2.4297 h 69.2542 v 2.4297 h 0.605 v 0.6055 h 0.61 v 0.6094 h -12.153 v -1.2149 h -1.211 v 3.0352 h -1.218 v -3.0352 h -4.856 v 2.4258 h -1.219 v 1.2188 h -1.2145 v 1.2148 H 71.5352 Z M 112.848,62.8633 h 1.215 v -2.4297 h -1.215 z m -8.504,0 h 1.215 v -2.4297 h -1.215 z m -3.649,0 h 1.219 v -2.4297 h -1.219 z m -4.8552,0 h 1.211 v -2.4297 h -1.211 z m -3.6484,0 h 1.2149 v -2.4297 h -1.2149 z m -4.8594,0 h 1.2149 V 60.4336 H 87.332 Z m -2.4297,0 h 1.2149 v -2.4297 h -1.2149 z m -2.4296,0 h 1.2148 v -2.4297 h -1.2148 z m -4.8594,0 h 1.2148 v -2.4297 h -1.2148 z m -3.6485,0 h 1.2188 v -2.4297 h -1.2188 z m -4.8593,0 h 1.2187 v -2.4297 h -1.2187 z m -3.6446,0 h 1.2188 v -2.4297 h -1.2188 z m -8.5039,0 h 1.2149 V 60.4336 H 56.957 Z m -2.4297,0 h 1.2149 v -2.4297 h -1.2149 z m -3.6445,-9.7188 h 2.4297 v 4.25 h 1.8242 v 0.6094 h 2.4297 v -0.6094 h 1.8203 v -4.25 h 6.0742 v 4.25 h 1.2188 v 0.6094 h 2.4258 v -0.6094 h 1.2187 v -4.25 h 3.6406 v 4.25 h 1.2188 v 0.6094 h 2.4297 v -0.6094 h 1.2148 v -4.25 h 3.6446 v 4.25 h 1.8242 v 0.6094 h 2.4297 v -0.6094 h 1.8203 v -4.25 h 3.6445 v 4.25 h 1.2149 v 0.6094 h 2.4335 v -0.6094 h 1.211 v -4.25 h 3.6442 v 4.25 h 1.219 v 0.6094 h 2.43 v -0.6094 h 1.215 v -4.25 h 6.074 v 4.25 h 1.824 v 0.6094 h 2.426 v -0.6094 h 1.824 v -4.25 h 2.43 V 64.0781 H 50.8828 V 53.1445" /></g></g></svg>