<?xml version="1.0" encoding="UTF-8" standalone="no"?>
<svg
   xmlns:dc="http://purl.org/dc/elements/1.1/"
   xmlns:cc="http://creativecommons.org/ns#"
   xmlns:rdf="http://www.w3.org/1999/02/22-rdf-syntax-ns#"
   xmlns:svg="http://www.w3.org/2000/svg"
   xmlns="http://www.w3.org/2000/svg"
   viewBox="0 0 52 36"
   height="36"
   width="52"
   xml:space="preserve"
   id="svg2"
   version="1.1"><metadata
     id="metadata8"><rdf:RDF><cc:Work
         rdf:about=""><dc:format>image/svg+xml</dc:format><dc:type
           rdf:resource="http://purl.org/dc/dcmitype/StillImage" /></cc:Work></rdf:RDF></metadata><defs
     id="defs6" /><g
     transform="matrix(1.3333333,0,0,-1.3333333,0,36)"
     id="g10"><g
       transform="scale(0.1)"
       id="g12"><path
         id="path14"
         style="fill:#00669b;fill-opacity:1;fill-rule:evenodd;stroke:none"
         d="M 118.324,86.6563 194.648,146.16 269.641,86.6563 V 4.41406 H 118.324 Z M 148.555,185.457 88.0117,232.656 28.5313,185.457 V 94.2266 H 58.5078 L 148.555,166.262 Z M 89.1758,265.422 6.10156,199.348 20.2813,188.254 l 68.0429,55.074 67.6838,-55.48 15.031,11 z M 240.75,185.301 301.293,232.5 360.777,185.301 V 94.0742 h -29.98 L 240.75,166.109 Z m 59.379,79.969 83.078,-66.075 -14.184,-11.093 -68.043,55.074 -67.683,-55.481 -15.031,10.996 z M 193.184,187.469 297.918,104.168 280.039,90.1836 194.254,159.617 108.93,89.668 89.9805,103.535 193.184,187.469" /></g></g></svg>