<?xml version="1.0" encoding="UTF-8" standalone="no"?>
<svg
   xmlns:dc="http://purl.org/dc/elements/1.1/"
   xmlns:cc="http://creativecommons.org/ns#"
   xmlns:rdf="http://www.w3.org/1999/02/22-rdf-syntax-ns#"
   xmlns:svg="http://www.w3.org/2000/svg"
   xmlns="http://www.w3.org/2000/svg"
   viewBox="0 0 52 36"
   height="36"
   width="52"
   xml:space="preserve"
   id="svg2"
   version="1.1"><metadata
     id="metadata8"><rdf:RDF><cc:Work
         rdf:about=""><dc:format>image/svg+xml</dc:format><dc:type
           rdf:resource="http://purl.org/dc/dcmitype/StillImage" /></cc:Work></rdf:RDF></metadata><defs
     id="defs6" /><g
     transform="matrix(1.3333333,0,0,-1.3333333,0,36)"
     id="g10"><g
       transform="scale(0.1)"
       id="g12"><path
         id="path14"
         style="fill:#999999;fill-opacity:1;fill-rule:evenodd;stroke:none"
         d="m 117.551,85.375 76.324,59.504 74.992,-59.504 V 3.13281 H 117.551 Z m 30.23,98.797 -60.5427,47.203 -59.4805,-47.203 V 92.9453 H 57.7344 L 147.781,164.98 Z M 88.4023,264.141 5.32422,198.066 19.5117,186.969 l 68.0391,55.078 67.6832,-55.481 15.032,10.997 z M 239.977,184.02 300.516,231.219 360.004,184.02 V 92.7891 h -29.977 l -90.05,72.0349 z m 59.378,79.968 83.079,-66.078 -14.184,-11.094 -68.043,55.075 -67.684,-55.481 -15.031,10.996 z M 192.41,186.188 297.145,102.887 279.262,88.8984 193.48,158.336 108.156,88.3867 89.207,102.254 192.41,186.188" /></g></g></svg>