<?xml version="1.0" encoding="UTF-8" standalone="no"?>
<svg
   xmlns:dc="http://purl.org/dc/elements/1.1/"
   xmlns:cc="http://creativecommons.org/ns#"
   xmlns:rdf="http://www.w3.org/1999/02/22-rdf-syntax-ns#"
   xmlns:svg="http://www.w3.org/2000/svg"
   xmlns="http://www.w3.org/2000/svg"
   viewBox="0 0 29.333332 30.666668"
   height="30.666668"
   width="29.333332"
   xml:space="preserve"
   id="svg2"
   version="1.1"><metadata
     id="metadata8"><rdf:RDF><cc:Work
         rdf:about=""><dc:format>image/svg+xml</dc:format><dc:type
           rdf:resource="http://purl.org/dc/dcmitype/StillImage" /></cc:Work></rdf:RDF></metadata><defs
     id="defs6" /><g
     transform="matrix(1.3333333,0,0,-1.3333333,0,30.666667)"
     id="g10"><g
       transform="scale(0.1)"
       id="g12"><path
         id="path14"
         style="fill:#00669b;fill-opacity:1;fill-rule:evenodd;stroke:none"
         d="M 57.9219,63.3398 H 166.41 V 20.8281 H 57.9219 Z M 65.2578,28.1563 H 159.082 V 57.4766 H 65.2578 Z M 31.5313,124.91 c 0,-17.125 1.1015,-24.437 16.0859,-35.2264 10.2031,-7.3477 26.043,-4.3516 46.957,-4.3516 v 57.172 c 0,8.258 -29.9609,25.832 -51.7265,4.816 -5.3672,-5.175 -11.3164,-12.511 -11.3164,-22.41 z m 96.7657,16.129 V 89.7266 c 0,-7.7422 16.594,-4.3946 38.113,-4.3946 6.778,0 15.242,7.9024 18.668,12.1094 15.559,19.0896 8.75,59.7226 -31.867,59.7226 -9.422,0 -24.914,-9.246 -24.914,-16.125 z m 43.976,-61.5702 h -49.847 v 67.4332 c 0,5.578 12.992,12.094 18.148,14.102 30.781,12.016 58.086,-14.316 58.086,-36.094 0,-13.16 -0.289,-21.383 -8.527,-32.5155 -2.281,-3.0859 -13.988,-12.9257 -17.86,-12.9257 z M 24.207,119.047 c 0,18.648 11.1055,35.226 28.3946,41.969 9.5664,3.73 19.8593,3.64 29.0156,0.785 6.0586,-1.887 20.2888,-9.981 20.2888,-16.363 V 79.4688 H 53.5273 c -12.2109,0 -29.3203,20.8982 -29.3203,39.5782 z m 74.7657,54.246 c 0,14.289 24.9183,22.414 24.9183,-2.934 0,-11.168 -24.9183,-13.687 -24.9183,2.934 z m 4.3983,38.113 H 88.707 v -10.261 h 14.664 v -8.797 c -8.4452,-0.7 -12.996,-8.645 -13.1952,-17.59 -43.707,20.969 -104.625,-28.465 -72.3164,-86.9807 5.7969,-10.496 15.7422,-21.5 28.3359,-24.4375 V 9.10156 H 178.137 V 63.3398 c 20.562,4.793 36.648,34.4415 36.648,57.1762 0,32.55 -25.933,58.64 -60.105,58.64 -9.817,0 -13.629,-2.75 -21.989,-2.933 -0.418,18.746 -13.195,8.734 -13.195,24.922 h 16.129 v 10.261 h -16.129 v 11.727 h -16.125 v -11.727" /></g></g></svg>