<?xml version="1.0" encoding="UTF-8" standalone="no"?>
<svg
   xmlns:dc="http://purl.org/dc/elements/1.1/"
   xmlns:cc="http://creativecommons.org/ns#"
   xmlns:rdf="http://www.w3.org/1999/02/22-rdf-syntax-ns#"
   xmlns:svg="http://www.w3.org/2000/svg"
   xmlns="http://www.w3.org/2000/svg"
   viewBox="0 0 21.333332 29.333332"
   height="29.333332"
   width="21.333332"
   xml:space="preserve"
   id="svg2"
   version="1.1"><metadata
     id="metadata8"><rdf:RDF><cc:Work
         rdf:about=""><dc:format>image/svg+xml</dc:format><dc:type
           rdf:resource="http://purl.org/dc/dcmitype/StillImage" /></cc:Work></rdf:RDF></metadata><defs
     id="defs6" /><g
     transform="matrix(1.3333333,0,0,-1.3333333,0,29.333333)"
     id="g10"><g
       transform="scale(0.1)"
       id="g12"><path
         id="path14"
         style="fill:#999999;fill-opacity:1;fill-rule:evenodd;stroke:none"
         d="m 54.9844,22.2656 h 1.4219 V 20.8438 H 54.9844 Z M 33.6641,33.6367 h 1.4218 v -1.4219 h -1.4218 z m 0,2.8399 v -1.418 h -1.418 v 1.418 h -1.4219 v 1.4257 h -1.4219 v 2.8438 h -1.4257 v 4.2617 h -1.418 v 4.2617 h -1.4219 v 24.1641 h 2.8399 V 56.3789 h 1.4257 v -8.5273 h 1.4219 v -5.6875 h 1.4219 v -4.2618 h 1.418 z m 98.0699,-2.8399 h -1.418 v 1.4219 h 1.418 z M 43.6133,151.605 h 1.4219 v -1.421 h 1.4218 v -1.422 h -2.8437 z m 0,2.844 v -1.422 h -1.418 v 2.84 h 1.418 z m 49.7461,21.317 v 1.425 h -2.8438 v 2.84 h 1.4219 v 5.688 h 1.4219 v -5.688 h 5.6875 v 7.106 h 1.4181 v -8.528 h 1.426 v -1.418 h 2.839 v 1.418 h 1.422 v -4.261 h 1.422 v -1.422 h 2.84 v -4.266 h -1.418 v 1.422 h -1.422 v 1.422 h -1.422 v 1.422 h -1.422 v 1.422 h -2.839 v 1.418 z M 128.895,57.7969 v -1.418 H 111.84 v 1.418 h -8.531 v -5.6836 h 21.32 v -1.418 h 7.105 v -1.4258 h -9.949 v 1.4258 h -18.476 v -4.2656 h 5.687 v -1.4219 h 18.477 v -1.4219 h -19.899 v 1.4219 h -4.265 v -4.2617 h 1.421 v -1.4258 h 11.372 v -1.418 H 104.73 v -4.2656 h 5.684 v -1.4219 h -5.684 v -4.2617 h 8.528 v -1.4218 h -8.528 v -2.8438 h -1.421 v 15.6328 h -1.418 v 68.2227 h 21.316 v -1.422 h -19.898 v -8.5233 h 9.949 v -1.4219 h -9.949 v -4.2656 h 14.214 v -1.4219 h -14.214 v -4.2617 h 8.531 v -1.4219 h 21.316 v -1.4219 h -29.847 v -4.2617 h 22.742 v -1.4258 h 7.105 v -1.4219 h -11.371 v 1.4219 h -18.476 v -4.2617 h 2.843 v -1.4219 h 24.164 v -1.4219 h 2.84 v -1.4179 h -8.527 v 1.4179 h -21.32 v -4.2617 h 7.105 v -1.4218 h 18.481 v -1.4219 h 2.839 v -1.4219 h -7.105 v 1.4219 h -21.32 v -4.2617 h 9.949 v -1.4258 z m 0,-1.418 h 2.839 V 54.957 h -2.839 z M 94.7813,72.0117 v -1.4219 h -4.2657 v 1.4219 z m 2.8437,0 v 1.4219 h 1.4219 V 72.0117 Z M 124.629,32.2148 V 30.793 h -8.527 v 1.4218 z M 43.6133,195.664 v 1.422 h 2.8437 v -2.844 h 1.4219 v -2.84 h 1.4219 v -2.843 h 1.418 v -2.84 h 1.4257 v -4.266 h 1.418 v -5.687 h 1.4219 v 1.425 h 4.2617 v 4.262 h -1.418 v 4.266 h -1.4218 v 4.261 h -1.4219 v 4.262 h -1.4219 v 4.266 h -1.418 v 2.844 h 1.418 v 1.421 h 1.4219 v -4.265 h 1.4219 v -4.266 h 1.4218 v -5.683 h 1.418 v -5.684 h 1.4258 v -4.266 h 5.6836 v -2.843 h -2.8438 v -1.418 h -5.6836 v -1.422 h -4.2656 v -1.422 h -1.418 v -1.422 h -1.4257 v 1.422 h -1.418 v 1.422 h 2.8437 v 7.105 h -1.4257 v 4.266 h -1.418 v 2.84 h -1.4219 v 2.843 H 46.457 v 2.844 h -1.4218 v 2.84 z M 32.2461,54.957 v 1.4219 h 4.2617 V 54.957 Z m 4.2617,1.4219 v 1.418 h 11.3711 v -1.418 z M 108.996,185.719 h -1.422 v 4.261 h 1.422 z m -2.844,-1.422 h 1.422 v -4.266 h -1.422 z M 72.0391,72.0117 v -1.4219 h -4.2618 v 1.4219 z M 93.3594,199.93 h 1.4219 v -1.422 h -1.4219 z m 52.5896,-56.852 v -2.844 h -27.004 v 2.844 h 1.418 v 1.422 h 25.586 z m 2.844,-2.844 v 4.266 h -1.422 v 4.262 h -1.422 v 4.265 h -1.422 v 4.262 h -1.418 v 4.266 h -1.425 v 4.261 h -1.422 v 2.844 h -1.422 v 4.266 h -1.418 v 4.265 H 136 v 2.84 h -1.422 v 2.844 h -1.422 v 4.262 h -1.422 v 2.843 h -1.418 v 2.844 h -1.421 v 2.84 h -8.532 v 1.422 h -1.418 v 1.422 h -1.422 v 1.422 h -2.839 v 1.422 h -1.426 v 1.421 h -2.844 v 1.418 h -2.84 v 1.422 h -2.844 v 1.422 h -2.839 v 1.426 h -4.266 v 1.418 h -4.2656 v 1.422 h -4.2617 v 2.844 h 1.4179 v 1.421 h -1.4179 v 1.418 h -9.9493 v -2.839 h 1.4219 v -2.844 h -12.793 v -1.422 h -5.6875 v -1.418 h -4.2617 v -1.426 h -2.8437 v -1.422 h -4.2656 v -1.422 h -2.8399 v -1.418 h -2.8437 v -1.421 h -2.8399 v -1.422 h -2.8437 v -1.422 h -2.8438 v -1.422 h -1.4219 v -1.422 h -4.2617 v -1.422 h -2.8476 v -1.418 h -1.418 v -2.844 h -1.4219 v -2.843 h -1.4179 v -4.262 h -1.4219 v -4.266 H 20.875 v -4.261 h -1.4219 v -4.266 h -1.4218 v -4.266 h -1.418 v -4.261 h -1.4258 v -4.266 h -1.418 v -4.262 h -1.4257 v -5.687 h -1.418 v -4.262 H 9.50391 v -5.687 H 8.08203 v -4.262 H 6.66016 v -5.688 H 5.23828 v -7.105 H 3.82031 V 113.23 H 2.39453 v -9.949 h 1.42578 v -1.422 h 2.83985 v -1.421 h 1.42187 v -1.4224 h 2.84377 v -1.4179 h 1.418 v -1.4219 h 1.4257 V 94.7539 H 9.50391 V 93.3281 H 8.08203 V 90.4883 H 6.66016 V 84.8047 H 5.23828 v -12.793 h 4.26563 v 1.4219 H 10.9258 V 69.1719 H 9.50391 V 50.6953 h 1.42189 v -8.5312 h 1.418 v -5.6875 h 1.4257 v -2.8399 h 1.418 v -4.2656 h 1.4258 v -2.8398 h 1.418 v -1.4219 h 1.4218 v -2.8438 h 1.4219 v -1.4218 h 1.4219 v -1.418 h 1.4219 v -1.4219 h 1.4179 V 16.582 h 1.4219 v -1.4218 h 1.418 v -1.4219 h 1.4257 v -1.4219 h 2.8438 v -1.4219 h 2.8398 V 9.47656 h 2.8438 V 8.05078 h 4.2656 V 6.63281 H 46.457 V 5.21094 h 7.1055 V 3.78906 h 49.7465 v 1.42188 h 9.949 v 1.42187 h 5.687 v 1.41797 h 5.684 v 1.42578 h 2.844 v 1.41794 h 4.261 v 1.4219 h 2.844 v 1.4219 H 136 v 1.4219 h 2.84 v 1.4218 h 1.422 v 1.4219 h 1.422 v 1.4219 h 1.425 v 1.418 h 1.418 v 1.4218 h 1.422 v 1.4219 h 1.422 v 1.4219 h 1.422 v 2.8437 h 1.418 v 2.8399 h 1.422 v 2.8437 h 1.422 v 5.6836 h 1.422 v 22.7422 h -1.422 v 8.5273 h -1.422 v 4.2657 h 2.844 v -1.4219 h 1.421 v -7.1055 h 1.418 v 11.3672 h -1.418 v 4.2695 h -1.421 v 2.8399 h -1.422 v 2.8398 h -1.422 v 2.8438 h -1.422 v 1.4219 h -1.418 v 1.4179 h -1.422 v 2.8477 h 1.422 v 1.4219 h 2.84 v 1.4179 h 1.422 v 1.4224 h 2.843 v 1.421 h 1.418 v 2.844 h 1.426 v 2.84 h -1.426 v 7.109 h -1.418 v 5.684 h -1.421 v 5.687 h -1.422 v 4.262 h -1.422 v 4.262 h -1.422 v 5.687 z M 46.457,131.707 v 1.422 h 1.4219 v -1.422 z M 25.1367,94.7539 v -1.4258 h -2.8398 v 1.4258 z m 5.6875,0 v 1.4219 h 8.5274 V 94.7539 Z M 84.832,141.656 h -2.8437 v -7.109 h 4.2656 v 1.426 h 1.4219 v 1.418 h 1.4219 v 5.687 H 86.2539 V 144.5 H 84.832 v 2.84 h -1.4179 v 1.422 h -1.4258 v 9.949 h 1.4258 v 2.844 h 1.4179 v -2.844 h 1.4219 v -2.844 H 84.832 v -2.84 h 7.1055 v -1.422 h 7.1094 v 1.422 h 5.6831 v -1.422 h 1.422 v -8.527 h -1.422 v -5.687 h -1.421 v -4.262 h -1.418 v -4.262 h -1.426 v -2.844 h -1.4181 v -1.425 H 97.625 v -2.84 h -1.4219 v -1.422 h -1.4218 v -1.422 h -1.4219 v -1.422 h -1.4219 v 1.422 h -1.4219 v -4.262 h -1.4179 v 4.262 h -1.4219 v 2.844 h 1.4219 v 1.422 h 1.4179 v 1.418 h 1.4219 v 1.425 h 1.4219 v 2.844 h -1.4219 v 1.418 h -1.4219 v 1.422 h -2.8398 v 1.422 h -12.793 v -1.422 h -2.8437 v -1.422 h -1.418 v -1.418 h -1.4258 v -4.269 h 1.4258 v -1.418 h 2.8437 v -1.422 h 2.8399 v -1.422 h -1.4219 v -8.527 h -1.418 v 1.421 h -1.4257 v 2.844 h -1.418 v 1.418 h -1.4258 v -1.418 h -1.418 v 1.418 h -1.4218 v 1.422 h -1.4219 v 1.422 h -1.4219 v 1.422 h -1.4219 v 1.422 h -1.4179 v 2.843 h -1.4258 v 2.844 h -1.418 v 2.84 h -1.4218 v 2.84 h -1.4219 v 4.266 h -1.4219 v 5.687 h -1.418 v 7.105 h 22.7383 v 5.684 h -1.418 v 5.684 h 1.418 v -1.418 h 1.4219 v -2.844 h 1.4219 V 147.34 h -1.4219 v -1.418 H 74.8828 V 144.5 h -1.418 v -1.422 h -1.4257 v -7.105 h 2.8437 v -1.426 h 4.2656 v 1.426 h 1.4219 v 2.84 h -1.4219 v 2.843 h -2.8437 v -1.422 h -1.4219 v -1.421 h -1.418 v 2.843 h 1.418 v 1.422 h 1.4219 v 1.422 h 1.4219 v 1.422 h 1.4218 v 1.418 h 1.4219 v -1.418 h 1.418 V 144.5 h 1.4258 v -1.422 h 1.4179 z m 0,-1.422 v 1.422 h 1.4219 v -1.422 z m 61.117,-5.687 v -1.418 h 2.844 v -1.422 h 1.418 v -1.422 h -12.789 v 1.422 h -21.32 v 1.422 h 1.421 v 1.418 z M 66.3555,73.4336 v -1.4219 h -1.4219 v 1.4219 z m 5.6836,0 v 1.4219 h -4.2618 v 1.4179 h -2.8437 v 2.8477 h -1.4219 v 8.5234 h 1.4219 v -5.6797 h 1.4219 v -2.8437 h 1.4218 v -1.4258 h 1.418 v 2.8438 h -1.418 v 2.8437 h -1.4218 v 8.5274 h -1.4219 v 11.3708 h 2.8437 v -1.422 h 4.2618 v -2.8434 h 1.4257 V 87.6445 h 1.418 v -8.5234 h 1.4219 V 73.4336 Z M 136,96.1758 v -1.4219 h -12.793 v 1.4219 z m -4.266,-56.8555 h 1.422 v 7.1094 h 1.422 V 69.1719 H 136 v 8.5234 h 1.422 v -1.4219 h 1.418 v -9.9453 h 1.422 v -7.1054 h -1.422 v -9.9532 h -1.418 V 43.5859 H 136 v -2.8398 h -1.422 v -2.8438 h -1.422 v -2.8437 h -1.422 z m -4.261,4.2656 h 2.843 v -1.4218 h -2.843 z M 20.875,99.0156 h -1.4219 v 1.4224 h 4.2657 V 99.0156 Z M 47.8789,43.5859 h -2.8437 v 1.4219 h 9.9492 v -1.4219 z m -8.5273,0 h 2.8437 v -1.4218 h -8.5312 v 1.4218 z M 66.3555,195.664 v 2.844 h 2.8398 v -1.422 h 1.4258 v -1.422 h -2.8438 v -1.422 h -1.4218 z m -2.8438,2.844 h -1.4219 v 2.844 h 1.4219 z m 0,-4.266 h 1.4219 v -2.84 h -1.4219 z m 51.1723,-24.16 v 2.844 h 7.101 v 1.422 h 9.949 v 1.418 h 2.844 v -4.262 h -14.215 v -1.422 z m -76.7543,12.793 v -1.422 H 26.5586 v 2.844 h 1.418 v 1.422 h 1.4257 v -1.422 h 5.6836 v -1.422 z m 44.0586,15.633 h 1.4258 v 7.105 h 2.8398 v -28.422 h -2.8398 v 8.528 h -1.4258 v 4.261 h 1.4258 v 5.684 H 81.9883 Z M 59.2461,40.7461 h 1.4258 v 4.2617 h -2.8438 v 1.4219 h 2.8438 v 5.6836 h -1.4258 v 1.4219 h 1.4258 v 4.2617 h -12.793 v 1.4258 h 11.3672 v 1.4179 h 1.4258 v 4.2657 h -8.5274 v 1.4218 h 8.5274 v 1.418 h -1.4258 v 4.2656 h -4.2617 v -1.4219 h -14.211 v -1.4179 h -9.9492 v 1.4179 h 8.5274 v 1.4219 h 12.7929 v 1.4219 h 8.5274 v 1.4219 h -1.4258 v 4.2656 h -5.6836 v 1.418 h 5.6836 v 4.2656 h -7.1016 v 1.4219 h 7.1016 v 4.2617 H 45.0352 v -1.4219 h -14.211 v 1.4219 h 9.9492 v 1.4219 h 18.4727 v 9.9488 h -9.9453 v 1.422 h 9.9453 v 4.262 h 1.4258 V 90.4883 h 1.4179 V 22.2656 h -1.4179 v 4.2657 h -7.1094 v 1.4218 h 7.1094 v 4.2617 H 49.3008 v 1.4219 h 11.3711 v 4.2656 h -12.793 v 1.418 H 59.2461 Z M 39.3516,83.3828 h -1.4219 v 1.4219 h 9.9492 v -1.4219 z m -9.9493,0 h 5.6836 v -1.418 h -7.1093 v 1.418 z M 70.6211,189.98 v -1.421 h 1.418 v -1.422 h -2.8438 v 4.265 h 1.4258 z m 2.8437,-4.261 h 1.418 v -2.844 h 1.4219 v -1.422 H 73.4648 Z M 19.4531,90.4883 v -4.2617 h -1.4218 v -1.4219 h -1.418 v -1.4219 h 2.8398 v 1.4219 h 1.4219 v 1.4219 h 2.8438 v -2.8438 h 1.4179 v -2.8437 h -8.5234 v -1.418 H 10.9258 V 77.6953 H 9.50391 v 5.6875 H 8.08203 v 2.8438 h 1.42188 v 1.4179 h 1.42189 v 1.4219 h 1.418 v -7.1016 h 1.4257 v 4.2618 h 1.418 v 2.8398 h 2.8438 v 1.4219 z M 6.66016,121.758 h 1.42187 v 1.422 h 8.53127 v 1.418 h 18.4726 v 1.425 h 18.4766 v -1.425 h -1.418 V 123.18 H 35.0859 v -1.422 H 18.0313 v -1.422 H 6.66016 Z M 137.422,99.0156 v 1.4224 h 5.687 v -1.4224 z m -11.371,2.8434 v -1.421 h -5.688 v 1.421 z M 13.7695,90.4883 v -1.4219 h -1.4257 v 1.4219 z M 121.785,36.4766 v 1.4257 h 7.11 V 36.4766 Z M 35.0859,100.438 h -2.8398 v 1.421 h 7.1055 v -1.421 z m 110.8631,5.683 v -1.418 h -18.476 v 1.418 z m 0,-1.418 h 8.528 v -1.422 h -8.528 z M 39.3516,144.5 v -2.844 H 23.7188 v -1.422 h -11.375 v 2.844 h 5.6875 v 1.422 z m 5.6836,-2.844 v 1.422 h 1.4218 v -1.422 z m 0,1.422 h -1.4219 v 2.844 h 1.4219 z M 97.625,29.3711 h 2.84 v -5.6836 h 1.426 V 22.2656 H 89.0977 V 20.8438 H 74.8828 v 1.4218 h -9.9492 v 7.1055 h 4.2617 v -1.418 h 21.3203 v 1.418 z m 21.32,163.4529 h 1.418 v -1.422 h -1.418 v -2.843 h -1.422 v -1.422 h -1.421 v 2.843 h 1.421 v 1.422 h 1.422 z m -21.32,-4.265 h -1.4219 v -1.422 h -4.2656 v 2.843 H 97.625 Z M 43.6133,32.2148 h 4.2656 V 30.793 h -8.5273 v 1.4218 z m 1.4219,75.3282 v -1.422 h -14.211 v 1.422 z M 30.8242,62.0625 v 1.4219 h 7.1055 v -1.4219 z m 95.2268,27.0039 v 1.4219 H 136 V 89.0664 Z M 6.66016,103.281 v 1.422 h 2.84375 v -1.422 z m 2.84375,1.422 v 1.418 H 26.5586 v -1.418 z m 5.68359,7.106 H 5.23828 v 1.421 h 5.68752 v 1.422 h 21.3203 v 1.422 h 21.3164 v 1.418 h 4.2656 v -2.84 h 1.418 V 113.23 H 30.8242 v -1.421 z m 22.7422,81.015 v -1.422 h -1.4219 v 1.422 z m -4.2656,-2.844 v 1.422 h 1.4218 v -1.422 z m 1.4218,0 h 1.4219 v -1.421 h -1.4219 z m 7.1094,-2.843 h -1.4219 v 1.422 h 1.4219 z m -1.4219,1.422 h -1.4218 v 1.421 h 1.4218 z M 90.5156,76.2734 v 8.5313 h 1.4219 v 18.4763 h 4.2656 v 1.422 H 97.625 V 87.6445 h -1.4219 v -7.1054 h 1.4219 v 4.2656 h 1.4219 v -8.5313 h -2.8438 v -1.4179 h -4.2656 v -1.4219 h -1.4219 z m 17.0584,85.2816 v -5.688 h -1.422 v 1.422 h -1.422 v 2.844 h -1.421 v 1.422 h -1.418 v 1.418 h -2.8441 v 1.425 h -7.1094 v 1.418 h 2.8438 v 1.426 h 7.1097 v -1.426 h 1.418 v -1.418 h 1.421 v -1.425 h 1.422 v -1.418 z m 1.422,-7.106 v 1.418 h 1.418 v 1.422 h 1.426 v -1.422 h 1.418 v -1.418 H 111.84 V 144.5 h -1.426 v -2.844 h 2.844 v -2.843 h 1.426 v -4.266 h -1.426 v -1.418 h -1.418 v 2.844 h -1.426 v 2.84 h -1.418 v -2.84 h -1.422 v -4.266 h -1.422 v -4.266 h -1.422 v -2.843 h -1.421 v -2.84 h -1.418 v -2.844 h -1.426 v -1.422 h -1.4181 v -2.84 H 97.625 v -1.422 h -1.4219 v -1.421 h -2.8437 v 1.421 h -1.4219 v 1.422 h 1.4219 v 1.422 h 1.4219 v 1.418 h 1.4218 v 1.422 h 1.4219 v 1.422 h 1.4219 v 2.844 h 1.4181 v 1.418 h 1.426 v 2.843 h 1.418 v 2.844 h 1.421 v 4.262 h 1.422 v 5.687 h 1.422 v 5.688 h 1.422 v 2.84 h 1.418 v 4.265 h -1.418 z m 4.262,1.418 v 1.422 h 1.426 v -1.422 z m 2.844,2.844 v 1.422 h 1.421 v -1.422 z m 4.261,2.844 v 1.418 h -5.679 v 1.425 h 24.156 v -2.843 h -11.367 v -1.422 h -7.11 z m -8.523,2.843 v -4.265 h -1.426 v 4.265 z M 72.0391,104.703 v -1.422 h -1.418 v 1.422 z m -4.2618,1.418 h 1.418 v -1.418 h -1.418 z M 79.1484,53.5352 h 4.2657 v -1.4219 h -1.4258 v -4.2617 h -1.418 v 1.4179 h -1.4219 z m -2.8437,0 v -5.6836 h -8.5274 v 1.4179 h -2.8437 v 5.6875 h 2.8437 v -1.4218 z m 12.793,-1.4219 v -2.8438 h -1.4219 v 1.4258 h -1.4219 v 1.418 H 84.832 v 1.4219 h 4.2657 z M 53.5625,160.133 v 2.84 h 1.4219 v 1.425 h 1.4219 v 1.418 h 2.8398 v 1.426 h 5.6875 v -1.426 h 1.4219 v -1.418 h 2.8398 v -1.425 H 57.8281 v -1.418 h -1.4218 v -1.422 z m 21.3203,7.109 v 1.418 h -1.418 v 1.422 h -5.6875 v 1.422 h -4.2656 v 1.422 h 11.3711 v 1.422 h 19.8985 v -1.422 h 5.6837 v -1.422 h -9.9494 v -1.422 H 86.2539 V 168.66 H 84.832 v -1.418 h -1.4179 v -2.844 h -1.4258 v -2.843 h -1.418 v -11.371 h -1.4219 v 11.371 h -1.4218 v 1.418 h -1.4219 v 4.269 z m -22.7383,-7.109 h 1.418 v -4.266 h -1.418 z m 22.7383,41.219 v -1.422 h -2.8437 v 1.422 z m 0,7.109 v -2.848 h -2.8437 v 1.422 h -1.418 v 1.426 z m 19.8985,-14.219 h 1.4218 v -2.84 h -1.4218 z m 0,0 h -2.8438 v 1.422 h 2.8438 z m 5.6837,-7.105 v 11.371 h 1.426 v 5.683 h 1.418 v -1.418 h 1.421 v -2.843 h -1.421 v -5.688 h -1.418 v -7.105 z M 13.7695,76.2734 v 1.4219 h 1.418 v -1.4219 z m 2.8438,-1.4179 h 1.418 v 1.4179 H 20.875 V 73.4336 H 19.4531 V 50.6953 h 1.4219 v -7.1094 h 1.4219 v -4.2656 h 1.4219 v -2.8437 h 1.4179 v -2.8399 h 1.4219 V 30.793 h 1.418 v -1.4219 h 1.4257 v -1.418 h 1.4219 v -1.4218 h 1.4219 v -1.4219 h 2.8398 v -1.4219 h 1.4219 v -1.4219 h 2.8438 v -1.4218 h 4.2617 v -1.418 h 4.2656 v -1.4219 h 5.6836 V 16.582 h 11.3711 v -1.4218 h 34.1133 v 1.4218 h 9.9491 v 1.4219 h 7.106 v 1.4219 h 4.261 v 1.418 h 2.844 v 1.4218 h 2.844 v 1.4219 h 2.844 v 1.4219 h 2.839 v 1.4219 h 1.422 v 1.4218 h 1.422 v 1.418 H 136 v 1.4219 h 1.422 v 1.4218 h 1.418 v 2.8438 h 1.422 v 2.8437 h 1.422 v 2.8438 h 1.425 v 7.1055 h 1.418 v 27.0039 h -1.418 v 1.4179 h 2.84 v -2.8398 h 1.422 v -7.1055 h 1.422 V 43.5859 h -1.422 v -4.2656 h -1.422 v -4.2617 h -1.422 v -2.8438 h -1.418 v -2.8437 h -1.425 v -1.418 h -1.422 v -1.4218 h -1.422 v -1.4219 h -1.418 V 23.6875 H 136 v -1.4219 h -1.422 v -1.4218 h -2.844 v -1.418 h -2.839 v -1.4219 h -2.844 V 16.582 h -2.844 v -1.4218 h -4.262 v -1.4219 h -4.261 v -1.4219 h -7.11 V 10.8945 H 97.625 V 9.47656 H 62.0898 v 1.41794 h -8.5273 v 1.4219 h -5.6836 v 1.4219 h -4.2656 v 1.4219 h -4.2617 v 1.4218 h -2.8438 v 1.4219 h -1.4219 v 1.4219 h -2.8398 v 1.418 h -1.4219 v 1.4218 h -2.8476 v 1.4219 h -1.418 v 1.4219 h -1.4219 v 2.8437 h -1.4179 v 1.418 h -1.4219 v 2.8437 H 20.875 v 2.8438 h -1.4219 v 2.8437 h -1.4218 v 4.2618 h -1.418 v 7.1054 h -1.4258 v 21.3203 h 1.4258 z m 2.8398,2.8398 v 1.4258 h 1.4219 v -1.4258 z m 9.9492,-1.4219 v 1.4219 h 9.9493 v 1.4258 H 53.5625 V 77.6953 H 40.7734 v -1.4219 z m 39.793,86.6996 h 1.4258 v -1.418 h -1.4258 z m 4.2695,0 h -1.4257 v 1.425 h 1.4257 z M 150.211,76.2734 v 1.4219 h 2.844 v 1.4258 h 1.422 v -2.8477 z m -5.684,2.8477 h 2.844 v -1.4258 h -2.844 z m 5.684,1.418 h 1.422 v -1.418 h -1.422 z m -1.418,4.2656 v -1.4219 h 1.418 v -2.8437 h -7.102 v 1.4257 h -5.687 v 2.8399 h 1.418 v 4.2617 h 1.422 v -2.8398 h 1.422 v -1.4219 h 4.265 v 1.4219 h -1.422 v 1.4179 h -1.418 v 1.4219 h -1.425 v 1.4219 h 4.265 v -1.4219 h 1.422 v -2.8398 h 1.422 z m -9.953,-5.6836 v 1.418 h 1.422 v -1.418 z m -18.477,73.9059 h -1.418 v 1.422 h 1.418 z m -4.261,-1.422 v -8.527 h -1.418 v 5.684 h -1.426 v 2.843 h 1.426 v 1.422 h 1.418 z m -17.0551,5.684 h 1.4181 v -1.422 h -1.4181 z m -9.9492,5.684 v -1.418 h -1.4219 v 1.418 z m 2.8398,1.425 v -1.425 h -2.8398 v 1.425 z m -7.1055,0 h 1.4219 v -1.425 H 84.832 Z M 56.4063,126.023 h -1.4219 v 2.844 h 1.4219 z m -5.6875,14.211 h 1.4257 v -1.421 h -1.4257 z m 0,29.848 v -1.422 h -1.418 v 1.422 z m -2.8399,-12.793 v -1.422 H 46.457 v 1.422 z m 0,-1.422 h 1.4219 v -4.262 h -1.4219 z m 0,-7.105 h 2.8399 v -8.528 h -1.418 v 2.844 h -1.4219 z m 0,-12.789 h 1.4219 v -2.844 h -1.4219 z m 4.2656,0 h 1.418 v -1.426 h -1.418 z m 1.418,-4.266 h 1.4219 v -1.422 h -1.4219 z m 2.8438,-7.109 v 1.425 h 1.4218 v -2.843 h -1.4218 z m 1.4218,-1.418 h 1.418 v -1.422 h -1.418 z m 1.418,-1.422 h 1.4258 v -1.422 h 1.4179 v -1.422 h 1.4219 v -1.422 h 1.4219 v -1.418 h 1.4219 v -1.422 h 1.4218 v -1.422 h -2.8437 v 1.422 h -1.4219 v 1.422 h -1.4219 v 1.418 h -1.4179 v 1.422 h -1.4258 z m 8.5312,-8.528 h 1.418 v -1.421 h -1.418 z m 1.418,-1.421 h 1.4258 v -1.422 h -1.4258 z m -4.2617,79.593 h 1.4219 v -5.683 h -1.4219 z m 27.0039,-85.281 h 1.4219 v -1.418 h -1.4219 z m 2.8438,1.422 h 1.4218 v -1.422 h -1.4218 z m -8.5274,5.687 h -9.9492 v 5.684 h 9.9492 v -2.84 h 1.4219 v -1.422 h -1.4219 z m -12.7891,12.793 h 15.6329 v -1.425 H 86.2539 V 123.18 H 74.8828 v 1.418 h -1.418 z m -1.4257,2.844 h 1.4257 v -1.426 h -1.4257 z m 2.8437,1.418 h 8.5313 v 1.422 h 1.4179 v -1.422 h 2.8438 v -1.418 h -12.793 z m 8.5313,-19.898 v -1.422 h -9.9493 v 1.422 z m 12.789,-55.43 h 2.8438 v -5.6875 h -2.8438 v -1.4179 h -4.2656 v 5.6836 h 2.8438 v 1.4218 z m 25.5819,99.492 h 19.899 v -1.422 h 1.425 v -2.843 h -21.324 z m -2.84,32.688 h 2.84 v -2.84 h 5.688 v 1.422 h 2.843 v -2.844 h 1.418 v -1.422 h -7.105 v -1.422 h -4.266 v 1.422 h -1.418 z m -8.531,5.687 v -2.844 h -1.418 v 2.844 z m 1.426,2.84 v -2.84 h -1.426 v 2.84 z m 0,0 v 2.844 h 2.844 v -1.422 h -1.426 v -1.422 z m -9.949,-81.012 h 1.418 v 1.422 h 11.375 v -1.422 H 136 v -1.422 h 18.477 v -1.421 h 1.421 v -1.422 h -4.265 v 1.422 h -29.848 v 1.421 h -19.894 z m 4.261,8.528 h 1.422 v 2.843 h 5.684 v -1.425 h 25.582 v -1.418 h 12.793 v -1.422 h 1.422 v -1.422 h -15.633 v 1.422 h -31.27 z M 30.8242,89.0664 v -1.4219 h -5.6875 v 1.4219 z m 12.7891,8.5313 h 12.793 V 96.1758 H 43.6133 Z M 30.8242,130.285 H 9.50391 v 2.844 h 9.94919 v 1.418 h 18.4766 v 1.426 h 4.2656 v -2.844 h 1.418 v -1.422 H 30.8242 Z m -9.9492,19.899 h -5.6875 v 1.421 h 1.4258 v 2.844 h 21.3164 v -2.844 H 20.875 Z m 25.582,7.105 h -1.4218 v 1.422 h 1.4218 z m -1.4218,1.422 h -1.4219 v 1.422 h 1.4219 z m -7.1055,2.844 H 19.4531 v 2.843 h 2.8438 v 1.418 h 21.3164 v -2.843 h -5.6836 z m 4.2656,11.371 h 1.418 v -1.422 h 1.4219 v -2.844 h -1.4219 v 1.422 h -1.418 z m -12.793,-1.422 h -7.1054 v 1.422 h 1.4219 v 1.422 h 15.6328 v -1.422 h -9.9493 z m 35.5313,34.109 h 1.4219 v 1.422 h 1.4218 v -4.262 H 64.9336 Z M 43.6133,26.5313 h 8.5312 v -1.4219 h -8.5312 z m 21.3203,15.6328 h 5.6875 v -1.418 h 22.7383 v 1.418 h 7.1056 v -5.6875 h -5.6837 v -1.418 h -27.004 v 1.418 H 64.9336 Z M 36.5078,37.9023 h 8.5274 v -1.4257 h -8.5274 z m 0,11.3672 v -1.4179 h -4.2617 v 1.4179 z m 11.3711,1.4258 V 49.2695 H 36.5078 v 1.4258 z m 11.3672,1.418 v -1.418 H 47.8789 v 1.418 z m 5.6875,14.2148 h 1.4219 v -1.4218 h 9.9492 v -1.4219 h 1.4219 v -4.2617 h -7.1055 v 1.4179 H 64.9336 Z M 97.625,60.6406 h -4.2656 v -1.4179 h -1.4219 v 1.4179 h -1.4219 v 4.2657 h 7.1094 v 1.4218 h 1.4219 V 62.0625 H 97.625 Z M 39.3516,64.9063 H 50.7188 V 63.4844 H 39.3516 v 1.4219" /></g></g></svg>