<?xml version="1.0" encoding="UTF-8" standalone="no"?>
<svg
   xmlns:dc="http://purl.org/dc/elements/1.1/"
   xmlns:cc="http://creativecommons.org/ns#"
   xmlns:rdf="http://www.w3.org/1999/02/22-rdf-syntax-ns#"
   xmlns:svg="http://www.w3.org/2000/svg"
   xmlns="http://www.w3.org/2000/svg"
   viewBox="0 0 38.666668 38.666668"
   height="38.666668"
   width="38.666668"
   xml:space="preserve"
   id="svg2"
   version="1.1"><metadata
     id="metadata8"><rdf:RDF><cc:Work
         rdf:about=""><dc:format>image/svg+xml</dc:format><dc:type
           rdf:resource="http://purl.org/dc/dcmitype/StillImage" /></cc:Work></rdf:RDF></metadata><defs
     id="defs6" /><g
     transform="matrix(1.3333333,0,0,-1.3333333,0,38.666667)"
     id="g10"><g
       transform="scale(0.1)"
       id="g12"><path
         id="path14"
         style="fill:#00669b;fill-opacity:1;fill-rule:evenodd;stroke:none"
         d="m 48.0156,115.371 c 1.8633,0.434 5.6602,2.535 8.0196,3.484 0.3945,0.336 0.207,0.27 0.9843,0.661 0.7539,0.382 -1.2265,-0.2 0.8711,0.207 3.125,1.047 3.1719,2.187 5.4922,-0.114 L 118.02,64.5781 c -1.551,-3.664 -8.336,-12.3008 -10.653,-13.1718 L 84.7969,74.8594 c -10.3086,10.2734 -23.0938,24.332 -33.5508,35.3476 -0.8594,0.902 -2.7891,2.59 -3.5625,3.586 l -0.6172,1.059 z m 24.2657,9.051 c 3.7734,1.691 22.8476,5.277 27.8667,5.48 2.571,-3.953 28.243,-25.828 28.59,-28.422 0.157,-1.199 -0.98,-8.4331 -1.25,-10.0425 -0.422,-2.5234 -2.922,-15.0547 -5.066,-17.2187 z m 56.0037,3.656 c 1.414,-2.203 1.004,-6.781 0.953,-9.816 l -0.117,-2.449 c -1.383,0.394 -15.519,13.992 -16.387,15.425 3.317,0.215 6.739,0.297 10.106,0.524 4.64,0.312 5.781,1.613 5.445,-3.684 z m 16.914,23.176 c -0.797,19.422 -1.136,14.707 0.106,34.793 1.265,-0.703 14.629,-16.586 17.859,-20.512 0.633,-0.765 1.297,-1.355 1.945,-2.152 0.614,-0.758 0.817,-1.231 1.563,-2.07 1.933,-2.192 5.484,-5.852 6.766,-8.102 -9.247,-1.578 -18.649,-1.582 -28.239,-1.957 z m 39.153,4.051 c -7.907,10.215 -17.153,19.89 -25.473,30.133 -2.164,2.664 -4.246,4.968 -6.559,7.589 -4.136,4.664 -5.078,4.805 -4.195,8.282 1.395,5.496 4.691,15.679 7.473,19.578 4.488,-4.879 8.664,-9.477 13.16,-14.61 11.23,-12.824 24.613,-26.879 35.512,-39.773 0.839,-1 2.316,-2.441 3.148,-3.828 -1.02,-1.008 -1.109,-0.875 -2.754,-1.485 -5.598,-2.058 -14.723,-5.628 -20.312,-5.886 z M 160.73,229.75 c 1.27,2.773 10.649,13.398 13.254,14.543 l 37.223,-40.762 c 2.492,-2.699 4.629,-5.461 7.242,-8.261 l 10.996,-12.262 c 0.766,-0.879 1.063,-1.348 1.879,-2.242 0.946,-1.036 0.973,-0.856 1.426,-2.118 -2.363,-2.765 -11.848,-9.769 -15.879,-11.511 -1.48,0.769 -12.125,13.328 -14.176,15.593 -8.785,9.727 -27.691,32.071 -35.129,39.243 -1.101,1.058 -6.406,6.699 -6.836,7.777 z M 67.3906,143.055 c -0.4609,-0.356 0.0469,-0.313 -1.3086,-0.735 -0.2578,-0.078 -1.1445,-0.129 -1.3593,-0.152 -9.3164,-1.727 -25.8985,-9.469 -34.0469,-15.027 -4.8399,-3.297 -2.4141,0.136 -13.4336,-1.461 -0.4649,-0.364 0.0117,-0.184 -0.918,-0.629 -0.7929,-0.371 -0.5351,-0.156 -1.2695,-0.332 -4.8125,-1.446 -9.82423,-6.379 -11.12892,-11.266 -0.10547,-0.539 -0.15234,-1.156 -0.33594,-1.68 -0.76953,-2.234 -0.04687,-0.351 -0.76171,-1.207 L 2.42188,109.379 V 103.5 c 1.15625,-1.949 1.64843,-4.8789 2.84375,-6.8945 3.55468,-5.9844 10.23047,-10.1914 18.10937,-9.586 10.8398,0.8321 17.0469,8.2969 18.3867,18.5505 1.4922,-0.64 12.4571,-12.5309 14.7071,-14.777 2.2187,-2.2188 4.9375,-5.2461 7.3281,-7.75 L 99.4531,45.4141 C 96.4063,41.0625 92.9414,44.6797 90.9297,45.4258 80.9531,49.1133 69.4805,44.1602 65.5625,33.418 60.1602,18.5938 73.9336,4.42969 89.4336,8.125 c 6.0742,1.44922 11.7384,7.1367 13.4104,13.043 1.699,6.0039 -0.496,2.8593 6.285,6.9687 4.402,2.668 10.996,7.8633 14.32,11.6836 1.985,2.2813 4.094,4.6836 6.035,7.1836 3.383,4.3555 7.266,10.8945 9.395,16.4024 0.258,1.1875 0.008,0.3476 0.398,1.2421 0.036,0.086 0.192,0.125 0.223,0.3204 0.027,0.1914 0.172,0.1914 0.254,0.2968 3.687,8.3399 6.441,20.3125 7.578,30.461 0.68,6.0314 1.004,12.0074 0.938,18.1284 -0.04,3.649 -1.071,15.997 -0.465,18.04 4.929,1.296 27.836,-0.645 55.75,8.46 17.398,5.684 29.504,13.141 40.941,22.969 11.172,9.61 20.442,23.34 25.848,38.028 3.086,8.378 4.906,16.304 5.969,25.972 0.394,3.621 -0.313,4.344 2.332,5.891 8.003,4.687 8.203,11.937 9.41,14.156 v 5.547 c -1.684,2.937 -1.676,5.465 -4.137,8.746 -11.188,14.899 -35.238,6.91 -35.172,-11.844 0.035,-8.75 4.184,-12.336 8.922,-16.437 l -0.641,-7.102 -0.672,-4.14 c -0.027,0.07 -0.148,-0.235 -0.222,-0.352 -1.227,-8.371 -4.774,-17.156 -8.473,-24.191 l -7.972,-11.387 c -2.571,1.84 -5.293,5.793 -7.305,7.953 -2.504,2.68 -4.403,5.172 -7.09,7.969 -2.336,2.43 -4.906,5.48 -7.102,7.949 -6.3,7.082 -32.765,37.609 -35.605,38.887 -0.676,0.648 -0.465,-0.004 -0.684,0.937 -0.265,1.153 -0.648,0.278 0.485,0.821 4.761,2.41 6.957,5.066 10.109,3.043 3.18,-2.047 6.684,-3.508 11.582,-3.34 8.762,0.3 13.606,5.136 17.379,12.281 0.07,0.477 0.113,0.945 0.246,1.406 0.195,0.645 0.426,0.852 0.567,1.078 4.375,21.34 -20.852,32.426 -33.672,17.93 -4.985,-5.633 -3.532,-9.246 -5.684,-10.742 -0.695,-0.481 -7.078,-3.344 -10.715,-5.703 -29.386,-19.102 -42.734,-48.117 -46.508,-84.043 -1.148,-10.965 -0.164,-20.66 0.125,-31.449 -19.531,-0.399 -40.9918,-3.145 -58.4254,-8.133" /><path
         id="path16"
         style="fill:#7e7e7e;fill-opacity:1;fill-rule:evenodd;stroke:none"
         d="m 129.238,118.262 c 0.051,3.035 0.461,7.613 -0.953,9.816 0.133,-1.562 0.27,-3.183 0.289,-4.781 0.004,-0.863 0.024,-1.746 0.094,-2.609 l 0.57,-2.426" /><path
         id="path18"
         style="fill:#666666;fill-opacity:1;fill-rule:evenodd;stroke:none"
         d="m 2.82813,110.566 c 0.71484,0.856 -0.00782,-1.027 0.76171,1.207 0.1836,0.524 0.23047,1.141 0.33594,1.68 -0.49609,-0.543 -0.2539,0.289 -0.8125,-1.242 -0.13672,-0.367 -0.21875,-1.258 -0.28515,-1.645" /><path
         id="path20"
         style="fill:#858585;fill-opacity:1;fill-rule:evenodd;stroke:none"
         d="m 256.133,221.789 c 0.074,0.117 0.195,0.422 0.222,0.352 l 0.672,4.14 -0.718,-1.82 c -0.102,-0.606 -0.133,-2.023 -0.176,-2.672" /><path
         id="path22"
         style="fill:#727272;fill-opacity:1;fill-rule:evenodd;stroke:none"
         d="m 64.7227,142.168 c 0.2148,0.023 1.1015,0.074 1.3593,0.152 1.3555,0.422 0.8477,0.379 1.3086,0.735 -0.5898,-0.078 -1.1367,-0.086 -1.7187,-0.285 -0.6797,-0.227 -0.6563,-0.387 -0.9492,-0.602" /><path
         id="path24"
         style="fill:#909090;fill-opacity:1;fill-rule:evenodd;stroke:none"
         d="m 221.457,262.711 c 0.711,0.93 0.051,-1.027 0.637,1.035 0.336,1.18 0.07,0.188 0.176,1.449 -0.141,-0.226 -0.372,-0.433 -0.567,-1.078 -0.133,-0.461 -0.176,-0.929 -0.246,-1.406" /><path
         id="path26"
         style="fill:#6e6e6e;fill-opacity:1;fill-rule:evenodd;stroke:none"
         d="m 182.586,248.969 -0.199,1.758 c -1.133,-0.543 -0.75,0.332 -0.485,-0.821 0.219,-0.941 0.008,-0.289 0.684,-0.937" /><path
         id="path28"
         style="fill:#6e6e6e;fill-opacity:1;fill-rule:evenodd;stroke:none"
         d="m 15.0547,124.719 c 0.7344,0.176 0.4766,-0.039 1.2695,0.332 0.9297,0.445 0.4531,0.265 0.918,0.629 -0.9453,-0.172 -0.4297,0.047 -1.25,-0.278 -0.7305,-0.289 -0.5625,-0.363 -0.9375,-0.683" /><path
         id="path30"
         style="fill:#6e6e6e;fill-opacity:1;fill-rule:evenodd;stroke:none"
         d="m 47.6836,113.793 c 0.0508,1.109 -0.0391,0.805 0.332,1.578 l -0.9492,-0.519 0.6172,-1.059" /><path
         id="path32"
         style="fill:#656565;fill-opacity:1;fill-rule:evenodd;stroke:none"
         d="m 56.0352,118.855 c 1.3554,0.29 0.2812,-0.082 0.8906,0.223 0.7344,0.371 0.5898,0.324 0.9648,0.645 -2.0976,-0.407 -0.1172,0.175 -0.8711,-0.207 -0.7773,-0.391 -0.5898,-0.325 -0.9843,-0.661" /><path
         id="path34"
         style="fill:#777777;fill-opacity:1;fill-rule:evenodd;stroke:none"
         d="m 138.879,63.4063 c 0.078,0.1015 0.215,0.3632 0.246,0.2968 0.031,-0.0664 0.184,0.2383 0.223,0.3242 0.382,0.875 0.144,0.1055 0.406,1.2383 -0.082,-0.1054 -0.227,-0.1054 -0.254,-0.2968 -0.031,-0.1954 -0.187,-0.2344 -0.223,-0.3204 -0.39,-0.8945 -0.14,-0.0546 -0.398,-1.2421" /></g></g></svg>