<?xml version="1.0" encoding="UTF-8" standalone="no"?>
<svg
   xmlns:dc="http://purl.org/dc/elements/1.1/"
   xmlns:cc="http://creativecommons.org/ns#"
   xmlns:rdf="http://www.w3.org/1999/02/22-rdf-syntax-ns#"
   xmlns:svg="http://www.w3.org/2000/svg"
   xmlns="http://www.w3.org/2000/svg"
   viewBox="0 0 48 30.666668"
   height="30.666668"
   width="48"
   xml:space="preserve"
   id="svg2"
   version="1.1"><metadata
     id="metadata8"><rdf:RDF><cc:Work
         rdf:about=""><dc:format>image/svg+xml</dc:format><dc:type
           rdf:resource="http://purl.org/dc/dcmitype/StillImage" /></cc:Work></rdf:RDF></metadata><defs
     id="defs6" /><g
     transform="matrix(1.3333333,0,0,-1.3333333,0,30.666667)"
     id="g10"><g
       transform="scale(0.1)"
       id="g12"><path
         id="path14"
         style="fill:#00669b;fill-opacity:1;fill-rule:evenodd;stroke:none"
         d="m 177.934,104.09 c 0,14.535 16.3,9.328 9.437,-13.9337 -7.969,-3.8672 -9.437,-0.461 -9.437,8.6523 z m 1.808,67.586 4.539,0.015 c 1.813,2.903 1.231,44.719 0.985,46.473 l -0.985,3.449 c -7.035,-0.152 -4.511,-1.91 -4.511,-22.449 0,-9.156 0.058,-18.332 -0.028,-27.488 z m 9.875,49.824 c 3.227,-5.785 6.051,-10.457 3.414,-19.094 6.782,1.051 11.121,6.321 17.981,8.172 11.211,3.031 12.297,-3.781 19.5,-6.32 12.508,-4.406 34.386,1.961 42.218,8.445 -8.296,1.027 -14.371,-1.484 -24.054,1.188 -9.043,2.492 -10.196,6.402 -16.571,9.882 -15.792,8.629 -27.621,0.836 -42.488,-2.273 z M 83.4453,6.33203 C 88.2461,4.89844 129.301,5.10547 135.355,6.03906 L 135.336,84.2148 83.6914,84.5039 Z M 227.77,5.82813 279.766,5.47656 c 0.187,12.98824 0.578,27.74224 -0.008,40.58984 -0.465,10.5508 0.176,25.3828 0.023,38.2617 l -51.914,-0.25 z m 84.371,59.03517 c -1.067,3.5937 -1.723,12.5 -0.922,16.9453 1.094,6.1211 5.035,5.3945 9.476,3.6875 1.512,-7.168 4.614,-27.1328 -8.554,-20.6328 z m -35.032,27.5625 11.848,-0.043 0.102,-86.56249 53.914,-0.21484 0.078,86.51173 12.531,0.293 0.055,35.3708 -15.051,-0.023 -0.051,-9.176 -5.183,0.043 -0.692,9.82 -14.805,-0.117 0.086,-9.883 -5.718,0.008 c -1.817,2.602 -1.383,6.324 -1.305,9.719 l -14.859,0.34 -0.262,-9.735 -4.695,-0.379 c -0.145,0.344 -0.282,1.055 -0.325,0.918 -0.039,-0.144 -0.238,0.637 -0.281,0.86 l -0.484,8.32 -14.918,-0.023 z M 46.8125,86.5938 c 9.0313,3.5625 9.8047,-21.4336 2.7773,-23.086 -9.2734,-2.1719 -8.6875,20.7578 -2.7773,23.086 z M 9.51172,92.5039 21.4297,92.3906 21.4023,5.73438 75.543,5.64063 l 0.0156,86.71877 12.3906,0.1836 -0.0429,35.32 -14.2813,0.106 -0.8281,-9.199 -5.6524,-0.04 -0.0429,9.637 -14.6524,0.035 -0.0586,-9.789 -7.1914,0.352 0.0742,9.515 -14.9257,-0.136 0.0234,-9.703 -5.3086,1.629 -0.5664,7.914 -15.03907,0.339 z m 122.17228,70.7421 0.129,-38.535 15.32,-0.25 L 147.105,5.59766 172.133,5.5625 c 0.469,12.0273 -4.176,35.0742 10.031,35.5742 14.477,0.5078 10.289,-17.625 10.617,-35.59764 l 25.278,0.00782 -0.008,119.00812 16.293,0.152 0.238,45.715 -19.695,0.57 -0.071,-12.16 -7.328,-0.16 0.032,13.023 -19.766,-0.027 -0.133,-12.988 -9.09,0.035 0.004,12.594 -19.722,0.562 0.058,-13.183 -7.586,0.035 -0.094,12.715 -19.523,0.339 0.016,-8.531" /></g></g></svg>