<?xml version="1.0" encoding="UTF-8" standalone="no"?>
<svg
   xmlns:dc="http://purl.org/dc/elements/1.1/"
   xmlns:cc="http://creativecommons.org/ns#"
   xmlns:rdf="http://www.w3.org/1999/02/22-rdf-syntax-ns#"
   xmlns:svg="http://www.w3.org/2000/svg"
   xmlns="http://www.w3.org/2000/svg"
   viewBox="0 0 21.333332 21.333332"
   height="21.333332"
   width="21.333332"
   xml:space="preserve"
   id="svg2"
   version="1.1"><metadata
     id="metadata8"><rdf:RDF><cc:Work
         rdf:about=""><dc:format>image/svg+xml</dc:format><dc:type
           rdf:resource="http://purl.org/dc/dcmitype/StillImage" /></cc:Work></rdf:RDF></metadata><defs
     id="defs6" /><g
     transform="matrix(1.3333333,0,0,-1.3333333,0,21.333333)"
     id="g10"><g
       transform="scale(0.1)"
       id="g12"><path
         id="path14"
         style="fill:#00679c;fill-opacity:1;fill-rule:evenodd;stroke:none"
         d="m 75.3477,68.6211 c -1.8516,3.5781 -1.7071,5.9258 -4.3282,8.9219 -1.2304,1.4023 -1.6015,1.2031 -2.9648,3.8593 -4.2617,8.3008 1.9297,18.5235 11.3945,18.4571 7.3164,-0.0586 13.125,-6.1914 12.5469,-13.8008 -0.5938,-7.8281 -7.0391,-8.4531 -8.3086,-17.543 z m -17.2344,37.0509 -0.3008,-3.609 2.0391,-0.368 1.9062,0.075 -0.1133,3.972 z m -4.2344,-21.4689 3.9297,0.0586 0.0117,3.7305 -3.8086,0.1406 z m 46.9841,0.0157 3.914,0.0234 0.02,3.7812 -3.817,0.0977 z m -41.0466,-17.6602 3.8125,0.0586 0.0781,3.6641 -3.9726,0.3085 z m 35.2422,0.0469 3.7617,-0.0235 0.1758,3.875 -3.9883,0.0586 z m 1.9102,35.1485 3.9652,0.027 v 4.004 l -3.977,0.012 z m -19.5977,5.863 3.9883,0.02 -0.0235,2.011 0.0157,2.008 -3.9844,0.02 z m -3.9219,-58.5818 12.0235,-0.1211 1.6328,3.8125 -15.4844,0.1914 z m -1.9531,7.9609 15.7617,-0.2773 -0.082,3.9921 -15.5938,-0.0156 z m 0.0391,7.8086 15.6445,-0.207 c 1.2695,13.7148 9.3594,11.1757 8.8594,23.1992 -0.8711,20.9261 -32.043,21.1681 -33.2852,0.4453 -0.7344,-12.2383 8.0899,-11.0508 8.7813,-23.4375" /><path
         id="path16"
         style="fill:#00679c;fill-opacity:1;fill-rule:evenodd;stroke:none"
         d="m 79.582,155.063 c 42.066,0 76.168,-34.102 76.168,-76.1763 0,-42.0664 -34.102,-76.16795 -76.168,-76.16795 -42.0742,0 -76.17184,34.10155 -76.17184,76.16795 0,42.0743 34.09764,76.1763 76.17184,76.1763 z m 0.1485,-3.653 c 39.9845,0 72.3905,-32.406 72.3905,-72.3905 0,-39.9843 -32.406,-72.3945 -72.3905,-72.3945 -39.9883,0 -72.39456,32.4102 -72.39456,72.3945 0,39.9845 32.40626,72.3905 72.39456,72.3905" /></g></g></svg>