<?xml version="1.0" encoding="UTF-8" standalone="no"?>
<svg
   xmlns:dc="http://purl.org/dc/elements/1.1/"
   xmlns:cc="http://creativecommons.org/ns#"
   xmlns:rdf="http://www.w3.org/1999/02/22-rdf-syntax-ns#"
   xmlns:svg="http://www.w3.org/2000/svg"
   xmlns="http://www.w3.org/2000/svg"
   viewBox="0 0 21.333332 21.333332"
   height="21.333332"
   width="21.333332"
   xml:space="preserve"
   id="svg2"
   version="1.1"><metadata
     id="metadata8"><rdf:RDF><cc:Work
         rdf:about=""><dc:format>image/svg+xml</dc:format><dc:type
           rdf:resource="http://purl.org/dc/dcmitype/StillImage" /></cc:Work></rdf:RDF></metadata><defs
     id="defs6" /><g
     transform="matrix(1.3333333,0,0,-1.3333333,0,21.333333)"
     id="g10"><g
       transform="scale(0.1)"
       id="g12"><path
         id="path14"
         style="fill:#00679c;fill-opacity:1;fill-rule:evenodd;stroke:none"
         d="M 52.957,79.8359 V 77.6484 H 42.4492 L 56.3516,63.5313 70.5742,77.543 59.9609,77.6484 C 60.4414,99.1992 86.0586,110.43 101.66,94.8359 122.117,74.3789 95.9219,41.1016 70.5391,57.5898 c -1.3633,0.8868 -1.9219,2.1055 -3.5782,2.5508 L 62.043,55.4297 c 0.539,-0.6914 3.0273,-2.7813 3.8593,-3.3555 1.586,-1.1015 3.0704,-2.0508 4.6446,-2.8008 12.5429,-5.9726 27.2539,-3.207 36.3791,5.9219 l 3.125,3.8828 c 6.851,9.8125 7.937,21.3203 2.933,32.1992 -2.199,4.7813 -5.66,8.9527 -9.941,11.9417 -1.414,0.992 -3.2032,2.14 -4.586,2.859 -8.4297,4.387 -19.0156,3.961 -27.6875,0.16 -1.539,-0.675 -3.3945,-1.89 -4.625,-2.816 -2.707,-2.027 -3.6484,-2.664 -5.6914,-5.254 C 59.8242,97.3711 59.5898,97.1523 58.8867,96.2305 55.7227,92.0742 52.957,85.4922 52.957,79.8359" /><path
         id="path16"
         style="fill:#00679c;fill-opacity:1;fill-rule:evenodd;stroke:none"
         d="m 80.9727,73.707 7.6328,-4.1836 c 1.3906,-0.8437 2.164,-1.2929 3.5586,-2.1328 1.2695,-0.7695 2.5586,-1.8672 4.1289,-2 0.6914,1.3086 1.8672,3.0039 2.1875,4.3789 -2.3047,1.2227 -4.043,2.3594 -6.418,3.6485 -1.2266,0.6718 -1.7852,1.0664 -3.0195,1.789 -4.1485,2.4336 -2.8164,1.0586 -2.8164,16.4493 H 80.9727 V 73.707" /><path
         id="path18"
         style="fill:#00679c;fill-opacity:1;fill-rule:evenodd;stroke:none"
         d="m 82.9492,152.66 c 42.0708,0 76.1718,-34.097 76.1718,-76.1717 0,-42.0664 -34.101,-76.167987 -76.1718,-76.167987 -42.0703,0 -76.17186,34.101587 -76.17186,76.167987 0,42.0747 34.10156,76.1717 76.17186,76.1717 z m 0.1485,-3.648 c 39.9843,0 72.3903,-32.407 72.3903,-72.3909 0,-39.9883 -32.406,-72.39454 -72.3903,-72.39454 -39.9844,0 -72.3946,32.40624 -72.3946,72.39454 0,39.9839 32.4102,72.3909 72.3946,72.3909" /></g></g></svg>