<?xml version="1.0" encoding="UTF-8" standalone="no"?>
<svg
   xmlns:dc="http://purl.org/dc/elements/1.1/"
   xmlns:cc="http://creativecommons.org/ns#"
   xmlns:rdf="http://www.w3.org/1999/02/22-rdf-syntax-ns#"
   xmlns:svg="http://www.w3.org/2000/svg"
   xmlns="http://www.w3.org/2000/svg"
   viewBox="0 0 14.666667 24"
   height="24"
   width="14.666667"
   xml:space="preserve"
   id="svg2"
   version="1.1"><metadata
     id="metadata8"><rdf:RDF><cc:Work
         rdf:about=""><dc:format>image/svg+xml</dc:format><dc:type
           rdf:resource="http://purl.org/dc/dcmitype/StillImage" /></cc:Work></rdf:RDF></metadata><defs
     id="defs6" /><g
     transform="matrix(1.3333333,0,0,-1.3333333,0,24)"
     id="g10"><g
       transform="scale(0.1)"
       id="g12"><path
         id="path14"
         style="fill:#00679b;fill-opacity:1;fill-rule:evenodd;stroke:none"
         d="m 20.0703,48.207 c 20.9531,19.0508 34.3867,-12.1679 7.625,-17.25 -7.6601,-0.6601 -15.3594,9.6563 -7.625,17.25 z M 78.832,64.0547 c -1.414,-0.9844 -3.5078,-0.2656 -3.1367,1.582 1.5156,6.9961 5.3555,15.125 10.5469,19.2656 5.0664,-3.0976 7.4687,-4.8789 8.0039,-11.6757 C 88.5156,68.457 86.5898,68.5977 78.832,64.0547 Z m 0.4453,55.4293 -2.0273,4.239 c 1.4688,0.007 2.9414,0.015 4.4141,0.015 1.3554,0.078 2.7734,0.153 3.0195,2.039 -4.3125,16.313 7.1758,35.711 -7.6719,47.344 -14,10.965 -31.4687,4.953 -39.4453,-5.824 l 2.9141,-28.766 C 46.6328,121.355 51.3594,137.969 55.1797,125.559 60.1563,109.367 27.5469,106.867 27.918,90.1914 28.1602,86.0781 31.2891,84.4727 36.5,80.3047 27.457,66.2266 9.11328,68.0078 8.22656,46.5898 7.21875,22.2617 30.4141,18.6523 38.043,15.75 41.9023,1.16016 32.7383,4.23828 86.8945,4.79688 89.6133,28.0586 76.3711,32.75 72.8281,50.6484 86.4727,60.3789 99.918,55.5234 109.98,70.418 109.645,79.5742 101.121,90.3594 96.4883,97.7109 81.2109,121.949 86.8438,109.621 79.2773,119.484" /></g></g></svg>