<?xml version="1.0" encoding="UTF-8" standalone="no"?>
<svg
   xmlns:dc="http://purl.org/dc/elements/1.1/"
   xmlns:cc="http://creativecommons.org/ns#"
   xmlns:rdf="http://www.w3.org/1999/02/22-rdf-syntax-ns#"
   xmlns:svg="http://www.w3.org/2000/svg"
   xmlns="http://www.w3.org/2000/svg"
   viewBox="0 0 21.333332 22.666668"
   height="22.666668"
   width="21.333332"
   xml:space="preserve"
   id="svg2"
   version="1.1"><metadata
     id="metadata8"><rdf:RDF><cc:Work
         rdf:about=""><dc:format>image/svg+xml</dc:format><dc:type
           rdf:resource="http://purl.org/dc/dcmitype/StillImage" /></cc:Work></rdf:RDF></metadata><defs
     id="defs6" /><g
     transform="matrix(1.3333333,0,0,-1.3333333,0,22.666667)"
     id="g10"><g
       transform="scale(0.1)"
       id="g12"><path
         id="path14"
         style="fill:#00679b;fill-opacity:1;fill-rule:evenodd;stroke:none"
         d="m 100.434,109.289 2.769,0.098 c 0.442,-2.68 0.117,-91.68 0.121,-94.1917 0,-3.4883 -0.504,-7.76952 1.203,-10.33592 4.063,-6.08204 13.368,-3.902349 14.133,2.89453 0.301,2.64449 0.082,31.29689 0.082,35.39839 -0.008,7.7344 -0.308,16.129 0.031,23.7891 l 3.25,0.0938 c 0.45,-15.4766 0.028,-31.5664 0.028,-47.086 0,-7.3437 -1.668,-16.31248 5.148,-18.30076 3.696,-1.074221 6.746,0.35156 8.418,2.60156 1.996,2.69141 1.43,6.3984 1.43,10.3477 0,15.7656 0,31.5273 0,47.289 0,15.7149 -0.324,31.7696 0.019,47.4413 l 3.071,0.051 c 0.039,-6.676 -0.356,-33.0392 0.054,-37.0743 0.258,-2.5313 1.879,-4.3125 4.309,-4.8359 9.355,-2.0235 6.965,12.3476 6.965,20.2929 0,6.1446 0,12.2933 0,18.4373 0,6.711 0.578,10.832 -2.453,16.012 -6.078,10.391 -17.692,8.125 -28.801,8.129 -4.727,0.004 -13.918,0.492 -18.043,-0.41 -4.9492,-1.09 -8.6797,-4.52 -10.6602,-7.789 -3.039,-5.028 -2.4453,-9.469 -2.4453,-15.942 0,-6.144 0,-12.2927 0,-18.4373 0,-3.5234 -0.6641,-15.375 0.75,-17.625 2.6992,-4.2851 9.8477,-3.7695 10.4685,2.1563 0.895,8.5429 -0.8513,29.988 0.153,36.996 z m 18.629,50.238 c -7.579,-1.035 -12.2,-6.644 -11.559,-14.367 1.383,-16.695 28.012,-14.215 25.695,3.176 -0.855,6.414 -6.894,12.176 -14.136,11.191 z m -75.0396,0.465 c -17.75,-2.398 -14.8828,-26.926 2.3438,-25.672 7.0547,0.516 12.2695,6.41 11.4961,14.262 -0.6328,6.477 -6.5938,12.391 -13.8399,11.41 z m -15.0156,-47.105 2.7617,-0.035 C 31.8281,110.18 15.043,57.9023 14.418,53.0898 l 16.7617,-0.0039 c 0.3828,-2.7304 0.125,-37.2617 0.1094,-43.0742 -0.0118,-3.75779 0.3789,-8.1367 6.1445,-8.24607 4.9297,-0.08985 6.2109,3.21484 6.1992,7.9414 -0.0117,5.97267 -0.2383,40.39457 0.0781,43.35547 l 2.8907,0.0039 c 0.4062,-2.5664 0.1211,-37.082 0.1132,-42.7578 -0.0078,-4.91016 0.668,-8.47657 5.8829,-8.51563 2.7226,-0.01953 3.789,0.89844 5.0625,2.26562 1.5078,1.61719 1.2695,3.42579 1.2617,5.95311 -0.0156,6.9258 -0.2969,38.7539 0.0625,43 l 16.5898,0.0625 c -0.9531,4.7344 -6.8554,23.3008 -8.6992,29.793 -1.3867,4.8984 -3.0625,9.957 -4.4336,14.8906 -0.7226,2.5902 -4.2148,13.5192 -4.2695,15.1332 3.9179,-0.004 2.4179,1.015 4.4219,-5.176 l 8.8515,-29.7892 c 2.0899,-7.4492 10.336,-4.4844 10.1328,0.789 -0.0508,1.2383 -1.7304,6.4375 -2.1523,7.8047 -3.0586,9.8633 -5.8281,20.1215 -8.6172,30.0075 -1.582,5.578 -4.2813,8.903 -7.8828,11.469 -4.5977,3.277 -10.4375,2.43 -16.8672,2.43 -9.3047,0 -16.832,1.418 -22.8164,-5.992 -1.5977,-1.977 -2.4336,-3.579 -3.3906,-6.407 -3.2305,-9.554 -6.1485,-19.9918 -8.8946,-29.8004 -0.625,-2.2344 -1.35934,-5.3047 -2.11716,-7.4063 -2.5039,-6.9726 6.36326,-9.539 8.86716,-5 0.9102,1.6524 6.1563,19.8906 6.836,22.3164 l 4.4648,14.7503" /></g></g></svg>