<?xml version="1.0" encoding="UTF-8" standalone="no"?>
<svg
   xmlns:dc="http://purl.org/dc/elements/1.1/"
   xmlns:cc="http://creativecommons.org/ns#"
   xmlns:rdf="http://www.w3.org/1999/02/22-rdf-syntax-ns#"
   xmlns:svg="http://www.w3.org/2000/svg"
   xmlns="http://www.w3.org/2000/svg"
   viewBox="0 0 16 18.666668"
   height="18.666668"
   width="16"
   xml:space="preserve"
   id="svg2"
   version="1.1"><metadata
     id="metadata8"><rdf:RDF><cc:Work
         rdf:about=""><dc:format>image/svg+xml</dc:format><dc:type
           rdf:resource="http://purl.org/dc/dcmitype/StillImage" /></cc:Work></rdf:RDF></metadata><defs
     id="defs6" /><g
     transform="matrix(1.3333333,0,0,-1.3333333,0,18.666667)"
     id="g10"><g
       transform="scale(0.1)"
       id="g12"><path
         id="path14"
         style="fill:#00679b;fill-opacity:1;fill-rule:evenodd;stroke:none"
         d="m 112.602,94.1836 c 0,7.3474 -2.688,13.8984 -6.293,19.8864 -6.7895,11.278 -15.8559,19.235 -28.9184,23.008 -4.9062,1.418 -17.7148,3.34 -22.8593,2.754 -9.3438,-1.07 -12.5079,-0.887 -21.3594,-4.824 C 25.8867,131.766 20.1016,126.469 15.4023,120.379 9.26172,112.418 6.42969,97.0469 9.9375,90.0391 13.0039,83.9023 11.0625,80.4219 7.33984,74.2969 -0.886719,60.7813 6.35547,62.6914 10.0898,60.9023 c 1.9336,-8.3164 -2.62496,-6.371 3.1094,-10.2109 -0.5742,-2.4414 -1.2812,-2.5 0,-4.8555 0.3985,-0.7382 2.2149,-3.2539 2.2149,-4.0195 0,-8.043 -2.2344,-10.6953 6.8945,-12.1953 6.7305,-1.1016 19.2305,3.9687 23.1484,-3.4688 2.3125,-4.3867 9.6211,-18.28902 9.8985,-21.61714 h 1.3281 c 0.6484,2.41797 5.5039,8.60934 7.1055,10.65624 5.1211,6.5469 10.8984,12.8789 17.9218,17.5781 5.9805,4.0039 7.5391,3.4453 11.8086,5.4922 -0.3047,3.6797 -0.8867,1.5 -0.8867,9.3203 0,11.7422 14.7462,25.1172 18.7652,38.043 0.883,2.8242 1.204,5.6875 1.204,8.5586" /><path
         id="path16"
         style="fill:#fefefe;fill-opacity:1;fill-rule:evenodd;stroke:none"
         d="m 54.25,129.258 -3.0312,-3.348 c -13.5625,2.063 -15.3008,-2.472 -15.6719,-10.941 -9.0391,-2.985 -9.7578,-10.942 -2.1953,-15.1604 0.5195,-1.0781 0.5781,-2.8633 1.2812,-4.4258 2.3672,-5.2422 7.9805,-4.9883 14.207,-3.1328 0.8321,-11.8281 6.7266,-10.0039 14.25,-9.9141 4.1133,-9.8867 2.4141,-11.4648 6.8477,-13.207 l 2.8516,6.4531 c 5.2382,-5.8867 11.5234,-4.1093 13.5664,4.5235 4.6015,-0.3946 7.8945,0.1562 9.1797,3.3047 1.2226,2.9961 0.1523,5.1015 -0.7188,7.4687 7.6016,2.2695 7.6716,14.1641 0.875,17.2581 1.1875,4.945 2.7813,4.359 -0.2851,10.648 -4.3829,6.988 -9.2461,6.492 -17.8829,5.625 -1.9726,4.27 -2.1992,5.629 -6.3554,6.969 -6.2227,2.113 -6.4492,-2.43 -10.543,-2.723 -0.9531,-0.066 -2.5703,1.805 -6.375,0.602" /><path
         id="path18"
         style="fill:#00679b;fill-opacity:1;fill-rule:nonzero;stroke:none"
         d="m 67.1094,97.5664 c -0.0117,0.4609 -0.0156,0.8125 -0.0156,1.043 0,1.3633 0.1875,2.5386 0.5781,3.5276 0.2851,0.754 0.7383,1.508 1.3711,2.265 0.4609,0.551 1.3008,1.36 2.5039,2.418 1.207,1.063 1.9844,1.907 2.3476,2.543 0.3594,0.637 0.5352,1.325 0.5352,2.075 0,1.359 -0.5234,2.554 -1.5781,3.582 -1.0547,1.031 -2.3516,1.546 -3.8789,1.546 -1.4844,0 -2.7188,-0.472 -3.711,-1.402 -0.9961,-0.934 -1.6406,-2.391 -1.9492,-4.379 l -3.5664,0.438 c 0.3281,2.644 1.2773,4.675 2.8633,6.078 1.5937,1.406 3.6914,2.117 6.3047,2.117 2.7617,0 4.9648,-0.754 6.6132,-2.266 1.6446,-1.511 2.4688,-3.339 2.4688,-5.48 0,-1.242 -0.2891,-2.383 -0.8672,-3.426 -0.582,-1.047 -1.7187,-2.316 -3.4101,-3.812 -1.1329,-1 -1.8711,-1.746 -2.2188,-2.215 -0.3516,-0.477 -0.6055,-1.024 -0.7734,-1.649 -0.1641,-0.6091 -0.2618,-1.613 -0.293,-3.0036 z m -0.6328,-6.9648 v 3.957 h 3.957 v -3.957 h -3.957" /></g></g></svg>