<?xml version="1.0" encoding="UTF-8" standalone="no"?>
<svg
   xmlns:dc="http://purl.org/dc/elements/1.1/"
   xmlns:cc="http://creativecommons.org/ns#"
   xmlns:rdf="http://www.w3.org/1999/02/22-rdf-syntax-ns#"
   xmlns:svg="http://www.w3.org/2000/svg"
   xmlns="http://www.w3.org/2000/svg"
   viewBox="0 0 137.33333 144"
   height="144"
   width="137.33333"
   xml:space="preserve"
   id="svg2"
   version="1.1"><metadata
     id="metadata8"><rdf:RDF><cc:Work
         rdf:about=""><dc:format>image/svg+xml</dc:format><dc:type
           rdf:resource="http://purl.org/dc/dcmitype/StillImage" /></cc:Work></rdf:RDF></metadata><defs
     id="defs6" /><g
     transform="matrix(1.3333333,0,0,-1.3333333,0,144)"
     id="g10"><g
       transform="scale(0.1)"
       id="g12"><path
         id="path14"
         style="fill:#0087cb;fill-opacity:1;fill-rule:evenodd;stroke:none"
         d="m 543.77,1077.71 c 208.246,0 388.742,-117.401 477.43,-288.858 l -64.755,-19.008 c -79.707,146.5 -236.273,246.096 -416.386,246.096 -260.946,0 -472.4692,-209.022 -472.4692,-466.877 0,-12.309 0.5,-24.508 1.4571,-36.575 l -60.24612,5.36 c -0.58594,10.043 -0.8789,20.164 -0.8789,30.351 0,292.442 239.90612,529.511 535.84812,529.511" /><path
         id="path16"
         style="fill:#cbdeea;fill-opacity:1;fill-rule:evenodd;stroke:none"
         d="M 349.586,38.7813 C 156.613,110.25 30.125,282.285 7.48828,473.512 l 66.60942,-4.41 C 97.082,304.371 207.578,157.246 374.48,95.4336 534.137,36.3008 705.461,70.0508 829.234,169.391 l 38.692,-44.625 C 727.367,10.4844 531.777,-28.6914 349.586,38.7813" /><path
         id="path18"
         style="fill:#2ba6dd;fill-opacity:1;fill-rule:evenodd;stroke:none"
         d="m 541.094,1007.56 c 256.508,0 464.446,-207.931 464.446,-464.447 0,-256.508 -207.938,-464.445 -464.446,-464.445 -256.52,0 -464.4495,207.937 -464.4495,464.445 0,256.516 207.9295,464.447 464.4495,464.447 z m 1.269,-47.775 c 227.426,0 411.797,-184.371 411.797,-411.812 0,-227.43 -184.371,-411.801 -411.797,-411.801 -227.441,0 -411.808,184.371 -411.808,411.801 0,227.441 184.367,411.812 411.808,411.812" /><path
         id="path20"
         style="fill:#cbdeea;fill-opacity:1;fill-rule:evenodd;stroke:none"
         d="m 541.938,1007.26 c 192.8,0 358.152,-117.483 428.398,-284.764 l -50.098,-9.039 c -63.785,144.871 -208.582,246.031 -377.035,246.031 -227.437,0 -411.808,-184.371 -411.808,-411.812 0,-3.125 0.054,-6.238 0.117,-9.356 l -53.9964,6.27 c 0.9571,255.703 208.4924,462.67 464.4224,462.67" /><path
         id="path22"
         style="fill:#999999;fill-opacity:1;fill-rule:evenodd;stroke:none"
         d="m 188.152,268.449 c 51.61,0 93.446,-41.836 93.446,-93.445 0,-51.606 -41.836,-93.4415 -93.446,-93.4415 -51.605,0 -93.445,41.8355 -93.445,93.4415 0,51.609 41.84,93.445 93.445,93.445 z m 0,-54.508 c 21.508,0 38.942,-17.429 38.942,-38.937 0,-21.496 -17.434,-38.93 -38.942,-38.93 -21.496,0 -38.925,17.434 -38.925,38.93 0,21.508 17.429,38.937 38.925,38.937" /><path
         id="path24"
         style="fill:#ffffff;fill-opacity:1;fill-rule:evenodd;stroke:none"
         d="m 192.457,275.91 c 51.606,0 93.441,-41.836 93.441,-93.445 0,-51.606 -41.835,-93.4416 -93.441,-93.4416 -51.609,0 -93.4453,41.8356 -93.4453,93.4416 0,51.609 41.8363,93.445 93.4453,93.445 z m 0,-54.504 c 21.504,0 38.938,-17.433 38.938,-38.941 0,-21.496 -17.434,-38.93 -38.938,-38.93 -21.5,0 -38.934,17.434 -38.934,38.93 0,21.508 17.434,38.941 38.934,38.941" /><path
         id="path26"
         style="fill:#27a7dd;fill-opacity:1;fill-rule:evenodd;stroke:none"
         d="m 192.457,256.758 c 41.023,0 74.289,-33.266 74.289,-74.293 0,-41.027 -33.266,-74.293 -74.289,-74.293 -41.031,0 -74.293,33.266 -74.293,74.293 0,41.027 33.262,74.293 74.293,74.293 z m 0,-18.828 c 30.629,0 55.461,-24.836 55.461,-55.465 0,-30.625 -24.832,-55.461 -55.461,-55.461 -30.629,0 -55.465,24.836 -55.465,55.461 0,30.629 24.836,55.465 55.465,55.465" /></g></g></svg>