<?xml version="1.0" encoding="UTF-8" standalone="no"?>
<svg
   xmlns:dc="http://purl.org/dc/elements/1.1/"
   xmlns:cc="http://creativecommons.org/ns#"
   xmlns:rdf="http://www.w3.org/1999/02/22-rdf-syntax-ns#"
   xmlns:svg="http://www.w3.org/2000/svg"
   xmlns="http://www.w3.org/2000/svg"
   viewBox="0 0 24 17.333332"
   height="17.333332"
   width="24"
   xml:space="preserve"
   id="svg2"
   version="1.1"><metadata
     id="metadata8"><rdf:RDF><cc:Work
         rdf:about=""><dc:format>image/svg+xml</dc:format><dc:type
           rdf:resource="http://purl.org/dc/dcmitype/StillImage" /></cc:Work></rdf:RDF></metadata><defs
     id="defs6" /><g
     transform="matrix(1.3333333,0,0,-1.3333333,0,17.333333)"
     id="g10"><g
       transform="scale(0.1)"
       id="g12"><path
         id="path14"
         style="fill:#00679b;fill-opacity:1;fill-rule:evenodd;stroke:none"
         d="m 137.078,67.8125 c -0.777,1.8242 -6.512,11.2539 -7.797,12.6641 -2.961,-1.9571 -5.859,-3.1094 -8.926,-5.4493 -3.57,-2.7226 -12.359,-7.5859 -17.894,-11.3085 -5.7969,-3.9024 -42.3594,-25.9375 -44.5391,-28.0782 1.0703,-2.5664 5.7734,-9.7031 7.6445,-12.2578 2.8438,1.0977 32.5859,20.086 36.1056,22.2188 z M 47.2188,34.7305 c 1.3359,-0.8008 4.6601,-6.6797 6.0429,-8.8555 8.8516,-14.0156 9.2031,-12.5898 0.8672,-17.6875 -6.9492,-4.25391 -13.7266,-7.21875 -19.8711,2.7852 -4.4492,7.2421 -6.7422,13.5742 2.6328,19.5781 2.2188,1.418 7.6367,5.7851 10.3282,4.1797 z M 42.4297,110.77 C 35.8516,109.508 27.9219,101.992 24.9648,98.25 20.543,92.6445 17.0625,84.9063 16.8164,75.5664 16.5391,65.1289 20.0273,59.2813 23.8906,51.7813 26.6055,46.5195 30.8008,33.6953 28.8203,26.8125 22.5977,24.3008 26.457,29.5938 21.3086,40.5313 18.8164,45.832 16.3438,49.8359 14.0352,55.25 9.28906,66.3867 8.46484,81.0898 12.3398,92.9531 c 6.8282,20.8829 26.9649,29.2619 47.086,30.4299 3.1406,0.187 9.375,-0.496 5.0312,-4.231 -2.6367,-2.269 -6.1679,-3.328 -12.5429,-9.464 C 34.5977,93.043 47.4844,83.0352 42.3633,54.6992 41.9297,52.3164 41.6875,47.5938 39.293,47.0273 c -4.0977,-0.9726 -2.1407,5.461 -2.2188,8.5743 -0.332,13.3164 -8.9062,34.9804 2.9649,52.1364 0.8867,1.278 1.6054,1.832 2.3906,3.032 z m 121.5433,-2.176 c 2.097,-0.547 13.484,-19.762 13.613,-20.8674 0.434,-3.5547 -5.016,-5.4219 -11.332,-9.4805 -5.676,-3.6523 -11.16,-6.9219 -16.977,-10.6602 -5.617,-3.6015 -11.183,-6.9687 -17.035,-10.5976 L 81.2031,25.1094 c -21.1015,-12.8555 -15.332,-14.711 -28.7656,6.6133 -4.5703,7.2461 -4.043,5.8281 9.0117,14.1796 11.2422,7.1915 22.4805,13.918 34.0391,21.2422 1.5586,0.9922 2.4258,1.4258 4.2305,2.3789 l 12.7772,8.2227 c 5.055,2.5703 27.32,17.3281 33.988,21.2812 2.911,1.7227 14.907,10.2427 17.489,9.5667" /></g></g></svg>