<?xml version="1.0" encoding="UTF-8" standalone="no"?>
<svg
   xmlns:dc="http://purl.org/dc/elements/1.1/"
   xmlns:cc="http://creativecommons.org/ns#"
   xmlns:rdf="http://www.w3.org/1999/02/22-rdf-syntax-ns#"
   xmlns:svg="http://www.w3.org/2000/svg"
   xmlns="http://www.w3.org/2000/svg"
   viewBox="0 0 1804 1194.6667"
   height="1194.6667"
   width="1804"
   xml:space="preserve"
   id="svg2"
   version="1.1"><metadata
     id="metadata8"><rdf:RDF><cc:Work
         rdf:about=""><dc:format>image/svg+xml</dc:format><dc:type
           rdf:resource="http://purl.org/dc/dcmitype/StillImage" /></cc:Work></rdf:RDF></metadata><defs
     id="defs6" /><g
     transform="matrix(1.3333333,0,0,-1.3333333,0,1194.6667)"
     id="g10"><g
       transform="scale(0.1)"
       id="g12"><path
         id="path14"
         style="fill:#309897;fill-opacity:1;fill-rule:evenodd;stroke:none"
         d="m 5150.76,2356 c -128.06,83.45 -99.33,-48.86 -156.81,-40.1 -5.88,36.39 54.55,80.64 11.5,112.02 -30.58,14.5 -36.22,-10.85 -64.83,-15.8 -4.02,114.96 96.28,204.68 209.52,206.66 117.66,2.05 208.84,-90.07 214.62,-201.64 6.19,-119.51 -86.19,-212.82 -196.05,-221.41 -119.76,-9.35 -221.13,80.39 -226.69,189.29 l 24.88,18.86 c 9.54,6.39 17.8,9.15 33.01,9.73 5.88,-40.32 -10.21,-36.27 -22.12,-66.72 -10.25,-26.22 1.01,-54.85 33.92,-48.06 27.71,5.72 30.78,31.3 45.3,51.38 21.4,29.61 50.79,6.39 72.77,3.73 -2.82,-18.32 -2.81,-11.26 -6.94,-15.49 -68.05,17.37 -87.61,-125.82 -33.78,-110.75 16.4,4.59 18.41,27.75 26.21,41.48 48.8,-5.45 95.58,-26.7 132.67,8.95 78.23,75.19 30,249.79 -44.5,195.38 -14.48,-10.58 -21.65,-32.59 -50.17,-26.39 -21.27,4.62 -47.47,24.65 -65.16,4.54 -43.29,-43.64 78.08,-61.57 79.1,-62.45 7.47,-6.44 -1.29,-25.67 1.3,-40.45 -17.72,2.86 -4.56,-5.27 -17.75,7.24 z m -968.55,202.72 c -0.44,183.41 70.4,343.23 175.04,463.97 45.09,52.01 163.16,148.16 221.6,163.4 8.92,-17.41 5.98,-39.19 10.91,-58.55 11.93,-14.48 18.26,-6 25.14,-26 7.98,-23.2 -6.65,-96.18 -9.16,-126.66 -4.9,-59.72 -0.49,-119.48 12.43,-175.64 22.97,-99.85 83.91,-180.42 95.3,-278.68 13.43,-115.86 -58.26,-196.28 -101.41,-269.45 -62.53,-106.01 -48.57,-180.29 -52.07,-309.81 -50.26,17.43 -114.2,73.51 -148.99,102.12 -135.05,111.06 -228.31,318.58 -228.79,515.3 z m 1230.61,-182.84 c -5.84,26.74 -11.29,11.44 -14.68,36.75 -6.03,44.99 -0.09,57.19 -24.16,113.78 -23.01,54.09 -80.95,123.14 -122.08,152.31 l -115.37,67.63 c -15.45,14.88 -1.89,47.6 -8.46,73.92 -26.07,104.3 -257.01,171 -232.25,312.91 3.31,18.99 51.29,106.6 62.43,118.3 74.97,-3.25 176.39,-39.69 235.22,-69.14 69.28,-34.68 130.84,-82.59 175.51,-126.04 297.79,-289.69 270.66,-785.34 -56.81,-1043.43 -36.52,-28.79 -136.09,-94.75 -192.26,-106.06 45.62,51.17 -7.64,88.78 29.96,154.12 22.27,38.7 66.01,57.36 106.39,85.53 53.3,37.2 102.78,96.32 127.4,160.67 6.03,15.73 6.75,22.36 10.5,39.23 7.33,32.87 3.16,6.66 18.66,29.52 z m -1275.04,169.13 c 7.36,-404.89 337.45,-728.26 747.34,-727.15 404.1,1.09 734.84,333.61 736.2,736.29 3.35,996.51 -1501.81,995.15 -1483.54,-9.14" /><path
         id="path16"
         style="fill:#0c9504;fill-opacity:1;fill-rule:evenodd;stroke:none"
         d="m 1500.66,2484.82 c -15.89,-108.27 -41.86,-181.39 -86.94,-262.78 -37.71,-68.08 -107.25,-150.11 -158.11,-189.16 -132.64,-101.84 -300.282,-184.5 -529.891,-156.77 -378.246,45.68 -660.6448,391.77 -608.961,779.09 47.43,355.43 363.031,650.95 772.219,605.45 387.873,-43.13 664.953,-412.83 611.683,-775.83 z M 789.902,3308.77 C 572.277,3312.25 370.867,3186.98 273.836,3083.16 -183.992,2593.28 167.484,1824.28 812.781,1826.39 c 660.129,2.17 977.049,802.99 525.719,1261.93 -100.8,102.51 -295.35,226.16 -515.754,220.18 -9.297,-0.97 -14.172,1 -32.844,0.27" /><path
         id="path18"
         style="fill:#b1cd05;fill-opacity:1;fill-rule:evenodd;stroke:none"
         d="m 670.875,5192.65 c 368.685,50.9 720.055,-218.05 771.865,-614.45 27.17,-207.92 -59.19,-411.79 -159.06,-525.54 C 1020.58,3752.97 602.242,3722.7 299.188,3968.89 5.45313,4207.5 -26.5234,4672.57 216.73,4950.5 c 108.336,123.78 239.262,212.48 454.145,242.15 z M 220.348,5019.98 c -460.395,-472.5 -122.5824,-1260.64 528.414,-1260.7 408.108,-0.03 739.468,328.03 742.788,732.28 2.58,313.73 -175.75,560.6 -427.14,681.46 -285.113,137.08 -622.797,74.05 -844.062,-153.04" /><path
         id="path20"
         style="fill:#1b9deb;fill-opacity:1;fill-rule:evenodd;stroke:none"
         d="m 4808.65,5188.38 c 400.36,40.83 723,-270.96 755.78,-628.7 37.62,-410.48 -268.95,-724.08 -631.13,-759.53 -404.78,-39.61 -726.66,273.87 -757.34,631.88 -12.38,144.46 23.34,306.14 96.46,421.68 112.34,177.54 280.23,308.55 536.23,334.67 z m -469.97,-177.13 c -35.81,-37.78 -52.3,-56.63 -82.59,-100.21 -327.48,-471.07 7.05,-1162.83 619.87,-1158.66 656.69,4.46 978.17,799.21 523.24,1263.2 -99.02,100.99 -299.32,226.02 -516.02,220.37 -214.54,-6.61 -392.22,-64.05 -544.5,-224.7" /><path
         id="path22"
         style="fill:#f37b2b;fill-opacity:1;fill-rule:evenodd;stroke:none"
         d="m 2821.5,5190.76 c 392.07,32.56 721.99,-278.43 744.32,-640.6 24.87,-403.41 -274.3,-726.76 -641.04,-749.37 -116.15,-7.16 -211.21,8.84 -306.35,45.46 -78.96,30.39 -163.75,82.59 -214.63,132.65 -125.17,123.19 -218.1,271.35 -228.34,465.88 -21.54,409.57 270.87,714.83 646.04,745.98 z m 64.11,48.46 c -14.55,-0.03 -16.86,0.52 -31.9,-0.22 -183.08,2.2 -394.89,-102.31 -512.62,-224.13 -461.58,-477.67 -118.92,-1261.02 528.75,-1260.49 544.54,0.45 889.68,554.96 681.28,1038.2 -34.21,79.33 -89.8,163.75 -148.71,221.58 -63.79,62.63 -123.96,108.17 -216.48,153.68 -68.14,33.53 -202.16,72.32 -300.32,71.38" /><path
         id="path24"
         style="fill:#d065b2;fill-opacity:1;fill-rule:evenodd;stroke:none"
         d="m 2809.54,3290.84 c 399.43,40.42 724.87,-275.37 754.19,-633.24 33.41,-407.87 -270.95,-724.53 -637.3,-755.81 -402.65,-34.38 -721.86,273.94 -751.83,636.58 -9.11,110.23 7.49,207.75 41.6,302.25 56.27,155.87 178,293.04 323.66,370.78 77.71,41.48 167.61,69.11 269.68,79.44 z m 75.45,47.61 -8.53,-0.14 -10.12,0.21 -11.67,-0.04 c -403.77,-10.39 -731.26,-336.6 -727.16,-749.41 4.02,-405.8 333.07,-734.66 742.33,-734.39 406.46,0.27 738.02,328.21 741.15,734.39 3.18,411.98 -320.38,738.31 -726,749.38" /><path
         id="path26"
         style="fill:#d065b2;fill-opacity:1;fill-rule:evenodd;stroke:none"
         d="m 2750.97,2733.79 c 65.39,9.44 164.96,7.64 231.31,-0.79 -26.69,-15.62 -45.85,-15.15 -60,-45.39 -51.24,-109.54 -36.81,-240.16 -56.07,-271.64 -18.91,4.15 -16.48,11.35 -19.14,35.89 -10.11,93.5 -0.77,125.41 -44.63,229.61 -16.56,39.33 -49.13,40.07 -51.47,52.32 z m -250.02,-49.42 17.13,2.69 -0.04,-15.19 c 1.58,-45.91 60.91,-106.37 93.58,-66.83 17.56,21.23 7.45,58.6 -4.73,77.57 -17.34,26.98 -23.01,22.98 -51.98,39.03 l 3.9,33.18 c -17.84,14.33 -35.12,20.64 -42.3,52.5 -8.39,37.25 15.1,114.29 65.33,28.6 10.11,-17.25 19.77,-35.86 30.09,-52.09 35.91,-56.44 54.91,-38.88 91.4,-73.23 26.8,-25.23 28.67,-85.05 37.68,-126.49 10.01,-46.06 36.16,-85.98 39.13,-127.6 -38.18,-29.5 -26.97,-39.47 -4.59,-98.73 31.3,-82.84 -20.69,-126 85.28,-125.72 105.4,0.28 57.67,50.9 85.69,125 28.21,74.6 31.05,71.63 -4.08,99.45 2.3,40.61 29.22,80.75 38.8,126.29 8.67,41.25 11.42,104.8 37.15,127.44 41.38,36.4 53.93,16.22 91.81,72.84 21.22,31.71 36.97,86.21 75.05,91.49 25.99,-16.24 28.81,-57.44 14.67,-85.36 -18.65,-36.82 -43.63,-12.15 -31.61,-69.79 -27.26,-5.35 -43.09,-20.13 -54.36,-40.97 -57.69,-106.6 89.11,-117.61 90.89,7.27 29.41,-1.66 34.94,-1.59 52.14,13.78 -4.1,35.74 -27.2,21.05 -10.85,80.28 13.31,48.21 23.53,138.64 -52.02,142.73 -88.7,4.8 -102.93,-125.58 -168.31,-146.61 -22.45,-7.22 -109.55,33.37 -165.15,33.1 -96.75,-0.46 -127.45,-47.87 -168.22,-31.84 -39.95,15.71 -62.76,79.19 -93.57,112.29 -39.15,42.06 -110.73,51.84 -128.08,-15.15 -8.7,-33.61 -2.57,-63.85 5.83,-93.26 16.83,-58.96 -7.78,-46.4 -9.56,-82.26 11.07,-11.76 15.8,-12.26 33.9,-14.41" /><path
         id="path28"
         style="fill:#1b9deb;fill-opacity:1;fill-rule:evenodd;stroke:none"
         d="m 4960.16,4195.2 c -25.66,-97.43 -169.36,-57.82 -142,39.47 23.73,84.4 166.62,53.96 142,-39.47 z m -143.3,115.17 c 3.19,51.85 139.74,49 144.04,1.09 -55.34,5.99 -29.88,43.26 -144.04,-1.09 z m 127.61,428.79 c -21.93,-48.14 -152.2,-27.21 -149.66,26.91 1.24,26.38 39.62,45.16 66.06,51.88 34.69,8.82 78.56,7.14 111.2,-0.98 119.39,-29.71 202.44,-119.57 235.23,-234.78 34.36,0.26 50.56,6.6 75.32,-12.3 47.02,-35.93 39.72,-94.21 3.74,-122.26 -23.26,-18.13 -43.25,-13.3 -76.69,-15.08 -21.22,-31.93 -10.98,-61.43 -72.52,-132.81 -25.1,-29.11 -75.93,-70.85 -124.04,-87.13 l -10.7,31.54 c -3.49,11.69 -9.43,20.78 -9.05,28.65 0.9,18.27 23.7,23.46 11.33,60.05 -12.14,35.89 -62.01,59.96 -110.29,60.67 -51.72,0.75 -99.1,-19.27 -117.11,-49.4 -19.72,-32.99 -2.04,-43.19 4.76,-65.03 5.47,-17.6 0.63,-12.21 -5.87,-29.45 -4.92,-13.04 -4.82,-26.09 -9.91,-36.88 -42.16,9.06 -103.61,60.32 -123.59,82.76 -30.07,33.74 -57.79,80.85 -72.9,138.09 -35.57,-0.8 -53.4,-6.99 -77.5,13.41 -15.52,13.12 -30.42,31.28 -30.79,59.05 -1.06,79.11 71.58,76.18 108.7,76.2 22.71,90.47 105.01,193.68 183.31,214.2 -6.46,-73.47 24.89,-106.89 85.09,-122.29 60.9,-15.58 137.05,-0.86 150.84,48.07 16.81,59.71 -59.09,96.08 -113.57,80.91 -35.73,-9.96 -33.23,-47.8 -5.24,-48.42 27.47,-0.61 57.24,19.83 73.85,-15.58 z m -528.54,-229.14 c 1.48,-15.3 1.5,-17.59 5.68,-34.72 17.61,-75.66 109.5,-89.6 112.19,-91.43 10.65,-11.87 18.16,-35 27.23,-50.94 82.52,-145.06 198.57,-157.18 222.86,-179.51 17.8,-16.36 33.98,-58.43 101.14,-60.29 61.22,-1.68 81.59,30.74 105.07,56.49 18.69,20.5 149.79,45.32 223.33,178.94 9.14,16.59 17.5,40.98 29.27,53.67 11.1,9.34 116.43,13.07 118.8,123.81 2.39,111.99 -111.95,118.5 -121.03,127.12 -8.11,7.7 -37.94,118.99 -165.3,191.03 -187.37,105.98 -436.15,35.51 -530.17,-174.65 -14.51,-32.45 -26.21,-16.53 -59.61,-31.65 -34.7,-15.71 -71.44,-58.96 -69.46,-107.87" /><path
         id="path30"
         style="fill:#b1cd05;fill-opacity:1;fill-rule:evenodd;stroke:none"
         d="m 954.805,4596.16 c -2.539,-106.63 -118.871,-199.46 -238.039,-189.8 -106.633,8.64 -197.457,110.38 -192.953,231.69 9.871,265.99 427.796,284.97 432.871,-17.21 l -100.84,13.28 -55.602,164.2 c -5.34,-4.66 -2.57,-1.47 -6.816,-8.2 l -3.258,-6.15 c -0.223,-0.48 -4.023,-11.1 -4.773,-13.17 -3.473,-9.66 -6.653,-18.27 -9.922,-27.22 -6.547,-17.92 -13.192,-35.94 -20.918,-56.38 -14.235,-37.65 -30.321,-77.99 -43.942,-114.99 l -30.418,47.9 c -22.058,2.75 -46.16,-3.11 -66.558,-6.52 -50.782,-8.46 -45.422,-1.45 -53.41,-16.89 13.961,-33.59 82.918,-3.06 105.304,-37.49 12.477,-19.19 31.992,-78.97 52.903,-89.72 l 75.461,195.96 c 14.914,-18.56 21.05,-52.07 27.918,-78.55 46.277,-5.3 89.859,8.29 132.992,9.26 z m -167.821,-246.56 14.993,8.31 c 29.347,-46.59 62.777,-127.69 86.218,-179.56 51.719,-114.46 49.938,-103.88 112.875,-71.78 55.26,28.18 37.56,34.05 -14.07,143.24 -15.457,32.69 -64.883,122.42 -70.957,157.57 97.937,62.69 141.017,245.82 59.59,370.46 -63.031,96.47 -204.926,175 -354.977,102.5 -181.636,-87.77 -227.937,-348.7 -35.707,-488.57 58.153,-42.31 171.606,-63.13 202.035,-42.17" /><path
         id="path32"
         style="fill:#fdfefa;fill-opacity:1;fill-rule:evenodd;stroke:none"
         d="m 954.805,4596.16 c -43.133,-0.97 -86.715,-14.56 -132.992,-9.26 -6.868,26.48 -13.004,59.99 -27.918,78.55 l -75.461,-195.96 c -20.911,10.75 -40.426,70.53 -52.903,89.72 -22.386,34.43 -91.343,3.9 -105.304,37.49 7.988,15.44 2.628,8.43 53.41,16.89 20.398,3.41 44.5,9.27 66.558,6.52 l 30.418,-47.9 c 13.621,37 29.707,77.34 43.942,114.99 7.726,20.44 14.371,38.46 20.918,56.38 3.269,8.95 6.449,17.56 9.922,27.22 0.75,2.07 4.55,12.69 4.773,13.17 l 3.258,6.15 c 4.246,6.73 1.476,3.54 6.816,8.2 l 55.602,-164.2 100.84,-13.28 c -5.075,302.18 -423,283.2 -432.871,17.21 -4.504,-121.31 86.32,-223.05 192.953,-231.69 119.168,-9.66 235.5,83.17 238.039,189.8" /><path
         id="path34"
         style="fill:#fafefd;fill-opacity:1;fill-rule:evenodd;stroke:none"
         d="m 5152.14,2582.19 c 66.82,18.81 101.53,-87.01 30.08,-110.35 -75.95,-24.83 -110.44,87.73 -30.08,110.35 z M 5150.76,2356 c 13.19,-12.51 0.03,-4.38 17.75,-7.24 -2.59,14.78 6.17,34.01 -1.3,40.45 -1.02,0.88 -122.39,18.81 -79.1,62.45 17.69,20.11 43.89,0.08 65.16,-4.54 28.52,-6.2 35.69,15.81 50.17,26.39 74.5,54.41 122.73,-120.19 44.5,-195.38 -37.09,-35.65 -83.87,-14.4 -132.67,-8.95 -7.8,-13.73 -9.81,-36.89 -26.21,-41.48 -53.83,-15.07 -34.27,128.12 33.78,110.75 4.13,4.23 4.12,-2.83 6.94,15.49 -21.98,2.66 -51.37,25.88 -72.77,-3.73 -14.52,-20.08 -17.59,-45.66 -45.3,-51.38 -32.91,-6.79 -44.17,21.84 -33.92,48.06 11.91,30.45 28,26.4 22.12,66.72 -15.21,-0.58 -23.47,-3.34 -33.01,-9.73 l -24.88,-18.86 c 5.56,-108.9 106.93,-198.64 226.69,-189.29 109.86,8.59 202.24,101.9 196.05,221.41 -5.78,111.57 -96.96,203.69 -214.62,201.64 -113.24,-1.98 -213.54,-91.7 -209.52,-206.66 28.61,4.95 34.25,30.3 64.83,15.8 43.05,-31.38 -17.38,-75.63 -11.5,-112.02 57.48,-8.76 28.75,123.55 156.81,40.1" /><path
         id="path36"
         style="fill:#099702;fill-opacity:1;fill-rule:evenodd;stroke:none"
         d="m 762.176,2599.6 c -6.903,-20.64 -74.481,-93.39 -92.758,-113.12 -31.047,-33.51 -83.09,-78.35 -135.809,-24.78 -78.57,79.84 8.805,138.26 54.836,187.92 12.418,13.39 31.957,46.33 46.035,56.53 48.985,-17.4 100.004,-83.14 127.696,-106.55 z m 67.234,74.53 c 5.051,31.97 19.703,45.79 23.051,76.23 3.664,33.34 -6.359,52 -2.484,86.89 93.269,-4.45 41.3,-143.03 -20.567,-163.12 z m 102.403,66.67 c 23.683,69.17 -31.188,138.14 -81.786,151.34 -73.336,19.13 -123.554,-43.1 -152.484,-77.28 -38.57,-45.58 -75.055,-77.18 -113.344,-124.44 -35.586,-43.93 -86.125,-66.96 -107.703,-129.92 -29.582,-86.32 93.27,-243.91 235.137,-75.16 31.226,37.15 208.875,222.45 220.18,255.46" /><path
         id="path38"
         style="fill:#fdfefa;fill-opacity:1;fill-rule:evenodd;stroke:none"
         d="m 575.055,2485.21 c -28.258,4.55 -38.77,32.71 -29.809,66.11 7.266,27.11 23.063,43.66 45.535,51.87 -2.265,-21.02 -9.933,-106.82 -15.726,-117.98 z m 187.121,114.39 c -27.692,23.41 -78.711,89.15 -127.696,106.55 -14.078,-10.2 -33.617,-43.14 -46.035,-56.53 -46.031,-49.66 -133.406,-108.08 -54.836,-187.92 52.719,-53.57 104.762,-8.73 135.809,24.78 18.277,19.73 85.855,92.48 92.758,113.12" /><path
         id="path40"
         style="fill:#309897;fill-opacity:1;fill-rule:evenodd;stroke:none"
         d="m 5152.14,2582.19 c -80.36,-22.62 -45.87,-135.18 30.08,-110.35 71.45,23.34 36.74,129.16 -30.08,110.35" /><path
         id="path42"
         style="fill:#fafafc;fill-opacity:1;fill-rule:evenodd;stroke:none"
         d="m 829.41,2674.13 c 61.867,20.09 113.836,158.67 20.567,163.12 -3.875,-34.89 6.148,-53.55 2.484,-86.89 -3.348,-30.44 -18,-44.26 -23.051,-76.23" /><path
         id="path44"
         style="fill:#0c9504;fill-opacity:1;fill-rule:evenodd;stroke:none"
         d="m 575.055,2485.21 c 5.793,11.16 13.461,96.96 15.726,117.98 -22.472,-8.21 -38.269,-24.76 -45.535,-51.87 -8.961,-33.4 1.551,-61.56 29.809,-66.11" /><path
         id="path46"
         style="fill:#1b9deb;fill-opacity:1;fill-rule:evenodd;stroke:none"
         d="m 4784.6,4521.26 c -40.53,-12.54 -22.08,-66.95 17.35,-56.51 31.87,8.45 22.69,68.89 -17.35,56.51" /><path
         id="path48"
         style="fill:#1b9deb;fill-opacity:1;fill-rule:evenodd;stroke:none"
         d="m 4968.3,4523.34 c -6.51,-9.86 -17.81,-22.28 -8.01,-42.23 6.45,-13.11 24.25,-18.22 38.5,-11.37 25.25,12.11 24.23,65.12 -30.49,53.6" /><path
         id="path50"
         style="fill:#f4fcfc;fill-opacity:1;fill-rule:evenodd;stroke:none"
         d="m 4816.86,4310.37 c 114.16,44.35 88.7,7.08 144.04,1.09 -4.3,47.91 -140.85,50.76 -144.04,-1.09" /><path
         id="path52"
         style="fill:#5dd6ec;fill-opacity:1;fill-rule:evenodd;stroke:none"
         d="m 6367.52,4318.09 c 80.98,-381.03 501.06,-571.57 831.4,-407.18 280.6,139.65 410.96,465.38 278.32,771.51 -37.42,86.35 -107.3,173.14 -168.9,215.6 -69.68,-69 63.08,-150.61 23.37,-260.31 -32.28,-89.2 -136.17,-83.13 -152.94,-103.85 -27.31,-33.75 68.85,-67.7 88.23,-71.18 134.81,-24.23 148.1,-250.24 81.94,-271.84 -27.21,-8.88 -51.15,2.78 -61.69,18 -15.19,21.93 -6.02,50.46 -13.63,73.52 -40.15,3.93 -42.72,-53.66 -156.31,-102.4 -145.63,-62.48 -391.56,-39.33 -472.22,131.67 -23.39,49.58 -13.46,62.11 -11.66,113.71 1.65,47.45 -83.26,35.57 -101.11,162.05 -11.39,80.69 37.5,146.54 85.1,174.8 74.6,44.28 149.92,29.82 192,-25.51 65.66,-86.33 31.99,-172.2 51.05,-213.97 56.16,-11.17 64.12,51.27 50.7,96.21 -24.28,81.28 102.85,138.61 112.63,-34.23 1.66,-29.33 6.89,-36.39 32.97,-43.8 31.92,-9.09 38.28,-5.66 56.2,13.72 30.8,33.28 53.98,33.91 104.82,50.78 42.16,13.99 71.73,37.26 66.41,88.99 -4.81,46.74 -33.16,74.23 -44.88,111.3 -22.09,69.93 15.81,83.54 21.59,126.63 -17.39,16.8 -95.86,52.78 -124.34,63.03 -253.71,91.29 -521.6,-7.59 -674.12,-215.4 -108.03,-147.2 -131.88,-287.96 -94.93,-461.85" /><path
         id="path54"
         style="fill:#01cec9;fill-opacity:1;fill-rule:evenodd;stroke:none"
         d="m 10638.5,4229.27 2.3,581.82 784.1,-1.92 -0.1,-596.89 -62.7,0.37 -49.1,138.12 c -6.8,18.49 -7.8,29.03 -19.4,40.62 -27.9,-8.52 -53,-42.42 -47.9,-81.03 4.6,-34.6 26.3,-64.55 31.4,-98.74 l -621.6,-0.45 -17,-0.18 z m 621.5,-453.45 -13.1,-5.43 c -21.7,-3.98 -45.9,-13.11 -68.5,-18.55 -70.5,-17.01 -150.9,-22.43 -223.9,-15.3 -99.3,9.7 -177.7,36.45 -254.5,74.36 -134.4,66.34 -254.3,192.95 -318.7,339.58 -77,175.61 -78.1,371.4 -4.5,549.25 138.4,334.77 520,507.02 860.1,393.23 436.4,-146.04 620,-667.42 360.8,-1051.98 -30.4,-45.1 -118.6,-150.84 -161.9,-166.37 -104.3,247.34 -56.5,134.39 -44.8,223.57 5.3,40.9 -10.8,55.93 -15.7,88.82 l 67.8,0.17 c 6.7,23.51 5.7,585.89 2.7,648.19 l -829.3,-0.12 c -2.8,-66.31 0.5,-621.39 -0.2,-648.31 l 447.1,0.07 c 35.7,-82.08 44.2,-169.71 108.5,-196.84 32.5,-13.75 24.3,-4.69 36.1,-41.68 11.2,-35.02 50.6,-149.77 52,-172.66 z m -286.8,1395 c -132,-5.34 -274,-57.28 -378.1,-131.72 -43.5,-31.07 -66.1,-52.04 -101.3,-86.2 -114.8,-111.26 -218.1,-299.34 -215.8,-530.09 4.2,-411.8 341.5,-742.3 759.6,-733.28 406.7,8.78 734.4,343.7 723.3,765.28 -7.9,301.86 -200.5,553.83 -455.7,660.69 -45.7,19.14 -90.1,33.1 -143,43.56 -111.6,13.92 -102.8,15.25 -189,11.76" /><path
         id="path56"
         style="fill:#f35243;fill-opacity:1;fill-rule:evenodd;stroke:none"
         d="m 8879.94,3231.78 c 393.14,37.75 721.88,-280.96 747.11,-636.37 28.86,-406.78 -269.62,-722.37 -639.58,-753.16 -401.64,-33.43 -722.63,275.59 -750.4,640.26 -16.53,217.1 72.75,406.5 174.9,519.92 27.37,30.37 58.47,58.98 90.2,83.36 33.42,25.68 64.82,46.94 105.74,68.01 88.79,45.72 160.72,67.29 272.03,77.98 z m -479.69,-176.56 c -110.96,-110.93 -211.66,-298.15 -209.57,-528.35 3.66,-403.42 336.5,-733.31 742.45,-731.77 644.82,2.45 990.11,773.76 531.45,1258.61 -303.3,320.61 -759.07,306.69 -1064.33,1.51" /><path
         id="path58"
         style="fill:#5dd6ec;fill-opacity:1;fill-rule:evenodd;stroke:none"
         d="m 6858.83,5134.9 c 284.34,46.03 562.83,-114.52 694.09,-340.4 42.65,-73.42 75.97,-162.44 88.73,-259.36 50.02,-379.91 -213.1,-725.26 -598.74,-782.75 -284.86,-42.46 -565.47,113.4 -694.77,340.28 -152.45,267.53 -114.91,577.01 63.26,793.38 97.44,118.32 234.18,214.33 447.43,248.85 z m -28.52,40.43 c -452.3,-68.92 -748.54,-558.18 -569.53,-1005.47 190.29,-475.49 802.98,-631.5 1197.42,-266.74 298.19,275.74 315.16,747.98 28.12,1053.46 -48.96,52.1 -132.27,119.91 -214.19,156.19 -149.53,66.21 -281.71,86.96 -441.82,62.56" /><path
         id="path60"
         style="fill:#bb4bd1;fill-opacity:1;fill-rule:evenodd;stroke:none"
         d="m 8901.1,5084.19 c 409.47,51.17 735.53,-256.37 775.55,-611.78 46.04,-408.8 -252.94,-727.29 -604.88,-771.75 -411.63,-51.98 -737.61,253.07 -779.6,607.79 -48.89,412.91 252.99,731.27 608.93,775.74 z m -5.59,44.72 c -76.92,-8.81 -149.94,-29.66 -217.75,-60.84 -252.71,-116.22 -438.33,-370.02 -435.47,-685.32 3.7,-409.23 342.06,-739.3 759.42,-732.14 408.32,7 734.9,348 723.91,768.72 -8.02,306.94 -209.93,557.22 -458.23,658.97 -147,60.24 -228.26,48.28 -255.89,55.07 -34.61,-0.78 -24.82,5.98 -115.99,-4.46" /><path
         id="path62"
         style="fill:#1b9eeb;fill-opacity:1;fill-rule:evenodd;stroke:none"
         d="m 6884.4,3280.39 c 202.69,18.23 377.67,-55.59 518.78,-175.97 107.21,-91.46 213.29,-255.21 230.25,-464.83 32.63,-403.24 -277.32,-720.13 -639.83,-748.81 -404.48,-32 -719.75,273.33 -750.07,639.41 -31.51,380.31 248.56,714.92 640.87,750.2 z m 68.3,46.53 -32.3,-0.01 c -212.3,4.22 -416.26,-121.23 -511.68,-221.03 -465.19,-486.5 -114.35,-1264.48 532.28,-1261.74 407.16,1.72 738.41,330.41 739.56,738.58 0.61,213.82 -80.99,378.37 -212.59,522.35 -88.08,96.37 -311.2,232.45 -515.27,221.85" /><path
         id="path64"
         style="fill:#26d32c;fill-opacity:1;fill-rule:evenodd;stroke:none"
         d="m 10946.6,3240.24 c 217.5,33.7 411.2,-63.2 531.4,-159.85 131.4,-105.57 220.2,-275.46 241.9,-454.05 49.5,-407.96 -262.2,-729.65 -611,-770.44 -405.9,-47.45 -740.1,258.65 -774.9,615.37 -20.9,213.97 53.5,406.35 159.7,525.23 129.2,144.67 248.1,211.98 452.9,243.74 z m 63.9,52.56 c -217.8,3.11 -416.6,-123.34 -516.6,-227.9 -452.8,-473.63 -119.6,-1262.08 539.1,-1258.13 406.2,2.43 736.6,334.21 736,741.86 -0.3,245.75 -121.3,451.72 -264.7,567.34 -19.2,15.54 -29.4,24.44 -51.4,39.92 -135.3,95.27 -278.6,142.82 -442.4,136.91" /><path
         id="path66"
         style="fill:#f35243;fill-opacity:1;fill-rule:evenodd;stroke:none"
         d="m 8828.4,2654.55 c -20.6,67.82 -17.95,117.37 -100.76,117.52 -133.99,0.25 -124.74,13.63 -171.92,-155.78 -4.7,-16.87 -24.51,-80.9 17.61,-63.4 16.4,6.82 25.21,56.64 31.61,78.4 21.51,73.08 10.1,43.72 25.58,56.39 l 12.76,13.66 -54.58,-235.92 48.28,-1.25 -0.03,-60.73 c -0.03,-61.46 -11.87,-130.4 26.37,-129.46 24.54,0.61 23.61,19.63 23.6,42.61 l 2.03,148.49 18.17,-0.26 0.9,-102.52 c -0.25,-45.34 -8.17,-92.04 28.34,-88.23 23.24,2.43 22,21.97 22,42.52 l 0.33,147.69 44.87,0.74 c 3.53,26.99 -48.74,204.94 -48.32,221.72 0.35,14.05 -2.06,5.83 4.2,13.95 14.99,-3.09 9.85,2.6 16.09,-15.87 14.12,-41.82 24.07,-136.46 56.1,-133.37 42.22,4.09 30.6,143.32 69.51,149.44 5.95,-8.78 5.91,-22.08 5.99,-32.07 l -0.74,-297.37 c 0.01,-38.97 -9.57,-116.14 43.23,-95.09 21.31,8.49 16.25,45.16 16.28,72.23 0.1,52.48 -4.41,136.79 1.77,180.69 l 18.76,-0.59 c 1.11,-39.99 -5.23,-236.1 10.67,-248.99 14.76,-11.99 36.19,-5.44 44,6.62 17.79,27.47 -6.98,390.91 10.89,414.1 17.65,-1.94 12.15,4.4 19.01,-17.54 l 22.03,-82.92 c 15.54,-59.96 18.29,-45.81 78.18,-63.09 0.01,-26.95 -8.17,-231.42 8.19,-267.41 l 30.52,4.66 2.84,124.72 c 3.56,18.93 -4.12,6.98 8.36,14 22.06,-12.65 -3.21,-85.39 12.17,-139.14 30.76,-10.29 37.42,1.65 37.6,33.43 l -0.36,151.17 c -0.25,46.01 -7.64,56.5 10.02,62.43 10.18,-12.13 5.74,-39.39 5.77,-57.86 l 0.02,-4.57 c 0.05,-26.73 1.61,-34.45 28.05,-28.65 15.52,192.09 -19.37,135.69 -169.62,149.12 -46.02,117.32 -24.4,192.69 -120,193.25 -40.99,0.25 -120.22,7.26 -147.05,-11.37 -34.49,-23.95 -28,-71.44 -49.32,-106.1" /><path
         id="path68"
         style="fill:#bb4bd1;fill-opacity:1;fill-rule:evenodd;stroke:none"
         d="m 8747.19,4659.59 53.38,0.05 c 9.68,-2.63 22.82,-32.72 32,-34.41 l 323.9,0.42 4.06,29.16 c 0.15,1.91 0.63,2.44 1.17,3.71 l 73.26,-0.25 -1.42,-589.49 -488.46,-0.12 z m 226.42,120.18 c 47.93,17.05 65.59,-42.13 33.23,-59.66 -21.36,-11.56 -41.18,0.72 -47.01,14.21 -10.06,23.29 1.36,39.08 13.78,45.45 z m 258.94,-776.97 c 7.17,0.25 13.48,0.47 20.65,0.71 3.81,0.74 6.96,1.93 9.43,3.58 23.2,11.48 15.39,45.98 15.36,78.54 l -0.03,260.56 c 0,410.45 34.08,356.14 -120.96,357.92 -25.58,41.72 -29.18,33.84 -111.29,33.68 -1.85,89.82 -110.3,91.35 -111.05,-0.13 -20.09,0.16 -54.14,2.1 -72.76,-0.74 -27.95,-4.26 -28.13,-14.58 -39.31,-32.56 -26.64,-0.58 -61.03,2.1 -86.25,-0.42 -32.13,-3.21 -35.84,-14.13 -36.5,-46.65 l 0.12,-507.66 c 0,-58.84 -11.74,-136.18 23.77,-145.73 21.32,-5.73 479.45,-2.79 508.82,-1.1" /><path
         id="path70"
         style="fill:#1b9eeb;fill-opacity:1;fill-rule:evenodd;stroke:none"
         d="m 6703.74,2473.02 c -25.96,211.59 282.71,236.31 304.25,39.61 10.03,-91.59 -57.48,-158.95 -132.22,-169.66 -89.61,-12.83 -162.83,55.13 -172.03,130.05 z m 290.83,-163.34 c 38.66,28.13 75.32,78.17 88.06,140.49 17.53,85.82 -11.4,118.9 -34.5,178.27 19.55,23.02 108.32,113.01 120.42,119.74 l 2.62,-88.16 76.31,0.92 -1.29,226.74 -225.68,-1.12 -0.36,-75.35 88.11,-2.14 c -2.61,-15.64 -16.25,-23.09 -26.65,-33.25 -11.19,-10.94 -18.61,-18.69 -29.72,-29.71 -19.6,-19.41 -39.12,-43.24 -60.61,-58.6 -24.39,5.4 -43.64,22.38 -69.88,31.02 -121.67,40.1 -267.12,-38.42 -295.19,-182.14 -37.38,-191.37 191.2,-355.64 368.36,-226.71" /><path
         id="path72"
         style="fill:#01cec9;fill-opacity:1;fill-rule:evenodd;stroke:none"
         d="m 10992.3,4677.64 c 41.8,9.5 44.4,-11.88 42.1,-49.24 -2.7,-44.96 9,-40.34 29.8,-64.69 36.2,-42.32 74.2,-63.74 2.3,-110.26 -13.5,-8.74 -138.9,-120.34 -182,-10.03 -13.5,34.47 -0.6,50.53 2.7,80.96 -41.6,2.39 -64.3,-11.47 -95.7,8.28 -10.2,57.57 41.6,45.6 91.4,49.47 76.8,5.98 50.5,-26.09 59.4,-80.18 l 63.9,38.77 c -11.5,28.24 -28,15.51 -27.5,60.1 0.4,33.4 0.5,54.81 13.6,76.82 z m 200.5,-90.26 c -23,-72.39 -147.3,-42.8 -116.8,43.69 24.2,68.99 143.2,39.52 116.8,-43.69 z m -455.1,-107.96 c 35.6,-30.26 56.9,-44.48 102.4,-66.74 50.9,-24.89 116.2,-40.5 183.8,-41.95 70,-1.5 134.8,13.07 189.4,36.22 44.8,19.05 114,64.12 136.6,93.57 -5.9,21.68 -107.2,115.13 -124.7,132.76 -23.4,23.65 -112.7,118.54 -132.7,128.57 -57.3,-29.78 -61.6,-31.97 -118.9,-0.22 -14.8,-8.24 -53.7,-50.12 -65.8,-62.78 l -162.2,-162.3 c -30.2,-32.92 -47.9,-23.2 -7.9,-57.13" /><path
         id="path74"
         style="fill:#26d32c;fill-opacity:1;fill-rule:evenodd;stroke:none"
         d="m 10803.6,2813.76 c -0.1,55.72 7,81.1 64.6,81.9 l 283.7,-0.22 c 47.8,0.01 93.7,7.67 110.6,-30.49 10.4,-23.57 6.1,-499.79 6.1,-567.73 0.1,-77.58 8,-106.57 -80.1,-106.57 l -278.9,0.02 c -52.6,-0.01 -104.3,-5.92 -104.4,56.26 z m 321.2,-314.27 h 54.9 c 7.5,0 13.7,-6.17 13.7,-13.72 v -158.16 c 0,-7.54 -6.2,-13.71 -13.7,-13.71 h -54.9 c -7.5,0 -13.7,6.17 -13.7,13.71 v 158.16 c 0,7.55 6.2,13.72 13.7,13.72 z m 0,104.22 h 54.9 c 7.5,0 13.7,-6.17 13.7,-13.72 v -53.03 c 0,-7.54 -6.2,-13.71 -13.7,-13.71 h -54.9 c -7.5,0 -13.7,6.17 -13.7,13.71 v 53.03 c 0,7.55 6.2,13.72 13.7,13.72 z m -112.4,-209.36 h 54.8 c 7.6,0 13.7,-6.17 13.7,-13.71 v -53.03 c 0,-7.54 -6.1,-13.71 -13.7,-13.71 h -54.8 c -7.6,0 -13.7,6.17 -13.7,13.71 v 53.03 c 0,7.54 6.1,13.71 13.7,13.71 z m 0,105.14 h 54.8 c 7.6,0 13.7,-6.17 13.7,-13.72 v -53.02 c 0,-7.55 -6.1,-13.71 -13.7,-13.71 h -54.8 c -7.6,0 -13.7,6.16 -13.7,13.71 v 53.02 c 0,7.55 6.1,13.72 13.7,13.72 z m 0,104.22 h 54.8 c 7.6,0 13.7,-6.17 13.7,-13.72 v -53.03 c 0,-7.54 -6.1,-13.71 -13.7,-13.71 h -54.8 c -7.6,0 -13.7,6.17 -13.7,13.71 v 53.03 c 0,7.55 6.1,13.72 13.7,13.72 z m -118,-209.36 h 54.9 c 7.5,0 13.7,-6.17 13.7,-13.71 v -53.03 c 0,-7.54 -6.2,-13.71 -13.7,-13.71 h -54.9 c -7.5,0 -13.7,6.17 -13.7,13.71 v 53.03 c 0,7.54 6.2,13.71 13.7,13.71 z m 0,105.14 h 54.9 c 7.5,0 13.7,-6.17 13.7,-13.72 v -53.02 c 0,-7.55 -6.2,-13.71 -13.7,-13.71 h -54.9 c -7.5,0 -13.7,6.16 -13.7,13.71 v 53.02 c 0,7.55 6.2,13.72 13.7,13.72 z m 0,104.22 h 54.9 c 7.5,0 13.7,-6.17 13.7,-13.72 v -53.03 c 0,-7.54 -6.2,-13.71 -13.7,-13.71 h -54.9 c -7.5,0 -13.7,6.17 -13.7,13.71 v 53.03 c 0,7.55 6.2,13.72 13.7,13.72 z m 7.4,222.15 h 279.7 c 15.1,0 27.4,-12.33 27.4,-27.42 v -106.05 c 0,-15.09 -12.3,-27.43 -27.4,-27.43 h -279.7 c -15.1,0 -27.5,12.34 -27.5,27.43 v 106.05 c 0,15.09 12.4,27.42 27.5,27.42 z m -94.4,93.58 c -45.8,-13.12 -38.8,-71.71 -39,-119.39 v -479.98 c 0,-171.29 -10.3,-164.62 154.9,-164.62 96,0 228.7,-7.78 320.1,0.23 57.2,5.02 56.3,47.52 56.2,104.97 -0.1,90.46 8.5,603.5 -7.7,633.8 -21,39.35 -76.3,29.36 -130.9,29.37 -91.8,0 -226.7,5.03 -313.6,1.39 -21.8,-0.88 -30,-2.53 -40,-5.77" /><path
         id="path76"
         style="fill:#ba4ccd;fill-opacity:1;fill-rule:evenodd;stroke:none"
         d="m 8878.57,4436.81 77.47,-0.24 0.82,-77.61 66.48,1.5 c 0.49,22.7 -0.55,54.11 -0.09,76.72 21.47,0.25 23.56,-0.42 78.54,0.47 l -2.39,65.69 -75.6,0.39 -2.11,77.66 -64.39,0.01 -2.98,-77.72 -75.87,-0.91 0.12,-65.96" /><path
         id="path78"
         style="fill:#b64dcc;fill-opacity:1;fill-rule:evenodd;stroke:none"
         d="m 8840.39,4163.66 c 17.2,15.64 86.35,79.63 96.44,92.14 l -28.76,24.75 c -28.46,-26.78 -45.04,-45.94 -62.73,-59.53 -0.69,-0.54 -28.75,27.74 -31.78,29.02 l -26.74,-26.11 c 20.8,-25.5 37.4,-42.91 53.57,-60.27" /><path
         id="path80"
         style="fill:#f35243;fill-opacity:1;fill-rule:evenodd;stroke:none"
         d="m 8679.19,2882.96 c -66.5,-29.97 -20.5,-116.14 39.25,-91.17 58.38,24.4 22.45,118.97 -39.25,91.17" /><path
         id="path82"
         style="fill:#f35243;fill-opacity:1;fill-rule:evenodd;stroke:none"
         d="m 8952.99,2883.42 c -66.97,-28.76 -22.16,-114.58 35.39,-92.18 60.77,23.66 24.48,117.89 -35.39,92.18" /><path
         id="path84"
         style="fill:#f35243;fill-opacity:1;fill-rule:evenodd;stroke:none"
         d="m 9185.81,2618.29 c 10.82,-40.25 79.1,-28.78 66.51,21.42 -9.56,38.12 -79.84,28.19 -66.51,-21.42" /><path
         id="path86"
         style="fill:#099702;fill-opacity:1;fill-rule:evenodd;stroke:none"
         d="m 861.625,2488.88 c 6.902,20.64 74.477,93.39 92.754,113.12 31.047,33.5 83.091,78.34 135.811,24.78 78.57,-79.84 -8.81,-138.26 -54.84,-187.92 -12.42,-13.4 -31.95,-46.33 -46.034,-56.53 -48.98,17.4 -100.003,83.14 -127.691,106.55 z m -67.238,-74.52 c -5.047,-31.98 -19.703,-45.81 -23.047,-76.24 -3.668,-33.33 6.355,-52 2.48,-86.9 -93.265,4.46 -41.297,143.04 20.567,163.14 z m -102.403,-66.68 c -23.683,-69.17 31.188,-138.14 81.786,-151.34 73.339,-19.13 123.558,43.1 152.484,77.28 38.57,45.58 75.056,77.18 113.336,124.44 35.59,43.92 86.14,66.96 107.71,129.92 29.59,86.32 -93.27,243.91 -235.132,75.16 -31.227,-37.15 -208.879,-222.46 -220.184,-255.46" /><path
         id="path88"
         style="fill:#fdfefa;fill-opacity:1;fill-rule:evenodd;stroke:none"
         d="m 1048.74,2603.26 c 28.26,-4.55 38.77,-32.7 29.81,-66.11 -7.26,-27.11 -23.06,-43.66 -45.53,-51.86 2.26,21.02 9.93,106.82 15.72,117.97 z M 861.625,2488.88 c 27.688,-23.41 78.711,-89.15 127.691,-106.55 14.084,10.2 33.614,43.13 46.034,56.53 46.03,49.66 133.41,108.08 54.84,187.92 -52.72,53.56 -104.764,8.72 -135.811,-24.78 -18.277,-19.73 -85.852,-92.48 -92.754,-113.12" /><path
         id="path90"
         style="fill:#fafafc;fill-opacity:1;fill-rule:evenodd;stroke:none"
         d="m 794.387,2414.36 c -61.864,-20.1 -113.832,-158.68 -20.567,-163.14 3.875,34.9 -6.148,53.57 -2.48,86.9 3.344,30.43 18,44.26 23.047,76.24" /><path
         id="path92"
         style="fill:#0c9504;fill-opacity:1;fill-rule:evenodd;stroke:none"
         d="m 1048.74,2603.26 c -5.79,-11.15 -13.46,-96.95 -15.72,-117.97 22.47,8.2 38.27,24.75 45.53,51.86 8.96,33.41 -1.55,61.56 -29.81,66.11" /><path
         id="path94"
         style="fill:#f37b2b;fill-opacity:1;fill-rule:evenodd;stroke:none"
         d="m 2902.59,4514.61 c -18.13,-12 -35.73,-5.31 -57.13,7.94 -18.27,11.31 -39.09,29.81 -28.51,48.43 19.18,33.78 85.95,-20.16 85.64,-56.37 z m -201.02,193.94 c 2.63,20.41 17.92,29.02 26.28,10.84 7.86,-17.08 -10.27,-24.68 -26.28,-10.84 z m -2.38,29.83 c -34.58,-43.52 16.69,-76.82 44.28,-32.77 -2.47,32.08 -12.81,39.85 -44.28,32.77 z m 436.22,-265.25 c 16.51,11.37 27.42,9.03 47.34,-6.68 18.43,-14.57 28.12,-28.21 25.27,-45.38 -26.56,-6.35 -82.18,14.63 -72.61,52.06 z m 203.77,-139.21 c 0.06,-0.1 14.99,-69.79 47.28,-44.01 0.52,0.41 1.46,1.75 1.87,2.19 l 2.76,5.4 c -12.52,11.85 -6.48,0.62 -25.66,6.39 -9.4,17.31 -5.73,21.45 -14.14,38.61 -24.75,17.09 -27.78,6.5 -49.13,6.71 -21.82,21.32 -5.08,21.09 -21.34,44.93 -33.88,16.28 -22.81,-5.89 -53.94,8.66 -2.24,6.36 6.1,66.13 -60.54,89.9 -46.79,16.67 -68.34,-36.13 -20.63,-70.33 29.67,-21.27 35.04,-12.06 56.38,-18.58 23.07,-7.06 4.05,-6.15 24.31,-17.05 18.25,-9.81 11.02,-1.43 27.52,-1.11 35.06,0.69 16.55,-22.09 30.93,-40.39 13.72,-17.44 32.69,-4.91 54.33,-11.32 z m -370.59,2 c 34.57,13.99 67.69,-21.79 72.52,-51.98 -26.98,-16.16 -83.83,15.57 -72.52,51.98 z m 132.77,-92.17 c 12.87,-20.24 3.94,-22.48 17.44,-42.31 25.38,-11.72 30.17,-0.83 52.67,-7.72 8.57,-17.84 3.36,-22.21 14.41,-40.33 15.86,-7.85 31.26,-10.78 36.62,-0.31 -3.74,8.77 -14.5,7.18 -22.95,12.46 -16.89,10.57 -6.2,14.17 -12.74,28.71 -13.11,29.07 -36.8,12.92 -58.28,18.2 -12.9,21.04 2.48,27.28 -18.94,42.61 -22.7,16.24 -24.81,-2.24 -49.05,6.71 -9.08,21.16 0.01,21.65 -8.86,41.75 -22.67,51.31 -103.77,75.23 -101.44,18.09 2.08,-51.35 88.62,-59.09 88.75,-59.14 9.97,-4.61 2.92,-5.72 17.44,-14.22 15.06,-8.8 26.28,-1.53 44.93,-4.5 z m -174.63,226.73 c -63.52,-93.59 -190.41,-112.78 -281.31,-55.01 -100.38,63.79 -123.56,193.31 -64.67,287.82 126.69,203.34 450.34,62.4 374.69,-179.64 -5.15,-16.47 -10.98,-31.32 -25.69,-36.52 -33.27,15.89 10.99,26.88 -33.93,75.48 -26.09,28.26 -66.55,49.06 -89.33,20.36 -23.1,-29.08 9.82,-63.24 41.35,-78.3 23.55,-11.24 29.66,-7.19 46.84,-10.02 24.38,-4.03 2.78,-6.91 32.05,-24.17 z m -82.82,379.23 c -39.56,30.48 -33.5,54.42 -86.2,13.54 -20.16,10.37 -29.9,23.81 -48.86,20.04 -28.95,-5.72 -19.41,-32.31 -46.64,-29.87 -52.35,4.71 -38.61,10.5 -66.24,-41.37 -24.44,-7.36 -62.9,9.15 -59.12,-59.15 -17.5,-12.16 -66.1,-13.81 -36.98,-73.92 -32.01,-45.2 -48.83,-15.21 -20.69,-80.86 l 2.27,-7.03 c 4.15,-12.53 -18.7,-23.41 -15.62,-47.06 2.31,-17.82 19.92,-25.32 34.95,-39.38 -4.08,-10.92 -16.38,-35.97 -4.15,-50.03 9.2,-10.56 32.67,-17.66 32.09,-16.91 -2.4,3.1 -3.14,8.78 -3.11,12.73 -9.43,7.02 -20.93,3.85 -18.38,27.67 0.7,6.6 2.95,8.33 4.16,14.59 7.72,39.36 -23.93,25.64 -28.44,54.41 -4.97,31.59 32.34,21.73 7.05,63.26 -11.23,18.45 -7.48,1.51 -9.06,20.32 4.96,25.71 17.11,15.45 33.27,44.16 -0.93,19.9 -8.44,15.36 -8.07,40.35 15.51,19.99 21.38,12.33 40.06,25.04 14.05,29.33 -3.52,22.52 13.48,50.05 l 45.17,7.31 c 18.45,25.44 3.6,30.92 27.06,43.4 18.81,5.29 -0.13,3.14 22.07,-1.79 22.09,-4.9 2.23,-6.12 21.1,-2.2 25.63,8.94 17.13,43.33 57.3,23.96 20.44,-9.85 15.89,-18.08 43.04,-2.28 17.62,10.27 0.92,7.35 19.87,9.32 33.17,-4.06 11.46,-21.4 45.23,-30.46 22.03,-4.5 35.64,19.13 51.53,-3.99 13.48,-19.66 -2.3,-34.17 39.97,-36.57 31.55,-1.8 25.61,-10.24 28.84,-35.57 4.32,-33.95 23.67,-17.6 45.65,-41.87 2.37,-21.77 -5.17,-28.26 -3.74,-48.19 16.68,-20.39 21.97,-15.72 33.89,-36.15 -9.46,-21.9 -26.91,-30.52 -18.17,-52.23 6.9,-17.11 24.64,-26.08 10.31,-43.96 -12.83,-16.01 -30.61,-12.61 -24.7,-41.68 4.27,-20.98 15.22,-21.97 -8.07,-43.32 -11.47,19.06 -8.53,31.34 -38.98,35.57 29.52,76.99 31.1,131.93 5.24,192.14 -29.13,67.91 -95.86,120.5 -172.3,131.7 -60.97,8.93 -124.95,-4.98 -181.64,-55.47 -30.63,-27.3 -52.46,-63.35 -64.09,-100.01 -10.1,-31.82 -12.79,-76.22 -9.83,-99.04 20.91,-162.1 250.93,-280.2 400.22,-102.45 11.28,13.41 7.67,15.24 23.2,16.9 37.03,3.98 8.31,-38.07 8.28,-38.14 -13.44,-35.33 16.11,-39.36 -40.06,-46.51 -28.99,-3.69 -20.57,-19.43 -31.43,-36.96 -14.36,-23.09 -29.25,-5.74 -45.15,-4.52 -23.06,1.75 -25.77,-18.03 -43.92,-33.72 -22.77,4.81 -20.42,11.32 -44.7,20.55 -19.44,-4.61 -22.13,-13.63 -44.45,-19.18 -28.57,12.88 -15.29,24.14 -40.31,30.48 -19.4,4.89 -14.91,-8.02 -42.77,-4.77 -25.97,21.99 -5.84,19.75 -22.72,36.7 -19.94,20.03 -20.74,1.08 -42.04,10.41 -31.48,13.76 8.26,55.66 -42.97,62.74 0.19,-16.01 7.27,-13.56 12.64,-26.68 5.16,-12.68 -1.72,-16.78 3.26,-30.95 9.53,-27.13 35.49,-18.93 54.1,-21.56 15.52,-19.41 -0.02,-27.36 28.95,-42.62 22.41,-11.82 29.9,-0.17 49.98,2.78 39.44,-34.12 32.53,-47.86 82.42,-12.43 21.38,-7.59 26.81,-20.93 48.02,-18.44 22.52,2.64 22.32,17.72 39.83,32.82 22.85,-4.49 31.08,-12.79 49.34,-2.36 21.46,12.26 12.83,24.33 27.83,42.87 62.92,-0.03 48.74,14.43 56.4,56.56 l 30.05,-14.07 c 18.03,-3.61 16.51,2.29 33.23,3.43 15.36,-13.71 28.36,-93.33 68.02,-47.95 -23.42,12.64 -16.92,-7.02 -33.13,9.53 -10.19,10.4 -2.12,20.36 -11.28,35.93 -18.93,32.21 -41.78,1.43 -66.89,20.11 32.89,34.7 33.67,24.69 18.22,68.71 27.4,41.47 53.97,26.63 13.3,85.98 9.17,20.54 23.25,26.87 18.91,48.19 -4.24,20.87 -19.04,21.79 -33,39.71 15.14,56.15 7.43,46.98 -38.24,74.14 -3.53,20.1 4.58,28.14 -10.54,44.51 -24.58,26.59 -36.83,6.58 -51.17,18.53 -12.77,10.66 0.43,23.54 -25.44,37.41 -18.84,10.08 -30.94,1.79 -46.51,-4.88" /><path
         id="path96"
         style="fill:#b64dcc;fill-opacity:1;fill-rule:evenodd;stroke:none"
         d="m 8973.68,4240.74 h 197.477 v 18.2852 H 8973.68 Z" /><path
         id="path98"
         style="fill:#b64dcc;fill-opacity:1;fill-rule:evenodd;stroke:none"
         d="m 8973.68,4184.52 h 197.477 v 18.2852 H 8973.68 Z" /><path
         id="path100"
         style="fill:#b64dcc;fill-opacity:1;fill-rule:evenodd;stroke:none"
         d="m 8799.97,4125.55 h 371.18 v 18.2852 h -371.18 z" /><path
         id="path102"
         style="fill:#f37b2b;fill-opacity:1;fill-rule:evenodd;stroke:none"
         d="m 712.914,7014.06 c 392.076,32.56 721.986,-278.43 744.316,-640.6 24.88,-403.41 -274.3,-726.76 -641.039,-749.37 -116.148,-7.16 -211.199,8.84 -306.347,45.46 -78.957,30.39 -163.75,82.59 -214.621,132.65 -125.18,123.19 -218.1097,271.35 -228.3402,465.88 -21.543,409.57 270.8632,714.82 646.0312,745.98 z m 64.109,48.46 c -14.546,-0.03 -16.859,0.52 -31.898,-0.22 -183.078,2.2 -394.895,-102.31 -512.613,-224.13 -461.586,-477.67 -118.926,-1261.02 528.75,-1260.49 544.528,0.45 889.668,554.96 681.278,1038.2 -34.21,79.32 -89.8,163.75 -148.71,221.58 -63.79,62.63 -123.96,108.17 -216.48,153.68 -68.14,33.53 -202.162,72.32 -300.327,71.38" /><path
         id="path104"
         style="fill:#f87352;fill-opacity:1;fill-rule:evenodd;stroke:none"
         d="m 10838.9,6592.25 c 4.2,3.73 49.6,1.87 54.7,1.85 -0.1,9.05 -2.3,61.35 2.3,64.57 1.5,20.55 33,36.48 53.3,15.31 16.2,-16.97 5.6,-54.53 9.1,-80.66 45.9,0.7 95.7,8.54 96.2,-56.28 l -258.2,-0.34 c 0.3,17.14 2.5,28.73 10.6,38.78 5.5,6.82 20.5,18.53 32,16.77 z m -32.3,-648.36 h 237.6 c 12.9,6.81 33.3,6.74 48.1,36.24 8,16.18 8.5,56.51 6.3,77.38 l -112.5,0.07 c -2.3,2.16 -1.7,2.32 -1.6,9.1 0,4.4 -0.3,6.23 0.8,10.56 13.6,2.94 88.5,-0.98 112.9,0.97 l 0.1,91.25 c -25,2.16 -98.9,-2.1 -112.9,0.94 -1.6,5.33 -1.6,14.44 0.1,19.75 l 112.9,0.61 -0.5,82.79 -111.4,-0.33 c -2.7,1.84 -1.4,-3.7 -2.7,3.78 0,5.75 -0.7,10.59 1.2,15.81 9.9,4.2 93,-1.5 112.8,1.48 l -0.5,89.74 -111.7,0.07 -0.1,18.74 113.4,0.66 c 0.4,23.05 2,60.59 -0.3,82.1 -1.3,11.76 -6.3,22.29 -11.3,29.82 -10.5,15.89 -11.3,1.79 -12.1,29.05 -0.8,28.14 -11.9,43.34 -27.3,55.62 -19.1,15.36 -39.1,14.64 -68.5,14.19 -4.7,22.64 4.8,38.95 -6.8,62.5 -11.9,24.22 -32.6,24.52 -40.7,28.17 h -14.6 c -10,-6.14 -26.1,-5.81 -37.9,-29.3 -8.4,-16.51 -3.4,-55.32 -6.6,-60.27 -3.9,-3.92 -27.5,1.87 -48.2,-4.13 -25.5,-7.43 -45.6,-30.64 -48.3,-57.07 -0.6,-5.66 -0.1,-22.46 -1.4,-25.86 -1.1,-2.82 -8.8,-9.04 -12.2,-14.41 -15.5,-24.26 -10.8,-61.06 -10.7,-94.66 0,-46.87 -1.8,-402.24 1.1,-421.82 3,-20.76 17,-37.22 33.7,-46.26 6,-3.28 14.2,-4.26 19.8,-7.28" /><path
         id="path106"
         style="fill:#6c6c6c;fill-opacity:1;fill-rule:evenodd;stroke:none"
         d="m 10986.1,6057.58 v 19 l 112.7,0.33 c 1.5,5.93 1.5,87.01 0.1,94.23 l -112.9,0.13 0.2,18.13 112.6,0.46 c 1.7,6.59 0.8,51.29 0.8,64.04 v 15.89 c -0.6,4.6 0.5,2.18 -1.7,3.76 l 0.5,-82.79 -112.9,-0.61 c -1.7,-5.31 -1.7,-14.42 -0.1,-19.75 14,-3.04 87.9,1.22 112.9,-0.94 l -0.1,-91.25 c -24.4,-1.95 -99.3,1.97 -112.9,-0.97 -1.1,-4.33 -0.8,-6.16 -0.8,-10.56 -0.1,-6.78 -0.7,-6.94 1.6,-9.1" /><path
         id="path108"
         style="fill:#4c4c4c;fill-opacity:1;fill-rule:evenodd;stroke:none"
         d="m 10986.5,6273.22 -0.1,19.16 112.6,0.52 c 1.4,16.89 0,59.14 0.3,81.37 0.2,11.71 0.1,8.62 -2,9.76 l 0.5,-89.74 c -19.8,-2.98 -102.9,2.72 -112.8,-1.48 -1.9,-5.22 -1.2,-10.06 -1.2,-15.81 1.3,-7.48 0,-1.94 2.7,-3.78" /><path
         id="path110"
         style="fill:#575759;fill-opacity:1;fill-rule:evenodd;stroke:none"
         d="m 10838.9,6592.25 55.9,0.79 1.1,65.63 c -4.6,-3.22 -2.4,-55.52 -2.3,-64.57 -5.1,0.02 -50.5,1.88 -54.7,-1.85" /><path
         id="path112"
         style="fill:#00cdcb;fill-opacity:1;fill-rule:evenodd;stroke:none"
         d="m 6519.3,8090.01 c 0,72.23 -9.48,104.24 14.48,140.01 l 159.33,9.66 c 64.17,-121.28 235.17,-121.28 299.34,0 l 159.32,-9.66 c 23.96,-35.77 14.48,-67.78 14.48,-140.01 0,-52.92 -57.68,-24.67 -101.45,-33.73 -24.42,-5.05 -14.42,-67.45 -14.42,-120.76 0,-29.24 4.07,-177.9 -4.34,-198.44 -6.54,-15.97 -22.63,-28.48 -43.94,-28.48 h -318.65 c -55.08,0 -48.41,58.54 -48.29,86.89 l 0.03,202.8 c 0.14,24.56 6.2,51.03 -10.48,57.12 -34.47,12.59 -105.41,-23.8 -105.41,34.6 z m 287.93,-257.06 h 74.44 v -37.22 h -74.44 z m 0,71.46 h 74.44 v -37.22 h -74.44 z m 0,71.34 h 74.44 v -37.22 h -74.44 z m 0,73.92 h 74.44 v -37.22 h -74.44 z m -312.07,165.87 c 0,-190.99 -17.34,-183.47 115.87,-183.47 v -284.85 c 0,-29.61 33.16,-62.76 62.76,-62.76 h 337.97 c 29.6,0 62.76,33.15 62.76,62.76 v 284.85 c 133.21,0 115.87,-7.52 115.87,183.47 0,12.59 -17.38,30.19 -27.94,34.82 -24.12,10.56 -154.82,13.46 -184.49,13.46 -43.7,-65.25 -64.01,-86.9 -149.67,-86.9 -27.03,0 -57.5,15.4 -73.26,28.12 -25.94,20.91 -29.92,32.62 -47.44,58.78 -28.06,0 -156.89,-3.58 -181,-12.11 -12.66,-4.48 -31.43,-22.63 -31.43,-36.17" /><path
         id="path114"
         style="fill:#009a96;fill-opacity:1;fill-rule:evenodd;stroke:none"
         d="m 8725.59,7863.91 c -22.54,0 -33.2,2.03 -54.72,10.82 -6.37,2.61 -14.26,7.05 -20.02,10.72 -0.88,0.56 -1.21,0.88 -2.08,1.5 -1.45,1.03 -2.68,1.9 -4.16,3 -6.88,5.14 -15.74,14.18 -20.92,21.07 -13.26,17.64 -21.51,39.8 -21.51,62.47 0,11.46 2.19,23.18 5.12,33.8 2.86,10.36 6.76,18.75 11,27.91 1.13,2.44 2.17,4.15 3.33,6.39 4.41,8.52 38.25,55.84 43.97,63.57 l 48.72,68.53 c 2.38,-0.55 4.06,-2.37 6.04,-3.69 2.1,-1.4 3.73,-2.67 5.73,-3.99 l 87.56,-61.95 c 1.02,-0.72 2.06,-1.33 3.07,-2.06 1.08,-0.76 1.74,-1.32 2.97,-2.15 l 82.03,-57.75 c -0.5,-2.15 -0.65,-1.72 -1.82,-3.3 l -61.16,-88.35 c -3.23,-4.28 -6.19,-8.59 -9.43,-13.1 l -23.78,-31.01 c -5.79,-7.11 -10.04,-11.08 -16.58,-17.21 l -12.65,-9.38 c -15.41,-9.13 -30.58,-15.84 -50.71,-15.84 z m 195.08,203.79 -19.9,14.41 c -3.41,2.58 -6.53,4.76 -10.02,7.39 -3.48,2.62 -6.68,4.87 -10.02,7.39 l -30.13,22.09 c -2.2,1.62 -8.57,5.76 -9.81,7.61 l 16.39,23.04 c 1.33,1.89 2.73,3.69 4.1,5.63 l 45.56,62.98 c 3.07,-0.82 38.06,-24.44 42.8,-27.87 l 8.92,-6.44 c 4.64,-3.51 8.73,-6.13 12.51,-11.56 12.19,-17.55 -3.22,-35.14 -14.35,-51.11 z m -109.06,79.37 c -4.31,2.28 -23.08,15.41 -29.5,19.66 -3.51,2.32 -6.3,4.29 -9.72,6.66 -8.26,5.73 -21.77,14.26 -29.32,19.83 -3.15,2.33 -6.59,4.43 -9.81,6.58 0.48,1.78 2.6,4.42 3.69,6.05 l 15.77,23.15 c 1.32,2 2.6,3.62 3.99,5.73 l 11.88,17.31 c 1.26,1.9 2.62,3.79 4.02,5.71 2.8,3.82 5.42,7.43 8.34,11.11 15.08,19.02 25.58,19.35 45.6,6.83 6.4,-4 12.2,-8.1 18.44,-12.28 3.03,-2.03 5.69,-4.1 8.7,-6.15 l 17.75,-12.98 c 2.88,-2.16 5.9,-4.65 8.78,-6.58 -1.22,-1.82 -2.79,-3.71 -4.17,-5.56 -1.47,-1.96 -2.67,-3.56 -4.17,-5.56 z m -249.88,-169.48 c 0,-3.07 0.3,-4.37 0.49,-6.69 0.29,-3.51 0.11,-9.37 0.82,-14.03 4.7,-31.23 12.31,-53.54 33.15,-78.47 2.09,-2.49 5.03,-5.07 7.4,-7.45 4.45,-4.46 18.63,-15.38 25.12,-19.43 3.17,-1.97 5.87,-3.86 9.16,-5.69 1.79,-0.99 2.79,-1.65 4.59,-2.57 2.02,-1.03 2.94,-1.74 4.95,-2.74 10.71,-5.35 19.94,-9.27 31.98,-12.56 3.69,-1 8.07,-2.04 12.01,-2.83 4.47,-0.91 8.21,-1.2 13.04,-1.82 26.2,-3.37 62.11,3.99 85.49,15.68 3.37,1.69 6.54,3.24 9.6,5.25 14.65,9.65 19.97,15.19 31.65,27.74 9.64,10.36 17.87,21.48 26.29,33.11 12.71,17.59 30.66,42.02 43.33,60.61 l 48.85,69.95 c 1.13,1.64 1.83,2.48 2.97,4.2 l 39.33,57.44 c 4.13,6.2 7.97,11.22 11.49,18.21 0.99,1.96 1.67,2.56 2.53,4.64 5.8,14.06 10.96,24.18 10.96,41.26 0,16.8 -5.54,28.46 -13.52,38.71 -4.22,5.43 -9.66,9.87 -15.08,14.11 l -34.17,24.2 c -4.9,3.24 -9.01,6.4 -13.83,9.72 l -61.86,43.62 c -8.4,5.83 -28.09,20.28 -34.78,23.6 -21.94,10.87 -45.21,12.84 -67.92,2.72 -7.98,-3.55 -15.76,-9.35 -21.65,-15.22 l -62.33,-85.14 c -2.56,-3.6 -4.81,-7.26 -7.54,-10.89 l -7.51,-10.92 c -2.53,-3.8 -5.08,-7.1 -7.59,-10.85 l -30.1,-44.13 c -9.78,-13.77 -20.36,-30.39 -30.14,-43.61 -7.97,-10.79 -14.63,-22.96 -21.68,-34.12 l -9.29,-18.36 c -7.18,-14.95 -15.89,-40.55 -15.7,-58.04 0.05,-3.8 -0.51,-5.38 -0.51,-9.21" /><path
         id="path116"
         style="fill:#009a96;fill-opacity:1;fill-rule:evenodd;stroke:none"
         d="m 8925.79,8303.75 c 0.49,-0.32 28.54,-19.46 30.72,-19.97 1.36,2.03 2.69,4.16 4.1,6.14 1.39,1.97 2.72,3.98 4.23,6 1.57,2.08 2.77,3.81 4.27,5.99 1.57,2.28 2.93,3.97 4.5,6.24 l 22.44,29.79 c 1.72,2.1 2.98,3.96 4.88,5.87 1.22,1.23 1.28,1.55 2.32,2.8 l 8.05,7.83 c 10.66,8.22 16.53,12.29 32.25,12.29 6.9,0 14.74,-1.68 19.76,-3.8 7.61,-3.22 11.77,-6.38 16.67,-12.52 0.93,-1.15 1.79,-2.25 2.6,-3.53 1.44,-2.29 2.77,-5.25 3.85,-7.94 11.75,-29.45 -7.08,-57.37 -16.57,-85.56 -5.06,-15.04 -12.13,-33.99 -13.52,-50.49 -1.7,-20.18 -3.49,-35.09 6.5,-54.97 1.29,-2.55 2.18,-4.76 3.65,-7.1 8.13,-12.96 14.78,-19.18 26.37,-27.91 3.84,-2.91 9.35,-5.65 13.68,-7.83 28.24,-14.26 58.84,-9.17 87.05,2.05 4.67,1.85 9.55,3.89 13.82,6.14 -0.23,2.81 -18.52,29.27 -19.46,33.28 -2.87,-0.06 -6.74,-2.64 -9.51,-3.8 l -9.44,-3.87 c -4.97,-1.98 -14.8,-5.13 -21.5,-5.13 -20.34,0 -41.5,15.25 -48.64,31.24 -11.92,26.73 1.95,59.62 11.77,84.49 l 15.15,38.61 c 6.61,23.39 10.31,48.21 -0.98,70.79 -1.28,2.58 -2.25,4.19 -3.59,6.65 -1.35,2.49 -2.58,3.86 -4.13,6.11 -14.9,21.79 -44.06,34 -70.45,34 -18.35,0 -43.74,-6.41 -56.97,-19.83 l -7.17,-6.65 c -1.51,-1.5 -1.91,-2.4 -3.31,-3.86 l -13.01,-14.64 c -2.13,-2.62 -4.04,-5.05 -6.15,-7.68 l -17.63,-23.85 c -3.1,-4.29 -16.02,-22.89 -16.6,-25.38" /><path
         id="path118"
         style="fill:#d064b3;fill-opacity:1;fill-rule:evenodd;stroke:none"
         d="m 4782.72,6275.46 c 24.31,71.33 -19.74,75.8 32.73,107.12 32.17,-56.22 -50.85,-183.13 -78.31,-226.73 -54.37,15.11 -106.24,71.04 -139.68,25.36 -57.69,-78.79 162.79,-131.69 167.67,-130.3 27.8,19.78 30.8,27.95 52.02,62.3 l 48.61,64.09 86.47,-59.34 c -15.81,-69.81 -67.2,-121.72 -29.09,-172.34 83.94,-61.33 133.75,190.04 123.91,210.73 -20.76,28.56 -94.42,78.74 -134.17,94.2 l 21.13,87.03 c 16.54,-9.26 32.45,-76.34 171.19,-21.35 35.65,14.13 63,42.7 27.87,76.77 -28.53,27.64 -75.57,3.99 -117.78,-1.09 -72.44,150.28 -76.76,126.24 -236.79,74.51 -59.68,-19.3 -91.43,-18.96 -85.68,-93.78 6.32,-82.13 17.64,-107.68 89.9,-97.18 z m 123.45,379.89 c -88.63,-68.31 17.32,-164.45 87,-114.99 68.46,48.57 -2.21,180.35 -87,114.99" /><path
         id="path120"
         style="fill:#f37b2b;fill-opacity:1;fill-rule:evenodd;stroke:none"
         d="m 754.363,6565.73 c -42.125,0 -27.34,-8.85 -56.05,-8.85 -10.958,0 -5.27,6.3 -20.098,18.25 -7.735,6.24 -15.504,9.63 -24.152,14.2 -3.813,-7.21 -5.43,-13.53 -8.848,-20.65 13.652,-7.22 35.203,-18.36 30.277,-35.85 -3.195,-11.34 -18.113,-34.47 -39.129,-34.94 -5.187,19.43 -31.867,37.81 -56.047,38.34 0,-45.11 27.309,-11.75 38.348,-53.09 -19.148,-4.46 -38.184,-0.01 -55.473,-3.53 -14.332,-2.91 -23.687,-20.07 -27.125,-34.82 7.032,-1.64 14.836,-3.11 20.649,-5.9 7.465,15.56 2.664,21.22 38.344,20.65 29.039,-0.45 27.617,2.24 46.277,12.73 14.773,8.3 24.453,11.36 35.703,23.29 7.988,8.48 18.352,25.19 21.274,37.73 25.753,0 74.156,34.15 85.55,-14.75 -19.3,-28.82 -5.39,-6.79 -17.703,-32.45 -33.668,0 -54.449,-6.55 -67.847,-26.55 32.601,-21.83 -0.911,2.95 64.898,2.95 3.598,-15.45 6.613,-33.18 17.699,-41.3 9.695,2.59 9.715,4.28 14.75,11.8 -4.851,20.83 -8.851,7.79 -8.851,44.24 0,52.36 79.929,23.52 99.136,10.65 30.035,-20.14 16.282,-73.74 1.848,-96.88 -8.758,-14.04 -10.57,-12.37 -21.988,-22.25 -15.563,-13.47 -34.746,-25.55 -34.746,-53.76 v -106.2 h -32.45 v 115.05 c 0,41.44 -60.23,66.57 -73.921,67.44 -17.083,1.08 -33.25,-12.39 -68.86,-0.76 -38.055,12.42 2.992,11.17 -48.75,3.91 -60.914,-8.54 -121.16,15.17 -121.16,68.06 0,33.78 5.891,72.42 37.41,89.44 15.445,8.33 12.555,1.94 17.723,20.62 6.012,21.75 13.648,32.68 30.894,42.85 16.16,9.52 36.43,12.28 61.469,12.28 11.484,43.02 77.035,34.64 106.195,20.65 21.438,32.01 54.442,25.74 85.575,11.82 31.207,-13.95 6.554,-13.29 41.097,-11.81 68.34,2.95 84.063,-49.89 91.434,-56.24 6.43,-5.54 51.875,-4.42 53.215,-94.29 0.49,-33.14 31.8,-43.03 5.08,-96.37 -8.6,-17.17 -12.15,-16.06 -16.518,-27.73 -8.133,-21.77 -7.793,-35.48 -30.402,-58.1 -28.352,-28.37 -79.031,-32.29 -79.031,-106.82 h -38.348 c 0,37.69 -6.645,112.43 15.527,131.97 l 37.571,33.23 c 31.125,-16.47 14.273,-15.39 29.5,-26.55 7.152,1.67 11.836,3.09 17.695,5.9 -1.582,19.01 -19.348,37.01 -35.395,41.3 5.481,23.53 8.848,27.57 8.848,59 23.078,12.21 37.871,12.66 53.098,35.4 -4.356,5.95 -9.442,9.59 -17.7,11.8 -14.582,-9.77 -15.636,-20.66 -41.3,-20.66 -6.633,28.48 -40.012,35.82 -50.86,40.59 -2.257,1 -14.683,2.05 -7.277,20.07 2.574,6.26 5.008,8.64 7.992,13.09 -3.992,5.96 -7.812,11.75 -11.801,17.7 -15.675,-10.49 -21.605,-20.29 -23.597,-44.24 -12.082,2.81 -13.856,2.94 -29.504,2.94 -3.102,13.32 -13.727,26.08 -26.547,29.5 0.977,11.76 2.484,9.43 5.801,17.8 3.261,8.21 2.484,13.23 6,20.55 -11.379,0.95 -11.617,2.95 -26.551,2.95 0,-20.29 -5.422,-20.67 -8.848,-35.4 z M 347.27,6320.89 c 0,-25.98 59,-31.3 59,-59 0,-22.8 -40.375,-24.1 8.851,-50.14 -6.793,-10.15 -15.793,-13.18 -6.578,-26.9 14.371,-21.4 22.906,-3.65 15.297,-58.53 -1.324,-9.52 -5.77,-24.79 -5.77,-32.57 0,-73.28 161.055,-26.55 194.692,-26.55 35.543,0 32.851,-16.91 40.078,-45.48 l 18.922,-66.62 c 38.812,0 138.66,11.87 177.027,11.77 36.516,-0.1 139.281,11.83 176.961,11.83 -1.05,12.66 -8.23,28.64 -13.04,40.05 -5.95,14.12 -11.01,26 -16.452,39.6 -27.582,68.84 -38.36,115.61 5.262,180.58 37.41,55.74 100.93,92.75 100.93,223.56 0,90.15 -52.98,164.97 -104.446,205.29 -47.688,37.35 -142.82,83.8 -225.941,83.8 -83.012,0 -124.25,-7.63 -195.684,-43.26 -73.949,-36.89 -126.699,-81.4 -141.973,-164.82 -11.843,-64.7 24.364,-84.77 -41.945,-164.55 -4.481,-5.39 -5.488,-8 -10.996,-12.6 -11.985,-10.01 -34.195,-27.65 -34.195,-45.46" /><path
         id="path122"
         style="fill:#37ba17;fill-opacity:1;fill-rule:evenodd;stroke:none"
         d="m 2816.92,6943.13 c 392.08,32.56 721.99,-278.43 744.32,-640.61 24.87,-403.41 -274.3,-726.76 -641.04,-749.36 -116.15,-7.17 -211.2,8.84 -306.35,45.46 -78.96,30.39 -163.75,82.59 -214.62,132.65 -125.18,123.18 -218.11,271.36 -228.34,465.88 -21.55,409.56 270.86,714.82 646.03,745.98 z m 64.11,48.46 c -14.55,-0.04 -16.86,0.52 -31.9,-0.22 -183.08,2.2 -394.89,-102.31 -512.61,-224.14 -461.59,-477.67 -118.93,-1261.02 528.75,-1260.48 544.53,0.45 889.67,554.96 681.27,1038.2 -34.21,79.32 -89.8,163.75 -148.71,221.58 -63.79,62.62 -123.95,108.17 -216.47,153.68 -68.15,33.52 -202.17,72.32 -300.33,71.38" /><path
         id="path124"
         style="fill:#37ba17;fill-opacity:1;fill-rule:evenodd;stroke:none"
         d="m 2883.37,6652.89 430.76,-257.5 -16.66,-22.09 -415.59,248.43 -414.11,-247.54 -12.76,22.64 z m 0.09,-66.62 323.36,-201.18 v -379.18 h -665.69 v 372.87 z m -7.37,-88.47 c 62.82,0 113.75,-50.93 113.75,-113.76 0,-62.83 -50.93,-113.75 -113.75,-113.75 -62.83,0 -113.76,50.92 -113.76,113.75 0,62.83 50.93,113.76 113.76,113.76" /><path
         id="path126"
         style="fill:#d064b3;fill-opacity:1;fill-rule:evenodd;stroke:none"
         d="m 4844.36,6998.36 c 392.08,32.56 722,-278.43 744.32,-640.6 24.87,-403.41 -274.3,-726.76 -641.04,-749.37 -116.14,-7.16 -211.19,8.85 -306.34,45.47 -78.96,30.38 -163.76,82.59 -214.62,132.64 -125.19,123.19 -218.11,271.36 -228.34,465.89 -21.55,409.56 270.86,714.82 646.02,745.97 z m 64.11,48.46 c -14.54,-0.03 -16.85,0.52 -31.9,-0.21 -183.07,2.19 -394.89,-102.31 -512.61,-224.14 -461.58,-477.67 -118.92,-1261.02 528.75,-1260.48 544.53,0.44 889.68,554.96 681.28,1038.19 -34.21,79.33 -89.8,163.75 -148.71,221.59 -63.79,62.62 -123.96,108.16 -216.48,153.68 -68.14,33.52 -202.16,72.32 -300.33,71.37" /><path
         id="path128"
         style="fill:#e59734;fill-opacity:1;fill-rule:evenodd;stroke:none"
         d="m 6793.19,6897.75 c 392.08,32.56 721.99,-278.43 744.32,-640.6 24.87,-403.41 -274.3,-726.76 -641.04,-749.37 -116.15,-7.16 -211.2,8.84 -306.35,45.46 -78.96,30.39 -163.75,82.59 -214.62,132.65 -125.18,123.19 -218.11,271.36 -228.34,465.88 -21.54,409.57 270.86,714.82 646.03,745.98 z m 64.11,48.46 c -14.54,-0.03 -16.86,0.52 -31.9,-0.22 -183.08,2.2 -394.89,-102.31 -512.61,-224.13 -461.59,-477.68 -118.93,-1261.02 528.75,-1260.49 544.53,0.45 889.67,554.97 681.28,1038.2 -34.21,79.32 -89.8,163.75 -148.72,221.58 -63.79,62.62 -123.96,108.17 -216.47,153.69 -68.14,33.52 -202.17,72.31 -300.33,71.37" /><path
         id="path130"
         style="fill:#e59734;fill-opacity:1;fill-rule:evenodd;stroke:none"
         d="m 6458.58,6304.85 c 0,-59.37 4.76,-89.16 30.53,-139.68 3.07,-6.02 5.66,-7.9 7.11,-14.16 h 111.28 c 3.5,15 7.95,131.3 9.91,155.38 2.26,27.77 -0.04,51.1 24.85,57.09 27.79,6.7 35.06,-16.88 41.95,-37.57 13.83,-41.48 27.3,-83.5 40.92,-124.37 l 30.68,-93.7 c 2.64,-7.9 6.37,-26.29 12.08,-30.47 0.31,13.93 37.33,150.97 42.54,171.83 6.64,26.53 7.86,42.55 39.28,42.55 25.27,0 30.48,-44.84 34.7,-61.85 3.07,-12.38 6.59,-24.61 9.82,-37.64 2.99,-12.06 9.2,-26.66 9.49,-39.61 6.93,1.85 8.13,9.15 12.14,15.67 4.1,6.66 7.25,11.38 11.28,18.18 28.86,48.72 53.8,16.82 80.81,-8.17 5.14,-4.76 2.72,-4.36 11.82,-4.54 31.82,-0.64 69.84,9.02 78.37,-21.55 2.47,-8.85 1.19,-18.22 -3.56,-25.17 -4.23,-6.17 -12.46,-12.06 -22.3,-12.06 h -76.92 c -12.06,0 -21.83,14.53 -29.46,19.64 -10.83,-16.19 -43.54,-77.62 -55.88,-84.86 -12.98,-7.61 -31.03,-5.5 -39.79,7.18 -9.77,14.14 -12.64,38.54 -16.89,55.12 l -6.79,24.3 c -1.88,4.35 -0.32,1.11 -1.75,3.17 -4.04,-17.36 -41.84,-171.84 -46.9,-183.85 -7.72,-18.34 -33.01,-25.32 -48.52,-9.77 -11.04,11.06 -33.78,92.92 -40.61,113.22 l -33.12,101.08 c -1.74,5.42 -2.76,10.01 -5.95,13.68 0,-15.67 -2.99,-33.79 -3.27,-49.1 -0.31,-17.31 -8.3,-29.14 -21.7,-32.31 -19.95,-4.72 -78.51,-2.05 -104.32,-2.05 1.99,-2.97 5.36,-6.87 7.95,-10.05 l 251.03,-253.02 c 68.99,-69.22 96.2,5.7 149,49.84 20.82,17.41 61.95,61.38 76.18,72.73 21.34,17.02 42.41,40.27 60.4,60.71 2.25,2.55 4.07,4.11 6.54,6.56 4.64,4.61 8.73,8.33 13.11,13.07 44.31,47.9 84.09,97.81 113.33,156.7 25.74,51.83 27.41,143.12 1.09,195.88 -6.66,13.35 -15.04,24.91 -24.25,36.29 -21,25.99 -49.92,43.47 -83.02,54.46 -64.8,21.52 -130.36,22.35 -191.69,-8.4 -6.88,-3.46 -13.69,-6.21 -20.33,-10.77 -4.05,-2.78 -4.39,-3.46 -8.46,-6.26 -18.11,-12.54 -32.59,-29.87 -43.21,-36.98 -10.23,6.85 -24.27,24.36 -41.26,35.66 -3.97,2.65 -6.01,4.44 -9.46,6.91 -28.11,20.02 -80.6,35.98 -121.12,35.98 -50.83,0 -116.16,-16.08 -154.26,-50.31 -17.62,-15.83 -32.81,-32.49 -43.78,-54.41 -9.43,-18.83 -19.62,-52.04 -19.62,-80.2" /><path
         id="path132"
         style="fill:#0067a1;fill-opacity:1;fill-rule:evenodd;stroke:none"
         d="m 8808.79,6954.29 c 392.07,32.55 721.99,-278.43 744.32,-640.61 24.87,-403.41 -274.31,-726.76 -641.05,-749.37 -116.15,-7.16 -211.19,8.85 -306.35,45.47 -78.95,30.38 -163.75,82.59 -214.61,132.64 -125.19,123.19 -218.11,271.36 -228.35,465.88 -21.54,409.57 270.87,714.83 646.04,745.99 z m 64.1,48.45 c -14.54,-0.03 -16.85,0.53 -31.89,-0.21 -183.08,2.2 -394.89,-102.31 -512.62,-224.14 -461.58,-477.67 -118.92,-1261.02 528.75,-1260.48 544.53,0.45 889.68,554.96 681.28,1038.19 -34.21,79.33 -89.8,163.76 -148.71,221.59 -63.79,62.62 -123.96,108.17 -216.48,153.68 -68.14,33.52 -202.16,72.32 -300.33,71.37" /><path
         id="path134"
         style="fill:#0067a1;fill-opacity:1;fill-rule:evenodd;stroke:none"
         d="m 8884.42,6460.9 137.41,-120.57 -198.42,-226.13 c -46.41,-52.9 -160.31,-48.41 -161.16,54.76 -0.2,23.31 12.14,52.58 28.5,71.22 l 51.27,58.43 31.38,-27.53 c 19.93,-17.5 38.3,8.52 25.21,20 l -35.7,31.33 19.93,22.72 34.62,-30.38 c 14.93,-13.1 35.82,10.7 20.89,23.8 l -34.62,30.38 19.94,22.73 35.7,-31.33 c 13.09,-11.49 36.49,10.11 16.56,27.6 l -31.38,27.53 z m 147.16,73.87 45.45,-39.88 -79.75,-90.88 -45.44,39.88 z m -59.88,73.61 c -7.33,-8.35 -2.61,-18.77 5.78,-26.14 l 30.3,-26.58 -79.75,-90.89 -99.54,87.34 c -23.64,20.75 -38.76,-8.11 -26.29,-19.06 l 58.42,-51.26 L 8666,6259.98 c -31.5,-35.89 -42.48,-86.35 -29.87,-130.46 2.96,-10.37 12.61,-32.08 22.73,-41.36 l -72.16,-82.23 c -6.75,-7.7 -3.81,-15.8 3.49,-22.21 14.91,-13.08 33.83,16.73 46.9,31.62 15.19,17.31 30.38,34.62 45.57,51.93 12.39,-9.17 30.63,-14.27 42.89,-16.5 40.57,-7.39 92.91,9.77 123.57,44.71 l 196.52,223.97 58.42,-51.27 c 12.58,-11.04 39.43,7.53 15.48,28.55 l -98.46,86.4 79.75,90.88 c 23.93,-21 41.66,-44.19 56.83,-26.89 5.34,6.08 4.76,14.98 -1.32,20.31 l -163.38,143.36 c -6.17,5.41 -15.82,3.8 -21.26,-2.41" /><path
         id="path136"
         style="fill:#f87352;fill-opacity:1;fill-rule:evenodd;stroke:none"
         d="m 10854.5,6979.3 c 392.1,32.56 722,-278.42 744.3,-640.6 24.9,-403.41 -274.3,-726.76 -641,-749.37 -116.2,-7.16 -211.2,8.85 -306.4,45.46 -78.9,30.39 -163.7,82.6 -214.6,132.65 -125.2,123.19 -218.1,271.36 -228.3,465.88 -21.6,409.57 270.8,714.83 646,745.98 z m 64.1,48.47 c -14.5,-0.04 -16.8,0.52 -31.9,-0.22 -183.1,2.19 -394.9,-102.32 -512.6,-224.14 -461.58,-477.67 -118.9,-1261.02 528.8,-1260.48 544.5,0.45 889.6,554.96 681.2,1038.19 -34.2,79.33 -89.8,163.76 -148.7,221.59 -63.8,62.62 -123.9,108.17 -216.5,153.68 -68.1,33.52 -202.1,72.32 -300.3,71.38" /><path
         id="path138"
         style="fill:#37ba17;fill-opacity:1;fill-rule:evenodd;stroke:none"
         d="m 10761.6,8811.41 c 392.1,32.56 722,-278.43 744.3,-640.6 24.9,-403.41 -274.3,-726.76 -641,-749.36 -116.2,-7.17 -211.2,8.84 -306.4,45.46 -78.9,30.38 -163.7,82.59 -214.6,132.64 -125.2,123.19 -218.1,271.36 -228.3,465.89 -21.6,409.56 270.8,714.82 646,745.97 z m 64.1,48.47 c -14.5,-0.04 -16.9,0.51 -31.9,-0.22 -183.1,2.2 -394.9,-102.31 -512.6,-224.14 -461.59,-477.67 -118.9,-1261.02 528.7,-1260.48 544.6,0.44 889.7,554.96 681.3,1038.19 -34.2,79.33 -89.8,163.75 -148.7,221.59 -63.8,62.62 -123.9,108.16 -216.5,153.68 -68.1,33.52 -202.1,72.32 -300.3,71.38" /><path
         id="path140"
         style="fill:#37ba17;fill-opacity:1;fill-rule:evenodd;stroke:none"
         d="m 11033.7,7863.3 c -33.3,0 -32.6,47.32 0,47.32 5.3,0 12.7,-4.02 15.7,-7.18 14.5,-15.56 2.3,-40.14 -15.7,-40.14 z m -233.5,-50.6 h -24.9 c -12,1.34 -23.6,4.64 -33.6,9.89 -32.6,16.94 -55.6,49.92 -55.6,88.03 v 133.82 c -25.1,0 -21.2,-3.92 -21.2,21.22 -32.7,0 -58.9,15.69 -79.6,36.31 -40.3,40.22 -56.6,106.89 -68,163.74 -8.8,44.01 -15.6,77.09 -15.6,121.44 0,16.8 6,31.77 11.9,43.55 27.1,54.32 83.6,37.62 96.6,42.12 11.7,4.03 3.5,8.98 26.9,8.98 23.6,0 40.4,-32.82 20.9,-53.53 -20.6,-21.98 -45.6,-1.95 -47,-1.95 -28.2,0 -63.6,6.43 -63.6,-47.33 0,-21.18 2.3,-28.25 5.3,-46.86 11.3,-68.58 28.6,-213.82 112.2,-220.78 0,8.02 -2.6,19.59 4.9,19.59 94,0 81.6,6.13 81.6,-19.59 15.2,7.31 32.4,4.66 55.5,37.53 32,45.55 41.1,123.8 51.8,178.31 5.1,26.28 17.2,99.13 -27.4,99.13 h -29.3 c -4.3,0 -11.2,-8.16 -19.6,-8.16 -21.8,0 -36.4,10.76 -37,31.19 -0.5,16.22 14.6,32.45 27.2,32.45 26.5,0 18.9,-5.24 28.6,-8.94 14.7,-5.7 41.6,8.65 73.5,-14.57 46.1,-33.54 38.3,-86.74 30.1,-136.41 -10.2,-61.33 -21.1,-130.17 -51.1,-183.92 -6.5,-11.62 -15.4,-24.65 -24.4,-34.38 -17.9,-19.37 -50.6,-37.92 -77.9,-37.92 0,-25.04 3.7,-21.22 -19.6,-21.22 v -125.66 c 0,-19.59 5.3,-31.92 14.4,-42.72 20.7,-24.6 76,-26.72 95.5,12.73 15.7,31.65 -5.1,97.19 15.1,138.3 17.1,34.52 49.2,55.73 87.8,56.98 25.4,0.82 47.2,-3.95 66.9,-17.73 41.8,-29.22 43.4,-64.7 43.4,-110.02 11.8,-0.98 28.5,-15.14 34.3,-22.81 24.4,-31.91 21.5,-74.6 -6.9,-100.85 -63.5,-58.75 -164.2,23.88 -107.1,100.6 5.9,7.97 22.1,22.06 34,23.06 0,24.49 0.4,43.62 -10.2,58.33 -21.1,29.24 -65.9,29.66 -87.3,9.85 -30.7,-28.34 -14.8,-73.26 -18.4,-120.33 -1.7,-21.48 -14.4,-49.04 -29.7,-63.37 -17.4,-16.33 -40.4,-25.62 -63.4,-28.1" /><path
         id="path142"
         style="fill:#009a96;fill-opacity:1;fill-rule:evenodd;stroke:none"
         d="m 8816.18,8786.24 c 392.08,32.56 722,-278.43 744.32,-640.6 24.88,-403.41 -274.3,-726.76 -641.04,-749.37 -116.14,-7.16 -211.19,8.84 -306.34,45.46 -78.96,30.39 -163.76,82.59 -214.62,132.65 -125.19,123.19 -218.11,271.36 -228.34,465.89 -21.55,409.56 270.86,714.82 646.02,745.97 z m 64.11,48.46 c -14.54,-0.03 -16.85,0.52 -31.9,-0.22 -183.07,2.2 -394.89,-102.31 -512.6,-224.13 -461.59,-477.67 -118.93,-1261.02 528.74,-1260.49 544.53,0.45 889.68,554.97 681.28,1038.2 -34.21,79.33 -89.8,163.75 -148.71,221.58 -63.79,62.63 -123.96,108.17 -216.48,153.69 -68.14,33.52 -202.16,72.31 -300.33,71.37" /><path
         id="path144"
         style="fill:#00cdcb;fill-opacity:1;fill-rule:evenodd;stroke:none"
         d="m 6804.1,8700.55 c 392.08,32.56 721.99,-278.43 744.32,-640.6 24.88,-403.41 -274.3,-726.76 -641.04,-749.37 -116.15,-7.16 -211.2,8.84 -306.34,45.46 -78.97,30.39 -163.76,82.59 -214.63,132.65 -125.18,123.19 -218.11,271.36 -228.34,465.88 -21.54,409.57 270.86,714.82 646.03,745.98 z m 64.11,48.46 c -14.54,-0.03 -16.86,0.52 -31.9,-0.22 -183.07,2.2 -394.89,-102.31 -512.61,-224.13 -461.58,-477.68 -118.92,-1261.02 528.75,-1260.49 544.53,0.45 889.68,554.97 681.28,1038.2 -34.21,79.33 -89.8,163.75 -148.71,221.58 -63.79,62.62 -123.96,108.17 -216.48,153.69 -68.14,33.52 -202.16,72.31 -300.33,71.37" /><path
         id="path146"
         style="fill:none;stroke:#00cdcb;stroke-width:2.16000009;stroke-linecap:butt;stroke-linejoin:miter;stroke-miterlimit:22.92560005;stroke-dasharray:none;stroke-opacity:1"
         d="m 6804.1,8700.55 c 392.08,32.56 721.99,-278.43 744.32,-640.6 24.88,-403.41 -274.3,-726.76 -641.04,-749.37 -116.15,-7.16 -211.2,8.84 -306.34,45.46 -78.97,30.39 -163.76,82.59 -214.63,132.65 -125.18,123.19 -218.11,271.36 -228.34,465.88 -21.54,409.57 270.86,714.82 646.03,745.98 z m 64.11,48.46 c -14.54,-0.03 -16.86,0.52 -31.9,-0.22 -183.07,2.2 -394.89,-102.31 -512.61,-224.13 -461.58,-477.68 -118.92,-1261.02 528.75,-1260.49 544.53,0.45 889.68,554.97 681.28,1038.2 -34.21,79.33 -89.8,163.75 -148.71,221.58 -63.79,62.62 -123.96,108.17 -216.48,153.69 -68.14,33.52 -202.16,72.31 -300.33,71.37 z" /><path
         id="path148"
         style="fill:#ea368b;fill-opacity:1;fill-rule:evenodd;stroke:none"
         d="m 2653.74,8207.84 c 10.96,-8.93 16.92,-0.68 24.9,-17.91 5.33,-11.52 -1.05,-5.17 9.47,-23.92 0.4,-0.71 1.03,-1.56 1.43,-2.28 l 8.46,-17.35 c 5.58,-7.99 6.71,-0.17 9.6,-16.17 4.5,-24.97 -16.26,-65.27 50.93,-35.86 35.03,15.33 58.51,31.4 38.89,-16.8 -30.42,-74.77 -114.57,-140.2 -200.57,-135.87 -54.46,2.75 -106.05,30.72 -131.51,57.01 -15.6,16.11 -65.73,90.29 -61.37,126.13 -7.29,-88.79 53.33,-203.93 139.04,-247.63 207.54,-105.8 438.52,163.08 325.06,347.18 -30.96,50.22 -104.38,110.35 -125.67,169.36 -14.3,39.65 -3.14,52.27 8.64,80.63 -45.95,-16.56 -53.44,-63.49 -63.18,-80.76 -21.72,-38.46 -16.79,-70.36 -10.22,-111.97 0.1,-0.61 0.35,-1.63 0.47,-2.22 6.77,-33.3 -10.7,-44.52 -24.37,-71.57 z m 249.22,-351.5 c 47.37,17.95 108.28,89.31 132.81,134.03 49.57,90.38 66.07,214.63 -1.29,308.21 -10.02,13.89 -18.57,23.37 -30.16,36.24 -45.89,50.95 -135.52,153.03 -76.46,215.33 -67.44,-14.33 -81.68,-89.02 -26.15,-163.05 19.72,-26.3 40.42,-45.69 60.7,-71.98 70.8,-91.8 96.68,-186.22 51.03,-302.46 -12.12,-30.83 -28.68,-62.3 -46.59,-86.19 -22.1,-29.46 -55.19,-57.96 -63.89,-70.13 z m 145.24,105.67 c 25.82,20.72 43.59,42.39 62.08,79.36 22.58,45.18 29.49,97.77 36.23,109.66 30.29,-10.94 31.35,-21.19 76.53,-12 -15.29,22.03 -45.49,7.47 -74.65,114.87 -14.57,53.63 -18.54,102.06 -37.25,154.58 -66.74,187.4 -174.63,182.17 -174.55,98.14 0.14,-124.6 195.03,-169.92 160.4,-404.39 -8.71,-58.97 -27.49,-94.43 -48.79,-140.22 z m -434.73,-147.3 c 31,1.74 61.12,-17.71 143.49,4.44 40.38,10.87 80.96,31.28 110.14,52.23 55.85,40.07 111.44,101.76 133.24,191.11 26.71,109.45 -20.29,184.1 -69.26,243.38 -23.25,28.13 -50.69,57.62 -72.48,89.79 -35.03,51.7 -26.69,66.61 -10.8,123.3 -36.82,-11.93 -61.57,-49.66 -58.48,-93.3 3.13,-44.16 27.77,-79.91 48.85,-105.71 43.44,-53.18 101.72,-103.61 97.21,-211.77 -1.98,-47.31 -15.01,-80.31 -32.78,-117.3 -8.8,-18.31 -18.16,-31.89 -30.09,-47.47 -22.35,-29.18 -46.88,-56.03 -77.51,-77.43 -15.15,-10.59 -29.84,-19.96 -48.64,-28.71 -52.72,-24.56 -74.45,-17.23 -132.89,-22.56" /><path
         id="path150"
         style="fill:#00a1d8;fill-opacity:1;fill-rule:evenodd;stroke:none"
         d="m 5170.5,8396.99 h 82.07 v -73.78 h 28.59 v -193.64 h -28.59 v -83.91 h -82.07 z m -573.54,0 h -82.07 v -73.78 h -28.59 v -193.64 h 28.59 v -83.91 h 82.07 z m 292.69,-228.28 -177.82,2 c -7.65,-198.98 26.25,-213.22 -99.31,-198.5 -0.24,128.19 -1.35,369.06 1.8,503.36 118.33,14.57 95.8,1.87 95.06,-209.98 l 166.97,-0.26 v 0.21 l 180.26,0.29 c -0.73,211.84 -23.27,224.55 95.06,209.98 3.15,-134.3 2.04,-375.17 1.81,-503.36 -125.56,-14.72 -91.66,-0.49 -99.32,198.5 l -164.51,-1.85 v -0.39" /><path
         id="path152"
         style="fill:#00a1d8;fill-opacity:1;fill-rule:evenodd;stroke:none"
         d="m 4842.38,8900.86 c 392.08,32.55 722,-278.44 744.32,-640.61 24.87,-403.41 -274.3,-726.76 -641.04,-749.37 -116.14,-7.16 -211.2,8.85 -306.35,45.46 -78.95,30.39 -163.75,82.59 -214.62,132.66 -125.18,123.18 -218.11,271.35 -228.34,465.88 -21.54,409.57 270.86,714.82 646.03,745.98 z m 64.11,48.46 c -14.54,-0.04 -16.86,0.51 -31.9,-0.22 -183.07,2.19 -394.89,-102.31 -512.61,-224.14 -461.59,-477.67 -118.93,-1261.01 528.75,-1260.48 544.53,0.45 889.68,554.96 681.28,1038.2 -34.21,79.32 -89.8,163.75 -148.71,221.58 -63.8,62.62 -123.96,108.17 -216.48,153.68 -68.14,33.52 -202.16,72.32 -300.33,71.38" /><path
         id="path154"
         style="fill:none;stroke:#00cdcb;stroke-width:2.16000009;stroke-linecap:butt;stroke-linejoin:miter;stroke-miterlimit:22.92560005;stroke-dasharray:none;stroke-opacity:1"
         d="m 4842.38,8900.86 c 392.08,32.55 722,-278.44 744.32,-640.61 24.87,-403.41 -274.3,-726.76 -641.04,-749.37 -116.14,-7.16 -211.2,8.85 -306.35,45.46 -78.95,30.39 -163.75,82.59 -214.62,132.66 -125.18,123.18 -218.11,271.35 -228.34,465.88 -21.54,409.57 270.86,714.82 646.03,745.98 z m 64.11,48.46 c -14.54,-0.04 -16.86,0.51 -31.9,-0.22 -183.07,2.19 -394.89,-102.31 -512.61,-224.14 -461.59,-477.67 -118.93,-1261.01 528.75,-1260.48 544.53,0.45 889.68,554.96 681.28,1038.2 -34.21,79.32 -89.8,163.75 -148.71,221.58 -63.8,62.62 -123.96,108.17 -216.48,153.68 -68.14,33.52 -202.16,72.32 -300.33,71.38 z" /><path
         id="path156"
         style="fill:#ea368b;fill-opacity:1;fill-rule:evenodd;stroke:none"
         d="m 2814.95,8858.4 c 392.07,32.56 721.99,-278.44 744.32,-640.6 24.87,-403.41 -274.31,-726.76 -641.04,-749.37 -116.15,-7.16 -211.2,8.84 -306.35,45.46 -78.96,30.39 -163.75,82.59 -214.62,132.65 -125.18,123.19 -218.11,271.35 -228.34,465.88 -21.54,409.57 270.86,714.82 646.03,745.98 z m 64.1,48.46 c -14.54,-0.04 -16.85,0.52 -31.89,-0.22 -183.08,2.2 -394.89,-102.31 -512.62,-224.13 -461.58,-477.68 -118.92,-1261.02 528.76,-1260.49 544.52,0.45 889.67,554.96 681.27,1038.2 -34.21,79.32 -89.8,163.75 -148.71,221.58 -63.79,62.63 -123.96,108.17 -216.48,153.68 -68.14,33.53 -202.16,72.32 -300.33,71.38" /><path
         id="path158"
         style="fill:#65dc6e;fill-opacity:1;fill-rule:evenodd;stroke:none"
         d="m 814.203,8790.17 c 392.077,32.56 721.997,-278.43 744.317,-640.6 24.87,-403.41 -274.3,-726.77 -641.04,-749.37 -116.148,-7.16 -211.195,8.84 -306.347,45.46 -78.957,30.39 -163.75,82.59 -214.621,132.65 -125.184,123.19 -218.106,271.35 -228.34,465.88 -21.539,409.57 270.859,714.82 646.031,745.98 z m 64.11,48.46 c -14.543,-0.03 -16.86,0.52 -31.899,-0.22 -183.074,2.2 -394.891,-102.31 -512.613,-224.13 -461.582,-477.67 -118.926,-1261.02 528.75,-1260.49 544.529,0.45 889.679,554.96 681.279,1038.2 -34.21,79.33 -89.8,163.75 -148.71,221.58 -63.8,62.63 -123.96,108.17 -216.48,153.68 -68.14,33.53 -202.163,72.32 -300.327,71.38" /><path
         id="path160"
         style="fill:#65dc6e;fill-opacity:1;fill-rule:evenodd;stroke:none"
         d="m 815.023,8254.81 c 36.817,-25.36 -110.972,-129.18 -153.117,-63.43 -8.515,13.28 -13.269,49.95 16.391,65.69 41.652,22.11 117.234,14.95 136.726,-2.26 z m 15.579,83.73 c -21.297,98.75 -43.711,154.07 -106.34,149.98 14.726,-31 4.601,-12.88 24.621,-38.48 13.855,-17.74 16.797,-18.63 27.375,-40.2 25.812,-52.65 3.734,-52.58 54.344,-71.3 z m 218.668,147.25 c -43.79,10.32 -92.137,29.09 -136.957,9.6 -29.481,-12.8 -77.012,-66.94 -57.895,-120.6 0.836,-2.34 -11.938,-25.68 54.285,-24.73 110.047,1.58 62.664,66.79 140.567,135.73 z M 683.508,8318.62 c -208.805,-84.19 -87.703,-515.56 126.055,-509.22 83.191,2.46 149.851,-15.49 206.547,35.96 70.92,64.33 170.17,288.96 91.02,417.89 -33.91,55.23 -122.982,89.7 -207.931,50.6 -68.519,-31.53 -22.144,-26.29 -90.164,2.69 -46.808,19.93 -79.242,20.74 -125.527,2.08" /><path
         id="path162"
         style="fill:#f05241;fill-opacity:1;fill-rule:evenodd;stroke:none"
         d="m 922.598,635.941 c 22.769,11.442 86.512,-19.324 81.472,-89.968 -2.54,-35.7 -36.91,-47.746 -69.543,-24.766 -27.117,19.098 -38.914,45.906 -35.871,81.367 1.524,17.742 10.496,26.61 23.942,33.367 z m -303.875,0 c 7.976,3.243 18.625,2.055 25.746,-1.246 44.261,-20.523 17.359,-115.465 -37.543,-124.109 -46.18,-7.27 -53.434,37.535 -44.992,66.457 3.656,12.543 11.746,28.141 20.613,37.391 17.074,17.804 21.051,15.367 36.176,21.507 z m -11.868,536.239 c -7.886,-4.95 -14.214,-21.18 -17.675,-30.43 -4.313,-11.5 -6.071,-26.52 -2.434,-37.78 4.176,-12.92 23.149,-44.68 30.867,-60.94 l 15.41,-30.19 c 5.629,-10.11 9.668,-19.258 15.274,-30.672 l 31.023,-60.344 c 6.7,-13.859 60.403,-118.265 60.602,-122.234 0.183,-3.664 -1.07,-5.203 -2.891,-8.387 l -4.16,-6.383 c -2.894,-4.511 -6.187,-10.812 -8.293,-14.718 L 707.98,740.945 c -7.937,-12.3 -26.554,-49.507 -34.164,-57.082 -11.05,1.922 -16.984,11.758 -52.976,9.504 -81.863,-5.125 -142.051,-105.512 -109.875,-183.191 42.531,-102.68 185.191,-55.559 207.316,44.496 l 15.696,77.73 c 3.199,16.082 31.289,98.559 49.093,103.157 13.114,-8.633 36.348,-64.86 41.336,-82.434 4.879,-17.199 8.137,-31.484 12.25,-49.668 9.844,-43.543 6.942,-84.91 60.219,-125.16 99.051,-74.848 203.305,23.43 151.355,137.422 -18.96,41.594 -60.742,76.535 -108.328,77.754 -9.879,0.254 -20.734,0 -28.984,-2.067 -8.887,-2.218 -14.742,-7.203 -22.117,-7.187 -5.731,7.926 -11.356,20.312 -17.047,29.719 -5.402,8.921 -11.551,19.296 -16.785,29.027 -5.946,11.058 -10.207,19.418 -16.547,29.465 -7.004,11.097 -15.477,22.679 -12.449,31.648 l 153.175,305.012 c 4.711,21.88 -11.593,54.75 -23.386,65.27 L 785.91,878.086 c -2.555,-2.801 -0.664,-1.641 -4.601,-3.484 l -4.454,5.402 c -0.382,0.559 -2.597,4.402 -2.609,4.426 l -16.109,27.898 c -3.887,6.57 -6.742,12.11 -10.719,19.129 -37.207,65.695 -82.723,142.203 -117.176,205.383 -4.066,7.46 -7.121,12.85 -10.871,19.22 -5.461,9.29 -6.226,14.05 -12.516,16.12" /><path
         id="path164"
         style="fill:#00c3df;fill-opacity:1;fill-rule:evenodd;stroke:none"
         d="m 11079.1,733.719 c -1.9,6.449 -20.7,23.058 -21.5,57.355 -0.7,25.012 7.7,45.285 19.7,60.379 28.2,35.399 74.8,45.762 114.5,26.61 83.6,-40.313 64.5,-170.563 -37.3,-177.211 -0.4,-4.403 5.2,-10.325 8.5,-25.965 2.2,-10.149 1.8,-22.52 -0.2,-32.641 -22.7,-114.738 -190.4,-222.187 -288.8,-180.574 -32.1,13.582 -48.9,50.582 -36.1,95.324 10.4,36.59 32,63.465 52.5,86.277 18.7,20.864 49.6,44.387 79.6,60.473 33.6,18.016 64.1,27.738 109.1,29.973 z m -175.9,-313.828 h 30.4 c 2.6,1.144 22.9,3.953 27.6,4.843 18.6,3.516 41.3,-8.613 90.2,6.914 91.7,29.067 163.1,128.59 189.1,216.379 4.9,16.547 10.4,36.039 12.6,54.383 4.5,37.914 3.2,18.051 16.6,51.356 24.9,62.281 -14.2,146.304 -93,163.468 -19.5,4.227 -41.3,3.164 -59.4,-2.144 -29.2,-8.582 -36.3,-19.309 -45.2,-22.828 -6.1,4.14 -17.2,14.328 -18.1,25.461 27.8,8.039 58.1,36.379 72.1,57.922 18.3,28.185 29,64.085 22.7,105.785 -7.5,50.19 -38.8,91.3 -83.3,113.34 -26.2,12.97 -42.6,11.03 -50.5,15.46 h -32.3 c -9.5,-5.32 -73.9,-4.06 -117.3,-79.85 -27,-47.06 -21.3,-112.95 5.9,-153.755 9.6,-14.434 18.8,-24.32 30.8,-34.777 16.5,-14.282 33.7,-19.688 40.1,-24.52 -9.3,-25.09 -100.6,-53.023 -139.8,-77.5 -21.7,-13.48 -42.1,-30.07 -53.4,-55.269 -23.9,-53.793 12.5,-164.383 41.8,-212.86 16.7,-27.539 11.6,-16.004 10.4,-38.293 -2.5,-47.14 22,-85.285 60.5,-101.769 19.1,-8.164 35.9,-8.574 41.5,-11.746" /><path
         id="path166"
         style="fill:#fefefe;fill-opacity:1;fill-rule:evenodd;stroke:none"
         d="m 11023.8,641.797 4.1,0.644 c 9.1,8.766 29.5,26.09 48,25.329 27.3,-1.129 46.4,-38.59 -13,-80.856 -11.6,-8.234 -34,-22.461 -46.4,-26.726 -17.2,15.32 -43.7,50.164 -46.8,83.144 -1.9,19.922 7.4,39.969 27.9,37.234 13.8,-1.847 24.6,-23.285 26.2,-38.769 z m 55.3,91.922 c -45,-2.235 -75.5,-11.957 -109.1,-29.973 -30,-16.086 -60.9,-39.609 -79.6,-60.473 -20.5,-22.812 -42.1,-49.687 -52.5,-86.277 -12.8,-44.742 4,-81.742 36.1,-95.324 98.4,-41.613 266.1,65.836 288.8,180.574 2,10.121 2.4,22.492 0.2,32.641 -3.3,15.64 -8.9,21.562 -8.5,25.965 101.8,6.648 120.9,136.898 37.3,177.211 -39.7,19.152 -86.3,8.789 -114.5,-26.61 -12,-15.094 -20.4,-35.367 -19.7,-60.379 0.8,-34.297 19.6,-50.906 21.5,-57.355" /><path
         id="path168"
         style="fill:#00c3df;fill-opacity:1;fill-rule:evenodd;stroke:none"
         d="m 11027.9,642.441 c -1.6,-2.273 1.6,-0.808 -2.9,-2.851 l -1.2,2.207 c -1.6,15.484 -12.4,36.922 -26.2,38.769 -20.5,2.735 -29.8,-17.312 -27.9,-37.234 3.1,-32.98 29.6,-67.824 46.8,-83.144 12.4,4.265 34.8,18.492 46.4,26.726 59.4,42.266 40.3,79.727 13,80.856 -18.5,0.761 -38.9,-16.563 -48,-25.329" /><path
         id="path170"
         style="fill:#888888;fill-opacity:1;fill-rule:evenodd;stroke:none"
         d="m 11027.9,642.441 -4.1,-0.644 1.2,-2.207 c 4.5,2.043 1.3,0.578 2.9,2.851" /><path
         id="path172"
         style="fill:#00cecb;fill-opacity:1;fill-rule:evenodd;stroke:none"
         d="m 6795.13,1002.43 c 60.4,14.11 112,-28.801 122.06,-79.016 12.53,-62.539 -30.16,-111.598 -79.41,-122.16 -128.28,-27.512 -179.27,169.266 -42.65,201.176 z m 147.05,-434.696 c 47.42,26.27 73.84,-42.164 37.73,-66.363 -29.66,-19.883 -70.75,8.77 -57.34,47.68 6.18,17.937 9.35,13 19.61,18.683 z m 109.5,-77.132 c -8.77,15.125 -8.91,5.23 -12.61,25.113 l 21.56,12.051 c -0.1,24.726 -4.02,14.836 -20.74,27 2.53,18.683 2.59,8.812 11.24,23.398 l -8.58,15.559 -24.87,-1.832 -3.27,28.8 c -24.08,11.446 -8.82,2.895 -35.09,-6.988 l -12.27,22.176 -18.41,0.019 -7.96,-21.964 c -19.11,3.605 -9.31,2.531 -23.38,12.992 l -17.12,-8.379 1.23,-24.766 c -13.81,-4.383 -10.27,-2.648 -24.36,0.746 l -9.47,-17.265 c 6.38,-13.129 7.85,-8.278 12.74,-22.305 -8.73,-6.703 2.1,0.918 -10.64,-5.984 -1.12,-0.606 -5.28,-2.727 -6.12,-3.215 -0.66,-0.387 -2.33,-3.024 -2.81,-2.141 -0.48,0.903 -1.82,-1.562 -2.72,-2.355 0,-24.375 9.99,-18.582 22.29,-27.051 -5.41,-14.164 -6.64,-8.602 -13.28,-22.895 l 10.39,-16.355 c 23.09,5.562 18.8,1.934 25.98,0.195 l -3.75,-23.656 17.89,-8.391 c 13.83,10.321 3.66,8.723 24.15,12.457 l 6.23,-22.285 h 19.12 c 0.69,0.907 1.64,2.145 2.02,2.77 l 4.9,8.808 c 2.6,4.621 3.28,5.887 6.58,10.102 16.5,-5.809 6.62,-6.508 22.29,-11.379 9.44,5.188 11.96,4.719 13.41,12.793 4.19,23.266 -1.53,-15.879 0.66,8.051 0.46,5.031 -0.92,2.488 0.78,13.961 l 24.23,-3.004 z m 133.7,221.679 c 62.39,24.977 103.47,-73.691 35.6,-100.965 -42.08,-16.91 -91.84,24.973 -67.38,76.235 9.18,19.254 11.1,16.453 31.78,24.73 z m -133.36,-29.386 c 0,-53.649 -0.01,-38.223 21.53,-48.618 36.74,-17.742 15.29,-42.047 9.92,-67.183 l 21.07,-23.34 c 29.39,3.793 18.21,12.488 52.07,9.988 20.14,-18.004 17.08,-31.984 31.08,-40.711 1.17,-0.336 28.87,-5.328 37.34,8.828 16.44,27.5 5.95,43.614 66.91,20.868 l 28.44,29.015 c -9.34,23.504 -29.65,57.629 29.93,68.379 0.15,54.715 2.4,37.328 -22.25,50.543 -30.97,16.602 -17.24,32.578 -7.04,63.356 l -24.04,26.769 c -30.96,-7.324 -57.26,-33.473 -74.37,30.176 l -35.06,0.531 c -26.76,-7.406 0.52,-65.18 -77.99,-29.469 l -26.53,-29.261 c 19.83,-43.977 12.76,-58 -31.01,-69.871 z m -410.52,443.895 -48.29,-49.38 c 10.9,-56.29 69.93,-93.992 -56.45,-137.355 l -0.94,-75.582 c 30.62,-11.903 57.67,-15.676 72.94,-42.621 19.19,-33.864 -7.11,-62.731 -16.17,-91.59 l 50.63,-53.207 c 32.85,10.629 102.11,71.586 134.3,-55.391 h 77.03 c 8.39,32.59 20.61,60.789 44.49,73.191 34.87,18.114 64.18,-8.914 90.91,-18.187 l 51.57,52.371 c -8.84,31.387 -35.83,52.379 -18.57,89.059 13.76,29.234 42.14,35.941 74.87,45.613 l -1.04,76.75 c -127.61,38.312 -65.89,86.559 -56.18,138.229 l -49.62,47.61 c -33.51,-9.9 -108.28,-69.57 -135,55.89 l -78.8,-0.03 c -26,-126.12 -104.92,-64.78 -135.68,-55.37" /><path
         id="path174"
         style="fill:#e53789;fill-opacity:1;fill-rule:evenodd;stroke:none"
         d="m 2942.13,678.102 c 1.84,1.726 4.76,6.636 5.67,5.027 0.87,-1.547 4.13,3.734 5.28,4.941 39.08,41.442 6.26,35.399 68.09,60.024 l 13.72,-79.356 c -50.46,-21.414 -29.38,28.403 -92.76,9.364 z m 119.79,-96.227 c -54.62,-3.285 -82.55,7.492 -107.39,47.285 -26.39,-8.711 -57.9,-19.125 -97.26,-12.121 -43.43,82.656 12.9,147.211 -2.86,185.445 -0.03,0.075 -63.84,97.504 34.4,102.25 16.31,0.782 14.45,1.239 29.59,-3.742 42.85,-14.09 37.92,-84.945 28.96,-114.316 -41.01,-19.641 -19.05,2.586 -40.75,-5.93 17.07,-21.086 13.23,-30.207 23.17,-49.695 33.68,28.48 15.46,30.84 34.45,72.738 21.91,-23.668 14.78,-64.828 -6.75,-94.039 -30.12,-40.895 -53.77,-17.91 -76.6,10.594 12.63,-25.336 17.67,-35.098 53.31,-39.395 l -31.46,-25.109 c 35.61,2.094 64.03,18.086 94.21,-7.328 34.62,-29.164 14.02,-43.125 79.47,-46.672 z m 0,0 c 66.31,28.316 66.5,91.648 64.98,172.922 -0.14,7.543 -1.59,35.32 -2.98,41.625 -3.89,17.637 2.23,-2.297 -4.64,16.058 -6.23,16.7 -4.99,13.079 -12.17,22.442 -0.89,-59.672 19.85,-295.598 -79.37,-204.777 8.79,25.48 18.6,18.589 32.98,35.847 -34.09,77.856 -62.01,227.031 -0.07,288.184 -21.08,18.09 -12.73,17.312 -27.95,71.524 176.01,-56.098 112.06,-189.395 94.45,-339.528 -8.44,-72.043 133.31,-299.602 -167.92,-266.141 -103.69,11.516 -169.33,45.696 -252.73,80.446 39.25,-40.848 79.52,-54.5 131.59,-83.02 -63.88,7.836 -215.32,90.59 -188.8,149.809 55.5,18.785 269.1,-10.844 321.74,-31.078 34.9,-5.391 -14.44,4.402 34.01,19.281 33.08,10.164 35.18,2.086 56.88,26.406 z m -182.61,504.195 c 38.32,-14.8 98.23,-27.33 124.12,-50.79 l -16.02,-23.95 c -30.09,-5.85 -46.93,0.77 -72.32,17.87 -21.97,14.8 -24.1,29.47 -35.78,56.87 z m 132.97,-68.3 c 45.35,-64.278 -0.39,-122 -41.25,-148.864 -6.15,10.571 -37.08,101.211 -130.8,49.215 -38.67,-21.453 -40.33,-64.629 -20.85,-99.473 9.4,-16.789 -0.21,-0.796 10.69,-15.609 1.16,-1.578 2.89,-3.684 3.97,-5.09 l 8.28,-10.16 c -20.09,-46.711 -59.19,-187.238 29.25,-186.516 16.63,0.137 87.9,30.957 120.13,-30.605 -61.93,-7.773 -133.5,7.398 -185.13,26.008 -8.04,24.847 -12.75,31.336 1.5,57.769 -43.76,-13.3 -26.36,-31.382 -35.03,-57.324 -56.97,-2.894 -88.53,0.859 -140.32,-14.203 -34.52,-119.051 127.66,-178.332 235.45,-193.668 136.25,-19.395 307.62,-32.437 307.33,124.961 -0.16,83.144 -43.27,93.871 -25.57,185.691 22.88,118.629 75.3,291.192 -23.49,350.268 -62.58,37.44 -118.2,27.36 -179.45,50.61 51.29,1.33 102.35,-6.3 149.9,-22.45 67.35,-22.88 62.03,-39.53 96.85,-86.318 -5.1,135.858 -111.54,119.188 -224.17,139.028 l 121.55,0.89 c -1.58,154.85 -303.41,187.46 -260.15,-13.01 8.96,-41.49 22.25,-35.26 42.21,-66.35 17.75,-27.67 57.96,-71.406 104.33,-59.625 19.88,5.059 21.04,14.575 34.77,24.825" /><path
         id="path176"
         style="fill:#ff93d3;fill-opacity:1;fill-rule:evenodd;stroke:none"
         d="m 12699.1,619.957 c -36.4,5.258 -72.4,14.34 -99.7,-14.289 -23.9,-25.07 -28.2,-74.082 -4.4,-102.383 24.2,-28.699 83,-31.789 111.1,-4.195 32.7,32.168 6.4,79 8.9,115.449 31.1,9.324 35.2,6.223 68.1,6.914 99.2,2.07 15.6,-16.672 34.2,-91.39 9.9,-40.129 49.8,-59.141 96,-44.84 56.9,17.601 89.4,146.808 -57.8,140.976 29.3,29.457 132.1,74.891 145.8,198.379 -15.2,10.574 4.1,0.047 -22.9,12.328 l -14.1,5.778 c -1.4,0.586 -4.6,1.437 -6.7,2.5 20.6,19.957 63.9,64.062 86.6,78.414 69.4,43.769 95.1,-28.672 108.2,59.199 -229.4,7.387 -96.3,-181.211 -384.5,-142.266 l -2,210.259 c -183.8,-18.06 -268.7,-198.489 -170.2,-340.622 35.3,-50.824 86.8,-59.141 103.4,-90.211" /><path
         id="path178"
         style="fill:#0fd420;fill-opacity:1;fill-rule:evenodd;stroke:none"
         d="m 5144.2,842.691 58.73,-1.425 c 18.18,117.922 67.94,115.355 118.27,177.724 68.76,85.2 13.43,305.28 55.92,365.76 l -166.16,89.22 c 18.36,-24.94 85.05,-203.41 93.85,-242.08 53.93,-236.675 -120.26,-179.52 -160.61,-389.199 z m 147.59,-271.125 c 54.48,6.157 25.39,15.262 70.91,36.395 41.06,19.062 46.25,1.176 60.59,42.426 -50.71,8.789 -77.55,-11.926 -123.17,16.91 -63.23,39.98 17.72,22.105 -96.88,61.418 10.99,-106.094 14.21,-34.336 60.52,-115.824 17.15,-30.196 6.49,-20.297 28.03,-41.325 z m -278.29,253.364 -67.4,48.043 c -109.35,66.066 -202.82,-86.336 13.2,-130.2 184.1,-37.386 109.39,116.438 168.44,194.766 24.54,32.547 43.46,40.801 -7.1,79.091 -88.82,-22.939 0.13,-52.2 -107.14,-191.7 z m 178.16,-74.825 c 13.7,-7.539 139.91,-50.98 157.02,-52.234 1.84,0.367 135.18,76.942 26.8,139.961 -17.04,-22.211 -20.86,-54.059 -38.32,-80.57 -65.45,7.449 -112.52,86.886 -182.37,67.418 -52.13,-14.535 -80.41,-113.739 -107.81,-166.477 l 17.2,77.555 c -77.62,-25.285 -229.18,5.097 -244.54,77.949 -10.14,48.168 28.23,90.77 73.63,91.207 56.78,0.551 78.18,-44.797 124.36,-60.082 -15.24,42.883 -39.25,47.09 -91.22,62.313 l 25.19,5.82 c 24.08,6.195 34.69,4.281 62.48,43.422 39.94,56.243 22.81,48.843 15.46,94.023 -7.06,43.28 6.66,84.73 -19.16,123.88 -71.2,107.91 -215.88,100.33 -276.2,4.85 -49.87,-78.91 -9.35,-147.26 14.83,-227.847 25.33,-84.402 4.49,-154.43 36.21,-238.707 29.33,-77.969 70.42,-124.504 125.3,-159.301 60,-38.031 163.25,-59.164 225.59,-13.156 58.64,43.273 57.19,124.144 55.55,209.976" /><path
         id="path180"
         style="fill:#f05241;fill-opacity:1;fill-rule:evenodd;stroke:none"
         d="M 733.957,1526.92 C 1126.04,1559.48 1455.95,1248.49 1478.28,886.316 1503.15,482.902 1203.98,159.551 837.238,136.941 721.09,129.781 626.039,145.785 530.891,182.406 451.93,212.797 367.137,264.996 316.266,315.055 191.086,438.242 98.1602,586.414 87.9297,780.938 66.3867,1190.5 358.789,1495.76 733.957,1526.92 Z m 64.113,48.46 c -14.547,-0.04 -16.863,0.52 -31.898,-0.22 -183.078,2.2 -394.891,-102.31 -512.617,-224.14 C -208.027,873.352 134.633,90.0039 782.305,90.5391 1326.84,90.9844 1671.98,645.5 1463.59,1128.73 c -34.21,79.33 -89.81,163.75 -148.71,221.59 -63.8,62.62 -123.97,108.16 -216.49,153.68 -68.14,33.52 -202.156,72.32 -300.32,71.38" /><path
         id="path182"
         style="fill:#e53789;fill-opacity:1;fill-rule:evenodd;stroke:none"
         d="m 2860.97,1533.96 c 392.08,32.56 721.99,-278.43 744.32,-640.601 24.87,-403.414 -274.3,-726.761 -641.04,-749.371 -116.15,-7.16 -211.2,8.844 -306.35,45.465 -78.95,30.387 -163.75,82.59 -214.62,132.645 -125.18,123.187 -218.1,271.359 -228.34,465.882 -21.54,409.57 270.86,714.82 646.03,745.98 z m 64.11,48.46 c -14.54,-0.03 -16.86,0.52 -31.9,-0.22 -183.07,2.2 -394.89,-102.31 -512.61,-224.13 C 1918.99,880.398 2261.64,97.0469 2909.32,97.582 3453.85,98.0273 3799,652.547 3590.6,1135.78 c -34.21,79.33 -89.8,163.75 -148.71,221.58 -63.79,62.62 -123.96,108.17 -216.48,153.69 -68.14,33.52 -202.16,72.32 -300.33,71.37" /><path
         id="path184"
         style="fill:#0fd420;fill-opacity:1;fill-rule:evenodd;stroke:none"
         d="m 4918.98,1502.78 c 392.08,32.56 722,-278.43 744.32,-640.6 24.88,-403.41 -274.3,-726.762 -641.03,-749.371 -116.16,-7.161 -211.2,8.843 -306.36,45.464 -78.95,30.387 -163.75,82.59 -214.62,132.649 -125.18,123.187 -218.1,271.355 -228.34,465.883 -21.54,409.565 270.87,714.825 646.03,745.975 z m 64.11,48.46 c -14.54,-0.03 -16.86,0.52 -31.89,-0.22 -183.08,2.2 -394.9,-102.31 -512.62,-224.13 C 3977,849.219 4319.66,65.8711 4967.33,66.4063 c 544.53,0.4453 889.68,554.9607 681.28,1038.1937 -34.21,79.33 -89.8,163.75 -148.71,221.58 -63.79,62.63 -123.96,108.17 -216.48,153.69 -68.14,33.52 -202.16,72.32 -300.33,71.37" /><path
         id="path186"
         style="fill:#00cecb;fill-opacity:1;fill-rule:evenodd;stroke:none"
         d="m 6879,1484.73 c 392.08,32.56 721.99,-278.43 744.32,-640.597 24.87,-403.414 -274.3,-726.762 -641.04,-749.3713 -116.15,-7.1601 -211.2,8.8433 -306.35,45.4653 -78.96,30.386 -163.75,82.589 -214.63,132.644 -125.17,123.188 -218.1,271.359 -228.34,465.883 -21.53,409.566 270.87,714.816 646.04,745.976 z m 64.11,48.46 c -14.55,-0.03 -16.86,0.52 -31.9,-0.21 -183.08,2.2 -394.89,-102.31 -512.62,-224.14 C 5937.01,831.172 6279.67,47.8203 6927.34,48.3555 c 544.54,0.4453 889.68,554.9645 681.29,1038.1945 -34.22,79.33 -89.81,163.75 -148.72,221.59 -63.79,62.62 -123.96,108.16 -216.48,153.68 -68.14,33.52 -202.16,72.32 -300.32,71.37" /><path
         id="path188"
         style="fill:#006ece;fill-opacity:1;fill-rule:evenodd;stroke:none"
         d="m 8878.57,1445.37 c 392.09,32.56 722,-278.43 744.33,-640.6 24.87,-403.411 -274.31,-726.7622 -641.04,-749.3716 -116.15,-7.1601 -211.2,8.8438 -306.35,45.4646 -78.96,30.387 -163.75,82.59 -214.62,132.649 -125.19,123.187 -218.11,271.355 -228.34,465.883 -21.55,409.565 270.86,714.815 646.02,745.975 z m 64.12,48.46 c -14.55,-0.03 -16.86,0.52 -31.9,-0.22 -183.08,2.2 -394.89,-102.31 -512.61,-224.13 C 7936.59,791.809 8279.25,8.46094 8926.92,8.99609 9471.45,9.44141 9816.6,563.957 9608.2,1047.19 c -34.21,79.33 -89.8,163.75 -148.71,221.58 -63.79,62.63 -123.96,108.17 -216.48,153.69 -68.14,33.52 -202.16,72.32 -300.32,71.37" /><path
         id="path190"
         style="fill:#006ece;fill-opacity:1;fill-rule:evenodd;stroke:none"
         d="m 8633.95,461.91 c -25.32,0 -38.73,13.414 -38.73,38.719 0,8.926 26.45,31.621 34.02,37.469 31.08,24.004 120.39,108.828 146.96,139 l 71.5,71.472 c 26.38,28.52 1,11.723 39.43,32.055 11.49,-21.715 5.09,-15.316 26.8,-26.809 -5.3,-10.019 -4.66,-14.746 -12.47,-23.269 -6.89,-7.52 -12.01,-9.152 -19.58,-16.16 -47.81,-44.207 -177.93,-176.305 -210.47,-218.457 -5.85,-7.571 -28.54,-34.02 -37.46,-34.02 z m 312.75,524.246 c 0,-26.062 32.16,-46.867 65.53,2.977 8.91,-5.965 14.77,-8.785 20.86,-17.871 -6.79,-10.137 -26.82,-23.547 -26.82,-35.742 0,-15.231 9.47,-26.809 26.82,-26.809 17.5,0 25.97,18.273 38.72,26.809 10.69,-5.657 11.04,-4.7 17.87,-14.895 -9.05,-13.516 -26.81,-19.531 -26.81,-41.703 0,-10.383 13.45,-23.828 23.83,-23.828 19.64,0 29.14,18.394 41.7,26.808 l 15.57,-14.214 c -8.19,-11.899 -23.56,-19.977 -28.24,-32.985 -5.54,-15.437 6.09,-33.226 24.59,-33.226 21.86,0 23.52,21.953 41.7,26.812 2.91,-10.898 3.14,-6.246 8.93,-14.898 -12.5,-18.684 -29.78,-19.075 -29.78,-47.657 0,-9.847 13.87,-20.851 23.83,-20.851 18.69,0 27.1,16.055 38.72,23.828 1.35,-16.273 12.94,-15.809 -21.57,-49.918 L 9054.68,568.395 c -17.98,-17.977 -41.23,-44.399 -59.88,-59.27 l -91.88,-83.852 c -19.19,-16.328 -13.6,-30.496 -70.7,14.497 l -94.02,84.691 c 11.19,16.715 86.49,92.598 100.55,104.977 l 88.97,80.812 c 4.52,6.563 7.76,16.645 10.94,24.801 3.84,9.828 39.68,102.172 25.91,102.172 -10.16,0 -112.39,-36.918 -120.97,-42.856 -6.54,-4.527 -8.62,-10.625 -15.27,-17.496 -12.24,-12.656 -20.22,-22.91 -32.85,-35.652 l -31.22,-34.313 c -20.94,-20.922 -87.06,-90.027 -100.53,-99.043 -10.21,6.84 -50.64,56.02 -50.64,68.508 0,7.055 49.51,60.078 57.32,67.797 38.9,38.461 232.7,240.023 256.7,258.602 25.51,19.75 16.15,22.5 43.42,16.15 -6.38,-9.53 -23.83,-20.928 -23.83,-32.764 z M 8565.43,685.313 c 0,-38.032 45.85,-77.84 65.53,-107.239 l -38.03,-33.445 c -38.38,-37.848 -36.54,-57.672 -0.01,-93.953 12.09,-12.008 26.14,-22.324 44.42,-19.09 32.37,5.734 49.98,46.969 74.05,63.09 36.65,-24.547 156.07,-164.664 195.95,-127.528 13.15,12.247 20.05,21.825 35.12,33.465 l 337.85,347.25 c 0,21.246 -17.58,39.836 -26.81,53.614 44.58,29.851 25.64,62.554 2.98,62.554 -17.5,0 -25.16,-13.765 -35.74,-20.855 l -14.38,12.472 c 7.93,12.047 29.27,23.086 29.27,41.149 0,16.641 -14.06,27.387 -29.04,25.492 -14.18,-1.789 -23.04,-18.48 -33.51,-25.492 l -15.57,14.215 c 12.32,17.761 27.49,21.183 27.49,42.379 0,16.82 -10.84,23.828 -26.81,23.828 -17.51,0 -25.98,-18.27 -38.73,-26.805 l -17.31,15.473 c 6.19,9.496 21.8,18.347 24.59,30.804 3.16,14.069 -8.02,31.169 -25.15,31.169 -17.5,0 -25.98,-18.28 -38.72,-26.81 l -17.87,17.87 c 5.93,8.86 20.85,18.4 20.85,29.79 0,15.23 -9.46,26.81 -26.81,26.81 -17.09,0 -23.64,-15.73 -35.74,-23.83 -51.46,34.46 -42.94,28.02 -71.5,5.96 -28.74,-22.2 -109.35,-102.728 -140.71,-130.345 l -205.5,-211.52 c -8.35,-8.383 -20.16,-15.34 -20.16,-30.472" /><path
         id="path192"
         style="fill:#00c3df;fill-opacity:1;fill-rule:evenodd;stroke:none"
         d="m 10956.1,1494.14 c 392.1,32.56 722,-278.43 744.3,-640.605 24.9,-403.414 -274.3,-726.762 -641,-749.371 -116.2,-7.1601 -211.2,8.844 -306.4,45.465 -78.9,30.387 -163.7,82.59 -214.6,132.644 -125.2,123.192 -218.1,271.36 -228.3,465.883 -21.6,409.564 270.8,714.824 646,745.984 z m 64.1,48.45 c -14.5,-0.03 -16.8,0.53 -31.9,-0.21 -183,2.2 -394.9,-102.31 -512.6,-224.13 -461.6,-477.676 -118.9,-1261.0273 528.8,-1260.4922 544.5,0.4453 889.6,554.9652 681.2,1038.1922 -34.2,79.33 -89.8,163.76 -148.7,221.59 -63.8,62.62 -123.9,108.17 -216.4,153.68 -68.2,33.53 -202.2,72.32 -300.4,71.37" /><path
         id="path194"
         style="fill:#ff93d3;fill-opacity:1;fill-rule:evenodd;stroke:none"
         d="m 12738.5,1472.39 c 392.1,32.56 722,-278.43 744.4,-640.601 24.8,-403.414 -274.3,-726.766 -641.1,-749.3749 -116.1,-7.1602 -211.2,8.8437 -306.3,45.4649 -79,30.391 -163.8,82.59 -214.6,132.648 -125.2,123.188 -218.2,271.36 -228.4,465.883 -21.5,409.57 270.9,714.82 646,745.98 z m 64.2,48.46 c -14.6,-0.03 -16.9,0.52 -31.9,-0.22 -183.1,2.2 -394.9,-102.31 -512.7,-224.13 -461.5,-477.676 -118.9,-1261.0234 528.8,-1260.4883 544.5,0.4453 889.7,554.9613 681.3,1038.1983 -34.2,79.33 -89.8,163.75 -148.7,221.58 -63.8,62.62 -124,108.17 -216.5,153.68 -68.2,33.53 -202.2,72.32 -300.3,71.38" /></g></g></svg>