<?xml version="1.0" encoding="UTF-8" standalone="no"?>
<svg
   xmlns:dc="http://purl.org/dc/elements/1.1/"
   xmlns:cc="http://creativecommons.org/ns#"
   xmlns:rdf="http://www.w3.org/1999/02/22-rdf-syntax-ns#"
   xmlns:svg="http://www.w3.org/2000/svg"
   xmlns="http://www.w3.org/2000/svg"
   viewBox="0 0 796 1125.3333"
   height="1125.3333"
   width="796"
   xml:space="preserve"
   id="svg2"
   version="1.1"><metadata
     id="metadata8"><rdf:RDF><cc:Work
         rdf:about=""><dc:format>image/svg+xml</dc:format><dc:type
           rdf:resource="http://purl.org/dc/dcmitype/StillImage" /></cc:Work></rdf:RDF></metadata><defs
     id="defs6" /><g
     transform="matrix(1.3333333,0,0,-1.3333333,0,1125.3333)"
     id="g10"><g
       transform="scale(0.1)"
       id="g12"><path
         id="path14"
         style="fill:none;stroke:#231f20;stroke-width:5.66930008;stroke-linecap:butt;stroke-linejoin:miter;stroke-miterlimit:22.92560005;stroke-dasharray:none;stroke-opacity:1"
         d="M 10,10 H 5962.76 V 8428.9 H 10 Z" /><path
         id="path16"
         style="fill:#b8d6ec;fill-opacity:1;fill-rule:evenodd;stroke:none"
         d="m 1968.73,7538.29 h 29.37 c 22.51,0 27.58,-19.56 13.36,-25.84 26.22,-17.65 7.33,-35.48 -42.73,-30.84 z m -37,-88.52 h 119.83 l 0.49,120.3 h -120.78 l 0.46,-120.3" /><path
         id="path18"
         style="fill:#b8d6ec;fill-opacity:1;fill-rule:evenodd;stroke:none"
         d="m 1882.15,7525.78 c 3.35,-11.06 5.64,-24.8 -3.09,-34.79 -13.92,-18.86 -42.77,-18.34 -54.48,3.15 -5.45,10.76 -3.84,19.58 -0.94,31.62 l -31.82,0.02 -0.12,-76.11 h 121.06 l -0.69,76.11 h -29.92" /><path
         id="path20"
         style="fill:#b8d6ec;fill-opacity:1;fill-rule:evenodd;stroke:none"
         d="m 1878.88,7559.24 h 22.53 l -0.02,-14.44 h -22.43 z m -87.16,-28.94 v 0 c 7.8,0 29.86,-1.22 35.81,0.8 7.92,2.69 8.06,11.09 25.66,10.83 15.02,-0.22 19.05,-8.57 25.72,-10.81 6.97,-2.33 25.39,-0.82 33.8,-0.82 l -0.22,40.35 h -120.77 v -40.35" /><path
         id="path22"
         style="fill:#b8d6ec;fill-opacity:1;fill-rule:evenodd;stroke:none"
         d="m 1830.44,7507.29 c 1.95,-27.52 48.29,-25.29 44.38,5.66 -3.46,27.23 -46.53,24.83 -44.38,-5.66" /><path
         id="path24"
         style="fill:#ffffff;fill-opacity:1;fill-rule:evenodd;stroke:none"
         d="m 1878.96,7544.8 h 22.43 l 0.02,14.44 h -22.53 l 0.08,-14.44" /><path
         id="path26"
         style="fill:#b8d6ec;fill-opacity:1;fill-rule:evenodd;stroke:none"
         d="m 1986.51,7493.84 c 6.06,0.32 16.13,1.53 16.37,5.57 0.23,4 -8.9,6.12 -16.45,6.13 0.03,-3.9 0.05,-7.81 0.08,-11.7" /><path
         id="path28"
         style="fill:#b8d6ec;fill-opacity:1;fill-rule:evenodd;stroke:none"
         d="m 1986.39,7516.04 c 20.71,0.06 21.01,10.72 0,10.78 v -10.78" /><path
         id="path30"
         style="fill:#b8d6ec;fill-opacity:1;fill-rule:evenodd;stroke:none"
         d="m 1236.74,7526.46 c -0.44,21.54 2.65,30.57 30.63,25.36 0.18,-3.9 -0.65,-9.5 -2.24,-12.46 -5.8,0.4 -7.4,2.16 -12.08,-1.34 l -0.24,-11.84 13.19,-0.04 -1.14,-12.11 -11.99,-0.4 -0.27,-39.36 -16.04,-0.05 -0.15,39.41 -7.97,0.27 0.32,12.3 z m -48.82,-75.49 v 0 l 120.08,-0.08 0.02,119.9 -119.85,0.19 -0.25,-120.01" /><path
         id="path32"
         style="fill:#b8d6ec;fill-opacity:1;fill-rule:evenodd;stroke:none"
         d="m 1693.18,7531.18 c 6.16,1.83 9.43,2.97 12.37,7.49 9.18,14.08 -3.55,13.28 16.1,13.54 l 0.14,-18.12 18.32,-0.04 -0.2,-14.34 h -18.1 c 0.1,-32.99 -4.86,-39 21.44,-30.94 l -0.01,-12.66 c -12.6,-3.84 -25.83,-7.02 -35.36,2.72 -4.88,4.98 -3.72,10.4 -3.72,18.37 0,7.55 0.05,15.12 -0.04,22.66 l -10.88,0.07 z m -37.02,-79.21 v 0 l 119.3,0.01 0.34,119.74 -119.97,0.29 c -0.37,-31.17 0.51,-90.61 0.33,-120.04" /><path
         id="path34"
         style="fill:#b8d6ec;fill-opacity:1;fill-rule:evenodd;stroke:none"
         d="m 1588.42,7533.05 6.81,0.55 c -1.82,-2.89 -3,-3.8 -6.18,-5.83 -1.8,-15.52 -2.09,-27.53 -19.79,-39.2 -5.73,-3.78 -13.59,-7.8 -21.73,-8.49 -11.81,-1.02 -16.48,3.01 -24.37,6.1 2.96,2.45 5.36,0.99 10.64,2.92 3.52,1.3 5.86,3.24 9.06,4.47 -0.97,1.02 -0.2,0.42 -1.6,1.29 -3.79,2.34 -6.92,1.55 -11.13,8.82 1.5,1.48 2.03,1.27 5.11,1.56 -5.15,4.81 -10.64,4.79 -11.28,15.15 l 6.11,-1.49 c -0.2,1.21 -3.87,3.76 -5.22,8.64 -1.14,4.08 -0.13,8.4 1.12,11.76 5.28,-2.64 10.67,-14.6 32.17,-15.56 0.63,9.6 3.57,16.71 12.09,18.61 10.9,2.43 12.02,-4.61 16.57,-4.08 1.73,0.19 4.97,1.62 6.9,2.18 -1.39,-5.22 -2.62,-4.42 -5.28,-7.4 z m -91.76,-79.95 v 0 h 119.95 l 0.09,120.11 -119.74,-0.03 -0.3,-120.08" /><path
         id="path36"
         style="fill:#b8d6ec;fill-opacity:1;fill-rule:evenodd;stroke:none"
         d="m 1378.77,7494.55 c -0.23,8.02 -0.06,16.06 -0.07,24.08 -0.01,9.83 -2.44,28.57 4.11,31.85 2.58,1.29 6.46,1.41 9.03,0.2 6.57,-3.12 5.09,-10.68 5.92,-18.2 9.23,-1.44 23.92,1.44 31.81,-1.51 0.31,-2.07 1.25,-1.01 2.52,-4.03 0.8,-1.9 0.84,-4.12 0.43,-6.24 -2.27,-11.98 -17.84,-6.4 -35.06,-7.52 l 0.26,-15.63 c 5.92,-0.51 26.85,0.48 30.43,-1.11 6.53,-2.89 6.89,-16.73 -3.58,-17.49 -5.2,-0.37 -26.8,-0.49 -30.98,0.35 -8.93,1.8 -12.36,7.01 -14.82,15.25 z m 84.09,28.24 v 0 l 0.09,50.43 -120.09,-0.02 -0.15,-116.87 c 0.54,-3.88 -0.79,-1.53 1.34,-3.07 l 118.73,-0.17 0.08,69.7" /><path
         id="path38"
         style="fill:#fdfcfc;fill-opacity:1;fill-rule:evenodd;stroke:none"
         d="m 1588.42,7533.05 c 2.66,2.98 3.89,2.18 5.28,7.4 -1.93,-0.56 -5.17,-1.99 -6.9,-2.18 -4.55,-0.53 -5.67,6.51 -16.57,4.08 -8.52,-1.9 -11.46,-9.01 -12.09,-18.61 -21.5,0.96 -26.89,12.92 -32.17,15.56 -1.25,-3.36 -2.26,-7.68 -1.12,-11.76 1.35,-4.88 5.02,-7.43 5.22,-8.64 l -6.11,1.49 c 0.64,-10.36 6.13,-10.34 11.28,-15.15 -3.08,-0.29 -3.61,-0.08 -5.11,-1.56 4.21,-7.27 7.34,-6.48 11.13,-8.82 1.4,-0.87 0.63,-0.27 1.6,-1.29 -3.2,-1.23 -5.54,-3.17 -9.06,-4.47 -5.28,-1.93 -7.68,-0.47 -10.64,-2.92 7.89,-3.09 12.56,-7.12 24.37,-6.1 8.14,0.69 16,4.71 21.73,8.49 17.7,11.67 17.99,23.68 19.79,39.2 3.18,2.03 4.36,2.94 6.18,5.83 l -6.81,-0.55" /><path
         id="path40"
         style="fill:#fafbfc;fill-opacity:1;fill-rule:evenodd;stroke:none"
         d="m 1378.77,7494.55 c 2.46,-8.24 5.89,-13.45 14.82,-15.25 4.18,-0.84 25.78,-0.72 30.98,-0.35 10.47,0.76 10.11,14.6 3.58,17.49 -3.58,1.59 -24.51,0.6 -30.43,1.11 l -0.26,15.63 c 17.22,1.12 32.79,-4.46 35.06,7.52 0.41,2.12 0.37,4.34 -0.43,6.24 -1.27,3.02 -2.21,1.96 -2.52,4.03 -7.89,2.95 -22.58,0.07 -31.81,1.51 -0.83,7.52 0.65,15.08 -5.92,18.2 -2.57,1.21 -6.45,1.09 -9.03,-0.2 -6.55,-3.28 -4.12,-22.02 -4.11,-31.85 0.01,-8.02 -0.16,-16.06 0.07,-24.08" /><path
         id="path42"
         style="fill:#fdfcfc;fill-opacity:1;fill-rule:evenodd;stroke:none"
         d="m 1693.18,7531.18 0.06,-11.25 10.88,-0.07 c 0.09,-7.54 0.04,-15.11 0.04,-22.66 0,-7.97 -1.16,-13.39 3.72,-18.37 9.53,-9.74 22.76,-6.56 35.36,-2.72 l 0.01,12.66 c -26.3,-8.06 -21.34,-2.05 -21.44,30.94 h 18.1 l 0.2,14.34 -18.32,0.04 -0.14,18.12 c -19.65,-0.26 -6.92,0.54 -16.1,-13.54 -2.94,-4.52 -6.21,-5.66 -12.37,-7.49" /><path
         id="path44"
         style="fill:#ffffff;fill-opacity:1;fill-rule:evenodd;stroke:none"
         d="m 1236.74,7526.46 -7.98,-0.26 -0.32,-12.3 7.97,-0.27 0.15,-39.41 16.04,0.05 0.27,39.36 11.99,0.4 1.14,12.11 -13.19,0.04 0.24,11.84 c 4.68,3.5 6.28,1.74 12.08,1.34 1.59,2.96 2.42,8.56 2.24,12.46 -27.98,5.21 -31.07,-3.82 -30.63,-25.36" /><path
         id="path46"
         style="fill:#b8d6ec;fill-opacity:1;fill-rule:evenodd;stroke:none"
         d="m 2212.69,7520.09 0.08,50.44 -120.09,-0.03 -0.16,-116.87 c 0.55,-3.88 -0.78,-1.52 1.34,-3.07 l 118.75,-0.17 0.08,69.7" /><path
         id="path48"
         style="fill:#ffffff;fill-opacity:1;fill-rule:evenodd;stroke:none"
         d="m 2159.86,7476.67 c -0.71,-0.06 -4.47,-0.21 -4.72,0.16 -0.06,0.09 -0.33,33.06 -0.01,34.71 l 5.08,-0.04 0.06,-12.36 c 1.11,1.04 1.54,2.67 3,3.72 1.5,1.09 3.72,0.8 4.82,-0.46 1.75,-1.99 1.11,-8.97 1.11,-12.17 0,-3.21 0.48,-10.1 -0.94,-12.35 -0.78,-1.21 -2.62,-2.55 -4.63,-1.31 -1.43,0.88 -2.26,2.81 -2.59,3.18 -0.34,0.38 -0.05,0.13 -0.43,0.35 z m 22.35,4.99 0.31,2.44 c 0,0.78 -0.04,1.64 0.03,2.36 l 4.45,0.01 c 0,-1.93 -0.11,-3.34 -0.34,-5.13 0.03,-2.02 -2.36,-4.58 -4.24,-4.98 -2.89,-0.63 -5.89,0.07 -7.33,1.67 -1.73,1.91 -2.04,4.04 -2.08,7.29 -0.03,3.07 -0.04,6.23 0.03,9.29 0.07,3.04 0.5,5.55 2.21,7.12 1.67,1.52 4.52,2.07 7.21,1.2 2.21,-0.72 3.73,-2.52 4.2,-5.09 0.44,-2.39 0.56,-6.15 0.44,-8.73 l -8.83,-0.03 c -0.29,-0.95 -0.18,-6.92 0.03,-7.99 0.5,-2.48 3.55,-2.38 3.91,0.57 z m -38.2,-3.19 v 0 c -0.57,-0.84 -1.14,-1.86 -2.36,-2.18 -5.47,-1.46 -4.97,5.62 -5,8.5 -0.09,5.98 -0.14,12.3 0,18.3 h 5.12 c 0.12,-4 0.02,-8.14 0.02,-12.16 0,-2 0.02,-3.97 0.05,-5.97 0.02,-1.76 -0.12,-3.91 1.98,-3.84 2.07,0.06 1.82,2.26 1.84,4.02 0.05,5.95 -0.1,12.1 0.03,17.97 l 5.15,-0.02 -0.07,-26.47 -5.13,0.03 -0.04,1.48 z m -24.12,33.08 v 0 l 15.8,-0.05 -0.01,-5.48 -5.22,-0.01 -0.07,-29.36 -5.4,0.04 -0.04,29.32 -5.12,0.02 z m 73.45,-23.42 v 0 c 0.23,5.38 0.05,11.08 -0.23,16.52 -0.28,5.53 -0.95,8.36 -5.05,11.93 -3.79,3.3 -7.63,3.24 -13.75,3.37 -5.37,0.1 -10.97,0.36 -16.45,0.39 -8.51,0.07 -16.8,-0.08 -25.25,-0.32 -7.8,-0.23 -13.4,0.59 -18.3,-7.11 -2.28,-3.6 -2.06,-9.71 -2.13,-14.62 -0.1,-5.63 -0.04,-11.1 0.24,-16.67 0.16,-3.24 0.09,-4.49 1.31,-7.29 0.81,-1.86 2.39,-3.75 3.67,-4.75 4.46,-3.47 6.89,-3.26 13.64,-3.43 14.61,-0.37 27.44,-0.46 42.05,-0.04 2.59,0.07 5.54,0 8.05,0.3 4.75,0.58 8.27,3.78 10.12,6.89 2.39,4 1.85,9.53 2.08,14.83" /><path
         id="path50"
         style="fill:#ffffff;fill-opacity:1;fill-rule:evenodd;stroke:none"
         d="m 2168.71,7523.91 c 0.67,-0.01 0.99,-0.22 1.51,-0.45 l 0.15,-1.29 5.33,-0.07 0.05,25.29 c -1.15,0.07 -4.44,0.2 -5.36,-0.1 -0.21,-5.22 0.02,-12.05 -0.02,-17.63 -0.02,-1.95 0.04,-4.08 -1.99,-4.04 -1.95,0.04 -1.84,2.21 -1.92,3.86 -0.19,5.72 0.25,12.22 -0.05,17.89 -1,0.12 -4.49,0.2 -5.32,-0.08 l 0.04,-17.64 c 0.1,-2.63 -0.28,-5.9 1.64,-7.33 0.87,-0.65 2.28,-0.93 3.52,-0.56 1.28,0.37 1.64,1.22 2.42,2.15" /><path
         id="path52"
         style="fill:#ffffff;fill-opacity:1;fill-rule:evenodd;stroke:none"
         d="m 2147.89,7539.3 c 0.02,2.05 -0.24,5.04 1.9,5.1 2.21,0.07 1.96,-3.18 1.96,-5.1 v -10 c 0,-1.93 0.07,-4.89 -2.11,-4.65 -1.88,0.2 -1.75,3.14 -1.75,5.01 z m 0.4,8.08 v 0 c -6.49,-1.13 -5.78,-8.02 -5.75,-14.57 0.01,-2.96 -0.02,-6.65 1.43,-8.79 1.36,-2.02 4.42,-2.79 7.58,-2.27 6.19,1.03 5.57,8.4 5.57,14.56 0.01,3.07 0.03,6.41 -1.64,8.51 -1.38,1.73 -3.88,3.13 -7.19,2.56" /><path
         id="path54"
         style="fill:#ffffff;fill-opacity:1;fill-rule:evenodd;stroke:none"
         d="m 2136.57,7522.18 c 0.37,3.36 -0.23,12.8 0.15,14.57 0.7,3.25 4.93,18.4 4.91,19.63 l -3.83,0.03 -3.36,-13.76 c -1.44,3.13 -3.1,10.93 -4.4,13.69 l -3.83,0.07 c 0.02,-0.82 4.38,-15.43 4.97,-17.31 1.19,-3.82 0.81,-6.08 0.82,-10.49 0,-7.49 -0.56,-6.52 1.84,-6.5 0.9,0.01 1.85,-0.07 2.73,0.07" /><path
         id="path56"
         style="fill:#ffffff;fill-opacity:1;fill-rule:evenodd;stroke:none"
         d="m 2163.89,7483.22 c 0.41,2.03 0.21,7.44 0.18,9.81 -0.02,1.44 0.07,3.51 -0.85,4.32 -1.19,1.04 -2.59,0.22 -2.84,-1.26 -0.41,-2.35 -0.18,-7.25 -0.16,-9.89 0.01,-1.43 -0.06,-3.57 0.82,-4.35 1.3,-1.17 2.56,-0.06 2.85,1.37" /><path
         id="path58"
         style="fill:#ffffff;fill-opacity:1;fill-rule:evenodd;stroke:none"
         d="m 2178.17,7495.31 0.01,-3.3 3.78,0.01 c 0.05,1.62 0.25,5.49 -0.57,6.51 -0.66,0.81 -2.03,0.73 -2.7,-0.06 -0.64,-0.76 -0.52,-1.99 -0.52,-3.16" /><path
         id="path60"
         style="fill:#c1c1c1;fill-opacity:1;fill-rule:evenodd;stroke:none"
         d="m 988.77,7296.32 h -3.008 c -10.508,0 -21.012,10.08 -21.012,20.42 v 3.6 c 0,10.18 10.289,20.42 20.414,20.42 h 3.606 c 17.5,0 28.35,-22.86 14.84,-37.66 -3.14,-3.45 -9.567,-6.78 -14.84,-6.78 z m -46.235,24.63 v -4.21 c 0,-10.95 13.778,-31.8 18.965,-39.28 4.125,-5.95 8.148,-11.17 12.594,-16.82 1.617,-2.06 11.558,-14.68 13.469,-15.96 1.738,1.16 11.871,13.89 13.217,15.62 9.37,12 31.82,41.68 31.82,56.44 0,14.21 -3.49,21.76 -13.05,31.38 -6.39,6.41 -18.42,12.45 -28.378,12.45 -8.934,0 -14.731,0.04 -23.035,-3.99 -5.383,-2.61 -8.266,-4.14 -12.246,-8.16 -3.793,-3.83 -6.379,-6.29 -8.965,-11.45 -2.168,-4.32 -4.391,-9.86 -4.391,-16.02" /><path
         id="path62"
         style="fill:#83ca06;fill-opacity:1;fill-rule:evenodd;stroke:none"
         d="m 959.652,7030.91 h 132.883 v 132.879 H 959.652 Z" /><path
         id="path64"
         style="fill:#000000;fill-opacity:1;fill-rule:evenodd;stroke:none"
         d="m 985.633,7480.07 h -22.219 v 35.65 c 0,0.76 8.414,8.76 9.086,9.43 2.223,2.23 26.801,27.06 27.95,27.84 1.18,-0.79 30.64,-30.53 34.78,-34.67 0.51,-0.51 2.25,-1.89 2.25,-2.6 v -35.65 h -22.21 v 29.63 h -29.637 z m 74.067,32.79 v -1.73 c -0.11,-1.01 -0.39,-2.01 -0.84,-2.9 -0.52,-1.05 -0.64,-1.06 -1.41,-1.83 -1.09,-1.09 -2.63,-2.02 -4.69,-2.02 -5.42,0 -5.31,2.45 -7.87,4.16 v -36.1 h -88.878 v 36.1 c -1.117,-0.74 -1.774,-1.83 -2.844,-2.71 -2.523,-2.07 -7.129,-2.03 -9.719,0.57 -2.203,2.2 -2.254,3.56 -2.254,6.19 v 0.12 c 0,1.02 0.539,2.33 0.961,2.98 0.516,0.79 1.086,1.27 1.758,1.94 1.328,1.33 2.492,2.49 3.816,3.82 2.571,2.57 4.965,4.96 7.528,7.52 5.07,5.08 9.976,9.98 15.043,15.05 0.887,0.88 29.043,29.28 30.149,30.03 l 56.65,-56.53 c 0.67,-0.68 1.22,-1.14 1.73,-1.97 0.49,-0.8 0.77,-1.73 0.87,-2.69" /><path
         id="path66"
         style="fill:#ffffff;fill-opacity:1;fill-rule:evenodd;stroke:none"
         d="m 1015.28,7093.11 c 4.04,-2.71 4.48,-6.79 11.45,-6.79 5.41,0 7.06,4.27 10.18,6.36 3.93,-2.63 9.8,-10 12.39,-12.62 1.97,-1.99 6.38,-6 7.54,-7.73 h -61.485 c 1.317,1.97 12.015,12.24 15.155,15.37 1.69,1.69 3.48,3.48 4.77,5.41 z m 46.11,24.27 0.11,-40.81 c -1.44,0.96 -3.93,3.56 -5.19,4.98 -0.99,1.12 -1.2,1.63 -2.33,2.77 -3.04,3.02 -10.62,11.13 -12.84,12.6 z m -70.281,-40.39 v 40.71 l 19.931,-20.35 -9.65,-10.28 c -2.472,-2.48 -7.855,-8.46 -10.281,-10.08 z m 4.246,45.37 h 61.905 c -1.28,-1.91 -22.24,-22.86 -25.97,-26.6 -4,-4.02 -5.65,-4.35 -9.75,-0.22 z m -10.605,5.09 v -61.48 h 82.69 v 62.75 h -81.417 c -0.98,0 -1.273,-0.29 -1.273,-1.27" /><path
         id="path68"
         style="fill:#ffffff;fill-opacity:1;fill-rule:evenodd;stroke:none"
         d="m 1059.54,7089.13 c 10.11,0 18.31,-8.2 18.31,-18.31 0,-10.11 -8.2,-18.31 -18.31,-18.31 -10.11,0 -18.31,8.2 -18.31,18.31 0,10.11 8.2,18.31 18.31,18.31" /><path
         id="path70"
         style="fill:none;stroke:#83ca06;stroke-width:2.83459997;stroke-linecap:butt;stroke-linejoin:miter;stroke-miterlimit:22.92560005;stroke-dasharray:none;stroke-opacity:1"
         d="m 1059.54,7089.13 c 10.11,0 18.31,-8.2 18.31,-18.31 0,-10.11 -8.2,-18.31 -18.31,-18.31 -10.11,0 -18.31,8.2 -18.31,18.31 0,10.11 8.2,18.31 18.31,18.31 z" /><path
         id="path72"
         style="fill:#83ca06;fill-opacity:1;fill-rule:nonzero;stroke:none"
         d="m 1062.29,7060.68 h -3.8 v 14.39 c -1.39,-1.3 -3.03,-2.27 -4.92,-2.89 v 3.46 c 1,0.33 2.08,0.94 3.24,1.85 1.16,0.91 1.96,1.97 2.39,3.18 h 3.09 v -19.99" /><path
         id="path74"
         style="fill:#55c49c;fill-opacity:1;fill-rule:evenodd;stroke:none"
         d="m 959.652,6888.21 h 132.883 v 132.879 H 959.652 Z" /><path
         id="path76"
         style="fill:#ffffff;fill-opacity:1;fill-rule:evenodd;stroke:none"
         d="m 985.848,6956.6 v -3.01 c 0,-5.34 1.925,-11.95 3.742,-15.56 0.301,-0.59 0.5,-0.99 0.797,-1.58 l 4.203,-6.56 c 1.332,-1.55 3.117,-3.8 4.711,-4.94 1.439,-1.04 2.309,-2.07 4.809,-3.74 2.48,-1.66 5.19,-3.01 8,-4.04 3.76,-1.39 7.73,-2.51 12.04,-2.51 l -4.47,4.39 c -2.36,2.36 -1.81,0.42 0.74,6.78 l 3.89,8.77 c -0.77,0.52 -6.46,5.22 -6.65,5.22 -0.94,0 -3.42,-1.06 -4.49,-1.36 -3.15,-0.87 -6.04,-1.91 -9.1,-2.93 -0.82,-0.28 -3.91,-1.4 -4.613,-1.4 -0.641,0 -3.402,5.07 -3.898,6.06 -0.43,0.85 -0.688,1.52 -1.051,2.44 -3.16,7.78 -3.02,16.25 -0.332,24.16 0.406,1.19 0.879,2.45 1.515,3.55 0.153,0.27 0.243,0.41 0.391,0.72 0.684,1.37 1.488,2.57 2.332,3.84 0.301,0.45 0.539,0.8 0.859,1.2 0.176,0.23 0.247,0.25 0.442,0.51 1.105,1.48 2.635,3.18 4.115,4.27 0.29,0.22 0.33,0.3 0.58,0.54 l 2.33,1.78 c 0.4,0.28 0.8,0.53 1.24,0.82 7.31,4.89 17.66,6.6 26.47,4.4 4.23,-1.06 7.83,-2.74 11.36,-5.1 l 2.83,-2.23 c 0.32,-0.29 0.33,-0.21 0.64,-0.47 1.48,-1.24 2.86,-2.81 4.03,-4.36 4.21,-5.62 7.25,-12.66 7.25,-19.81 0,-5.29 -0.48,-9.27 -2.33,-13.82 -0.32,-0.81 -0.64,-1.63 -0.99,-2.33 -0.61,-1.22 -3.3,-6.17 -3.96,-6.17 -1.13,0 -16.89,5.69 -18.05,5.69 -0.26,0 -0.71,-0.35 -0.91,-0.52 -0.34,-0.28 -0.54,-0.42 -0.87,-0.7 -0.89,-0.78 -4.45,-3.3 -5.02,-4.16 0.86,-1.62 1.52,-3.44 2.32,-5.12 l 0.78,-1.75 c 0.28,-0.69 0.47,-1 0.72,-1.66 0.12,-0.32 0.23,-0.5 0.4,-0.86 0.69,-1.44 1.21,-2.97 1.95,-4.38 -0.79,-1.17 -2.59,-2.66 -3.68,-3.76 -0.75,-0.76 -1.73,-1.35 -2.33,-2.25 4.99,0 9.24,1.44 13.63,3.14 0.67,0.26 1.13,0.56 1.74,0.79 2.03,0.78 4.25,2.38 6.06,3.6 l 2.03,1.6 c 0.33,0.28 0.38,0.23 0.72,0.56 0.24,0.23 0.28,0.32 0.57,0.53 0.38,0.28 0.36,0.25 0.69,0.58 0.46,0.46 0.81,0.81 1.27,1.26 2.02,2.03 3.72,4.31 5.33,6.71 2.37,3.55 4.05,7.68 5.09,11.84 1.92,7.69 1.44,16.28 -1.18,23.7 -1.28,3.64 -3.6,8.06 -6.08,11.01 l -5.37,5.71 c -0.34,0.33 -0.4,0.28 -0.72,0.55 -0.46,0.4 -0.81,0.73 -1.28,1.1 -0.5,0.39 -0.95,0.69 -1.48,1.05 -3.36,2.24 -4.32,2.67 -7.89,4.3 -1.76,0.81 -3.65,1.35 -5.6,1.84 -5.94,1.48 -13.42,1.52 -19.37,0.03 -4.21,-1.05 -8.39,-2.67 -12,-5.1 l -1.52,-1.01 c -1.03,-0.68 -1.88,-1.31 -2.78,-2.13 l -3.743,-3.54 c -0.387,-0.52 -0.855,-0.81 -1.234,-1.3 l -3.106,-4.17 c -0.351,-0.54 -0.605,-1.04 -0.949,-1.59 -0.68,-1.09 -1.117,-1.99 -1.719,-3.18 -2.39,-4.74 -3.851,-10.52 -3.851,-15.94" /><path
         id="path78"
         style="fill:#ffffff;fill-opacity:1;fill-rule:evenodd;stroke:none"
         d="m 1012.28,6964.04 c 0,-2.09 -0.13,-4.41 0.38,-6.43 0.1,-0.4 0.28,-1.03 0.39,-1.35 0.16,-0.49 0.33,-0.71 0.52,-1.22 0.28,-0.72 0.83,-1.54 1.27,-2.2 0.84,-1.26 2.24,-2.65 3.49,-3.49 0.67,-0.44 1.46,-0.97 2.18,-1.3 9.42,-4.23 19.95,2.63 19.95,12.99 0,4.73 0.07,7 -2.53,10.92 -1.11,1.66 -1.48,1.76 -2.57,2.81 -0.7,0.66 -1.32,0.97 -2.06,1.43 -0.39,0.24 -0.67,0.41 -1.14,0.6 -2.63,1.06 -2.64,1 -5,1.17 -1.12,0.08 -0.25,0.16 -1.43,0.01 -0.3,-0.03 -0.65,0.01 -0.95,0 -2.68,-0.08 -6.39,-2.05 -8.35,-4 -2.48,-2.49 -4.15,-6.31 -4.15,-9.94" /><path
         id="path80"
         style="fill:#f67e00;fill-opacity:1;fill-rule:evenodd;stroke:none"
         d="m 959.652,6740.24 h 132.883 v 132.879 H 959.652 Z" /><path
         id="path82"
         style="fill:#ffffff;fill-opacity:1;fill-rule:evenodd;stroke:none"
         d="m 1026.76,6836.56 c 2.13,0.81 1.39,3.4 1.39,6.05 5.32,-0.23 10.1,-1.55 14.33,-3.5 3.9,-1.81 7.2,-4.36 10.13,-7.32 6.78,-6.85 9.99,-14.22 10.71,-24.36 -1.84,0 -5.94,0.65 -5.86,-1.39 0.07,-1.92 3.95,-1.3 5.63,-1.3 0.84,-3.94 -2.5,-15.19 -4.89,-16.75 -0.29,-1.89 -3.62,-5.84 -4.94,-7.25 -5.87,-6.23 -15.5,-11.08 -25.11,-11.17 0,2.13 0.23,4.05 -0.44,5.77 l -1.91,-0.21 c -0.54,-1.43 -0.34,-3.77 -0.34,-5.61 -15.28,0.73 -26.124,9.31 -31.983,21.34 -1.497,3.07 -3.606,10.04 -3.149,13.84 3.031,0.17 5.875,-1.04 5.664,2.15 -1.625,1.02 -3.441,0.4 -5.801,0.7 1.063,19.03 15.899,34.48 35.269,35.06 0,-1.25 -0.07,-2.72 -0.03,-3.94 0.06,-1.5 0.01,-1.83 1.33,-2.11 z m -3.58,8.6 c -20.59,-1.94 -37.844,-19.99 -35.5,-43.08 2.054,-20.32 20.09,-37.31 42.94,-35.11 20.45,1.98 37.34,20.19 35.24,42.78 -1.91,20.34 -19.99,37.53 -42.68,35.41" /><path
         id="path84"
         style="fill:none;stroke:#ffffff;stroke-width:2.16000009;stroke-linecap:butt;stroke-linejoin:miter;stroke-miterlimit:22.92560005;stroke-dasharray:none;stroke-opacity:1"
         d="m 1026.76,6836.56 c 2.13,0.81 1.39,3.4 1.39,6.05 5.32,-0.23 10.1,-1.55 14.33,-3.5 3.9,-1.81 7.2,-4.36 10.13,-7.32 6.78,-6.85 9.99,-14.22 10.71,-24.36 -1.84,0 -5.94,0.65 -5.86,-1.39 0.07,-1.92 3.95,-1.3 5.63,-1.3 0.84,-3.94 -2.5,-15.19 -4.89,-16.75 -0.29,-1.89 -3.62,-5.84 -4.94,-7.25 -5.87,-6.23 -15.5,-11.08 -25.11,-11.17 0,2.13 0.23,4.05 -0.44,5.77 l -1.91,-0.21 c -0.54,-1.43 -0.34,-3.77 -0.34,-5.61 -15.28,0.73 -26.124,9.31 -31.983,21.34 -1.497,3.07 -3.606,10.04 -3.149,13.84 3.031,0.17 5.875,-1.04 5.664,2.15 -1.625,1.02 -3.441,0.4 -5.801,0.7 1.063,19.03 15.899,34.48 35.269,35.06 0,-1.25 -0.07,-2.72 -0.03,-3.94 0.06,-1.5 0.01,-1.83 1.33,-2.11 z m -3.58,8.6 c -20.59,-1.94 -37.844,-19.99 -35.5,-43.08 2.054,-20.32 20.09,-37.31 42.94,-35.11 20.45,1.98 37.34,20.19 35.24,42.78 -1.91,20.34 -19.99,37.53 -42.68,35.41 z" /><path
         id="path86"
         style="fill:#ffffff;fill-opacity:1;fill-rule:evenodd;stroke:none"
         d="m 1051.23,6792.38 c 0.37,1.86 -0.39,2.07 -1.82,2.8 -1.16,0.61 -1.93,1.03 -3.13,1.7 l -18.13,10.08 c 0,3.04 0,6.06 0,9.1 0,6.54 0.84,7.76 -2.04,7.89 -1.17,-1.94 -0.65,-5.9 -0.65,-8.63 0,-3.02 -0.22,-6.96 0.09,-9.86 0.27,-0.59 16.33,-9.32 18.97,-10.71 1.72,-0.91 4.81,-3.46 6.71,-2.37" /><path
         id="path88"
         style="fill:none;stroke:#ffffff;stroke-width:2.16000009;stroke-linecap:butt;stroke-linejoin:miter;stroke-miterlimit:22.92560005;stroke-dasharray:none;stroke-opacity:1"
         d="m 1051.23,6792.38 c 0.37,1.86 -0.39,2.07 -1.82,2.8 -1.16,0.61 -1.93,1.03 -3.13,1.7 l -18.13,10.08 c 0,3.04 0,6.06 0,9.1 0,6.54 0.84,7.76 -2.04,7.89 -1.17,-1.94 -0.65,-5.9 -0.65,-8.63 0,-3.02 -0.22,-6.96 0.09,-9.86 0.27,-0.59 16.33,-9.32 18.97,-10.71 1.72,-0.91 4.81,-3.46 6.71,-2.37 z" /><path
         id="path90"
         style="fill:#77c7f7;fill-opacity:1;fill-rule:evenodd;stroke:none"
         d="m 959.652,6594.52 h 132.883 v 132.883 H 959.652 Z" /><path
         id="path92"
         style="fill:#ffffff;fill-opacity:1;fill-rule:evenodd;stroke:none"
         d="m 1009.4,6674.95 c -6.77,-8.87 -3.96,-18.89 2.56,-25.28 7.63,-6.02 19.49,-4.47 25.05,2.76 0.44,0.58 0.74,0.64 1.13,1.2 1.5,2.1 2.43,5.11 2.83,7.81 2.81,19.29 -19.85,26.17 -31.57,13.51 z m 32.81,-23.3 18.4,-18.69 c -0.73,-1.03 -2.28,-1.92 -3.29,-3.19 -0.36,-0.45 -0.25,-0.45 -0.73,-0.92 -0.75,-0.72 -1.95,-1.9 -2.81,-2.24 -0.14,0.17 -0.24,0.27 -0.42,0.46 l -17.84,17.79 c -2.31,-0.76 -4.05,-2.23 -7.26,-2.96 -6.52,-1.45 -15.29,0.36 -20.06,5.1 -10.137,10.06 -10.341,26.13 2.04,34.78 3.52,2.43 6.65,3.79 11.39,4.18 4.06,0.33 9.59,-0.92 12.85,-2.74 8.39,-4.71 12.65,-14.76 10.71,-24.17 -0.6,-2.89 -1.38,-4.97 -2.98,-7.4" /><path
         id="path94"
         style="fill:#b1e5f3;fill-opacity:1;fill-rule:evenodd;stroke:none"
         d="m 930.969,7819.08 h 301.629 v 165.523 H 930.969 Z" /><path
         id="path96"
         style="fill:#008bbd;fill-opacity:1;fill-rule:evenodd;stroke:none"
         d="m 1231.07,7819.09 h 357.145 v 166.855 H 1231.07 Z" /><path
         id="path98"
         style="fill:#00648e;fill-opacity:1;fill-rule:evenodd;stroke:none"
         d="m 1588.21,7819.09 h 211.379 v 166.855 H 1588.21 Z" /><path
         id="path100"
         style="fill:#dbf3fb;fill-opacity:1;fill-rule:evenodd;stroke:none"
         d="m 930.969,7902.52 h 300.102 v 83.4297 H 930.969 Z" /><path
         id="path102"
         style="fill:#00a9ce;fill-opacity:1;fill-rule:evenodd;stroke:none"
         d="m 1231.07,7902.52 h 357.145 v 83.4297 H 1231.07 Z" /><path
         id="path104"
         style="fill:#008caa;fill-opacity:1;fill-rule:evenodd;stroke:none"
         d="m 1588.26,7902.56 h 211.184 v 83.4297 H 1588.26 Z" /><path
         id="path106"
         style="fill:#00648e;fill-opacity:1;fill-rule:nonzero;stroke:none"
         d="m 932.184,7771.12 h 4.101 l 0.61,11.59 c 0.152,2.69 0.304,5.93 0.406,8.82 h 0.203 c 0.605,-2.28 1.672,-5.82 2.43,-8.15 l 4.355,-12.11 h 3.246 l 4.711,12.36 c 1.367,3.75 2.027,5.73 2.684,7.95 h 0.152 c 0.102,-2.99 0.305,-6.13 0.457,-8.76 l 0.555,-11.7 h 4.258 l -1.723,24.52 h -5.524 l -3.949,-10.69 c -0.965,-2.69 -2.332,-6.59 -2.89,-8.41 h -0.098 c -0.559,1.92 -1.621,4.91 -2.23,6.73 l -4.458,12.37 h -5.472 z m 86.836,11.45 c 0.04,0.45 0.14,1.16 0.14,2.07 0,4.51 -2.12,11.55 -10.12,11.55 -7.15,0 -11.505,-5.82 -11.505,-13.22 0,-7.4 4.505,-12.36 12.055,-12.36 3.9,0 6.59,0.81 8.16,1.52 l -0.76,3.19 c -1.67,-0.71 -3.6,-1.27 -6.79,-1.27 -4.46,0 -8.31,2.49 -8.41,8.52 z m -17.18,3.19 c 0.36,3.09 2.33,7.24 6.84,7.24 5.02,0 6.23,-4.41 6.18,-7.24 z m 58.82,9.88 v -6.39 c 0,-3.45 -0.46,-6.73 -1.43,-9.77 -0.55,-1.78 -1.36,-3.45 -2.43,-5.02 l -2.07,-0.05 0.2,-11.1 h 3.5 l 0.2,7.81 h 16.98 l 0.2,-7.81 h 3.5 l 0.26,11.1 -2.55,0.05 v 21.18 z m 3.95,-3.4 h 8.05 v -17.73 h -11.3 c 0.77,1.37 1.47,2.89 1.98,4.56 0.81,2.73 1.27,5.88 1.27,9.12 z m 53.34,3.4 v -24.52 h 5.12 c 2.63,4.3 5.32,9.01 7.65,12.81 1.41,2.48 2.48,4.46 4.05,7.6 h 0.15 c -0.2,-3.95 -0.3,-6.03 -0.3,-10.03 v -10.38 h 4.25 v 24.52 h -5.21 l -7.66,-12.67 c -1.62,-2.84 -2.48,-4.56 -3.95,-7.55 l -0.15,0.05 c 0.21,3.5 0.26,5.93 0.26,9.83 v 10.34 z m 61.25,0 v -24.52 h 4.4 v 11.09 h 11.66 v -11.09 h 4.4 v 24.52 h -4.4 v -9.88 h -11.66 v 9.88 z m 77.66,-20.27 c -1.27,-0.56 -2.94,-1.21 -5.47,-1.21 -4.87,0 -8.52,3.49 -8.52,9.16 0,5.12 3.04,9.27 8.67,9.27 2.43,0 4.1,-0.55 5.17,-1.16 l 1.01,3.45 c -1.22,0.6 -3.55,1.26 -6.18,1.26 -8.01,0 -13.17,-5.47 -13.17,-13.02 0,-7.49 4.81,-12.51 12.2,-12.51 3.3,0 5.88,0.81 7.05,1.42 z m 39.15,20.27 v -24.52 h 4.41 v 10.78 h 0.86 c 4.16,0 6.44,-1.82 8.11,-5.77 0.76,-2.03 1.62,-3.95 2.28,-5.01 h 4.66 c -1.12,1.97 -1.97,4.35 -2.63,5.97 -1.93,4.41 -4.31,7.05 -8.26,7.45 l 10.69,11.1 h -5.42 l -9.23,-10.64 h -1.06 v 10.64 z m 57.35,0 v -24.52 h 5.12 c 2.63,4.3 5.32,9.01 7.65,12.81 1.42,2.48 2.48,4.46 4.05,7.6 h 0.15 c -0.2,-3.95 -0.3,-6.03 -0.3,-10.03 v -10.38 h 4.26 v 24.52 h -5.22 l -7.65,-12.67 c -1.62,-2.84 -2.49,-4.56 -3.96,-7.55 l -0.15,0.05 c 0.21,3.5 0.26,5.93 0.26,9.83 v 10.34 z m 61.25,0 v -24.52 h 5.11 c 2.64,4.3 5.32,9.01 7.65,12.81 1.42,2.48 2.49,4.46 4.06,7.6 h 0.15 c -0.2,-3.95 -0.31,-6.03 -0.31,-10.03 v -10.38 h 4.26 v 24.52 h -5.22 l -7.65,-12.67 c -1.62,-2.84 -2.48,-4.56 -3.95,-7.55 l -0.15,0.05 c 0.2,3.5 0.25,5.93 0.25,9.83 v 10.34 z m 3.85,9.98 c 0.2,-3.5 1.92,-6.29 6.38,-6.29 3.9,0 6.54,2.13 6.74,6.29 h -3.19 c -0.26,-2.23 -1.27,-3.86 -3.45,-3.86 -2.03,0 -3.09,1.68 -3.24,3.86 z m 68.13,-9.98 v -24.52 h 4.41 v 20.97 h 11.4 v -20.97 h 4.46 v 24.52 z m 71.08,0.55 c -6.79,0 -12.16,-4.81 -12.16,-13.02 0,-7.75 5.12,-12.61 11.75,-12.61 5.93,0 12.21,3.95 12.21,13.02 0,7.49 -4.76,12.61 -11.8,12.61 z m -0.1,-3.34 c 5.26,0 7.34,-5.27 7.34,-9.43 0,-5.51 -3.19,-9.52 -7.45,-9.52 -4.35,0 -7.44,4.05 -7.44,9.42 0,4.66 2.28,9.53 7.55,9.53 z m 50.7,-31.77 h 4.41 v 13.33 h 0.11 c 1.46,-2.43 4.3,-3.85 7.54,-3.85 5.78,0 11.15,4.35 11.15,13.17 0,7.45 -4.46,12.46 -10.39,12.46 -4,0 -6.89,-1.77 -8.71,-4.76 h -0.1 l -0.21,4.21 h -4 c 0.1,-2.34 0.2,-4.87 0.2,-8.01 z m 4.41,24.22 c 0,0.61 0.15,1.27 0.31,1.83 0.86,3.34 3.7,5.51 6.73,5.51 4.72,0 7.3,-4.2 7.3,-9.11 0,-5.62 -2.73,-9.48 -7.45,-9.48 -3.19,0 -5.87,2.13 -6.69,5.22 -0.09,0.56 -0.2,1.17 -0.2,1.83 z m 54.05,10.34 v -3.55 h 7.66 v -20.97 h 4.4 v 20.97 h 7.65 v 3.55 z m 74.07,-24.52 c -0.3,1.67 -0.41,3.74 -0.41,5.87 v 9.17 c 0,4.91 -1.82,10.03 -9.32,10.03 -3.09,0 -6.03,-0.86 -8.05,-2.17 l 1.01,-2.95 c 1.72,1.12 4.1,1.83 6.38,1.83 5.02,0 5.57,-3.65 5.57,-5.67 v -0.51 c -9.46,0.05 -14.73,-3.19 -14.73,-9.12 0,-3.55 2.53,-7.04 7.49,-7.04 3.5,0 6.13,1.72 7.5,3.64 h 0.15 l 0.36,-3.08 z m -4.71,8.25 c 0,-0.45 -0.11,-0.96 -0.26,-1.42 -0.7,-2.07 -2.73,-4.1 -5.92,-4.1 -2.28,0 -4.21,1.37 -4.21,4.26 0,4.76 5.52,5.62 10.39,5.52 z m 46.35,16.27 v -9.88 c 0,-5.48 -0.26,-8.92 -2.53,-10.59 -0.61,-0.51 -1.57,-0.87 -2.43,-1.01 l 0.45,-3.5 c 2.28,0 3.65,0.56 4.86,1.52 3.19,2.08 3.85,6.69 3.85,13.58 v 6.38 h 8.41 v -21.02 h 4.41 v 24.52 h -17.02" /><path
         id="path108"
         style="fill:#008bc4;fill-opacity:1;fill-rule:nonzero;stroke:none"
         d="m 1042.41,7864.2 h 15.57 l -3.86,70.44 h -20.8 l -7.53,-23.41 c -2.3,-7.84 -4.7,-17.14 -6.69,-25.29 h -0.31 c -1.57,8.26 -3.76,17.03 -5.96,25.19 l -6.89,23.51 h -21.221 l -4.492,-70.44 h 14.734 l 1.254,26.76 c 0.523,8.77 0.836,19.64 1.258,29.15 h 0.207 c 1.672,-9.19 4.07,-19.23 6.37,-27.48 l 7.53,-27.28 h 12.44 l 8.57,27.49 c 2.71,8.25 5.64,18.29 7.84,27.27 h 0.31 c 0,-10.24 0.31,-20.48 0.63,-28.95 z m 71.8,42.75 h -25.92 v 14.63 h 27.49 v 13.06 h -43.48 v -70.44 h 44.94 v 13.07 h -28.95 v 16.71 h 25.92 z m 15.99,-42.44 c 3.97,-0.52 9.82,-1.04 18.08,-1.04 13.8,0 25.08,2.92 32.51,9.09 6.79,5.75 11.7,15.05 11.7,28.53 0,12.44 -4.6,21.11 -11.92,26.55 -6.79,5.12 -15.46,7.52 -28.84,7.52 -8.05,0 -15.68,-0.52 -21.53,-1.46 z m 15.99,57.8 c 1.36,0.31 3.66,0.63 7.21,0.63 13.69,0 22.26,-7.74 22.16,-22.37 0,-16.82 -9.41,-24.77 -23.83,-24.66 -1.99,0 -4.18,0 -5.54,0.31 v 46.09" /><path
         id="path110"
         style="fill:#ffffff;fill-opacity:1;fill-rule:nonzero;stroke:none"
         d="m 1289.98,7864.2 v 21.22 c 0,11.49 -0.21,21.42 -0.63,30.72 l 0.32,0.11 c 3.44,-8.26 8.04,-17.35 12.22,-24.88 l 15.06,-27.17 h 16.72 v 70.44 h -14.63 v -20.59 c 0,-10.55 0.3,-20.07 1.35,-29.37 h -0.31 c -3.13,7.95 -7.32,16.73 -11.5,24.14 l -14.63,25.82 h -18.6 v -70.44 z m 101.48,42.75 h -25.92 v 14.63 h 27.49 v 13.06 h -43.48 v -70.44 h 44.94 v 13.07 h -28.95 v 16.71 h 25.92 z m 45.57,-42.75 6.68,30.31 c 1.68,7.11 2.83,13.79 4.08,21.74 h 0.21 c 0.84,-8.05 1.98,-14.63 3.35,-21.74 l 5.95,-30.31 h 17.25 l 18.18,70.44 h -16.2 l -5.74,-28.84 c -1.47,-8.36 -3.04,-16.62 -4.08,-24.46 h -0.21 c -1.05,7.84 -2.2,15.36 -3.77,23.62 l -5.64,29.68 h -16.93 l -5.95,-28.84 c -1.78,-8.68 -3.46,-17.14 -4.6,-24.77 h -0.21 c -1.15,7.1 -2.61,16.2 -4.19,24.56 l -5.32,29.05 h -17.04 l 16.72,-70.44 z m 62.49,3.24 c 3.98,-2.19 11.92,-4.29 19.97,-4.29 19.33,0 28.42,10.04 28.42,21.85 0,9.93 -5.85,16.41 -18.28,21 -9.1,3.45 -13.07,5.44 -13.07,9.93 0,3.66 3.35,6.8 10.24,6.8 6.9,0 11.91,-1.99 14.74,-3.35 l 3.55,12.86 c -4.18,1.88 -10.03,3.55 -17.97,3.55 -16.62,0 -26.66,-9.2 -26.66,-21.22 0,-10.24 7.63,-16.72 19.34,-20.79 8.47,-3.03 11.81,-5.54 11.81,-9.93 0,-4.6 -3.87,-7.63 -11.18,-7.63 -6.79,0 -13.38,2.19 -17.66,4.39 l -3.25,-13.17" /><path
         id="path112"
         style="fill:#ffffff;fill-opacity:1;fill-rule:nonzero;stroke:none"
         d="m 1687.9,7862.76 v 13.06 h -25.61 v 0.21 l 6.27,5.22 c 9.83,8.79 18.08,17.88 18.08,29.27 0,12.33 -8.46,21.32 -23.82,21.32 -9.2,0 -17.14,-3.13 -22.27,-7 l 4.5,-11.39 c 3.55,2.71 8.67,5.64 14.52,5.64 7.84,0 11.19,-4.39 11.19,-9.93 -0.21,-7.94 -7.42,-15.57 -22.26,-28.84 l -8.78,-7.95 v -9.61 z m 52.99,0 v 16.2 h 8.15 v 11.91 h -8.15 v 39.82 h -19.44 l -25.72,-41.39 v -10.34 h 30.1 v -16.2 z m -30.31,28.11 v 0.21 l 9.09,14.84 c 2.3,4.29 4.08,8.26 6.27,12.65 h 0.42 c -0.32,-4.39 -0.53,-8.57 -0.53,-12.65 v -15.05 h -15.25" /><path
         id="path114"
         style="fill:#1171af;fill-opacity:1;fill-rule:evenodd;stroke:none"
         d="m 1903.91,6270.91 c -20.35,-2.21 -18.08,-5.82 -18.08,-38.39 0,-4.34 -0.24,-9.88 0.05,-14.09 0.54,-7.73 4.83,-6.33 6.82,-7 0.11,-3.32 -0.3,-8.84 4.73,-8.91 4.7,-0.05 4.43,4.04 4.83,8.66 l 23.29,-0.04 c -0.59,-7.26 1.63,-9.44 5.07,-9.11 5.68,-0.17 4.35,6.68 4.63,9.45 2.27,0.26 8.23,-0.85 8.59,2.98 0.28,12.73 -0.02,22.19 0.01,34.58 0.06,18.96 0.24,19.28 -16.49,22.16 -0.4,1.57 -0.42,3.79 -2.36,6.06 l -18.75,-0.02 c -2,-2.61 -1.37,-3.41 -2.34,-6.33 z m -0.57,-46.94 h 21.41 v -1.7 h -21.41 z m 26.85,2.13 c 1.88,0 3.41,-1.53 3.41,-3.41 0,-1.88 -1.53,-3.4 -3.41,-3.4 -1.88,0 -3.41,1.52 -3.41,3.4 0,1.88 1.53,3.41 3.41,3.41 z m -32.6,0.54 c 1.88,0 3.41,-1.53 3.41,-3.41 0,-1.88 -1.53,-3.41 -3.41,-3.41 -1.88,0 -3.41,1.53 -3.41,3.41 0,1.88 1.53,3.41 3.41,3.41 z m -1.75,34.4 h 38.35 c 1.58,0 2.87,-1.29 2.87,-2.88 v -14.59 c 0,-1.59 -1.29,-2.87 -2.87,-2.87 h -38.35 c -1.59,0 -2.88,1.28 -2.88,2.87 v 14.59 c 0,1.59 1.29,2.88 2.88,2.88" /><path
         id="path116"
         style="fill:#656263;fill-opacity:1;fill-rule:evenodd;stroke:none"
         d="m 1134.77,6164.63 h 8.46 v -5.64 h -8.46 z m -19.73,0 h 8.46 v -5.64 h -8.46 z m 25.37,8.46 h 5.64 v -5.65 h -5.64 z m -8.43,0 h 5.62 l -0.01,-5.65 h -5.64 z m -11.3,0 h 5.64 l 0.02,-5.65 h -5.67 z m -8.46,0 h 5.64 v -5.65 h -5.64 z m 28.19,8.45 h 5.64 l 0.01,-5.63 h -5.65 z m -8.46,0 h 5.65 v -5.63 h -5.65 z m -11.28,0 h 5.65 v -5.63 h -5.65 z m -8.45,0 h 5.64 v -5.63 h -5.64 z m 8.45,8.46 h 5.65 v -5.64 h -5.65 z m -8.44,0 h 5.63 v -5.64 h -5.64 z m 8.46,8.46 h 5.63 v -5.64 h -5.65 z m -8.46,0 h 5.63 v -5.64 h -5.64 z m -2.83,-39.47 h -2.82 v -2.82 h 45.11 v 2.82 h -2.82 v 25.37 h -19.73 v 16.91 h -19.74 v -42.28" /><path
         id="path118"
         style="fill:#656263;fill-opacity:1;fill-rule:evenodd;stroke:none"
         d="m 1038.84,6208.32 v -51.61 h 3.95 v 21.36 c 18.14,-5.85 16.58,5.25 28.6,11.5 3.17,1.64 7.46,2.84 10.26,4.49 -0.74,1.44 -2.99,2.57 -4.45,3.47 -12.13,7.55 -21.27,1.51 -31.02,8.77 -2.56,1.92 -1.75,1.86 -3.64,4.28 -1.95,2.48 -3.7,0.97 -3.7,-2.26" /><path
         id="path120"
         style="fill:#656263;fill-opacity:1;fill-rule:evenodd;stroke:none"
         d="m 1046.79,6167.93 -0.09,-4.01 c 15.11,-3.81 5.99,-11.12 -5.89,-11.12 -11.87,0 -20.99,7.31 -5.9,11.12 l -0.03,4.01 c -18.04,-3.01 -14.71,-19.05 5.93,-19.05 20.62,0 24,16.02 5.98,19.05" /><path
         id="path122"
         style="fill:#ffffff;fill-opacity:1;fill-rule:evenodd;stroke:none"
         d="m 1134.77,6158.99 h 8.4609 v 5.6367 h -8.4609 z" /><path
         id="path124"
         style="fill:#ffffff;fill-opacity:1;fill-rule:evenodd;stroke:none"
         d="m 1115.04,6158.99 h 8.4609 v 5.6367 h -8.4609 z" /><path
         id="path126"
         style="fill:#fefefe;fill-opacity:1;fill-rule:evenodd;stroke:none"
         d="m 1120.67,6167.44 h 5.67 l -0.02,5.65 h -5.64 l -0.01,-5.65" /><path
         id="path128"
         style="fill:#fefefe;fill-opacity:1;fill-rule:evenodd;stroke:none"
         d="m 1120.67,6184.36 h 5.6445 v 5.6406 h -5.6445 z" /><path
         id="path130"
         style="fill:#fefefe;fill-opacity:1;fill-rule:evenodd;stroke:none"
         d="m 1131.95,6175.91 h 5.6445 v 5.6328 h -5.6445 z" /><path
         id="path132"
         style="fill:#fefefe;fill-opacity:1;fill-rule:evenodd;stroke:none"
         d="m 1112.22,6175.91 h 5.64 v 5.63 h -5.64 v -5.63" /><path
         id="path134"
         style="fill:#fefefe;fill-opacity:1;fill-rule:evenodd;stroke:none"
         d="m 1140.41,6175.91 h 5.65 l -0.01,5.63 h -5.64 v -5.63" /><path
         id="path136"
         style="fill:#fefefe;fill-opacity:1;fill-rule:evenodd;stroke:none"
         d="m 1112.22,6167.44 h 5.6367 v 5.6445 h -5.6367 z" /><path
         id="path138"
         style="fill:#fefefe;fill-opacity:1;fill-rule:evenodd;stroke:none"
         d="m 1120.67,6175.91 h 5.6445 v 5.6328 h -5.6445 z" /><path
         id="path140"
         style="fill:#fefefe;fill-opacity:1;fill-rule:evenodd;stroke:none"
         d="m 1140.41,6167.44 h 5.64 v 5.65 h -5.64 v -5.65" /><path
         id="path142"
         style="fill:#fefefe;fill-opacity:1;fill-rule:evenodd;stroke:none"
         d="m 1112.22,6184.36 h 5.64 v 5.64 h -5.63 l -0.01,-5.64" /><path
         id="path144"
         style="fill:#fefefe;fill-opacity:1;fill-rule:evenodd;stroke:none"
         d="m 1112.22,6192.82 h 5.64 v 5.64 h -5.63 l -0.01,-5.64" /><path
         id="path146"
         style="fill:#fefefe;fill-opacity:1;fill-rule:evenodd;stroke:none"
         d="m 1120.67,6192.82 h 5.65 v 5.64 h -5.63 l -0.02,-5.64" /><path
         id="path148"
         style="fill:#fefefe;fill-opacity:1;fill-rule:evenodd;stroke:none"
         d="m 1131.95,6167.44 h 5.64 l 0.01,5.65 h -5.62 l -0.03,-5.65" /><path
         id="path150"
         style="fill:#000000;fill-opacity:1;fill-rule:evenodd;stroke:none"
         d="m 1525.85,6483.51 v -45.75 c 0,-1.87 2.15,-4.01 4.02,-4.01 h 36.91 c 4.45,0 5.28,9.63 -2.4,9.63 h -28.9 v 41.73 c 0,4.73 -9.63,6.67 -9.63,-1.6" /><path
         id="path152"
         style="fill:#42c0fb;fill-opacity:1;fill-rule:evenodd;stroke:none"
         d="m 1138.18,6434.91 c 0,9.79 3.03,20.48 8.02,27.78 l 5.32,6.79 c 3.38,3.65 8.77,7.87 13.44,10.24 24.99,12.72 54.95,2.55 67.4,-22.22 12.24,-24.34 1.89,-55.48 -24.24,-67.19 -21.66,-9.71 -47.05,-2.61 -60.58,16.51 -5.5,7.77 -9.36,17.62 -9.36,28.09 z m -8.82,0.56 c 0,-5.13 1.03,-11.54 2.13,-15.5 2.23,-7.95 6.58,-17.26 12.33,-22.92 l 8.54,-9.09 c 2.85,-2.86 33.03,-33.53 35.39,-35.11 l 34.56,34.84 c 6.17,6.17 11.62,10.85 16.08,18.61 10.08,17.53 9.97,36.15 2.16,54.43 -1.74,4.09 -8.6,14.03 -11.96,16.68 -7.14,5.63 -7.43,7.11 -17.17,11.48 -19.58,8.78 -44.67,5.41 -60.7,-8.69 -6.74,-5.92 -12.31,-12.27 -16.01,-20.89 -2.75,-6.37 -5.35,-15.01 -5.35,-23.84" /><path
         id="path154"
         style="fill:#656263;fill-opacity:1;fill-rule:evenodd;stroke:none"
         d="m 921.254,6170.07 14.461,-0.02 -0.047,-18.09 -14.445,0.04 z m 3.809,30.69 -4.59,-0.1 -0.075,-5.98 4.625,-0.03 0.055,-4.63 5.926,-0.02 0.039,4.6 4.609,0.08 0.051,5.96 -4.578,0.03 -0.102,4.61 -5.937,0.03 z m 37.066,-30.03 c 1.09,0.01 4.062,0.16 4.941,-0.1 l 0.004,-4.74 c -0.898,-0.27 -3.836,-0.12 -4.961,-0.12 l -0.004,0.23 z m -7.664,0.01 4.914,-0.06 0.004,-4.9 -4.938,-0.01 z m -56.352,-4.96 c 0,1.12 -0.148,4.06 0.102,4.97 l 4.84,-0.04 0.011,-4.83 c -0.894,-0.25 -3.839,-0.11 -4.953,-0.1 z m -2.828,0.05 -4.797,-0.07 c -0.082,0.13 -0.113,0.07 -0.183,0.38 -0.012,0.06 -0.024,0.25 -0.028,0.31 l 0.118,4.32 c 0.796,0.14 4.332,0.19 5.003,-0.05 l 0.051,-3.79 c 0.008,-0.88 0.078,-0.72 -0.164,-1.1 z m 66.887,13.48 c 0.273,0.22 -0.328,0.19 0.457,0.19 l 4.34,-0.09 c 0.351,-0.49 0.207,-1.64 0.207,-2.51 0,-0.81 0.082,-1.67 -0.082,-2.46 -0.824,-0.21 -1.746,-0.11 -2.598,-0.11 -0.566,0 -2.019,-0.22 -2.398,0.21 z m -7.609,-4.85 c -0.25,0.86 -0.157,3.95 -0.075,4.95 1.356,0.02 3.676,0.25 4.797,-0.09 0.215,-0.68 0.235,-4.02 -0.004,-4.86 z m -56.418,4.96 4.918,-0.1 -0.036,-4.85 -4.902,-0.01 z m -7.7,-0.1 c 0.785,0.21 3.934,0.13 4.891,0.07 0.09,-0.92 0.156,-4.14 -0.055,-4.93 l -4.855,0.05 z m 71.731,8.47 4.691,-0.13 c 0.235,0.43 0.371,-4.39 0.106,-4.69 -0.293,-0.34 -4,-0.15 -4.856,-0.15 z m -2.856,-4.93 c -0.636,-0.06 -4.511,-0.2 -4.789,0.1 -0.281,0.31 -0.136,4.08 -0.062,4.82 l 4.91,-0.03 z m -61.144,4.93 4.574,-0.08 c 0.031,0 0.094,-0.07 0.117,-0.03 0.235,0.42 0.36,-4.42 0.098,-4.72 -0.293,-0.32 -4.012,-0.14 -4.848,-0.13 z m -7.754,-0.61 c 0.004,0.66 0.035,0.59 0.695,0.62 l 4.203,-0.03 -0.011,-4.93 -3.235,-0.02 c -2.031,0 -1.652,-0.8 -1.652,4.36 z m 35.98,22.46 c 7.09,1.05 12.883,-4.24 13.653,-10.31 0.914,-7.21 -4.172,-12.77 -10.18,-13.66 -7.219,-1.06 -13.039,4.19 -13.836,10.37 -0.941,7.34 4.195,12.68 10.363,13.6 z m -47.101,-57.91 v -7.09 h 97.5 v 7.09 l -5.375,0.03 c -0.082,0.78 0.097,3.06 0.097,4.11 0,5.82 0.2,36.49 -0.089,37.78 -0.614,2.74 -2.832,2.7 -5.692,2.7 -2.722,0 -15.179,0.15 -16.762,-0.04 L 948.938,6185 c 0,-5.74 0.355,-31.14 -0.395,-33.27 l -2.164,0.04 c -0.055,1.3 0.105,3.24 0.105,4.72 v 43.92 c 0,2.33 0.469,7.7 -0.535,9.35 -1.344,2.2 -5.066,1.58 -8.242,1.58 h -19.469 c -3.215,0 -6.793,0.64 -8.156,-1.68 -0.852,-1.46 -0.465,-7.28 -0.465,-9.4 l 0.11,-48.51 -2.164,-0.01 c -0.727,2.01 -0.395,8.38 -0.395,10.98 0,2.88 0.121,32.21 -0.047,33.59 -2.219,0.26 -5.965,0.04 -8.351,0.04 -15.641,0 -13.707,1.36 -13.707,-11.35 0,-5.61 0,-11.22 0,-16.82 l 0.078,-16.45 h -5.84" /><path
         id="path156"
         style="fill:#fefefe;fill-opacity:1;fill-rule:evenodd;stroke:none"
         d="m 879.301,6129.24 h 97.5 v 15.3984 h -97.5 z" /><path
         id="path158"
         style="fill:#1171af;fill-opacity:1;fill-rule:evenodd;stroke:none"
         d="m 1751.83,6214.72 h 4.89 c 0.06,-0.14 2.75,1.1 0.44,-4.01 -0.27,-0.61 -3.88,-6.3 -5.33,4.01 z m -33.99,15.25 c -3.39,4.7 -10.06,5.03 -14.05,0 2.46,-1.36 -0.15,-3.02 7.94,-2.71 6.02,0.23 3.73,-0.29 6.11,2.71 z m 37.89,-0.15 c -3.38,4.7 -10.05,5.04 -14.04,0 2.46,-1.36 -0.14,-3.02 7.95,-2.71 6.01,0.24 3.72,-0.28 6.09,2.71 z m -48.19,-15.56 c -0.7,-5.23 -2.21,-6.04 -4.66,-5.49 -1.84,0.44 -1.45,4.09 -1.21,6.16 z m -8.25,22.67 c -4.22,4.09 -3.62,0.01 -5.17,5.38 l 70.4,-0.23 c -0.83,-4.04 0.82,-1.99 -5.07,-3.46 -0.41,-6.82 1.05,-12.75 -2.35,-17.76 -6.57,-2.18 -51.3,-2.19 -55.85,0.28 -3.07,5.2 -1.77,9.52 -1.96,15.79 z m 5.23,11.13 c 5.06,14.55 11.78,11.93 35.21,11.55 10.15,-0.17 10.92,-3.81 14.56,-11.99 z m -6.33,0.11 c -20.05,-3.03 -6.49,-10.47 -4.23,-16.92 0.06,-6.43 0.86,-12.09 1.45,-18.54 0.69,-7.75 5.12,-11.71 13.04,-7.92 2.78,1.53 2.78,4.43 4.18,9.26 l 32.71,0.43 1.96,-5.45 c 3.01,-6.73 10.47,-7.35 14.15,-2.35 3.01,4.09 0.85,23.68 4.94,27.55 11.76,11.11 -4.32,13.81 -5.03,14.25 -4.4,2.77 -5.46,14.61 -16.21,16.2 -4.47,0.67 -26.27,0.63 -30.93,0.08 -8.55,-1.01 -13.37,-8.85 -16.03,-16.59" /><path
         id="path160"
         style="fill:#ffffff;fill-opacity:1;fill-rule:evenodd;stroke:none"
         d="m 1187.69,6485.19 c 27.38,0 49.58,-22.2 49.58,-49.59 0,-27.39 -22.2,-49.58 -49.58,-49.58 -27.39,0 -49.59,22.19 -49.59,49.58 0,27.39 22.2,49.59 49.59,49.59" /><path
         id="path162"
         style="fill:#42c0fb;fill-opacity:1;fill-rule:nonzero;stroke:none"
         d="m 1183.68,6411.11 v 21.14 h -21.04 v 8.85 h 21.04 v 21.04 h 8.95 v -21.04 h 21.04 v -8.85 h -21.04 v -21.14 h -8.95" /><path
         id="path164"
         style="fill:#42c0fb;fill-opacity:1;fill-rule:evenodd;stroke:none"
         d="m 1277.35,6436.74 c 0,9.79 3.03,20.48 8.03,27.78 l 5.32,6.79 c 3.37,3.65 8.76,7.87 13.44,10.24 24.98,12.72 54.94,2.54 67.4,-22.22 12.23,-24.34 1.88,-55.48 -24.25,-67.19 -21.65,-9.71 -47.04,-2.61 -60.58,16.52 -5.5,7.77 -9.36,17.61 -9.36,28.08 z m -8.81,0.56 c 0,-5.14 1.02,-11.55 2.13,-15.5 2.22,-7.95 6.57,-17.26 12.32,-22.92 l 8.54,-9.09 c 2.86,-2.86 33.03,-33.54 35.39,-35.11 l 34.56,34.84 c 6.17,6.17 11.63,10.85 16.09,18.61 10.07,17.53 9.96,36.15 2.15,54.43 -1.74,4.08 -8.6,14.03 -11.96,16.68 -7.13,5.63 -7.43,7.1 -17.17,11.47 -19.58,8.79 -44.67,5.42 -60.7,-8.68 -6.74,-5.92 -12.3,-12.28 -16.01,-20.89 -2.74,-6.37 -5.34,-15.01 -5.34,-23.84" /><path
         id="path166"
         style="fill:#ffffff;fill-opacity:1;fill-rule:evenodd;stroke:none"
         d="m 1326.86,6487.02 c 27.39,0 49.59,-22.2 49.59,-49.59 0,-27.39 -22.2,-49.59 -49.59,-49.59 -27.39,0 -49.59,22.2 -49.59,49.59 0,27.39 22.2,49.59 49.59,49.59" /><path
         id="path168"
         style="fill:#1f82c6;fill-opacity:1;fill-rule:evenodd;stroke:none"
         d="m 1301.05,6422.85 v -3.67 c 0,-5.46 9.88,-8.52 20.98,-9.19 h 9.45 c 11.1,0.67 20.98,3.73 20.98,9.19 v 3.67 c 0,5.26 -12.5,9.05 -18.36,9.18 v -4.59 c 18.47,-0.41 18.12,-12.85 -0.92,-12.85 -5.49,0 -27.55,-1.23 -27.55,6.42 0,4.28 9.29,6.33 13.78,6.43 v 4.59 c -5.87,-0.13 -18.36,-3.92 -18.36,-9.18" /><path
         id="path170"
         style="fill:#1f82c6;fill-opacity:1;fill-rule:evenodd;stroke:none"
         d="m 1319.41,6451.31 v -15.61 h 3.67 v -14.69 h 7.34 v 14.69 h 3.68 c 0,21.73 2.89,18.36 -11.94,18.36 -2.11,0 -2.75,-0.63 -2.75,-2.75" /><path
         id="path172"
         style="fill:#1f82c6;fill-opacity:1;fill-rule:evenodd;stroke:none"
         d="m 1321.25,6464.16 c 0,-8.78 11.01,-8.78 11.01,0 0,6.14 -11.01,6.14 -11.01,0" /><path
         id="path174"
         style="fill:#1b1b1f;fill-opacity:1;fill-rule:evenodd;stroke:none"
         d="m 1717.16,6399.6 c 1.52,7.36 4.45,16.03 6.55,23.67 5.53,0.16 7.45,0.59 10.65,4.76 2.51,3.26 3.83,5.94 5.23,10.37 2.09,6.59 3.48,21.31 -4.79,23.26 0.6,4.34 1.98,8.16 3.22,12.4 1.06,3.62 2.16,8.86 3.37,11.87 11.25,-1.74 14.61,-9.31 14.58,-22.91 -0.02,-17.22 -7.88,-45.47 -19.27,-58.11 -1.39,-1.55 -2.93,-3.41 -5.03,-4.75 -4.17,-2.66 -11.06,-2.63 -14.51,-0.56 z m 21.73,88.93 c 1.01,-3.61 -5.75,-25.92 -7,-26.78 -2.93,-1.01 -8.93,1.06 -10.68,2.29 -1.24,3.05 0.54,6.49 1.35,9.56 0.84,3.24 1.81,6.22 2.69,9.49 1.36,5.04 1.05,12.42 13.64,5.44 z m -28.07,-59.76 c 1.59,0.91 7.76,-0.64 9.3,-1.4 3.39,-1.68 1.02,-6.35 0.15,-9.3 -0.9,-3.02 -4.04,-17.02 -5.77,-18.31 -1.57,-1.17 -7.98,0.72 -9.45,1.42 -3.85,1.83 0.47,11.72 2.44,18.64 1.27,4.45 1.37,7.48 3.33,8.95" /><path
         id="path176"
         style="fill:#000000;fill-opacity:1;fill-rule:evenodd;stroke:none"
         d="m 1537.42,6512.26 c 36.19,0 65.53,-29.34 65.53,-65.53 0,-36.2 -29.34,-65.54 -65.53,-65.54 -36.19,0 -65.53,29.34 -65.53,65.54 0,36.19 29.34,65.53 65.53,65.53 z m -71.83,-61.59 c 0,-22.84 4.97,-39.07 21.07,-55.17 5.44,-5.45 12.19,-10.61 19.58,-14.12 49.99,-23.83 103.81,15.75 103.81,61.26 v 8.03 c 0,35.04 -34.05,68.22 -69.02,68.22 -23.59,0 -39.64,-6.33 -54.37,-21.07 -9.77,-9.76 -21.07,-28.04 -21.07,-47.15" /><path
         id="path178"
         style="fill:#000000;fill-opacity:1;fill-rule:evenodd;stroke:none"
         d="m 1728.87,6509.85 c 36.2,0 65.53,-29.34 65.53,-65.54 0,-36.19 -29.33,-65.53 -65.53,-65.53 -36.19,0 -65.53,29.34 -65.53,65.53 0,36.2 29.34,65.54 65.53,65.54 z m -71.82,-61.59 c 0,-22.84 4.96,-39.08 21.06,-55.17 5.44,-5.45 12.19,-10.61 19.58,-14.13 50,-23.82 103.81,15.76 103.81,61.27 v 8.03 c 0,35.04 -34.05,68.21 -69.02,68.21 -23.59,0 -39.63,-6.33 -54.37,-21.06 -9.77,-9.77 -21.06,-28.04 -21.06,-47.15" /><path
         id="path180"
         style="fill:#231f20;fill-opacity:1;fill-rule:evenodd;stroke:none"
         d="m 1907.46,6444.04 h -3.55 c -12.39,0 -24.78,11.88 -24.78,24.08 v 4.26 c 0,12 12.14,24.08 24.08,24.08 h 4.25 c 20.65,0 33.45,-26.97 17.52,-44.43 -3.72,-4.07 -11.3,-7.99 -17.52,-7.99 z m -54.54,29.04 v -4.96 c 0,-12.92 16.26,-37.51 22.37,-46.33 4.87,-7.02 9.62,-13.18 14.86,-19.85 1.91,-2.43 13.64,-17.31 15.89,-18.82 2.05,1.37 14,16.38 15.59,18.42 11.06,14.16 37.54,49.18 37.54,66.58 0,16.77 -4.12,25.67 -15.4,37.02 -7.53,7.56 -21.72,14.69 -33.47,14.69 -10.54,0 -17.38,0.05 -27.17,-4.7 -6.35,-3.09 -9.75,-4.89 -14.45,-9.64 -4.48,-4.51 -7.53,-7.42 -10.58,-13.51 -2.56,-5.09 -5.18,-11.62 -5.18,-18.9" /><path
         id="path182"
         style="fill:#1171af;fill-opacity:1;fill-rule:evenodd;stroke:none"
         d="m 1536.18,6298.62 c 36.19,0 65.53,-29.34 65.53,-65.53 0,-36.2 -29.34,-65.54 -65.53,-65.54 -36.2,0 -65.54,29.34 -65.54,65.54 0,36.19 29.34,65.53 65.54,65.53 z m -71.83,-61.59 c 0,-22.84 4.97,-39.08 21.07,-55.17 5.44,-5.45 12.19,-10.61 19.58,-14.13 49.99,-23.82 103.8,15.76 103.8,61.27 v 8.03 c 0,35.04 -34.04,68.21 -69.01,68.21 -23.59,0 -39.64,-6.32 -54.37,-21.06 -9.77,-9.76 -21.07,-28.04 -21.07,-47.15" /><path
         id="path184"
         style="fill:#1171af;fill-opacity:1;fill-rule:evenodd;stroke:none"
         d="m 1545.97,6252.89 -7.4,-21.96 13.64,-22.8 c 0.12,-0.2 0.22,-0.43 0.29,-0.67 0.23,-0.51 0.29,-1.11 0.14,-1.68 -0.07,-0.45 -0.21,-0.85 -0.46,-1.14 l -8.24,-19.66 c -0.54,-1.29 -2.03,-1.9 -3.31,-1.36 l -0.65,0.26 c -1.28,0.54 -1.89,2.04 -1.35,3.32 l 7.98,19.07 -11.93,19.94 -21.8,-13.03 c -0.21,-0.13 -0.45,-0.23 -0.7,-0.3 -0.51,-0.22 -1.09,-0.28 -1.65,-0.13 -0.45,0.06 -0.86,0.21 -1.15,0.45 l -19.66,8.25 c -1.29,0.54 -1.9,2.03 -1.36,3.32 l 0.27,0.64 c 0.53,1.28 2.03,1.89 3.32,1.35 l 19.06,-7.99 21.78,13.02 7.84,23.3 -8.31,3.44 -10.8,-10.63 -2.4,-11.45 c -0.29,-1.36 -1.65,-2.25 -3.01,-1.97 l -0.68,0.14 c -1.35,0.29 -2.24,1.64 -1.95,3.01 l 2.56,12.19 c 0.07,0.56 0.32,1.08 0.74,1.5 l 13.08,12.86 c 0.88,0.87 2.27,0.96 3.25,0.25 l 10.88,-4.49 c -2.4,1.49 -4,4.16 -4,7.19 0,4.68 3.8,8.48 8.47,8.48 4.68,0 8.48,-3.8 8.48,-8.48 0,-4.68 -3.8,-8.47 -8.48,-8.47 -0.66,0 -1.29,0.07 -1.9,0.22 l 13.45,-5.56 8.86,8.7 c 0.99,0.98 2.6,0.97 3.58,-0.03 l 0.48,-0.49 c 0.98,-0.99 0.97,-2.61 -0.02,-3.58 l -10.37,-10.2 c -0.25,-0.24 -0.54,-0.42 -0.84,-0.54 v 0 l -0.12,-0.04 v -0.01 l -0.05,-0.01 v 0 l -0.06,-0.02 v 0 l -0.06,-0.02 v 0 l -0.06,-0.01 v 0 l -0.06,-0.02 -0.06,-0.01 v 0 l -0.06,-0.01 -0.18,-0.02 v 0 c -0.41,-0.05 -0.83,0.01 -1.23,0.18 z m 2.4,18.67 c 2.38,0 4.3,-1.93 4.3,-4.3 0,-2.38 -1.92,-4.31 -4.3,-4.31 -2.37,0 -4.3,1.93 -4.3,4.31 0,2.37 1.93,4.3 4.3,4.3" /><path
         id="path186"
         style="fill:#1171af;fill-opacity:1;fill-rule:evenodd;stroke:none"
         d="m 1726.86,6298.01 c 36.19,0 65.53,-29.34 65.53,-65.53 0,-36.2 -29.34,-65.54 -65.53,-65.54 -36.2,0 -65.54,29.34 -65.54,65.54 0,36.19 29.34,65.53 65.54,65.53 z m -71.83,-61.59 c 0,-22.84 4.97,-39.07 21.07,-55.17 5.44,-5.45 12.19,-10.61 19.58,-14.12 49.99,-23.83 103.8,15.75 103.8,61.26 v 8.03 c 0,35.04 -34.04,68.21 -69.02,68.21 -23.58,0 -39.63,-6.32 -54.37,-21.06 -9.76,-9.76 -21.06,-28.04 -21.06,-47.15" /><path
         id="path188"
         style="fill:#1171af;fill-opacity:1;fill-rule:evenodd;stroke:none"
         d="m 1914.59,6302.94 c 36.19,0 65.53,-29.34 65.53,-65.53 0,-36.2 -29.34,-65.53 -65.53,-65.53 -36.2,0 -65.54,29.33 -65.54,65.53 0,36.19 29.34,65.53 65.54,65.53 z m -71.83,-61.58 c 0,-22.84 4.97,-39.08 21.07,-55.18 5.44,-5.44 12.19,-10.6 19.58,-14.12 49.99,-23.83 103.8,15.76 103.8,61.27 v 8.03 c 0,35.04 -34.04,68.21 -69.01,68.21 -23.59,0 -39.64,-6.33 -54.38,-21.07 -9.76,-9.76 -21.06,-28.04 -21.06,-47.14" /><path
         id="path190"
         style="fill:#656263;fill-opacity:1;fill-rule:evenodd;stroke:none"
         d="m 1201.52,6184.06 h -1.54 c -5.41,0 -10.82,5.19 -10.82,10.51 v 1.85 c 0,5.24 5.3,10.51 10.51,10.51 h 1.85 c 9.01,0 14.59,-11.77 7.64,-19.38 -1.62,-1.78 -4.93,-3.49 -7.64,-3.49 z m -23.79,12.67 v -2.16 c 0,-5.64 7.09,-16.36 9.76,-20.21 2.12,-3.06 4.19,-5.75 6.48,-8.66 0.83,-1.06 5.95,-7.55 6.93,-8.21 0.9,0.6 6.11,7.15 6.8,8.03 4.83,6.18 16.37,21.46 16.37,29.05 0,7.31 -1.79,11.19 -6.71,16.14 -3.29,3.3 -9.48,6.42 -14.6,6.42 -4.6,0 -7.58,0.01 -11.85,-2.06 -2.77,-1.34 -4.26,-2.13 -6.3,-4.2 -1.96,-1.97 -3.29,-3.24 -4.62,-5.9 -1.11,-2.22 -2.26,-5.06 -2.26,-8.24" /><path
         id="path192"
         style="fill:#656263;fill-opacity:1;fill-rule:nonzero;stroke:none"
         d="m 1275.09,6196.78 43.78,0.11 -21.88,-21.76 -21.9,21.65" /><path
         id="path194"
         style="fill:#00c3f6;fill-opacity:1;fill-rule:evenodd;stroke:none"
         d="m 1374.54,7086.04 c 54.3,0 98.32,-44.02 98.32,-98.31 0,-54.3 -44.02,-98.31 -98.32,-98.31 -54.29,0 -98.31,44.01 -98.31,98.31 0,54.29 44.02,98.31 98.31,98.31" /><path
         id="path196"
         style="fill:none;stroke:#ffffff;stroke-width:5.66930008;stroke-linecap:butt;stroke-linejoin:miter;stroke-miterlimit:22.92560005;stroke-dasharray:none;stroke-opacity:1"
         d="m 1374.54,7086.04 c 54.3,0 98.32,-44.02 98.32,-98.31 0,-54.3 -44.02,-98.31 -98.32,-98.31 -54.29,0 -98.31,44.01 -98.31,98.31 0,54.29 44.02,98.31 98.31,98.31 z" /><path
         id="path198"
         style="fill:#ffffff;fill-opacity:1;fill-rule:evenodd;stroke:none"
         d="m 1403.93,6992.93 15.32,-14.72 -44.05,-43.42 -44.66,42.92 15.47,15.25 17.9,-17.2 0.47,43.54 22.09,-0.24 -0.47,-43.8 17.93,17.67" /><path
         id="path200"
         style="fill:#00adef;fill-opacity:1;fill-rule:evenodd;stroke:none"
         d="m 1376.12,7080.98 c 51.9,-1.02 93.22,-41.31 92.26,-90 -0.06,-2.79 -0.25,-5.55 -0.58,-8.27 -2.04,39.11 -43.87,76.42 -89.9,77.32 -46.02,0.9 -99.12,-35.87 -94.49,-89.23 -2.11,7.61 -3.16,15.62 -3,23.86 0.95,48.69 43.8,87.34 95.71,86.32" /></g></g></svg>