<svg width="200" height="38" viewBox="0 0 200 38" xmlns="http://www.w3.org/2000/svg" xmlns:xlink="http://www.w3.org/1999/xlink"><title>ACIJET</title><defs><path id="a" d="M0 2.603h199.28V40H0"/><path id="c" d="M0 2.603h199.28V40H0V2.603z"/></defs><g fill="none" fill-rule="evenodd"><path d="M32.303 35.34h8.973l3.162-4.146 11.09.003-.455 4.142h8.08L65.462 6l-9.673-.003L32.303 35.34zm17.024-10.76L57.77 13.5 56.496 24.58h-7.17zM92.9 35.32h8.216l12.908-29.284-8.242-.003-12.88 29.286zM132.913 35.32h21.546l2.95-6.705-13.363-.01 2.122-4.76 13.393.007 2.91-6.62-13.4-.005 2.025-4.588 13.32.006 2.95-6.62-21.572-.01-12.883 29.303zM168.46 12.645l7.42.006-9.96 22.67h8.25l9.954-22.666 7.352.003 2.91-6.618-22.978-.014-2.95 6.62zM132.92 6.03L123.7 26.99c-.19.455-.875 1.622-2.457 1.622-.842 0-2.32 0-3.472.01-.306.002-.7-.11-.832-.33-.17-.284-.203-.505-.006-1.14.197-.636 1.072-2.664 1.072-2.664s-6.01.004-8.197.004c-.185.42-.705 1.618-1.293 2.886-.853 1.84-1 4.07.19 5.615.67.868 1.294 2.326 4.437 2.332 2.846.01 5.01-.033 8.19.013 2.21.034 7.217-.49 8.946-4.57.6-1.418 10.88-24.756 10.88-24.756l-8.236.015zM71.74 35.36c-2.5 0-3.307-.778-4.436-2.334-1.128-1.554-1.185-3.4-.17-5.545l7.56-16.956c1.42-2.975 4.297-4.47 8.63-4.498l9.867.012c2.105.003 3.684.732 4.744 2.194 1.057 1.46 1.32 2.85.788 4.16l-1.445 3.455-8.253-.006.462-1.134c.233-.484.257-.948-.042-1.444-.298-.495-.95-.74-1.95-.744H84.09c-1.317-.003-2.228.572-2.735 1.726L75.82 26.56c-.187.46-.125.915.186 1.367.31.46.886.686 1.73.686l3.51.003c1.53 0 2.59-1.175 3.17-2.366l.86-1.766 8.15.006-2.922 6.425c-1.29 2.975-4.385 4.46-8.913 4.458l-9.85-.012z" fill="#1D1D1C"/><g transform="translate(0 -2)"><mask id="b" fill="#fff"><use xlink:href="#a"/></mask><path d="M22.646 5.762c-1.916-.77-3.406-.936-5.585-.936C7.638 4.826 0 12.7 0 22.414c0 4.05 1.33 7.776 3.56 10.75 1.247-4.694 5.856-13.07 13.19-21.28 1.98-2.214 3.965-4.27 5.896-6.122" fill="#1D1D1C" mask="url(#b)"/></g><path d="M22.785 27.024s.48-2.63-.606-4.178c-1.162-1.656-4-1.148-4-1.148l8.933-3.16-4.328 8.486zM24.137 4.41c-.074.082-.152.168-.227.254-9.994 11.185-17.143 22.75-14.603 25.16 1.335 1.268 5.878-.643 10.29-3.843-4.875 4.54-9.328 7.715-12.352 8.82A16.642 16.642 0 0 0 17.06 38c9.424 0 17.062-7.874 17.062-17.588 0-7.108-4.092-13.23-9.985-16.003z" fill="#1D1D1C"/><g transform="translate(0 -2)"><mask id="d" fill="#fff"><use xlink:href="#c"/></mask><path d="M198.734 5.446l-.102-1.674c-.01-.22-.01-.49-.02-.794h-.03c-.072.252-.153.588-.233.846l-.5 1.578h-.567l-.496-1.618c-.05-.218-.134-.554-.194-.806h-.03c0 .26-.008.535-.02.794l-.102 1.674h-.527l.206-2.844h.82l.474 1.39c.063.22.114.43.182.72h.012c.072-.26.132-.5.19-.71l.48-1.4h.79l.215 2.844h-.55zm-2.982-2.844v.47h-.88v2.374h-.55V3.073h-.88v-.47h2.31z" fill="#1D1D1C" mask="url(#d)"/></g></g></svg>