<svg width="199" height="49" viewBox="0 0 199 49" xmlns="http://www.w3.org/2000/svg" xmlns:xlink="http://www.w3.org/1999/xlink"><title>clay_lacy_aviation</title><defs><path id="a" d="M0 .46h198.072v48.572H0V.46z"/><path id="c" d="M0 .46h198.072v48.572H0"/><path id="e" d="M0 .46h198.072v48.572H0"/></defs><g fill="none" fill-rule="evenodd"><path d="M98.85 37.21l.874-.67c.248-.203.373-.537 0-.807l-.564-.132c-.06 0-.185 0-.31.07-.436.13-.872.4-1.06.94v.4c.25.27.436.4.686.47l.374-.27zM115.678 37.95l.87-.67c.19-.135.315-.472 0-.81l-.557-.134c-.062 0-.187.07-.312.07-.5.203-.935.472-1.06.938v.405c.25.268.44.403.69.538l.37-.337z" fill="#1D1D1C"/><path d="M117.485 41.58c-.31.536-.994 1.412-1.806 1.945-.5.408-.998.607-1.434.607-.31-.2-.188-.674-.125-1.008.31-.81.935-1.48 1.56-1.882.685-.47 1.432-.67 1.805-.67.376.2.125.805 0 1.007zm46.994-.273c-9.473.07-24.93.205-36.213 2.083-.25.068-.496.135-.746.068-.498-.334-.81-.938-1.492-1.744-.128-.135-.44-.27-1-.202-.624.067-1.684.604-2.93 1.207.312-.537.933-1.343 1.31-1.744 0-.337-.19-.675-.377-.874-.247-.205-.435-.067-.87 0-.81.132-1.87.67-3.8 1.477.37-.807.187-1.545-.5-2.152-.375-.27-.933-.27-1.557-.202-.25.07-.44.202-.624.27-.873.47-1.434.873-2.246 1.68a31.48 31.48 0 0 0-3.367 1.678c.498-.873 1.122-2.016 2.93-3.29 0-.203 0-.338-.12-.47-.13-.205-.252-.404-.688-.472l-2.744 2.017-3.555 1.945c.377-1.006 1.123-2.08 2.747-4.03l3.364-.337-.933-.534c-.31-.138-.75-.205-1.123-.205l-.185.066.934-.87.062-.674-.69-.472-1.927 2.016c-.94 0-1.873 0-2.807.138-.25 0-.377 0-.562.132-.31.135.064.74.312 1.073l1.87-.136c-.372.34-.372.404-.748.674-1.433 1.076-4.05 2.887-4.863 3.564l.566-1.817a.96.96 0 0 0-.75-.604l-2.307 1.48-1.682 1.074c-.376-.2-.062-.668.314-1.28.37-.4.87-.737 1.367-1.07.874-.54 1.745-.94 2.244-1.01 1.06-.137.997.338 1.62.605.123-.2.123-.605.063-1.144-.997-.874-2.244-.938-2.68-.74-.373.136-.81.268-1.248.473-.25.134-.497.266-.685.4-.683.405-1.373.874-2.307 1.882l-1.93.94c.745-1.206 1.62-2.08 3.052-3.56l-.188-.47c0-.134-.185-.268-.683-.2l-4.24 3.09-1.684 1.14c-.062 0 0 .47.812.403.31-.065.62-.13.81-.13-.374.6-1.186 1.74-.935 2.075.125.405.498.607.746.81.062-.068.187-.135.25-.203.87-.873 1.746-2.08 3.552-3.02-.436.67-.498 1.206-.624 1.816.063.597.436.935 1.06 1.272 1.122-.803 2.057-1.612 2.99-2.213.252-.138.5-.273.75-.407-.25.738-.56 1.75-.188 2.215.25.202.624.337.872.472 1.185-1.14 2.495-2.418 4.674-4.03-.87 1.073-1.492 1.95-1.743 2.62-.185.472-.125.806.126 1.073.31.27.682.472 1.058.54l.063-.068c.995-1.275 2.246-2.216 4.362-3.693-.75.87-1.307 1.548-1.37 2.148v.54c.185.398.495.803.872 1.005.56-.54 2.24-2.145 4.552-3.224-.44.742-.502 1.545-.502 2.22l.126.465c.247.27.87.606 1.247.674a3.48 3.48 0 0 0 1.68-.674c.126 0 .19-.068.252-.135.87-.47 1.745-1.41 2.49-2.418.936-.2 1.748-.67 2.867-.87-.934.87-1.496 1.945-2.054 2.957-.253.466.806.938 1.06 1.072 1.307-.674 3.054-2.212 3.8-2.212.498-.07 2.057 1.406 2.493 1.606.435.337.937.337 1.435.134 7.542-2.148 22.688-2.35 36.21-2.482l33.905.065v-1.278H164.48zM93.427 38.018c-.185-.334-.31-.54-.623-.606-.31.202-.62.404-.935.606-2.054 1.477-4.05 3.224-6.42 5.244L90 37.884c0-.675-.25-1.208-.81-1.275-1.995.734-3.428 1.543-5.485 2.75-.248.135-.56.267-.81.473l.81.266.373.134 2.743-1.345-3.115 4.3-1.185 1.61c-.122.81.812 1.342 1.122 1.683h.063c2.87-2.69 5.114-4.704 8.164-7.122.498-.47 1.06-.873 1.557-1.342" fill="#1D1D1C"/><g><mask id="b" fill="#fff"><use xlink:href="#a"/></mask><path d="M76.974 41.308s0 .067-.063.135l-3.24-.068c1.373-1.275 2.307-2.218 3.304-3.16.872-.805 1.87-1.54 3.305-2.613-1.625 2.552-2.497 4.094-3.306 5.706zm2.493.135c1.806-2.958 2.492-4.162 4.238-6.38.374-.402.75-.94 1.182-1.48a6.942 6.942 0 0 0-1.182-.6 9.066 9.066 0 0 0-3.552-.54c-.498.205-1.683 1.075-3.18 2.353a96.444 96.444 0 0 0-6.856 6.647H.19L.125 42.72l68.68-.067c-1.492 1.545-2.492 2.887-3.55 4.435-.186.873.312 1.474.81 1.945.935-1.48 4.177-4.768 6.048-6.38h4.3c-.873 1.814-1.186 2.688-1.56 4.165.126.735.935 1.275 1.433 1.676.25-.67.5-1.207.687-1.747.624-1.406 1.248-2.55 1.93-4.094l2.93-.135.75-1.075h-3.117z" fill="#1D1D1C" mask="url(#b)"/></g><path d="M16.144 1.482c1.558 0 3.737.536 4.86.937v9.607s-1.618-.806-4.114-.742c-1.994 0-5.982 1.076-5.856 5.24.247 7.122 8.662 5.173 10.095 4.233l-.063 10.14c-.812.337-2.308 1.008-5.42 1.143C6.61 32.51 0 25.19 0 16.796 0 11.558 2.12 6.587 6.61 3.832c2.615-1.544 6.23-2.35 9.534-2.35M23.81 2.22v29.015h22.686l3.49-8.596h-4.05l2.18-9.672 4.3 18.267H64.07L54.97 2.22H41.14l-5.8 20.484H33.78V2.22h-9.97zM57.652 2.22l8.477 20.55v8.465h10.656V22.77l8.54-20.55H74.108l-2.558 9.402-2.18-9.4H57.653zM114.184 2.22v29.015h22.997l3.43-8.596h-4.053l2.182-9.605 4.61 18.2h11.532l-9.29-29.014h-13.898l-5.606 20.484h-2.06V2.22h-9.844z" fill="#1D1D1C"/><g><mask id="d" fill="#fff"><use xlink:href="#c"/></mask><path d="M171.523 2.22h10.406l2.62 9.338 2.367-9.337h11.155l-8.537 20.352v8.663h-10.41v-8.53l-7.602-19.41.125 8.327s-.934-.4-3.43-.4c-1.93 0-5.92 1.075-5.734 5.236.19 7.12 8.54 5.173 9.973 4.232v10.006c-.872.405-2.364 1.143-5.42 1.278-9.04.47-15.52-6.85-15.52-15.246 0-5.305 2.056-10.208 6.543-12.96 2.558-1.547 5.734-2.42 9.036-2.353 1.56.067 3.182.4 4.427.806" fill="#1D1D1C" mask="url(#d)"/></g><g><mask id="f" fill="#fff"><use xlink:href="#e"/></mask><path d="M99.87 14.545c-.028.02-.043.02-.055.013-.01-.013-.006-.03.012-.055l.292-.38-1.82-1.058c.118-.122.196-.196.25-.242.083-.067.163-.104.223-.092l2.194.565c.173-.236.815-1.08.89-1.213-.087-.1-.242-.166-.084-.34-.083-.096-.316-.2-.143-.44l1.057-1.326s-.81-.52-1.532-1.05c-.036-.028-.02-.142-.056-.17-.61-.444-1.166-.8-1.234-.836-.323.107-.582.193-.547.162.12-.11.63-.48.862-.634.22-.15.42-.067.484-.052l4.3 1.308 1.562-1.516c.627-.616 1.218-.773 1.484-.773.018 0 .042.02.06.037.02.02.035.05.035.067-.017.275-.206.88-.83 1.498l-1.546 1.532.998 4.55c.012.065.078.28-.08.498-.158.235-.547.74-.657.864-.035.033.064-.233.19-.564-.037-.07-.34-.67-.732-1.33-.024-.04-.135-.028-.158-.068-.463-.784-.917-1.654-.917-1.654l-1.334 1.017c-.24.165-.324-.083-.413-.175-.173.154-.23-.01-.317-.107-.137.072-.982.688-1.217.85l.41 2.32c.004.064-.034.14-.103.227-.048.055-.122.128-.248.245l-.904-1.955s-.323.24-.38.278m5.822-11.56c-2.284-1.596-5-2.527-7.965-2.527-8.212 0-14.94 7.113-15.003 16.41-.062 2.657.556 4.652 1.606 7.24l15.036-9.927-12.75 13.383 13.51-12.494-10.178 15.484c1.173.733 2.347 1.334 3.582 1.73 1.36.397 2.776.664 4.138.664 2.9 0 5.677-.932 8.024-2.525 4.26-2.79 7.1-7.84 7.1-13.555 0-5.776-2.84-10.96-7.1-13.882" fill="#1D1D1C" mask="url(#f)"/></g></g></svg>