<svg width="200" height="62" viewBox="0 0 200 62" xmlns="http://www.w3.org/2000/svg" xmlns:xlink="http://www.w3.org/1999/xlink"><title>desert_jet</title><defs><path id="a" d="M0 1.61h199.956v60.566H0V1.61z"/></defs><g fill="none" fill-rule="evenodd"><path d="M0 37.886h130.65l-1.59-2.938L0 37.886z" fill="#1D1D1C"/><path d="M155.023 21.98c0-9.778-7.497-17.702-16.75-17.702-9.247 0-16.744 7.924-16.744 17.702 0 6.814 3.643 12.727 8.98 15.684v-1.797c-4.484-2.81-7.496-7.977-7.496-13.887 0-8.91 6.835-16.13 15.26-16.13 8.428 0 15.26 7.22 15.26 16.13 0 6.043-3.147 11.306-7.8 14.07v1.778c5.506-2.9 9.29-8.906 9.29-15.848" fill="#1D1D1C"/><path d="M150.72 21.98c0 7.265-5.572 13.153-12.446 13.153-6.873 0-12.444-5.888-12.444-13.153 0-7.266 5.57-13.154 12.444-13.154 6.874 0 12.447 5.888 12.447 13.154M154.78 31.712c0-16.237 12.453-29.397 27.812-29.397 6.57 0 12.603 2.413 17.362 6.44C194.964 3.71 188.2.61 180.75.61c-15.358 0-27.81 13.16-27.81 29.4 0 9.292 4.08 17.574 10.452 22.96-5.303-5.352-8.612-12.894-8.612-21.26M46.28 56.484c.195.03.433.046.774.046 3.174 0 4.592-1.89 4.592-4.706 0-1.197-.286-2.41-1.045-3.308-.834-.992-1.996-1.37-3.38-1.37-.433 0-.67.03-.94.077v9.26zm-1.473-9.59c0-.33.06-.393.22-.442.374-.14 1.477-.268 2.372-.268 4.363 0 5.822 3.118 5.822 5.686 0 2.282-1.026 3.575-1.61 4.126-1.234 1.165-2.916 1.526-4.572 1.526-.52 0-1.58-.047-1.994-.155-.21-.066-.24-.19-.24-.364v-10.11zM60.985 52.09v4.315h4.023c.19 0 .283 0 .283.252v.503c0 .236-.105.252-.282.252h-5.185c-.224 0-.297-.016-.297-.283V46.673c0-.267.044-.38.297-.38h5.185c.162 0 .283.016.283.237 0 .206 0 .55-.014.6-.015.14-.077.172-.268.172h-4.023v3.796h3.397c.164 0 .282 0 .282.236 0 .205 0 .566-.015.616-.03.124-.104.14-.268.14h-3.397zM75.36 51.287c.745.392 2.28 1.197 2.28 3.196 0 1.86-1.353 3.165-3.29 3.165-2.4 0-3.31-1.7-3.31-2.375 0-.507.36-.774.7-.774.432 0 .612.347.776.676.224.49.686 1.48 1.936 1.48 1.103 0 1.803-.817 1.803-1.84 0-1.356-1.027-1.875-2.174-2.444l-.805-.407c-.594-.298-2.1-1.072-2.1-2.944 0-1.684 1.19-2.96 3.086-2.96 1.77 0 2.948 1.118 2.948 1.904 0 .41-.268.724-.64.724s-.552-.267-.716-.55c-.297-.488-.715-1.15-1.668-1.15-.982 0-1.653.802-1.653 1.716 0 1.212.925 1.654 2.057 2.204l.774.38zM85.447 52.09v4.315h4.024c.195 0 .283 0 .283.252v.503c0 .236-.106.252-.282.252h-5.185c-.223 0-.297-.016-.297-.283V46.673c0-.267.044-.38.297-.38h5.186c.162 0 .283.016.283.237 0 .206 0 .55-.015.6-.014.14-.073.172-.267.172h-4.023v3.796h3.397c.165 0 .282 0 .282.236 0 .205 0 .566-.014.616-.03.124-.103.14-.268.14h-3.397zM97.662 51.665c.864.016.967.016 1.19 0 1.298-.127 2.222-.898 2.222-2.316 0-2.283-1.818-2.283-2.46-2.283-.432 0-.652.032-.952.078v4.52zm-1.43-4.772c0-.33.044-.41.24-.488.325-.124 1.534-.22 2.307-.22.817 0 2.055.046 2.876.786.147.13.894.79.894 2.19 0 1.498-.956 2.583-2.61 3.025l3.025 4.787c.06.11.106.19.106.283 0 .16-.15.16-.24.16h-1.07c-.284 0-.284 0-.434-.253l-2.488-4.206c-.132-.22-.37-.582-.773-.582-.418 0-.403.392-.403.566v4.14c0 .268-.06.334-.283.334h-.865c-.21 0-.283-.016-.283-.268V46.893zM111.937 47.303v9.81c-.015.22-.03.3-.268.3h-.865c-.24 0-.312-.015-.327-.317v-9.793h-2.61c-.22 0-.266-.062-.266-.298 0-.63 0-.71.267-.71h6.69c.265 0 .265.063.265.726 0 .22-.04.283-.264.283h-2.623z" fill="#1D1D1C"/><g transform="translate(0 -1)"><mask id="b" fill="#fff"><use xlink:href="#a"/></mask><path d="M121.83 56.712c-.016.898-.03 2.378-1.042 3.81-1.03 1.42-2.356 1.655-2.547 1.655-.27 0-.494-.14-.494-.41 0-.22.195-.3.345-.364.433-.205.7-.33 1.056-.69 1.133-1.135 1.177-2.633 1.21-3.56v-9.575c0-.22.043-.283.238-.283h.952c.224 0 .283.03.283.314v9.102z" fill="#1D1D1C" mask="url(#b)"/></g><path d="M130.35 52.09v4.315h4.023c.194 0 .283 0 .283.252v.503c0 .236-.103.252-.283.252h-5.185c-.224 0-.297-.016-.297-.283V46.673c0-.267.045-.38.298-.38h5.185c.162 0 .283.016.283.237 0 .206 0 .55-.015.6-.014.14-.073.172-.267.172h-4.023v3.796h3.397c.164 0 .282 0 .282.236 0 .205 0 .566-.016.616-.03.124-.103.14-.267.14h-3.397zM143.966 47.303v9.81c-.014.22-.03.3-.267.3h-.866c-.238 0-.312-.015-.326-.317v-9.793h-2.61c-.223 0-.267-.062-.267-.298 0-.63 0-.71.27-.71h6.687c.27 0 .27.063.27.726 0 .22-.046.283-.27.283h-2.62z" fill="#1D1D1C"/></g></svg>