<svg width="193" height="67" viewBox="0 0 193 67" xmlns="http://www.w3.org/2000/svg" xmlns:xlink="http://www.w3.org/1999/xlink"><title>JETEDGE</title><defs><path id="a" d="M0 3.22h192.832V70H0V3.22z"/></defs><g fill="none" fill-rule="evenodd"><path d="M182.398 25.945V41.12h10.435v-2.466h-7.8v-4.126h7.225v-2.47h-7.225v-3.644h7.8v-2.47h-10.435zM150.983 28.327h-2.707v10.2h1.914c.47 0 .866 0 1.19-.034.324 0 .724-.074 1.227-.148a5.5 5.5 0 0 0 1.3-.37 4.158 4.158 0 0 0 1.12-.7c.398-.29.722-.7.973-1.14.473-.812.725-1.768.725-2.834 0-.625-.073-1.216-.252-1.733-.183-.514-.4-.957-.686-1.326a6.202 6.202 0 0 0-.976-.956c-.396-.257-.758-.478-1.154-.626a4.785 4.785 0 0 0-1.194-.296c-.396 0-.865-.035-1.48-.035zm-.072-2.47c.94 0 1.808.075 2.6.223a10.4 10.4 0 0 1 2.022.59c.58.257 1.082.553 1.517.922.434.366.792.735 1.082 1.18.29.403.507.843.724 1.325.18.478.324.956.397 1.435.072.478.106.956.106 1.435 0 .665-.035 1.29-.145 1.878a8.648 8.648 0 0 1-.542 1.843c-.25.627-.614 1.18-1.01 1.696-.397.513-.938.957-1.624 1.36-.653.406-1.446.7-2.278.884-.43.113-.937.187-1.48.222-.54.038-.975.073-1.333.073h-5.312V25.858h5.273zM130.4 41.034V25.86h10.436v2.47h-7.762v3.643h7.186v2.47h-7.186v4.122h7.762v2.47H130.4zM108.483 25.86h13.432v2.47H116.5v12.704h-2.638V28.33h-5.38v-2.47zM93.74 41.034V25.86h10.4v2.47h-7.767v3.643h7.225v2.47h-7.225v4.122h7.766v2.47h-10.4zM85.506 25.86h2.634v9.687c0 .37 0 .735-.034 1.066-.038.334-.11.7-.18 1.07a7.49 7.49 0 0 1-.4 1.07 5.15 5.15 0 0 1-.686.955c-.286.296-.648.59-1.045.774-.396.222-.903.37-1.483.517a10.85 10.85 0 0 1-1.982.182c-.76 0-1.483-.074-2.17-.257l-.396-.112.434-2.357.43.11c.436.112.905.147 1.374.147.47 0 .87-.035 1.266-.148.362-.074.686-.183.903-.33.253-.148.432-.296.615-.48.18-.182.324-.404.397-.55a6.01 6.01 0 0 0 .217-.627 7.45 7.45 0 0 1 .106-.553V25.86zM177.812 38.824c-1.445 1.622-3.504 2.396-6.177 2.396-1.155 0-2.2-.148-3.137-.444-.942-.295-1.735-.7-2.387-1.217a7.258 7.258 0 0 1-1.585-1.766 6.884 6.884 0 0 1-.942-2.1 9.403 9.403 0 0 1-.286-2.248c0-.81.107-1.583.324-2.318.22-.74.543-1.44 1.012-2.1a7.24 7.24 0 0 1 1.662-1.695 6.995 6.995 0 0 1 2.345-1.14c.902-.295 1.913-.408 2.995-.408 1.987 0 3.756.443 5.31 1.326l.36.223-1.083 2.1-.358-.183c-.508-.26-1.12-.482-1.88-.7-.76-.222-1.48-.296-2.238-.296-.724 0-1.445.11-2.13.37-.688.217-1.3.552-1.843.99-.54.445-.976.962-1.3 1.623-.324.66-.47 1.36-.47 2.174 0 1.03.253 1.953.794 2.8.542.81 1.266 1.47 2.204 1.914.94.444 1.987.7 3.18.7 1.297 0 2.345-.295 3.142-.883v-2.907h-4.66v-2.36h7.222v6.15h-.072z" fill="#030404"/><g transform="translate(0 -3)"><mask id="b" fill="#fff"><use xlink:href="#a"/></mask><path d="M64.654 35.363c-.008-.202-.008-.404-.02-.603l-.045-.598c-.035-.4-.054-.805-.1-1.202l-.153-1.198c-.244-1.583-.55-3.162-1.018-4.694-.454-1.532-.988-3.04-1.66-4.48a32.02 32.02 0 0 0-2.256-4.16c-3.367-5.325-8.232-9.455-13.558-11.983-.675-.303-1.342-.614-2.024-.87-.675-.28-1.373-.498-2.055-.728-1.384-.424-2.772-.778-4.168-.995-.698-.13-1.396-.2-2.09-.28-.343-.047-.7-.06-1.052-.082-.35-.02-.71-.05-1.045-.062l-.995-.012-.496-.004-.537.02c-.34.01-.68.023-1.014.038-.34.02-.67.055-1.006.082-2.67.237-5.235.817-7.606 1.665-.6.198-1.17.45-1.746.68-.568.237-1.12.506-1.67.766-1.083.552-2.128 1.124-3.107 1.77a31.65 31.65 0 0 0-5.216 4.184 31.97 31.97 0 0 0-3.524 4.17 32.723 32.723 0 0 0-6.49 17.608l.57.04.563.034a31.596 31.596 0 0 1 6.988-17.917 31.75 31.75 0 0 1 7.953-6.7c.946-.576 1.96-1.078 3-1.564.528-.223 1.058-.456 1.607-.662.55-.195 1.094-.413 1.666-.576.282-.085.568-.17.854-.26.286-.074.575-.152.865-.226.58-.167 1.178-.268 1.777-.4.296-.063.597-.102.903-.152.305-.043.606-.11.915-.136.613-.063 1.23-.148 1.856-.17.317-.02.63-.044.942-.056.316 0 .633-.008.95-.012l.45-.003.495.02c.333.015.664.03.996.042.324.018.633.053.95.08.316.035.628.047.952.102.645.097 1.29.175 1.93.318 1.292.234 2.57.603 3.843 1.008.63.225 1.27.435 1.888.707.63.245 1.24.545 1.857.833 2.436 1.22 4.77 2.772 6.847 4.67.534.46 1.018.976 1.525 1.47.477.525.973 1.035 1.415 1.59.335.386.648.79.96 1.2H44.238s-6.79 12.836-29.624 16.888c-4.285.723-11.91.762-14.042.758-.36 0-.57-.004-.57-.004v.452h43.548l12.7-17.104c.088.125.175.25.26.377.213.288.403.595.59.903a29.006 29.006 0 0 1 2.048 3.822c.606 1.32 1.086 2.703 1.494 4.103.422 1.4.69 2.847.907 4.297l.133 1.093c.038.366.053.735.084 1.097l.042.552c.008.183.008.37.01.552l.024 1.066c-.026.758-.015 1.57-.084 2.26-.03.36-.038.71-.087 1.077l-.135 1.092c-.038.365-.118.723-.175 1.084-.06.362-.118.724-.206 1.08l-.24 1.07-.294 1.063c-.415 1.396-.892 2.78-1.506 4.098-.598 1.323-1.27 2.61-2.055 3.82l-.287.454-.305.443c-.08.116-.156.23-.236.342l-12.685-17.08H-.002v.45s.21 0 .567-.003c2.128-.004 9.76.035 14.05.758 22.83 4.053 29.62 16.89 29.62 16.89h11.25c-.315.408-.632.817-.97 1.202-.443.56-.946 1.065-1.42 1.59-.506.494-.994 1.007-1.528 1.462-.516.483-1.07.918-1.606 1.358-.275.217-.56.42-.84.626l-.418.31-.435.29c-1.135.788-2.344 1.457-3.56 2.07-.31.145-.614.29-.923.437-.305.144-.62.26-.934.393-.617.276-1.258.478-1.887.707-.316.105-.64.19-.957.292-.317.097-.638.195-.962.265-.32.08-.64.163-.96.245-.32.073-.645.128-.965.194-.64.145-1.293.215-1.933.312-.32.055-.644.066-.965.1-.32.028-.64.07-.96.08-.325.015-.645.026-.96.038l-.455.02-.492-.008c-.332 0-.66-.004-.983-.008-.31-.02-.618-.04-.927-.055-2.482-.148-4.907-.654-7.16-1.366a29.387 29.387 0 0 1-6.268-2.81 31.764 31.764 0 0 1-8.148-6.966A31.605 31.605 0 0 1 1.135 38.52l-.568.04v-.004.004L0 38.595a32.756 32.756 0 0 0 6.477 17.663c.99 1.4 2.143 2.8 3.485 4.142a32.076 32.076 0 0 0 5.212 4.196A31.1 31.1 0 0 0 29.3 69.508c5.307.517 11.14-.31 16.48-2.86 5.335-2.51 10.208-6.63 13.586-11.95.86-1.314 1.6-2.718 2.265-4.156.675-1.44 1.213-2.944 1.674-4.477l.32-1.155.275-1.17c.094-.39.163-.786.232-1.178.064-.397.152-.79.198-1.19l.152-1.194c.054-.397.07-.813.103-1.22l.05-.616c.015-.21.01-.39.02-.583l.03-1.156-.03-1.24z" fill="#030404" mask="url(#b)"/></g></g></svg>