<svg width="200" height="45" viewBox="0 0 200 45" xmlns="http://www.w3.org/2000/svg" xmlns:xlink="http://www.w3.org/1999/xlink"><title>LandmarkAviation</title><defs><path id="a" d="M0 1.46h199.513V45.9H0V1.46z"/></defs><g fill="none" fill-rule="evenodd"><path d="M74.708 21.653h3.678l-1.793-5.655h-.046l-1.84 5.655zm-.273-10.135h4.292l6.06 16.154h-4.402l-1-2.895H73.73l-1.02 2.895h-4.336l6.06-16.154zM87.718 11.516h4.335l5.63 9.958h.047v-9.958h3.973V27.67h-4.335l-5.63-10.067h-.047V27.67H87.72V11.516z" fill="#1D1D1C"/><g transform="translate(0 -1)"><path d="M110.557 25.053h2c3.198-.067 4.47-1.313 4.47-4.55 0-2.94-1.588-4.367-4.47-4.367h-2v8.917zm-4.22-12.537h6.968c4.97 0 7.946 3.01 7.946 8.01 0 5.295-3.017 8.144-7.945 8.144h-6.97V12.516zM125.34 12.516h6.22l2.79 10.772h.046l2.794-10.772h6.22V28.67h-3.973V16.41h-.046l-3.407 12.26h-3.22l-3.405-12.26h-.05v12.26h-3.97V12.516zM152.763 22.653h3.678l-1.792-5.655h-.043l-1.842 5.655zm-.27-10.135h4.292l6.06 16.154h-4.405l-.998-2.895h-5.655l-1.02 2.895h-4.338l6.063-16.154zM170.043 19.53h3.54c1.27 0 1.956-.678 1.956-1.9 0-1.2-.956-1.74-2.138-1.74h-3.36v3.64zm-4.225-7.013h8.265c2.862 0 5.677 1.29 5.677 4.548 0 1.74-.84 3.393-2.545 4.05v.044c1.73.406 2.226 2.33 2.364 3.87.042.68.11 3.054.678 3.64h-4.176c-.362-.54-.433-2.122-.48-2.575-.112-1.63-.383-3.305-2.357-3.305h-3.202v5.88h-4.225V12.518zM183.96 12.516h4.22v6.2l5.338-6.2h5.244l-5.994 6.36 6.743 9.794h-5.243l-4.36-6.787-1.726 1.812v4.975h-4.22V12.516zM55.43 12.51h4.234v12.536h7.03v3.624H55.43V12.51zM58.05 41.647h2.695l-1.31-3.803h-.03l-1.355 3.803zm.218-6.36h2.345l3.89 10.37H62.13l-.786-2.312h-3.89l-.817 2.31H54.32l3.948-10.367zM80.733 45.656h-2.58l-3.376-10.368h2.358l2.318 7.286h.028l2.346-7.286h2.36l-3.453 10.368z" fill="#1D1D1C"/><mask id="b" fill="#fff"><use xlink:href="#a"/></mask><path d="M96.235 35.288h2.287v10.368h-2.287V35.288zM114.312 41.647h2.696l-1.31-3.803h-.032l-1.354 3.803zm.218-6.36h2.346l3.89 10.37h-2.376l-.786-2.312h-3.89l-.814 2.31h-2.318l3.948-10.367zM134.05 37.204h-3.112v-1.916h8.517v1.916h-3.116v8.452h-2.29v-8.452zM151.81 35.288h2.29v10.368h-2.29V35.288zM171.927 43.984c2.054 0 2.83-1.74 2.83-3.47 0-1.815-.776-3.56-2.83-3.56-2.054 0-2.825 1.745-2.825 3.56 0 1.73.77 3.47 2.825 3.47m0-8.945c3.22 0 5.115 2.395 5.115 5.474 0 2.99-1.894 5.385-5.115 5.385-3.218 0-5.112-2.397-5.112-5.386 0-3.08 1.894-5.475 5.112-5.475M189.76 35.288h2.273l4.34 6.955h.03v-6.955h2.142v10.367h-2.288l-4.326-6.94h-.03v6.94h-2.14V35.288zM0 1.46v39.918c10.835-13.92 23.908-26.206 38.796-35.964v.45A161.99 161.99 0 0 0 4.28 45.655h40.064V1.46H0z" fill="#1D1D1C" mask="url(#b)"/><path d="M44.344 1.46A161.944 161.944 0 0 0 4.28 45.658h40.064V1.46z" fill="#1D1D1C" mask="url(#b)"/></g></g></svg>