<svg width="198" height="61" viewBox="0 0 198 61" xmlns="http://www.w3.org/2000/svg" xmlns:xlink="http://www.w3.org/1999/xlink"><title>mountain_aviation</title><defs><path d="M2.02 24.57c.503 2.19 1.9 4.07 3.99 5.602-1.36.948-2.86 1.716-4.39 2.036.116.75.227 1.39.407 2.152 2.17-.277 4.3-1.385 6.207-2.823 4.42 2.283 10.813 3.445 18.17 3.262-.047.042-.09.082-.132.122-2.464 2.15-4.203 3.717-7.992 4.35.04.808.075 1.628.183 2.37 4.724-.52 8.06-3.012 10.688-5.552.352-.337.87-.88 1.492-1.54a73.236 73.236 0 0 0 9.748-1.558 94.41 94.41 0 0 0 1.967-.482c.01 1.647.305 3.226 1.08 4.022 1.654 1.687 5.45.454 6.75-.82-.056-.68-.207-1.258-.18-2.01-.825.478-2.156 1.334-3.194.82-.756-.373-.958-1.684-.96-3.005 13.065-4.06 22.776-11.113 25.08-17.967-3.322 5.744-12.713 11.593-24.867 15.17.53-4 2.024-9.446 2.936-12.997h-5.106c-1.31 1.447-4.202 4.718-6.71 7.547.95-4.12 2.246-10.068 3.246-13.984h-5.197C32 14.584 29.13 20.564 25.12 24.983c-.59.648-1.676 2.015-2.1 1.644-.945-.42.178-7.382.817-10.61.205-1.05.425-2.158.64-3.172.212-.973.392-1.878.55-2.923-.705.02-1.6.012-2.53.003-.84-.008-1.708-.017-2.483-.003-2.53 5.792-4.867 9.837-9 15.403-.674.905-1.737 2.12-3.04 3.286-2.283-1.347-3.786-3.073-4.26-5.146C1.908 15.564 15.487 4.96 34.233.594L34.217.48C13.764 4.447-.037 15.574 2.02 24.57zM23.658 30c1.335-.704 2.82-2.465 3.85-3.79 2.106-2.697 3.84-5.284 5.633-8.072.978-1.525 1.727-2.975 2.55-4.382-.865 3.86-2.245 9.51-2.57 14.073-1.363 1.503-2.538 2.81-3.64 3.97-7.72.587-14.484-.155-19.165-2.04a29.444 29.444 0 0 0 3.863-4.506c1.807-2.626 3.444-5.506 4.924-8.304.493-.933 1.086-1.835 1.636-2.786-.508 3.27-1.582 7.15-1.545 10.725.02 1.785.105 3.93 1 4.93.382.424 1.015.615 1.69.615.608 0 1.25-.154 1.774-.434zm14.785-4.018c1.948-2.22 4.485-5.258 6.093-7.16-.6 3.298-1.326 7.382-1.93 10.782-.003.017-.006.037-.012.057a81.764 81.764 0 0 1-9.01 1.707 708.774 708.774 0 0 0 4.86-5.385z" id="a"/><path d="M6.42 2.538c-.136.025-.367.148-.296.202.074.055.405.31.405.31L7.85 4.083c-.323.154-.274.223-.274.223.037.062.31-.04.445-.092l1.385 1.07c-.302.152-.254.215-.254.215.038.06.28-.026.425-.08l.447.348.085.06c-.136.03-.305.08-.5.14-.127.048-.31.12-.506.203-.348.15-.838.37-.932.43-.043.12.028.125.074.145l.408-.168c.01-.006.025-.017.04-.02.105-.04.233.045.285.2.03.07.032.148.015.208-.006.01-.01.023-.014.034a.16.16 0 0 1-.09.09h-.006c-.09.06-.266.138-.37.178.002.054.11.14.184.19-.05.02-.097.044-.134.058v-.003c-.06-.046-.105-.09-.114-.094a59.965 59.965 0 0 0-1.28-.97c.354-.32.003-.664-.145-.678-.166-.017-.96.15-.96.15S2.847 4.613 2.61 4.54c-.28-.093-.406.116-.423.273a.213.213 0 0 0 .003.094c.002.023.01.043.025.05a426.3 426.3 0 0 0 2.147 1.55s-.302.138-.647.31c-.063.034-.083.114-.07.188.016.034.018.046.038.086.032.043.077.075.134.075.063 0 .616-.077.867-.11l-.006.036-.017.086c.056.383.264 1.84.343 2.335.07.392.015.52.157.5.12-.016.576-.182.747-.262l.117-.457c.208.01 1.303.06 1.933.104.964.057 1.967-.19 2.292-.277.01-.054.028-.108.045-.162.01-.037.026-.072.037-.11.165-.056.308.044.388.14.074.09.156.335.048.47a.51.51 0 0 1-.1.042c-.054.017-.122.01-.122.01.048.093.14.127.32.118.3-.017 1.25-.14 1.598-.228.348-.094.508-.146.673-.223.017-.008.046-.02.072-.034l.69.777c.016.022.03.05.047.077-.365.17-.308.245-.308.245.03.062.26-.015.415-.072a.627.627 0 0 1 .05.07l.615 1.303.005.015c.015.03.026.054.04.077a.452.452 0 0 0-.057.02c-.473.206-.405.29-.405.29.043.076.357-.047.502-.1a.22.22 0 0 0 .046-.02c.012.02.024.047.038.076l.65 1.38a.96.96 0 0 1 .045.095c.015.03.03.055.04.08h-.003c-.476.206-.407.29-.407.29.045.073.353-.044.5-.1.007.024.02.047.033.076l.008.022s.696 1.46.847 1.795c.152.334.29.64.335.668.048.03.13 0 .49-.194.362-.187.18-1.024.057-1.452-.122-.43-.827-2.78-1.243-4.188-.417-1.407-.37-1.76-.314-2.023.002-.023.002-.04.008-.06.09-.566 1.936-1.116 2.634-1.356.25-.08.918-.3 1.19-.485a5.19 5.19 0 0 0 .404-.234c.11-.08.13-.213.106-.327-.015-.143-.112-.2-.146-.208-.04-.014-.436-.14-.59-.19a67.587 67.587 0 0 0-1.026-.33c-.56-.18-1.494.083-2.247.283-.574.148-1.834.508-2.772.788l-.108.028-.132-.07s-4.84-2.767-5.642-3.247c-.58-.348-.875-.416-1.043-.416-.063 0-.106.012-.143.018zm2.304 4.09c-.063.026-.083.13-.046.234.023.07.066.123.117.146.014.006.04.017.066.006.026-.01.04-.032.05-.05a.24.24 0 0 0-.004-.182c-.03-.09-.1-.154-.16-.154h-.022zm1.73 2.32c-.076.024-.1.152-.054.278a.32.32 0 0 0 .15.177c.02.005.053.017.084.005.03-.008.05-.037.06-.057a.283.283 0 0 0-.01-.218c-.038-.112-.124-.19-.198-.19-.01 0-.02 0-.03.007z" id="c"/><path id="e" d="M0 2.6h197.065v65.908H0"/><path id="g" d="M0 2.6h197.065v65.908H0V2.6z"/><path id="i" d="M0 2.6h197.065v65.908H0"/><path id="k" d="M0 2.6h197.065v65.908H0V2.6z"/></defs><g fill="none" fill-rule="evenodd"><path d="M63.723 30.84c.5 2.194 1.898 4.072 3.988 5.605-1.36.948-2.858 1.715-4.39 2.035.118.754.23 1.393.408 2.15 2.17-.274 4.297-1.382 6.207-2.824 4.422 2.287 10.817 3.45 18.17 3.27l-.135.12c-2.46 2.148-4.2 3.715-7.988 4.346.04.81.074 1.63.182 2.372 4.724-.52 8.057-3.01 10.69-5.552.346-.337.868-.876 1.49-1.538a72.703 72.703 0 0 0 11.714-2.04c.012 1.646.305 3.224 1.08 4.02 1.654 1.688 5.452.455 6.75-.82-.055-.675-.203-1.257-.183-2.008-.822.477-2.153 1.333-3.19.82-.756-.375-.96-1.685-.96-3.007 13.064-4.057 22.775-11.113 25.078-17.967-3.32 5.743-12.712 11.595-24.863 15.17.53-4 2.022-9.447 2.93-12.998H105.6c-1.312 1.447-4.203 4.722-6.71 7.548.948-4.12 2.245-10.068 3.246-13.988h-5.198c-3.235 5.298-6.103 11.28-10.118 15.7-.587.645-1.676 2.018-2.095 1.645-.947-.42.18-7.382.815-10.61.206-1.048.425-2.16.645-3.172.208-.973.387-1.878.544-2.923-.707.02-1.602.01-2.53.003a90.058 90.058 0 0 0-2.482-.003c-2.53 5.795-4.866 9.837-9 15.403-.67.905-1.737 2.12-3.042 3.285-2.28-1.347-3.78-3.074-4.257-5.146-1.807-7.902 11.772-18.503 30.517-22.87l-.014-.115c-20.454 3.968-34.256 15.095-32.197 24.09m21.64 5.434c1.33-.708 2.815-2.47 3.847-3.793 2.104-2.698 3.838-5.284 5.63-8.073.98-1.52 1.73-2.974 2.553-4.382-.867 3.863-2.247 9.512-2.572 14.073-1.362 1.508-2.536 2.81-3.64 3.972-7.72.59-14.483-.154-19.167-2.04a29.307 29.307 0 0 0 3.866-4.506c1.807-2.626 3.443-5.506 4.923-8.303.493-.934 1.083-1.836 1.636-2.79-.508 3.275-1.583 7.154-1.546 10.73.017 1.782.106 3.932 1.004 4.93.38.423 1.012.614 1.687.614.608 0 1.25-.154 1.777-.43m14.782-4.023c1.947-2.22 4.484-5.26 6.092-7.156a3073.67 3073.67 0 0 0-1.938 10.836 82.716 82.716 0 0 1-9.012 1.707c2.272-2.492 4.54-5.033 4.858-5.387" fill="#1D1D1C"/><g transform="translate(61.7 6.273)"><mask id="b" fill="#fff"><use xlink:href="#a"/></mask><path d="M68.79-11.67l9.173 52.07L2.1 53.795-7.07 1.722 68.79-11.67z" fill="#1D1D1C" mask="url(#b)"/></g><path d="M99.48.247c-.133.023-.364.148-.292.202.07.05.402.31.402.31l1.325 1.028c-.325.157-.276.226-.276.226.04.062.312-.04.446-.092l1.383 1.07c-.303.152-.255.215-.255.215.037.06.283-.03.425-.08l.45.348.086.057a9.88 9.88 0 0 0-.502.143c-.125.048-.31.12-.504.205-.348.15-.838.37-.935.43-.04.12.028.124.077.144l.404-.168c.015-.01.026-.017.04-.02.11-.04.234.046.288.197a.35.35 0 0 1 .015.214c-.007.008-.01.02-.016.03a.164.164 0 0 1-.094.093h-.003a2.38 2.38 0 0 1-.373.18c.006.05.114.137.188.188-.054.023-.1.043-.137.057v-.003c-.057-.046-.102-.09-.114-.097-.153-.13-1.28-.965-1.28-.965.357-.322.004-.665-.144-.68-.166-.016-.96.152-.96.152s-3.217-1.31-3.454-1.384c-.28-.092-.404.117-.424.274a.214.214 0 0 0 .002.094c.006.023.015.043.026.05.088.07 2.147 1.55 2.147 1.55s-.302.138-.644.31c-.067.034-.087.11-.073.188l.037.086c.032.042.077.074.137.074.06 0 .614-.077.865-.11l-.006.036-.018.085c.054.383.263 1.84.345 2.338.07.388.012.517.154.494.12-.017.577-.18.748-.26L99.085 7c.21.01 1.306.06 1.936.103.962.057 1.968-.188 2.29-.28.014-.05.03-.105.05-.16.01-.034.02-.07.036-.108.162-.054.308.043.387.14.075.09.157.334.046.47h.002c-.02.01-.06.03-.1.04-.054.018-.123.01-.123.01.045.094.14.128.316.12.302-.015 1.254-.14 1.6-.232.347-.09.507-.14.675-.22.015-.008.044-.02.07-.034l.692.778c.017.023.032.05.046.072-.365.17-.308.248-.308.248.034.06.262-.014.42-.07.016.022.03.044.045.07l.615 1.302.01.014.036.077a.304.304 0 0 0-.054.02c-.476.207-.405.292-.405.292.043.072.356-.048.5-.102a.246.246 0 0 0 .047-.02c.012.022.023.048.037.077l.65 1.378c.002 0 .047.097.047.097.014.03.026.055.04.08h-.006c-.472.206-.403.292-.403.292.042.07.35-.046.496-.1l.034.077.01.018s.697 1.464.848 1.798c.15.334.288.637.333.668.05.03.132 0 .49-.194.36-.19.178-1.025.055-1.456-.123-.428-.824-2.777-1.243-4.185-.416-1.408-.368-1.762-.314-2.024l.01-.06c.09-.566 1.938-1.116 2.633-1.36.25-.076.917-.296 1.19-.48.07-.036.374-.213.403-.236.114-.082.134-.214.108-.328-.016-.143-.113-.2-.147-.21-.037-.012-.436-.138-.587-.19a79.71 79.71 0 0 0-1.027-.328c-.562-.18-1.497.083-2.25.283-.57.148-1.83.508-2.77.788l-.11.028-.13-.07s-4.842-2.767-5.643-3.247c-.58-.35-.875-.416-1.043-.416-.06 0-.106.01-.143.017m2.305 4.093c-.06.023-.083.13-.046.234a.26.26 0 0 0 .116.143c.014.008.04.017.066.006a.085.085 0 0 0 .048-.046.245.245 0 0 0 0-.186c-.03-.09-.102-.156-.16-.156-.008 0-.017.003-.025.006m1.73 2.318c-.074.026-.1.15-.054.277.033.08.09.148.15.177.022.006.054.017.085.006.03-.012.05-.038.06-.058a.294.294 0 0 0-.006-.22c-.044-.11-.13-.188-.2-.188a.143.143 0 0 0-.035.006" fill="#1D1D1C"/><g transform="translate(93.062 -2.29)"><mask id="d" fill="#fff"><use xlink:href="#c"/></mask><path d="M19.747-.58l2.888 16.4-19.908 3.516L-.16 2.934 19.746-.58z" fill="#1D1D1C" mask="url(#d)"/></g><path d="M1.452 57.167c0 .967.077 1.635.233 1.998.157.362.442.628.856.796v.367H0v-.366c.403-.173.68-.444.833-.804.154-.357.23-1.022.23-1.99V42.76H.17v-.363h3.446l.68 5.592c.084.662.166 1.375.25 2.137.082.763.162 1.556.238 2.38h.206l1.266-10.11h3.472v.363h-.775v17.2h.775v.367H5.734v-.366h.798V49.48c0-1.405.026-2.938.074-4.602.006-.257.01-.434.01-.53H6.39l-1.988 15.98H3.305L2.062 48.765a82.89 82.89 0 0 1-.197-2.198c-.06-.748-.114-1.52-.17-2.318H1.45v12.917z" fill="#1D1D1C"/><g transform="translate(0 -8)"><mask id="f" fill="#fff"><use xlink:href="#e"/></mask><path d="M20.033 54.784V67.03c0 .37.055.648.16.834a.514.514 0 0 0 .476.282c.21 0 .37-.094.475-.282.106-.186.16-.463.16-.834V54.784c0-.368-.054-.642-.16-.828a.514.514 0 0 0-.476-.277c-.212 0-.37.09-.477.276-.105.186-.16.46-.16.828m-2.13 6.13c0-2.54.232-4.44.69-5.707.463-1.268 1.153-1.9 2.073-1.9.92 0 1.614.635 2.08 1.91.466 1.27.7 3.172.7 5.696 0 2.52-.234 4.42-.7 5.69-.466 1.27-1.16 1.906-2.08 1.906-.92 0-1.61-.635-2.072-1.897-.46-1.267-.69-3.165-.69-5.7" fill="#1D1D1C" mask="url(#f)"/></g><g transform="translate(0 -8)"><mask id="h" fill="#fff"><use xlink:href="#g"/></mask><path d="M30.878 53.777h-.64v-.292h3.385v.292h-.652v12.548c0 .702.06 1.16.18 1.373.12.208.325.31.62.31.532 0 .923-.276 1.168-.835.245-.557.368-1.467.368-2.732v-8.346c0-.836-.072-1.404-.217-1.707-.144-.3-.4-.502-.762-.61v-.292h2.286v.292c-.365.108-.62.31-.764.61-.142.303-.217.87-.217 1.707v8.838c0 1.265-.188 2.178-.56 2.737-.375.56-.976.84-1.803.84-.562 0-1.04-.138-1.434-.412a1.936 1.936 0 0 1-.778-1.128 4.61 4.61 0 0 1-.137-.782c-.028-.294-.042-.708-.042-1.236V53.777z" fill="#1D1D1C" mask="url(#h)"/></g><path d="M43.79 47.01v10.708c0 .822.074 1.39.22 1.7.148.312.405.517.772.617v.292h-2.297v-.292c.37-.1.627-.305.772-.616.146-.312.217-.88.217-1.702v-11.94h-.736v-.292h2.85l1.005 4.627.05.25c.454 2.134.788 3.9.996 5.296h.12v-7.565c0-.836-.072-1.404-.215-1.704-.14-.302-.393-.504-.755-.613v-.29h2.277v.29c-.37.11-.627.31-.77.614-.14.3-.21.87-.21 1.705v12.232h-1.58l-1.896-9.472c-.115-.596-.232-1.21-.35-1.844-.116-.63-.23-1.295-.34-2h-.13zM55.303 45.486h6.364v6.37h-.243c-.296-2.225-.58-3.795-.858-4.708-.273-.914-.596-1.37-.96-1.37h-.07v14.258h.657v.29H56.78v-.29h.642v-14.26h-.07c-.364 0-.686.464-.97 1.392-.286.924-.57 2.49-.862 4.69h-.217v-6.372zM69.974 56.958l-.792-7.496-1.1 7.496h1.892zm-3.352 3.368v-.29c.47-.04.815-.823 1.038-2.347l.025-.173 1.742-12.03h1.332l1.652 14.548h.6v.29h-3.354v-.29h.64l-.29-2.69H68.03c-.063.384-.105.7-.13.955a6.85 6.85 0 0 0-.04.673c0 .394.06.67.176.828.117.158.32.235.607.235v.29h-2.02zM79.42 60.326v-.29h.64v-14.26h-.64v-.29h3.374v.29h-.64v14.26h.64v.29H79.42zM90.355 47.01v10.708c0 .822.074 1.39.22 1.7.147.312.404.517.772.617v.292H89.05v-.292c.37-.1.626-.305.772-.616.145-.312.216-.88.216-1.702v-11.94h-.735v-.292h2.85l1.004 4.627c.012.05.03.137.05.25.455 2.134.785 3.9.996 5.296h.12v-7.565c0-.836-.07-1.404-.214-1.704-.14-.302-.394-.504-.756-.613v-.29h2.275v.29c-.37.11-.625.31-.768.614-.143.3-.214.87-.214 1.705v12.232h-1.576l-1.896-9.472c-.117-.596-.234-1.21-.35-1.844-.118-.63-.232-1.295-.346-2h-.125zM110.973 56.23l-.958-9.042-1.33 9.043h2.288zm-4.05 4.095v-.363c.57-.048.988-.993 1.256-2.834l.027-.206 2.107-14.526h1.608l2 17.566h.72v.363h-4.048v-.363h.772l-.35-3.245h-2.392c-.074.46-.13.845-.16 1.15-.03.308-.046.58-.046.81 0 .48.072.81.21 1 .14.19.386.285.737.285v.363h-2.443zM122.118 45.777v-.292h3.074v.292h-.51l1.08 9.805 1.012-7.827c.023-.183.04-.357.05-.528.013-.172.02-.326.02-.466 0-.333-.053-.575-.158-.724-.106-.145-.288-.23-.55-.26l-.01-.29h1.848v.29c-.407.03-.695.683-.858 1.967-.01.094-.02.163-.025.212l-1.627 12.37h-1.283l-1.642-14.548h-.42zM134.17 60.326v-.29h.642v-14.26h-.642v-.29h3.376v.29h-.642v14.26h.642v.29h-3.376zM147.02 56.958l-.793-7.496-1.1 7.496h1.892zm-3.354 3.368v-.29c.47-.04.816-.823 1.038-2.347l.026-.173 1.745-12.03h1.328l1.654 14.548h.598v.29h-3.352v-.29h.64l-.29-2.69h-1.975c-.066.384-.11.7-.134.955a6.85 6.85 0 0 0-.04.673c0 .394.06.67.176.828.117.158.32.235.61.235v.29h-2.024zM155.323 45.486h6.364v6.37h-.24c-.296-2.225-.584-3.795-.858-4.708-.277-.914-.6-1.37-.964-1.37h-.07v14.258h.654v.29h-3.41v-.29h.642v-14.26h-.07c-.364 0-.686.464-.97 1.392-.283.924-.57 2.49-.862 4.69h-.217v-6.372zM168.24 60.326v-.29h.642v-14.26h-.64v-.29h3.374v.29h-.64v14.26h.64v.29h-3.375z" fill="#1D1D1C"/><g transform="translate(0 -8)"><mask id="j" fill="#fff"><use xlink:href="#i"/></mask><path d="M180.593 54.784V67.03c0 .37.054.648.16.834a.514.514 0 0 0 .476.282c.21 0 .37-.094.475-.282.105-.186.157-.463.157-.834V54.784c0-.368-.052-.642-.157-.828a.514.514 0 0 0-.476-.277c-.212 0-.372.09-.477.276-.106.186-.16.46-.16.828m-2.13 6.13c0-2.54.23-4.44.69-5.707.462-1.268 1.152-1.9 2.073-1.9.92 0 1.614.635 2.08 1.91.466 1.27.7 3.172.7 5.696 0 2.52-.234 4.42-.7 5.69-.466 1.27-1.16 1.906-2.08 1.906-.92 0-1.61-.635-2.073-1.897-.46-1.267-.69-3.165-.69-5.7" fill="#1D1D1C" mask="url(#j)"/></g><g transform="translate(0 -8)"><mask id="l" fill="#fff"><use xlink:href="#k"/></mask><path d="M191.79 55.01v10.708c0 .822.073 1.39.218 1.7.15.312.405.517.773.617v.292h-2.297v-.292c.37-.1.627-.305.773-.616.145-.312.216-.88.216-1.702v-11.94h-.735v-.292h2.85l1.004 4.627c.013.05.033.137.055.25.45 2.134.784 3.9.993 5.296h.12v-7.565c0-.836-.072-1.404-.212-1.704-.142-.302-.393-.504-.755-.613v-.29h2.276v.29c-.374.11-.627.31-.77.614-.14.3-.21.87-.21 1.705v12.232h-1.58l-1.893-9.472a108.923 108.923 0 0 1-.698-3.845h-.127z" fill="#1D1D1C" mask="url(#l)"/></g></g></svg>