<svg width="200" height="22" viewBox="0 0 200 22" xmlns="http://www.w3.org/2000/svg"><title>Prime Jet Logo_noglobe-Black</title><g fill="none" fill-rule="evenodd"><path d="M8.484 9.196l5.622-3.946H5.31L0 9.196h8.484" fill="#1A1918"/><path d="M26.126 1.862C24.136.67 21.004.074 16.734.074H8.678v4.51h7.44v.003h.76c1.686 0 2.897.212 3.633.635.736.424 1.104 1.1 1.104 2.03 0 .938-.365 1.608-1.095 2.014-.73.404-1.968.607-3.714.607h-.916V9.86H8.678v11.523h7.212V14.4h1.167c3.97 0 6.973-.594 9.006-1.78 2.033-1.188 3.05-2.95 3.05-5.287 0-2.456-.995-4.28-2.987-5.47M61.53.074h7.194v21.31H61.53V.073zM96.397.074l-5.024 13.4-5.077-13.4h-7.572l-4.215 21.31h7.12l2.316-13.03 4.915 13.03h4.97l4.917-13.03 2.28 13.03h7.175L103.968.073h-7.57M113.807 21.383h15.842V16.69h-8.63v-3.836h8.27V8.327h-8.27v-3.56h8.63V.073h-15.843v21.31M147.18 12.136c0 1.914-.136 3.193-.41 3.837-.277.644-.898.966-1.867.966-.49 0-.94-.148-1.346-.442a2.393 2.393 0 0 1-.86-1.104l-4.593 3.188c.658 1.076 1.634 1.888 2.933 2.436 1.297.547 2.89.82 4.78.82 2.835 0 4.97-.666 6.406-2s2.153-3.308 2.153-5.92V.073h-7.195v12.062" fill="#1A1918"/><path d="M161.644 21.383h15.842V16.69h-8.63v-3.836h8.27V8.327h-8.27v-3.56h8.63V.073h-15.842v21.31" fill="#A4ACBD"/><path d="M161.345 21.383h15.842V16.69h-8.63v-3.836h8.27V8.327h-8.27v-3.56h8.63V.073h-15.842v21.31" fill="#1A1918"/><path d="M181.493.074V4.96h5.652v16.423h7.212V4.96h5.616V.073h-18.48" fill="#A4ACBD"/><path d="M181.193.074V4.96h5.652v16.423h7.212V4.96h5.617V.073h-18.48M46.522 9.51c-.754.44-1.89.355-3.48.355h-1.31V4.587h1.436c1.64 0 2.802.228 3.49.683.688.455 1.03 1.207 1.03 2.257 0 .93-.413 1.54-1.166 1.983zM49 12.88c2.01-.33 3.54-1.013 4.592-2.048 1.053-1.035 1.58-2.37 1.58-4.01 0-2.336-.91-4.045-2.728-5.126C50.624.616 47.468.074 42.97.074h-8.45v21.31h7.213v-8.28l6.35 8.28h8.487L49 12.88z" fill="#1A1918"/></g></svg>