<?xml version="1.0" encoding="UTF-8" standalone="no"?>
<svg
   xmlns:dc="http://purl.org/dc/elements/1.1/"
   xmlns:cc="http://creativecommons.org/ns#"
   xmlns:rdf="http://www.w3.org/1999/02/22-rdf-syntax-ns#"
   xmlns:svg="http://www.w3.org/2000/svg"
   xmlns="http://www.w3.org/2000/svg"
   viewBox="0 0 198.66667 200"
   height="200"
   width="198.66667"
   xml:space="preserve"
   id="svg2"
   version="1.1"><metadata
     id="metadata8"><rdf:RDF><cc:Work
         rdf:about=""><dc:format>image/svg+xml</dc:format><dc:type
           rdf:resource="http://purl.org/dc/dcmitype/StillImage" /></cc:Work></rdf:RDF></metadata><defs
     id="defs6" /><g
     transform="matrix(1.3333333,0,0,-1.3333333,0,200)"
     id="g10"><g
       transform="scale(0.1)"
       id="g12"><path
         id="path14"
         style="fill:#f35243;fill-opacity:1;fill-rule:evenodd;stroke:none"
         d="M 691.715,1442.34 C 1084.86,1480.09 1413.59,1161.38 1438.82,805.965 1467.69,399.188 1169.21,83.5977 799.246,52.8047 397.605,19.3789 76.6133,328.395 48.8477,693.066 32.3125,910.168 121.594,1099.57 223.746,1212.99 c 27.367,30.37 58.469,58.98 90.199,83.36 33.422,25.68 64.821,46.94 105.743,68.01 88.789,45.72 160.718,67.28 272.027,77.98 z M 212.023,1265.78 C 101.066,1154.85 0.363281,967.629 2.45313,737.426 6.11719,334.008 338.953,4.11719 744.906,5.65625 1389.72,8.10547 1735.02,779.418 1276.36,1264.27 973.059,1584.88 517.285,1570.96 212.023,1265.78" /><path
         id="path16"
         style="fill:#f35243;fill-opacity:1;fill-rule:evenodd;stroke:none"
         d="m 640.176,865.109 c -20.598,67.817 -17.953,117.368 -100.762,117.516 -133.988,0.25 -124.738,13.633 -171.918,-155.777 -4.703,-16.871 -24.512,-80.899 17.609,-63.403 16.399,6.821 25.211,56.645 31.61,78.403 21.508,73.078 10.101,43.722 25.578,56.39 l 12.762,13.66 -54.578,-235.921 48.277,-1.25 L 448.727,614 c -0.032,-61.461 -11.872,-130.402 26.367,-129.465 24.539,0.61 23.609,19.633 23.601,42.613 l 2.032,148.489 18.168,-0.262 0.898,-102.52 c -0.25,-45.335 -8.168,-92.039 28.344,-88.226 23.238,2.43 21.996,21.969 21.996,42.519 l 0.332,147.692 44.871,0.738 c 3.527,26.988 -48.742,204.938 -48.32,221.719 0.347,14.051 -2.059,5.828 4.199,13.949 14.988,-3.09 9.851,2.602 16.09,-15.871 14.121,-41.816 24.07,-136.457 56.101,-133.367 42.219,4.09 30.598,143.32 69.508,149.437 5.953,-8.777 5.91,-22.078 5.992,-32.066 l -0.742,-297.371 c 0.012,-38.969 -9.566,-116.141 43.234,-95.09 21.305,8.488 16.247,45.16 16.278,72.23 0.097,52.481 -4.41,136.79 1.769,180.688 l 18.758,-0.59 c 1.113,-39.988 -5.226,-236.098 10.672,-248.988 14.758,-11.992 36.188,-5.442 44,6.617 17.793,27.473 -6.98,390.914 10.891,414.102 17.648,-1.942 12.152,4.402 19.011,-17.539 l 22.028,-82.918 c 15.543,-59.961 18.293,-45.813 78.183,-63.094 0.008,-26.946 -8.175,-231.418 8.188,-267.406 l 30.524,4.66 2.84,124.718 c 3.55,18.93 -4.13,6.977 8.35,14 22.07,-12.652 -3.21,-85.39 12.18,-139.14 30.75,-10.293 37.41,1.648 37.59,33.43 l -0.36,151.167 c -0.25,46.012 -7.64,56.5 10.02,62.43 10.19,-12.129 5.75,-39.387 5.78,-57.859 l 0.02,-4.571 c 0.05,-26.73 1.61,-34.449 28.04,-28.648 15.52,192.09 -19.36,135.688 -169.613,149.121 -46.024,117.32 -24.402,192.688 -120,193.25 -40.992,0.25 -120.223,7.262 -147.051,-11.371 -34.488,-23.949 -28,-71.441 -49.32,-106.098" /><path
         id="path18"
         style="fill:#f35243;fill-opacity:1;fill-rule:evenodd;stroke:none"
         d="m 490.965,1093.52 c -66.5,-29.97 -20.5,-116.141 39.25,-91.17 58.383,24.4 22.449,118.97 -39.25,91.17" /><path
         id="path20"
         style="fill:#f35243;fill-opacity:1;fill-rule:evenodd;stroke:none"
         d="m 764.766,1093.98 c -66.969,-28.76 -22.161,-114.582 35.39,-92.18 60.77,23.66 24.481,117.89 -35.39,92.18" /><path
         id="path22"
         style="fill:#f35243;fill-opacity:1;fill-rule:evenodd;stroke:none"
         d="m 997.586,828.848 c 10.824,-40.25 79.104,-28.782 66.504,21.422 -9.55,38.117 -79.832,28.187 -66.504,-21.422" /></g></g></svg>