<?xml version="1.0" encoding="UTF-8" standalone="no"?>
<svg
   xmlns:dc="http://purl.org/dc/elements/1.1/"
   xmlns:cc="http://creativecommons.org/ns#"
   xmlns:rdf="http://www.w3.org/1999/02/22-rdf-syntax-ns#"
   xmlns:svg="http://www.w3.org/2000/svg"
   xmlns="http://www.w3.org/2000/svg"
   viewBox="0 0 198.66667 200"
   height="200"
   width="198.66667"
   xml:space="preserve"
   id="svg2"
   version="1.1"><metadata
     id="metadata8"><rdf:RDF><cc:Work
         rdf:about=""><dc:format>image/svg+xml</dc:format><dc:type
           rdf:resource="http://purl.org/dc/dcmitype/StillImage" /></cc:Work></rdf:RDF></metadata><defs
     id="defs6" /><g
     transform="matrix(1.3333333,0,0,-1.3333333,0,200)"
     id="g10"><g
       transform="scale(0.1)"
       id="g12"><path
         id="path14"
         style="fill:#d064b3;fill-opacity:1;fill-rule:evenodd;stroke:none"
         d="m 634.098,719.906 c 24.312,71.332 -19.739,75.805 32.73,107.121 C 699,770.809 615.98,643.898 588.52,600.301 534.148,615.41 482.277,671.34 448.84,625.66 391.148,546.871 611.629,493.969 616.508,495.359 c 27.801,19.782 30.801,27.95 52.019,62.301 l 48.614,64.09 86.468,-59.34 C 787.801,492.598 736.41,440.691 774.52,390.07 858.457,328.738 908.27,580.109 898.43,600.801 877.668,629.359 804.008,679.539 764.258,695 l 21.133,87.027 c 16.539,-9.257 32.449,-76.339 171.187,-21.347 35.649,14.129 63.002,42.699 27.871,76.769 -28.531,27.641 -75.57,3.989 -117.781,-1.09 -72.441,150.282 -76.758,126.239 -236.789,74.512 -59.68,-19.305 -91.43,-18.961 -85.68,-93.781 6.321,-82.129 17.641,-107.68 89.899,-97.184 z M 757.547,1099.8 c -88.629,-68.31 17.32,-164.452 87,-114.991 68.461,48.571 -2.211,180.351 -87,114.991" /><path
         id="path16"
         style="fill:#d064b3;fill-opacity:1;fill-rule:evenodd;stroke:none"
         d="M 695.738,1442.81 C 1087.82,1475.37 1417.74,1164.38 1440.06,802.211 1464.93,398.801 1165.76,75.4492 799.02,52.8398 682.879,45.6797 587.828,61.6875 492.68,98.3086 413.719,128.688 328.918,180.898 278.059,230.949 152.871,354.141 59.9453,502.309 49.7188,696.84 28.168,1106.4 320.578,1411.66 695.738,1442.81 Z m 64.114,48.46 c -14.543,-0.03 -16.856,0.52 -31.903,-0.21 -183.07,2.19 -394.89,-102.31 -512.609,-224.14 C -246.242,789.25 96.418,5.89844 744.09,6.4375 c 544.53,0.44141 889.68,554.9645 681.28,1038.1925 -34.21,79.33 -89.8,163.75 -148.71,221.59 -63.79,62.62 -123.96,108.16 -216.48,153.68 -68.141,33.52 -202.16,72.32 -300.328,71.37" /></g></g></svg>