<?xml version="1.0" encoding="UTF-8" standalone="no"?>
<svg
   xmlns:dc="http://purl.org/dc/elements/1.1/"
   xmlns:cc="http://creativecommons.org/ns#"
   xmlns:rdf="http://www.w3.org/1999/02/22-rdf-syntax-ns#"
   xmlns:svg="http://www.w3.org/2000/svg"
   xmlns="http://www.w3.org/2000/svg"
   viewBox="0 0 198.66667 198.66667"
   height="198.66667"
   width="198.66667"
   xml:space="preserve"
   id="svg2"
   version="1.1"><metadata
     id="metadata8"><rdf:RDF><cc:Work
         rdf:about=""><dc:format>image/svg+xml</dc:format><dc:type
           rdf:resource="http://purl.org/dc/dcmitype/StillImage" /></cc:Work></rdf:RDF></metadata><defs
     id="defs6" /><g
     transform="matrix(1.3333333,0,0,-1.3333333,0,198.66667)"
     id="g10"><g
       transform="scale(0.1)"
       id="g12"><path
         id="path14"
         style="fill:#37ba17;fill-opacity:1;fill-rule:evenodd;stroke:none"
         d="M 698.297,1437.58 C 1090.38,1470.14 1420.29,1159.15 1442.62,796.969 1467.49,393.559 1168.32,70.2109 801.578,47.6094 685.43,40.4414 590.379,56.4492 495.23,93.0703 416.266,123.457 331.477,175.66 280.609,225.719 155.43,348.898 62.4961,497.078 52.2695,691.598 30.7188,1101.16 323.129,1406.42 698.297,1437.58 Z m 64.113,48.46 c -14.551,-0.04 -16.863,0.52 -31.902,-0.22 -183.078,2.2 -394.891,-102.31 -512.61,-224.14 C -243.691,784.012 98.9688,0.660156 746.648,1.19922 1291.18,1.64844 1636.32,556.16 1427.92,1039.4 c -34.21,79.32 -89.8,163.75 -148.71,221.58 -63.79,62.62 -123.95,108.17 -216.47,153.68 -68.15,33.52 -202.17,72.32 -300.33,71.38" /><path
         id="path16"
         style="fill:#37ba17;fill-opacity:1;fill-rule:evenodd;stroke:none"
         d="m 764.746,1147.34 430.764,-257.5 -16.66,-22.09 -415.592,248.43 -414.11,-247.543 -12.761,22.64 z m 0.094,-66.62 323.36,-201.181 V 500.359 H 422.508 v 372.868 z m -7.371,-88.47 c 62.82,0 113.75,-50.93 113.75,-113.762 0,-62.828 -50.93,-113.75 -113.75,-113.75 -62.832,0 -113.762,50.922 -113.762,113.75 0,62.832 50.93,113.762 113.762,113.762" /></g></g></svg>