<?xml version="1.0" encoding="UTF-8" standalone="no"?>
<svg
   xmlns:dc="http://purl.org/dc/elements/1.1/"
   xmlns:cc="http://creativecommons.org/ns#"
   xmlns:rdf="http://www.w3.org/1999/02/22-rdf-syntax-ns#"
   xmlns:svg="http://www.w3.org/2000/svg"
   xmlns="http://www.w3.org/2000/svg"
   viewBox="0 0 198.66667 200"
   height="200"
   width="198.66667"
   xml:space="preserve"
   id="svg2"
   version="1.1"><metadata
     id="metadata8"><rdf:RDF><cc:Work
         rdf:about=""><dc:format>image/svg+xml</dc:format><dc:type
           rdf:resource="http://purl.org/dc/dcmitype/StillImage" /></cc:Work></rdf:RDF></metadata><defs
     id="defs6" /><g
     transform="matrix(1.3333333,0,0,-1.3333333,0,200)"
     id="g10"><g
       transform="scale(0.1)"
       id="g12"><path
         id="path14"
         style="fill:#f87352;fill-opacity:1;fill-rule:evenodd;stroke:none"
         d="m 677.305,1056.56 c 4.199,3.73 49.597,1.87 54.703,1.85 -0.106,9.05 -2.305,61.35 2.297,64.57 1.5,20.55 33,36.48 53.3,15.31 16.2,-16.97 5.602,-54.53 9.098,-80.66 45.902,0.7 95.703,8.54 96.199,-56.28 l -258.199,-0.34 c 0.301,17.14 2.5,28.73 10.602,38.78 5.5,6.82 20.5,18.53 32,16.77 z M 645.004,408.199 h 237.601 c 12.899,6.809 33.297,6.739 48.098,36.239 8.004,16.179 8.5,56.511 6.301,77.378 l -112.5,0.071 c -2.301,2.16 -1.699,2.324 -1.598,9.101 0,4.403 -0.301,6.231 0.797,10.559 13.602,2.941 88.5,-0.981 112.902,0.973 l 0.098,91.25 c -24.996,2.16 -98.898,-2.102 -112.898,0.941 -1.602,5.328 -1.602,14.437 0.101,19.746 l 112.899,0.609 -0.5,82.793 -111.399,-0.332 c -2.703,1.84 -1.402,-3.699 -2.703,3.782 0,5.75 -0.699,10.589 1.199,15.808 9.903,4.203 93.004,-1.5 112.805,1.481 l -0.504,89.738 -111.699,0.07 -0.098,18.742 113.399,0.661 c 0.398,23.05 2,60.589 -0.301,82.097 -1.301,11.762 -6.301,22.289 -11.297,29.824 -10.504,15.891 -11.305,1.786 -12.102,29.05 -0.8,28.14 -11.898,43.34 -27.3,55.62 -19.102,15.36 -39.098,14.64 -68.5,14.19 -4.7,22.64 4.8,38.95 -6.801,62.5 -11.899,24.22 -32.602,24.52 -40.699,28.17 h -14.602 c -9.996,-6.14 -26.098,-5.81 -37.898,-29.3 -8.399,-16.51 -3.399,-55.32 -6.598,-60.27 -3.902,-3.92 -27.504,1.87 -48.203,-4.13 -25.5,-7.43 -45.598,-30.64 -48.297,-57.07 -0.602,-5.66 -0.102,-22.463 -1.402,-25.861 -1.098,-2.82 -8.801,-9.039 -12.2,-14.41 -15.5,-24.262 -10.8,-61.059 -10.703,-94.66 0,-46.871 -1.797,-402.239 1.102,-421.821 3.004,-20.758 17,-37.222 33.699,-46.261 6.004,-3.278 14.199,-4.258 19.801,-7.278" /><path
         id="path16"
         style="fill:#6c6c6c;fill-opacity:1;fill-rule:evenodd;stroke:none"
         d="m 824.504,521.887 v 19 l 112.703,0.332 c 1.5,5.929 1.5,87.011 0.098,94.23 l -112.903,0.129 0.203,18.129 112.602,0.461 c 1.695,6.59 0.797,51.293 0.797,64.039 v 15.891 c -0.598,4.601 0.5,2.179 -1.699,3.761 l 0.5,-82.793 -112.899,-0.609 c -1.703,-5.309 -1.703,-14.418 -0.101,-19.746 14,-3.043 87.902,1.219 112.898,-0.941 l -0.098,-91.25 c -24.402,-1.954 -99.3,1.968 -112.902,-0.973 -1.098,-4.328 -0.797,-6.156 -0.797,-10.559 -0.101,-6.777 -0.703,-6.941 1.598,-9.101" /><path
         id="path18"
         style="fill:#4c4c4c;fill-opacity:1;fill-rule:evenodd;stroke:none"
         d="m 824.906,737.527 -0.101,19.161 112.601,0.519 c 1.399,16.891 0,59.141 0.297,81.371 0.199,11.711 0.102,8.621 -2,9.758 l 0.504,-89.738 c -19.801,-2.981 -102.902,2.722 -112.805,-1.481 -1.898,-5.219 -1.199,-10.058 -1.199,-15.808 1.301,-7.481 0,-1.942 2.703,-3.782" /><path
         id="path20"
         style="fill:#575759;fill-opacity:1;fill-rule:evenodd;stroke:none"
         d="m 677.305,1056.56 55.902,0.79 1.098,65.63 c -4.602,-3.22 -2.403,-55.52 -2.297,-64.57 -5.106,0.02 -50.504,1.88 -54.703,-1.85" /><path
         id="path22"
         style="fill:#f87352;fill-opacity:1;fill-rule:evenodd;stroke:none"
         d="M 692.906,1443.61 C 1085,1476.17 1414.9,1165.19 1437.2,803.008 1462.11,399.598 1162.9,76.2461 796.207,53.6367 680.004,46.4766 585.004,62.4883 489.805,99.0977 410.906,129.488 326.105,181.699 275.207,231.746 150.004,354.938 57.1055,503.109 46.9023,697.629 25.3047,1107.2 317.707,1412.46 692.906,1443.61 Z m 64.098,48.47 c -14.5,-0.04 -16.801,0.52 -31.899,-0.22 C 542.004,1494.05 330.203,1389.54 212.504,1267.72 -249.074,790.047 93.6055,6.69922 741.305,7.23828 1285.8,7.6875 1630.9,562.199 1422.51,1045.43 c -34.21,79.33 -89.81,163.76 -148.71,221.59 -63.8,62.62 -123.9,108.17 -216.5,153.68 -68.097,33.52 -202.093,72.32 -300.296,71.38" /></g></g></svg>