<?xml version="1.0" encoding="UTF-8" standalone="no"?>
<svg
   xmlns:dc="http://purl.org/dc/elements/1.1/"
   xmlns:cc="http://creativecommons.org/ns#"
   xmlns:rdf="http://www.w3.org/1999/02/22-rdf-syntax-ns#"
   xmlns:svg="http://www.w3.org/2000/svg"
   xmlns="http://www.w3.org/2000/svg"
   viewBox="0 0 200 200"
   height="200"
   width="200"
   xml:space="preserve"
   id="svg2"
   version="1.1"><metadata
     id="metadata8"><rdf:RDF><cc:Work
         rdf:about=""><dc:format>image/svg+xml</dc:format><dc:type
           rdf:resource="http://purl.org/dc/dcmitype/StillImage" /></cc:Work></rdf:RDF></metadata><defs
     id="defs6" /><g
     transform="matrix(1.3333333,0,0,-1.3333333,0,200)"
     id="g10"><g
       transform="scale(0.1)"
       id="g12"><path
         id="path14"
         style="fill:#b1cd05;fill-opacity:1;fill-rule:evenodd;stroke:none"
         d="m 672,1443.35 c 368.68,50.9 720.05,-218.05 771.86,-614.452 C 1471.04,620.977 1384.67,417.105 1284.8,303.359 1021.7,3.66797 603.367,-26.6016 300.313,219.59 6.57813,458.199 -25.3984,923.266 217.855,1201.2 326.191,1324.98 457.113,1413.68 672,1443.35 Z M 221.473,1270.68 C -238.922,798.176 98.8906,10.0391 749.887,9.97656 1158,9.94531 1489.36,338.008 1492.67,742.258 c 2.58,313.732 -175.75,560.602 -427.13,681.462 -285.118,137.08 -622.802,74.05 -844.067,-153.04" /><path
         id="path16"
         style="fill:#b1cd05;fill-opacity:1;fill-rule:evenodd;stroke:none"
         d="M 955.93,846.859 C 953.391,740.23 837.059,647.398 717.891,657.059 611.258,665.695 520.434,767.438 524.938,888.746 c 9.871,265.994 427.796,284.974 432.871,-17.207 l -100.84,13.277 -55.602,164.204 c -5.344,-4.66 -2.574,-1.47 -6.816,-8.2 l -3.258,-6.15 c -0.223,-0.48 -4.023,-11.1 -4.773,-13.17 -3.473,-9.66 -6.657,-18.27 -9.922,-27.223 -6.547,-17.922 -13.196,-35.941 -20.918,-56.379 -14.235,-37.652 -30.321,-77.992 -43.942,-114.988 l -30.418,47.899 c -22.058,2.75 -46.16,-3.11 -66.558,-6.52 -50.785,-8.461 -45.422,-1.453 -53.41,-16.891 13.961,-33.589 82.918,-3.058 105.304,-37.492 12.477,-19.187 31.992,-78.968 52.903,-89.718 l 75.461,195.96 c 14.914,-18.558 21.05,-52.07 27.918,-78.55 46.277,-5.301 89.859,8.289 132.992,9.261 z m -167.821,-246.562 14.993,8.312 c 29.347,-46.593 62.773,-127.691 86.218,-179.558 51.719,-114.461 49.938,-103.883 112.88,-71.781 55.25,28.175 37.55,34.046 -14.075,143.238 -15.457,32.691 -64.883,122.422 -70.957,157.57 97.942,62.692 141.012,245.82 59.59,370.462 -63.031,96.47 -204.926,175 -354.977,102.5 C 440.145,1043.27 393.844,782.336 586.074,642.469 644.227,600.156 757.68,579.34 788.109,600.297" /><path
         id="path18"
         style="fill:#fdfefa;fill-opacity:1;fill-rule:evenodd;stroke:none"
         d="m 955.93,846.859 c -43.133,-0.972 -86.715,-14.562 -132.992,-9.261 -6.868,26.48 -13.004,59.992 -27.918,78.55 l -75.461,-195.96 c -20.911,10.75 -40.426,70.531 -52.903,89.718 -22.386,34.434 -91.343,3.903 -105.304,37.492 7.988,15.438 2.625,8.43 53.41,16.891 20.398,3.41 44.5,9.27 66.558,6.52 l 30.418,-47.899 c 13.621,36.996 29.707,77.336 43.942,114.988 7.722,20.438 14.371,38.457 20.918,56.379 3.265,8.953 6.449,17.563 9.922,27.223 0.75,2.07 4.55,12.69 4.773,13.17 l 3.258,6.15 c 4.242,6.73 1.472,3.54 6.816,8.2 l 55.602,-164.204 100.84,-13.277 c -5.075,302.181 -423,283.201 -432.871,17.207 -4.504,-121.308 86.32,-223.051 192.953,-231.687 119.168,-9.661 235.5,83.171 238.039,189.8" /></g></g></svg>