<?xml version="1.0" encoding="UTF-8" standalone="no"?>
<svg
   xmlns:dc="http://purl.org/dc/elements/1.1/"
   xmlns:cc="http://creativecommons.org/ns#"
   xmlns:rdf="http://www.w3.org/1999/02/22-rdf-syntax-ns#"
   xmlns:svg="http://www.w3.org/2000/svg"
   xmlns="http://www.w3.org/2000/svg"
   viewBox="0 0 200 198.66667"
   height="198.66667"
   width="200"
   xml:space="preserve"
   id="svg2"
   version="1.1"><metadata
     id="metadata8"><rdf:RDF><cc:Work
         rdf:about=""><dc:format>image/svg+xml</dc:format><dc:type
           rdf:resource="http://purl.org/dc/dcmitype/StillImage" /></cc:Work></rdf:RDF></metadata><defs
     id="defs6" /><g
     transform="matrix(1.3333333,0,0,-1.3333333,0,198.66667)"
     id="g10"><g
       transform="scale(0.1)"
       id="g12"><path
         id="path14"
         style="fill:#01cec9;fill-opacity:1;fill-rule:evenodd;stroke:none"
         d="m 368.859,546.637 2.297,581.823 784.104,-1.92 -0.1,-596.895 -62.7,0.371 -49.1,138.121 c -6.8,18.488 -7.8,29.031 -19.4,40.617 -27.901,-8.516 -53.003,-42.418 -47.901,-81.027 4.597,-34.598 26.301,-64.551 31.401,-98.743 l -621.601,-0.449 -17,-0.18 z M 990.355,93.1875 977.258,87.7539 C 955.559,83.7734 931.355,74.6445 908.758,69.207 838.258,52.1992 757.855,46.7734 684.859,53.9063 c -99.3,9.6992 -177.703,36.4492 -254.5,74.3597 -134.402,66.339 -254.3,192.949 -318.703,339.582 -76.9958,175.609 -78.0974,371.398 -4.5,549.252 138.403,334.77 520,507.02 860.102,393.23 436.402,-146.04 620.002,-667.424 360.802,-1051.986 -30.4,-45.098 -118.6,-150.84 -161.9,-166.367 -104.3,247.339 -56.5,134.39 -44.8,223.57 5.3,40.898 -10.8,55.93 -15.7,88.82 l 67.8,0.168 c 6.7,23.512 5.7,585.895 2.7,648.195 l -829.301,-0.12 c -2.8,-66.31 0.5,-621.395 -0.203,-648.313 l 447.102,0.07 c 35.699,-82.082 44.199,-169.711 108.5,-196.844 32.5,-13.746 24.301,-4.687 36.101,-41.675 11.2,-35.024 50.598,-149.77 51.996,-172.6605 z M 703.559,1488.19 c -132,-5.34 -274,-57.28 -378.102,-131.73 -43.496,-31.07 -66.098,-52.03 -101.297,-86.19 C 109.359,1159.01 6.05859,970.926 8.35938,740.176 12.5586,328.379 349.859,-2.12109 767.961,6.89844 1174.66,15.6758 1502.36,350.594 1491.26,772.176 c -7.9,301.864 -200.5,553.824 -455.7,660.694 -45.701,19.13 -90.099,33.09 -143.001,43.56 -111.598,13.92 -102.801,15.25 -189,11.76" /><path
         id="path16"
         style="fill:#01cec9;fill-opacity:1;fill-rule:evenodd;stroke:none"
         d="m 722.66,995.008 c 41.797,9.492 44.399,-11.883 42.098,-49.242 -2.699,-44.961 9,-40.34 29.801,-64.688 36.199,-42.324 74.199,-63.742 2.3,-110.262 -13.504,-8.742 -138.902,-120.339 -182,-10.031 -13.5,34.473 -0.601,50.531 2.7,80.961 -41.602,2.391 -64.301,-11.469 -95.7,8.277 -10.199,57.575 41.598,45.602 91.399,49.473 76.801,5.981 50.5,-26.09 59.402,-80.18 l 63.899,38.77 c -11.5,28.238 -28,15.512 -27.5,60.102 0.398,33.398 0.5,54.808 13.601,76.82 z m 200.5,-90.262 c -23,-72.387 -147.305,-42.801 -116.801,43.692 24.2,68.992 143.2,39.519 116.801,-43.692 z M 468.059,796.785 c 35.597,-30.258 56.902,-44.476 102.398,-66.738 50.898,-24.891 116.203,-40.5 183.801,-41.949 70,-1.5 134.801,13.07 189.402,36.218 44.797,19.051 114,64.122 136.6,93.571 -5.9,21.679 -107.201,115.129 -124.701,132.761 -23.399,23.649 -112.7,118.542 -132.7,128.562 -57.3,-29.77 -61.601,-31.96 -118.902,-0.21 -14.797,-8.24 -53.699,-50.12 -65.797,-62.79 L 475.957,853.918 c -30.199,-32.922 -47.898,-23.203 -7.898,-57.133" /></g></g></svg>