<?xml version="1.0" encoding="UTF-8" standalone="no"?>
<svg
   xmlns:dc="http://purl.org/dc/elements/1.1/"
   xmlns:cc="http://creativecommons.org/ns#"
   xmlns:rdf="http://www.w3.org/1999/02/22-rdf-syntax-ns#"
   xmlns:svg="http://www.w3.org/2000/svg"
   xmlns="http://www.w3.org/2000/svg"
   viewBox="0 0 198.66667 198.66667"
   height="198.66667"
   width="198.66667"
   xml:space="preserve"
   id="svg2"
   version="1.1"><metadata
     id="metadata8"><rdf:RDF><cc:Work
         rdf:about=""><dc:format>image/svg+xml</dc:format><dc:type
           rdf:resource="http://purl.org/dc/dcmitype/StillImage" /></cc:Work></rdf:RDF></metadata><defs
     id="defs6" /><g
     transform="matrix(1.3333333,0,0,-1.3333333,0,198.66667)"
     id="g10"><g
       transform="scale(0.1)"
       id="g12"><path
         id="path14"
         style="fill:#d065b2;fill-opacity:1;fill-rule:evenodd;stroke:none"
         d="M 683.898,1442.07 C 1083.33,1482.49 1408.77,1166.7 1438.09,808.828 1471.5,400.957 1167.14,84.2969 800.789,53.0156 398.137,18.6367 78.9297,326.957 48.957,689.598 c -9.1093,110.23 7.4883,207.75 41.6016,302.25 56.2694,155.872 178.0004,293.042 323.6604,370.782 77.707,41.48 167.609,69.11 269.679,79.44 z m 75.45,47.61 -8.528,-0.14 -10.121,0.21 -11.672,-0.04 C 325.258,1479.32 -2.23438,1153.11 1.86719,740.297 5.88672,334.496 334.938,5.63672 744.195,5.90625 1150.66,6.17578 1482.21,334.117 1485.35,740.297 c 3.18,411.983 -320.38,738.313 -726.002,749.383" /><path
         id="path16"
         style="fill:#d065b2;fill-opacity:1;fill-rule:evenodd;stroke:none"
         d="m 625.328,885.016 c 65.391,9.441 164.961,7.64 231.309,-0.789 -26.688,-15.618 -45.848,-15.149 -60,-45.391 -51.239,-109.539 -36.809,-240.16 -56.067,-271.641 -18.91,4.153 -16.484,11.352 -19.14,35.891 -10.114,93.5 -0.774,125.41 -44.633,229.613 -16.559,39.328 -49.129,40.067 -51.469,52.317 z m -250.019,-49.418 17.129,2.691 -0.04,-15.191 c 1.579,-45.91 60.911,-106.371 93.579,-66.832 17.562,21.23 7.449,58.601 -4.731,77.57 -17.34,26.98 -23.008,22.98 -51.98,39.031 l 3.902,33.18 c -17.84,14.328 -35.121,20.641 -42.301,52.5 -8.39,37.25 15.098,114.293 65.328,28.598 10.114,-17.247 19.774,-35.86 30.09,-52.086 35.914,-56.442 54.91,-38.883 91.403,-73.231 26.8,-25.23 28.667,-85.051 37.679,-126.492 10.008,-46.059 36.16,-85.981 39.129,-127.598 -38.18,-29.5 -26.969,-39.468 -4.59,-98.73 31.301,-82.84 -20.687,-126 85.282,-125.719 105.402,0.277 57.667,50.899 85.687,124.996 28.211,74.602 31.051,71.629 -4.078,99.453 2.301,40.61 29.219,80.746 38.801,126.289 8.668,41.25 11.418,104.801 37.148,127.442 41.379,36.398 53.934,16.219 91.813,72.836 21.221,31.711 36.971,86.215 75.051,91.495 25.99,-16.24 28.81,-57.445 14.67,-85.362 -18.65,-36.821 -43.64,-12.149 -31.61,-69.793 -27.26,-5.348 -43.092,-20.129 -54.361,-40.969 -57.692,-106.598 89.111,-117.61 90.891,7.273 29.41,-1.664 34.94,-1.594 52.14,13.778 -4.1,35.738 -27.2,21.05 -10.85,80.281 13.31,48.211 23.53,138.632 -52.02,142.722 -88.704,4.81 -102.935,-125.574 -168.31,-146.605 -22.453,-7.219 -109.551,33.371 -165.152,33.102 -96.75,-0.461 -127.449,-47.868 -168.219,-31.84 -39.953,15.711 -62.762,79.183 -93.57,112.293 -39.153,42.06 -110.735,51.84 -128.082,-15.15 -8.699,-33.612 -2.571,-63.854 5.828,-93.26 16.832,-58.961 -7.777,-46.403 -9.559,-82.262 11.071,-11.762 15.801,-12.262 33.903,-14.41" /></g></g></svg>