<?xml version="1.0" encoding="UTF-8" standalone="no"?>
<svg
   xmlns:dc="http://purl.org/dc/elements/1.1/"
   xmlns:cc="http://creativecommons.org/ns#"
   xmlns:rdf="http://www.w3.org/1999/02/22-rdf-syntax-ns#"
   xmlns:svg="http://www.w3.org/2000/svg"
   xmlns="http://www.w3.org/2000/svg"
   viewBox="0 0 200 198.66667"
   height="198.66667"
   width="200"
   xml:space="preserve"
   id="svg2"
   version="1.1"><metadata
     id="metadata8"><rdf:RDF><cc:Work
         rdf:about=""><dc:format>image/svg+xml</dc:format><dc:type
           rdf:resource="http://purl.org/dc/dcmitype/StillImage" /></cc:Work></rdf:RDF></metadata><defs
     id="defs6" /><g
     transform="matrix(1.3333333,0,0,-1.3333333,0,198.66667)"
     id="g10"><g
       transform="scale(0.1)"
       id="g12"><path
         id="path14"
         style="fill:#e53789;fill-opacity:1;fill-rule:evenodd;stroke:none"
         d="m 782.195,584.566 c 1.84,1.723 4.762,6.633 5.672,5.024 0.867,-1.547 4.129,3.734 5.278,4.941 39.082,41.442 6.261,35.399 68.089,60.024 l 13.719,-79.356 c -50.457,-21.414 -29.375,28.403 -92.758,9.367 z m 119.789,-96.23 c -54.621,-3.285 -82.55,7.492 -107.39,47.285 -26.391,-8.711 -57.899,-19.125 -97.258,-12.121 -43.43,82.656 12.898,147.211 -2.859,185.445 -0.032,0.075 -63.84,97.504 34.398,102.25 16.309,0.782 14.449,1.243 29.59,-3.742 42.851,-14.09 37.922,-84.945 28.961,-114.316 -41.012,-19.641 -19.051,2.59 -40.75,-5.93 17.07,-21.086 13.23,-30.207 23.172,-49.695 33.675,28.48 15.457,30.843 34.449,72.738 21.906,-23.668 14.777,-64.824 -6.75,-94.035 -30.121,-40.899 -53.77,-17.914 -76.602,10.59 12.633,-25.336 17.672,-35.098 53.313,-39.395 l -31.461,-25.109 c 35.609,2.094 64.031,18.09 94.207,-7.328 34.621,-29.16 14.019,-43.121 79.473,-46.672 z m 0,0 c 66.313,28.316 66.504,91.648 64.981,172.922 -0.141,7.543 -1.59,35.32 -2.981,41.625 -3.886,17.637 2.231,-2.297 -4.64,16.058 -6.231,16.7 -4.989,13.079 -12.168,22.442 -0.891,-59.672 19.851,-295.598 -79.371,-204.774 8.793,25.477 18.601,18.586 32.98,35.844 -34.09,77.86 -62.008,227.031 -0.07,288.188 -21.082,18.086 -12.731,17.308 -27.949,71.523 176.004,-56.098 112.058,-189.398 94.449,-339.531 -8.442,-72.039 133.305,-299.602 -167.918,-266.141 -103.692,11.52 -169.332,45.699 -252.731,80.449 39.25,-40.851 79.52,-54.503 131.59,-83.023 -63.883,7.836 -215.32,90.59 -188.801,149.809 55.5,18.785 269.102,-10.844 321.743,-31.075 34.898,-5.394 -14.442,4.403 34.007,19.282 33.083,10.16 35.18,2.086 56.879,26.402 z M 719.375,992.531 c 38.32,-14.797 98.23,-27.332 124.121,-50.789 l -16.023,-23.949 c -30.09,-5.852 -46.93,0.77 -72.321,17.867 -21.964,14.801 -24.093,29.473 -35.777,56.871 z M 852.344,924.23 c 45.351,-64.277 -0.391,-122 -41.246,-148.863 -6.153,10.571 -37.082,101.211 -130.801,49.215 -38.672,-21.453 -40.332,-64.625 -20.852,-99.473 9.399,-16.785 -0.211,-0.793 10.688,-15.609 1.164,-1.578 2.894,-3.684 3.972,-5.09 l 8.282,-10.16 c -20.09,-46.711 -59.192,-187.234 29.25,-186.516 16.629,0.141 87.898,30.957 120.129,-30.605 -61.93,-7.774 -133.5,7.398 -185.129,26.012 -8.039,24.843 -12.75,31.332 1.5,57.765 -43.762,-13.301 -26.36,-31.383 -35.032,-57.32 -56.968,-2.895 -88.531,0.855 -140.32,-14.207 -34.519,-119.051 127.66,-178.332 235.449,-193.668 136.25,-19.395 307.626,-32.438 307.336,124.961 -0.16,83.144 -43.273,93.871 -25.574,185.691 22.884,118.629 75.304,291.192 -23.492,350.27 -62.578,37.437 -118.199,27.359 -179.449,50.607 51.289,1.33 102.351,-6.3 149.898,-22.451 67.347,-22.875 62.031,-39.527 96.847,-86.316 -5.09,135.857 -111.534,119.187 -224.163,139.027 l 121.547,0.89 c -1.579,154.85 -303.407,187.46 -260.149,-13.01 8.961,-41.489 22.25,-35.259 42.211,-66.349 17.75,-27.672 57.961,-71.406 104.328,-59.625 19.883,5.059 21.039,14.574 34.77,24.824" /><path
         id="path16"
         style="fill:#e53789;fill-opacity:1;fill-rule:evenodd;stroke:none"
         d="M 701.035,1440.42 C 1093.11,1472.98 1423.02,1161.99 1445.36,799.82 1470.23,396.406 1171.05,73.0625 804.316,50.4492 688.164,43.2891 593.113,59.293 497.965,95.9141 419.016,126.301 334.215,178.504 283.344,228.563 158.168,351.746 65.2461,499.918 55.0039,694.441 33.4648,1104.01 325.867,1409.26 701.035,1440.42 Z m 64.11,48.46 c -14.54,-0.03 -16.86,0.52 -31.899,-0.22 -183.07,2.2 -394.891,-102.31 -512.609,-224.13 C -240.941,786.859 101.707,3.50781 749.387,4.04297 1293.91,4.48828 1639.07,559.012 1430.66,1042.24 c -34.2,79.33 -89.79,163.75 -148.7,221.58 -63.8,62.62 -123.97,108.17 -216.49,153.69 -68.134,33.52 -202.154,72.32 -300.325,71.37" /></g></g></svg>