<?xml version="1.0" encoding="UTF-8" standalone="no"?>
<svg
   xmlns:dc="http://purl.org/dc/elements/1.1/"
   xmlns:cc="http://creativecommons.org/ns#"
   xmlns:rdf="http://www.w3.org/1999/02/22-rdf-syntax-ns#"
   xmlns:svg="http://www.w3.org/2000/svg"
   xmlns="http://www.w3.org/2000/svg"
   viewBox="0 0 198.66667 200"
   height="200"
   width="198.66667"
   xml:space="preserve"
   id="svg2"
   version="1.1"><metadata
     id="metadata8"><rdf:RDF><cc:Work
         rdf:about=""><dc:format>image/svg+xml</dc:format><dc:type
           rdf:resource="http://purl.org/dc/dcmitype/StillImage" /></cc:Work></rdf:RDF></metadata><defs
     id="defs6" /><g
     transform="matrix(1.3333333,0,0,-1.3333333,0,200)"
     id="g10"><g
       transform="scale(0.1)"
       id="g12"><path
         id="path14"
         style="fill:#0067a1;fill-opacity:1;fill-rule:evenodd;stroke:none"
         d="M 694.93,1441.42 C 1087,1473.97 1416.92,1162.99 1439.25,800.813 1464.12,397.402 1164.94,74.0547 798.199,51.4414 682.051,44.2813 587.008,60.293 491.852,96.9102 412.898,127.293 328.098,179.5 277.238,229.555 152.051,352.742 59.1289,500.91 48.8906,695.434 27.3477,1105 319.758,1410.26 694.93,1441.42 Z m 64.101,48.46 c -14.539,-0.04 -16.851,0.52 -31.89,-0.22 C 544.059,1491.86 332.25,1387.35 214.52,1265.52 -247.059,787.855 95.6016,4.50391 743.27,5.04297 1287.8,5.49219 1632.95,560.004 1424.55,1043.23 c -34.21,79.33 -89.8,163.76 -148.71,221.59 -63.79,62.62 -123.96,108.17 -216.48,153.68 -68.141,33.52 -202.161,72.32 -300.329,71.38" /><path
         id="path16"
         style="fill:#0067a1;fill-opacity:1;fill-rule:evenodd;stroke:none"
         d="M 770.559,948.031 907.973,827.461 709.547,601.332 c -46.406,-52.902 -160.305,-48.41 -161.156,54.762 -0.203,23.308 12.14,52.578 28.5,71.219 l 51.269,58.429 31.379,-27.531 c 19.93,-17.496 38.301,8.523 25.211,20.004 l -35.703,31.328 19.933,22.719 34.618,-30.379 c 14.929,-13.098 35.824,10.699 20.89,23.801 l -34.617,30.379 19.938,22.73 35.699,-31.328 c 13.09,-11.492 36.492,10.105 16.562,27.598 l -31.382,27.527 z m 147.16,73.869 45.453,-39.88 -79.75,-90.879 -45.442,39.882 z m -59.879,73.61 c -7.328,-8.35 -2.61,-18.77 5.781,-26.13 l 30.297,-26.59 -79.75,-90.888 -99.535,87.338 c -23.645,20.75 -38.762,-8.11 -26.293,-19.06 L 746.758,968.922 552.141,747.109 c -31.5,-35.886 -42.481,-86.347 -29.871,-130.457 2.957,-10.367 12.609,-32.078 22.73,-41.359 l -72.16,-82.23 c -6.75,-7.7 -3.813,-15.801 3.492,-22.211 14.91,-13.079 33.828,16.73 46.898,31.621 15.192,17.308 30.379,34.621 45.571,51.929 12.39,-9.168 30.629,-14.269 42.89,-16.5 40.571,-7.39 92.907,9.77 123.567,44.707 l 196.519,223.973 58.422,-51.269 c 12.581,-11.043 39.431,7.531 15.481,28.55 l -98.461,86.399 79.75,90.879 c 23.931,-21 41.661,-44.188 56.831,-26.891 5.34,6.082 4.76,14.984 -1.32,20.313 L 879.102,1097.92 c -6.172,5.41 -15.821,3.8 -21.262,-2.41" /></g></g></svg>