<?xml version="1.0" encoding="UTF-8" standalone="no"?>
<svg
   xmlns:dc="http://purl.org/dc/elements/1.1/"
   xmlns:cc="http://creativecommons.org/ns#"
   xmlns:rdf="http://www.w3.org/1999/02/22-rdf-syntax-ns#"
   xmlns:svg="http://www.w3.org/2000/svg"
   xmlns="http://www.w3.org/2000/svg"
   viewBox="0 0 198.66667 200"
   height="200"
   width="198.66667"
   xml:space="preserve"
   id="svg2"
   version="1.1"><metadata
     id="metadata8"><rdf:RDF><cc:Work
         rdf:about=""><dc:format>image/svg+xml</dc:format><dc:type
           rdf:resource="http://purl.org/dc/dcmitype/StillImage" /></cc:Work></rdf:RDF></metadata><defs
     id="defs6" /><g
     transform="matrix(1.3333333,0,0,-1.3333333,0,200)"
     id="g10"><g
       transform="scale(0.1)"
       id="g12"><path
         id="path14"
         style="fill:#26d32c;fill-opacity:1;fill-rule:evenodd;stroke:none"
         d="m 665.734,1441.31 c 217.5,33.7 411.196,-63.2 531.396,-159.85 C 1328.54,1175.89 1417.34,1006 1439.04,827.41 1488.53,419.453 1176.83,97.7617 828.035,56.9727 422.133,9.51953 87.9336,315.621 53.1328,672.344 32.2344,886.313 106.633,1078.69 212.836,1197.57 c 129.199,144.67 248.098,211.98 452.898,243.74 z m 63.899,52.56 C 511.832,1496.98 313.035,1370.53 213.031,1265.97 -239.77,792.34 93.4336,3.89063 752.133,7.84375 1158.33,10.2734 1488.73,342.051 1488.13,749.703 c -0.3,245.75 -121.3,451.717 -264.7,567.337 -19.2,15.54 -29.4,24.44 -51.4,39.92 -135.3,95.27 -278.596,142.82 -442.397,136.91" /><path
         id="path16"
         style="fill:#26d32c;fill-opacity:1;fill-rule:evenodd;stroke:none"
         d="m 522.734,1014.83 c -0.101,55.72 7,81.1 64.598,81.9 l 283.703,-0.22 c 47.797,0.01 93.699,7.67 110.598,-30.49 10.398,-23.57 6.101,-499.79 6.101,-567.727 0.098,-77.582 7.996,-106.57 -80.101,-106.57 l -278.899,0.019 C 576.133,391.734 524.434,385.824 524.332,448 Z m 321.2,-314.267 h 54.898 c 7.5,0 13.699,-6.172 13.699,-13.723 V 528.684 c 0,-7.539 -6.199,-13.711 -13.699,-13.711 h -54.898 c -7.5,0 -13.7,6.172 -13.7,13.711 V 686.84 c 0,7.551 6.2,13.723 13.7,13.723 z m 0,104.218 h 54.898 c 7.5,0 13.699,-6.168 13.699,-13.722 v -53.028 c 0,-7.539 -6.199,-13.711 -13.699,-13.711 h -54.898 c -7.5,0 -13.7,6.172 -13.7,13.711 v 53.028 c 0,7.554 6.2,13.722 13.7,13.722 z M 731.535,595.422 h 54.801 c 7.598,0 13.699,-6.172 13.699,-13.711 v -53.027 c 0,-7.539 -6.101,-13.711 -13.699,-13.711 h -54.801 c -7.601,0 -13.703,6.172 -13.703,13.711 v 53.027 c 0,7.539 6.102,13.711 13.703,13.711 z m 0,105.141 h 54.801 c 7.598,0 13.699,-6.172 13.699,-13.723 v -53.016 c 0,-7.554 -6.101,-13.711 -13.699,-13.711 h -54.801 c -7.601,0 -13.703,6.157 -13.703,13.711 v 53.016 c 0,7.551 6.102,13.723 13.703,13.723 z m 0,104.218 h 54.801 c 7.598,0 13.699,-6.168 13.699,-13.722 v -53.028 c 0,-7.539 -6.101,-13.711 -13.699,-13.711 h -54.801 c -7.601,0 -13.703,6.172 -13.703,13.711 v 53.028 c 0,7.554 6.102,13.722 13.703,13.722 z m -118,-209.359 h 54.899 c 7.5,0 13.699,-6.172 13.699,-13.711 v -53.027 c 0,-7.539 -6.199,-13.711 -13.699,-13.711 h -54.899 c -7.5,0 -13.699,6.172 -13.699,13.711 v 53.027 c 0,7.539 6.199,13.711 13.699,13.711 z m 0,105.141 h 54.899 c 7.5,0 13.699,-6.172 13.699,-13.723 v -53.016 c 0,-7.554 -6.199,-13.711 -13.699,-13.711 h -54.899 c -7.5,0 -13.699,6.157 -13.699,13.711 v 53.016 c 0,7.551 6.199,13.723 13.699,13.723 z m 0,104.218 h 54.899 c 7.5,0 13.699,-6.168 13.699,-13.722 v -53.028 c 0,-7.539 -6.199,-13.711 -13.699,-13.711 h -54.899 c -7.5,0 -13.699,6.172 -13.699,13.711 v 53.028 c 0,7.554 6.199,13.722 13.699,13.722 z m 7.399,222.149 h 279.699 c 15.101,0 27.398,-12.33 27.398,-27.418 V 893.461 c 0,-15.09 -12.297,-27.43 -27.398,-27.43 H 620.934 c -15.102,0 -27.5,12.34 -27.5,27.43 v 106.051 c 0,15.088 12.398,27.418 27.5,27.418 z m -94.403,93.58 C 480.734,1107.39 487.73,1048.8 487.535,1001.12 V 521.145 c 0,-171.293 -10.301,-164.625 154.899,-164.625 96,0 228.699,-7.778 320.097,0.23 57.199,5.02 56.309,47.52 56.199,104.973 -0.1,90.461 8.5,603.497 -7.69,633.797 -21.005,39.35 -76.306,29.36 -130.907,29.37 -91.801,0 -226.699,5.03 -313.602,1.39 -21.797,-0.88 -29.996,-2.53 -40,-5.77" /></g></g></svg>