<?xml version="1.0" encoding="UTF-8" standalone="no"?>
<svg
   xmlns:dc="http://purl.org/dc/elements/1.1/"
   xmlns:cc="http://creativecommons.org/ns#"
   xmlns:rdf="http://www.w3.org/1999/02/22-rdf-syntax-ns#"
   xmlns:svg="http://www.w3.org/2000/svg"
   xmlns="http://www.w3.org/2000/svg"
   viewBox="0 0 198.66667 198.66667"
   height="198.66667"
   width="198.66667"
   xml:space="preserve"
   id="svg2"
   version="1.1"><metadata
     id="metadata8"><rdf:RDF><cc:Work
         rdf:about=""><dc:format>image/svg+xml</dc:format><dc:type
           rdf:resource="http://purl.org/dc/dcmitype/StillImage" /></cc:Work></rdf:RDF></metadata><defs
     id="defs6" /><g
     transform="matrix(1.3333333,0,0,-1.3333333,0,198.66667)"
     id="g10"><g
       transform="scale(0.1)"
       id="g12"><path
         id="path14"
         style="fill:#f05241;fill-opacity:1;fill-rule:evenodd;stroke:none"
         d="m 886.172,545.965 c 22.766,11.445 86.508,-19.32 81.469,-89.965 -2.539,-35.703 -36.911,-47.746 -69.543,-24.766 -27.114,19.098 -38.914,45.903 -35.871,81.368 1.523,17.738 10.496,26.609 23.945,33.363 z m -303.879,0 c 7.977,3.246 18.629,2.058 25.746,-1.242 44.262,-20.524 17.359,-115.469 -37.539,-124.11 -46.184,-7.269 -53.437,37.532 -44.996,66.453 3.656,12.547 11.746,28.145 20.613,37.395 17.074,17.805 21.051,15.367 36.176,21.504 z m -11.867,536.245 c -7.887,-4.96 -14.215,-21.18 -17.676,-30.43 -4.309,-11.5 -6.07,-26.52 -2.434,-37.78 4.18,-12.92 23.153,-44.684 30.872,-60.945 l 15.406,-30.188 c 5.629,-10.113 9.668,-19.258 15.273,-30.672 l 31.024,-60.343 c 6.699,-13.86 60.402,-118.266 60.605,-122.235 0.18,-3.664 -1.074,-5.203 -2.891,-8.39 l -4.164,-6.379 c -2.894,-4.512 -6.187,-10.813 -8.289,-14.719 l -16.601,-29.16 c -7.938,-12.297 -26.555,-49.508 -34.164,-57.078 -11.047,1.922 -16.985,11.757 -52.977,9.504 C 502.551,598.27 442.363,497.883 474.539,420.203 517.07,317.523 659.727,364.645 681.852,464.695 l 15.695,77.735 c 3.203,16.082 31.289,98.558 49.094,103.156 13.117,-8.633 36.347,-64.859 41.339,-82.438 4.875,-17.195 8.133,-31.48 12.247,-49.664 9.843,-43.543 6.941,-84.914 60.218,-125.16 99.051,-74.851 203.305,23.43 151.355,137.418 -18.96,41.598 -60.741,76.539 -108.327,77.758 -9.879,0.254 -20.731,0 -28.985,-2.07 -8.886,-2.215 -14.742,-7.2 -22.113,-7.184 -5.734,7.926 -11.355,20.309 -17.051,29.719 -5.402,8.922 -11.551,19.293 -16.781,29.027 -5.949,11.059 -10.207,19.418 -16.551,29.465 -7.004,11.094 -15.476,22.676 -12.449,31.645 l 153.176,305.018 c 4.711,21.88 -11.594,54.74 -23.387,65.27 L 749.48,788.113 c -2.554,-2.8 -0.664,-1.64 -4.601,-3.484 l -4.453,5.402 c -0.383,0.559 -2.594,4.399 -2.61,4.426 l -16.109,27.898 c -3.887,6.567 -6.742,12.11 -10.719,19.129 -37.207,65.696 -82.722,142.204 -117.175,205.376 -4.067,7.46 -7.122,12.86 -10.872,19.23 -5.461,9.29 -6.226,14.05 -12.515,16.12" /><path
         id="path16"
         style="fill:#f05241;fill-opacity:1;fill-rule:evenodd;stroke:none"
         d="M 697.527,1436.95 C 1089.61,1469.5 1419.52,1158.52 1441.85,796.344 1466.72,392.93 1167.55,69.5781 800.809,46.9688 684.66,39.8047 589.609,55.8125 494.461,92.4297 415.5,122.824 330.707,175.023 279.836,225.082 154.656,348.27 61.7305,496.441 51.5,690.965 29.957,1100.52 322.359,1405.79 697.527,1436.95 Z m 64.114,48.46 c -14.547,-0.04 -16.864,0.52 -31.899,-0.22 -183.078,2.2 -394.89,-102.31 -512.617,-224.14 C -244.457,783.379 98.2031,0.03125 745.875,0.566406 1290.41,1.01172 1635.55,555.527 1427.16,1038.75 c -34.21,79.34 -89.81,163.76 -148.71,221.59 -63.8,62.62 -123.97,108.17 -216.49,153.69 -68.14,33.52 -202.155,72.31 -300.319,71.38" /></g></g></svg>