<?xml version="1.0" encoding="UTF-8" standalone="no"?>
<svg
   xmlns:dc="http://purl.org/dc/elements/1.1/"
   xmlns:cc="http://creativecommons.org/ns#"
   xmlns:rdf="http://www.w3.org/1999/02/22-rdf-syntax-ns#"
   xmlns:svg="http://www.w3.org/2000/svg"
   xmlns="http://www.w3.org/2000/svg"
   viewBox="0 0 198.66667 200"
   height="200"
   width="198.66667"
   xml:space="preserve"
   id="svg2"
   version="1.1"><metadata
     id="metadata8"><rdf:RDF><cc:Work
         rdf:about=""><dc:format>image/svg+xml</dc:format><dc:type
           rdf:resource="http://purl.org/dc/dcmitype/StillImage" /></cc:Work></rdf:RDF></metadata><defs
     id="defs6" /><g
     transform="matrix(1.3333333,0,0,-1.3333333,0,200)"
     id="g10"><g
       transform="scale(0.1)"
       id="g12"><path
         id="path14"
         style="fill:#ea368b;fill-opacity:1;fill-rule:evenodd;stroke:none"
         d="m 537.473,791.793 c 10.957,-8.93 16.918,-0.68 24.898,-17.91 5.328,-11.52 -1.051,-5.172 9.469,-23.922 0.402,-0.707 1.031,-1.559 1.43,-2.277 l 8.46,-17.352 c 5.579,-7.988 6.711,-0.172 9.602,-16.168 4.5,-24.973 -16.262,-65.273 50.93,-35.863 35.027,15.332 58.511,31.402 38.89,-16.797 C 650.73,586.73 566.578,521.301 480.578,525.633 426.121,528.383 374.531,556.352 349.07,582.645 333.469,598.754 283.344,672.934 287.703,708.77 280.41,619.98 341.031,504.84 426.742,461.141 634.281,355.34 865.262,624.223 751.801,808.32 720.84,858.543 647.422,918.672 626.129,977.684 c -14.297,39.646 -3.137,52.266 8.641,80.626 -45.95,-16.56 -53.438,-63.486 -63.18,-80.759 -21.719,-38.461 -16.789,-70.36 -10.219,-111.969 0.102,-0.609 0.352,-1.629 0.469,-2.223 6.769,-33.296 -10.699,-44.515 -24.367,-71.566 z m 249.218,-351.5 c 47.368,17.949 108.282,89.309 132.809,134.027 49.57,90.383 66.07,214.633 -1.289,308.211 -10.02,13.891 -18.57,23.371 -30.16,36.242 -45.891,50.95 -135.52,153.027 -76.461,215.327 -67.438,-14.33 -81.676,-89.02 -26.149,-163.049 19.719,-26.297 40.422,-45.688 60.7,-71.981 70.8,-91.797 96.679,-186.218 51.031,-302.457 -12.121,-30.832 -28.68,-62.3 -46.59,-86.191 -22.102,-29.461 -55.191,-57.961 -63.891,-70.129 z m 145.243,105.668 c 25.816,20.723 43.586,42.391 62.078,79.359 22.578,45.184 29.488,97.77 36.228,109.664 30.29,-10.941 31.35,-21.191 76.53,-12.004 -15.29,22.032 -45.49,7.473 -74.65,114.872 -14.57,53.628 -18.54,102.062 -37.249,154.578 -66.742,187.4 -174.629,182.17 -174.551,98.14 C 820.461,965.973 1015.35,920.652 980.723,686.184 972.012,627.211 953.23,591.75 931.934,545.961 Z M 497.203,398.664 c 31,1.738 61.117,-17.711 143.488,4.438 40.379,10.871 80.961,31.281 110.141,52.23 55.848,40.07 111.438,101.762 133.238,191.109 26.711,109.45 -20.289,184.102 -69.261,243.383 -23.25,28.129 -50.688,57.617 -72.477,89.789 -35.031,51.697 -26.691,66.607 -10.801,123.297 -36.82,-11.93 -61.57,-49.66 -58.48,-93.3 3.129,-44.161 27.769,-79.907 48.851,-105.708 43.438,-53.179 101.719,-103.609 97.207,-211.769 -1.976,-47.313 -15.007,-80.309 -32.777,-117.301 -8.801,-18.309 -18.16,-31.891 -30.09,-47.469 C 733.891,498.184 709.359,471.332 678.73,449.93 663.582,439.344 648.891,429.973 630.09,421.223 577.371,396.664 555.641,403.992 497.203,398.664" /><path
         id="path16"
         style="fill:#ea368b;fill-opacity:1;fill-rule:evenodd;stroke:none"
         d="M 698.68,1442.35 C 1090.75,1474.91 1420.67,1163.91 1443,801.754 1467.87,398.344 1168.69,74.9922 801.961,52.3828 685.813,45.2227 590.762,61.2227 495.613,97.8438 416.648,128.234 331.859,180.434 280.992,230.492 155.813,353.684 62.8789,501.84 52.6484,696.371 31.1094,1105.94 323.512,1411.2 698.68,1442.35 Z m 64.101,48.46 c -14.539,-0.04 -16.851,0.52 -31.89,-0.22 C 547.813,1492.79 336,1388.28 218.27,1266.46 -243.309,788.781 99.3516,5.44141 747.031,5.97266 1291.55,6.42188 1636.7,560.934 1428.3,1044.17 c -34.21,79.32 -89.8,163.75 -148.71,221.58 -63.79,62.63 -123.96,108.17 -216.48,153.68 -68.137,33.53 -202.157,72.32 -300.329,71.38" /></g></g></svg>