<?xml version="1.0" encoding="UTF-8" standalone="no"?>
<svg
   xmlns:dc="http://purl.org/dc/elements/1.1/"
   xmlns:cc="http://creativecommons.org/ns#"
   xmlns:rdf="http://www.w3.org/1999/02/22-rdf-syntax-ns#"
   xmlns:svg="http://www.w3.org/2000/svg"
   xmlns="http://www.w3.org/2000/svg"
   viewBox="0 0 198.66667 198.66667"
   height="198.66667"
   width="198.66667"
   xml:space="preserve"
   id="svg2"
   version="1.1"><metadata
     id="metadata8"><rdf:RDF><cc:Work
         rdf:about=""><dc:format>image/svg+xml</dc:format><dc:type
           rdf:resource="http://purl.org/dc/dcmitype/StillImage" /></cc:Work></rdf:RDF></metadata><defs
     id="defs6" /><g
     transform="matrix(1.3333333,0,0,-1.3333333,0,198.66667)"
     id="g10"><g
       transform="scale(0.1)"
       id="g12"><path
         id="path14"
         style="fill:#bb4bd1;fill-opacity:1;fill-rule:evenodd;stroke:none"
         d="M 661.762,1438.91 C 1071.23,1490.08 1397.29,1182.54 1437.31,827.129 1483.35,418.328 1184.37,99.8398 832.43,55.3789 420.797,3.39844 94.8203,308.449 52.832,663.168 3.94141,1076.08 305.82,1394.44 661.762,1438.91 Z m -5.59,44.72 C 579.25,1474.82 506.23,1453.97 438.418,1422.79 185.711,1306.57 0.0898438,1052.77 2.94922,737.469 6.65234,328.238 345.008,-1.83203 762.371,5.32813 1170.69,12.3281 1497.27,353.328 1486.28,774.047 c -8.02,306.943 -209.93,557.223 -458.23,658.973 -147.003,60.24 -228.261,48.28 -255.89,55.07 -34.609,-0.78 -24.82,5.98 -115.988,-4.46" /><path
         id="path16"
         style="fill:#bb4bd1;fill-opacity:1;fill-rule:evenodd;stroke:none"
         d="m 507.852,1014.31 53.378,0.05 c 9.68,-2.63 22.817,-32.723 32,-34.411 l 323.903,0.418 4.058,29.163 c 0.149,1.91 0.629,2.44 1.168,3.71 l 73.262,-0.25 -1.422,-589.49 -488.461,-0.121 z m 226.418,120.18 c 47.929,17.05 65.589,-42.13 33.23,-59.66 -21.359,-11.56 -41.18,0.72 -47.012,14.21 -10.058,23.29 1.36,39.08 13.782,45.45 z M 993.211,357.516 c 7.169,0.254 13.479,0.472 20.649,0.711 3.81,0.742 6.96,1.933 9.43,3.582 23.2,11.48 15.39,45.98 15.36,78.539 l -0.03,260.562 c 0,410.45 34.08,356.14 -120.96,357.92 -25.578,41.72 -29.18,33.84 -111.289,33.68 -1.851,89.82 -110.301,91.35 -111.051,-0.13 -20.09,0.16 -54.14,2.1 -72.761,-0.74 -27.95,-4.26 -28.129,-14.58 -39.309,-32.56 -26.641,-0.58 -61.031,2.1 -86.25,-0.42 -32.133,-3.21 -35.84,-14.13 -36.5,-46.65 l 0.121,-507.662 c 0,-58.84 -11.742,-136.18 23.77,-145.731 21.32,-5.73 479.449,-2.789 508.82,-1.101" /><path
         id="path18"
         style="fill:#ba4ccd;fill-opacity:1;fill-rule:evenodd;stroke:none"
         d="m 639.23,791.527 77.469,-0.238 0.821,-77.609 66.48,1.5 c 0.488,22.699 -0.551,54.109 -0.09,76.718 21.469,0.25 23.559,-0.418 78.539,0.469 l -2.386,65.692 -75.602,0.386 -2.113,77.664 -64.387,0.012 -2.981,-77.723 -75.871,-0.91 0.121,-65.961" /><path
         id="path20"
         style="fill:#b64dcc;fill-opacity:1;fill-rule:evenodd;stroke:none"
         d="m 601.051,518.379 c 17.199,15.641 86.347,79.629 96.441,92.141 L 668.73,635.266 C 640.27,608.488 623.691,589.328 606,575.738 c -0.691,-0.539 -28.75,27.742 -31.777,29.02 l -26.743,-26.11 c 20.801,-25.5 37.399,-42.91 53.571,-60.269" /><path
         id="path22"
         style="fill:#b64dcc;fill-opacity:1;fill-rule:evenodd;stroke:none"
         d="m 734.34,595.457 h 197.477 v 18.2852 H 734.34 Z" /><path
         id="path24"
         style="fill:#b64dcc;fill-opacity:1;fill-rule:evenodd;stroke:none"
         d="m 734.34,539.238 h 197.477 v 18.2852 H 734.34 Z" /><path
         id="path26"
         style="fill:#b64dcc;fill-opacity:1;fill-rule:evenodd;stroke:none"
         d="m 560.629,480.27 h 371.18 v 18.2813 h -371.18 z" /></g></g></svg>