<?xml version="1.0" encoding="UTF-8" standalone="no"?>
<svg
   xmlns:dc="http://purl.org/dc/elements/1.1/"
   xmlns:cc="http://creativecommons.org/ns#"
   xmlns:rdf="http://www.w3.org/1999/02/22-rdf-syntax-ns#"
   xmlns:svg="http://www.w3.org/2000/svg"
   xmlns="http://www.w3.org/2000/svg"
   viewBox="0 0 200 198.66667"
   height="198.66667"
   width="200"
   xml:space="preserve"
   id="svg2"
   version="1.1"><metadata
     id="metadata8"><rdf:RDF><cc:Work
         rdf:about=""><dc:format>image/svg+xml</dc:format><dc:type
           rdf:resource="http://purl.org/dc/dcmitype/StillImage" /></cc:Work></rdf:RDF></metadata><defs
     id="defs6" /><g
     transform="matrix(1.3333333,0,0,-1.3333333,0,198.66667)"
     id="g10"><g
       transform="scale(0.1)"
       id="g12"><path
         id="path14"
         style="fill:#0c9504;fill-opacity:1;fill-rule:evenodd;stroke:none"
         d="M 1441.4,664.336 C 1425.51,556.066 1399.54,482.945 1354.46,401.555 1316.75,333.477 1247.21,251.445 1196.35,212.395 1063.71,110.559 896.07,27.8945 666.461,55.625 288.215,101.305 5.81641,447.395 57.5,834.715 104.93,1190.14 420.531,1485.67 829.719,1440.16 1217.59,1397.04 1494.67,1027.34 1441.4,664.336 Z M 730.645,1488.29 C 513.02,1491.77 311.609,1366.5 214.578,1262.68 -243.25,772.797 108.227,3.79688 753.523,5.90625 1413.65,8.07813 1730.57,808.895 1279.24,1267.84 c -100.8,102.5 -295.345,226.16 -515.752,220.18 -9.297,-0.97 -14.175,1 -32.843,0.27" /><path
         id="path16"
         style="fill:#099702;fill-opacity:1;fill-rule:evenodd;stroke:none"
         d="m 702.918,779.117 c -6.902,-20.64 -74.48,-93.39 -92.758,-113.121 -31.047,-33.512 -83.09,-78.351 -135.808,-24.781 -78.571,79.84 8.804,138.262 54.836,187.922 12.417,13.386 31.957,46.328 46.035,56.527 48.984,-17.398 100.004,-83.141 127.695,-106.547 z m 67.234,74.528 c 5.051,31.968 19.703,45.793 23.051,76.23 3.664,33.34 -6.359,52 -2.484,86.895 93.269,-4.45 41.301,-143.036 -20.567,-163.125 z m 102.403,66.671 c 23.683,69.168 -31.188,138.144 -81.785,151.344 -73.336,19.13 -123.555,-43.1 -152.485,-77.281 -38.57,-45.582 -75.058,-77.184 -113.344,-124.441 -35.586,-43.934 -86.125,-66.961 -107.703,-129.922 -29.582,-86.321 93.27,-243.911 235.137,-75.161 31.227,37.153 208.875,222.454 220.18,255.461" /><path
         id="path18"
         style="fill:#fdfefa;fill-opacity:1;fill-rule:evenodd;stroke:none"
         d="m 515.797,664.723 c -28.258,4.554 -38.77,32.715 -29.809,66.113 7.266,27.109 23.063,43.66 45.535,51.871 -2.265,-21.019 -9.933,-106.824 -15.726,-117.984 z m 187.121,114.394 c -27.691,23.406 -78.711,89.149 -127.695,106.547 -14.078,-10.199 -33.618,-43.141 -46.035,-56.527 -46.032,-49.66 -133.407,-108.082 -54.836,-187.922 52.718,-53.57 104.761,-8.731 135.808,24.781 18.278,19.731 85.856,92.481 92.758,113.121" /><path
         id="path20"
         style="fill:#fafafc;fill-opacity:1;fill-rule:evenodd;stroke:none"
         d="m 770.152,853.645 c 61.868,20.089 113.836,158.675 20.567,163.125 -3.875,-34.895 6.148,-53.555 2.484,-86.895 -3.348,-30.437 -18,-44.262 -23.051,-76.23" /><path
         id="path22"
         style="fill:#0c9504;fill-opacity:1;fill-rule:evenodd;stroke:none"
         d="m 515.797,664.723 c 5.793,11.16 13.461,96.965 15.726,117.984 -22.472,-8.211 -38.269,-24.762 -45.535,-51.871 -8.961,-33.398 1.551,-61.559 29.809,-66.113" /><path
         id="path24"
         style="fill:#099702;fill-opacity:1;fill-rule:evenodd;stroke:none"
         d="m 802.367,668.395 c 6.903,20.64 74.477,93.39 92.754,113.121 31.047,33.5 83.09,78.339 135.809,24.781 78.57,-79.844 -8.81,-138.262 -54.836,-187.922 -12.422,-13.398 -31.949,-46.328 -46.035,-56.527 -48.981,17.398 -100.004,83.14 -127.692,106.547 z m -67.238,-74.52 c -5.047,-31.98 -19.703,-45.809 -23.047,-76.238 -3.668,-33.332 6.356,-52 2.481,-86.903 -93.266,4.461 -41.297,143.039 20.566,163.141 z m -102.402,-66.68 c -23.684,-69.172 31.187,-138.14 81.785,-151.34 73.34,-19.128 123.558,43.102 152.484,77.282 38.57,45.578 75.055,77.179 113.336,124.441 35.588,43.918 86.138,66.957 107.708,129.918 29.59,86.317 -93.267,243.91 -235.13,75.16 C 821.684,745.508 644.031,560.199 632.727,527.195" /><path
         id="path26"
         style="fill:#fdfefa;fill-opacity:1;fill-rule:evenodd;stroke:none"
         d="m 989.484,782.777 c 28.256,-4.55 38.766,-32.703 29.806,-66.109 -7.26,-27.113 -23.06,-43.664 -45.528,-51.859 2.258,21.015 9.929,106.816 15.722,117.968 z M 802.367,668.395 c 27.688,-23.407 78.711,-89.149 127.692,-106.547 14.086,10.199 33.613,43.129 46.035,56.527 46.026,49.66 133.406,108.078 54.836,187.922 -52.719,53.558 -104.762,8.719 -135.809,-24.781 -18.277,-19.731 -85.851,-92.481 -92.754,-113.121" /><path
         id="path28"
         style="fill:#fafafc;fill-opacity:1;fill-rule:evenodd;stroke:none"
         d="m 735.129,593.875 c -61.863,-20.102 -113.832,-158.68 -20.566,-163.141 3.875,34.903 -6.149,53.571 -2.481,86.903 3.344,30.429 18,44.258 23.047,76.238" /><path
         id="path30"
         style="fill:#0c9504;fill-opacity:1;fill-rule:evenodd;stroke:none"
         d="m 989.484,782.777 c -5.793,-11.152 -13.464,-96.953 -15.722,-117.968 22.468,8.195 38.268,24.746 45.528,51.859 8.96,33.406 -1.55,61.559 -29.806,66.109" /></g></g></svg>