<?xml version="1.0" encoding="UTF-8" standalone="no"?>
<svg
   xmlns:dc="http://purl.org/dc/elements/1.1/"
   xmlns:cc="http://creativecommons.org/ns#"
   xmlns:rdf="http://www.w3.org/1999/02/22-rdf-syntax-ns#"
   xmlns:svg="http://www.w3.org/2000/svg"
   xmlns="http://www.w3.org/2000/svg"
   viewBox="0 0 200 198.66667"
   height="198.66667"
   width="200"
   xml:space="preserve"
   id="svg2"
   version="1.1"><metadata
     id="metadata8"><rdf:RDF><cc:Work
         rdf:about=""><dc:format>image/svg+xml</dc:format><dc:type
           rdf:resource="http://purl.org/dc/dcmitype/StillImage" /></cc:Work></rdf:RDF></metadata><defs
     id="defs6" /><g
     transform="matrix(1.3333333,0,0,-1.3333333,0,198.66667)"
     id="g10"><g
       transform="scale(0.1)"
       id="g12"><path
         id="path14"
         style="fill:#1b9eeb;fill-opacity:1;fill-rule:evenodd;stroke:none"
         d="m 697.684,1439.96 c 202.687,18.23 377.666,-55.59 518.776,-175.97 107.21,-91.46 213.29,-255.21 230.25,-464.83 C 1479.34,395.918 1169.39,79.0273 806.883,50.3516 402.402,18.3477 87.1328,323.676 56.8125,689.758 25.3047,1070.07 305.375,1404.68 697.684,1439.96 Z m 68.3,46.53 -32.3,-0.01 C 521.383,1490.7 317.426,1365.25 222.004,1265.45 -243.188,778.949 107.652,0.96875 754.281,3.70703 1161.44,5.42969 1492.7,334.117 1493.84,742.289 c 0.61,213.82 -80.99,378.371 -212.59,522.351 -88.07,96.37 -311.195,232.45 -515.266,221.85" /><path
         id="path16"
         style="fill:#1b9eeb;fill-opacity:1;fill-rule:evenodd;stroke:none"
         d="m 517.023,632.59 c -25.96,211.59 282.711,236.308 304.25,39.609 10.032,-91.59 -57.48,-158.949 -132.222,-169.66 -89.61,-12.832 -162.828,55.129 -172.028,130.051 z M 807.852,469.25 c 38.664,28.129 75.324,78.168 88.062,140.488 17.527,85.821 -11.402,118.899 -34.5,178.274 19.551,23.019 108.32,113.008 120.422,119.738 l 2.617,-88.164 76.307,0.922 -1.29,226.742 -225.677,-1.12 -0.359,-75.353 88.109,-2.136 c -2.609,-15.641 -16.25,-23.094 -26.648,-33.254 -11.192,-10.938 -18.61,-18.688 -29.719,-29.707 -19.602,-19.41 -39.121,-43.242 -60.613,-58.602 -24.391,5.399 -43.637,22.379 -69.879,31.02 C 613.012,918.199 467.563,839.68 439.492,695.961 402.113,504.586 630.691,340.32 807.852,469.25" /></g></g></svg>