<?xml version="1.0" encoding="UTF-8" standalone="no"?>
<svg
   xmlns:dc="http://purl.org/dc/elements/1.1/"
   xmlns:cc="http://creativecommons.org/ns#"
   xmlns:rdf="http://www.w3.org/1999/02/22-rdf-syntax-ns#"
   xmlns:svg="http://www.w3.org/2000/svg"
   xmlns="http://www.w3.org/2000/svg"
   viewBox="0 0 200 198.66667"
   height="198.66667"
   width="200"
   xml:space="preserve"
   id="svg2"
   version="1.1"><metadata
     id="metadata8"><rdf:RDF><cc:Work
         rdf:about=""><dc:format>image/svg+xml</dc:format><dc:type
           rdf:resource="http://purl.org/dc/dcmitype/StillImage" /></cc:Work></rdf:RDF></metadata><defs
     id="defs6" /><g
     transform="matrix(1.3333333,0,0,-1.3333333,0,198.66667)"
     id="g10"><g
       transform="scale(0.1)"
       id="g12"><path
         id="path14"
         style="fill:#006ece;fill-opacity:1;fill-rule:evenodd;stroke:none"
         d="M 700.145,1436.71 C 1092.23,1469.27 1422.14,1158.28 1444.47,796.109 1469.34,392.699 1170.16,69.3477 803.434,46.7383 687.285,39.5781 592.23,55.582 497.086,92.2031 418.121,122.59 333.332,174.793 282.461,224.852 157.273,348.039 64.3516,496.207 54.1211,690.738 32.5742,1100.3 324.984,1405.55 700.145,1436.71 Z m 64.121,48.46 c -14.551,-0.03 -16.864,0.52 -31.903,-0.22 -183.078,2.2 -394.89,-102.31 -512.609,-224.13 C -241.836,783.148 100.824,-0.199219 748.496,0.335938 1293.02,0.78125 1638.18,555.297 1429.77,1038.53 c -34.21,79.33 -89.79,163.75 -148.71,221.58 -63.79,62.63 -123.96,108.17 -216.48,153.69 -68.135,33.52 -202.158,72.32 -300.314,71.37" /><path
         id="path16"
         style="fill:#006ece;fill-opacity:1;fill-rule:evenodd;stroke:none"
         d="m 455.523,453.25 c -25.32,0 -38.73,13.414 -38.73,38.719 0,8.926 26.449,31.621 34.023,37.469 31.079,24.003 120.387,108.828 146.957,139 l 71.5,71.472 c 26.379,28.52 1,11.723 39.43,32.055 11.492,-21.715 5.09,-15.313 26.801,-26.809 -5.301,-10.019 -4.66,-14.746 -12.469,-23.269 -6.89,-7.52 -12.012,-9.153 -19.582,-16.16 C 655.645,661.52 525.523,529.422 492.984,487.27 c -5.847,-7.571 -28.539,-34.02 -37.461,-34.02 z m 312.75,524.246 c 0,-26.062 32.161,-46.867 65.532,2.977 8.91,-5.965 14.769,-8.785 20.859,-17.871 -6.789,-10.137 -26.82,-23.547 -26.82,-35.743 0,-15.23 9.469,-26.808 26.82,-26.808 17.5,0 25.969,18.273 38.719,26.808 10.691,-5.656 11.039,-4.699 17.871,-14.894 -9.051,-13.516 -26.809,-19.531 -26.809,-41.703 0,-10.383 13.45,-23.828 23.828,-23.828 19.641,0 29.141,18.394 41.7,26.808 l 15.57,-14.215 c -8.188,-11.898 -23.563,-19.976 -28.242,-32.984 -5.539,-15.438 6.094,-33.227 24.594,-33.227 21.859,0 23.519,21.954 41.695,26.813 2.91,-10.899 3.14,-6.246 8.93,-14.899 -12.5,-18.683 -29.774,-19.074 -29.774,-47.656 0,-9.847 13.867,-20.851 23.824,-20.851 18.7,0 27.11,16.058 38.72,23.828 1.35,-16.274 12.94,-15.809 -21.56,-49.918 L 876.254,559.734 c -17.981,-17.976 -41.231,-44.398 -59.879,-59.269 l -91.883,-83.852 c -19.187,-16.328 -13.597,-30.496 -70.699,14.496 l -94.02,84.692 c 11.192,16.715 86.489,92.597 100.551,104.976 l 88.969,80.813 c 4.52,6.562 7.758,16.644 10.941,24.801 3.84,9.828 39.68,102.172 25.911,102.172 -10.161,0 -112.391,-36.918 -120.973,-42.856 -6.539,-4.527 -8.617,-10.625 -15.27,-17.496 -12.238,-12.656 -20.218,-22.91 -32.851,-35.652 l -31.215,-34.313 c -20.941,-20.922 -87.063,-90.027 -100.531,-99.043 -10.211,6.84 -50.641,56.02 -50.641,68.508 0,7.055 49.508,60.078 57.316,67.797 38.907,38.461 232.704,240.023 256.704,258.601 25.511,19.751 16.148,22.501 43.418,16.151 -6.379,-9.53 -23.829,-20.928 -23.829,-32.764 z M 387.004,676.652 c 0,-38.031 45.851,-77.839 65.527,-107.238 l -38.027,-33.445 c -38.379,-37.848 -36.539,-57.672 -0.008,-93.953 12.086,-12.008 26.137,-22.325 44.418,-19.09 32.371,5.734 49.981,46.969 74.047,63.09 36.652,-24.547 156.07,-164.664 195.953,-127.528 13.149,12.246 20.047,21.825 35.121,33.465 l 337.845,347.25 c 0,21.246 -17.58,39.836 -26.81,53.613 44.59,29.852 25.64,62.555 2.98,62.555 -17.5,0 -25.16,-13.766 -35.74,-20.855 l -14.38,12.472 c 7.93,12.047 29.27,23.086 29.27,41.149 0,16.64 -14.06,27.386 -29.04,25.492 -14.18,-1.789 -23.03,-18.481 -33.508,-25.492 l -15.566,14.215 c 12.316,17.761 27.484,21.183 27.484,42.378 0,16.821 -10.836,23.829 -26.808,23.829 -17.508,0 -25.981,-18.27 -38.731,-26.805 l -17.308,15.473 c 6.191,9.496 21.8,18.347 24.593,30.804 3.157,14.069 -8.023,31.169 -25.152,31.169 -17.5,0 -25.98,-18.28 -38.719,-26.809 l -17.871,17.869 c 5.93,8.86 20.848,18.4 20.848,29.79 0,15.23 -9.457,26.81 -26.809,26.81 -17.09,0 -23.64,-15.73 -35.738,-23.83 -51.461,34.46 -42.941,28.02 -71.5,5.96 -28.742,-22.2 -109.352,-102.728 -140.711,-130.345 l -205.5,-211.52 c -8.351,-8.383 -20.16,-15.34 -20.16,-30.473" /></g></g></svg>