<?xml version="1.0" encoding="UTF-8" standalone="no"?>
<svg
   xmlns:dc="http://purl.org/dc/elements/1.1/"
   xmlns:cc="http://creativecommons.org/ns#"
   xmlns:rdf="http://www.w3.org/1999/02/22-rdf-syntax-ns#"
   xmlns:svg="http://www.w3.org/2000/svg"
   xmlns="http://www.w3.org/2000/svg"
   viewBox="0 0 200 200"
   height="200"
   width="200"
   xml:space="preserve"
   id="svg2"
   version="1.1"><metadata
     id="metadata8"><rdf:RDF><cc:Work
         rdf:about=""><dc:format>image/svg+xml</dc:format><dc:type
           rdf:resource="http://purl.org/dc/dcmitype/StillImage" /></cc:Work></rdf:RDF></metadata><defs
     id="defs6" /><g
     transform="matrix(1.3333333,0,0,-1.3333333,0,200)"
     id="g10"><g
       transform="scale(0.1)"
       id="g12"><path
         id="path14"
         style="fill:#0fd420;fill-opacity:1;fill-rule:evenodd;stroke:none"
         d="m 926.715,782.383 58.73,-1.426 c 18.185,117.922 67.935,115.356 118.265,177.727 68.77,85.196 13.43,305.276 55.93,365.756 l -166.167,89.22 c 18.357,-24.94 85.047,-203.41 93.847,-242.08 C 1141.25,934.906 967.066,992.063 926.715,782.383 Z M 1074.3,511.258 c 54.49,6.156 25.4,15.262 70.91,36.394 41.06,19.063 46.25,1.176 60.59,42.426 -50.71,8.789 -77.55,-11.926 -123.17,16.91 -63.22,39.981 17.73,22.106 -96.876,61.418 10.992,-106.093 14.211,-34.336 60.516,-115.824 17.16,-30.195 6.5,-20.297 28.03,-41.324 z M 796.016,764.621 728.617,812.664 C 619.262,878.73 525.793,726.328 741.813,682.465 925.914,645.078 851.207,798.902 910.254,877.23 c 24.539,32.547 43.461,40.801 -7.098,79.09 -88.82,-22.937 0.129,-52.199 -107.14,-191.699 z m 178.16,-74.824 c 13.699,-7.539 139.914,-50.981 157.024,-52.234 1.84,0.367 135.18,76.941 26.79,139.96 -17.04,-22.21 -20.86,-54.058 -38.31,-80.57 -65.45,7.449 -112.53,86.887 -182.375,67.418 -52.129,-14.535 -80.41,-113.738 -107.809,-166.476 l 17.199,77.554 c -77.621,-25.285 -229.179,5.098 -244.543,77.949 -10.136,48.168 28.231,90.77 73.633,91.207 56.778,0.551 78.18,-44.796 124.36,-60.082 -15.239,42.883 -39.25,47.09 -91.223,62.313 l 25.191,5.82 c 24.082,6.196 34.692,4.282 62.485,43.422 39.937,56.242 22.804,48.844 15.457,94.024 -7.059,43.278 6.66,84.728 -19.16,123.878 -71.2,107.91 -215.879,100.33 -276.2,4.85 -49.871,-78.91 -9.347,-147.26 14.832,-227.846 25.328,-84.402 4.489,-154.429 36.207,-238.707 29.332,-77.968 70.418,-124.504 125.301,-159.3 60,-38.032 163.25,-59.164 225.59,-13.157 58.641,43.274 57.188,124.145 55.551,209.977" /><path
         id="path16"
         style="fill:#0fd420;fill-opacity:1;fill-rule:evenodd;stroke:none"
         d="M 701.492,1442.47 C 1093.57,1475.03 1423.5,1164.04 1445.82,801.871 1470.7,398.461 1171.52,75.1094 804.785,52.5 688.625,45.3398 593.586,61.3438 498.426,97.9648 419.477,128.352 334.672,180.555 283.805,230.613 158.625,353.801 65.707,501.969 55.4648,696.496 33.9219,1106.06 326.336,1411.32 701.492,1442.47 Z m 64.113,48.46 c -14.539,-0.03 -16.859,0.52 -31.89,-0.22 C 550.633,1492.91 338.816,1388.4 221.094,1266.58 -240.484,788.91 102.176,5.5625 749.844,6.09766 1294.38,6.54297 1639.52,561.059 1431.13,1044.29 c -34.22,79.33 -89.81,163.75 -148.72,221.58 -63.78,62.63 -123.95,108.17 -216.47,153.69 -68.147,33.52 -202.167,72.32 -300.335,71.37" /></g></g></svg>