<?xml version="1.0" encoding="UTF-8" standalone="no"?>
<svg
   xmlns:dc="http://purl.org/dc/elements/1.1/"
   xmlns:cc="http://creativecommons.org/ns#"
   xmlns:rdf="http://www.w3.org/1999/02/22-rdf-syntax-ns#"
   xmlns:svg="http://www.w3.org/2000/svg"
   xmlns="http://www.w3.org/2000/svg"
   viewBox="0 0 200 198.66667"
   height="198.66667"
   width="200"
   xml:space="preserve"
   id="svg2"
   version="1.1"><metadata
     id="metadata8"><rdf:RDF><cc:Work
         rdf:about=""><dc:format>image/svg+xml</dc:format><dc:type
           rdf:resource="http://purl.org/dc/dcmitype/StillImage" /></cc:Work></rdf:RDF></metadata><defs
     id="defs6" /><g
     transform="matrix(1.3333333,0,0,-1.3333333,0,198.66667)"
     id="g10"><g
       transform="scale(0.1)"
       id="g12"><path
         id="path14"
         style="fill:#009a96;fill-opacity:1;fill-rule:evenodd;stroke:none"
         d="m 608.906,518.105 c -22.543,0 -33.199,2.032 -54.718,10.821 -6.372,2.613 -14.262,7.051 -20.024,10.722 -0.879,0.563 -1.211,0.879 -2.082,1.5 -1.445,1.032 -2.676,1.899 -4.156,3 -6.879,5.141 -15.742,14.18 -20.918,21.071 -13.262,17.64 -21.516,39.801 -21.516,62.469 0,11.46 2.192,23.179 5.125,33.8 2.86,10.36 6.758,18.75 10.996,27.91 1.133,2.438 2.172,4.153 3.332,6.391 4.41,8.52 38.25,55.84 43.973,63.57 l 48.719,68.532 c 2.379,-0.551 4.058,-2.371 6.039,-3.692 2.101,-1.402 3.73,-2.672 5.73,-3.992 l 87.559,-61.949 c 1.019,-0.719 2.058,-1.328 3.07,-2.059 1.078,-0.761 1.738,-1.324 2.969,-2.148 l 82.031,-57.754 c -0.5,-2.149 -0.652,-1.719 -1.82,-3.297 l -61.16,-88.352 c -3.231,-4.281 -6.188,-8.589 -9.43,-13.101 l -23.781,-31.008 c -5.789,-7.113 -10.039,-11.082 -16.578,-17.211 l -12.653,-9.379 c -15.406,-9.133 -30.578,-15.844 -50.707,-15.844 z m 195.078,203.793 -19.898,14.411 c -3.41,2.578 -6.531,4.761 -10.02,7.386 -3.48,2.625 -6.679,4.871 -10.019,7.391 l -30.129,22.09 c -2.203,1.621 -8.574,5.762 -9.813,7.613 l 16.391,23.039 c 1.328,1.891 2.731,3.692 4.098,5.629 l 45.562,62.981 c 3.071,-0.821 38.059,-24.442 42.801,-27.872 l 8.918,-6.437 c 4.641,-3.512 8.73,-6.129 12.512,-11.563 12.187,-17.546 -3.223,-35.14 -14.352,-51.105 z M 694.926,801.27 c -4.313,2.277 -23.078,15.41 -29.5,19.656 -3.508,2.324 -6.301,4.293 -9.719,6.664 -8.262,5.726 -21.769,14.258 -29.324,19.828 -3.149,2.328 -6.586,4.43 -9.805,6.582 0.477,1.777 2.598,4.418 3.688,6.047 l 15.769,23.152 c 1.32,1.996 2.602,3.621 3.988,5.727 l 11.883,17.312 c 1.258,1.899 2.617,3.789 4.02,5.711 2.797,3.821 5.418,7.43 8.34,11.11 15.078,19.019 25.582,19.351 45.597,6.828 6.403,-4 12.203,-8.098 18.442,-12.278 3.031,-2.031 5.691,-4.101 8.703,-6.152 l 17.746,-12.98 c 2.879,-2.161 5.902,-4.649 8.781,-6.579 -1.222,-1.82 -2.789,-3.71 -4.168,-5.558 -1.472,-1.961 -2.672,-3.563 -4.172,-5.563 z M 445.047,631.789 c 0,-3.07 0.297,-4.371 0.488,-6.691 0.289,-3.508 0.11,-9.371 0.82,-14.032 4.7,-31.23 12.309,-53.539 33.149,-78.468 2.094,-2.489 5.031,-5.071 7.402,-7.45 4.449,-4.46 18.629,-15.378 25.121,-19.429 3.168,-1.973 5.868,-3.86 9.157,-5.692 1.793,-0.988 2.789,-1.648 4.589,-2.57 2.024,-1.027 2.942,-1.738 4.954,-2.738 10.707,-5.352 19.937,-9.274 31.976,-12.559 3.692,-1.004 8.07,-2.043 12.012,-2.832 4.469,-0.91 8.211,-1.199 13.043,-1.82 26.195,-3.367 62.109,3.988 85.484,15.68 3.371,1.691 6.543,3.242 9.602,5.25 14.648,9.648 19.972,15.191 31.652,27.738 9.637,10.363 17.871,21.484 26.289,33.113 12.711,17.59 30.66,42.02 43.328,60.609 l 48.852,69.95 c 1.129,1.64 1.832,2.48 2.969,4.199 l 39.332,57.441 c 4.129,6.2 7.968,11.223 11.488,18.211 0.988,1.957 1.672,2.559 2.531,4.637 5.801,14.062 10.961,24.184 10.961,41.262 0,16.8 -5.539,28.461 -13.523,38.711 -4.219,5.429 -9.657,9.871 -15.078,14.109 l -34.172,24.199 c -4.899,3.242 -9.008,6.403 -13.828,9.723 l -61.86,43.617 c -8.398,5.832 -28.09,20.281 -34.781,23.602 -21.938,10.867 -45.207,12.839 -67.918,2.718 -7.981,-3.55 -15.762,-9.347 -21.648,-15.218 l -62.333,-85.141 c -2.558,-3.598 -4.808,-7.262 -7.539,-10.891 l -7.511,-10.922 c -2.532,-3.796 -5.082,-7.097 -7.59,-10.847 l -30.102,-44.129 c -9.777,-13.77 -20.359,-30.391 -30.136,-43.609 -7.973,-10.79 -14.629,-22.961 -21.684,-34.122 l -9.289,-18.359 c -7.18,-14.953 -15.891,-40.551 -15.699,-58.043 0.05,-3.797 -0.508,-5.379 -0.508,-9.207" /><path
         id="path16"
         style="fill:#009a96;fill-opacity:1;fill-rule:evenodd;stroke:none"
         d="m 809.105,957.949 c 0.493,-0.32 28.54,-19.461 30.719,-19.972 1.36,2.031 2.692,4.164 4.102,6.14 1.39,1.973 2.719,3.981 4.23,6 1.571,2.082 2.77,3.813 4.27,5.992 1.57,2.278 2.929,3.969 4.5,6.239 l 22.437,29.789 c 1.723,2.101 2.981,3.961 4.883,5.871 1.219,1.23 1.277,1.551 2.32,2.802 l 8.051,7.83 c 10.66,8.22 16.528,12.29 32.246,12.29 6.903,0 14.742,-1.68 19.762,-3.8 7.609,-3.22 11.77,-6.38 16.672,-12.52 0.93,-1.15 1.789,-2.25 2.598,-3.53 1.441,-2.295 2.769,-5.252 3.851,-7.943 11.75,-29.449 -7.082,-57.371 -16.57,-85.559 -5.059,-15.039 -12.133,-33.988 -13.52,-50.488 -1.703,-20.18 -3.492,-35.09 6.5,-54.973 1.289,-2.551 2.18,-4.762 3.649,-7.097 8.133,-12.961 14.781,-19.18 26.367,-27.911 3.844,-2.914 9.351,-5.648 13.683,-7.832 28.235,-14.257 58.845,-9.168 87.055,2.051 4.66,1.848 9.55,3.891 13.82,6.141 -0.23,2.808 -18.52,29.269 -19.46,33.277 -2.88,-0.058 -6.75,-2.637 -9.52,-3.797 l -9.43,-3.871 c -4.97,-1.98 -14.8,-5.129 -21.51,-5.129 -20.33,0 -41.494,15.25 -48.634,31.239 -11.922,26.73 1.949,59.621 11.769,84.492 l 15.145,38.605 c 6.62,23.395 10.32,48.215 -0.98,70.795 -1.27,2.58 -2.25,4.19 -3.58,6.65 -1.36,2.49 -2.58,3.86 -4.14,6.11 -14.898,21.79 -44.054,34 -70.445,34 -18.351,0 -43.742,-6.41 -56.968,-19.83 l -7.172,-6.65 c -1.508,-1.5 -1.91,-2.4 -3.309,-3.86 l -13.012,-14.64 c -2.129,-2.62 -4.039,-5.05 -6.152,-7.68 l -17.625,-23.852 c -3.102,-4.289 -16.023,-22.89 -16.602,-25.379" /><path
         id="path18"
         style="fill:#009a96;fill-opacity:1;fill-rule:evenodd;stroke:none"
         d="M 699.496,1440.44 C 1091.57,1473 1421.49,1162.01 1443.81,799.836 1468.7,396.426 1169.52,73.0781 802.777,50.4688 686.633,43.3086 591.586,59.3086 496.434,95.9258 417.477,126.316 332.676,178.516 281.816,228.578 156.625,351.766 63.7031,499.938 53.4727,694.469 31.9258,1104.03 324.336,1409.29 699.496,1440.44 Z m 64.109,48.46 c -14.539,-0.03 -16.851,0.52 -31.898,-0.22 -183.07,2.2 -394.894,-102.31 -512.602,-224.13 C -242.484,786.879 100.176,3.52734 747.848,4.05859 1292.38,4.50781 1637.52,559.027 1429.13,1042.26 c -34.22,79.33 -89.81,163.75 -148.71,221.58 -63.79,62.63 -123.97,108.17 -216.49,153.69 -68.133,33.52 -202.153,72.31 -300.325,71.37" /></g></g></svg>