<?xml version="1.0" encoding="UTF-8" standalone="no"?>
<svg
   xmlns:dc="http://purl.org/dc/elements/1.1/"
   xmlns:cc="http://creativecommons.org/ns#"
   xmlns:rdf="http://www.w3.org/1999/02/22-rdf-syntax-ns#"
   xmlns:svg="http://www.w3.org/2000/svg"
   xmlns="http://www.w3.org/2000/svg"
   viewBox="0 0 200 200"
   height="200"
   width="200"
   xml:space="preserve"
   id="svg2"
   version="1.1"><metadata
     id="metadata8"><rdf:RDF><cc:Work
         rdf:about=""><dc:format>image/svg+xml</dc:format><dc:type
           rdf:resource="http://purl.org/dc/dcmitype/StillImage" /></cc:Work></rdf:RDF></metadata><defs
     id="defs6" /><g
     transform="matrix(1.3333333,0,0,-1.3333333,0,200)"
     id="g10"><g
       transform="scale(0.1)"
       id="g12"><path
         id="path14"
         style="fill:#00cecb;fill-opacity:1;fill-rule:evenodd;stroke:none"
         d="m 615.98,962.805 c 60.403,14.109 112,-28.801 122.063,-79.016 12.531,-62.539 -30.16,-111.598 -79.41,-122.16 C 530.352,734.117 479.363,930.895 615.98,962.805 Z M 763.031,528.109 c 47.422,26.27 73.84,-42.164 37.735,-66.363 -29.664,-19.883 -70.75,8.77 -57.344,47.68 6.183,17.937 9.351,13 19.609,18.683 z m 109.504,-77.132 c -8.769,15.125 -8.914,5.23 -12.613,25.113 l 21.562,12.051 c -0.101,24.726 -4.019,14.836 -20.742,27 2.531,18.683 2.59,8.812 11.238,23.398 l -8.578,15.559 -24.871,-1.832 -3.269,28.8 c -24.078,11.446 -8.821,2.895 -35.086,-6.988 l -12.274,22.176 -18.41,0.019 -7.961,-21.964 c -19.105,3.605 -9.308,2.531 -23.379,12.992 l -17.117,-8.379 1.231,-24.766 c -13.813,-4.383 -10.27,-2.648 -24.364,0.746 l -9.468,-17.265 c 6.379,-13.129 7.847,-8.278 12.742,-22.305 -8.731,-6.703 2.097,0.918 -10.641,-5.984 -1.121,-0.606 -5.281,-2.727 -6.121,-3.215 -0.66,-0.387 -2.332,-3.024 -2.809,-2.141 -0.484,0.903 -1.82,-1.562 -2.722,-2.355 0,-24.375 9.988,-18.582 22.293,-27.051 -5.414,-14.164 -6.645,-8.602 -13.281,-22.895 l 10.386,-16.355 c 23.094,5.562 18.801,1.934 25.981,0.195 l -3.75,-23.656 17.89,-8.391 c 13.828,10.321 3.661,8.723 24.153,12.457 l 6.23,-22.285 h 19.117 c 0.692,0.907 1.641,2.145 2.024,2.77 l 4.898,8.808 c 2.598,4.621 3.278,5.887 6.578,10.102 16.5,-5.809 6.621,-6.508 22.293,-11.379 9.438,5.188 11.957,4.719 13.41,12.793 4.188,23.266 -1.531,-15.879 0.657,8.051 0.461,5.031 -0.918,2.488 0.781,13.961 l 24.23,-3.004 z m 133.695,221.679 c 62.4,24.977 103.47,-73.691 35.6,-100.965 -42.076,-16.91 -91.838,24.973 -67.377,76.235 9.18,19.254 11.098,16.453 31.777,24.73 z M 872.871,643.27 c 0,-53.649 -0.008,-38.223 21.531,-48.618 36.743,-17.742 15.293,-42.047 9.922,-67.183 l 21.067,-23.34 c 29.39,3.793 18.211,12.488 52.07,9.988 20.141,-18.004 17.082,-31.984 31.079,-40.711 1.17,-0.336 28.87,-5.328 37.34,8.828 16.44,27.5 5.96,43.614 66.91,20.868 l 28.44,29.015 c -9.34,23.504 -29.65,57.629 29.93,68.379 0.15,54.715 2.4,37.328 -22.25,50.543 -30.96,16.602 -17.24,32.578 -7.03,63.356 l -24.05,26.769 c -30.95,-7.324 -57.26,-33.473 -74.37,30.176 l -35.06,0.531 c -26.755,-7.406 0.52,-65.18 -77.986,-29.469 l -26.531,-29.261 c 19.832,-43.977 12.762,-58 -31.012,-69.871 z m -410.519,443.89 -48.289,-49.37 c 10.902,-56.294 69.929,-93.997 -56.45,-137.36 l -0.937,-75.582 c 30.617,-11.903 57.668,-15.676 72.937,-42.621 19.192,-33.864 -7.109,-62.731 -16.168,-91.59 l 50.629,-53.207 c 32.852,10.629 102.11,71.586 134.301,-55.391 h 77.027 c 8.391,32.59 20.61,60.789 44.493,73.191 34.867,18.114 64.179,-8.914 90.91,-18.187 l 51.566,52.371 c -8.836,31.387 -35.828,52.379 -18.57,89.059 13.762,29.234 42.14,35.941 74.875,45.613 l -1.043,76.75 c -127.61,38.312 -65.891,86.559 -56.18,138.224 l -49.621,47.62 c -33.508,-9.9 -108.277,-69.57 -135,55.89 l -78.801,-0.03 c -25.996,-126.13 -104.918,-64.79 -135.679,-55.38" /><path
         id="path16"
         style="fill:#00cecb;fill-opacity:1;fill-rule:evenodd;stroke:none"
         d="M 699.855,1445.11 C 1091.93,1477.66 1421.84,1166.68 1444.17,804.508 1469.04,401.094 1169.87,77.7461 803.133,55.1367 686.984,47.9766 591.934,63.9805 496.781,100.602 417.824,130.988 333.035,183.191 282.156,233.246 156.98,356.434 64.0547,504.605 53.8125,699.129 32.2813,1108.7 324.684,1413.95 699.855,1445.11 Z m 64.106,48.46 c -14.547,-0.03 -16.856,0.52 -31.898,-0.21 C 548.984,1495.55 337.172,1391.04 219.445,1269.21 -242.137,791.547 100.523,8.19531 748.191,8.73047 1292.73,9.17578 1637.87,563.695 1429.48,1046.93 c -34.22,79.32 -89.81,163.75 -148.72,221.59 -63.79,62.61 -123.96,108.16 -216.47,153.68 -68.149,33.51 -202.169,72.32 -300.329,71.37" /></g></g></svg>