<?xml version="1.0" encoding="UTF-8" standalone="no"?>
<svg
   xmlns:dc="http://purl.org/dc/elements/1.1/"
   xmlns:cc="http://creativecommons.org/ns#"
   xmlns:rdf="http://www.w3.org/1999/02/22-rdf-syntax-ns#"
   xmlns:svg="http://www.w3.org/2000/svg"
   xmlns="http://www.w3.org/2000/svg"
   viewBox="0 0 198.66667 198.66667"
   height="198.66667"
   width="198.66667"
   xml:space="preserve"
   id="svg2"
   version="1.1"><metadata
     id="metadata8"><rdf:RDF><cc:Work
         rdf:about=""><dc:format>image/svg+xml</dc:format><dc:type
           rdf:resource="http://purl.org/dc/dcmitype/StillImage" /></cc:Work></rdf:RDF></metadata><defs
     id="defs6" /><g
     transform="matrix(1.3333333,0,0,-1.3333333,0,198.66667)"
     id="g10"><g
       transform="scale(0.1)"
       id="g12"><path
         id="path14"
         style="fill:#65dc6e;fill-opacity:1;fill-rule:evenodd;stroke:none"
         d="M 694.672,1438.35 C 1086.75,1470.91 1416.67,1159.92 1438.99,797.75 1463.86,394.34 1164.69,70.9766 797.949,48.3789 681.805,41.2188 586.754,57.2188 491.605,93.8398 412.645,124.23 327.852,176.43 276.984,226.488 151.801,349.68 58.875,497.84 48.6445,692.371 27.1016,1101.94 319.504,1407.19 694.672,1438.35 Z m 64.113,48.46 c -14.547,-0.03 -16.859,0.52 -31.898,-0.22 -183.074,2.2 -394.891,-102.31 -512.614,-224.13 C -247.313,784.789 95.3477,1.4375 743.02,1.96875 1287.55,2.41797 1632.7,556.93 1424.3,1040.17 c -34.21,79.33 -89.8,163.75 -148.71,221.58 -63.8,62.63 -123.96,108.17 -216.48,153.68 -68.141,33.53 -202.161,72.32 -300.325,71.38" /><path
         id="path16"
         style="fill:#65dc6e;fill-opacity:1;fill-rule:evenodd;stroke:none"
         d="m 695.496,902.988 c 36.817,-25.359 -110.973,-129.179 -153.121,-63.429 -8.516,13.281 -13.266,49.953 16.395,65.691 41.652,22.109 117.23,14.949 136.726,-2.262 z m 15.574,83.731 c -21.297,98.751 -43.707,154.071 -106.336,149.981 14.727,-31 4.598,-12.88 24.621,-38.48 13.856,-17.74 16.793,-18.63 27.375,-40.2 25.813,-52.65 3.731,-52.58 54.34,-71.301 z m 218.672,147.251 c -43.793,10.32 -92.137,29.09 -136.957,9.6 -29.48,-12.8 -77.012,-66.94 -57.898,-120.6 0.84,-2.34 -11.934,-25.681 54.289,-24.732 110.047,1.582 62.66,66.792 140.566,135.732 z M 563.98,966.801 C 355.172,882.609 476.277,451.242 690.031,457.578 c 83.192,2.461 149.852,-15.488 206.551,35.961 70.922,64.328 170.168,288.961 91.02,417.891 -33.911,55.226 -122.985,89.7 -207.93,50.597 -68.52,-31.527 -22.145,-26.285 -90.168,2.692 -46.805,19.929 -79.242,20.742 -125.524,2.082" /></g></g></svg>