<?xml version="1.0" encoding="UTF-8" standalone="no"?>
<svg
   xmlns:dc="http://purl.org/dc/elements/1.1/"
   xmlns:cc="http://creativecommons.org/ns#"
   xmlns:rdf="http://www.w3.org/1999/02/22-rdf-syntax-ns#"
   xmlns:svg="http://www.w3.org/2000/svg"
   xmlns="http://www.w3.org/2000/svg"
   viewBox="0 0 200 198.66667"
   height="198.66667"
   width="200"
   xml:space="preserve"
   id="svg2"
   version="1.1"><metadata
     id="metadata8"><rdf:RDF><cc:Work
         rdf:about=""><dc:format>image/svg+xml</dc:format><dc:type
           rdf:resource="http://purl.org/dc/dcmitype/StillImage" /></cc:Work></rdf:RDF></metadata><defs
     id="defs6" /><g
     transform="matrix(1.3333333,0,0,-1.3333333,0,198.66667)"
     id="g10"><g
       transform="scale(0.1)"
       id="g12"><path
         id="path14"
         style="fill:#309897;fill-opacity:1;fill-rule:evenodd;stroke:none"
         d="m 1020.68,540.867 c -128.059,83.449 -99.328,-48.859 -156.809,-40.097 -5.879,36.386 54.551,80.64 11.5,112.019 -30.582,14.5 -36.223,-10.851 -64.832,-15.801 -4.019,114.957 96.281,204.676 209.521,206.66 117.66,2.047 208.84,-90.07 214.62,-201.64 6.19,-119.512 -86.19,-212.82 -196.05,-221.41 -119.759,-9.352 -221.13,80.39 -226.689,189.289 l 24.879,18.859 c 9.539,6.391 17.801,9.152 33.012,9.731 5.879,-40.321 -10.211,-36.27 -22.121,-66.719 -10.25,-26.223 1.012,-54.852 33.918,-48.059 27.711,5.719 30.781,31.301 45.301,51.375 21.402,29.614 50.793,6.395 72.773,3.731 -2.824,-18.321 -2.812,-11.258 -6.941,-15.489 -68.051,17.372 -87.61,-125.82 -33.782,-110.75 16.399,4.59 18.411,27.75 26.211,41.481 48.799,-5.449 95.579,-26.699 132.669,8.949 78.23,75.192 30,249.793 -44.5,195.383 -14.48,-10.582 -21.65,-32.59 -50.17,-26.391 -21.27,4.617 -47.471,24.649 -65.159,4.539 -43.289,-43.64 78.079,-61.57 79.099,-62.449 7.47,-6.441 -1.29,-25.672 1.3,-40.449 -17.72,2.859 -4.56,-5.27 -17.75,7.238 z M 52.1289,743.586 c -0.4375,183.41 70.4021,343.234 175.0391,463.964 45.094,52.02 163.164,148.17 221.602,163.41 8.921,-17.41 5.98,-39.19 10.91,-58.55 11.929,-14.48 18.261,-6 25.14,-26 7.981,-23.2 -6.648,-96.18 -9.16,-126.66 -4.898,-59.72 -0.492,-119.48 12.43,-175.645 C 511.063,884.258 572,803.688 583.391,705.426 596.82,589.566 525.129,509.148 481.98,435.977 419.453,329.969 433.41,255.688 429.91,126.168 379.652,143.598 315.711,199.68 280.922,228.289 145.871,339.348 52.6133,546.867 52.1289,743.586 Z M 1282.74,560.746 c -5.84,26.738 -11.29,11.442 -14.68,36.75 -6.03,44.992 -0.09,57.192 -24.16,113.781 -23.01,54.09 -80.95,123.141 -122.08,152.309 l -115.37,67.633 c -15.45,14.879 -1.89,47.597 -8.458,73.921 -26.07,104.3 -257.012,171 -232.25,312.91 3.309,18.99 51.289,106.6 62.43,118.3 74.969,-3.25 176.388,-39.69 235.218,-69.14 69.28,-34.68 130.84,-82.59 175.51,-126.04 C 1536.69,951.477 1509.56,455.828 1182.09,197.738 1145.57,168.949 1046,102.988 989.832,91.6797 c 45.618,51.1683 -7.641,88.7773 29.958,154.1173 22.27,38.699 66.01,57.359 106.39,85.531 53.3,37.199 102.78,96.317 127.4,160.668 6.03,15.731 6.75,22.363 10.5,39.231 7.33,32.871 3.16,6.66 18.66,29.519 z M 7.69922,729.875 C 15.0625,324.984 345.148,1.61719 755.039,2.72656 1159.14,3.81641 1489.88,336.336 1491.24,739.02 1494.59,1735.53 -10.5703,1734.17 7.69922,729.875" /><path
         id="path16"
         style="fill:#fafefd;fill-opacity:1;fill-rule:evenodd;stroke:none"
         d="m 1022.06,767.059 c 66.82,18.808 101.53,-87.012 30.08,-110.352 -75.949,-24.832 -110.437,87.731 -30.08,110.352 z m -1.38,-226.192 c 13.19,-12.508 0.03,-4.379 17.75,-7.238 -2.59,14.777 6.17,34.008 -1.3,40.449 -1.02,0.879 -122.388,18.809 -79.099,62.449 17.688,20.11 43.889,0.078 65.159,-4.539 28.52,-6.199 35.69,15.809 50.17,26.391 74.5,54.41 122.73,-120.191 44.5,-195.383 -37.09,-35.648 -83.87,-14.398 -132.669,-8.949 -7.8,-13.731 -9.812,-36.891 -26.211,-41.481 -53.828,-15.07 -34.269,128.122 33.782,110.75 4.129,4.231 4.117,-2.832 6.941,15.489 -21.98,2.664 -51.371,25.883 -72.773,-3.731 -14.52,-20.074 -17.59,-45.656 -45.301,-51.375 -32.906,-6.793 -44.168,21.836 -33.918,48.059 11.91,30.449 28,26.398 22.121,66.719 -15.211,-0.579 -23.473,-3.34 -33.012,-9.731 l -24.879,-18.859 c 5.559,-108.899 106.93,-198.641 226.689,-189.289 109.86,8.59 202.24,101.898 196.05,221.41 -5.78,111.57 -96.96,203.687 -214.62,201.64 -113.24,-1.984 -213.54,-91.703 -209.521,-206.66 28.609,4.95 34.25,30.301 64.832,15.801 43.051,-31.379 -17.379,-75.633 -11.5,-112.019 57.481,-8.762 28.75,123.546 156.809,40.097" /><path
         id="path18"
         style="fill:#309897;fill-opacity:1;fill-rule:evenodd;stroke:none"
         d="m 1022.06,767.059 c -80.357,-22.621 -45.869,-135.184 30.08,-110.352 71.45,23.34 36.74,129.16 -30.08,110.352" /></g></g></svg>