<?xml version="1.0" encoding="UTF-8" standalone="no"?>
<svg
   xmlns:dc="http://purl.org/dc/elements/1.1/"
   xmlns:cc="http://creativecommons.org/ns#"
   xmlns:rdf="http://www.w3.org/1999/02/22-rdf-syntax-ns#"
   xmlns:svg="http://www.w3.org/2000/svg"
   xmlns="http://www.w3.org/2000/svg"
   viewBox="0 0 200 198.66667"
   height="198.66667"
   width="200"
   xml:space="preserve"
   id="svg2"
   version="1.1"><metadata
     id="metadata8"><rdf:RDF><cc:Work
         rdf:about=""><dc:format>image/svg+xml</dc:format><dc:type
           rdf:resource="http://purl.org/dc/dcmitype/StillImage" /></cc:Work></rdf:RDF></metadata><defs
     id="defs6" /><g
     transform="matrix(1.3333333,0,0,-1.3333333,0,198.66667)"
     id="g10"><g
       transform="scale(0.1)"
       id="g12"><path
         id="path14"
         style="fill:#1b9deb;fill-opacity:1;fill-rule:evenodd;stroke:none"
         d="M 687.918,1439.37 C 1088.28,1480.2 1410.92,1168.41 1443.7,810.668 1481.32,400.191 1174.75,86.5898 812.566,51.1406 407.789,11.5273 85.9102,325.008 55.2266,683.02 42.8477,827.477 78.5664,989.16 151.688,1104.7 c 112.339,177.54 280.23,308.55 536.23,334.67 z M 217.945,1262.24 c -35.808,-37.78 -52.297,-56.63 -82.59,-100.21 C -192.121,690.957 142.41,-0.800781 755.227,3.37109 1411.92,7.82813 1733.39,802.578 1278.46,1266.57 c -99.01,100.99 -299.312,226.02 -516.011,220.37 -214.543,-6.61 -392.222,-64.05 -544.504,-224.7" /><path
         id="path16"
         style="fill:#1b9deb;fill-opacity:1;fill-rule:evenodd;stroke:none"
         d="M 839.43,446.191 C 813.766,348.762 670.066,388.367 697.426,485.66 721.16,570.059 864.047,539.621 839.43,446.191 Z M 696.129,561.359 c 3.187,51.852 139.738,49 144.039,1.09 -55.34,5.992 -29.879,43.262 -144.039,-1.09 z m 127.609,428.789 c -21.929,-48.14 -152.199,-27.207 -149.66,26.912 1.238,26.38 39.621,45.16 66.059,51.88 34.691,8.82 78.562,7.14 111.199,-0.98 119.391,-29.71 202.444,-119.569 235.234,-234.78 34.36,0.261 50.56,6.601 75.32,-12.301 47.02,-35.93 39.72,-94.211 3.74,-122.258 -23.26,-18.129 -43.25,-13.301 -76.69,-15.082 -21.23,-31.93 -10.98,-61.43 -72.52,-132.809 -25.104,-29.109 -75.936,-70.851 -124.045,-87.128 l -10.695,31.539 c -3.492,11.687 -9.434,20.777 -9.051,28.648 0.898,18.27 23.699,23.461 11.328,60.051 -12.141,35.89 -62.012,59.957 -110.289,60.672 -51.723,0.746 -99.102,-19.274 -117.113,-49.403 -19.719,-32.992 -2.035,-43.191 4.761,-65.031 5.469,-17.601 0.633,-12.207 -5.867,-29.449 -4.922,-13.039 -4.824,-26.09 -9.91,-36.879 -42.16,9.059 -103.613,60.32 -123.59,82.762 -30.07,33.738 -57.793,80.847 -72.902,138.09 -35.57,-0.805 -53.399,-6.993 -77.5,13.406 -15.52,13.121 -30.418,31.281 -30.789,59.051 -1.063,79.109 71.578,76.179 108.699,76.203 22.711,90.465 105.012,193.678 183.313,214.198 -6.461,-73.472 24.886,-106.89 85.089,-122.292 60.899,-15.578 137.047,-0.859 150.84,48.07 16.809,59.712 -59.09,96.082 -113.57,80.912 -35.731,-9.96 -33.231,-47.8 -5.242,-48.42 27.472,-0.61 57.242,19.83 73.851,-15.582 z M 295.195,761.008 c 1.485,-15.297 1.504,-17.59 5.68,-34.719 17.613,-75.66 109.5,-89.601 112.191,-91.43 10.649,-11.871 18.161,-35 27.231,-50.937 82.519,-145.063 198.57,-157.184 222.863,-179.512 17.797,-16.363 33.977,-58.43 101.137,-60.289 61.223,-1.683 81.59,30.738 105.07,56.488 18.688,20.5 149.793,45.321 223.333,178.938 9.14,16.594 17.5,40.98 29.27,53.672 11.1,9.34 116.42,13.07 118.8,123.808 2.39,111.993 -111.95,118.5 -121.03,127.121 -8.11,7.704 -37.94,118.992 -165.302,191.032 C 767.066,1181.16 518.289,1110.69 424.27,900.531 409.758,868.078 398.059,884 364.656,868.879 329.957,853.168 293.219,809.922 295.195,761.008" /><path
         id="path18"
         style="fill:#1b9deb;fill-opacity:1;fill-rule:evenodd;stroke:none"
         d="m 663.867,772.25 c -40.531,-12.539 -22.078,-66.949 17.352,-56.512 31.871,8.45 22.687,68.891 -17.352,56.512" /><path
         id="path20"
         style="fill:#1b9deb;fill-opacity:1;fill-rule:evenodd;stroke:none"
         d="m 847.566,774.328 c -6.507,-9.859 -17.808,-22.281 -8.007,-42.226 6.449,-13.11 24.246,-18.223 38.5,-11.375 25.25,12.113 24.226,65.121 -30.493,53.601" /><path
         id="path22"
         style="fill:#f4fcfc;fill-opacity:1;fill-rule:evenodd;stroke:none"
         d="m 696.129,561.359 c 114.16,44.352 88.699,7.082 144.039,1.09 -4.301,47.91 -140.852,50.762 -144.039,-1.09" /></g></g></svg>