<?xml version="1.0" encoding="UTF-8" standalone="no"?>
<svg
   xmlns:dc="http://purl.org/dc/elements/1.1/"
   xmlns:cc="http://creativecommons.org/ns#"
   xmlns:rdf="http://www.w3.org/1999/02/22-rdf-syntax-ns#"
   xmlns:svg="http://www.w3.org/2000/svg"
   xmlns="http://www.w3.org/2000/svg"
   viewBox="0 0 200 198.66667"
   height="198.66667"
   width="200"
   xml:space="preserve"
   id="svg2"
   version="1.1"><metadata
     id="metadata8"><rdf:RDF><cc:Work
         rdf:about=""><dc:format>image/svg+xml</dc:format><dc:type
           rdf:resource="http://purl.org/dc/dcmitype/StillImage" /></cc:Work></rdf:RDF></metadata><defs
     id="defs6" /><g
     transform="matrix(1.3333333,0,0,-1.3333333,0,198.66667)"
     id="g10"><g
       transform="scale(0.1)"
       id="g12"><path
         id="path14"
         style="fill:#ff93d3;fill-opacity:1;fill-rule:evenodd;stroke:none"
         d="m 663.004,585.898 c -36.402,5.258 -72.402,14.34 -99.699,-14.289 -23.903,-25.07 -28.2,-74.082 -4.403,-102.382 24.2,-28.7 83,-31.789 111.098,-4.196 32.703,32.168 6.402,79 8.902,115.449 31.098,9.325 35.2,6.223 68.098,6.915 99.203,2.07 15.602,-16.672 34.203,-91.391 9.899,-40.129 49.797,-59.141 96,-44.84 56.899,17.602 89.399,146.809 -57.801,140.977 29.301,29.457 132.098,74.89 145.801,198.379 -15.199,10.574 4.102,0.046 -22.898,12.328 l -14.106,5.777 c -1.394,0.586 -4.597,1.438 -6.695,2.5 20.598,19.957 63.898,64.063 86.596,78.414 69.4,43.77 95.1,-28.672 108.2,59.199 C 886.902,956.125 1020,767.527 731.801,806.473 l -2,210.257 C 546.004,998.672 461.102,818.242 559.605,676.109 c 35.297,-50.824 86.797,-59.14 103.399,-90.211" /><path
         id="path16"
         style="fill:#ff93d3;fill-opacity:1;fill-rule:evenodd;stroke:none"
         d="M 702.402,1438.33 C 1094.5,1470.89 1424.4,1159.9 1446.8,797.73 1471.6,394.316 1172.5,70.9648 805.703,48.3555 689.602,41.1953 594.504,57.1992 499.402,93.8203 420.402,124.211 335.602,176.41 284.801,226.469 159.602,349.656 66.6016,497.828 56.4023,692.352 34.9023,1101.92 327.301,1407.17 702.402,1438.33 Z m 64.203,48.46 c -14.601,-0.03 -16.902,0.52 -31.902,-0.22 -183.101,2.2 -394.902,-102.31 -512.699,-224.13 C -239.496,784.766 103.105,1.41797 750.805,1.95313 1295.3,2.39844 1640.5,556.914 1432.1,1040.15 c -34.2,79.33 -89.8,163.75 -148.7,221.58 -63.8,62.62 -124,108.17 -216.5,153.68 -68.197,33.53 -202.197,72.32 -300.295,71.38" /></g></g></svg>