<?xml version="1.0" encoding="UTF-8" standalone="no"?>
<svg
   xmlns:dc="http://purl.org/dc/elements/1.1/"
   xmlns:cc="http://creativecommons.org/ns#"
   xmlns:rdf="http://www.w3.org/1999/02/22-rdf-syntax-ns#"
   xmlns:svg="http://www.w3.org/2000/svg"
   xmlns="http://www.w3.org/2000/svg"
   viewBox="0 0 200 200"
   height="200"
   width="200"
   xml:space="preserve"
   id="svg2"
   version="1.1"><metadata
     id="metadata8"><rdf:RDF><cc:Work
         rdf:about=""><dc:format>image/svg+xml</dc:format><dc:type
           rdf:resource="http://purl.org/dc/dcmitype/StillImage" /></cc:Work></rdf:RDF></metadata><defs
     id="defs6" /><g
     transform="matrix(1.3333333,0,0,-1.3333333,0,200)"
     id="g10"><g
       transform="scale(0.1)"
       id="g12"><path
         id="path14"
         style="fill:#00c3df;fill-opacity:1;fill-rule:evenodd;stroke:none"
         d="m 822.402,685.176 c -1.902,6.449 -20.703,23.062 -21.504,57.359 -0.699,25.012 7.7,45.281 19.704,60.375 28.199,35.399 74.8,45.766 114.5,26.613 83.598,-40.316 64.5,-170.562 -37.301,-177.21 -0.403,-4.407 5.199,-10.329 8.5,-25.965 2.199,-10.153 1.801,-22.524 -0.199,-32.641 C 883.398,478.969 715.699,371.52 617.301,413.129 c -32.102,13.586 -48.903,50.582 -36.102,95.324 10.403,36.59 32.004,63.465 52.504,86.277 18.699,20.864 49.598,44.391 79.598,60.473 33.597,18.016 64.101,27.742 109.101,29.973 z M 646.5,371.352 h 30.402 c 2.598,1.14 22.899,3.949 27.598,4.839 18.602,3.52 41.301,-8.609 90.199,6.914 91.703,29.071 163.102,128.59 189.102,216.379 4.902,16.547 10.398,36.043 12.597,54.383 4.502,37.914 3.204,18.051 16.602,51.356 24.9,62.285 -14.199,146.304 -93,163.468 -19.5,4.227 -41.301,3.164 -59.398,-2.14 -29.2,-8.586 -36.301,-19.313 -45.204,-22.828 -6.097,4.136 -17.195,14.324 -18.097,25.461 27.797,8.039 58.097,36.375 72.097,57.918 18.301,28.187 29.004,64.086 22.7,105.788 -7.496,50.19 -38.797,91.3 -83.297,113.34 -26.199,12.97 -42.598,11.03 -50.5,15.46 H 726 c -9.5,-5.32 -73.898,-4.06 -117.301,-79.85 -27,-47.06 -21.301,-112.953 5.903,-153.758 9.597,-14.434 18.8,-24.316 30.796,-34.773 16.504,-14.286 33.704,-19.692 40.102,-24.524 -9.297,-25.09 -100.602,-53.019 -139.801,-77.5 -21.699,-13.476 -42.097,-30.07 -53.398,-55.269 -23.903,-53.789 12.5,-164.379 41.801,-212.86 16.699,-27.535 11.597,-16.004 10.398,-38.293 -2.5,-47.14 22,-85.281 60.5,-101.769 19.102,-8.164 35.902,-8.571 41.5,-11.742" /><path
         id="path16"
         style="fill:#fefefe;fill-opacity:1;fill-rule:evenodd;stroke:none"
         d="m 767.102,593.254 4.101,0.644 c 9.098,8.77 29.5,26.09 47.996,25.332 27.301,-1.128 46.403,-38.593 -13,-80.855 -11.597,-8.234 -34,-22.461 -46.398,-26.73 -17.199,15.324 -43.699,50.168 -46.801,83.148 -1.898,19.922 7.398,39.969 27.898,37.23 13.801,-1.847 24.602,-23.281 26.204,-38.769 z m 55.3,91.922 c -45,-2.231 -75.504,-11.957 -109.101,-29.973 -30,-16.082 -60.899,-39.609 -79.598,-60.473 -20.5,-22.812 -42.101,-49.687 -52.504,-86.277 -12.801,-44.742 4,-81.738 36.102,-95.324 98.398,-41.609 266.097,65.84 288.801,180.578 2,10.117 2.398,22.488 0.199,32.641 -3.301,15.636 -8.903,21.558 -8.5,25.965 101.801,6.648 120.899,136.894 37.301,177.21 -39.7,19.153 -86.301,8.786 -114.5,-26.613 -12.004,-15.094 -20.403,-35.363 -19.704,-60.375 0.801,-34.297 19.602,-50.91 21.504,-57.359" /><path
         id="path18"
         style="fill:#00c3df;fill-opacity:1;fill-rule:evenodd;stroke:none"
         d="m 771.203,593.898 c -1.601,-2.269 1.598,-0.808 -2.902,-2.847 l -1.199,2.203 c -1.602,15.488 -12.403,36.922 -26.204,38.769 -20.5,2.739 -29.796,-17.308 -27.898,-37.23 3.102,-32.98 29.602,-67.824 46.801,-83.148 12.398,4.269 34.801,18.496 46.398,26.73 59.403,42.262 40.301,79.727 13,80.855 -18.496,0.758 -38.898,-16.562 -47.996,-25.332" /><path
         id="path20"
         style="fill:#888888;fill-opacity:1;fill-rule:evenodd;stroke:none"
         d="m 771.203,593.898 -4.101,-0.644 1.199,-2.203 c 4.5,2.039 1.301,0.578 2.902,2.847" /><path
         id="path22"
         style="fill:#00c3df;fill-opacity:1;fill-rule:evenodd;stroke:none"
         d="M 699.398,1445.6 C 1091.5,1478.16 1421.4,1167.17 1443.7,804.996 1468.6,401.578 1169.4,78.2305 802.699,55.6211 686.5,48.4609 591.5,64.4648 496.301,101.086 417.402,131.473 332.602,183.676 281.699,233.73 156.5,356.926 63.6016,505.094 53.4023,699.613 31.8008,1109.18 324.199,1414.44 699.398,1445.6 Z m 64.102,48.45 c -14.5,-0.03 -16.797,0.53 -31.898,-0.21 -183,2.2 -394.899,-102.31 -512.602,-224.13 C -242.602,792.031 100.098,8.67969 747.801,9.21484 1292.3,9.66016 1637.4,564.184 1429,1047.41 c -34.2,79.33 -89.8,163.76 -148.7,221.59 -63.8,62.62 -123.9,108.17 -216.4,153.68 -68.201,33.53 -202.201,72.32 -300.4,71.37" /></g></g></svg>