<?xml version="1.0" encoding="UTF-8" standalone="no"?>
<svg
   xmlns:dc="http://purl.org/dc/elements/1.1/"
   xmlns:cc="http://creativecommons.org/ns#"
   xmlns:rdf="http://www.w3.org/1999/02/22-rdf-syntax-ns#"
   xmlns:svg="http://www.w3.org/2000/svg"
   xmlns="http://www.w3.org/2000/svg"
   viewBox="0 0 200 200"
   height="200"
   width="200"
   xml:space="preserve"
   id="svg2"
   version="1.1"><metadata
     id="metadata8"><rdf:RDF><cc:Work
         rdf:about=""><dc:format>image/svg+xml</dc:format><dc:type
           rdf:resource="http://purl.org/dc/dcmitype/StillImage" /></cc:Work></rdf:RDF></metadata><defs
     id="defs6" /><g
     transform="matrix(1.3333333,0,0,-1.3333333,0,200)"
     id="g10"><g
       transform="scale(0.1)"
       id="g12"><path
         id="path14"
         style="fill:#f37b2b;fill-opacity:1;fill-rule:evenodd;stroke:none"
         d="M 700.109,1442.69 C 1092.18,1475.25 1422.09,1164.26 1444.43,802.094 1469.3,398.684 1170.13,75.332 803.387,52.7227 687.238,45.5625 592.188,61.5625 497.039,98.1836 418.082,128.574 333.289,180.773 282.418,230.836 157.238,354.023 64.3086,502.184 54.0781,696.715 32.5352,1106.29 324.941,1411.53 700.109,1442.69 Z m 64.11,48.47 c -14.547,-0.03 -16.864,0.51 -31.899,-0.23 C 549.242,1493.13 337.426,1388.62 219.707,1266.8 -241.879,789.133 100.781,5.78125 748.457,6.3125 1292.98,6.76172 1638.13,561.273 1429.73,1044.51 c -34.21,79.32 -89.8,163.75 -148.71,221.58 -63.79,62.63 -123.95,108.17 -216.47,153.68 -68.148,33.53 -202.167,72.32 -300.331,71.39" /><path
         id="path16"
         style="fill:#f37b2b;fill-opacity:1;fill-rule:evenodd;stroke:none"
         d="m 741.559,994.363 c -42.125,0 -27.34,-8.851 -56.051,-8.851 -10.957,0 -5.27,6.301 -20.098,18.248 -7.734,6.24 -15.504,9.63 -24.152,14.2 -3.813,-7.21 -5.43,-13.53 -8.848,-20.647 13.653,-7.219 35.203,-18.36 30.278,-35.848 -3.196,-11.344 -18.114,-34.469 -39.129,-34.942 -5.188,19.43 -31.868,37.809 -56.047,38.34 0,-45.113 27.308,-11.75 38.343,-53.09 -19.144,-4.46 -38.179,-0.007 -55.468,-3.531 -14.332,-2.91 -23.688,-20.066 -27.125,-34.82 7.031,-1.637 14.832,-3.109 20.648,-5.899 7.465,15.559 2.664,21.223 38.344,20.653 29.039,-0.453 27.617,2.238 46.277,12.73 14.774,8.297 24.453,11.356 35.703,23.289 7.989,8.477 18.352,25.188 21.274,37.727 25.754,0 74.156,34.148 85.551,-14.746 -19.301,-28.821 -5.391,-6.793 -17.704,-32.453 -33.671,0 -54.449,-6.551 -67.847,-26.547 32.601,-21.832 -0.914,2.945 64.898,2.945 3.598,-15.449 6.614,-33.18 17.699,-41.297 9.692,2.59 9.715,4.281 14.75,11.797 -4.851,20.832 -8.851,7.793 -8.851,44.242 0,52.36 79.926,23.52 99.137,10.649 30.035,-20.141 16.281,-73.739 1.847,-96.879 C 866.23,805.594 864.418,807.262 853,797.383 837.438,783.914 818.254,771.836 818.254,743.625 V 637.426 h -32.449 v 115.047 c 0,41.441 -60.231,66.57 -73.922,67.441 -17.082,1.078 -33.25,-12.391 -68.86,-0.762 -38.054,12.418 2.993,11.168 -48.75,3.911 -60.914,-8.54 -121.16,15.171 -121.16,68.058 0,33.781 5.891,72.422 37.41,89.442 15.446,8.328 12.555,1.941 17.723,20.617 6.012,21.75 13.649,32.68 30.895,42.86 16.16,9.51 36.429,12.27 61.468,12.27 11.485,43.02 77.036,34.64 106.196,20.65 21.437,32.01 54.441,25.74 85.574,11.82 31.207,-13.95 6.555,-13.29 41.098,-11.81 68.339,2.96 84.062,-49.89 91.433,-56.24 6.43,-5.53 51.875,-4.42 53.215,-94.289 0.488,-33.14 31.795,-43.027 5.075,-96.367 -8.598,-17.172 -12.145,-16.058 -16.512,-27.73 -8.133,-21.77 -7.793,-35.481 -30.403,-58.102 -28.351,-28.367 -79.031,-32.289 -79.031,-106.816 h -38.348 c 0,37.687 -6.644,112.426 15.528,131.969 l 37.57,33.23 c 31.125,-16.473 14.273,-15.395 29.5,-26.551 7.152,1.668 11.836,3.09 17.695,5.899 -1.582,19.011 -19.347,37.011 -35.394,41.3 5.48,23.528 8.847,27.571 8.847,59 23.078,12.211 37.871,12.661 53.098,35.403 -4.355,5.949 -9.441,9.59 -17.699,11.797 -14.582,-9.77 -15.637,-20.66 -41.301,-20.66 -6.633,28.48 -40.012,35.82 -50.859,40.589 -2.258,1 -14.684,2.051 -7.278,20.075 2.575,6.257 5.008,8.636 7.992,13.086 -3.992,5.96 -7.812,11.753 -11.8,17.707 -15.676,-10.497 -21.606,-20.297 -23.598,-44.247 -12.082,2.809 -13.855,2.942 -29.504,2.942 -3.101,13.32 -13.73,26.078 -26.547,29.5 0.977,11.755 2.485,9.426 5.801,17.795 3.262,8.22 2.484,13.23 6,20.55 -11.379,0.95 -11.617,2.95 -26.551,2.95 0,-20.29 -5.422,-20.67 -8.847,-35.397 z M 334.465,749.523 c 0,-25.98 59,-31.3 59,-59 0,-22.8 -40.375,-24.101 8.851,-50.14 -6.793,-10.149 -15.793,-13.18 -6.578,-26.899 14.371,-21.398 22.907,-3.648 15.297,-58.531 -1.324,-9.519 -5.773,-24.789 -5.773,-32.57 0,-73.278 161.058,-26.551 194.695,-26.551 35.543,0 32.848,-16.91 40.078,-45.477 l 18.922,-66.625 c 38.813,0 138.66,11.872 177.027,11.774 36.516,-0.102 139.282,11.828 176.966,11.828 -1.06,12.66 -8.24,28.641 -13.044,40.051 -5.953,14.121 -11.011,26 -16.453,39.601 -27.582,68.84 -38.359,115.61 5.262,180.579 37.415,55.742 100.925,92.753 100.925,223.558 0,90.152 -52.98,164.969 -104.441,205.289 -47.687,37.35 -142.82,83.8 -225.941,83.8 -83.012,0 -124.25,-7.63 -195.684,-43.26 -73.949,-36.89 -126.699,-81.4 -141.972,-164.817 -11.844,-64.699 24.363,-84.77 -41.946,-164.551 -4.48,-5.387 -5.488,-8 -10.996,-12.598 -11.984,-10.011 -34.195,-27.652 -34.195,-45.461" /></g></g></svg>