<?xml version="1.0" encoding="UTF-8" standalone="no"?>
<svg
   xmlns:dc="http://purl.org/dc/elements/1.1/"
   xmlns:cc="http://creativecommons.org/ns#"
   xmlns:rdf="http://www.w3.org/1999/02/22-rdf-syntax-ns#"
   xmlns:svg="http://www.w3.org/2000/svg"
   xmlns="http://www.w3.org/2000/svg"
   viewBox="0 0 200 198.66667"
   height="198.66667"
   width="200"
   xml:space="preserve"
   id="svg2"
   version="1.1"><metadata
     id="metadata8"><rdf:RDF><cc:Work
         rdf:about=""><dc:format>image/svg+xml</dc:format><dc:type
           rdf:resource="http://purl.org/dc/dcmitype/StillImage" /></cc:Work></rdf:RDF></metadata><defs
     id="defs6" /><g
     transform="matrix(1.3333333,0,0,-1.3333333,0,198.66667)"
     id="g10"><g
       transform="scale(0.1)"
       id="g12"><path
         id="path14"
         style="fill:#5dd6ec;fill-opacity:1;fill-rule:evenodd;stroke:none"
         d="M 168.898,617.539 C 249.879,236.508 669.957,45.9688 1000.3,210.359 c 280.6,139.649 410.96,465.379 278.32,771.508 -37.42,86.353 -107.3,173.143 -168.9,215.603 -69.68,-69 63.08,-150.61 23.37,-260.31 -32.28,-89.199 -136.172,-83.133 -152.942,-103.851 -27.308,-33.75 68.852,-67.7 88.232,-71.18 134.81,-24.231 148.1,-250.238 81.94,-271.84 -27.21,-8.879 -51.15,2.777 -61.69,18 -15.19,21.93 -6.02,50.461 -13.63,73.52 -40.15,3.929 -42.72,-53.661 -156.312,-102.399 -145.629,-62.48 -391.559,-39.332 -472.219,131.668 -23.391,49.578 -13.461,62.113 -11.66,113.711 1.648,47.449 -83.258,35.57 -101.11,162.051 -11.39,80.687 37.5,146.54 85.098,174.8 74.601,44.28 149.922,29.82 192.004,-25.51 65.656,-86.329 31.988,-172.2 51.047,-213.97 56.16,-11.168 64.121,51.27 50.703,96.211 -24.281,81.277 102.847,138.609 112.629,-34.234 1.66,-29.328 6.89,-36.387 32.968,-43.797 31.922,-9.09 38.278,-5.66 56.2,13.719 30.8,33.281 53.98,33.91 104.822,50.781 42.16,13.988 71.73,37.258 66.41,88.988 -4.81,46.742 -33.16,74.232 -44.88,111.302 -22.09,69.93 15.81,83.54 21.59,126.63 -17.39,16.8 -95.86,52.78 -124.341,63.03 -253.711,91.29 -521.601,-7.59 -674.121,-215.4 C 155.801,932.188 131.949,791.43 168.898,617.539" /><path
         id="path16"
         style="fill:#5dd6ec;fill-opacity:1;fill-rule:evenodd;stroke:none"
         d="m 660.207,1434.35 c 284.34,46.03 562.833,-114.52 694.093,-340.4 42.65,-73.42 75.97,-162.442 88.73,-259.36 C 1493.05,454.68 1229.93,109.332 844.289,51.8398 559.426,9.37891 278.816,165.238 149.52,392.121 -2.93359,659.648 34.6094,969.129 212.777,1185.5 c 97.442,118.32 234.18,214.33 447.43,248.85 z m -28.519,40.43 C 179.391,1405.86 -116.852,916.598 62.1602,469.309 252.449,-6.17969 865.137,-162.191 1259.58,202.57 c 298.19,275.739 315.16,747.977 28.12,1053.46 -48.96,52.1 -132.27,119.91 -214.19,156.19 -149.53,66.21 -281.713,86.96 -441.822,62.56" /></g></g></svg>