<?xml version="1.0" encoding="UTF-8" standalone="no"?>
<svg
   xmlns:dc="http://purl.org/dc/elements/1.1/"
   xmlns:cc="http://creativecommons.org/ns#"
   xmlns:rdf="http://www.w3.org/1999/02/22-rdf-syntax-ns#"
   xmlns:svg="http://www.w3.org/2000/svg"
   xmlns="http://www.w3.org/2000/svg"
   viewBox="0 0 200 200"
   height="200"
   width="200"
   xml:space="preserve"
   id="svg2"
   version="1.1"><metadata
     id="metadata8"><rdf:RDF><cc:Work
         rdf:about=""><dc:format>image/svg+xml</dc:format><dc:type
           rdf:resource="http://purl.org/dc/dcmitype/StillImage" /></cc:Work></rdf:RDF></metadata><defs
     id="defs6" /><g
     transform="matrix(1.3333333,0,0,-1.3333333,0,200)"
     id="g10"><g
       transform="scale(0.1)"
       id="g12"><path
         id="path14"
         style="fill:#00a1d8;fill-opacity:1;fill-rule:evenodd;stroke:none"
         d="m 1027.82,937.781 h 82.07 V 864 h 28.59 V 670.359 h -28.59 v -83.906 h -82.07 z m -573.535,0 h -82.07 V 864 h -28.59 V 670.359 h 28.59 v -83.906 h 82.07 z M 746.973,709.5 l -177.821,2 C 561.508,512.52 595.406,498.281 469.844,513 c -0.239,128.191 -1.348,369.059 1.801,503.36 118.328,14.57 95.8,1.87 95.058,-209.981 l 166.973,-0.258 v 0.207 l 180.258,0.293 c -0.727,211.839 -23.27,224.549 95.066,209.979 3.14,-134.299 2.04,-375.17 1.8,-503.358 C 885.246,498.52 919.145,512.75 911.484,711.738 L 746.973,709.891 V 709.5" /><path
         id="path16"
         style="fill:#00a1d8;fill-opacity:1;fill-rule:evenodd;stroke:none"
         d="M 699.707,1441.65 C 1091.79,1474.2 1421.7,1163.21 1444.02,801.039 1468.89,397.629 1169.73,74.2813 802.984,51.6719 686.848,44.5117 591.785,60.5195 496.637,97.1289 417.684,127.52 332.887,179.719 282.016,229.789 156.836,352.969 63.9023,501.141 53.6758,695.672 32.1367,1105.24 324.535,1410.49 699.707,1441.65 Z m 64.109,48.46 c -14.539,-0.04 -16.863,0.51 -31.898,-0.22 -183.07,2.19 -394.895,-102.31 -512.613,-224.14 C -242.285,788.082 100.375,4.73828 748.055,5.26953 1292.59,5.71875 1637.73,560.23 1429.34,1043.47 c -34.21,79.32 -89.8,163.75 -148.71,221.58 -63.81,62.62 -123.97,108.17 -216.49,153.68 -68.132,33.52 -202.156,72.32 -300.324,71.38" /><path
         id="path18"
         style="fill:none;stroke:#00cdcb;stroke-width:2.16000009;stroke-linecap:butt;stroke-linejoin:miter;stroke-miterlimit:22.92560005;stroke-dasharray:none;stroke-opacity:1"
         d="M 699.707,1441.65 C 1091.79,1474.2 1421.7,1163.21 1444.02,801.039 1468.89,397.629 1169.73,74.2813 802.984,51.6719 686.848,44.5117 591.785,60.5195 496.637,97.1289 417.684,127.52 332.887,179.719 282.016,229.789 156.836,352.969 63.9023,501.141 53.6758,695.672 32.1367,1105.24 324.535,1410.49 699.707,1441.65 Z m 64.109,48.46 c -14.539,-0.04 -16.863,0.51 -31.898,-0.22 -183.07,2.19 -394.895,-102.31 -512.613,-224.14 C -242.285,788.082 100.375,4.73828 748.055,5.26953 1292.59,5.71875 1637.73,560.23 1429.34,1043.47 c -34.21,79.32 -89.8,163.75 -148.71,221.58 -63.81,62.62 -123.97,108.17 -216.49,153.68 -68.132,33.52 -202.156,72.32 -300.324,71.38 z" /></g></g></svg>