<?xml version="1.0" encoding="UTF-8" standalone="no"?>
<svg
   xmlns:dc="http://purl.org/dc/elements/1.1/"
   xmlns:cc="http://creativecommons.org/ns#"
   xmlns:rdf="http://www.w3.org/1999/02/22-rdf-syntax-ns#"
   xmlns:svg="http://www.w3.org/2000/svg"
   xmlns="http://www.w3.org/2000/svg"
   viewBox="0 0 200 198.66667"
   height="198.66667"
   width="200"
   xml:space="preserve"
   id="svg2"
   version="1.1"><metadata
     id="metadata8"><rdf:RDF><cc:Work
         rdf:about=""><dc:format>image/svg+xml</dc:format><dc:type
           rdf:resource="http://purl.org/dc/dcmitype/StillImage" /></cc:Work></rdf:RDF></metadata><defs
     id="defs6" /><g
     transform="matrix(1.3333333,0,0,-1.3333333,0,198.66667)"
     id="g10"><g
       transform="scale(0.1)"
       id="g12"><path
         id="path14"
         style="fill:#00cdcb;fill-opacity:1;fill-rule:evenodd;stroke:none"
         d="m 416.203,827.719 c 0,72.226 -9.484,104.238 14.477,140.011 l 159.332,9.661 c 64.172,-121.282 235.168,-121.282 299.336,0 l 159.322,-9.661 c 23.96,-35.773 14.48,-67.785 14.48,-140.011 0,-52.922 -57.68,-24.672 -101.451,-33.731 -24.418,-5.047 -14.418,-67.449 -14.418,-120.758 0,-29.242 4.071,-177.902 -4.34,-198.441 C 936.402,458.82 920.309,446.309 899,446.309 H 580.352 c -55.082,0 -48.411,58.539 -48.289,86.89 l 0.027,202.797 c 0.14,24.563 6.199,51.031 -10.481,57.121 -34.468,12.594 -105.406,-23.801 -105.406,34.602 z M 704.129,570.656 h 74.441 v -37.218 h -74.441 z m 0,71.461 h 74.441 v -37.219 h -74.441 z m 0,71.34 h 74.441 v -37.219 h -74.441 z m 0,73.922 H 778.57 V 750.16 H 704.129 Z M 392.063,953.246 c 0,-190.988 -17.344,-183.469 115.867,-183.469 V 484.93 c 0,-29.61 33.16,-62.762 62.761,-62.762 H 908.66 c 29.602,0 62.762,33.152 62.762,62.762 v 284.847 c 133.208,0 115.868,-7.519 115.868,183.469 0,12.594 -17.38,30.192 -27.94,34.82 -24.12,10.563 -154.819,13.464 -184.487,13.464 -43.703,-65.253 -64.015,-86.901 -149.675,-86.901 -27.028,0 -57.497,15.398 -73.258,28.117 -25.938,20.914 -29.918,32.621 -47.442,58.784 -28.058,0 -156.886,-3.581 -181,-12.112 -12.66,-4.48 -31.425,-22.629 -31.425,-36.172" /><path
         id="path16"
         style="fill:#00cdcb;fill-opacity:1;fill-rule:evenodd;stroke:none"
         d="m 701,1438.26 c 392.08,32.56 721.99,-278.43 744.32,-640.6 C 1470.2,394.25 1171.02,70.8984 804.281,48.2891 688.133,41.1289 593.082,57.1289 497.941,93.75 418.973,124.137 334.18,176.34 283.313,226.398 158.129,349.59 65.2031,497.758 54.9727,692.277 33.4297,1101.85 325.832,1407.1 701,1438.26 Z m 64.109,48.46 c -14.539,-0.03 -16.855,0.52 -31.898,-0.22 C 550.141,1488.7 338.32,1384.19 220.602,1262.37 -240.98,784.688 101.68,1.34766 749.352,1.87891 1293.88,2.32813 1639.03,556.848 1430.63,1040.08 c -34.21,79.33 -89.8,163.75 -148.71,221.58 -63.79,62.62 -123.96,108.17 -216.48,153.69 -68.139,33.52 -202.159,72.31 -300.331,71.37" /><path
         id="path18"
         style="fill:none;stroke:#00cdcb;stroke-width:2.16000009;stroke-linecap:butt;stroke-linejoin:miter;stroke-miterlimit:22.92560005;stroke-dasharray:none;stroke-opacity:1"
         d="m 701,1438.26 c 392.08,32.56 721.99,-278.43 744.32,-640.6 C 1470.2,394.25 1171.02,70.8984 804.281,48.2891 688.133,41.1289 593.082,57.1289 497.941,93.75 418.973,124.137 334.18,176.34 283.313,226.398 158.129,349.59 65.2031,497.758 54.9727,692.277 33.4297,1101.85 325.832,1407.1 701,1438.26 Z m 64.109,48.46 c -14.539,-0.03 -16.855,0.52 -31.898,-0.22 C 550.141,1488.7 338.32,1384.19 220.602,1262.37 -240.98,784.688 101.68,1.34766 749.352,1.87891 1293.88,2.32813 1639.03,556.848 1430.63,1040.08 c -34.21,79.33 -89.8,163.75 -148.71,221.58 -63.79,62.62 -123.96,108.17 -216.48,153.69 -68.139,33.52 -202.159,72.31 -300.331,71.37 z" /></g></g></svg>