<?xml version="1.0" encoding="UTF-8" standalone="no"?>
<svg
   xmlns:dc="http://purl.org/dc/elements/1.1/"
   xmlns:cc="http://creativecommons.org/ns#"
   xmlns:rdf="http://www.w3.org/1999/02/22-rdf-syntax-ns#"
   xmlns:svg="http://www.w3.org/2000/svg"
   xmlns="http://www.w3.org/2000/svg"
   viewBox="0 0 198.66667 200"
   height="200"
   width="198.66667"
   xml:space="preserve"
   id="svg2"
   version="1.1"><metadata
     id="metadata8"><rdf:RDF><cc:Work
         rdf:about=""><dc:format>image/svg+xml</dc:format><dc:type
           rdf:resource="http://purl.org/dc/dcmitype/StillImage" /></cc:Work></rdf:RDF></metadata><defs
     id="defs6" /><g
     transform="matrix(1.3333333,0,0,-1.3333333,0,200)"
     id="g10"><g
       transform="scale(0.1)"
       id="g12"><path
         id="path14"
         style="fill:#37ba17;fill-opacity:1;fill-rule:evenodd;stroke:none"
         d="m 695.09,1446.34 c 392.1,32.56 722,-278.43 744.3,-640.602 C 1464.29,402.328 1165.09,78.9766 798.391,56.375 682.191,49.207 587.188,65.2188 491.988,101.836 413.09,132.219 328.289,184.426 277.391,234.477 152.191,357.668 59.2891,505.836 49.0898,700.367 27.4883,1109.93 319.891,1415.19 695.09,1446.34 Z m 64.101,48.46 c -14.5,-0.03 -16.902,0.52 -31.902,-0.21 -183.098,2.2 -394.902,-102.31 -512.601,-224.14 C -246.898,792.777 95.7891,9.42578 743.391,9.96875 1287.99,10.4063 1633.09,564.926 1424.69,1048.16 c -34.2,79.33 -89.8,163.75 -148.7,221.59 -63.8,62.62 -123.9,108.16 -216.5,153.68 -68.099,33.52 -202.099,72.32 -300.299,71.37" /><path
         id="path16"
         style="fill:#37ba17;fill-opacity:1;fill-rule:evenodd;stroke:none"
         d="m 967.191,498.227 c -33.3,0 -32.601,47.32 0,47.32 5.297,0 12.7,-4.02 15.696,-7.18 14.504,-15.562 2.304,-40.14 -15.696,-40.14 z M 733.688,447.625 h -24.899 c -12,1.34 -23.601,4.641 -33.598,9.891 -32.601,16.941 -55.601,49.922 -55.601,88.031 v 133.82 c -25.102,0 -21.199,-3.922 -21.199,21.219 -32.703,0 -58.899,15.691 -79.602,36.309 -40.301,40.222 -56.598,106.89 -68,163.742 -8.801,44.008 -15.598,77.09 -15.598,121.443 0,16.8 6,31.76 11.899,43.55 27.098,54.32 83.598,37.62 96.598,42.12 11.703,4.03 3.503,8.98 26.902,8.98 23.601,0 40.398,-32.82 20.898,-53.53 -20.597,-21.99 -45.601,-1.95 -46.996,-1.95 -28.203,0 -63.601,6.43 -63.601,-47.33 0,-21.186 2.297,-28.252 5.3,-46.861 11.297,-68.582 28.598,-213.821 112.2,-220.782 0,8.02 -2.602,19.586 4.898,19.586 94,0 81.602,6.133 81.602,-19.586 15.199,7.309 32.398,4.657 55.5,37.528 32,45.55 41.097,123.8 51.8,178.312 5.098,26.278 17.196,99.133 -27.402,99.133 h -29.301 c -4.3,0 -11.199,-8.16 -19.597,-8.16 -21.801,0 -36.399,10.76 -37,31.18 -0.504,16.23 14.597,32.46 27.199,32.46 26.5,0 18.898,-5.24 28.601,-8.94 14.7,-5.7 41.598,8.65 73.5,-14.58 46.098,-33.53 38.297,-86.73 30.098,-136.401 -10.199,-61.332 -21.098,-130.172 -51.098,-183.922 -6.5,-11.621 -15.402,-24.649 -24.402,-34.383 -17.898,-19.367 -50.601,-37.918 -77.898,-37.918 0,-25.039 3.699,-21.219 -19.602,-21.219 v -125.66 c 0,-19.59 5.301,-31.922 14.399,-42.723 20.703,-24.597 76,-26.718 95.5,12.731 15.703,31.652 -5.098,97.191 15.101,138.301 17.102,34.519 49.199,55.73 87.801,56.98 25.398,0.82 47.199,-3.949 66.898,-17.73 41.801,-29.219 43.403,-64.7 43.403,-110.02 11.799,-0.976 28.499,-15.141 34.299,-22.808 24.4,-31.911 21.5,-74.602 -6.9,-100.852 -63.501,-58.75 -164.2,23.879 -107.102,100.602 5.902,7.968 22.101,22.058 34.003,23.058 0,24.492 0.399,43.621 -10.203,58.332 -21.097,29.238 -65.898,29.656 -87.297,9.848 -30.699,-28.34 -14.8,-73.262 -18.402,-120.328 -1.699,-21.481 -14.398,-49.039 -29.699,-63.371 -17.399,-16.329 -40.399,-25.622 -63.402,-28.102" /></g></g></svg>