<?xml version="1.0" encoding="UTF-8" standalone="no"?>
<svg
   xmlns:dc="http://purl.org/dc/elements/1.1/"
   xmlns:cc="http://creativecommons.org/ns#"
   xmlns:rdf="http://www.w3.org/1999/02/22-rdf-syntax-ns#"
   xmlns:svg="http://www.w3.org/2000/svg"
   xmlns="http://www.w3.org/2000/svg"
   viewBox="0 0 200 200"
   height="200"
   width="200"
   xml:space="preserve"
   id="svg2"
   version="1.1"><metadata
     id="metadata8"><rdf:RDF><cc:Work
         rdf:about=""><dc:format>image/svg+xml</dc:format><dc:type
           rdf:resource="http://purl.org/dc/dcmitype/StillImage" /></cc:Work></rdf:RDF></metadata><defs
     id="defs6" /><g
     transform="matrix(1.3333333,0,0,-1.3333333,0,200)"
     id="g10"><g
       transform="scale(0.1)"
       id="g12"><path
         id="path14"
         style="fill:#f37b2b;fill-opacity:1;fill-rule:evenodd;stroke:none"
         d="M 702.516,1445.1 C 1094.59,1477.66 1424.51,1166.67 1446.84,804.5 1471.71,401.09 1172.54,77.7383 805.797,55.1328 689.648,47.9688 594.586,63.9688 499.445,100.59 420.484,130.98 335.695,183.18 284.816,233.238 159.648,356.43 66.7148,504.59 56.4766,699.121 34.9375,1108.69 327.344,1413.95 702.516,1445.1 Z m 64.113,48.46 c -14.551,-0.03 -16.863,0.52 -31.902,-0.22 -183.082,2.2 -394.891,-102.31 -512.622,-224.13 C -239.473,791.539 103.188,8.1875 750.855,8.71875 1295.39,9.16797 1640.54,563.68 1432.14,1046.92 c -34.21,79.33 -89.8,163.75 -148.71,221.58 -63.8,62.63 -123.97,108.17 -216.48,153.68 -68.141,33.53 -202.165,72.32 -300.321,71.38" /><path
         id="path16"
         style="fill:#f37b2b;fill-opacity:1;fill-rule:evenodd;stroke:none"
         d="m 783.605,768.949 c -18.128,-12 -35.73,-5.308 -57.128,7.942 -18.274,11.308 -39.094,29.808 -28.512,48.429 19.18,33.782 85.949,-20.16 85.64,-56.371 z M 582.586,962.891 c 2.629,20.41 17.918,29.019 26.277,10.839 7.864,-17.082 -10.269,-24.679 -26.277,-10.839 z m -2.379,29.828 c -34.582,-43.52 16.691,-76.821 44.281,-32.77 -2.472,32.078 -12.812,39.852 -44.281,32.77 z m 436.223,-265.25 c 16.51,11.371 27.42,9.031 47.34,-6.68 18.43,-14.57 28.12,-28.207 25.27,-45.379 -26.56,-6.347 -82.18,14.629 -72.61,52.059 z M 1220.2,588.258 c 0.05,-0.098 14.99,-69.785 47.28,-44.008 0.52,0.41 1.45,1.75 1.87,2.191 l 2.76,5.399 c -12.52,11.848 -6.48,0.621 -25.66,6.39 -9.4,17.309 -5.74,21.45 -14.15,38.61 -24.75,17.09 -27.77,6.5 -49.12,6.711 -21.82,21.316 -5.08,21.09 -21.34,44.929 -33.88,16.282 -22.81,-5.89 -53.95,8.661 -2.23,6.359 6.11,66.129 -60.53,89.898 -46.79,16.672 -68.344,-36.129 -20.63,-70.328 29.66,-21.27 35.04,-12.059 56.38,-18.582 23.07,-7.059 4.05,-6.149 24.31,-17.051 18.25,-9.808 11.01,-1.43 27.52,-1.109 35.06,0.691 16.55,-22.09 30.93,-40.387 13.72,-17.441 32.68,-4.914 54.33,-11.324 z m -370.595,2.004 c 34.571,13.988 67.692,-21.789 72.524,-51.985 -26.981,-16.16 -83.832,15.575 -72.524,51.985 z m 132.77,-92.172 c 12.871,-20.238 3.941,-22.481 17.441,-42.309 25.384,-11.718 30.164,-0.832 52.674,-7.718 8.56,-17.844 3.36,-22.211 14.4,-40.333 15.86,-7.851 31.27,-10.781 36.63,-0.308 -3.74,8.769 -14.5,7.18 -22.95,12.457 -16.89,10.57 -6.21,14.172 -12.75,28.711 -13.11,29.07 -36.79,12.922 -58.27,18.199 -12.902,21.043 2.47,27.281 -18.945,42.609 -22.699,16.243 -24.808,-2.238 -49.05,6.711 -9.078,21.161 0.011,21.653 -8.86,41.75 -22.668,51.313 -103.769,75.231 -101.437,18.09 2.078,-51.351 88.617,-59.09 88.75,-59.14 9.969,-4.61 2.918,-5.719 17.437,-14.219 15.063,-8.801 26.282,-1.531 44.93,-4.5 z M 807.746,724.82 C 744.227,631.23 617.336,612.039 526.438,669.809 426.055,733.602 402.879,863.121 461.766,957.633 c 126.691,203.337 450.339,62.397 374.691,-179.641 -5.152,-16.472 -10.98,-31.32 -25.691,-36.523 -33.27,15.89 10.988,26.883 -33.93,75.48 -26.09,28.262 -66.551,49.059 -89.328,20.36 -23.102,-29.079 9.816,-63.239 41.347,-78.297 23.551,-11.242 29.661,-7.192 46.84,-10.024 24.379,-4.031 2.782,-6.91 32.051,-24.168 z m -82.82,379.23 c -39.559,30.48 -33.5,54.42 -86.199,13.54 -20.161,10.37 -29.903,23.81 -48.86,20.04 -28.949,-5.72 -19.41,-32.31 -46.64,-29.87 -52.352,4.71 -38.61,10.5 -66.243,-41.37 -24.437,-7.36 -62.898,9.15 -59.117,-59.15 -17.5,-12.162 -66.101,-13.81 -36.98,-73.92 -32.008,-45.199 -48.832,-15.211 -20.692,-80.859 l 2.27,-7.031 c 4.152,-12.528 -18.699,-23.41 -15.617,-47.063 2.308,-17.816 19.918,-25.316 34.949,-39.379 -4.082,-10.918 -16.379,-35.965 -4.152,-50.031 9.203,-10.559 32.671,-17.656 32.093,-16.906 -2.402,3.101 -3.14,8.777 -3.109,12.73 -9.434,7.02 -20.934,3.848 -18.383,27.668 0.699,6.602 2.949,8.332 4.16,14.59 7.723,39.363 -23.929,25.641 -28.441,54.41 -4.969,31.59 32.34,21.731 7.051,63.262 -11.231,18.449 -7.481,1.508 -9.059,20.32 4.961,25.707 17.109,15.449 33.27,44.16 -0.93,19.899 -8.442,15.36 -8.071,40.348 15.512,19.988 21.379,12.332 40.059,25.043 14.051,29.328 -3.52,22.518 13.48,50.048 l 45.172,7.31 c 18.449,25.44 3.602,30.92 27.059,43.4 18.812,5.29 -0.129,3.14 22.07,-1.79 22.09,-4.9 2.231,-6.12 21.098,-2.2 25.633,8.94 17.133,43.33 57.301,23.96 20.441,-9.85 15.89,-18.08 43.043,-2.28 17.617,10.27 0.917,7.35 19.871,9.32 33.168,-4.06 11.457,-21.4 45.226,-30.46 22.031,-4.5 35.641,19.13 51.531,-3.99 13.481,-19.66 -2.3,-34.17 39.969,-36.57 31.551,-1.8 25.613,-10.24 28.84,-35.57 4.32,-33.947 23.672,-17.6 45.648,-41.869 2.375,-21.77 -5.168,-28.262 -3.738,-48.188 16.68,-20.394 21.973,-15.723 33.891,-36.152 -9.461,-21.899 -26.91,-30.52 -18.168,-52.231 6.898,-17.109 24.637,-26.078 10.308,-43.961 -12.828,-16.007 -30.609,-12.609 -24.699,-41.679 4.27,-20.981 15.219,-21.969 -8.07,-43.321 -11.469,19.063 -8.531,31.34 -38.981,35.571 29.52,76.988 31.098,131.929 5.243,192.14 -29.133,67.91 -95.864,120.5 -172.301,131.7 -60.973,8.93 -124.953,-4.98 -181.645,-55.47 -30.625,-27.3 -52.457,-63.351 -64.086,-100.011 -10.101,-31.82 -12.789,-76.219 -9.832,-99.039 20.91,-162.102 250.934,-280.199 400.223,-102.449 11.277,13.41 7.668,15.238 23.199,16.898 37.031,3.981 8.309,-38.07 8.278,-38.136 -13.438,-35.333 16.109,-39.364 -40.059,-46.512 -28.988,-3.692 -20.57,-19.434 -31.43,-36.961 -14.359,-23.09 -29.25,-5.742 -45.152,-4.52 -23.059,1.75 -25.77,-18.031 -43.918,-33.718 -22.77,4.808 -20.418,11.316 -44.699,20.55 -19.442,-4.613 -22.133,-13.632 -44.449,-19.183 -28.571,12.883 -15.293,24.14 -40.309,30.48 -19.402,4.891 -14.914,-8.019 -42.774,-4.769 -25.968,21.992 -5.839,19.75 -22.718,36.699 -19.942,20.031 -20.739,1.082 -42.043,10.414 -31.477,13.758 8.261,55.656 -42.965,62.738 0.187,-16.011 7.266,-13.562 12.637,-26.679 5.16,-12.68 -1.719,-16.782 3.261,-30.954 9.532,-27.128 35.489,-18.929 54.098,-21.558 15.52,-19.41 -0.02,-27.36 28.953,-42.621 22.41,-11.821 29.899,-0.168 49.977,2.781 39.441,-34.121 32.531,-47.859 82.422,-12.43 21.378,-7.59 26.808,-20.929 48.019,-18.441 22.52,2.641 22.32,17.723 39.828,32.82 22.852,-4.488 31.082,-12.789 49.34,-2.359 21.461,12.262 12.832,24.328 27.832,42.871 62.922,-0.031 48.738,14.43 56.402,56.559 l 30.047,-14.071 c 18.032,-3.609 16.512,2.289 33.231,3.43 15.359,-13.707 28.359,-93.332 68.019,-47.949 -23.422,12.64 -16.918,-7.02 -33.129,9.527 -10.191,10.402 -2.121,20.363 -11.281,35.934 -18.93,32.211 -41.777,1.429 -66.89,20.109 32.89,34.699 33.671,24.691 18.222,68.711 27.399,41.469 53.969,26.629 13.301,85.977 9.168,20.542 23.25,26.871 18.91,48.195 -4.242,20.867 -19.043,21.789 -33.004,39.707 15.141,56.148 7.43,46.98 -38.238,74.14 -3.527,20.1 4.582,28.14 -10.539,44.51 -24.582,26.59 -36.832,6.58 -51.172,18.53 -12.77,10.66 0.43,23.54 -25.441,37.41 -18.836,10.08 -30.938,1.79 -46.508,-4.88" /></g></g></svg>