<?xml version="1.0" encoding="UTF-8" standalone="no"?>
<svg
   xmlns:dc="http://purl.org/dc/elements/1.1/"
   xmlns:cc="http://creativecommons.org/ns#"
   xmlns:rdf="http://www.w3.org/1999/02/22-rdf-syntax-ns#"
   xmlns:svg="http://www.w3.org/2000/svg"
   xmlns="http://www.w3.org/2000/svg"
   viewBox="0 0 200 198.66667"
   height="198.66667"
   width="200"
   xml:space="preserve"
   id="svg2"
   version="1.1"><metadata
     id="metadata8"><rdf:RDF><cc:Work
         rdf:about=""><dc:format>image/svg+xml</dc:format><dc:type
           rdf:resource="http://purl.org/dc/dcmitype/StillImage" /></cc:Work></rdf:RDF></metadata><defs
     id="defs6" /><g
     transform="matrix(1.3333333,0,0,-1.3333333,0,198.66667)"
     id="g10"><g
       transform="scale(0.1)"
       id="g12"><path
         id="path14"
         style="fill:#e59734;fill-opacity:1;fill-rule:evenodd;stroke:none"
         d="M 702.563,1441.02 C 1094.64,1473.59 1424.55,1162.6 1446.88,800.426 1471.75,397.016 1172.59,73.6641 805.844,51.0547 689.695,43.8945 594.641,59.8945 499.492,96.5156 420.531,126.906 335.742,179.105 284.871,229.164 159.691,352.355 66.7617,500.523 56.5352,695.043 34.9922,1104.61 327.391,1409.87 702.563,1441.02 Z m 64.113,48.46 c -14.543,-0.03 -16.863,0.52 -31.903,-0.22 -183.082,2.2 -394.89,-102.3 -512.609,-224.13 C -239.426,787.453 103.234,4.11719 750.914,4.64453 1295.45,5.09375 1640.59,559.617 1432.19,1042.84 c -34.21,79.32 -89.8,163.76 -148.72,221.59 -63.79,62.62 -123.95,108.16 -216.47,153.68 -68.137,33.52 -202.168,72.32 -300.324,71.37" /><path
         id="path16"
         style="fill:#e59734;fill-opacity:1;fill-rule:evenodd;stroke:none"
         d="m 367.953,848.125 c 0,-59.371 4.758,-89.16 30.527,-139.68 3.071,-6.019 5.665,-7.898 7.114,-14.16 h 111.281 c 3.496,15 7.949,131.301 9.91,155.379 2.258,27.77 -0.039,51.102 24.848,57.09 27.789,6.699 35.062,-16.879 41.949,-37.57 13.832,-41.477 27.301,-83.5 40.922,-124.368 l 30.68,-93.699 c 2.636,-7.902 6.367,-26.293 12.082,-30.472 0.308,13.929 37.328,150.968 42.539,171.828 6.636,26.535 7.859,42.55 39.277,42.55 25.273,0 30.481,-44.835 34.699,-61.847 3.071,-12.383 6.59,-24.61 9.824,-37.641 2.989,-12.058 9.196,-26.66 9.489,-39.609 6.929,1.847 8.129,9.148 12.14,15.672 4.102,6.656 7.25,11.375 11.282,18.175 28.859,48.723 53.797,16.821 80.808,-8.168 5.141,-4.757 2.719,-4.359 11.817,-4.542 31.824,-0.637 69.839,9.019 78.379,-21.547 2.46,-8.852 1.18,-18.223 -3.57,-25.168 -4.227,-6.172 -12.458,-12.063 -22.298,-12.063 h -76.918 c -12.058,0 -21.832,14.531 -29.461,19.641 -10.828,-16.192 -43.543,-77.621 -55.878,-84.86 -12.981,-7.613 -31.032,-5.5 -39.793,7.18 -9.77,14.137 -12.637,38.539 -16.887,55.121 l -6.793,24.301 c -1.879,4.348 -0.32,1.105 -1.75,3.168 -4.039,-17.359 -41.836,-171.84 -46.899,-183.852 -7.718,-18.339 -33.011,-25.32 -48.519,-9.769 -11.043,11.062 -33.781,92.918 -40.613,113.223 l -33.118,101.078 c -1.738,5.418 -2.761,10.011 -5.953,13.679 0,-15.672 -2.984,-33.789 -3.265,-49.101 -0.309,-17.309 -8.301,-29.137 -21.7,-32.309 -19.953,-4.719 -78.511,-2.051 -104.32,-2.051 1.988,-2.968 5.36,-6.867 7.945,-10.05 l 251.032,-253.02 c 68.992,-69.219 96.199,5.699 149,49.844 20.82,17.41 61.953,61.375 76.183,72.726 21.336,17.02 42.407,40.274 60.399,60.711 2.25,2.551 4.07,4.11 6.536,6.563 4.64,4.609 8.73,8.328 13.12,13.066 44.3,47.899 84.09,97.813 113.32,156.703 25.74,51.828 27.41,143.118 1.09,195.879 -6.66,13.348 -15.03,24.907 -24.25,36.289 -21,25.993 -49.92,43.465 -83.02,54.455 -64.796,21.53 -130.355,22.35 -191.687,-8.4 -6.879,-3.46 -13.691,-6.21 -20.328,-10.762 -4.051,-2.781 -4.391,-3.465 -8.465,-6.265 -18.105,-12.539 -32.59,-29.868 -43.207,-36.981 -10.23,6.852 -24.269,24.363 -41.262,35.664 -3.968,2.649 -6.007,4.438 -9.457,6.91 -28.113,20.024 -80.601,35.974 -121.121,35.974 -50.828,0 -116.16,-16.08 -154.261,-50.306 -17.618,-15.832 -32.809,-32.488 -43.778,-54.41 -9.429,-18.832 -19.621,-52.039 -19.621,-80.199" /></g></g></svg>