<?xml version="1.0" encoding="utf-8"?>
<!-- Generator: Adobe Illustrator 19.1.0, SVG Export Plug-In . SVG Version: 6.00 Build 0)  -->
<svg version="1.1" id="Layer_1" xmlns="http://www.w3.org/2000/svg" xmlns:xlink="http://www.w3.org/1999/xlink" x="0px" y="0px"
	 viewBox="-231 316 149 161" style="enable-background:new -231 316 149 161;" xml:space="preserve">
<style type="text/css">
	.st0{fill:none;stroke:#415D90;stroke-width:2;stroke-miterlimit:10;}
	.st1{fill:#FFFFFF;stroke:#415D90;stroke-width:2;stroke-miterlimit:10;}
	.st2{fill:#415D90;}
</style>
<title>Page 1</title>
<g>
	<path class="st0" d="M-163.7,453.4h-1.6c-1.2,0-2.1-0.9-2.1-2.1V332.8c0-1.2,0.9-2.1,2.1-2.1h1.6c1.2,0,2.1,0.9,2.1,2.1v118.5
		C-161.6,452.5-162.6,453.4-163.7,453.4z"/>
	<path class="st0" d="M-212.7,453l-1.1-1.1c-0.8-0.8-0.8-2.2,0-3l94.5-94.5c0.8-0.8,2.2-0.8,3,0l1.1,1.1c0.8,0.8,0.8,2.2,0,3
		l-94.5,94.5C-210.5,453.8-211.9,453.8-212.7,453z"/>
	<path class="st0" d="M-116.3,453l1.1-1.1c0.8-0.8,0.8-2.2,0-3l-94.5-94.5c-0.8-0.8-2.2-0.8-3,0l-1.1,1.1c-0.8,0.8-0.8,2.2,0,3
		l94.5,94.5C-118.5,453.8-117.2,453.8-116.3,453z"/>
	<path class="st1" d="M-108,426.6h-111.8c-2.7,0-4.8-2.2-4.8-4.8v-76.4c0-2.7,2.2-4.8,4.8-4.8H-108c2.7,0,4.8,2.2,4.8,4.8v76.4
		C-103.2,424.5-105.4,426.6-108,426.6z"/>
	<path class="st1" d="M-90.4,449.8l1.4-0.8c1-0.6,1.4-1.9,0.8-2.9l-54.2-98.1c-0.6-1-1.9-1.4-2.9-0.8l-1.4,0.8
		c-1,0.6-1.4,1.9-0.8,2.9l54.2,98.1C-92.7,450-91.4,450.4-90.4,449.8z"/>
	<polygon class="st2" points="-137.4,383.6 -180,404.9 -180,362.3 -137.4,383.6 	"/>
</g>
</svg>
