<?xml version="1.0" encoding="utf-8"?>
<!-- Generator: Adobe Illustrator 19.1.0, SVG Export Plug-In . SVG Version: 6.00 Build 0)  -->
<svg version="1.1" id="Layer_1" xmlns="http://www.w3.org/2000/svg" xmlns:xlink="http://www.w3.org/1999/xlink" x="0px" y="0px"
	 viewBox="-231 316 149 161" style="enable-background:new -231 316 149 161;" xml:space="preserve">
<style type="text/css">
	.st0{fill:#415D90;}
	.st1{fill:none;stroke:#415D90;stroke-width:2;stroke-miterlimit:10;}
	.st2{fill:#FFFFFF;stroke:#415D90;stroke-width:2;stroke-miterlimit:10;}
</style>
<title>Page 1</title>
<g>
	<path class="st0" d="M-155.6,469h-0.8c-0.6,0-1.1-0.5-1.1-1.1V328c0-0.6,0.5-1.1,1.1-1.1h0.8c0.6,0,1.1,0.5,1.1,1.1v139.9
		C-154.6,468.5-155,469-155.6,469z"/>
	<path class="st0" d="M-227,398.3v-0.8c0-0.6,0.5-1.1,1.1-1.1h139.9c0.6,0,1.1,0.5,1.1,1.1v0.8c0,0.6-0.5,1.1-1.1,1.1h-139.9
		C-226.5,399.4-227,398.9-227,398.3z"/>
	<circle class="st1" cx="-156" cy="398" r="52.6"/>
	<circle class="st2" cx="-156" cy="398" r="34.7"/>
	<g id="ZUd5Z9_2_">
		<g>
			<path class="st0" d="M-163.8,384.8c2.9,0.1,5.1,0.9,6.9,2.8c0.8,0.9,1.2,0.7,1.9,0c2.8-2.7,6.2-3.5,9.9-2.2c3.6,1.3,5.6,4,6,7.8
				c0.3,2.5-0.5,4.8-2.1,6.7c-4.5,5.2-9,10.4-13.5,15.6c-1,1.2-1.8,1.1-2.9-0.1c-4.4-5.2-8.8-10.3-13.1-15.5c-2.5-3-2.8-6.4-1.2-9.9
				C-170.3,386.5-167.3,384.9-163.8,384.8z"/>
		</g>
	</g>
</g>
</svg>
