<?xml version="1.0" encoding="utf-8"?>
<!-- Generator: Adobe Illustrator 19.1.0, SVG Export Plug-In . SVG Version: 6.00 Build 0)  -->
<svg version="1.1" id="Layer_1" xmlns="http://www.w3.org/2000/svg" xmlns:xlink="http://www.w3.org/1999/xlink" x="0px" y="0px"
	 viewBox="-231 316 149 161" style="enable-background:new -231 316 149 161;" xml:space="preserve">
<style type="text/css">
	.st0{fill:#FFFFFF;stroke:#415D90;stroke-width:2;stroke-miterlimit:10;}
	.st1{fill:#415D90;}
</style>
<title>Page 1</title>
<g>
	<path class="st0" d="M-184.2,350.2h-21c-2.7,0-4.8-2.2-4.8-4.8v-15.5c0-2.7,2.2-4.8,4.8-4.8h21c2.7,0,4.8,2.2,4.8,4.8v15.5
		C-179.3,348-181.5,350.2-184.2,350.2z"/>
	<path class="st0" d="M-163.3,466h-58.8c-2.7,0-4.8-2.2-4.8-4.8V338.6c0-2.7,2.2-4.8,4.8-4.8h58.8c2.7,0,4.8,2.2,4.8,4.8v122.6
		C-158.5,463.9-160.7,466-163.3,466z"/>
	<rect x="-222.1" y="359.9" class="st1" width="58.1" height="15"/>
	<rect x="-221.8" y="378.9" class="st1" width="58.1" height="15"/>
	<rect x="-221.8" y="398" class="st1" width="58.1" height="15"/>
	<rect x="-221.8" y="417.1" class="st1" width="58.1" height="15"/>
	<rect x="-221.8" y="436.1" class="st1" width="58.1" height="15"/>
	<circle class="st0" cx="-142.2" cy="415.1" r="57.8"/>
	<path class="st1" d="M-141.6,415.2h-1.1c-0.5,0-1-0.4-1-1V373c0-0.5,0.4-1,1-1h1.1c0.5,0,1,0.4,1,1v41.2
		C-140.7,414.8-141.1,415.2-141.6,415.2z"/>
	<path class="st1" d="M-143.6,413.4l0.7-0.7c0.4-0.4,1-0.4,1.4,0l25.7,25.7c0.4,0.4,0.4,1,0,1.4l-0.7,0.7c-0.4,0.4-1,0.4-1.4,0
		l-25.7-25.7C-144,414.4-144,413.7-143.6,413.4z"/>
</g>
</svg>
