<?xml version="1.0" encoding="utf-8"?>
<!-- Generator: Adobe Illustrator 19.1.0, SVG Export Plug-In . SVG Version: 6.00 Build 0)  -->
<svg version="1.1" id="Layer_1" xmlns="http://www.w3.org/2000/svg" xmlns:xlink="http://www.w3.org/1999/xlink" x="0px" y="0px"
	 viewBox="-231 316 149 161" style="enable-background:new -231 316 149 161;" xml:space="preserve">
<style type="text/css">
	.st0{fill:#415D90;}
</style>
<title>Page 1</title>
<g>
	<path class="st0" d="M-84.7,405.6v35.8h-15.8v18.1c0,6.9-5.7,12.6-12.6,12.6c-6.9,0-12.6-5.7-12.6-12.6v-39.9
		c0-6.9,5.7-12.6,12.6-12.6c3.5,0,6.6,1.4,8.9,3.7c2.3,2.3,3.7,5.4,3.7,8.9v18.1h12.1v-32.1c0-37.8-30.7-68.5-68.5-68.5
		s-68.5,30.7-68.5,68.5v32.1h12.9v-18.1c0-6.9,5.7-12.6,12.6-12.6c3.5,0,6.6,1.4,8.9,3.7c2.3,2.3,3.7,5.4,3.7,8.9v39.9
		c0,6.9-5.7,12.6-12.6,12.6c-6.9,0-12.6-5.7-12.6-12.6v-18.1H-229v-35.8c0-39.8,32.4-72.1,72.2-72.1S-84.7,365.8-84.7,405.6z"/>
	<g id="_x32_zL3N8_2_">
		<g>
			<path class="st0" d="M-182,439.6c0.4-1,1.2-1.3,2.2-1.3c1.4,0,2.9,0,4.3,0c0.3,0,0.5-0.1,0.7-0.4c0.8-1.9,1.7-3.8,2.5-5.7
				c0.5-1,1.3-1.4,2.2-1.1c0.7,0.3,1,0.8,1.1,1.5c0.6,3.5,1.1,7,1.7,10.5c0,0.3,0.1,0.6,0.1,0.9c0.2-0.1,0.2-0.3,0.2-0.4
				c2.1-6.7,4.2-13.3,6.2-20c0.4-1.2,1.2-1.7,2.1-1.5c0.7,0.2,1.2,0.7,1.3,1.5c0.5,3.6,0.9,7.3,1.4,10.9c0.5,3.6,0.9,7.3,1.4,10.9
				c0,0,0,0,0,0c0.2,0,0.1-0.2,0.1-0.3c0.7-4.4,1.4-8.8,2.1-13.1c0-0.3,0.1-0.6,0.2-0.9c0.2-0.6,0.7-1,1.3-1.1
				c0.7-0.1,1.2,0.1,1.6,0.7c0.3,0.5,0.6,1,0.8,1.5c0.6,1.2,1.3,2.4,1.9,3.7c0.2,0.3,0.3,0.4,0.7,0.4c4,0,7.9,0,11.9,0
				c1,0,1.7,0.3,2.1,1.3c0,0.3,0,0.6,0,0.9c-0.4,1-1.2,1.2-2.3,1.2c-4.2,0-8.5,0-12.7,0c-1.1,0-1.9-0.4-2.4-1.4
				c-0.1-0.3-0.3-0.7-0.6-1.1c-0.2,1.2-0.4,2.2-0.5,3.2c-0.6,3.6-1.2,7.1-1.7,10.7c-0.4,2.3-0.7,4.6-1.1,6.9
				c-0.1,0.9-0.8,1.5-1.7,1.5c-0.8,0-1.5-0.6-1.7-1.5c-0.3-2-0.5-3.9-0.8-5.9c-0.3-2.4-0.6-4.9-0.9-7.3s-0.6-4.9-0.9-7.3
				c-0.2-1.8-0.5-3.7-0.8-5.5c0,0.1-0.1,0.3-0.1,0.4c-2,6.5-4.1,13-6.1,19.5c-0.2,0.5-0.4,1-0.9,1.3c-1.1,0.6-2.3,0-2.6-1.2
				c-0.5-3.3-1.1-6.6-1.6-9.8c-0.2-1.1-0.3-2.1-0.6-3.2c-0.2,0.5-0.5,1-0.7,1.5c-0.4,1-1.1,1.5-2.2,1.5c-1.8,0-3.6,0-5.4,0
				c-1,0-1.8-0.3-2.2-1.3C-182,440.1-182,439.9-182,439.6z"/>
		</g>
	</g>
</g>
</svg>
