<svg width="152" height="157" viewBox="0 0 152 157" xmlns="http://www.w3.org/2000/svg"><title>Page 1</title><g fill="none" fill-rule="evenodd"><path d="M34.683 81.457c0-22.525 18.26-40.786 40.786-40.786 22.524 0 40.784 18.262 40.784 40.787s-18.26 40.786-40.785 40.786c-22.527 0-40.787-18.26-40.787-40.786zM34.683 81.457h81.57M40.14 61.064h70.657M40.14 101.85h70.657" stroke="#C5A067" stroke-width="2" stroke-linecap="round" stroke-linejoin="round"/><path d="M65.768 120.892c-7.528-7.053-12.726-22.06-12.726-39.435 0-17.37 5.195-32.375 12.72-39.43M85.172 42.025c7.527 7.054 12.722 22.06 12.722 39.432 0 17.37-5.194 32.376-12.72 39.43M75.468 40.67v81.572M97.94 10.377c34.443 10.807 56.836 45.383 51.287 82.194-2.072 13.752-7.777 26.054-15.993 36.08" stroke="#C5A067" stroke-width="2" stroke-linecap="round" stroke-linejoin="round"/><path d="M69.99 7.024a6 6 0 1 1 11.998 0 6 6 0 0 1-12 0" fill="#FEFEFE"/><path d="M69.99 7.024a6 6 0 1 1 11.998 0 6 6 0 0 1-12 0zM110.815 147.115c-13.7 7.376-29.817 10.54-46.387 8.042-14.19-2.138-26.837-8.146-37.034-16.79" stroke="#C5A067" stroke-width="2" stroke-linecap="round" stroke-linejoin="round"/><path d="M123.28 136.656a6 6 0 1 1 8.486-8.485 6 6 0 0 1-8.486 8.486" fill="#FEFEFE"/><path d="M123.28 136.656a6 6 0 1 1 8.486-8.485 6 6 0 0 1-8.486 8.486zM9.447 115.918c-7.062-13.52-10.05-29.322-7.604-45.56 5.261-34.91 33.941-60.49 67.678-63.19" stroke="#C5A067" stroke-width="2" stroke-linecap="round" stroke-linejoin="round"/><path d="M27.657 137.16a6 6 0 1 1-8.485-8.485 6 6 0 0 1 8.485 8.485" fill="#FEFEFE"/><path d="M27.657 137.16a6 6 0 1 1-8.485-8.485 6 6 0 0 1 8.485 8.485z" stroke="#C5A067" stroke-width="2" stroke-linecap="round" stroke-linejoin="round"/><path d="M95.44 10.377a2.5 2.5 0 1 1 4.998 0 2.5 2.5 0 0 1-5 0M108.315 147.115a2.5 2.5 0 1 1 5 0 2.5 2.5 0 0 1-5 0M6.947 115.918a2.5 2.5 0 1 1 5 0 2.5 2.5 0 0 1-5 0" fill="#C5A067"/></g></svg>