<svg width="145" height="157" viewBox="0 0 145 157" xmlns="http://www.w3.org/2000/svg" xmlns:xlink="http://www.w3.org/1999/xlink"><title>Page 1</title><defs><path id="a" d="M4.934.942A4.274 4.274 0 0 0 .66 5.216v24.332a4.273 4.273 0 0 0 4.274 4.274H88.13a4.273 4.273 0 0 0 4.275-4.274V5.216A4.274 4.274 0 0 0 88.13.942"/><path id="c" d="M4.934.942A4.274 4.274 0 0 0 .66 5.216v24.332a4.273 4.273 0 0 0 4.274 4.274H88.13a4.273 4.273 0 0 0 4.275-4.274V5.216A4.274 4.274 0 0 0 88.13.942"/><path id="e" d="M4.934.942A4.274 4.274 0 0 0 .66 5.216v24.332a4.273 4.273 0 0 0 4.274 4.274H88.13a4.273 4.273 0 0 0 4.275-4.274V5.216A4.274 4.274 0 0 0 88.13.942"/><path id="g" d="M4.934.942A4.274 4.274 0 0 0 .66 5.216v24.332a4.273 4.273 0 0 0 4.274 4.274H88.13a4.273 4.273 0 0 0 4.275-4.274V5.216A4.274 4.274 0 0 0 88.13.942"/><path id="i" d="M4.934.942A4.274 4.274 0 0 0 .66 5.216v24.332a4.273 4.273 0 0 0 4.274 4.274H88.13a4.273 4.273 0 0 0 4.275-4.274V5.216A4.274 4.274 0 0 0 88.13.942"/><path id="k" d="M4.934.942A4.274 4.274 0 0 0 .66 5.216v24.332a4.273 4.273 0 0 0 4.274 4.274H88.13a4.273 4.273 0 0 0 4.275-4.274V5.216A4.274 4.274 0 0 0 88.13.942"/><path id="m" d="M4.934.942A4.274 4.274 0 0 0 .66 5.216v24.332a4.273 4.273 0 0 0 4.274 4.274H88.13a4.273 4.273 0 0 0 4.275-4.274V5.216A4.274 4.274 0 0 0 88.13.942"/><path id="o" d="M4.934.942A4.274 4.274 0 0 0 .66 5.216v24.332a4.273 4.273 0 0 0 4.274 4.274H88.13a4.273 4.273 0 0 0 4.275-4.274V5.216A4.274 4.274 0 0 0 88.13.942"/><path id="q" d="M4.67.393A4.275 4.275 0 0 0 .397 4.667V29a4.275 4.275 0 0 0 4.275 4.273h93.884A4.275 4.275 0 0 0 102.828 29V4.666A4.275 4.275 0 0 0 98.554.393"/><path id="s" d="M4.67.393A4.275 4.275 0 0 0 .397 4.667V29a4.275 4.275 0 0 0 4.275 4.273h93.884A4.275 4.275 0 0 0 102.828 29V4.666A4.275 4.275 0 0 0 98.554.393"/><path id="u" d="M4.67.393A4.275 4.275 0 0 0 .397 4.667V29a4.275 4.275 0 0 0 4.275 4.273h93.884A4.275 4.275 0 0 0 102.828 29V4.666A4.275 4.275 0 0 0 98.554.393"/><path id="w" d="M4.67.393A4.275 4.275 0 0 0 .397 4.667V29a4.275 4.275 0 0 0 4.275 4.273h93.884A4.275 4.275 0 0 0 102.828 29V4.666A4.275 4.275 0 0 0 98.554.393"/><path id="y" d="M4.67.393A4.275 4.275 0 0 0 .397 4.667V29a4.275 4.275 0 0 0 4.275 4.273h93.884A4.275 4.275 0 0 0 102.828 29V4.666A4.275 4.275 0 0 0 98.554.393"/><path id="A" d="M4.67.393A4.275 4.275 0 0 0 .397 4.667V29a4.275 4.275 0 0 0 4.275 4.273h93.884A4.275 4.275 0 0 0 102.828 29V4.666A4.275 4.275 0 0 0 98.554.393"/><path id="C" d="M4.67.393A4.275 4.275 0 0 0 .397 4.667V29a4.275 4.275 0 0 0 4.275 4.273h93.884A4.275 4.275 0 0 0 102.828 29V4.666A4.275 4.275 0 0 0 98.554.393"/><path id="E" d="M4.67.393A4.275 4.275 0 0 0 .397 4.667V29a4.275 4.275 0 0 0 4.275 4.273h93.884A4.275 4.275 0 0 0 102.828 29V4.666A4.275 4.275 0 0 0 98.554.393"/><path id="G" d="M0 .578h190.256V157H0"/></defs><g fill="none" fill-rule="evenodd"><path d="M6.934 65.89a5.348 5.348 0 0 1-5.343-5.342V36.216a5.35 5.35 0 0 1 5.344-5.343H90.13a5.35 5.35 0 0 1 5.343 5.343v24.332a5.348 5.348 0 0 1-5.343 5.342H6.934z" fill="#FEFEFE"/><path d="M90.13 29.805H6.935a6.418 6.418 0 0 0-6.41 6.41V60.55a6.418 6.418 0 0 0 6.41 6.41H90.13a6.418 6.418 0 0 0 6.412-6.41V36.216a6.418 6.418 0 0 0-6.41-6.41m0 2.136a4.274 4.274 0 0 1 4.273 4.274v24.332a4.274 4.274 0 0 1-4.274 4.274H6.935a4.274 4.274 0 0 1-4.274-4.274V36.216a4.274 4.274 0 0 1 4.274-4.274H90.13" fill="#C5A067"/><g transform="translate(2 31)"><mask id="b" fill="#fff"><use xlink:href="#a"/></mask><path d="M14.297-.126l-38.542 38.542" stroke="#C5A067" stroke-width="2.137" mask="url(#b)"/></g><g transform="translate(2 31)"><mask id="d" fill="#fff"><use xlink:href="#c"/></mask><path d="M30.326-.126L-8.216 38.416" stroke="#C5A067" stroke-width="2.137" mask="url(#d)"/></g><g transform="translate(2 31)"><mask id="f" fill="#fff"><use xlink:href="#e"/></mask><path d="M46.354-.126L7.812 38.416" stroke="#C5A067" stroke-width="2.137" mask="url(#f)"/></g><g transform="translate(2 31)"><mask id="h" fill="#fff"><use xlink:href="#g"/></mask><path d="M62.383-.126L23.84 38.416" stroke="#C5A067" stroke-width="2.137" mask="url(#h)"/></g><g transform="translate(2 31)"><mask id="j" fill="#fff"><use xlink:href="#i"/></mask><path d="M78.41-.126L39.87 38.416" stroke="#C5A067" stroke-width="2.137" mask="url(#j)"/></g><g transform="translate(2 31)"><mask id="l" fill="#fff"><use xlink:href="#k"/></mask><path d="M94.44-.126L55.898 38.416" stroke="#C5A067" stroke-width="2.137" mask="url(#l)"/></g><g transform="translate(2 31)"><mask id="n" fill="#fff"><use xlink:href="#m"/></mask><path d="M110.468-.126L71.926 38.416" stroke="#C5A067" stroke-width="2.137" mask="url(#n)"/></g><g transform="translate(2 31)"><mask id="p" fill="#fff"><use xlink:href="#o"/></mask><path d="M126.497-.126L87.955 38.416" stroke="#C5A067" stroke-width="2.137" mask="url(#p)"/></g><g><path d="M44.67 112.34a5.348 5.348 0 0 1-5.343-5.34V82.666a5.35 5.35 0 0 1 5.344-5.343h93.883a5.35 5.35 0 0 1 5.343 5.343V107a5.348 5.348 0 0 1-5.342 5.34H44.67z" fill="#FEFEFE"/><path d="M138.553 76.256H44.67a6.418 6.418 0 0 0-6.41 6.41V107a6.418 6.418 0 0 0 6.41 6.41h93.883a6.418 6.418 0 0 0 6.41-6.41V82.666a6.418 6.418 0 0 0-6.41-6.41m0 2.136a4.274 4.274 0 0 1 4.274 4.274V107a4.274 4.274 0 0 1-4.274 4.273H44.67A4.275 4.275 0 0 1 40.396 107V82.666a4.275 4.275 0 0 1 4.274-4.274h93.883" fill="#C5A067"/></g><g><g transform="translate(40 78)"><mask id="r" fill="#fff"><use xlink:href="#q"/></mask><path d="M14.3-.675l-38.54 38.542" stroke="#C5A067" stroke-width="2.137" mask="url(#r)"/></g><g transform="translate(40 78)"><mask id="t" fill="#fff"><use xlink:href="#s"/></mask><path d="M30.33-.675L-8.212 37.867" stroke="#C5A067" stroke-width="2.137" mask="url(#t)"/></g><g transform="translate(40 78)"><mask id="v" fill="#fff"><use xlink:href="#u"/></mask><path d="M46.358-.675L7.816 37.867" stroke="#C5A067" stroke-width="2.137" mask="url(#v)"/></g><g transform="translate(40 78)"><mask id="x" fill="#fff"><use xlink:href="#w"/></mask><path d="M62.387-.675L23.845 37.867" stroke="#C5A067" stroke-width="2.137" mask="url(#x)"/></g><g transform="translate(40 78)"><mask id="z" fill="#fff"><use xlink:href="#y"/></mask><path d="M78.415-.675L39.873 37.867" stroke="#C5A067" stroke-width="2.137" mask="url(#z)"/></g><g transform="translate(40 78)"><mask id="B" fill="#fff"><use xlink:href="#A"/></mask><path d="M94.444-.675L55.902 37.867" stroke="#C5A067" stroke-width="2.137" mask="url(#B)"/></g><g transform="translate(40 78)"><mask id="D" fill="#fff"><use xlink:href="#C"/></mask><path d="M110.472-.675L71.93 37.867" stroke="#C5A067" stroke-width="2.137" mask="url(#D)"/></g><g transform="translate(40 78)"><mask id="F" fill="#fff"><use xlink:href="#E"/></mask><path d="M126.5-.675L87.96 37.867" stroke="#C5A067" stroke-width="2.137" mask="url(#F)"/></g></g><g><path d="M67.743 6.41a5 5 0 1 1 10 .002 5 5 0 0 1-10 0" fill="#FEFEFE"/><path d="M67.743 6.41a5 5 0 1 1 10 .002 5 5 0 0 1-10 0z" stroke="#C5A067" stroke-width="1.667"/><g transform="translate(-23)"><mask id="H" fill="#fff"><use xlink:href="#G"/></mask><path d="M95.743 112.312V157" stroke="#C5A067" stroke-width="2.536" mask="url(#H)"/></g><path d="M72.743 65.812v12.58M72.743 11.91v17.902" stroke="#C5A067" stroke-width="2.536"/></g></g></svg>