<svg width="152" height="154" viewBox="0 0 152 154" xmlns="http://www.w3.org/2000/svg"><title>Page 1</title><g fill="none" fill-rule="evenodd"><path d="M17.45 60.62a6 6 0 1 1-12 0 6 6 0 0 1 12 0M87.69 148a6 6 0 1 1-12 0 6 6 0 0 1 12 0M138.874 120.733a6 6 0 1 1-12 0 6 6 0 0 1 12 0M143.896 29.366a6 6 0 1 1-12 0 6 6 0 0 1 12 0M123.944 72.42a3.986 3.986 0 1 1-7.972 0 3.986 3.986 0 0 1 7.972 0M66.063 7.043a3.986 3.986 0 1 1-7.972 0 3.986 3.986 0 0 1 7.973 0M9.775 128.866a3.986 3.986 0 1 1-7.97 0 3.986 3.986 0 0 1 7.97 0" fill="#C5A067"/><path d="M136.54 120.415a3.986 3.986 0 1 1-7.97 0 3.986 3.986 0 0 1 7.97 0" fill="#C5A067"/><path d="M11.13 62.373C18.068 14.377 61.76 7.043 61.76 7.043s54.612 5.42 59.635 66.173M11.45 60.62s-4.385 54.93 68.804 87.22" stroke="#C5A067" stroke-width="2"/><path d="M137.896 29.366S32.178 44.276 5.79 128.867c0 0 23.28 19.931 78.29 19.452" stroke="#C5A067" stroke-width="2"/><path d="M11.13 59.344s74.705.957 121.425 61.07c0 0 35.718-39.065 5.342-91.047M119.958 72.42s2.55 35.08-38.27 75.58" stroke="#C5A067" stroke-width="2"/><path d="M62.008 13.134a5.96 5.96 0 0 1-4.242-1.757 5.96 5.96 0 0 1-1.758-4.243c0-1.603.624-3.11 1.758-4.242a5.956 5.956 0 0 1 4.242-1.758c1.603 0 3.11.624 4.242 1.758a5.956 5.956 0 0 1 1.758 4.242 5.96 5.96 0 0 1-1.758 4.243 5.96 5.96 0 0 1-4.242 1.757" fill="#FEFEFE"/><path d="M62.008.134c-1.87 0-3.628.728-4.95 2.05a6.954 6.954 0 0 0-2.05 4.95c0 1.87.728 3.628 2.05 4.95a6.954 6.954 0 0 0 4.95 2.05c1.87 0 3.628-.728 4.95-2.05a6.954 6.954 0 0 0 2.05-4.95c0-1.87-.728-3.628-2.05-4.95a6.954 6.954 0 0 0-4.95-2.05m0 2a5.002 5.002 0 0 1 0 10 5.002 5.002 0 0 1 0-10" fill="#C5A067"/><path d="M119.89 78.192a5.956 5.956 0 0 1-4.242-1.758 5.956 5.956 0 0 1-1.758-4.242 5.96 5.96 0 0 1 1.758-4.243 5.96 5.96 0 0 1 4.242-1.758 5.96 5.96 0 0 1 4.242 1.757 5.96 5.96 0 0 1 1.758 4.242c0 1.603-.624 3.11-1.758 4.242a5.956 5.956 0 0 1-4.242 1.758" fill="#FEFEFE"/><path d="M119.89 65.192c-1.87 0-3.628.728-4.95 2.05a7.01 7.01 0 0 0 0 9.9 6.954 6.954 0 0 0 4.95 2.05c1.87 0 3.628-.728 4.95-2.05a7.01 7.01 0 0 0 0-9.9 6.954 6.954 0 0 0-4.95-2.05m0 2a5.002 5.002 0 0 1 0 10 5.002 5.002 0 0 1 0-10" fill="#C5A067"/><path d="M6.996 135.117a5.956 5.956 0 0 1-4.242-1.758 5.956 5.956 0 0 1-1.758-4.243c0-1.603.624-3.11 1.758-4.242a5.956 5.956 0 0 1 4.242-1.758 5.96 5.96 0 0 1 4.243 1.758 6.006 6.006 0 0 1 0 8.484 5.96 5.96 0 0 1-4.244 1.757" fill="#FEFEFE"/><path d="M6.997 122.117c-1.87 0-3.628.727-4.95 2.05a7.01 7.01 0 0 0 0 9.9 6.954 6.954 0 0 0 4.95 2.05c1.87 0 3.628-.728 4.95-2.05a6.954 6.954 0 0 0 2.05-4.95c0-1.87-.728-3.628-2.05-4.95a6.954 6.954 0 0 0-4.95-2.05m0 2c1.28 0 2.56.487 3.536 1.463a5.002 5.002 0 0 1-3.536 8.537 5.002 5.002 0 0 1 0-10" fill="#C5A067"/></g></svg>