<svg width="162" height="161" viewBox="0 0 162 161" xmlns="http://www.w3.org/2000/svg"><title>1</title><g fill="none" fill-rule="evenodd"><path d="M4.612 159.85c75.716-20.38 134.71-81.552 151.962-158.5M160.095 159.85c-36.398-12.683-69.753-33.52-97.812-61.578C34.44 70.43 13.708 37.37 1 1.298M25.663 1.35c24.074 61.22 72.965 109.96 134.284 133.833" stroke="#C5A067" stroke-width="2" stroke-linecap="round"/><path d="M96.132 102.466a5.756 5.756 0 1 1 11.512 0 5.756 5.756 0 0 1-11.512 0" fill="#FEFEFE"/><path d="M96.132 102.466a5.756 5.756 0 1 1 11.512 0 5.756 5.756 0 0 1-11.512 0z" stroke="#C5A067" stroke-width="2"/></g></svg>