<svg width="36" height="24" viewBox="0 0 36 24" xmlns="http://www.w3.org/2000/svg"><title>Page 1</title><path d="M35.738.14c.03.366.046.7.046 1.005 0 .245-.062.566-.187.962-3.473 1.618-5.948 3.314-7.42 5.086-1.475 1.77-2.21 3.42-2.21 4.946 0 .496.092.97.277 1.422.187.45.466.877.838 1.282.496.154.854.233 1.072.233.154 0 .572-.077 1.256-.233.37-.093.775-.14 1.21-.14 1.27 0 2.257.334 2.954 1 .698.67 1.048 1.576 1.048 2.723 0 1.366-.443 2.506-1.327 3.422-.885.912-1.994 1.37-3.328 1.37-2.233 0-4.11-.783-5.63-2.35-1.52-1.565-2.28-3.792-2.28-6.677 0-2.11.728-4.26 2.186-6.446 1.46-2.186 3.275-3.9 5.445-5.14C32.698.93 34.635.092 35.505.092l.233.046zM13.54 0c.25.562.375.984.375 1.265 0 .156-.064.405-.187.748-2.73 1.374-4.485 2.39-5.26 3.044-1.643 1.312-2.854 2.638-3.63 3.98-.527.937-.79 1.904-.79 2.903 0 .97.248 1.764.745 2.388.31.437.682.657 1.118.657.155 0 .945-.048 2.373-.14a2.62 2.62 0 0 1 .51-.047c1.15 0 2.096.363 2.84 1.088.746.724 1.118 1.656 1.118 2.798 0 1.205-.474 2.244-1.42 3.125-.947.88-2.054 1.317-3.326 1.317-1.303 0-2.568-.325-3.792-.978-1.226-.655-2.234-1.695-3.026-3.125C.396 17.595 0 16.165 0 14.735c0-2.053.574-4.142 1.723-6.272C2.87 6.333 4.33 4.725 6.096 3.638 9.074 1.834 11.556.622 13.54 0z" fill="#C49F66" fill-rule="evenodd"/></svg>