<svg id="UI_Elements_1" xmlns="http://www.w3.org/2000/svg" viewBox="-77 -258 636 1128"><style>.st0{opacity:.75}.st1{opacity:.5;enable-background:new}.st1,.st2{fill:#f8f8f7}.st3{opacity:.5}</style><g class="st0"><path class="st1" d="M71 486.1l.1-24.5h1.4V488h-1.9l-17.9-24.5h-.1V488h-1.4v-26.4h1.9L71 486.1zM96.5 479.4c0 1.3-.2 2.5-.7 3.6-.4 1.1-1.1 2.1-1.9 2.9s-1.8 1.4-2.9 1.9-2.3.7-3.7.7c-1.3 0-2.5-.2-3.6-.7s-2.1-1.1-2.9-1.9-1.4-1.8-1.9-2.9c-.4-1.1-.7-2.3-.7-3.6s.2-2.5.7-3.6c.4-1.1 1.1-2.1 1.9-2.9s1.7-1.4 2.9-1.9c1.1-.4 2.3-.7 3.6-.7 1.3 0 2.6.2 3.7.7 1.1.4 2.1 1.1 2.9 1.9s1.4 1.8 1.9 2.9c.7 1.1.7 2.3.7 3.6zm-1.4 0c0-1.1-.2-2.1-.5-3.1-.4-1-.9-1.8-1.5-2.5-.7-.7-1.5-1.3-2.4-1.7s-2-.6-3.2-.6-2.3.2-3.2.6-1.7 1-2.4 1.7-1.2 1.6-1.5 2.5c-.3 1-.5 2-.5 3.1s.2 2.1.5 3.1.9 1.8 1.5 2.5c.7.7 1.5 1.3 2.4 1.7s2 .6 3.2.6 2.3-.2 3.2-.6c.9-.4 1.8-1 2.4-1.7.7-.7 1.2-1.6 1.5-2.5.5-1 .5-2 .5-3.1zM103.6 470.9c0 .2 0 .5.1.9v3.2h.1c.2-.7.6-1.3 1-1.9s1-1 1.5-1.4c.6-.4 1.2-.7 1.9-.9.7-.2 1.4-.3 2.1-.3 1.2 0 2.2.2 3 .6s1.5.9 2 1.6.9 1.4 1.1 2.3.4 1.8.4 2.7v10.5h-1.3v-10.1c0-.8-.1-1.5-.2-2.3-.2-.8-.4-1.5-.8-2.1s-.9-1.1-1.6-1.5-1.5-.6-2.5-.6c-.9 0-1.7.2-2.4.5-.8.3-1.4.9-2 1.5-.6.7-1 1.5-1.4 2.5-.3 1-.5 2.1-.5 3.4v8.7h-1.4v-13-.9-1.2c0-.4 0-.8-.1-1.1 0-.4-.1-.7-.1-.9h1.2l-.1-.2zM132.7 473.7c-1-1.5-2.5-2.3-4.5-2.3-.4 0-.9.1-1.4.2s-.9.3-1.4.6c-.4.3-.7.6-1 1.1-.3.4-.4 1-.4 1.6 0 1 .4 1.8 1.1 2.3s1.9 1 3.5 1.4c.8.2 1.5.4 2.2.7.7.2 1.3.6 1.8.9.5.4.9.8 1.2 1.3s.4 1.2.4 1.9c0 .8-.2 1.6-.5 2.2s-.8 1.2-1.3 1.6-1.2.7-1.9 1c-.7.2-1.4.3-2.2.3-1.3 0-2.5-.2-3.6-.7s-2-1.2-2.7-2.3l1.1-.8c.6.8 1.3 1.5 2.2 1.9s1.9.7 3 .7c.5 0 1.1-.1 1.6-.2s1-.4 1.5-.7.8-.7 1-1.2c.3-.5.4-1 .4-1.7s-.2-1.3-.5-1.7c-.3-.4-.7-.8-1.2-1.1-.5-.3-1.1-.5-1.7-.7s-1.3-.4-2-.5c-1.5-.4-2.6-.9-3.4-1.6s-1.2-1.7-1.2-3c0-.8.2-1.4.5-2s.7-1.1 1.3-1.5c.5-.4 1.1-.7 1.8-.9s1.3-.3 2-.3c1.2 0 2.3.2 3.2.7.9.4 1.7 1.1 2.2 2l-1.1.8zM146.7 471.9h-5v12c0 1.2.3 2 .8 2.5.6.5 1.3.7 2.1.7.7 0 1.4-.1 2-.4l.1 1.2c-.3.1-.7.2-1.1.3s-.8.1-1.2.1c-1.2 0-2.2-.3-2.9-1s-1.1-1.7-1.1-3.1v-12.3h-3.7v-1.1h3.7v-5h1.4v5h5l-.1 1.1zM167.9 479.4c0 1.3-.2 2.5-.7 3.6-.4 1.1-1.1 2.1-1.9 2.9-.8.8-1.8 1.4-2.9 1.9s-2.3.7-3.7.7c-1.3 0-2.5-.2-3.6-.7s-2.1-1.1-2.9-1.9c-.8-.8-1.4-1.8-1.9-2.9-.4-1.1-.7-2.3-.7-3.6s.2-2.5.7-3.6c.4-1.1 1.1-2.1 1.9-2.9.8-.8 1.7-1.4 2.9-1.9 1.1-.4 2.3-.7 3.6-.7s2.6.2 3.7.7c1.1.4 2.1 1.1 2.9 1.9.8.8 1.4 1.8 1.9 2.9.5 1.1.7 2.3.7 3.6zm-1.4 0c0-1.1-.2-2.1-.5-3.1-.4-1-.9-1.8-1.5-2.5-.7-.7-1.5-1.3-2.4-1.7s-2-.6-3.2-.6-2.3.2-3.2.6-1.7 1-2.4 1.7-1.2 1.6-1.5 2.5c-.3 1-.5 2-.5 3.1s.2 2.1.5 3.1.9 1.8 1.5 2.5c.7.7 1.5 1.3 2.4 1.7s2 .6 3.2.6 2.3-.2 3.2-.6 1.8-1 2.4-1.7c.7-.7 1.2-1.6 1.5-2.5.4-1 .5-2 .5-3.1zM175.2 497h-1.4v-26.1h1.4v4.1h.1c.7-1.5 1.7-2.7 3.1-3.5 1.3-.8 2.7-1.2 4.3-1.2 1.3 0 2.5.2 3.6.7s2 1.1 2.8 1.9 1.3 1.8 1.8 2.9c.4 1.1.6 2.3.6 3.6s-.2 2.5-.6 3.6-1 2.1-1.8 2.9-1.7 1.5-2.8 1.9c-1.1.5-2.2.7-3.5.7-.7 0-1.5-.1-2.2-.3s-1.4-.5-2.1-.9c-.6-.4-1.2-.9-1.8-1.4-.5-.6-1-1.2-1.3-2h-.1V497h-.1zm14.9-17.6c0-1.1-.2-2.1-.5-3.1s-.8-1.8-1.5-2.5c-.6-.7-1.4-1.3-2.3-1.7s-1.9-.7-3.1-.7c-1.1 0-2.1.2-3 .6s-1.7 1-2.4 1.7-1.2 1.6-1.6 2.5-.6 2-.6 3.1.2 2.1.6 3.1.9 1.8 1.6 2.5 1.5 1.3 2.4 1.7 1.9.6 3 .6 2.2-.2 3.1-.6 1.7-1 2.3-1.7 1.1-1.6 1.5-2.5c.1-.8.5-1.9.5-3z"/><path class="st2" d="M235.4 473.6h.9c.8 0 1.6-.1 2.4-.3s1.5-.6 2.1-1c.6-.5 1.1-1.1 1.5-1.8s.6-1.6.6-2.6c0-.8-.1-1.6-.4-2.3s-.7-1.3-1.2-1.8-1.1-.9-1.8-1.1c-.7-.3-1.4-.4-2.2-.4-1.1 0-2.1.2-3.1.7-.9.5-1.7 1.2-2.3 2.1l-1-.7c.7-1.1 1.6-1.9 2.7-2.5s2.3-.9 3.8-.9c1 0 1.9.1 2.7.4s1.6.7 2.2 1.3 1.1 1.3 1.5 2.1.6 1.8.6 2.8c0 1.5-.4 2.9-1.3 4.1s-2.1 2-3.8 2.3v.1c2 .3 3.5 1.2 4.5 2.4 1 1.3 1.5 2.7 1.5 4.4 0 1-.2 2-.5 2.9s-.8 1.7-1.5 2.4-1.5 1.2-2.5 1.6-2.1.6-3.4.6c-1.8 0-3.3-.4-4.6-1.2s-2.3-1.9-3-3.3l1.2-.6c.5 1.2 1.4 2.1 2.5 2.8 1.2.7 2.4 1 3.9 1.1 1 0 1.9-.2 2.7-.5s1.5-.8 2.1-1.3c.6-.6 1-1.2 1.3-2s.4-1.6.4-2.6c0-1.1-.2-2-.7-2.8s-1.1-1.4-1.8-1.9-1.5-.9-2.4-1.1-1.7-.3-2.5-.3h-.9v-1.1h-.2z"/><path class="st1" d="M263.5 460.2h.8v7.1h9.8v-7.1h.8v15.4h-.8V468h-9.8v7.6h-.8v-15.4zM281.3 475.6h-.8v-15.4h4.3c.6 0 1.2.1 1.8.2.6.1 1.1.3 1.6.6s.8.7 1.1 1.2.4 1.1.4 1.9c0 .7-.1 1.3-.4 1.7-.3.5-.6.9-1 1.2-.4.3-.9.5-1.4.7s-1 .2-1.6.3l4.6 7.6h-1l-4.5-7.6h-3.3v7.6h.2zm0-8.4h3.4c1.4 0 2.4-.3 3.1-.8s1.1-1.3 1.1-2.4c0-.6-.1-1.1-.4-1.5-.2-.4-.6-.7-1-1-.4-.2-.9-.4-1.4-.5s-1.1-.2-1.7-.2h-3.3v6.4h.2zM302.2 462.1c-.4-.5-.9-.9-1.5-1.2-.6-.3-1.3-.4-2-.4-.5 0-1 .1-1.4.2-.4.1-.9.3-1.3.6s-.7.6-.9 1c-.2.4-.3.9-.3 1.5 0 .8.2 1.4.6 1.9.4.5.9.8 1.5 1.1.6.3 1.3.6 2 .8s1.4.5 2 .8c.6.3 1.1.7 1.5 1.2.4.5.6 1.2.6 2.1 0 .7-.1 1.3-.4 1.8s-.6 1-1 1.3c-.4.3-1 .6-1.5.8-.6.2-1.2.3-1.8.3-1 0-1.8-.2-2.6-.5s-1.5-.8-2-1.5l.5-.5c.6.6 1.2 1 1.8 1.3.7.3 1.4.5 2.2.5.5 0 1-.1 1.5-.2.5-.2.9-.4 1.3-.7.4-.3.7-.6.9-1.1.2-.5.3-.9.3-1.5s-.1-1.1-.4-1.5c-.2-.4-.6-.7-.9-1-.4-.3-.8-.5-1.3-.7l-1.5-.6-1.5-.6c-.5-.2-.9-.5-1.3-.8-.4-.3-.7-.7-.9-1.2-.2-.5-.4-1-.4-1.7s.1-1.3.4-1.8.6-.9 1.1-1.3 1-.6 1.5-.8c.6-.2 1.2-.3 1.8-.3.9 0 1.7.2 2.4.5s1.3.7 1.7 1.3l-.7.9z"/><path class="st2" d="M327.4 461.1c1.7 0 3 .4 4.1 1.2 1.1.8 1.9 1.9 2.6 3.2.6 1.3 1.1 2.8 1.3 4.4s.4 3.2.4 4.8-.1 3.2-.4 4.8c-.2 1.6-.7 3.1-1.3 4.4-.6 1.3-1.5 2.4-2.6 3.2-1.1.8-2.4 1.2-4.1 1.2s-3.1-.4-4.1-1.2c-1.1-.8-1.9-1.9-2.5-3.2-.6-1.3-1-2.8-1.3-4.4-.2-1.6-.4-3.2-.4-4.8s.1-3.2.4-4.8c.2-1.6.7-3.1 1.3-4.4.6-1.3 1.5-2.4 2.5-3.2 1.1-.8 2.4-1.2 4.1-1.2zm0 1.3c-1 0-1.9.2-2.6.6s-1.4 1-1.9 1.6-.9 1.5-1.3 2.3c-.3.9-.6 1.8-.7 2.7-.1.9-.3 1.8-.4 2.7-.1.9-.1 1.7-.1 2.4s0 1.5.1 2.4c.1.9.2 1.8.4 2.7.2.9.4 1.8.7 2.7.3.9.7 1.7 1.3 2.3s1.2 1.2 1.9 1.6c.7.4 1.6.6 2.6.6s1.9-.2 2.6-.6 1.4-1 1.9-1.6c.5-.7.9-1.5 1.3-2.3.3-.9.6-1.8.7-2.7.1-.9.3-1.8.4-2.7.1-.9.1-1.7.1-2.4s0-1.5-.1-2.4c-.1-.9-.2-1.8-.4-2.7-.2-.9-.4-1.8-.7-2.7-.3-.9-.7-1.7-1.3-2.3-.5-.7-1.1-1.2-1.9-1.6-.7-.4-1.5-.6-2.6-.6zM353.1 473.9c1.8.5 3.2 1.5 4 2.8.9 1.3 1.3 2.8 1.3 4.4 0 1.1-.2 2.2-.6 3.1-.4.9-1 1.7-1.7 2.4s-1.6 1.2-2.6 1.5-2 .5-3.1.5-2.2-.2-3.1-.5c-.9-.3-1.8-.9-2.5-1.5s-1.3-1.4-1.7-2.4c-.4-.9-.6-2-.6-3.1 0-.8.1-1.6.4-2.3.2-.7.6-1.4 1-2.1.4-.6 1-1.2 1.7-1.7s1.4-.8 2.3-1.1v-.1c-1.5-.5-2.6-1.4-3.3-2.5s-1.1-2.4-1.1-3.6c0-1 .2-1.9.5-2.7.3-.8.9-1.5 1.5-2.1.6-.6 1.4-1 2.2-1.3.8-.3 1.8-.5 2.7-.5 1 0 1.9.2 2.7.5.8.3 1.6.8 2.2 1.3.6.6 1.1 1.3 1.5 2.1.4.8.5 1.7.5 2.7 0 .6-.1 1.3-.3 1.9-.2.6-.5 1.2-.8 1.7-.4.5-.8 1-1.4 1.5-.4.4-1 .8-1.7 1.1zm-9.3 7c0 .9.2 1.7.5 2.5s.8 1.5 1.3 2c.6.6 1.3 1 2.1 1.4.8.3 1.7.5 2.7.5s1.9-.2 2.7-.5c.8-.3 1.5-.8 2.1-1.4.6-.6 1-1.3 1.3-2 .3-.8.5-1.6.5-2.5s-.2-1.8-.5-2.6-.8-1.5-1.4-2c-.6-.5-1.3-1-2.1-1.3-.8-.3-1.7-.5-2.6-.5-.9 0-1.8.2-2.6.5s-1.5.8-2.1 1.3c-.6.5-1.1 1.2-1.4 2-.2.9-.5 1.7-.5 2.6zm1-13.1c0 .7.1 1.5.4 2.1.3.7.7 1.3 1.2 1.8s1.1.9 1.8 1.2c.7.3 1.4.4 2.2.4.8 0 1.6-.1 2.2-.4.7-.3 1.3-.7 1.8-1.2s.9-1.1 1.2-1.8c.3-.7.4-1.4.4-2.1 0-.8-.1-1.6-.4-2.2-.3-.7-.7-1.2-1.2-1.7s-1.1-.9-1.8-1.1c-.7-.2-1.4-.4-2.2-.4s-1.5.1-2.2.4-1.3.6-1.8 1.1-.9 1.1-1.2 1.7c-.1.6-.4 1.4-.4 2.2z"/><path class="st1" d="M376.2 460.2h1.3l6.2 14.1 6.2-14.1h1.3v15.4h-.8v-14.4h-.1l-6.4 14.4h-.5l-6.4-14.4v14.4h-.8v-15.4zM397.7 475.6h-.8v-15.4h.8v15.4zM414.7 474.5v-14.3h.8v15.4h-1.2l-10.4-14.3v14.3h-.8v-15.4h1.1l10.5 14.3zM428.8 462.1c-.4-.5-.9-.9-1.5-1.2-.6-.3-1.3-.4-2-.4-.5 0-1 .1-1.4.2-.4.1-.9.3-1.3.6s-.7.6-.9 1-.3.9-.3 1.5c0 .8.2 1.4.6 1.9.4.5.9.8 1.5 1.1.6.3 1.3.6 2 .8s1.4.5 2 .8c.6.3 1.1.7 1.5 1.2.4.5.6 1.2.6 2.1 0 .7-.1 1.3-.4 1.8s-.6 1-1 1.3c-.4.3-1 .6-1.5.8-.6.2-1.2.3-1.8.3-1 0-1.8-.2-2.6-.5s-1.5-.8-2-1.5l.5-.5c.6.6 1.2 1 1.8 1.3.7.3 1.4.5 2.2.5.5 0 1-.1 1.5-.2.5-.2.9-.4 1.3-.7.4-.3.7-.6.9-1.1.2-.5.3-.9.3-1.5s-.1-1.1-.4-1.5c-.2-.4-.6-.7-.9-1-.4-.3-.8-.5-1.3-.7l-1.5-.6-1.5-.6c-.5-.2-.9-.5-1.3-.8-.4-.3-.7-.7-.9-1.2s-.4-1-.4-1.7.1-1.3.4-1.8.6-.9 1.1-1.3 1-.6 1.5-.8c.6-.2 1.2-.3 1.8-.3.9 0 1.7.2 2.4.5s1.3.7 1.7 1.3l-.7.9z"/></g><path class="st2" d="M18.4 342.1h-3.3v-60.9H-6.7v-3h46.8v3H18.4v60.9zM58.5 339.1h36v3H55.3v-63.9h38.1v3H58.6v26.2h32.6v3H58.6l-.1 28.7zM113.1 278.1h18c2.4 0 4.8.2 7.2.7s4.6 1.3 6.5 2.5c1.9 1.2 3.4 2.8 4.6 4.7 1.2 2 1.8 4.5 1.8 7.5 0 2.1-.3 4-1 5.6s-1.6 3-2.8 4.2c-1.1 1.2-2.5 2.2-4 3s-3.1 1.4-4.7 1.7v.2c1.7.2 3.5.6 5.4 1.4s3.5 1.8 5 3.1c1.5 1.4 2.7 3 3.7 5s1.4 4.3 1.4 7.1c0 3.2-.6 5.9-1.8 8.1s-2.9 4-4.9 5.3c-2 1.4-4.3 2.3-6.9 2.9-2.6.6-5.2.9-7.9.9h-19.4v-63.9h-.2zm3.4 28.8h14.7c2 0 4-.2 5.9-.7 2-.5 3.7-1.2 5.4-2.3s2.9-2.4 3.9-4.1 1.5-3.7 1.5-6c0-2.4-.5-4.4-1.5-6.1s-2.3-3-3.9-4-3.5-1.7-5.6-2.1-4.3-.6-6.6-.6h-13.8v25.9zm0 32.2h15.3c2.7 0 5.1-.3 7.5-.8 2.3-.5 4.3-1.4 6-2.5s3-2.6 4-4.4 1.4-3.9 1.4-6.5c0-2.7-.5-4.9-1.5-6.8s-2.4-3.5-4.1-4.7-3.6-2.1-5.7-2.7c-2.1-.6-4.3-.9-6.5-.9h-16.4v29.3z"/><g><path class="st2" d="M392.7 310.1c0 4.9-.8 9.4-2.5 13.5s-4 7.7-6.9 10.7c-3 3-6.5 5.3-10.5 7s-8.4 2.5-13.1 2.5c-4.8 0-9.2-.8-13.2-2.5s-7.5-4-10.5-7-5.3-6.5-6.9-10.7c-1.7-4.1-2.5-8.6-2.5-13.5s.8-9.4 2.5-13.5 4-7.7 6.9-10.7c3-3 6.5-5.3 10.5-7 4-1.7 8.4-2.5 13.2-2.5 4.8 0 9.1.8 13.2 2.5 4 1.7 7.5 4 10.4 7 3 3 5.3 6.5 6.9 10.7 1.6 4.1 2.5 8.6 2.5 13.5zm-3.6 0c0-4.2-.7-8.2-2.1-12-1.4-3.7-3.4-7-6-9.8-2.6-2.8-5.7-5-9.3-6.6-3.6-1.6-7.6-2.4-12-2.4-4.5 0-8.5.8-12.1 2.4-3.6 1.6-6.7 3.8-9.3 6.6-2.6 2.8-4.6 6-6 9.8-1.4 3.7-2.1 7.7-2.1 12 0 4.2.7 8.2 2.1 11.9 1.4 3.7 3.4 7 6 9.7 2.6 2.8 5.7 5 9.4 6.6 3.6 1.6 7.7 2.4 12.2 2.4s8.5-.8 12.1-2.4c3.6-1.6 6.7-3.8 9.3-6.6 2.6-2.8 4.6-6 6-9.7 1.4-3.8 1.8-7.6 1.8-11.9zM412.5 278h17.6c2.6 0 5.1.3 7.5.9 2.4.6 4.6 1.5 6.5 2.8 1.9 1.3 3.4 2.9 4.6 5 1.1 2.1 1.7 4.6 1.7 7.7 0 2.8-.5 5.2-1.5 7.3-1 2.1-2.4 3.8-4.2 5.3-1.7 1.4-3.8 2.5-6.2 3.2-2.4.7-5 1.1-7.7 1.1h-14.9v30.9h-3.4V278zm3.3 30.2h15c2.2 0 4.2-.3 6.2-.8s3.7-1.4 5.2-2.5 2.7-2.5 3.5-4.3c.9-1.7 1.3-3.8 1.3-6.3s-.5-4.5-1.4-6.2c-.9-1.7-2.2-3-3.7-4.1-1.5-1.1-3.3-1.8-5.3-2.3s-4.1-.7-6.2-.7h-14.6v27.2zM472.2 342.1h-3.3v-63.9H506v3h-33.7v26.3h31.4v3h-31.4l-.1 31.6z"/></g><g class="st3"><path class="st2" d="M271.3 300.4l-13.2.4-16.3-24.1h-6l10.3 24.5-13.6.4-2.7-2.9h-2.9l2.2 5.3-2.2 5.3h2.9l2.7-2.9 13.6.4-10.3 24.5h6l16.3-24.1 13.2.4c1.4 0 3.8-1.5 3.8-3.4v-.4c0-1.8-2.4-3.4-3.8-3.4z"/></g><g><g class="st0"><path class="st2" d="M-15.2 389.1h-1.2v-21l-4.2 3.6-.7-.9 5-4.1h1.1v22.4zM4.3 389.1H3.1v-21l-4.2 3.6-.7-.9 5-4.1h1.1v22.4zM19.1 375.5c0 .3-.1.5-.3.8s-.4.3-.7.3c-.3 0-.5-.1-.7-.3s-.3-.5-.3-.8.1-.5.3-.8c.2-.2.4-.3.7-.3.3 0 .5.1.7.3.1.3.3.5.3.8zm0 12.7c0 .3-.1.6-.3.8s-.4.3-.7.3c-.3 0-.5-.1-.7-.3s-.3-.5-.3-.8.1-.5.3-.8c.2-.2.4-.3.7-.3.3 0 .5.1.7.3s.3.5.3.8zM33.1 366.2c1.4 0 2.6.4 3.5 1.1s1.6 1.6 2.2 2.8c.5 1.1.9 2.4 1.1 3.8.2 1.4.3 2.7.3 4.1s-.1 2.7-.3 4.1-.6 2.6-1.1 3.8c-.5 1.1-1.3 2-2.2 2.7s-2.1 1.1-3.5 1.1-2.6-.4-3.5-1.1-1.6-1.6-2.2-2.7c-.5-1.1-.9-2.4-1.1-3.8s-.3-2.7-.3-4.1c0-1.3.1-2.7.3-4.1.2-1.4.6-2.6 1.1-3.8.5-1.1 1.2-2 2.2-2.8s1.9-1.1 3.5-1.1zm0 1c-.9 0-1.6.2-2.2.5s-1.2.8-1.6 1.4-.8 1.2-1.1 2-.5 1.5-.6 2.3-.2 1.6-.3 2.3c-.1.8-.1 1.5-.1 2.1s0 1.3.1 2.1.2 1.5.3 2.3.4 1.5.6 2.3.6 1.4 1.1 2c.4.6 1 1 1.6 1.4.6.3 1.4.5 2.2.5.9 0 1.6-.2 2.2-.5s1.2-.8 1.6-1.4c.4-.6.8-1.2 1.1-2 .3-.7.5-1.5.6-2.3s.2-1.6.3-2.3c.1-.8.1-1.5.1-2.1s0-1.3-.1-2.1-.2-1.5-.3-2.3-.4-1.5-.6-2.3c-.3-.7-.6-1.4-1.1-2-.4-.6-1-1-1.6-1.4-.8-.2-1.5-.5-2.2-.5zM52.5 366.2c1.4 0 2.6.4 3.5 1.1s1.6 1.6 2.2 2.8c.5 1.1.9 2.4 1.1 3.8.2 1.4.3 2.7.3 4.1s-.1 2.7-.3 4.1-.6 2.6-1.1 3.8c-.5 1.1-1.3 2-2.2 2.7s-2.1 1.1-3.5 1.1-2.6-.4-3.5-1.1-1.6-1.6-2.2-2.7c-.5-1.1-.9-2.4-1.1-3.8-.2-1.4-.3-2.7-.3-4.1 0-1.3.1-2.7.3-4.1s.6-2.6 1.1-3.8c.5-1.1 1.2-2 2.2-2.8s2.1-1.1 3.5-1.1zm0 1c-.9 0-1.6.2-2.2.5-.6.3-1.2.8-1.6 1.4-.4.6-.8 1.2-1.1 2s-.5 1.5-.6 2.3-.2 1.6-.3 2.3c-.1.8-.1 1.5-.1 2.1s0 1.3.1 2.1.2 1.5.3 2.3.4 1.5.6 2.3.6 1.4 1.1 2c.4.6 1 1 1.6 1.4.6.3 1.4.5 2.2.5.9 0 1.6-.2 2.2-.5s1.2-.8 1.6-1.4c.4-.6.8-1.2 1.1-2 .3-.7.5-1.5.6-2.3s.2-1.6.3-2.3c.1-.8.1-1.5.1-2.1s0-1.3-.1-2.1-.2-1.5-.3-2.3-.4-1.5-.6-2.3c-.3-.7-.6-1.4-1.1-2-.4-.6-1-1-1.6-1.4-.6-.2-1.2-.5-2.2-.5zM70.1 389.6c-.6 0-1.2-.1-1.8-.2-.6-.2-1.1-.4-1.6-.8s-.9-.8-1.2-1.3c-.3-.5-.4-1.2-.4-2 0-1.1.3-1.9.8-2.5s1.2-1.1 2-1.5c.8-.4 1.7-.6 2.7-.7s1.9-.2 2.8-.2h2.1v-.9c0-1.5-.4-2.6-1.2-3.3-.8-.7-1.9-1.1-3.3-1.1-.9 0-1.7.2-2.4.5s-1.4.7-2 1.3l-.6-.8c.7-.6 1.4-1 2.3-1.4.9-.3 1.8-.5 2.8-.5 1.6 0 3 .4 4 1.3s1.5 2.2 1.5 4v6.4c0 .5 0 1.1.1 1.8s.1 1.1.2 1.5h-1.1c-.1-.4-.1-.9-.2-1.6 0-.6-.1-1.2-.1-1.6h-.1c-.5 1.2-1.2 2.1-2.2 2.7-.8.5-2.1.9-3.1.9zm0-1c1 0 1.8-.2 2.5-.6s1.2-.9 1.6-1.5.7-1.3.9-2 .3-1.5.3-2.3v-.8h-1.8c-.8 0-1.7 0-2.6.1s-1.7.3-2.4.5-1.3.7-1.8 1.2-.7 1.2-.7 2c0 .6.1 1.2.4 1.6.3.4.6.8.9 1s.8.5 1.3.6c.7.1 1 .2 1.4.2zM84.4 378.1v-.8-1-1c0-.3 0-.6-.1-.8h1.1v3.3h.1c.4-1.2 1.1-2.1 2.1-2.8s2-1 3.1-1c1.3 0 2.4.4 3.2 1.1s1.4 1.7 1.7 3c.4-1.3 1.1-2.3 2.1-3s2.1-1 3.4-1c1 0 1.8.2 2.5.5s1.2.8 1.6 1.4.7 1.3.9 2c.2.8.3 1.6.3 2.4v8.7h-1.2v-8.4c0-.7-.1-1.4-.2-2.1s-.4-1.3-.7-1.8c-.3-.5-.8-1-1.3-1.3s-1.2-.5-2-.5-1.5.2-2.1.5-1.2.8-1.6 1.4-.8 1.3-1 2.1-.4 1.7-.4 2.7v7.5h-1.3v-8.8c0-1.7-.3-3-1-4-.7-.9-1.7-1.4-3-1.4-.7 0-1.3.1-1.9.4s-1.2.7-1.6 1.3c-.5.6-.8 1.3-1.1 2.2-.3.9-.4 1.9-.4 3v7.1h-1.2v-10.9z"/><path class="st1" d="M124.6 388.1h12.6v1h-13.7v-22.4h13.3v1h-12.3v9.2h11.4v1h-11.4l.1 10.2zM155.1 369.4c-.5-.7-1.3-1.3-2.1-1.7-.9-.4-1.8-.6-2.9-.6-.7 0-1.4.1-2.1.3s-1.3.5-1.9.9c-.5.4-1 .9-1.3 1.5s-.5 1.3-.5 2.2c0 1.2.3 2.1.9 2.7.6.7 1.3 1.2 2.2 1.6s1.9.8 2.9 1.1 2 .7 2.9 1.2 1.6 1.1 2.2 1.8c.6.8.9 1.8.9 3.1 0 1-.2 1.9-.6 2.7s-.9 1.4-1.5 1.9-1.4.9-2.2 1.2c-.8.3-1.7.4-2.6.4-1.4 0-2.7-.2-3.8-.7-1.2-.5-2.1-1.2-2.9-2.1l.8-.8c.8.8 1.7 1.5 2.7 1.9s2.1.7 3.2.7c.7 0 1.5-.1 2.2-.3s1.3-.5 1.9-1c.5-.4 1-.9 1.3-1.6.3-.6.5-1.3.5-2.1 0-.9-.2-1.6-.5-2.2s-.8-1.1-1.4-1.5-1.2-.7-1.9-1-1.5-.6-2.2-.8c-.8-.3-1.5-.5-2.2-.9-.7-.3-1.4-.7-1.9-1.1-.6-.5-1-1-1.4-1.7-.3-.7-.5-1.5-.5-2.5s.2-1.8.6-2.6.9-1.4 1.6-1.9c.6-.5 1.4-.9 2.2-1.1.8-.3 1.7-.4 2.6-.4 1.3 0 2.4.2 3.4.7s1.8 1.1 2.5 1.9l-1.1.8zM169.4 389.1h-1.2v-21.3h-7.7v-1h16.4v1h-7.6l.1 21.3z"/></g><g class="st0"><path class="st2" d="M322.1 366.2c1.4 0 2.6.4 3.5 1.1.9.7 1.6 1.6 2.2 2.8.5 1.1.9 2.4 1.1 3.8s.3 2.7.3 4.1-.1 2.7-.3 4.1c-.2 1.4-.6 2.6-1.1 3.8-.5 1.1-1.3 2-2.2 2.7-.9.7-2.1 1.1-3.5 1.1s-2.6-.4-3.5-1.1c-.9-.7-1.6-1.6-2.2-2.7-.5-1.1-.9-2.4-1.1-3.8s-.3-2.7-.3-4.1c0-1.3.1-2.7.3-4.1s.6-2.6 1.1-3.8c.5-1.1 1.2-2 2.2-2.8s2.1-1.1 3.5-1.1zm0 1c-.9 0-1.6.2-2.2.5-.6.3-1.2.8-1.6 1.4-.4.6-.8 1.2-1.1 2-.3.8-.5 1.5-.6 2.3-.1.8-.2 1.6-.3 2.3-.1.8-.1 1.5-.1 2.1s0 1.3.1 2.1.2 1.5.3 2.3.4 1.5.6 2.3c.3.7.6 1.4 1.1 2 .4.6 1 1 1.6 1.4.6.3 1.4.5 2.2.5.9 0 1.6-.2 2.2-.5.6-.3 1.2-.8 1.6-1.4.4-.6.8-1.2 1.1-2 .3-.7.5-1.5.6-2.3.1-.8.2-1.6.3-2.3.1-.8.1-1.5.1-2.1s0-1.3-.1-2.1-.2-1.5-.3-2.3-.4-1.5-.6-2.3c-.3-.7-.6-1.4-1.1-2-.4-.6-1-1-1.6-1.4-.6-.2-1.2-.5-2.2-.5zM343.1 389.1h-1.2v-21l-4.2 3.6-.7-.9 5-4.1h1.1v22.4zM357.7 375.5c0 .3-.1.5-.3.8-.2.2-.4.3-.7.3-.3 0-.5-.1-.7-.3-.2-.2-.3-.5-.3-.8s.1-.5.3-.8c.2-.2.4-.3.7-.3.3 0 .5.1.7.3.1.3.3.5.3.8zm0 12.7c0 .3-.1.6-.3.8-.2.2-.4.3-.7.3-.3 0-.5-.1-.7-.3-.2-.2-.3-.5-.3-.8s.1-.5.3-.8c.2-.2.4-.3.7-.3.3 0 .5.1.7.3.1.3.3.5.3.8zM371.7 366.2c1.4 0 2.6.4 3.5 1.1.9.7 1.6 1.6 2.2 2.8.5 1.1.9 2.4 1.1 3.8s.3 2.7.3 4.1-.1 2.7-.3 4.1-.6 2.6-1.1 3.8c-.5 1.1-1.3 2-2.2 2.7s-2.1 1.1-3.5 1.1-2.6-.4-3.5-1.1c-.9-.7-1.6-1.6-2.2-2.7-.5-1.1-.9-2.4-1.1-3.8s-.3-2.7-.3-4.1c0-1.3.1-2.7.3-4.1.2-1.4.6-2.6 1.1-3.8.5-1.1 1.2-2 2.2-2.8s2.1-1.1 3.5-1.1zm0 1c-.9 0-1.6.2-2.2.5-.6.3-1.2.8-1.6 1.4-.4.6-.8 1.2-1.1 2s-.5 1.5-.6 2.3c-.1.8-.2 1.6-.3 2.3s-.1 1.5-.1 2.1 0 1.3.1 2.1.2 1.5.3 2.3c.1.8.4 1.5.6 2.3.3.7.6 1.4 1.1 2 .4.6 1 1 1.6 1.4.6.4 1.4.5 2.2.5.8 0 1.6-.2 2.2-.5.6-.3 1.2-.8 1.6-1.4.4-.6.8-1.2 1.1-2 .3-.8.5-1.5.6-2.3.1-.8.2-1.6.3-2.3.1-.8.1-1.5.1-2.1s0-1.3-.1-2.1-.2-1.5-.3-2.3-.4-1.5-.6-2.3c-.3-.7-.6-1.4-1.1-2-.4-.6-1-1-1.6-1.4-.6-.2-1.4-.5-2.2-.5zM393.5 377.2c1.5.5 2.7 1.2 3.4 2.3.7 1.1 1.1 2.3 1.1 3.7 0 1-.2 1.8-.5 2.6s-.8 1.5-1.5 2c-.6.6-1.3 1-2.2 1.3-.8.3-1.7.4-2.7.4s-1.8-.1-2.7-.4c-.8-.3-1.5-.7-2.2-1.3-.6-.6-1.1-1.2-1.4-2s-.5-1.7-.5-2.6c0-.7.1-1.3.3-2 .2-.6.5-1.2.9-1.8.4-.5.9-1 1.4-1.4s1.2-.7 2-.9v-.1c-1.2-.4-2.2-1.2-2.8-2.1-.6-1-.9-2-.9-3.1 0-.8.2-1.6.5-2.3.3-.7.7-1.3 1.3-1.8s1.2-.9 1.9-1.1c.7-.3 1.5-.4 2.3-.4s1.6.1 2.3.4 1.4.7 1.9 1.1c.5.5 1 1.1 1.3 1.8.3.7.5 1.5.5 2.3 0 .5-.1 1.1-.2 1.6s-.4 1-.7 1.5c-.3.5-.7.9-1.2 1.2-.6.5-1 .8-1.6 1.1zm-8 5.9c0 .8.1 1.5.4 2.1.3.7.6 1.2 1.1 1.7s1.1.9 1.8 1.2c.7.3 1.5.4 2.3.4s1.6-.1 2.3-.4c.7-.3 1.3-.7 1.8-1.2s.9-1.1 1.1-1.7c.3-.7.4-1.4.4-2.1 0-.8-.1-1.5-.4-2.2s-.7-1.2-1.2-1.7-1.1-.8-1.8-1.1c-.7-.3-1.4-.4-2.2-.4-.8 0-1.5.1-2.2.4s-1.3.6-1.8 1.1-.9 1-1.2 1.7c-.1.7-.4 1.3-.4 2.2zm1-11.2c0 .6.1 1.2.4 1.8.2.6.6 1.1 1 1.5.4.4.9.8 1.5 1 .6.3 1.2.4 1.9.4s1.3-.1 1.9-.4c.6-.3 1.1-.6 1.5-1 .4-.4.8-.9 1-1.5s.4-1.2.4-1.8c0-.7-.1-1.3-.4-1.9s-.6-1.1-1-1.5c-.4-.4-.9-.7-1.5-.9-.6-.2-1.2-.3-1.9-.3s-1.3.1-1.9.3c-.6.2-1.1.5-1.5.9-.4.4-.8.9-1 1.5s-.4 1.2-.4 1.9zM406.1 396.7h-1.2v-22.2h1.2v3.5h.1c.6-1.3 1.5-2.3 2.6-3 1.1-.7 2.3-1 3.6-1 1.1 0 2.1.2 3 .6.9.4 1.7.9 2.3 1.6s1.1 1.5 1.5 2.5c.4.9.5 2 .5 3.1s-.2 2.1-.5 3c-.4.9-.9 1.8-1.5 2.4-.6.6-1.4 1.2-2.3 1.6-.9.4-1.9.6-3 .6-.6 0-1.3-.1-1.9-.3-.6-.2-1.2-.4-1.8-.7-.5-.3-1-.7-1.5-1.2s-.8-1-1.1-1.7h-.1l.1 11.2zm12.4-14.9c0-.9-.1-1.8-.4-2.6-.3-.8-.7-1.5-1.3-2.2-.5-.6-1.2-1.1-2-1.5s-1.6-.6-2.6-.6c-.9 0-1.7.2-2.5.5-.8.4-1.4.8-2 1.5-.6.7-1 1.3-1.3 2.2-.3.9-.5 1.7-.5 2.6s.2 1.8.5 2.6.8 1.5 1.3 2.1 1.2 1.1 2 1.5 1.6.5 2.5.5c1 0 1.8-.2 2.6-.5.8-.4 1.4-.8 2-1.5.5-.6 1-1.3 1.3-2.1.4-.7.4-1.5.4-2.5zM426.5 378.1v-.8-1-1c0-.3 0-.6-.1-.8h1.1v3.3h.1c.4-1.2 1.1-2.1 2.1-2.8s2-1 3.1-1c1.3 0 2.4.4 3.2 1.1.8.7 1.3 1.7 1.7 3 .4-1.3 1.1-2.3 2.1-3s2.1-1 3.4-1c1 0 1.8.2 2.5.5s1.2.8 1.6 1.4c.4.6.7 1.3.9 2 .2.8.3 1.6.3 2.4v8.7h-1.2v-8.4c0-.7-.1-1.4-.2-2.1-.1-.7-.4-1.3-.7-1.8s-.8-1-1.3-1.3-1.2-.5-2-.5-1.5.2-2.1.5c-.6.3-1.2.8-1.6 1.4-.5.6-.8 1.3-1 2.1-.2.8-.4 1.7-.4 2.7v7.5h-1.2v-8.8c0-1.7-.3-3-1-4-.7-.9-1.7-1.4-3-1.4-.7 0-1.3.1-1.9.4-.6.3-1.2.7-1.6 1.3-.4.6-.8 1.3-1.1 2.2-.3.9-.4 1.9-.4 3v7.1h-1.2l-.1-10.9z"/><path class="st1" d="M466.9 388.1h12.6v1h-13.8v-22.4H479v1h-12.2v9.2h11.5v1h-11.4v10.2zM497.3 369.4c-.5-.7-1.3-1.3-2.1-1.7-.9-.4-1.8-.6-2.9-.6-.7 0-1.4.1-2.1.3-.7.2-1.3.5-1.9.9-.5.4-1 .9-1.3 1.5s-.5 1.3-.5 2.2c0 1.2.3 2.1.9 2.7.6.6 1.3 1.2 2.2 1.6s1.9.8 2.9 1.1 2 .7 2.9 1.2c.9.5 1.6 1.1 2.2 1.8.6.8.9 1.8.9 3.1 0 1-.2 1.9-.6 2.7-.4.8-.9 1.4-1.5 1.9s-1.4.9-2.2 1.2c-.8.3-1.7.4-2.6.4-1.4 0-2.7-.2-3.8-.7-1.2-.5-2.1-1.2-2.9-2.1l.8-.8c.8.8 1.7 1.5 2.7 1.9s2.1.7 3.2.7c.7 0 1.5-.1 2.2-.3.7-.2 1.3-.5 1.9-1 .5-.4 1-.9 1.3-1.6.3-.6.5-1.3.5-2.1 0-.9-.2-1.6-.5-2.2s-.8-1.1-1.4-1.5c-.6-.4-1.2-.7-1.9-1s-1.5-.6-2.2-.8c-.8-.3-1.5-.5-2.2-.9-.7-.3-1.4-.7-1.9-1.1-.6-.5-1-1-1.4-1.7-.3-.7-.5-1.5-.5-2.5s.2-1.8.6-2.6c.4-.8.9-1.4 1.6-1.9.6-.5 1.4-.9 2.2-1.1.8-.3 1.7-.4 2.6-.4 1.3 0 2.4.2 3.4.7s1.8 1.1 2.5 1.9l-1.1.8zM511.5 389.1h-1.2v-21.3h-7.6v-1h16.4v1h-7.6v21.3z"/></g></g><g class="st0"><path class="st2" d="M51.5 115.8h2.8l12.8 28.6 12.7-28.6h2.7v31.3h-1.6v-29.3h-.1l-13.1 29.3h-1.1l-13.1-29.3h-.1v29.3h-1.6v-31.3h-.3zM93.1 147.1h-1.6v-31.3h1.6v31.3zM100.1 147.1h-1.8l13.5-31.3h1.8l13.2 31.3H125l-3.6-8.8h-17.6l-3.7 8.8zm4.4-10.2h16.4l-8.1-19.6-8.3 19.6zM132.1 115.8h2.7l12.7 28.6 12.7-28.6h2.7v31.3h-1.6v-29.3h-.1l-13.1 29.3H147l-13.1-29.3h-.1v29.3h-1.6l-.1-31.3zM173.4 147.1h-1.6v-31.3h1.6v31.3zM224.4 131.5c0 2.4-.4 4.6-1.2 6.6s-1.9 3.8-3.4 5.2c-1.4 1.5-3.2 2.6-5.1 3.4-2 .8-4.1 1.2-6.4 1.2s-4.5-.4-6.5-1.2-3.7-2-5.1-3.4c-1.4-1.5-2.6-3.2-3.4-5.2-.8-2-1.2-4.2-1.2-6.6s.4-4.6 1.2-6.6 1.9-3.8 3.4-5.2c1.4-1.5 3.2-2.6 5.1-3.4 2-.8 4.1-1.2 6.5-1.2 2.3 0 4.5.4 6.4 1.2 2 .8 3.7 2 5.1 3.4 1.4 1.5 2.6 3.2 3.4 5.2s1.2 4.2 1.2 6.6zm-1.9 0c0-2.1-.3-4-1-5.8s-1.7-3.4-2.9-4.8c-1.3-1.4-2.8-2.4-4.6-3.2-1.8-.8-3.7-1.2-5.9-1.2s-4.2.4-5.9 1.2c-1.8.8-3.3 1.9-4.6 3.2-1.3 1.4-2.2 3-2.9 4.8s-1 3.8-1 5.8c0 2.1.3 4 1 5.8s1.6 3.4 2.9 4.8 2.8 2.4 4.6 3.2 3.8 1.2 5.9 1.2c2.2 0 4.2-.4 5.9-1.2 1.8-.8 3.3-1.9 4.6-3.2s2.2-2.9 2.9-4.8c.7-1.8 1-3.7 1-5.8zM231.7 115.8h8.6c1.3 0 2.5.1 3.7.4s2.2.7 3.2 1.4c.9.6 1.7 1.4 2.2 2.5.6 1 .8 2.3.8 3.7 0 1.4-.3 2.5-.8 3.6-.5 1-1.2 1.9-2 2.6-.9.7-1.9 1.2-3 1.6-1.2.4-2.4.5-3.8.5h-7.3v15.1h-1.6v-31.4zm1.7 14.8h7.3c1.1 0 2.1-.1 3-.4 1-.3 1.8-.7 2.5-1.2s1.3-1.2 1.7-2.1.6-1.9.6-3.1-.2-2.2-.7-3-1.1-1.5-1.8-2c-.8-.5-1.6-.9-2.6-1.1s-2-.4-3-.4h-7.1v13.3h.1zM255.1 147.1h-1.8l13.5-31.3h1.8l13.2 31.3H280l-3.6-8.8h-17.6l-3.7 8.8zm4.3-10.2h16.4l-8.1-19.6-8.3 19.6zM299.7 145.7h15.2v1.5H298v-31.3h1.6l.1 29.8zM351.1 131.5c0 2.4-.4 4.6-1.2 6.6-.8 2-1.9 3.8-3.4 5.2s-3.2 2.6-5.1 3.4c-2 .8-4.1 1.2-6.4 1.2s-4.5-.4-6.5-1.2-3.7-2-5.1-3.4c-1.4-1.5-2.6-3.2-3.4-5.2s-1.2-4.2-1.2-6.6.4-4.6 1.2-6.6c.8-2 1.9-3.8 3.4-5.2 1.4-1.5 3.2-2.6 5.1-3.4 2-.8 4.1-1.2 6.5-1.2 2.3 0 4.5.4 6.4 1.2 2 .8 3.7 2 5.1 3.4 1.4 1.5 2.6 3.2 3.4 5.2s1.2 4.2 1.2 6.6zm-1.8 0c0-2.1-.3-4-1-5.8s-1.7-3.4-2.9-4.8c-1.3-1.4-2.8-2.4-4.6-3.2-1.8-.8-3.7-1.2-5.9-1.2s-4.2.4-5.9 1.2c-1.8.8-3.3 1.9-4.6 3.2-1.3 1.4-2.2 3-2.9 4.8s-1 3.8-1 5.8c0 2.1.3 4 1 5.8s1.7 3.4 2.9 4.8c1.3 1.4 2.8 2.4 4.6 3.2s3.8 1.2 5.9 1.2c2.2 0 4.2-.4 5.9-1.2 1.7-.8 3.3-1.9 4.6-3.2 1.3-1.4 2.2-2.9 2.9-4.8.8-1.8 1-3.7 1-5.8zM384.4 143c-.6.8-1.3 1.5-2.2 2.1-.9.6-1.7 1.1-2.7 1.6s-2 .7-3.1 1c-1.1.2-2.2.3-3.4.3-2.4 0-4.5-.4-6.5-1.2s-3.7-2-5.1-3.4c-1.4-1.5-2.5-3.2-3.3-5.2s-1.2-4.2-1.2-6.6.4-4.6 1.2-6.6 1.9-3.8 3.3-5.2c1.4-1.4 3.1-2.6 5.1-3.4s4.1-1.2 6.5-1.2c2 0 4 .4 5.9 1.1 1.9.7 3.4 1.8 4.7 3.2l-1.2 1.1c-.5-.6-1.2-1.2-1.9-1.7s-1.5-.9-2.3-1.2-1.7-.6-2.5-.8c-.9-.2-1.8-.3-2.7-.3-2.2 0-4.1.4-5.9 1.2-1.8.8-3.3 1.9-4.5 3.2-1.3 1.4-2.2 3-2.9 4.8-.7 1.8-1 3.8-1 5.8 0 2.1.3 4 1 5.8s1.6 3.4 2.9 4.8 2.8 2.4 4.5 3.2c1.8.8 3.7 1.2 5.9 1.2 1.9 0 3.7-.4 5.6-1.1 1.9-.7 3.3-1.9 4.5-3.4l1.3.9zM392.1 130.1l15.5-14.3h2.4l-15.9 14.3 16.7 17h-2.4l-16.3-16.8v16.8h-1.5v-31.3h1.6v14.3h-.1zM414.3 147.1h-1.8l13.5-31.3h1.8l13.2 31.3h-1.7l-3.6-8.8h-17.6l-3.8 8.8zm4.2-10.2h16.4l-8.1-19.6-8.3 19.6z"/></g></svg>