<svg id="UI_Elements_1" xmlns="http://www.w3.org/2000/svg" viewBox="-77 -258 636 1128"><style>.st0{opacity:.75}.st1{opacity:.5;enable-background:new}.st1,.st2{fill:#f8f8f7}.st3{opacity:.5}</style><g class="st0"><path class="st1" d="M72.7 485.7l.1-24.5h1.4v26.4h-1.9l-17.9-24.5h-.1v24.5h-1.4v-26.4h1.9l17.9 24.5zM98.4 479c0 1.3-.2 2.5-.7 3.6-.4 1.1-1.1 2.1-1.9 2.9s-1.8 1.4-2.9 1.9-2.3.7-3.7.7c-1.3 0-2.5-.2-3.6-.7s-2.1-1.1-2.9-1.9-1.4-1.8-1.9-2.9c-.4-1.1-.7-2.3-.7-3.6s.2-2.5.7-3.6c.4-1.1 1.1-2.1 1.9-2.9s1.7-1.4 2.9-1.9c1.1-.4 2.3-.7 3.6-.7 1.3 0 2.6.2 3.7.7 1.1.4 2.1 1.1 2.9 1.9s1.4 1.8 1.9 2.9c.4 1.1.7 2.3.7 3.6zm-1.4 0c0-1.1-.2-2.1-.5-3.1-.4-1-.9-1.8-1.5-2.5-.7-.7-1.5-1.3-2.4-1.7s-2-.6-3.2-.6-2.3.2-3.2.6-1.7 1-2.4 1.7-1.2 1.6-1.5 2.5c-.3 1-.5 2-.5 3.1s.2 2.1.5 3.1.9 1.8 1.5 2.5c.7.7 1.5 1.3 2.4 1.7s2 .6 3.2.6 2.3-.2 3.2-.6c.9-.4 1.8-1 2.4-1.7.7-.7 1.2-1.6 1.5-2.5.3-1 .5-2 .5-3.1zM105.5 470.5c0 .2 0 .5.1.9v3.2h.1c.2-.7.6-1.3 1-1.9s1-1 1.5-1.4c.6-.4 1.2-.7 1.9-.9.7-.2 1.4-.3 2.1-.3 1.2 0 2.2.2 3 .6s1.5.9 2 1.6.9 1.4 1.1 2.3.4 1.8.4 2.7v10.5h-1.4v-10.1c0-.8-.1-1.5-.2-2.3-.2-.8-.4-1.5-.8-2.1s-.9-1.1-1.6-1.5-1.5-.6-2.5-.6c-.9 0-1.7.2-2.4.5-.8.3-1.4.9-2 1.5-.6.7-1 1.5-1.4 2.5-.3 1-.5 2.1-.5 3.4v8.7h-1.4v-13-.9-1.2c0-.4 0-.8-.1-1.1 0-.4-.1-.7-.1-.9h1.2v-.2zM134.5 473.3c-1-1.5-2.5-2.3-4.5-2.3-.4 0-.9.1-1.4.2s-.9.3-1.4.6c-.4.3-.7.6-1 1.1-.3.4-.4 1-.4 1.6 0 1 .4 1.8 1.1 2.3s1.9 1 3.5 1.4c.8.2 1.5.4 2.2.7.7.2 1.3.6 1.8.9.5.4.9.8 1.2 1.3s.4 1.2.4 1.9c0 .8-.2 1.6-.5 2.2s-.8 1.2-1.3 1.6-1.2.7-1.9 1c-.7.2-1.4.3-2.2.3-1.3 0-2.5-.2-3.6-.7s-2-1.2-2.7-2.3l1.1-.8c.6.8 1.3 1.5 2.2 1.9s1.9.7 3 .7c.5 0 1.1-.1 1.6-.2s1-.4 1.5-.7.8-.7 1-1.2c.3-.5.4-1 .4-1.7s-.2-1.3-.5-1.7c-.3-.4-.7-.8-1.2-1.1s-1.1-.5-1.7-.7c-.6-.2-1.3-.4-2-.5-1.5-.4-2.6-.9-3.4-1.6s-1.2-1.7-1.2-3c0-.8.2-1.4.5-2s.7-1.1 1.3-1.5c.5-.4 1.1-.7 1.8-.9.7-.2 1.3-.3 2-.3 1.2 0 2.3.2 3.2.7.9.4 1.7 1.1 2.2 2l-1.1.8zM148.5 471.5h-5v12c0 1.2.3 2 .8 2.5.6.5 1.3.7 2.1.7.7 0 1.4-.1 2-.4l.1 1.2c-.3.1-.7.2-1.1.3s-.8.1-1.2.1c-1.2 0-2.2-.3-2.9-1s-1.1-1.7-1.1-3.1v-12.3h-3.7v-1.1h3.7v-5h1.4v5h5l-.1 1.1zM169.7 479c0 1.3-.2 2.5-.7 3.6-.4 1.1-1.1 2.1-1.9 2.9-.8.8-1.8 1.4-2.9 1.9s-2.3.7-3.7.7c-1.3 0-2.5-.2-3.6-.7s-2.1-1.1-2.9-1.9c-.8-.8-1.4-1.8-1.9-2.9-.4-1.1-.7-2.3-.7-3.6s.2-2.5.7-3.6c.4-1.1 1.1-2.1 1.9-2.9.8-.8 1.7-1.4 2.9-1.9 1.1-.4 2.3-.7 3.6-.7s2.6.2 3.7.7c1.1.4 2.1 1.1 2.9 1.9.8.8 1.4 1.8 1.9 2.9s.7 2.3.7 3.6zm-1.4 0c0-1.1-.2-2.1-.5-3.1-.4-1-.9-1.8-1.5-2.5-.7-.7-1.5-1.3-2.4-1.7s-2-.6-3.2-.6-2.3.2-3.2.6-1.7 1-2.4 1.7-1.2 1.6-1.5 2.5c-.3 1-.5 2-.5 3.1s.2 2.1.5 3.1.9 1.8 1.5 2.5c.7.7 1.5 1.3 2.4 1.7s2 .6 3.2.6 2.3-.2 3.2-.6 1.8-1 2.4-1.7c.7-.7 1.2-1.6 1.5-2.5.4-1 .5-2 .5-3.1zM177 496.6h-1.4v-26.1h1.4v4.1h.1c.7-1.5 1.7-2.7 3.1-3.5 1.3-.8 2.7-1.2 4.3-1.2 1.3 0 2.5.2 3.6.7s2 1.1 2.8 1.9 1.3 1.8 1.8 2.9c.4 1.1.6 2.3.6 3.6s-.2 2.5-.6 3.6-1 2.1-1.8 2.9-1.7 1.5-2.8 1.9c-1.1.5-2.2.7-3.5.7-.7 0-1.5-.1-2.2-.3s-1.4-.5-2.1-.9c-.6-.4-1.2-.9-1.8-1.4-.5-.6-1-1.2-1.3-2h-.1v13.1h-.1zm14.8-17.6c0-1.1-.2-2.1-.5-3.1s-.8-1.8-1.5-2.5c-.6-.7-1.4-1.3-2.3-1.7s-1.9-.7-3.1-.7c-1.1 0-2.1.2-3 .6s-1.7 1-2.4 1.7-1.2 1.6-1.6 2.5-.6 2-.6 3.1.2 2.1.6 3.1.9 1.8 1.6 2.5 1.5 1.3 2.4 1.7 1.9.6 3 .6 2.2-.2 3.1-.6 1.7-1 2.3-1.7 1.1-1.6 1.5-2.5c.3-.8.5-1.9.5-3z"/><path class="st2" d="M234.6 474.1c.6-.6 1.4-1.1 2.3-1.5s1.9-.6 2.9-.6c1.1 0 2.1.2 3 .6s1.7 1 2.4 1.7 1.2 1.6 1.6 2.6.6 2.1.6 3.2-.2 2.2-.6 3.2-1 1.8-1.7 2.5-1.6 1.3-2.6 1.7-2.1.6-3.2.6c-1.2 0-2.2-.2-3.2-.6s-1.8-1-2.5-1.7-1.3-1.6-1.7-2.5-.6-2.1-.6-3.3c0-1.1.2-2.2.6-3.3s.9-2.3 1.7-3.7l7-11.9h1.6l-7.6 13zm-1.7 6c0 1 .2 1.9.5 2.7s.8 1.5 1.4 2.2c.6.6 1.3 1.1 2.1 1.4s1.7.5 2.7.5 1.9-.2 2.7-.5 1.5-.8 2.1-1.4 1.1-1.3 1.4-2.2c.3-.8.5-1.7.5-2.7s-.2-1.9-.5-2.8c-.3-.8-.8-1.6-1.3-2.2-.6-.6-1.3-1.1-2.1-1.4s-1.7-.5-2.6-.5-1.8.2-2.7.5c-.8.3-1.6.8-2.2 1.4-.6.6-1.1 1.4-1.5 2.2-.4.9-.5 1.8-.5 2.8z"/><path class="st1" d="M265.3 459.8h.8v7.1h9.8v-7.1h.8v15.4h-.9v-7.6H266v7.6h-.8l.1-15.4zM283.1 475.2h-.8v-15.4h4.3c.6 0 1.2.1 1.8.2.6.1 1.1.3 1.6.6s.8.7 1.1 1.2c.3.5.4 1.1.4 1.9 0 .7-.1 1.3-.4 1.7-.3.5-.6.9-1 1.2s-.9.5-1.4.7-1 .2-1.6.3l4.6 7.6h-1l-4.5-7.6h-3.3v7.6h.2zm0-8.3h3.4c1.4 0 2.4-.3 3.1-.8s1.1-1.3 1.1-2.4c0-.6-.1-1.1-.4-1.5-.2-.4-.6-.7-1-1-.4-.2-.9-.4-1.4-.5s-1.1-.2-1.7-.2h-3.3v6.4h.2zM304 461.7c-.4-.5-.9-.9-1.5-1.2s-1.3-.4-2-.4c-.5 0-1 .1-1.4.2s-.9.3-1.3.6-.7.6-.9 1c-.2.4-.3.9-.3 1.5 0 .8.2 1.4.6 1.9s.9.8 1.5 1.1 1.3.6 2 .8 1.4.5 2 .8 1.1.7 1.5 1.2.6 1.2.6 2.1c0 .7-.1 1.3-.4 1.8s-.6 1-1 1.3-1 .6-1.5.8c-.6.2-1.2.3-1.8.3-1 0-1.8-.2-2.6-.5s-1.5-.8-2-1.5l.5-.5c.6.6 1.2 1 1.8 1.3.7.3 1.4.5 2.2.5.5 0 1-.1 1.5-.2.5-.2.9-.4 1.3-.7s.7-.6.9-1.1.3-.9.3-1.5-.1-1.1-.4-1.5c-.2-.4-.6-.7-.9-1-.4-.3-.8-.5-1.3-.7l-1.5-.6-1.5-.6c-.5-.2-.9-.5-1.3-.8s-.7-.7-.9-1.2c-.2-.5-.4-1-.4-1.7s.1-1.3.4-1.8.6-.9 1.1-1.3 1-.6 1.5-.8c.6-.2 1.2-.3 1.8-.3.9 0 1.7.2 2.4.5s1.3.7 1.7 1.3l-.7.9z"/><path class="st2" d="M326.8 473.2h.9c.8 0 1.6-.1 2.4-.3.8-.2 1.5-.6 2.1-1 .6-.5 1.1-1.1 1.5-1.8.4-.7.6-1.6.6-2.6 0-.8-.1-1.6-.4-2.3-.3-.7-.7-1.3-1.2-1.8s-1.1-.9-1.8-1.1c-.7-.2-1.4-.4-2.2-.4-1.1 0-2.1.2-3.1.7-.9.5-1.7 1.2-2.3 2.1l-1-.7c.7-1.1 1.6-1.9 2.7-2.5s2.3-.9 3.8-.9c1 0 1.9.1 2.7.4.8.3 1.6.7 2.2 1.3.6.6 1.1 1.3 1.5 2.1.4.8.6 1.8.6 2.8 0 1.5-.4 2.9-1.3 4.1s-2.1 2-3.8 2.3v.1c2 .3 3.5 1.2 4.5 2.4s1.5 2.7 1.5 4.4c0 1-.2 2-.5 2.9s-.8 1.7-1.5 2.4-1.5 1.2-2.5 1.6-2.1.6-3.4.6c-1.8 0-3.3-.4-4.6-1.2-1.3-.8-2.3-1.9-3-3.3l1.2-.6c.5 1.2 1.4 2.1 2.5 2.8 1.2.7 2.4 1 3.9 1.1 1 0 1.9-.2 2.7-.5.8-.3 1.5-.8 2.1-1.3s1-1.2 1.3-2 .4-1.6.4-2.6c0-1.1-.2-2-.7-2.8s-1.1-1.4-1.8-1.9-1.5-.9-2.4-1.1-1.7-.3-2.5-.3h-.9v-1.1h-.2zM358.6 462.5h-11.1l-.2 9.6c.6-.3 1.3-.5 2.1-.7.8-.1 1.5-.2 2.1-.2 1.2 0 2.4.2 3.4.6s1.9 1 2.6 1.7 1.3 1.6 1.7 2.7.6 2.1.6 3.3c0 1.3-.2 2.6-.7 3.6-.4 1.1-1.1 2-1.8 2.7-.8.7-1.6 1.3-2.6 1.7s-2 .6-3.1.6c-1.8 0-3.2-.4-4.4-1.1-1.2-.7-2.1-1.7-2.9-2.8l1.2-.7c.6 1 1.4 1.9 2.5 2.5 1 .6 2.2.9 3.7.9.9 0 1.7-.2 2.6-.5.8-.3 1.6-.8 2.2-1.4s1.2-1.4 1.5-2.3.6-1.9.6-3.1c0-1-.2-2-.5-2.9s-.8-1.6-1.5-2.3c-.6-.6-1.4-1.1-2.3-1.5s-1.9-.5-3-.5c-.9 0-1.8.1-2.6.4-.9.2-1.7.6-2.4 1l.2-12.5H359v1.2h-.4z"/><path class="st1" d="M378 459.8h1.3l6.2 14.1 6.2-14.1h1.3v15.4h-.8v-14.4h-.1l-6.4 14.4h-.5l-6.4-14.4v14.4h-.8v-15.4zM399.4 475.2h-.8v-15.4h.8v15.4zM416.5 474.1v-14.3h.8v15.4h-1.1l-10.4-14.3v14.3h-.8v-15.4h1.1l10.4 14.3zM430.6 461.7c-.4-.5-.9-.9-1.5-1.2s-1.3-.4-2-.4c-.5 0-1 .1-1.4.2s-.9.3-1.3.6-.7.6-.9 1c-.2.4-.3.9-.3 1.5 0 .8.2 1.4.6 1.9s.9.8 1.5 1.1 1.3.6 2 .8 1.4.5 2 .8 1.1.7 1.5 1.2.6 1.2.6 2.1c0 .7-.1 1.3-.4 1.8s-.6 1-1 1.3-1 .6-1.5.8c-.6.2-1.2.3-1.8.3-1 0-1.8-.2-2.6-.5s-1.5-.8-2-1.5l.5-.5c.6.6 1.2 1 1.8 1.3.7.3 1.4.5 2.2.5.5 0 1-.1 1.5-.2.5-.2.9-.4 1.3-.7.4-.3.7-.6.9-1.1s.3-.9.3-1.5-.1-1.1-.4-1.5c-.2-.4-.6-.7-.9-1-.4-.3-.8-.5-1.3-.7l-1.5-.6-1.5-.6c-.5-.2-.9-.5-1.3-.8s-.7-.7-.9-1.2c-.2-.5-.4-1-.4-1.7s.1-1.3.4-1.8.6-.9 1.1-1.3 1-.6 1.5-.8c.6-.2 1.2-.3 1.8-.3.9 0 1.7.2 2.4.5s1.3.7 1.7 1.3l-.7.9z"/></g><path class="st2" d="M24.5 285.5c-1.6-2-3.6-3.6-6.1-4.8-2.5-1.1-5.2-1.7-8.3-1.7-2 0-4 .3-5.9.9-2 .6-3.7 1.4-5.3 2.6-1.6 1.1-2.8 2.6-3.8 4.3-1 1.7-1.4 3.8-1.4 6.1 0 3.3.9 5.9 2.6 7.8 1.7 1.9 3.8 3.5 6.4 4.7s5.3 2.3 8.3 3.2 5.7 2 8.3 3.3 4.7 3.1 6.4 5.2c1.7 2.1 2.6 5 2.6 8.7 0 2.9-.5 5.4-1.6 7.6s-2.5 4-4.3 5.5c-1.8 1.4-4 2.5-6.4 3.3s-4.9 1.1-7.5 1.1c-4 0-7.6-.7-10.9-2-3.3-1.4-6-3.4-8.3-6.1l2.3-2.3c2.3 2.4 4.9 4.2 7.7 5.5s5.9 1.9 9.2 1.9c2.1 0 4.2-.3 6.1-1 2-.6 3.8-1.6 5.3-2.8s2.8-2.7 3.7-4.5 1.4-3.8 1.4-6.1c0-2.5-.5-4.5-1.5-6.2-1-1.6-2.3-3-3.9-4.2-1.6-1.1-3.5-2.1-5.5-2.9-2.1-.8-4.3-1.6-6.3-2.4-2.2-.8-4.3-1.6-6.3-2.4-2-.9-3.9-2-5.5-3.3s-2.9-2.9-3.9-4.8-1.5-4.2-1.5-7 .6-5.2 1.7-7.4c1.1-2.1 2.6-3.9 4.4-5.3s4-2.5 6.4-3.2c2.4-.7 4.9-1.1 7.4-1.1 3.6 0 6.9.6 9.8 1.9 2.9 1.3 5.3 3.1 7 5.4l-2.8 2.5zM51.5 341.7h-3.3v-63.9h37.1v3H51.6v26.3H83v3H51.6l-.1 31.6zM166.3 309.7c0 4.9-.8 9.4-2.5 13.5s-4 7.7-6.9 10.7c-3 3-6.5 5.3-10.5 7s-8.4 2.5-13.1 2.5c-4.8 0-9.2-.8-13.2-2.5s-7.5-4-10.5-7-5.3-6.5-6.9-10.7c-1.7-4.1-2.5-8.6-2.5-13.5s.8-9.4 2.5-13.5 4-7.7 6.9-10.7c3-3 6.5-5.3 10.5-7 4-1.7 8.4-2.5 13.2-2.5 4.8 0 9.1.8 13.2 2.5 4 1.7 7.5 4 10.4 7 3 3 5.3 6.5 6.9 10.7 1.7 4.1 2.5 8.6 2.5 13.5zm-3.5 0c0-4.2-.7-8.2-2.1-12-1.4-3.7-3.4-7-6-9.8-2.6-2.8-5.7-5-9.3-6.6-3.6-1.6-7.6-2.4-12-2.4-4.5 0-8.5.8-12.1 2.4-3.6 1.6-6.7 3.8-9.3 6.6-2.6 2.8-4.6 6-6 9.8-1.4 3.7-2.1 7.7-2.1 12 0 4.2.7 8.2 2.1 11.9 1.4 3.7 3.4 7 6 9.7 2.6 2.8 5.7 5 9.4 6.6 3.6 1.6 7.7 2.4 12.2 2.4s8.5-.8 12.1-2.4 6.7-3.8 9.3-6.6 4.6-6 6-9.7c1.1-3.7 1.8-7.6 1.8-11.9z"/><g><path class="st2" d="M357.8 341.7h-3.3v-60.9h-21.7v-3h46.8v3h-21.7l-.1 60.9zM394.7 277.6h17.6c2.6 0 5.1.3 7.5.9s4.6 1.5 6.5 2.8c1.9 1.3 3.4 2.9 4.6 5 1.1 2.1 1.7 4.6 1.7 7.7 0 2.8-.5 5.2-1.5 7.3-1 2.1-2.4 3.8-4.2 5.3-1.8 1.4-3.8 2.5-6.2 3.2-2.4.7-5 1.1-7.7 1.1h-14.9v30.9h-3.3v-64.2h-.1zm3.4 30.2h15c2.2 0 4.2-.3 6.2-.8s3.7-1.4 5.2-2.5 2.7-2.5 3.5-4.3c.9-1.7 1.3-3.8 1.3-6.3s-.5-4.5-1.4-6.2c-.9-1.7-2.2-3-3.7-4.1-1.5-1.1-3.3-1.8-5.3-2.3s-4.1-.7-6.2-.7h-14.6v27.2zM447.1 341.7h-3.7l27.7-64h3.7l26.9 64H498l-7.4-17.9h-36l-7.5 17.9zm8.7-20.9h33.5l-16.5-40.1-17 40.1z"/></g><g class="st3"><path class="st2" d="M273.1 300l-13.2.4-16.3-24.1h-6l10.3 24.5-13.6.4-2.7-2.9h-2.9l2.2 5.3-2.2 5.3h2.9l2.7-2.9 13.6.4-10.3 24.5h6l16.3-24.1 13.2.4c1.4 0 3.8-1.5 3.8-3.4v-.4c0-1.8-2.4-3.4-3.8-3.4z"/></g><g><g class="st0"><path class="st2" d="M-15 388.7h-1.2v-21l-4.2 3.6-.7-.9 5-4.1h1.1v22.4zM9.2 388.7H-3.9v-1.3l8.3-9.2c1-1.1 1.9-2.2 2.5-3.3.6-1 1-2.1 1-3.2 0-.7-.1-1.4-.4-2-.3-.6-.6-1.1-1-1.5s-.9-.7-1.5-1-1.2-.3-1.9-.3c-1.2 0-2.3.3-3.2 1s-1.5 1.6-1.9 2.9l-1.2-.3c.4-1.4 1.1-2.6 2.2-3.4s2.4-1.3 3.9-1.3c.9 0 1.7.1 2.4.4s1.4.7 1.9 1.2 1 1.1 1.3 1.8.4 1.5.4 2.3c0 .7-.1 1.4-.3 2s-.5 1.2-.8 1.8-.8 1.2-1.3 1.8-1.1 1.3-1.7 2l-7.6 8.5H9.1l.1 1.1zM19.3 375.1c0 .3-.1.5-.3.8-.2.3-.4.3-.7.3s-.5-.1-.7-.3c-.2-.2-.3-.5-.3-.8s.1-.5.3-.8c.2-.2.4-.3.7-.3s.5.1.7.3c.2.3.3.5.3.8zm0 12.7c0 .3-.1.6-.3.8-.2.2-.4.3-.7.3s-.5-.1-.7-.3c-.2-.2-.3-.5-.3-.8s.1-.5.3-.8c.2-.2.4-.3.7-.3s.5.1.7.3c.2.2.3.5.3.8zM34.7 388.7h-1.2v-21l-4.2 3.6-.7-.9 5-4.1h1.1v22.4zM52.8 365.9c1.4 0 2.6.4 3.5 1.1s1.6 1.6 2.2 2.8c.5 1.1.9 2.4 1.1 3.8.2 1.4.3 2.7.3 4.1s-.1 2.7-.3 4.1-.6 2.6-1.1 3.8c-.5 1.1-1.3 2-2.2 2.7s-2.1 1.1-3.5 1.1-2.6-.4-3.5-1.1-1.6-1.6-2.2-2.7c-.5-1.1-.9-2.4-1.1-3.8-.2-1.4-.3-2.7-.3-4.1 0-1.3.1-2.7.3-4.1s.6-2.6 1.1-3.8c.5-1.1 1.2-2 2.2-2.8s2.1-1.1 3.5-1.1zm0 1c-.9 0-1.6.2-2.2.5-.6.3-1.2.8-1.6 1.4-.4.6-.8 1.2-1.1 2s-.5 1.5-.6 2.3-.2 1.6-.3 2.3c-.1.8-.1 1.5-.1 2.1s0 1.3.1 2.1.2 1.5.3 2.3.4 1.5.6 2.3.6 1.4 1.1 2c.4.6 1 1 1.6 1.4.6.3 1.4.5 2.2.5.9 0 1.6-.2 2.2-.5s1.2-.8 1.6-1.4c.4-.6.8-1.2 1.1-2 .3-.7.5-1.5.6-2.3s.2-1.6.3-2.3c.1-.8.1-1.5.1-2.1s0-1.3-.1-2.1-.2-1.5-.3-2.3-.4-1.5-.6-2.3c-.3-.7-.6-1.4-1.1-2-.4-.6-1-1-1.6-1.4-.6-.3-1.3-.5-2.2-.5zM67.7 396.3h-1.2v-22.2h1.2v3.5h.1c.6-1.3 1.5-2.3 2.6-3s2.3-1 3.6-1c1.1 0 2.1.2 3 .6s1.7.9 2.3 1.6 1.1 1.5 1.5 2.5c.4.9.5 2 .5 3.1s-.2 2.1-.5 3c-.4.9-.9 1.8-1.5 2.4-.7.7-1.4 1.2-2.3 1.6s-1.9.6-3 .6c-.6 0-1.3-.1-1.9-.3s-1.2-.4-1.8-.7c-.5-.3-1-.7-1.5-1.2s-.8-1-1.1-1.7h-.1l.1 11.2zm12.5-14.9c0-.9-.1-1.8-.4-2.6s-.7-1.5-1.3-2.2c-.5-.6-1.2-1.1-2-1.5s-1.6-.6-2.6-.6c-.9 0-1.7.2-2.5.5s-1.4.8-2 1.5c-.6.6-1 1.3-1.3 2.2-.3.8-.5 1.7-.5 2.6s.2 1.8.5 2.6.8 1.5 1.3 2.1c.6.6 1.2 1.1 2 1.5s1.6.5 2.5.5c1 0 1.8-.2 2.6-.5.8-.4 1.4-.8 2-1.5.5-.6 1-1.3 1.3-2.1s.4-1.5.4-2.5zM88.1 377.7v-.8-1-1c0-.3 0-.6-.1-.8h1.1v3.3h.1c.4-1.2 1.1-2.1 2.1-2.8s2-1 3.1-1c1.3 0 2.4.4 3.2 1.1s1.4 1.7 1.7 3c.4-1.3 1.1-2.3 2.1-3s2.1-1 3.4-1c1 0 1.8.2 2.5.5s1.2.8 1.6 1.4.7 1.3.9 2c.2.8.3 1.6.3 2.4v8.7h-1.2v-8.4c0-.7-.1-1.4-.2-2.1s-.4-1.3-.7-1.8c-.3-.5-.8-1-1.3-1.3s-1.2-.5-2-.5-1.5.2-2.1.5-1.2.8-1.6 1.4-.8 1.3-1 2.1-.4 1.7-.4 2.7v7.5h-1.2V380c0-1.7-.3-3-1-4-.7-.9-1.7-1.4-3-1.4-.7 0-1.3.1-1.9.4s-1.2.7-1.6 1.3c-.5.6-.8 1.3-1.1 2.2-.3.9-.4 1.9-.4 3v7.1h-1.2l-.1-10.9z"/><path class="st1" d="M127.3 366.3h6.2c.9 0 1.8.1 2.6.3.9.2 1.6.5 2.3 1 .7.4 1.2 1 1.6 1.8s.6 1.6.6 2.7c0 1-.2 1.8-.5 2.6-.4.7-.8 1.3-1.5 1.8s-1.3.9-2.2 1.1-1.7.4-2.7.4h-5.2v10.8h-1.2v-22.5zm1.2 10.6h5.2c.8 0 1.5-.1 2.2-.3s1.3-.5 1.8-.9.9-.9 1.2-1.5.5-1.3.5-2.2-.2-1.6-.5-2.2-.8-1.1-1.3-1.4c-.5-.4-1.2-.6-1.9-.8-.7-.2-1.4-.3-2.2-.3h-5.1l.1 9.6zM158.3 369c-.5-.7-1.3-1.3-2.1-1.7-.9-.4-1.8-.6-2.9-.6-.7 0-1.4.1-2.1.3s-1.3.5-1.9.9c-.5.4-1 .9-1.3 1.5s-.5 1.3-.5 2.2c0 1.2.3 2.1.9 2.7.6.7 1.3 1.2 2.2 1.6s1.9.8 2.9 1.1 2 .7 2.9 1.2 1.6 1.1 2.2 1.8c.6.8.9 1.8.9 3.1 0 1-.2 1.9-.6 2.7s-.9 1.4-1.5 1.9-1.4.9-2.2 1.2c-.8.3-1.7.4-2.6.4-1.4 0-2.7-.2-3.8-.7-1.2-.5-2.1-1.2-2.9-2.1l.8-.8c.8.8 1.7 1.5 2.7 1.9s2.1.7 3.2.7c.7 0 1.5-.1 2.2-.3s1.3-.5 1.9-1c.5-.4 1-.9 1.3-1.6.3-.6.5-1.3.5-2.1 0-.9-.2-1.6-.5-2.2s-.8-1.1-1.4-1.5-1.2-.7-1.9-1-1.5-.6-2.2-.8c-.8-.3-1.5-.5-2.2-.9-.7-.3-1.4-.7-1.9-1.1-.6-.5-1-1-1.4-1.7-.3-.7-.5-1.5-.5-2.5s.2-1.8.6-2.6.9-1.4 1.6-1.9c.6-.5 1.4-.9 2.2-1.1.8-.3 1.7-.4 2.6-.4 1.3 0 2.4.2 3.4.7s1.8 1.1 2.5 1.9l-1.1.8zM172.7 388.7h-1.2v-21.3h-7.6v-1h16.4v1h-7.6v21.3z"/></g><g class="st0"><path class="st2" d="M323.9 365.9c1.4 0 2.6.4 3.5 1.1s1.6 1.6 2.2 2.8c.5 1.1.9 2.4 1.1 3.8s.3 2.7.3 4.1-.1 2.7-.3 4.1c-.2 1.4-.6 2.6-1.1 3.8-.5 1.1-1.3 2-2.2 2.7s-2.1 1.1-3.5 1.1-2.6-.4-3.5-1.1-1.6-1.6-2.2-2.7c-.5-1.1-.9-2.4-1.1-3.8s-.3-2.7-.3-4.1c0-1.3.1-2.7.3-4.1.2-1.4.6-2.6 1.1-3.8.5-1.1 1.2-2 2.2-2.8s2-1.1 3.5-1.1zm0 1c-.9 0-1.6.2-2.2.5s-1.2.8-1.6 1.4-.8 1.2-1.1 2c-.3.8-.5 1.5-.6 2.3s-.2 1.6-.3 2.3c-.1.8-.1 1.5-.1 2.1s0 1.3.1 2.1.2 1.5.3 2.3c.1.8.4 1.5.6 2.3.3.7.6 1.4 1.1 2 .4.6 1 1 1.6 1.4.6.3 1.4.5 2.2.5.9 0 1.6-.2 2.2-.5s1.2-.8 1.6-1.4.8-1.2 1.1-2c.3-.7.5-1.5.6-2.3s.2-1.6.3-2.3c.1-.8.1-1.5.1-2.1s0-1.3-.1-2.1-.2-1.5-.3-2.3c-.1-.8-.4-1.5-.6-2.3-.3-.7-.6-1.4-1.1-2-.4-.6-1-1-1.6-1.4-.6-.3-1.4-.5-2.2-.5zM347.5 377.7c-.5.5-1.2.9-2 1.3s-1.6.5-2.5.5-1.8-.2-2.6-.5-1.5-.8-2.1-1.4-1-1.3-1.4-2.1c-.3-.8-.5-1.7-.5-2.7s.2-1.9.5-2.7.8-1.6 1.4-2.2 1.3-1.1 2.2-1.4c.8-.3 1.8-.5 2.8-.5s1.9.2 2.7.5c.8.3 1.6.8 2.2 1.4s1.1 1.3 1.4 2.2c.3.8.5 1.8.5 2.8s-.2 1.9-.5 2.8-.8 1.9-1.5 3l-6 10.2h-1.4l6.8-11.2zm1.6-5c0-.8-.1-1.6-.4-2.3s-.7-1.3-1.2-1.8-1.1-.9-1.8-1.2-1.4-.4-2.3-.4c-.8 0-1.6.1-2.3.4-.7.3-1.3.7-1.8 1.2s-.9 1.1-1.2 1.8-.4 1.5-.4 2.3.1 1.6.4 2.3c.3.7.7 1.3 1.1 1.8s1.1.9 1.7 1.2c.7.3 1.4.4 2.2.4s1.6-.1 2.3-.4c.7-.3 1.3-.7 1.8-1.2s.9-1.1 1.2-1.8c.3-.7.7-1.5.7-2.3zM359.5 375.1c0 .3-.1.5-.3.8-.2.2-.4.3-.7.3s-.5-.1-.7-.3c-.2-.2-.3-.5-.3-.8s.1-.5.3-.8c.2-.2.4-.3.7-.3s.5.1.7.3c.2.3.3.5.3.8zm0 12.7c0 .3-.1.6-.3.8-.2.2-.4.3-.7.3s-.5-.1-.7-.3c-.2-.2-.3-.5-.3-.8s.1-.5.3-.8c.2-.2.4-.3.7-.3s.5.1.7.3c.2.3.3.5.3.8zM377.5 382h3.6v1h-3.6v5.7h-1.2V383h-10.4v-1.3l9.9-15.5h1.7V382zm-1.2-14.3l-9.2 14.3h9.2v-14.3zM398.5 367.4H389l-.2 8.1c.5-.3 1.1-.4 1.8-.6.6-.1 1.2-.2 1.8-.2 1.1 0 2 .2 2.9.5s1.6.8 2.2 1.5c.6.6 1.1 1.4 1.4 2.3s.5 1.8.5 2.8c0 1.1-.2 2.2-.6 3.1s-.9 1.7-1.5 2.3-1.4 1.1-2.2 1.4c-.8.3-1.7.5-2.7.5-1.5 0-2.8-.3-3.8-.9s-1.8-1.4-2.5-2.4l1-.6c.5.9 1.2 1.6 2.1 2.1s1.9.8 3.1.8c.7 0 1.5-.1 2.2-.4s1.3-.7 1.9-1.2c.5-.5 1-1.2 1.3-1.9.3-.8.5-1.7.5-2.6s-.1-1.7-.4-2.5c-.3-.7-.7-1.4-1.2-1.9s-1.2-1-2-1.3-1.6-.5-2.6-.5c-.8 0-1.5.1-2.2.3-.7.2-1.4.5-2.1.8l.2-10.6h10.6v1.1zM407.8 396.3h-1.2v-22.2h1.2v3.5h.1c.6-1.3 1.5-2.3 2.6-3s2.3-1 3.6-1c1.1 0 2.1.2 3 .6s1.7.9 2.3 1.6 1.1 1.5 1.5 2.5c.4.9.5 2 .5 3.1s-.2 2.1-.5 3c-.4.9-.9 1.8-1.5 2.4s-1.4 1.2-2.3 1.6-1.9.6-3 .6c-.6 0-1.3-.1-1.9-.3-.6-.2-1.2-.4-1.8-.7-.5-.3-1-.7-1.5-1.2s-.8-1-1.1-1.7h-.1l.1 11.2zm12.6-14.9c0-.9-.1-1.8-.4-2.6s-.7-1.5-1.3-2.2c-.5-.6-1.2-1.1-2-1.5s-1.6-.6-2.6-.6c-.9 0-1.7.2-2.5.5-.8.4-1.4.8-2 1.5s-1 1.3-1.3 2.2-.5 1.7-.5 2.6.2 1.8.5 2.6.8 1.5 1.3 2.1 1.2 1.1 2 1.5 1.6.5 2.5.5c1 0 1.8-.2 2.6-.5.8-.4 1.4-.8 2-1.5.5-.6 1-1.3 1.3-2.1.2-.7.4-1.5.4-2.5zM428.2 377.7v-.8-1-1c0-.3 0-.6-.1-.8h1.1v3.3h.1c.4-1.2 1.1-2.1 2.1-2.8s2-1 3.1-1c1.3 0 2.4.4 3.2 1.1s1.3 1.7 1.7 3c.4-1.3 1.1-2.3 2.1-3s2.1-1 3.4-1c1 0 1.8.2 2.5.5s1.2.8 1.6 1.4.7 1.3.9 2c.2.8.3 1.6.3 2.4v8.7H449v-8.4c0-.7-.1-1.4-.2-2.1s-.4-1.3-.7-1.8c-.3-.5-.8-1-1.3-1.3s-1.2-.5-2-.5-1.5.2-2.1.5-1.2.8-1.6 1.4c-.5.6-.8 1.3-1 2.1-.2.8-.4 1.7-.4 2.7v7.5h-1.2V380c0-1.7-.3-3-1-4-.7-.9-1.7-1.4-3-1.4-.7 0-1.3.1-1.9.4s-1.2.7-1.6 1.3-.8 1.3-1.1 2.2-.4 1.9-.4 3v7.1h-1.2l-.1-10.9z"/><path class="st1" d="M468.6 387.7h12.6v1h-13.8v-22.4h13.3v1h-12.2v9.2H480v1h-11.4v10.2zM499 369c-.5-.7-1.3-1.3-2.1-1.7-.9-.4-1.8-.6-2.9-.6-.7 0-1.4.1-2.1.3-.7.2-1.3.5-1.9.9-.5.4-1 .9-1.3 1.5s-.5 1.3-.5 2.2c0 1.2.3 2.1.9 2.7s1.3 1.2 2.2 1.6 1.9.8 2.9 1.1 2 .7 2.9 1.2 1.6 1.1 2.2 1.8c.6.8.9 1.8.9 3.1 0 1-.2 1.9-.6 2.7s-.9 1.4-1.5 1.9-1.4.9-2.2 1.2c-.8.3-1.7.4-2.6.4-1.4 0-2.7-.2-3.8-.7-1.2-.5-2.1-1.2-2.9-2.1l.8-.8c.8.8 1.7 1.5 2.7 1.9s2.1.7 3.2.7c.7 0 1.5-.1 2.2-.3.7-.2 1.3-.5 1.9-1 .5-.4 1-.9 1.3-1.6.3-.6.5-1.3.5-2.1 0-.9-.2-1.6-.5-2.2s-.8-1.1-1.4-1.5-1.2-.7-1.9-1c-.7-.3-1.5-.6-2.2-.8-.8-.3-1.5-.5-2.2-.9-.7-.3-1.4-.7-1.9-1.1-.6-.5-1-1-1.4-1.7-.3-.7-.5-1.5-.5-2.5s.2-1.8.6-2.6c.4-.8.9-1.4 1.6-1.9.6-.5 1.4-.9 2.2-1.1.8-.3 1.7-.4 2.6-.4 1.3 0 2.4.2 3.4.7s1.8 1.1 2.5 1.9l-1.1.8zM513.4 388.7h-1.2v-21.3h-7.6v-1H521v1h-7.6v21.3z"/></g></g><g class="st0"><path class="st2" d="M184.5 146.7h-1.6v-29.8h-10.6v-1.5h22.9v1.5h-10.6l-.1 29.8zM198.3 146.7h-1.8l13.5-31.3h1.8l13.2 31.3h-1.8l-3.6-8.8H202l-3.7 8.8zm4.3-10.2H219l-8.1-19.6-8.3 19.6zM230.2 115.4h2.7l12.7 28.6 12.7-28.6h2.7v31.3h-1.6v-29.3h-.1l-13.1 29.3h-1.1L232 117.4h-.1v29.3h-1.6l-.1-31.3zM270 115.4h8.6c1.3 0 2.5.1 3.7.4s2.2.7 3.2 1.4c.9.6 1.7 1.4 2.2 2.5.6 1 .8 2.3.8 3.7 0 1.4-.3 2.5-.8 3.6-.5 1-1.2 1.9-2 2.6-.9.7-1.9 1.2-3 1.6-1.2.4-2.4.5-3.8.5h-7.3v15.1H270v-31.4zm1.7 14.8h7.3c1.1 0 2.1-.1 3-.4 1-.3 1.8-.7 2.5-1.2s1.3-1.2 1.7-2.1c.4-.9.6-1.9.6-3.1s-.2-2.2-.7-3-1.1-1.5-1.8-2c-.8-.5-1.6-.9-2.6-1.1s-2-.4-3-.4h-7.1v13.3h.1zM293.4 146.7h-1.8l13.5-31.3h1.8l13.2 31.3h-1.8l-3.6-8.8h-17.6l-3.7 8.8zm4.3-10.2h16.4l-8.1-19.6-8.3 19.6z"/></g></svg>