<svg id="Layer_1" xmlns="http://www.w3.org/2000/svg" viewBox="-199 -23.5 391.5 658.5"><style>.st0{fill:none;stroke:#fcfdfb;stroke-miterlimit:10}.st1{opacity:.75}.st2{fill:#FFF}.st3{opacity:.5;enable-background:new}.st3,.st4{fill:none;stroke:#FFF;stroke-miterlimit:10}.st4{opacity:.75}.st4,.st5{enable-background:new}.st5{opacity:.25;fill:#FFF}.st6{opacity:.5}.st7{opacity:.35}.st8{fill:none;stroke:#FFF;stroke-miterlimit:10;enable-background:new}.st8,.st9{opacity:.25}</style><path class="st0" d="M14.5 270.7c8.1 8.3 16.5 16.4 24.7 24.5M14.6 248.3C30.2 263.7 45.5 279.5 61 295M14.5 225.6c24.2 23.5 47.2 46.5 70 69.4M35.8 224.6c22.9 23.5 47.9 46.5 70.8 70.6M58.8 224.8c23.9 23.3 45.9 47.3 70.3 70.5M80.8 224.6c22.9 23.5 47.9 46.5 70.8 70.6M103.8 224.8c23.9 23.3 45.9 47.3 70.3 70.5M125.8 224.6c20.7 21.7 44.7 41.7 64.8 64.3M148.8 224.8c14.2 13.8 27.9 28.1 41.8 42.3M170.8 224.6c6.5 6.7 13.1 13.3 19.8 19.8"/><path class="st1 st2" d="M64.9 633.9c-.6 0-1.1-.5-1.1-1.1V71.4H66v561.4c0 .6-.5 1.1-1.1 1.1z"/><circle class="st2" cx="64.9" cy="72.2" r="3.5"/><g class="st1"><path class="st2" d="M-144 9.6h-1.2V-1.2l-2.2 1.9-.8-.9 3.1-2.6h1.1V9.6zM-127.4 8.2c-.3.5-.8.9-1.4 1.2s-1.1.4-1.7.4-1.2-.1-1.7-.3c-.5-.2-1-.5-1.3-.9-.4-.4-.7-.8-.9-1.4-.2-.5-.3-1.1-.3-1.7s.1-1.2.3-1.7c.2-.5.5-1 .9-1.4s.8-.7 1.3-.9 1.1-.3 1.7-.3 1.2.1 1.7.4 1 .7 1.4 1.2v-6.4h1.2V9.6h-1.2V8.2zm-6.1-2.7c0 .5.1.9.2 1.3s.3.7.6 1 .6.5 1 .7.8.3 1.3.3.9-.1 1.3-.3.7-.4 1-.7c.3-.3.5-.6.7-1s.2-.8.2-1.3-.1-.9-.2-1.3c-.2-.4-.4-.8-.7-1-.3-.3-.6-.5-1-.7s-.8-.3-1.3-.3-.9.1-1.3.3-.7.4-1 .7-.5.6-.6 1c-.1.4-.2.9-.2 1.3zM-117.9 4.3c0-.7-.2-1.2-.6-1.6-.4-.3-.9-.5-1.6-.5-.5 0-.9.1-1.4.3-.4.2-.8.4-1.1.7l-.7-.8c.3-.3.8-.6 1.3-.8.6-.2 1.2-.3 1.9-.3.4 0 .9.1 1.2.2.4.1.7.3 1 .5s.5.6.7.9c.2.4.2.8.2 1.3v4.6c0 .3.1.6.1.9h-1.1c0-.2-.1-.4-.1-.6v-.7c-.4.5-.8.9-1.3 1.2-.5.2-1 .4-1.7.4-.3 0-.6 0-1-.1s-.6-.2-.9-.4c-.3-.2-.5-.5-.7-.8-.2-.3-.3-.7-.3-1.2 0-.6.2-1.1.5-1.5s.7-.6 1.3-.8c.5-.2 1.1-.3 1.8-.4.7-.1 1.4-.1 2.2-.1v-.4h.3zm-.4 1.2c-.5 0-1 0-1.5.1-.5 0-.9.1-1.3.2s-.7.3-1 .5-.4.5-.4.9c0 .3.1.5.2.7s.3.4.4.5.4.2.6.3.5.1.7.1c.4 0 .8-.1 1.1-.2.3-.1.6-.3.8-.6.2-.2.4-.5.5-.9.1-.3.2-.7.2-1v-.6h-.3zM-110.9 8.3l2.6-6.9h1.3l-4.1 10.3c-.2.6-.6 1.1-.9 1.5-.4.4-.9.6-1.6.6-.4 0-.7 0-1.1-.1l.1-1.1c.3.1.6.1.9.1.4 0 .7-.1 1-.4.3-.3.4-.6.6-1.1l.7-1.7-3.5-8.1h1.3l2.7 6.9z"/></g><g class="st1"><path class="st2" d="M113.4-1.6l-5 11.2H107l5.1-11.2h-6v-1.1h7.3v1.1zM127.5 8.2c-.3.5-.8.9-1.4 1.2s-1.1.4-1.7.4-1.2-.1-1.7-.3c-.5-.2-1-.5-1.3-.9-.4-.4-.7-.8-.9-1.4-.2-.5-.3-1.1-.3-1.7s.1-1.2.3-1.7c.2-.5.5-1 .9-1.4s.8-.7 1.3-.9 1.1-.3 1.7-.3 1.2.1 1.7.4 1 .7 1.4 1.2v-6.4h1.2V9.6h-1.2V8.2zm-6.1-2.7c0 .5.1.9.2 1.3s.3.7.6 1c.3.3.6.5 1 .7s.8.3 1.3.3.9-.1 1.3-.3.7-.4 1-.7c.3-.3.5-.6.7-1s.2-.8.2-1.3-.1-.9-.2-1.3c-.2-.4-.4-.8-.7-1-.3-.3-.6-.5-1-.7s-.8-.3-1.3-.3-.9.1-1.3.3-.7.4-1 .7-.5.6-.6 1c-.1.4-.2.9-.2 1.3zM137 4.3c0-.7-.2-1.2-.6-1.6-.4-.3-.9-.5-1.6-.5-.5 0-.9.1-1.4.3-.4.2-.8.4-1.1.7l-.7-.8c.3-.3.8-.6 1.3-.8.6-.2 1.2-.3 1.9-.3.4 0 .9.1 1.2.2.4.1.7.3 1 .5s.5.6.7.9c.2.4.2.8.2 1.3v4.6c0 .3.1.6.1.9h-1.1c0-.2-.1-.4-.1-.6v-.7c-.4.5-.8.9-1.3 1.2-.5.2-1 .4-1.7.4-.3 0-.6 0-1-.1s-.6-.2-.9-.4c-.3-.2-.5-.5-.7-.8-.2-.3-.3-.7-.3-1.2 0-.6.2-1.1.5-1.5s.7-.6 1.3-.8c.5-.2 1.1-.3 1.8-.4.7-.1 1.4-.1 2.2-.1v-.4h.3zm-.3 1.2c-.5 0-1 0-1.5.1-.5 0-.9.1-1.3.2s-.7.3-1 .5-.4.5-.4.9c0 .3.1.5.2.7s.3.4.4.5.4.2.6.3.5.1.7.1c.4 0 .8-.1 1.1-.2.3-.1.6-.3.8-.6.2-.2.4-.5.5-.9.1-.3.2-.7.2-1v-.6h-.3zM144 8.3l2.6-6.9h1.3l-4.1 10.3c-.2.6-.6 1.1-.9 1.5-.4.4-.9.6-1.6.6-.4 0-.7 0-1.1-.1l.1-1.1c.3.1.6.1.9.1.4 0 .7-.1 1-.4.3-.3.4-.6.6-1.1l.7-1.7-3.5-8.1h1.3l2.7 6.9zM154 3.4c-.2-.3-.4-.6-.8-.8s-.8-.3-1.2-.3c-.2 0-.4 0-.6.1-.2 0-.4.1-.6.2-.2.1-.3.2-.4.4s-.1.4-.1.6c0 .4.2.7.5.9s.8.4 1.5.5c1 .2 1.7.5 2.1.9s.7.9.7 1.5c0 .5-.1.9-.3 1.2-.2.3-.4.6-.7.8-.3.2-.6.3-1 .4-.4.1-.7.1-1.1.1-.6 0-1.2-.1-1.8-.4-.6-.3-1.1-.7-1.4-1.2l.9-.7c.2.4.5.7.9.9.4.2.9.4 1.3.4.3 0 .5 0 .7-.1.2 0 .4-.1.6-.2.2-.1.3-.3.4-.4.1-.2.2-.4.2-.7 0-.4-.2-.8-.6-1s-1-.4-1.8-.6c-.2-.1-.5-.1-.8-.2-.3-.1-.5-.2-.8-.4l-.6-.6c-.2-.2-.2-.6-.2-1s.1-.8.2-1.1c.2-.3.4-.5.7-.7.3-.2.6-.3.9-.4.3-.1.7-.1 1.1-.1.6 0 1.1.1 1.7.4.6.3.9.6 1.2 1.1l-.8.5z"/></g><path class="st3" d="M-76.5 4.1h29.8"/><circle class="st4" cx="-36.4" cy="4.1" r="10.4"/><path class="st3" d="M-25.8 4.1H86"/><path class="st5" d="M192.5 626.1h-27.3v-66.8h-10.8v71.8h38.1z"/><g><path class="st0" d="M10.4 433.7c8.1 8.3 16.5 16.4 24.7 24.5M10.5 411.3c15.6 15.4 30.9 31.2 46.4 46.7M10.3 388.6c24.2 23.5 47.2 46.5 70 69.4M31.6 387.6c19.5 20 40 39.1 59.6 59.1M54.6 387.8c12.4 12.1 24.5 24.6 36.6 37M76.6 387.6c4.8 4.9 9.7 9.8 14.5 14.6"/></g><g><path class="st0" d="M113.3 505.5c8.1 8.3 16.5 16.4 24.7 24.5M113.4 483.1c15.6 15.4 30.9 31.2 46.4 46.7M113.3 460.5c24.2 23.5 47.2 46.5 70 69.4M134.6 459.4c18.4 18.9 37.7 37 56.3 55.7M157.6 459.6c11.3 11 22.3 22.3 33.3 33.6M179.6 459.4c3.7 3.8 7.4 7.6 11.2 11.3"/></g><g class="st6"><path class="st2" d="M-141.8 167.4h4v.8h-4.8v-8.5h.9l-.1 7.7zM-136.6 168.2h-.9l3.7-8.5h.8l3.6 8.5h-1l-.9-2.2h-4.4l-.9 2.2zm1.2-3h3.7l-1.9-4.5-1.8 4.5zM-127.3 168.2h-.9v-8.5h2.5c.4 0 .8 0 1.2.1.4.1.7.2.9.4.3.2.5.4.6.7s.2.6.2 1.1c0 .3-.1.6-.2.9-.1.3-.3.5-.5.7s-.4.3-.7.5c-.3.1-.6.2-.9.2l2.5 4h-1.1l-2.4-4h-1.4v3.9h.2zm0-4.7h1.5c.7 0 1.2-.1 1.6-.4.4-.3.6-.6.6-1.1 0-.3-.1-.5-.2-.7s-.2-.3-.4-.5c-.2-.1-.4-.2-.7-.3-.3-.1-.6-.1-.9-.1h-1.5v3.1zM-114.5 161.3c-.3-.3-.6-.6-1.1-.7-.4-.2-.9-.3-1.4-.3s-1 .1-1.5.3c-.4.2-.8.5-1.1.8-.3.3-.5.7-.7 1.2-.2.4-.2.9-.2 1.4s.1 1 .2 1.4c.2.4.4.8.7 1.2.3.3.7.6 1.1.8s.9.3 1.5.3c.5 0 .9-.1 1.3-.2s.7-.2 1-.4v-2.6h-2v-.8h2.8v3.8c-.5.3-1 .5-1.5.6s-1.1.2-1.7.2-1.2-.1-1.8-.3c-.5-.2-1-.5-1.4-.9s-.7-.9-.9-1.4-.3-1.1-.3-1.8.1-1.2.3-1.8c.2-.5.5-1 .9-1.4s.9-.7 1.4-.9 1.1-.3 1.8-.3 1.3.1 1.8.3.9.5 1.3.8l-.5.7zM-110.7 167.4h4.5v.8h-5.4v-8.5h5.3v.8h-4.4v2.9h4.1v.8h-4.1v3.2zM-101.7 166.5c.1.3.2.6.5.8.2.2.5.3.9.3.3 0 .5-.1.7-.2.2-.1.3-.3.5-.4.1-.2.2-.4.2-.6s.1-.5.1-.7v-6h.9v6c0 .3 0 .6-.1.9l-.3.9c-.2.3-.4.5-.7.7-.3.2-.7.3-1.1.3-.6 0-1.1-.2-1.5-.5s-.7-.7-.8-1.2l.7-.3zM-94.9 167.4h4.5v.8h-5.4v-8.5h5.3v.8h-4.4v2.9h4.1v.8h-4.1v3.2zM-85.9 168.2h-.9v-7.7h-2.8v-.8h6.6v.8h-2.8l-.1 7.7z"/></g><g class="st7"><path class="st2" d="M-173.8 242.9c-.1.2-.3.4-.5.6-.2.2-.4.4-.7.5-.3.1-.6.3-.9.3-.3.1-.7.1-1.1.1-.6 0-1.2-.1-1.8-.3-.5-.2-1-.5-1.4-.9s-.7-.9-.9-1.4-.3-1.1-.3-1.8.1-1.2.3-1.8c.2-.5.5-1 .9-1.4s.9-.7 1.4-.9 1.1-.3 1.8-.3c.3 0 .6 0 .9.1s.6.2.8.3c.3.1.5.3.7.4s.4.4.5.6l-.7.5c-.1-.1-.2-.3-.4-.4-.1-.1-.3-.3-.5-.4-.2-.1-.4-.2-.7-.3-.2-.1-.5-.1-.8-.1-.6 0-1 .1-1.5.3-.4.2-.8.5-1.1.8-.3.3-.5.7-.7 1.2-.2.4-.2.9-.2 1.4s.1 1 .2 1.4c.2.4.4.8.7 1.2.3.3.7.6 1.1.8s.9.3 1.5.3c.5 0 1-.1 1.4-.3s.8-.5 1.1-1l.9.5zM-172.3 235.8h.9v3.7h4.6v-3.7h.9v8.5h-.9v-4h-4.6v4h-.9v-8.5zM-163.8 244.3h-.9l3.7-8.5h.8l3.6 8.5h-1l-.9-2.2h-4.4l-.9 2.2zm1.3-3h3.7l-1.9-4.5-1.8 4.5zM-154.4 243.5h4v.8h-4.8v-8.5h.9l-.1 7.7zM-148.3 243.5h4v.8h-4.8v-8.5h.9l-.1 7.7zM-142.2 243.5h4.5v.8h-5.4v-8.5h5.3v.8h-4.4v2.9h4.1v.8h-4.1v3.2zM-129.9 243v-7.2h.9v8.5h-1.1l-4.9-7.3v7.3h-.9v-8.5h1.1l4.9 7.2zM-120.4 237.3c-.3-.3-.6-.6-1.1-.7-.4-.2-.9-.3-1.4-.3s-1 .1-1.5.3c-.4.2-.8.5-1.1.8-.3.3-.5.7-.7 1.2-.2.4-.2.9-.2 1.4s.1 1 .2 1.4c.2.4.4.8.7 1.2.3.3.7.6 1.1.8s.9.3 1.5.3c.5 0 .9-.1 1.3-.2s.7-.2 1-.4v-2.6h-2v-.8h2.8v3.8c-.5.3-1 .5-1.5.6s-1.1.2-1.7.2-1.2-.1-1.8-.3c-.5-.2-1-.5-1.4-.9s-.7-.9-.9-1.4-.3-1.1-.3-1.8.1-1.2.3-1.8c.2-.5.5-1 .9-1.4s.9-.7 1.4-.9 1.1-.3 1.8-.3 1.3.1 1.8.3.9.5 1.3.8l-.5.7zM-116.6 243.5h4.5v.8h-5.4v-8.5h5.3v.8h-4.4v2.9h4.1v.8h-4.1v3.2zM-109.5 244.3h-.9v-8.5h2.5c.4 0 .8 0 1.2.1.4.1.7.2.9.4.3.2.5.4.6.7s.2.6.2 1.1c0 .3-.1.6-.2.9-.1.3-.3.5-.5.7s-.4.3-.7.5c-.3.1-.6.2-.9.2l2.5 4h-1.1l-2.4-4h-1.4v3.9h.2zm0-4.7h1.5c.7 0 1.2-.1 1.6-.4.4-.3.6-.6.6-1.1 0-.3-.1-.5-.2-.7s-.2-.3-.4-.5c-.2-.1-.4-.2-.7-.3-.3-.1-.6-.1-.9-.1h-1.5v3.1zM-98.9 239.5c.2-.1.3-.1.6-.2.2-.1.5-.1.7-.1.4 0 .7.1 1 .2s.6.3.8.5c.2.2.4.5.5.8s.2.7.2 1.1c0 .4-.1.8-.2 1.1s-.3.6-.6.8c-.2.2-.5.4-.9.5-.3.1-.7.2-1.1.2s-.8-.1-1.1-.2c-.3-.1-.6-.3-.9-.5-.2-.2-.4-.5-.6-.8-.1-.3-.2-.7-.2-1.1 0-.4.1-.8.2-1.2.2-.4.3-.7.5-1.1l2.3-3.7h1l-2.2 3.7zm-.8 2.3c0 .3 0 .5.1.8.1.2.2.4.4.6s.4.3.6.4c.2.1.5.2.8.2s.5 0 .8-.2c.2-.1.4-.2.6-.4s.3-.4.4-.6c.1-.2.1-.5.1-.8s0-.5-.1-.8c-.1-.2-.2-.4-.4-.6-.2-.2-.4-.3-.6-.4-.2-.1-.5-.1-.8-.1s-.6 0-.8.1c-.2.1-.4.2-.6.4s-.3.4-.4.6c-.1.3-.1.6-.1.8zM-90.9 235.6c.5 0 1 .1 1.3.4.4.3.6.6.9 1 .2.4.4.9.5 1.4s.1 1.1.1 1.6c0 .6 0 1.1-.1 1.6s-.2 1-.5 1.4c-.2.4-.5.8-.9 1-.4.3-.8.4-1.3.4s-1-.1-1.3-.4c-.4-.3-.6-.6-.9-1s-.4-.9-.5-1.4-.1-1.1-.1-1.6c0-.6 0-1.1.1-1.6s.2-1 .5-1.4.5-.8.9-1c.4-.3.8-.4 1.3-.4zm0 .7c-.4 0-.7.1-.9.3-.2.2-.4.5-.6.9l-.3 1.2c-.1.4-.1.9-.1 1.3s0 .9.1 1.3l.3 1.2c.1.4.3.6.6.9.2.2.6.3.9.3.4 0 .7-.1.9-.3.2-.2.4-.5.6-.9l.3-1.2c.1-.4.1-.9.1-1.3s0-.9-.1-1.3l-.3-1.2c-.1-.4-.3-.7-.6-.9-.2-.2-.5-.3-.9-.3zM-83.1 244.3h-.9v-7.4l-1.5 1.3-.5-.6 2.2-1.8h.8l-.1 8.5z"/></g><g class="st7"><path class="st2" d="M-176 322.2c-.1.2-.3.4-.5.6s-.4.4-.7.5c-.3.1-.6.3-.9.3-.3.1-.7.1-1.1.1-.6 0-1.2-.1-1.8-.3-.5-.2-1-.5-1.4-.9s-.7-.9-.9-1.4-.3-1.1-.3-1.8.1-1.2.3-1.8c.2-.5.5-1 .9-1.4s.9-.7 1.4-.9 1.1-.3 1.8-.3c.3 0 .6 0 .9.1s.6.2.8.3c.3.1.5.3.7.4s.4.4.5.6l-.7.5c-.1-.1-.2-.3-.4-.4-.1-.1-.3-.3-.5-.4s-.4-.2-.7-.3c-.2-.1-.5-.1-.8-.1-.6 0-1 .1-1.5.3-.4.2-.8.5-1.1.8-.3.3-.5.7-.7 1.2-.2.4-.2.9-.2 1.4s.1 1 .2 1.4c.2.4.4.8.7 1.2.3.3.7.6 1.1.8.4.2.9.3 1.5.3.5 0 1-.1 1.4-.3.4-.2.8-.5 1.1-1l.9.5zM-174.5 315.1h.9v3.7h4.6v-3.7h.9v8.5h-.9v-4h-4.6v4h-.9v-8.5zM-166 323.6h-.9l3.7-8.5h.8l3.6 8.5h-1l-.9-2.2h-4.4l-.9 2.2zm1.3-3h3.7l-1.9-4.5-1.8 4.5zM-156.6 322.8h4v.8h-4.8v-8.5h.9l-.1 7.7zM-150.5 322.8h4v.8h-4.8v-8.5h.9l-.1 7.7zM-144.4 322.8h4.5v.8h-5.4v-8.5h5.3v.8h-4.4v2.9h4.1v.8h-4.1v3.2zM-132.1 322.3v-7.2h.9v8.5h-1.1l-4.9-7.3v7.3h-.9v-8.5h1.1l4.9 7.2zM-122.5 316.6c-.3-.3-.6-.6-1.1-.7-.4-.2-.9-.3-1.4-.3s-1 .1-1.5.3c-.4.2-.8.5-1.1.8-.3.3-.5.7-.7 1.2-.2.4-.2.9-.2 1.4s.1 1 .2 1.4c.2.4.4.8.7 1.2.3.3.7.6 1.1.8.4.2.9.3 1.5.3.5 0 .9-.1 1.3-.2s.7-.2 1-.4v-2.6h-2v-.8h2.8v3.8c-.5.3-1 .5-1.5.6s-1.1.2-1.7.2-1.2-.1-1.8-.3c-.5-.2-1-.5-1.4-.9s-.7-.9-.9-1.4-.3-1.1-.3-1.8.1-1.2.3-1.8c.2-.5.5-1 .9-1.4s.9-.7 1.4-.9 1.1-.3 1.8-.3 1.3.1 1.8.3.9.5 1.3.8l-.5.7zM-118.8 322.8h4.5v.8h-5.4v-8.5h5.3v.8h-4.4v2.9h4.1v.8h-4.1v3.2zM-111.7 323.6h-.9v-8.5h2.5c.4 0 .8 0 1.2.1.4.1.7.2.9.4.3.2.5.4.6.7s.2.6.2 1.1c0 .3-.1.6-.2.9s-.3.5-.5.7-.4.3-.7.5c-.3.1-.6.2-.9.2l2.5 4h-1.1l-2.4-4h-1.4v3.9h.2zm0-4.7h1.5c.7 0 1.2-.1 1.6-.4s.6-.6.6-1.1c0-.3-.1-.5-.2-.7s-.2-.3-.4-.5c-.2-.1-.4-.2-.7-.3-.3-.1-.6-.1-.9-.1h-1.5v3.1zM-101.1 318.8c.2-.1.3-.1.6-.2.2-.1.5-.1.7-.1.4 0 .7.1 1 .2s.6.3.8.5c.2.2.4.5.5.8s.2.7.2 1.1-.1.8-.2 1.1c-.1.3-.3.6-.6.8-.2.2-.5.4-.9.5-.3.1-.7.2-1.1.2s-.8-.1-1.1-.2c-.3-.1-.6-.3-.9-.5-.2-.2-.4-.5-.6-.8-.1-.3-.2-.7-.2-1.1s.1-.8.2-1.2c.2-.4.3-.7.5-1.1l2.3-3.7h1l-2.2 3.7zm-.8 2.3c0 .3 0 .5.1.8.1.2.2.4.4.6s.4.3.6.4.5.2.8.2.5 0 .8-.2c.2-.1.4-.2.6-.4s.3-.4.4-.6.1-.5.1-.8 0-.5-.1-.8c-.1-.2-.2-.4-.4-.6-.2-.2-.4-.3-.6-.4s-.5-.1-.8-.1-.6 0-.8.1c-.2.1-.4.2-.6.4-.2.2-.3.4-.4.6 0 .3-.1.5-.1.8zM-93 314.9c.5 0 1 .1 1.3.4.4.3.6.6.9 1 .2.4.4.9.5 1.4s.1 1.1.1 1.6c0 .6 0 1.1-.1 1.6s-.2 1-.5 1.4c-.2.4-.5.8-.9 1-.4.3-.8.4-1.3.4s-1-.1-1.3-.4c-.4-.3-.6-.6-.9-1s-.4-.9-.5-1.4-.1-1.1-.1-1.6c0-.6 0-1.1.1-1.6s.2-1 .5-1.4.5-.8.9-1c.3-.3.7-.4 1.3-.4zm0 .7c-.4 0-.7.1-.9.3-.2.2-.4.5-.6.9l-.3 1.2c-.1.4-.1.9-.1 1.3s0 .9.1 1.3l.3 1.2c.1.4.3.6.6.9.2.2.6.3.9.3.4 0 .7-.1.9-.3.2-.2.4-.5.6-.9l.3-1.2c.1-.4.1-.9.1-1.3s0-.9-.1-1.3l-.3-1.2c-.1-.4-.3-.7-.6-.9-.3-.2-.6-.3-.9-.3zM-84.3 320.8h1.2v.8h-1.2v2.1h-.8v-2.1H-89v-.8l3.6-5.6h1.1v5.6zm-.9-4.7l-3 4.7h3v-4.7z"/></g><g class="st7"><path class="st2" d="M-159.3 402.8h-.9v-8.5h5.1v.8h-4.3v2.9h4v.8h-4v4h.1zM-154.2 402.8h-.9l3.7-8.5h.8l3.6 8.5h-1l-.9-2.2h-4.4l-.9 2.2zm1.3-3h3.7l-1.9-4.5-1.8 4.5zM-144.8 402.1h4v.8h-4.8v-8.5h.9l-.1 7.7zM-132.8 401.5c-.1.2-.3.4-.5.6s-.4.4-.7.5c-.3.1-.6.3-.9.3-.3.1-.7.1-1.1.1-.6 0-1.2-.1-1.8-.3-.5-.2-1-.5-1.4-.9s-.7-.9-.9-1.4-.3-1.1-.3-1.8.1-1.2.3-1.8c.2-.5.5-1 .9-1.4s.9-.7 1.4-.9 1.1-.3 1.8-.3c.3 0 .6 0 .9.1s.6.2.8.3c.3.1.5.3.7.4s.4.4.5.6l-.7.5c-.1-.1-.2-.3-.4-.4-.1-.1-.3-.3-.5-.4s-.4-.2-.7-.3c-.2-.1-.5-.1-.8-.1-.6 0-1 .1-1.5.3-.4.2-.8.5-1.1.8-.3.3-.5.7-.7 1.2-.2.4-.2.9-.2 1.4s.1 1 .2 1.4c.2.4.4.8.7 1.2.3.3.7.6 1.1.8.4.2.9.3 1.5.3.5 0 1-.1 1.4-.3.4-.2.8-.5 1.1-1l.9.5zM-123 398.6c0 .6-.1 1.2-.3 1.8s-.5 1-.9 1.4-.9.7-1.4.9-1.1.3-1.8.3c-.6 0-1.2-.1-1.8-.3s-1-.5-1.4-.9-.7-.9-.9-1.4c-.2-.5-.3-1.1-.3-1.8s.1-1.2.3-1.8c.2-.5.5-1 .9-1.4s.9-.7 1.4-.9 1.1-.3 1.8-.3c.6 0 1.2.1 1.8.3s1 .5 1.4.9.7.9.9 1.4.3 1.2.3 1.8zm-1 0c0-.5-.1-1-.2-1.4s-.4-.8-.7-1.2c-.3-.3-.7-.6-1.1-.8-.4-.2-.9-.3-1.5-.3-.5 0-1 .1-1.5.3-.4.2-.8.5-1.1.8-.3.3-.5.7-.7 1.2-.2.4-.2.9-.2 1.4s.1 1 .2 1.4c.2.4.4.8.7 1.2.3.3.7.6 1.1.8.4.2.9.3 1.5.3.5 0 1-.1 1.5-.3.4-.2.8-.5 1.1-.8.3-.3.5-.7.7-1.2s.2-.9.2-1.4zM-115.2 401.6v-7.2h.9v8.5h-1.1l-4.9-7.3v7.3h-.9v-8.5h1.1l4.9 7.2zM-104.2 402.8h-5.4v-.9l3.5-3.5.4-.4c.1-.1.2-.3.3-.5.1-.2.2-.3.2-.5.1-.2.1-.4.1-.6s0-.5-.1-.7-.2-.4-.4-.5c-.2-.1-.3-.2-.5-.3-.2-.1-.4-.1-.6-.1-.5 0-.8.1-1.2.4s-.5.6-.6 1.1l-.9-.2c.1-.3.2-.6.3-.8s.3-.5.6-.7c.2-.2.5-.3.8-.4s.6-.2.9-.2.7 0 1 .2c.3.1.6.2.8.4.2.2.4.4.6.7.1.3.2.6.2 1 0 .3 0 .5-.1.8-.1.2-.2.5-.3.7s-.3.4-.4.6c-.2.2-.3.4-.5.6l-3.1 3h4.5v.8h-.1zM-99.8 394.1c.5 0 1 .1 1.3.4.4.3.6.6.9 1 .2.4.4.9.5 1.4s.1 1.1.1 1.6c0 .6 0 1.1-.1 1.6s-.2 1-.5 1.4c-.2.4-.5.8-.9 1-.4.3-.8.4-1.3.4s-1-.1-1.3-.4c-.4-.3-.6-.6-.9-1s-.4-.9-.5-1.4-.1-1.1-.1-1.6c0-.6 0-1.1.1-1.6s.2-1 .5-1.4.5-.8.9-1c.3-.2.8-.4 1.3-.4zm0 .8c-.4 0-.7.1-.9.3-.2.2-.4.5-.6.9l-.3 1.2c-.1.4-.1.9-.1 1.3s0 .9.1 1.3l.3 1.2c.1.4.3.6.6.9.2.2.6.3.9.3.4 0 .7-.1.9-.3.2-.2.4-.5.6-.9l.3-1.2c.1-.4.1-.9.1-1.3s0-.9-.1-1.3l-.3-1.2c-.1-.4-.3-.7-.6-.9-.2-.2-.5-.3-.9-.3zM-92.8 394.1c.5 0 1 .1 1.3.4.4.3.6.6.9 1 .2.4.4.9.5 1.4s.1 1.1.1 1.6c0 .6 0 1.1-.1 1.6s-.2 1-.5 1.4c-.2.4-.5.8-.9 1-.4.3-.8.4-1.3.4s-1-.1-1.3-.4c-.4-.3-.6-.6-.9-1s-.4-.9-.5-1.4-.1-1.1-.1-1.6c0-.6 0-1.1.1-1.6s.2-1 .5-1.4.5-.8.9-1c.3-.2.8-.4 1.3-.4zm0 .8c-.4 0-.7.1-.9.3-.2.2-.4.5-.6.9l-.3 1.2c-.1.4-.1.9-.1 1.3s0 .9.1 1.3l.3 1.2c.1.4.3.6.6.9.2.2.6.3.9.3.4 0 .7-.1.9-.3.2-.2.4-.5.6-.9l.3-1.2c.1-.4.1-.9.1-1.3s0-.9-.1-1.3l-.3-1.2c-.1-.4-.3-.7-.6-.9-.2-.2-.5-.3-.9-.3zM-85.9 394.1c.5 0 1 .1 1.3.4.4.3.6.6.9 1 .2.4.4.9.5 1.4s.1 1.1.1 1.6c0 .6 0 1.1-.1 1.6s-.2 1-.5 1.4c-.2.4-.5.8-.9 1-.4.3-.8.4-1.3.4s-1-.1-1.3-.4c-.4-.3-.6-.6-.9-1s-.4-.9-.5-1.4-.1-1.1-.1-1.6c0-.6 0-1.1.1-1.6s.2-1 .5-1.4.5-.8.9-1c.4-.2.8-.4 1.3-.4zm0 .8c-.4 0-.7.1-.9.3-.2.2-.4.5-.6.9l-.3 1.2c-.1.4-.1.9-.1 1.3s0 .9.1 1.3l.3 1.2c.1.4.3.6.6.9.2.2.6.3.9.3.4 0 .7-.1.9-.3.2-.2.4-.5.6-.9l.3-1.2c.1-.4.1-.9.1-1.3s0-.9-.1-1.3l-.3-1.2c-.1-.4-.3-.7-.6-.9-.2-.2-.5-.3-.9-.3z"/></g><g class="st7"><path class="st2" d="M-174.7 482.1h-.9v-8.5h5.1v.8h-4.3v2.9h4v.8h-4v4h.1zM-169.5 482.1h-.9l3.7-8.5h.8l3.6 8.5h-1l-.9-2.2h-4.4l-.9 2.2zm1.2-3h3.7l-1.9-4.5-1.8 4.5zM-160.2 481.4h4v.8h-4.8v-8.5h.9l-.1 7.7zM-148.2 480.7c-.1.2-.3.4-.5.6s-.4.4-.7.5c-.3.1-.6.3-.9.3-.3.1-.7.1-1.1.1-.6 0-1.2-.1-1.8-.3-.5-.2-1-.5-1.4-.9s-.7-.9-.9-1.4-.3-1.1-.3-1.8.1-1.2.3-1.8c.2-.5.5-1 .9-1.4s.9-.7 1.4-.9 1.1-.3 1.8-.3c.3 0 .6 0 .9.1s.6.2.8.3c.3.1.5.3.7.4s.4.4.5.6l-.7.5c-.1-.1-.2-.3-.4-.4-.1-.1-.3-.3-.5-.4s-.4-.2-.7-.3c-.2-.1-.5-.1-.8-.1-.6 0-1 .1-1.5.3-.4.2-.8.5-1.1.8-.3.3-.5.7-.7 1.2-.2.4-.2.9-.2 1.4s.1 1 .2 1.4c.2.4.4.8.7 1.2.3.3.7.6 1.1.8.4.2.9.3 1.5.3.5 0 1-.1 1.4-.3.4-.2.8-.5 1.1-1l.9.5zM-138.4 477.9c0 .6-.1 1.2-.3 1.8s-.5 1-.9 1.4-.9.7-1.4.9-1.1.3-1.8.3c-.6 0-1.2-.1-1.8-.3s-1-.5-1.4-.9-.7-.9-.9-1.4c-.2-.5-.3-1.1-.3-1.8s.1-1.2.3-1.8c.2-.5.5-1 .9-1.4s.9-.7 1.4-.9 1.1-.3 1.8-.3c.6 0 1.2.1 1.8.3s1 .5 1.4.9.7.9.9 1.4.3 1.1.3 1.8zm-.9 0c0-.5-.1-1-.2-1.4s-.4-.8-.7-1.2c-.3-.3-.7-.6-1.1-.8-.4-.2-.9-.3-1.5-.3-.5 0-1 .1-1.5.3-.4.2-.8.5-1.1.8-.3.3-.5.7-.7 1.2-.2.4-.2.9-.2 1.4s.1 1 .2 1.4c.2.4.4.8.7 1.2.3.3.7.6 1.1.8.4.2.9.3 1.5.3.5 0 1-.1 1.5-.3.4-.2.8-.5 1.1-.8.3-.3.5-.7.7-1.2s.2-.9.2-1.4zM-130.6 480.9v-7.2h.9v8.5h-1.1l-4.9-7.3v7.3h-.9v-8.5h1.1l4.9 7.2zM-119.5 482.1h-5.4v-.9l3.5-3.5.4-.4c.1-.1.2-.3.3-.5.1-.2.2-.3.2-.5.1-.2.1-.4.1-.6s0-.5-.1-.7-.2-.4-.4-.5c-.2-.1-.3-.2-.5-.3-.2-.1-.4-.1-.6-.1-.5 0-.8.1-1.2.4s-.5.6-.6 1.1l-.9-.2c.1-.3.2-.6.3-.8s.3-.5.6-.7c.2-.2.5-.3.8-.4s.6-.2.9-.2.7 0 1 .2c.3.1.6.2.8.4.2.2.4.4.6.7.1.3.2.6.2 1 0 .3 0 .5-.1.8-.1.2-.2.5-.3.7s-.3.4-.4.6c-.2.2-.3.4-.5.6l-3.1 3h4.5v.8h-.1zM-115.1 473.4c.5 0 1 .1 1.3.4.4.3.6.6.9 1 .2.4.4.9.5 1.4s.1 1.1.1 1.6c0 .6 0 1.1-.1 1.6s-.2 1-.5 1.4c-.2.4-.5.8-.9 1-.4.3-.8.4-1.3.4s-1-.1-1.3-.4c-.4-.3-.6-.6-.9-1s-.4-.9-.5-1.4-.1-1.1-.1-1.6c0-.6 0-1.1.1-1.6s.2-1 .5-1.4.5-.8.9-1c.3-.3.7-.4 1.3-.4zm0 .7c-.4 0-.7.1-.9.3-.2.2-.4.5-.6.9l-.3 1.2c-.1.4-.1.9-.1 1.3s0 .9.1 1.3l.3 1.2c.1.4.3.6.6.9.2.2.6.3.9.3.4 0 .7-.1.9-.3.2-.2.4-.5.6-.9l.3-1.2c.1-.4.1-.9.1-1.3s0-.9-.1-1.3l-.3-1.2c-.1-.4-.3-.7-.6-.9-.3-.1-.6-.3-.9-.3zM-108.2 473.4c.5 0 1 .1 1.3.4.4.3.6.6.9 1 .2.4.4.9.5 1.4s.1 1.1.1 1.6c0 .6 0 1.1-.1 1.6s-.2 1-.5 1.4c-.2.4-.5.8-.9 1-.4.3-.8.4-1.3.4s-1-.1-1.3-.4c-.4-.3-.6-.6-.9-1s-.4-.9-.5-1.4-.1-1.1-.1-1.6c0-.6 0-1.1.1-1.6s.2-1 .5-1.4.5-.8.9-1c.3-.3.8-.4 1.3-.4zm0 .7c-.4 0-.7.1-.9.3-.2.2-.4.5-.6.9l-.3 1.2c-.1.4-.1.9-.1 1.3s0 .9.1 1.3l.3 1.2c.1.4.3.6.6.9.2.2.6.3.9.3.4 0 .7-.1.9-.3.2-.2.4-.5.6-.9l.3-1.2c.1-.4.1-.9.1-1.3s0-.9-.1-1.3l-.3-1.2c-.1-.4-.3-.7-.6-.9-.2-.1-.5-.3-.9-.3zM-101.2 473.4c.5 0 1 .1 1.3.4.4.3.6.6.9 1 .2.4.4.9.5 1.4s.1 1.1.1 1.6c0 .6 0 1.1-.1 1.6s-.2 1-.5 1.4c-.2.4-.5.8-.9 1-.4.3-.8.4-1.3.4s-1-.1-1.3-.4c-.4-.3-.6-.6-.9-1s-.4-.9-.5-1.4-.1-1.1-.1-1.6c0-.6 0-1.1.1-1.6s.2-1 .5-1.4.5-.8.9-1c.3-.3.7-.4 1.3-.4zm0 .7c-.4 0-.7.1-.9.3-.2.2-.4.5-.6.9l-.3 1.2c-.1.4-.1.9-.1 1.3s0 .9.1 1.3l.3 1.2c.1.4.3.6.6.9.2.2.6.3.9.3.4 0 .7-.1.9-.3.2-.2.4-.5.6-.9l.3-1.2c.1-.4.1-.9.1-1.3s0-.9-.1-1.3l-.3-1.2c-.1-.4-.3-.7-.6-.9-.2-.1-.6-.3-.9-.3zM-95.7 481.4h4.5v.8h-5.4v-8.5h5.3v.8h-4.4v2.9h4.1v.8h-4.1v3.2zM-86.7 477.1l2.3-3.4h1l-2.8 4 3.1 4.5h-1.1l-2.6-3.8-2.6 3.8h-1.1l3.1-4.5-2.8-4h1.1l2.4 3.4z"/></g><g class="st7"><path class="st2" d="M-159.9 561.4h-.9v-8.5h5.1v.8h-4.3v2.9h4v.8h-4v4h.1zM-154.7 561.4h-.9l3.7-8.5h.8l3.6 8.5h-1l-.9-2.2h-4.4l-.9 2.2zm1.2-3h3.7l-1.9-4.5-1.8 4.5zM-145.4 560.6h4v.8h-4.8v-8.5h.9l-.1 7.7zM-133.3 560c-.1.2-.3.4-.5.6-.2.2-.4.4-.7.5-.3.1-.6.3-.9.3-.3.1-.7.1-1.1.1-.6 0-1.2-.1-1.8-.3-.5-.2-1-.5-1.4-.9s-.7-.9-.9-1.4-.3-1.1-.3-1.8.1-1.2.3-1.8c.2-.5.5-1 .9-1.4s.9-.7 1.4-.9 1.1-.3 1.8-.3c.3 0 .6 0 .9.1s.6.2.8.3c.3.1.5.3.7.4s.4.4.5.6l-.7.5c-.1-.1-.2-.3-.4-.4-.1-.1-.3-.3-.5-.4-.2-.1-.4-.2-.7-.3-.2-.1-.5-.1-.8-.1-.6 0-1 .1-1.5.3-.4.2-.8.5-1.1.8-.3.3-.5.7-.7 1.2-.2.4-.2.9-.2 1.4s.1 1 .2 1.4c.2.4.4.8.7 1.2.3.3.7.6 1.1.8s.9.3 1.5.3c.5 0 1-.1 1.4-.3s.8-.5 1.1-1l.9.5zM-123.6 557.1c0 .6-.1 1.2-.3 1.8s-.5 1-.9 1.4-.9.7-1.4.9-1.1.3-1.8.3c-.6 0-1.2-.1-1.8-.3s-1-.5-1.4-.9-.7-.9-.9-1.4c-.2-.5-.3-1.1-.3-1.8s.1-1.2.3-1.8c.2-.5.5-1 .9-1.4s.9-.7 1.4-.9 1.1-.3 1.8-.3c.6 0 1.2.1 1.8.3s1 .5 1.4.9.7.9.9 1.4.3 1.2.3 1.8zm-.9.1c0-.5-.1-1-.2-1.4s-.4-.8-.7-1.2c-.3-.3-.7-.6-1.1-.8s-.9-.3-1.5-.3c-.5 0-1 .1-1.5.3-.4.2-.8.5-1.1.8-.3.3-.5.7-.7 1.2-.2.4-.2.9-.2 1.4s.1 1 .2 1.4c.2.4.4.8.7 1.2.3.3.7.6 1.1.8s.9.3 1.5.3c.5 0 1-.1 1.5-.3.4-.2.8-.5 1.1-.8.3-.3.5-.7.7-1.2s.2-1 .2-1.4zM-115.8 560.1v-7.2h.9v8.5h-1.1l-4.9-7.3v7.3h-.9v-8.5h1.1l4.9 7.2zM-106.2 557.8c-.2.1-.3.1-.6.2s-.5.1-.7.1c-.4 0-.7-.1-1-.2-.3-.1-.6-.3-.8-.5-.2-.2-.4-.5-.5-.8s-.2-.7-.2-1.1c0-.4.1-.8.2-1.1s.3-.6.6-.8c.2-.2.5-.4.9-.5.3-.1.7-.2 1.1-.2s.8.1 1.1.2c.3.1.6.3.9.5.2.2.4.5.6.8.1.3.2.7.2 1.1 0 .4-.1.8-.2 1.2-.2.4-.3.7-.5 1.1l-2.3 3.7h-1l2.2-3.7zm.8-2.4c0-.3 0-.5-.1-.8-.1-.2-.2-.4-.4-.6s-.4-.3-.6-.4c-.2-.1-.5-.2-.8-.2s-.5.1-.8.2c-.2.1-.4.2-.6.4s-.3.4-.4.6c-.1.2-.1.5-.1.8s0 .5.1.8c.1.2.2.4.4.6.2.2.4.3.6.4.2.1.5.1.8.1s.5 0 .8-.1c.2-.1.4-.2.6-.4s.3-.4.4-.6c.1-.3.1-.6.1-.8zM-100.3 552.8c.5 0 1 .1 1.3.4.4.3.6.6.9 1 .2.4.4.9.5 1.4s.1 1.1.1 1.6c0 .6 0 1.1-.1 1.6s-.2 1-.5 1.4c-.2.4-.5.8-.9 1-.4.3-.8.4-1.3.4s-1-.1-1.3-.4c-.4-.3-.6-.6-.9-1s-.4-.9-.5-1.4-.1-1.1-.1-1.6c0-.6 0-1.1.1-1.6s.2-1 .5-1.4.5-.8.9-1c.3-.4.7-.4 1.3-.4zm0 .6c-.4 0-.7.1-.9.3-.2.2-.4.5-.6.9l-.3 1.2c-.1.4-.1.9-.1 1.3s0 .9.1 1.3l.3 1.2c.1.4.3.6.6.9.2.2.6.3.9.3.4 0 .7-.1.9-.3.2-.2.4-.5.6-.9l.3-1.2c.1-.4.1-.9.1-1.3s0-.9-.1-1.3l-.3-1.2c-.1-.4-.3-.7-.6-.9-.2-.2-.6-.3-.9-.3zM-93.4 552.8c.5 0 1 .1 1.3.4.4.3.6.6.9 1 .2.4.4.9.5 1.4s.1 1.1.1 1.6c0 .6 0 1.1-.1 1.6s-.2 1-.5 1.4c-.2.4-.5.8-.9 1-.4.3-.8.4-1.3.4s-1-.1-1.3-.4c-.4-.3-.6-.6-.9-1s-.4-.9-.5-1.4-.1-1.1-.1-1.6c0-.6 0-1.1.1-1.6s.2-1 .5-1.4.5-.8.9-1c.4-.4.8-.4 1.3-.4zm0 .6c-.4 0-.7.1-.9.3-.2.2-.4.5-.6.9l-.3 1.2c-.1.4-.1.9-.1 1.3s0 .9.1 1.3l.3 1.2c.1.4.3.6.6.9.2.2.6.3.9.3.4 0 .7-.1.9-.3.2-.2.4-.5.6-.9l.3-1.2c.1-.4.1-.9.1-1.3s0-.9-.1-1.3l-.3-1.2c-.1-.4-.3-.7-.6-.9-.2-.2-.5-.3-.9-.3zM-88.8 552.9h2.5c.3 0 .6 0 1 .1l.9.3c.3.2.5.4.6.7s.2.6.2 1.1c0 .4-.1.8-.4 1.2s-.6.6-1.1.7c.6.1 1 .3 1.4.6.4.4.5.9.5 1.5 0 .4-.1.7-.2 1s-.4.5-.6.7c-.3.2-.6.4-1 .5s-.8.2-1.3.2h-2.5v-8.6zm.9 3.7h1.7c.2 0 .4 0 .6-.1.2 0 .4-.1.6-.2.2-.1.3-.3.4-.5s.2-.4.2-.7-.1-.5-.2-.7-.3-.3-.4-.5l-.6-.3c-.2-.1-.5-.1-.8-.1h-1.5v3.1zm0 4.2h1.6c.3 0 .6 0 .9-.1s.5-.2.7-.3.4-.3.5-.5.2-.5.2-.8c0-.6-.2-1-.6-1.3s-.9-.4-1.6-.4H-88v3.4h.1z"/></g><g><path class="st8" d="M-49.6 137.6v-11.3M-33.3 137.6v-11.3M-17 137.6v-11.3M-.7 137.6v-11.3M15.5 137.6v-11.3M31.8 137.6v-11.3M48.1 137.6v-11.3M64.4 137.6v-11.3M80.7 137.6v-11.3M96.9 137.6v-11.3M113.2 137.6v-11.3"/><g><path class="st8" d="M145.4 137.6v-11.3M161.7 137.6v-11.3M178 137.6v-11.3"/><g class="st9"><path class="st2" d="M129.8 117.6h1v20h-1z"/></g></g><g class="st1"><path class="st2" d="M-52.9 166.7c.1.5.3.9.7 1.2.3.3.8.5 1.4.5.4 0 .8-.1 1.1-.2.3-.2.5-.4.7-.6.2-.3.3-.6.3-.9.1-.3.1-.7.1-1.1v-8.7h1.3v8.8c0 .4 0 .8-.1 1.3s-.3.9-.5 1.3-.6.7-1 1c-.4.2-1 .4-1.7.4-.9 0-1.6-.2-2.2-.7s-.9-1.1-1.1-1.8l1-.5zM-44.5 169.2h-1.4l5.3-12.3h1.2l5.3 12.3h-1.4l-1.4-3.2h-6.4l-1.2 3.2zm1.8-4.4h5.4l-2.7-6.6-2.7 6.6zM-23.5 167.4v-10.5h1.3v12.3h-1.6l-7.2-10.6v10.6h-1.3v-12.3h1.6l7.2 10.5zM-11.2 156.6c.8 0 1.4.2 1.9.6s.9.9 1.2 1.5c.3.6.5 1.3.7 2.1s.2 1.6.2 2.4-.1 1.6-.2 2.4-.4 1.5-.7 2.1c-.3.6-.7 1.1-1.2 1.5s-1.2.6-1.9.6c-.8 0-1.4-.2-1.9-.6s-.9-.9-1.2-1.5c-.3-.6-.5-1.3-.7-2.1-.1-.8-.2-1.6-.2-2.4s.1-1.6.2-2.4c.1-.8.3-1.5.7-2.1.3-.6.7-1.1 1.2-1.5.5-.4 1.2-.6 1.9-.6zm0 1c-.5 0-1 .2-1.4.5s-.6.8-.9 1.3c-.2.5-.4 1.1-.4 1.8-.1.6-.1 1.3-.1 1.9s0 1.2.1 1.9c.1.6.2 1.2.4 1.7s.5.9.9 1.3.8.5 1.4.5c.5 0 1-.2 1.3-.5.4-.3.6-.8.9-1.3.2-.5.4-1.1.4-1.7.1-.6.1-1.3.1-1.9s0-1.2-.1-1.9c-.1-.6-.2-1.2-.4-1.8-.2-.5-.5-1-.9-1.3-.3-.3-.7-.5-1.3-.5zM2.7 169.2h-7.9v-1.3l5.1-5.1c.2-.2.4-.4.5-.6.1-.2.3-.4.5-.7s.2-.5.3-.7c.1-.3.1-.5.1-.8 0-.4-.1-.7-.2-1s-.3-.5-.5-.7-.5-.4-.8-.5-.6-.2-.9-.2c-.7 0-1.2.2-1.7.6s-.7.9-.9 1.6l-1.2-.2c.1-.4.2-.8.5-1.2.2-.4.5-.7.8-1s.7-.5 1.1-.6.9-.2 1.4-.2 1 .1 1.4.2.8.4 1.2.6c.3.3.6.6.8 1.1.2.4.3.9.3 1.5 0 .4-.1.8-.2 1.1s-.3.7-.4 1l-.6.9c-.2.3-.5.5-.8.8l-4.4 4.4h6.5v1z"/></g></g><path class="st8" d="M-66 117.6v514.2"/></svg>