<svg id="Layer_1" xmlns="http://www.w3.org/2000/svg" viewBox="236 54.4 1083.9 684.6"><style>.st0{fill:none;stroke:#fcfdfb;stroke-miterlimit:10}.st1{opacity:.75}.st2{fill:#FFF}.st3{opacity:.5;enable-background:new}.st3,.st4{fill:none;stroke:#FFF;stroke-miterlimit:10}.st4{opacity:.75}.st4,.st5{enable-background:new}.st5{opacity:.25;fill:#FFF}.st6{opacity:.5}.st7{opacity:.35}.st8{fill:none;stroke:#FFF;stroke-miterlimit:10;enable-background:new}.st8,.st9{opacity:.25}</style><path class="st0" d="M479.1 357.5c8.1 8.3 16.5 16.4 24.7 24.5M479.2 335.1c15.6 15.4 30.9 31.2 46.4 46.7M479.1 312.4c24.2 23.5 47.2 46.5 70 69.4M500.4 311.4c22.9 23.5 47.9 46.5 70.8 70.6M523.4 311.6c23.9 23.3 45.9 47.3 70.3 70.5M545.4 311.4c22.9 23.5 47.9 46.5 70.8 70.6M568.4 311.6c23.9 23.3 45.9 47.3 70.3 70.5M590.4 311.4c22.9 23.5 47.9 46.5 70.8 70.6M613.4 311.6c23.9 23.3 45.9 47.3 70.3 70.5M635.4 311.4c22.9 23.5 47.9 46.5 70.8 70.6M658.4 311.6c23.9 23.3 45.9 47.3 70.3 70.5M680.4 311.4c22.9 23.5 47.9 46.5 70.8 70.6M703.4 311.6c23.9 23.3 45.9 47.3 70.3 70.5M725.4 311.4c22.9 23.5 47.9 46.5 70.8 70.6M748.4 311.6c23.9 23.3 45.9 47.3 70.3 70.5M770.4 311.4c22.9 23.5 47.9 46.5 70.8 70.6M793.2 311.4c23.1 22.5 45.1 46.5 68.7 68.8M815.3 311.4c15.3 15.6 31.2 30.7 46.6 46.3M838.6 311.3c8.1 8 15.7 16.6 23.8 24.5M860.6 311.4l2.9 2.9"/><g><path class="st1 st2" d="M580.6 720.7c-.6 0-1.1-.5-1.1-1.1V158.2h2.2v561.4c0 .6-.5 1.1-1.1 1.1z"/><circle class="st2" cx="580.6" cy="159" r="3.5"/></g><g><g class="st1"><path class="st2" d="M655.7 96.4h-1.2V85.6l-2.2 1.9-.8-.9 3.1-2.6h1.1v12.4zM672.3 95c-.3.5-.8.9-1.4 1.2-.6.3-1.1.4-1.7.4s-1.2-.1-1.7-.3c-.5-.2-1-.5-1.3-.9-.4-.4-.7-.8-.9-1.4-.2-.5-.3-1.1-.3-1.7 0-.6.1-1.2.3-1.7s.5-1 .9-1.4.8-.7 1.3-.9c.5-.2 1.1-.3 1.7-.3s1.2.1 1.7.4c.5.3 1 .7 1.4 1.2v-6.4h1.2v13.2h-1.2V95zm-6.1-2.7c0 .5.1.9.2 1.3s.3.7.6 1 .6.5 1 .7c.4.2.8.3 1.3.3s.9-.1 1.3-.3c.4-.2.7-.4 1-.7s.5-.6.7-1 .2-.8.2-1.3-.1-.9-.2-1.3c-.2-.4-.4-.8-.7-1-.3-.3-.6-.5-1-.7-.4-.2-.8-.3-1.3-.3s-.9.1-1.3.3c-.4.2-.7.4-1 .7-.3.3-.5.6-.6 1-.1.4-.2.9-.2 1.3zM681.8 91.1c0-.7-.2-1.2-.6-1.6-.4-.3-.9-.5-1.6-.5-.5 0-.9.1-1.4.3-.4.2-.8.4-1.1.7l-.7-.8c.3-.3.8-.6 1.3-.8.6-.2 1.2-.3 1.9-.3.4 0 .9.1 1.2.2.4.1.7.3 1 .5.3.2.5.6.7.9.2.4.2.8.2 1.3v4.6c0 .3.1.6.1.9h-1.1c0-.2-.1-.4-.1-.6v-.7c-.4.5-.8.9-1.3 1.2-.5.2-1 .4-1.7.4-.3 0-.6 0-1-.1s-.6-.2-.9-.4c-.3-.2-.5-.5-.7-.8-.2-.3-.3-.7-.3-1.2 0-.6.2-1.1.5-1.5s.7-.6 1.3-.8c.5-.2 1.1-.3 1.8-.4s1.4-.1 2.2-.1v-.4h.3zm-.3 1.2c-.5 0-1 0-1.5.1-.5 0-.9.1-1.3.2s-.7.3-1 .5-.4.5-.4.9c0 .3.1.5.2.7.1.2.3.4.4.5s.4.2.6.3.5.1.7.1c.4 0 .8-.1 1.1-.2.3-.1.6-.3.8-.6.2-.2.4-.5.5-.9.1-.3.2-.7.2-1v-.6h-.3zM688.8 95.1l2.6-6.9h1.3l-4.1 10.3c-.2.6-.6 1.1-.9 1.5-.4.4-.9.6-1.6.6-.4 0-.7 0-1.1-.1l.1-1.1c.3.1.6.1.9.1.4 0 .7-.1 1-.4s.4-.6.6-1.1l.7-1.7-3.5-8.1h1.3l2.7 6.9z"/></g><g class="st1"><path class="st2" d="M913.1 85.2l-5 11.2h-1.4l5.1-11.2h-6v-1.1h7.3v1.1zM927.2 95c-.3.5-.8.9-1.4 1.2-.6.3-1.1.4-1.7.4s-1.2-.1-1.7-.3c-.5-.2-1-.5-1.3-.9-.4-.4-.7-.8-.9-1.4-.2-.5-.3-1.1-.3-1.7 0-.6.1-1.2.3-1.7s.5-1 .9-1.4.8-.7 1.3-.9c.5-.2 1.1-.3 1.7-.3s1.2.1 1.7.4c.5.3 1 .7 1.4 1.2v-6.4h1.2v13.2h-1.2V95zm-6.1-2.7c0 .5.1.9.2 1.3s.3.7.6 1 .6.5 1 .7c.4.2.8.3 1.3.3s.9-.1 1.3-.3c.4-.2.7-.4 1-.7s.5-.6.7-1 .2-.8.2-1.3-.1-.9-.2-1.3c-.2-.4-.4-.8-.7-1-.3-.3-.6-.5-1-.7-.4-.2-.8-.3-1.3-.3s-.9.1-1.3.3c-.4.2-.7.4-1 .7-.3.3-.5.6-.6 1s-.2.9-.2 1.3zM936.7 91.1c0-.7-.2-1.2-.6-1.6-.4-.3-.9-.5-1.6-.5-.5 0-.9.1-1.4.3-.4.2-.8.4-1.1.7l-.7-.8c.3-.3.8-.6 1.3-.8.6-.2 1.2-.3 1.9-.3.4 0 .9.1 1.2.2.4.1.7.3 1 .5.3.2.5.6.7.9.2.4.2.8.2 1.3v4.6c0 .3.1.6.1.9h-1.1c0-.2-.1-.4-.1-.6v-.7c-.4.5-.8.9-1.3 1.2-.5.2-1 .4-1.7.4-.3 0-.6 0-1-.1s-.6-.2-.9-.4c-.3-.2-.5-.5-.7-.8-.2-.3-.3-.7-.3-1.2 0-.6.2-1.1.5-1.5s.7-.6 1.3-.8c.5-.2 1.1-.3 1.8-.4s1.4-.1 2.2-.1v-.4h.3zm-.2 1.2c-.5 0-1 0-1.5.1-.5 0-.9.1-1.3.2s-.7.3-1 .5-.4.5-.4.9c0 .3.1.5.2.7.1.2.3.4.4.5s.4.2.6.3.5.1.7.1c.4 0 .8-.1 1.1-.2.3-.1.6-.3.8-.6.2-.2.4-.5.5-.9.1-.3.2-.7.2-1v-.6h-.3zM943.7 95.1l2.6-6.9h1.3l-4.1 10.3c-.2.6-.6 1.1-.9 1.5-.4.4-.9.6-1.6.6-.4 0-.7 0-1.1-.1l.1-1.1c.3.1.6.1.9.1.4 0 .7-.1 1-.4s.4-.6.6-1.1l.7-1.7-3.5-8.1h1.3l2.7 6.9zM953.7 90.2c-.2-.3-.4-.6-.8-.8-.4-.2-.8-.3-1.2-.3-.2 0-.4 0-.6.1-.2 0-.4.1-.6.2-.2.1-.3.2-.4.4-.1.2-.1.4-.1.6 0 .4.2.7.5.9.3.2.8.4 1.5.5 1 .2 1.7.5 2.1.9s.7.9.7 1.5c0 .5-.1.9-.3 1.2-.2.3-.4.6-.7.8-.3.2-.6.3-1 .4s-.7.1-1.1.1c-.6 0-1.2-.1-1.8-.4-.6-.3-1.1-.7-1.4-1.2l.9-.7c.2.4.5.7.9.9.4.2.9.4 1.3.4.3 0 .5 0 .7-.1.2 0 .4-.1.6-.2.2-.1.3-.3.4-.4.1-.2.2-.4.2-.7 0-.4-.2-.8-.6-1-.4-.2-1-.4-1.8-.6-.2-.1-.5-.1-.8-.2s-.5-.2-.8-.4l-.6-.6c-.2-.2-.2-.6-.2-1s.1-.8.2-1.1c.2-.3.4-.5.7-.7.3-.2.6-.3.9-.4.3-.1.7-.1 1.1-.1.6 0 1.1.1 1.7.4s.9.6 1.2 1.1l-.8.5z"/></g><path class="st3" d="M723.2 90.9H753"/><circle class="st4" cx="763.3" cy="90.9" r="10.4"/><path class="st3" d="M774 90.9h111.7"/></g><path class="st5" d="M1301.3 377.1h-138.2v-66.8h-10.8v71.8h149z"/><g><path class="st0" d="M475 520.5c8.1 8.3 16.5 16.4 24.7 24.5M475.1 498.1c15.6 15.4 30.9 31.2 46.4 46.7M474.9 475.4c24.2 23.5 47.2 46.5 70 69.4M496.2 474.4c19.5 20 40 39.1 59.6 59.1M519.2 474.6c12.4 12.1 24.5 24.6 36.6 37M541.2 474.4c4.8 4.9 9.7 9.8 14.5 14.6"/></g><g><path class="st0" d="M730.1 592.3c8.1 8.3 16.5 16.4 24.7 24.5M730.2 569.9c15.6 15.4 30.9 31.2 46.4 46.7M730.1 547.3c24.2 23.5 47.2 46.5 70 69.4M751.4 546.2c22.9 23.5 47.9 46.5 70.8 70.6M774.4 546.4c23.9 23.3 45.9 47.3 70.3 70.5M796.4 546.2c22.9 23.5 47.9 46.5 70.8 70.6M819.4 546.4c23.9 23.3 45.9 47.3 70.3 70.5M841.4 546.2c22.9 23.5 47.9 46.5 70.8 70.6M864.4 546.4c23.9 23.3 45.9 47.3 70.3 70.5M886.4 546.2c22.9 23.5 47.9 46.5 70.8 70.6M909.4 546.4c17.6 17.2 34.4 35 51.8 52.4M931.4 546.2c9.8 10.1 19.8 19.9 29.9 29.7M954.4 546.4c2.3 2.2 4.5 4.4 6.8 6.7"/></g><g><path class="st0" d="M1161.6 713c1.8 1.7 3.6 3.5 5.4 5.2M1161.6 690c9.4 9.3 18.8 18.6 27.9 28.2M1161.4 667.4c16.8 17.1 33.3 34.4 50.7 50.8M1163.7 647.6c22.9 23.5 47.9 46.5 70.8 70.6M1186.7 647.8c23.9 23.3 45.9 47.3 70.3 70.5M1208.7 647.6c22.9 23.5 47.9 46.5 70.8 70.6M1231.5 647.6c23.1 22.5 45.1 46.5 68.7 68.8M1253.7 647.6c15.3 15.6 31.2 30.7 46.6 46.3M1277 647.4c8.1 8 15.7 16.6 23.8 24.5M1298.9 647.6l2.9 2.9"/></g><g><g class="st6"><path class="st2" d="M255.4 256.2h4v.8h-4.8v-8.5h.9l-.1 7.7zM260.6 257h-.9l3.7-8.5h.8l3.6 8.5h-1l-.9-2.2h-4.4l-.9 2.2zm1.3-3h3.7l-1.9-4.5-1.8 4.5zM270 257h-.9v-8.5h2.5c.4 0 .8 0 1.2.1s.7.2.9.4c.3.2.5.4.6.7s.2.6.2 1.1c0 .3-.1.6-.2.9-.1.3-.3.5-.5.7s-.4.3-.7.5c-.3.1-.6.2-.9.2l2.5 4h-1.1l-2.4-4h-1.4v3.9h.2zm0-4.7h1.5c.7 0 1.2-.1 1.6-.4.4-.3.6-.6.6-1.1 0-.3-.1-.5-.2-.7-.1-.2-.2-.3-.4-.5-.2-.1-.4-.2-.7-.3-.3-.1-.6-.1-.9-.1H270v3.1zM282.7 250.1c-.3-.3-.6-.6-1.1-.7-.4-.2-.9-.3-1.4-.3s-1 .1-1.5.3c-.4.2-.8.5-1.1.8s-.5.7-.7 1.2c-.2.4-.2.9-.2 1.4s.1 1 .2 1.4c.2.4.4.8.7 1.2.3.3.7.6 1.1.8.4.2.9.3 1.5.3.5 0 .9-.1 1.3-.2s.7-.2 1-.4v-2.6h-2v-.8h2.8v3.8c-.5.3-1 .5-1.5.6-.5.1-1.1.2-1.7.2-.6 0-1.2-.1-1.8-.3-.5-.2-1-.5-1.4-.9-.4-.4-.7-.9-.9-1.4s-.3-1.1-.3-1.8.1-1.2.3-1.8c.2-.5.5-1 .9-1.4s.9-.7 1.4-.9 1.1-.3 1.8-.3 1.3.1 1.8.3.9.5 1.3.8l-.5.7zM286.5 256.2h4.5v.8h-5.4v-8.5h5.3v.8h-4.4v2.9h4.1v.8h-4.1v3.2zM295.6 255.3c.1.3.2.6.5.8.2.2.5.3.9.3.3 0 .5-.1.7-.2.2-.1.3-.3.5-.4.1-.2.2-.4.2-.6s.1-.5.1-.7v-6h.9v6c0 .3 0 .6-.1.9l-.3.9c-.2.3-.4.5-.7.7-.3.2-.7.3-1.1.3-.6 0-1.1-.2-1.5-.5-.4-.3-.7-.7-.8-1.2l.7-.3zM302.4 256.2h4.5v.8h-5.4v-8.5h5.3v.8h-4.4v2.9h4.1v.8h-4.1v3.2zM311.3 257h-.9v-7.7h-2.8v-.8h6.6v.8h-2.8l-.1 7.7z"/></g><g class="st6"><g class="st7"><path class="st2" d="M261.7 329.7c-.1.2-.3.4-.5.6-.2.2-.4.4-.7.5-.3.1-.6.3-.9.3-.3.1-.7.1-1.1.1-.6 0-1.2-.1-1.8-.3-.5-.2-1-.5-1.4-.9s-.7-.9-.9-1.4-.3-1.1-.3-1.8.1-1.2.3-1.8c.2-.5.5-1 .9-1.4s.9-.7 1.4-.9 1.1-.3 1.8-.3c.3 0 .6 0 .9.1.3.1.6.2.8.3.3.1.5.3.7.4.2.1.4.4.5.6l-.7.5c-.1-.1-.2-.3-.4-.4-.1-.1-.3-.3-.5-.4-.2-.1-.4-.2-.7-.3-.2-.1-.5-.1-.8-.1-.6 0-1 .1-1.5.3-.4.2-.8.5-1.1.8-.3.3-.5.7-.7 1.2-.2.4-.2.9-.2 1.4s.1 1 .2 1.4c.2.4.4.8.7 1.2.3.3.7.6 1.1.8.4.2.9.3 1.5.3.5 0 1-.1 1.4-.3s.8-.5 1.1-1l.9.5zM263.2 322.6h.9v3.7h4.6v-3.7h.9v8.5h-.9v-4h-4.6v4h-.9v-8.5zM271.8 331.1h-.9l3.7-8.5h.8l3.6 8.5h-1l-.9-2.2h-4.4l-.9 2.2zm1.2-3h3.7l-1.9-4.5-1.8 4.5zM281.1 330.3h4v.8h-4.8v-8.5h.9v7.7h-.1zM287.2 330.3h4v.8h-4.8v-8.5h.9v7.7h-.1zM293.3 330.3h4.5v.8h-5.4v-8.5h5.3v.8h-4.4v2.9h4.1v.8h-4.1v3.2zM305.6 329.8v-7.2h.9v8.5h-1.1l-4.9-7.3v7.3h-.9v-8.5h1.1l4.9 7.2zM315.2 324.1c-.3-.3-.6-.6-1.1-.7-.4-.2-.9-.3-1.4-.3s-1 .1-1.5.3c-.4.2-.8.5-1.1.8s-.5.7-.7 1.2c-.2.4-.2.9-.2 1.4s.1 1 .2 1.4c.2.4.4.8.7 1.2.3.3.7.6 1.1.8.4.2.9.3 1.5.3.5 0 .9-.1 1.3-.2s.7-.2 1-.4v-2.6h-2v-.8h2.8v3.8c-.5.3-1 .5-1.5.6-.5.1-1.1.2-1.7.2-.6 0-1.2-.1-1.8-.3-.5-.2-1-.5-1.4-.9-.4-.4-.7-.9-.9-1.4s-.3-1.1-.3-1.8.1-1.2.3-1.8c.2-.5.5-1 .9-1.4.4-.4.9-.7 1.4-.9.5-.2 1.1-.3 1.8-.3s1.3.1 1.8.3c.5.2.9.5 1.3.8l-.5.7zM319 330.3h4.5v.8h-5.4v-8.5h5.3v.8H319v2.9h4.1v.8H319v3.2zM326.1 331.1h-.9v-8.5h2.5c.4 0 .8 0 1.2.1s.7.2.9.4c.3.2.5.4.6.7.1.3.2.6.2 1.1 0 .3-.1.6-.2.9-.1.3-.3.5-.5.7s-.4.3-.7.5c-.3.1-.6.2-.9.2l2.5 4h-1.1l-2.4-4h-1.4v3.9h.2zm0-4.7h1.5c.7 0 1.2-.1 1.6-.4.4-.3.6-.6.6-1.1 0-.3-.1-.5-.2-.7s-.2-.3-.4-.5c-.2-.1-.4-.2-.7-.3-.3-.1-.6-.1-.9-.1h-1.5v3.1zM336.7 326.3c.2-.1.3-.1.6-.2.2-.1.5-.1.7-.1.4 0 .7.1 1 .2.3.1.6.3.8.5.2.2.4.5.5.8s.2.7.2 1.1-.1.8-.2 1.1c-.1.3-.3.6-.6.8-.2.2-.5.4-.9.5-.3.1-.7.2-1.1.2s-.8-.1-1.1-.2c-.3-.1-.6-.3-.9-.5-.2-.2-.4-.5-.6-.8-.1-.3-.2-.7-.2-1.1s.1-.8.2-1.2c.2-.4.3-.7.5-1.1l2.3-3.7h1l-2.2 3.7zm-.9 2.3c0 .3 0 .5.1.8.1.2.2.4.4.6s.4.3.6.4c.2.1.5.2.8.2.3 0 .5 0 .8-.2.2-.1.4-.2.6-.4.2-.2.3-.4.4-.6.1-.2.1-.5.1-.8s0-.5-.1-.8c-.1-.2-.2-.4-.4-.6s-.4-.3-.6-.4c-.2-.1-.5-.1-.8-.1-.3 0-.6 0-.8.1-.2.1-.4.2-.6.4-.2.2-.3.4-.4.6 0 .3-.1.6-.1.8zM344.7 322.4c.5 0 1 .1 1.3.4.4.3.6.6.9 1 .2.4.4.9.5 1.4.1.5.1 1.1.1 1.6 0 .6 0 1.1-.1 1.6s-.2 1-.5 1.4c-.2.4-.5.8-.9 1-.4.3-.8.4-1.3.4s-1-.1-1.3-.4c-.4-.3-.6-.6-.9-1-.3-.4-.4-.9-.5-1.4-.1-.5-.1-1.1-.1-1.6 0-.6 0-1.1.1-1.6s.2-1 .5-1.4c.3-.4.5-.8.9-1 .3-.3.8-.4 1.3-.4zm0 .7c-.4 0-.7.1-.9.3-.2.2-.4.5-.6.9l-.3 1.2c-.1.4-.1.9-.1 1.3s0 .9.1 1.3l.3 1.2c.1.4.3.6.6.9.2.2.6.3.9.3.4 0 .7-.1.9-.3.2-.2.4-.5.6-.9l.3-1.2c.1-.4.1-.9.1-1.3s0-.9-.1-1.3l-.3-1.2c-.1-.4-.3-.7-.6-.9-.2-.2-.5-.3-.9-.3zM352.5 331.1h-.9v-7.4l-1.5 1.3-.5-.6 2.2-1.8h.8l-.1 8.5z"/></g><g class="st7"><path class="st2" d="M261.7 409c-.1.2-.3.4-.5.6s-.4.4-.7.5c-.3.1-.6.3-.9.3-.3.1-.7.1-1.1.1-.6 0-1.2-.1-1.8-.3-.5-.2-1-.5-1.4-.9s-.7-.9-.9-1.4-.3-1.1-.3-1.8.1-1.2.3-1.8c.2-.5.5-1 .9-1.4s.9-.7 1.4-.9 1.1-.3 1.8-.3c.3 0 .6 0 .9.1.3.1.6.2.8.3.3.1.5.3.7.4.2.1.4.4.5.6l-.7.5c-.1-.1-.2-.3-.4-.4-.1-.1-.3-.3-.5-.4s-.4-.2-.7-.3c-.2-.1-.5-.1-.8-.1-.6 0-1 .1-1.5.3-.4.2-.8.5-1.1.8s-.5.7-.7 1.2c-.2.4-.2.9-.2 1.4s.1 1 .2 1.4c.2.4.4.8.7 1.2.3.3.7.6 1.1.8.4.2.9.3 1.5.3.5 0 1-.1 1.4-.3.4-.2.8-.5 1.1-1l.9.5zM263.2 401.9h.9v3.7h4.6v-3.7h.9v8.5h-.9v-4h-4.6v4h-.9v-8.5zM271.8 410.4h-.9l3.7-8.5h.8l3.6 8.5h-1l-.9-2.2h-4.4l-.9 2.2zm1.2-3h3.7l-1.9-4.5-1.8 4.5zM281.1 409.6h4v.8h-4.8v-8.5h.9v7.7h-.1zM287.2 409.6h4v.8h-4.8v-8.5h.9v7.7h-.1zM293.3 409.6h4.5v.8h-5.4v-8.5h5.3v.8h-4.4v2.9h4.1v.8h-4.1v3.2zM305.6 409.1v-7.2h.9v8.5h-1.1l-4.9-7.3v7.3h-.9v-8.5h1.1l4.9 7.2zM315.2 403.4c-.3-.3-.6-.6-1.1-.7-.4-.2-.9-.3-1.4-.3s-1 .1-1.5.3c-.4.2-.8.5-1.1.8s-.5.7-.7 1.2c-.2.4-.2.9-.2 1.4s.1 1 .2 1.4c.2.4.4.8.7 1.2.3.3.7.6 1.1.8.4.2.9.3 1.5.3.5 0 .9-.1 1.3-.2s.7-.2 1-.4v-2.6h-2v-.8h2.8v3.8c-.5.3-1 .5-1.5.6s-1.1.2-1.7.2c-.6 0-1.2-.1-1.8-.3-.5-.2-1-.5-1.4-.9s-.7-.9-.9-1.4-.3-1.1-.3-1.8.1-1.2.3-1.8c.2-.5.5-1 .9-1.4s.9-.7 1.4-.9 1.1-.3 1.8-.3 1.3.1 1.8.3.9.5 1.3.8l-.5.7zM319 409.6h4.5v.8h-5.4v-8.5h5.3v.8H319v2.9h4.1v.8H319v3.2zM326.1 410.4h-.9v-8.5h2.5c.4 0 .8 0 1.2.1s.7.2.9.4c.3.2.5.4.6.7s.2.6.2 1.1c0 .3-.1.6-.2.9s-.3.5-.5.7-.4.3-.7.5c-.3.1-.6.2-.9.2l2.5 4h-1.1l-2.4-4h-1.4v3.9h.2zm0-4.7h1.5c.7 0 1.2-.1 1.6-.4.4-.3.6-.6.6-1.1 0-.3-.1-.5-.2-.7s-.2-.3-.4-.5c-.2-.1-.4-.2-.7-.3-.3-.1-.6-.1-.9-.1h-1.5v3.1zM336.7 405.6c.2-.1.3-.1.6-.2.2-.1.5-.1.7-.1.4 0 .7.1 1 .2.3.1.6.3.8.5s.4.5.5.8.2.7.2 1.1-.1.8-.2 1.1c-.1.3-.3.6-.6.8-.2.2-.5.4-.9.5-.3.1-.7.2-1.1.2s-.8-.1-1.1-.2-.6-.3-.9-.5c-.2-.2-.4-.5-.6-.8-.1-.3-.2-.7-.2-1.1s.1-.8.2-1.2c.2-.4.3-.7.5-1.1l2.3-3.7h1l-2.2 3.7zm-.9 2.3c0 .3 0 .5.1.8.1.2.2.4.4.6s.4.3.6.4c.2.1.5.2.8.2.3 0 .5 0 .8-.2.2-.1.4-.2.6-.4s.3-.4.4-.6c.1-.2.1-.5.1-.8s0-.5-.1-.8c-.1-.2-.2-.4-.4-.6s-.4-.3-.6-.4-.5-.1-.8-.1c-.3 0-.6 0-.8.1s-.4.2-.6.4c-.2.2-.3.4-.4.6 0 .3-.1.5-.1.8zM344.7 401.7c.5 0 1 .1 1.3.4.4.3.6.6.9 1 .2.4.4.9.5 1.4.1.5.1 1.1.1 1.6 0 .6 0 1.1-.1 1.6s-.2 1-.5 1.4c-.2.4-.5.8-.9 1-.4.3-.8.4-1.3.4s-1-.1-1.3-.4c-.4-.3-.6-.6-.9-1s-.4-.9-.5-1.4c-.1-.5-.1-1.1-.1-1.6 0-.6 0-1.1.1-1.6s.2-1 .5-1.4c.3-.4.5-.8.9-1 .3-.3.8-.4 1.3-.4zm0 .7c-.4 0-.7.1-.9.3-.2.2-.4.5-.6.9l-.3 1.2c-.1.4-.1.9-.1 1.3s0 .9.1 1.3l.3 1.2c.1.4.3.6.6.9.2.2.6.3.9.3.4 0 .7-.1.9-.3.2-.2.4-.5.6-.9l.3-1.2c.1-.4.1-.9.1-1.3s0-.9-.1-1.3l-.3-1.2c-.1-.4-.3-.7-.6-.9-.2-.2-.5-.3-.9-.3zM353.4 407.6h1.2v.8h-1.2v2.1h-.8v-2.1h-3.9v-.8l3.6-5.6h1.1v5.6zm-.8-4.7l-3 4.7h3v-4.7z"/></g><g class="st7"><path class="st2" d="M255.4 489.6h-.9v-8.5h5.1v.8h-4.3v2.9h4v.8h-4l.1 4zM260.6 489.6h-.9l3.7-8.5h.8l3.6 8.5h-1l-.9-2.2h-4.4l-.9 2.2zm1.3-3h3.7l-1.9-4.5-1.8 4.5zM269.9 488.9h4v.8h-4.8v-8.5h.9v7.7h-.1zM282 488.3c-.1.2-.3.4-.5.6-.2.2-.4.4-.7.5s-.6.3-.9.3c-.3.1-.7.1-1.1.1-.6 0-1.2-.1-1.8-.3-.5-.2-1-.5-1.4-.9-.4-.4-.7-.9-.9-1.4-.2-.5-.3-1.1-.3-1.8s.1-1.2.3-1.8c.2-.5.5-1 .9-1.4.4-.4.9-.7 1.4-.9s1.1-.3 1.8-.3c.3 0 .6 0 .9.1.3.1.6.2.8.3.3.1.5.3.7.4s.4.4.5.6l-.7.5c-.1-.1-.2-.3-.4-.4-.1-.1-.3-.3-.5-.4-.2-.1-.4-.2-.7-.3-.2-.1-.5-.1-.8-.1-.6 0-1 .1-1.5.3-.4.2-.8.5-1.1.8-.3.3-.5.7-.7 1.2-.2.4-.2.9-.2 1.4s.1 1 .2 1.4c.2.4.4.8.7 1.2.3.3.7.6 1.1.8.4.2.9.3 1.5.3.5 0 1-.1 1.4-.3.4-.2.8-.5 1.1-1l.9.5zM291.7 485.4c0 .6-.1 1.2-.3 1.8-.2.6-.5 1-.9 1.4-.4.4-.9.7-1.4.9s-1.1.3-1.8.3c-.6 0-1.2-.1-1.8-.3-.6-.2-1-.5-1.4-.9-.4-.4-.7-.9-.9-1.4-.2-.5-.3-1.1-.3-1.8s.1-1.2.3-1.8c.2-.5.5-1 .9-1.4.4-.4.9-.7 1.4-.9s1.1-.3 1.8-.3c.6 0 1.2.1 1.8.3.6.2 1 .5 1.4.9.4.4.7.9.9 1.4.2.5.3 1.2.3 1.8zm-.9 0c0-.5-.1-1-.2-1.4-.1-.4-.4-.8-.7-1.2-.3-.3-.7-.6-1.1-.8-.4-.2-.9-.3-1.5-.3-.5 0-1 .1-1.5.3-.4.2-.8.5-1.1.8s-.5.7-.7 1.2c-.2.4-.2.9-.2 1.4s.1 1 .2 1.4c.2.4.4.8.7 1.2.3.3.7.6 1.1.8.4.2.9.3 1.5.3.5 0 1-.1 1.5-.3.4-.2.8-.5 1.1-.8s.5-.7.7-1.2c.2-.5.2-.9.2-1.4zM299.5 488.4v-7.2h.9v8.5h-1.1l-4.9-7.3v7.3h-.9v-8.5h1.1l4.9 7.2zM310.6 489.6h-5.4v-.9l3.5-3.5.4-.4c.1-.1.2-.3.3-.5s.2-.3.2-.5c.1-.2.1-.4.1-.6s0-.5-.1-.7c-.1-.2-.2-.4-.4-.5-.2-.1-.3-.2-.5-.3-.2-.1-.4-.1-.6-.1-.5 0-.8.1-1.2.4s-.5.6-.6 1.1l-.9-.2c.1-.3.2-.6.3-.8.1-.2.3-.5.6-.7.2-.2.5-.3.8-.4s.6-.2.9-.2.7 0 1 .2c.3.1.6.2.8.4.2.2.4.4.6.7.1.3.2.6.2 1 0 .3 0 .5-.1.8-.1.2-.2.5-.3.7-.1.2-.3.4-.4.6-.2.2-.3.4-.5.6l-3.1 3h4.5l-.1.8zM315 480.9c.5 0 1 .1 1.3.4.4.3.6.6.9 1 .2.4.4.9.5 1.4s.1 1.1.1 1.6c0 .6 0 1.1-.1 1.6s-.2 1-.5 1.4c-.2.4-.5.8-.9 1-.4.3-.8.4-1.3.4s-1-.1-1.3-.4c-.4-.3-.6-.6-.9-1s-.4-.9-.5-1.4-.1-1.1-.1-1.6c0-.6 0-1.1.1-1.6s.2-1 .5-1.4.5-.8.9-1c.3-.2.8-.4 1.3-.4zm0 .8c-.4 0-.7.1-.9.3-.2.2-.4.5-.6.9l-.3 1.2c-.1.4-.1.9-.1 1.3s0 .9.1 1.3l.3 1.2c.1.4.3.6.6.9.2.2.6.3.9.3.4 0 .7-.1.9-.3.2-.2.4-.5.6-.9l.3-1.2c.1-.4.1-.9.1-1.3s0-.9-.1-1.3l-.3-1.2c-.1-.4-.3-.7-.6-.9-.2-.2-.5-.3-.9-.3zM322 480.9c.5 0 1 .1 1.3.4.4.3.6.6.9 1 .2.4.4.9.5 1.4s.1 1.1.1 1.6c0 .6 0 1.1-.1 1.6s-.2 1-.5 1.4c-.2.4-.5.8-.9 1-.4.3-.8.4-1.3.4s-1-.1-1.3-.4c-.4-.3-.6-.6-.9-1s-.4-.9-.5-1.4-.1-1.1-.1-1.6c0-.6 0-1.1.1-1.6s.2-1 .5-1.4.5-.8.9-1c.3-.2.7-.4 1.3-.4zm0 .8c-.4 0-.7.1-.9.3-.2.2-.4.5-.6.9l-.3 1.2c-.1.4-.1.9-.1 1.3s0 .9.1 1.3l.3 1.2c.1.4.3.6.6.9.2.2.6.3.9.3.4 0 .7-.1.9-.3.2-.2.4-.5.6-.9l.3-1.2c.1-.4.1-.9.1-1.3s0-.9-.1-1.3l-.3-1.2c-.1-.4-.3-.7-.6-.9-.3-.2-.6-.3-.9-.3zM328.9 480.9c.5 0 1 .1 1.3.4.4.3.6.6.9 1 .2.4.4.9.5 1.4s.1 1.1.1 1.6c0 .6 0 1.1-.1 1.6s-.2 1-.5 1.4c-.2.4-.5.8-.9 1-.4.3-.8.4-1.3.4s-1-.1-1.3-.4c-.4-.3-.6-.6-.9-1s-.4-.9-.5-1.4-.1-1.1-.1-1.6c0-.6 0-1.1.1-1.6s.2-1 .5-1.4.5-.8.9-1c.3-.2.8-.4 1.3-.4zm0 .8c-.4 0-.7.1-.9.3-.2.2-.4.5-.6.9l-.3 1.2c-.1.4-.1.9-.1 1.3s0 .9.1 1.3l.3 1.2c.1.4.3.6.6.9.2.2.6.3.9.3.4 0 .7-.1.9-.3.2-.2.4-.5.6-.9l.3-1.2c.1-.4.1-.9.1-1.3s0-.9-.1-1.3l-.3-1.2c-.1-.4-.3-.7-.6-.9-.2-.2-.5-.3-.9-.3z"/></g><g class="st7"><path class="st2" d="M255.4 568.9h-.9v-8.5h5.1v.8h-4.3v2.9h4v.8h-4l.1 4zM260.6 568.9h-.9l3.7-8.5h.8l3.6 8.5h-1l-.9-2.2h-4.4l-.9 2.2zm1.3-3h3.7l-1.9-4.5-1.8 4.5zM269.9 568.2h4v.8h-4.8v-8.5h.9v7.7h-.1zM282 567.5c-.1.2-.3.4-.5.6-.2.2-.4.4-.7.5-.3.1-.6.3-.9.3-.3.1-.7.1-1.1.1-.6 0-1.2-.1-1.8-.3-.5-.2-1-.5-1.4-.9-.4-.4-.7-.9-.9-1.4-.2-.5-.3-1.1-.3-1.8s.1-1.2.3-1.8c.2-.5.5-1 .9-1.4.4-.4.9-.7 1.4-.9s1.1-.3 1.8-.3c.3 0 .6 0 .9.1.3.1.6.2.8.3.3.1.5.3.7.4s.4.4.5.6l-.7.5c-.1-.1-.2-.3-.4-.4-.1-.1-.3-.3-.5-.4-.2-.1-.4-.2-.7-.3-.2-.1-.5-.1-.8-.1-.6 0-1 .1-1.5.3-.4.2-.8.5-1.1.8-.3.3-.5.7-.7 1.2-.2.4-.2.9-.2 1.4s.1 1 .2 1.4c.2.4.4.8.7 1.2.3.3.7.6 1.1.8.4.2.9.3 1.5.3.5 0 1-.1 1.4-.3.4-.2.8-.5 1.1-1l.9.5zM291.7 564.7c0 .6-.1 1.2-.3 1.8-.2.6-.5 1-.9 1.4-.4.4-.9.7-1.4.9s-1.1.3-1.8.3c-.6 0-1.2-.1-1.8-.3-.6-.2-1-.5-1.4-.9-.4-.4-.7-.9-.9-1.4-.2-.5-.3-1.1-.3-1.8s.1-1.2.3-1.8c.2-.5.5-1 .9-1.4.4-.4.9-.7 1.4-.9s1.1-.3 1.8-.3c.6 0 1.2.1 1.8.3.6.2 1 .5 1.4.9.4.4.7.9.9 1.4.2.5.3 1.1.3 1.8zm-.9 0c0-.5-.1-1-.2-1.4-.1-.4-.4-.8-.7-1.2-.3-.3-.7-.6-1.1-.8-.4-.2-.9-.3-1.5-.3-.5 0-1 .1-1.5.3-.4.2-.8.5-1.1.8-.3.3-.5.7-.7 1.2-.2.4-.2.9-.2 1.4s.1 1 .2 1.4c.2.4.4.8.7 1.2.3.3.7.6 1.1.8.4.2.9.3 1.5.3.5 0 1-.1 1.5-.3.4-.2.8-.5 1.1-.8.3-.3.5-.7.7-1.2.2-.5.2-.9.2-1.4zM299.5 567.7v-7.2h.9v8.5h-1.1l-4.9-7.3v7.3h-.9v-8.5h1.1l4.9 7.2zM310.6 568.9h-5.4v-.9l3.5-3.5.4-.4c.1-.1.2-.3.3-.5.1-.2.2-.3.2-.5.1-.2.1-.4.1-.6s0-.5-.1-.7c-.1-.2-.2-.4-.4-.5-.2-.1-.3-.2-.5-.3-.2-.1-.4-.1-.6-.1-.5 0-.8.1-1.2.4s-.5.6-.6 1.1l-.9-.2c.1-.3.2-.6.3-.8.1-.2.3-.5.6-.7.2-.2.5-.3.8-.4s.6-.2.9-.2.7 0 1 .2c.3.1.6.2.8.4.2.2.4.4.6.7.1.3.2.6.2 1 0 .3 0 .5-.1.8-.1.2-.2.5-.3.7-.1.2-.3.4-.4.6-.2.2-.3.4-.5.6l-3.1 3h4.5l-.1.8zM315 560.2c.5 0 1 .1 1.3.4.4.3.6.6.9 1 .2.4.4.9.5 1.4s.1 1.1.1 1.6c0 .6 0 1.1-.1 1.6s-.2 1-.5 1.4c-.2.4-.5.8-.9 1-.4.3-.8.4-1.3.4s-1-.1-1.3-.4c-.4-.3-.6-.6-.9-1-.3-.4-.4-.9-.5-1.4s-.1-1.1-.1-1.6c0-.6 0-1.1.1-1.6s.2-1 .5-1.4c.3-.4.5-.8.9-1 .3-.3.8-.4 1.3-.4zm0 .7c-.4 0-.7.1-.9.3-.2.2-.4.5-.6.9l-.3 1.2c-.1.4-.1.9-.1 1.3s0 .9.1 1.3l.3 1.2c.1.4.3.6.6.9.2.2.6.3.9.3.4 0 .7-.1.9-.3.2-.2.4-.5.6-.9l.3-1.2c.1-.4.1-.9.1-1.3s0-.9-.1-1.3l-.3-1.2c-.1-.4-.3-.7-.6-.9-.2-.1-.5-.3-.9-.3zM322 560.2c.5 0 1 .1 1.3.4.4.3.6.6.9 1 .2.4.4.9.5 1.4s.1 1.1.1 1.6c0 .6 0 1.1-.1 1.6s-.2 1-.5 1.4c-.2.4-.5.8-.9 1-.4.3-.8.4-1.3.4s-1-.1-1.3-.4c-.4-.3-.6-.6-.9-1-.3-.4-.4-.9-.5-1.4s-.1-1.1-.1-1.6c0-.6 0-1.1.1-1.6s.2-1 .5-1.4c.3-.4.5-.8.9-1 .3-.3.7-.4 1.3-.4zm0 .7c-.4 0-.7.1-.9.3-.2.2-.4.5-.6.9l-.3 1.2c-.1.4-.1.9-.1 1.3s0 .9.1 1.3l.3 1.2c.1.4.3.6.6.9.2.2.6.3.9.3.4 0 .7-.1.9-.3.2-.2.4-.5.6-.9l.3-1.2c.1-.4.1-.9.1-1.3s0-.9-.1-1.3l-.3-1.2c-.1-.4-.3-.7-.6-.9-.3-.1-.6-.3-.9-.3zM328.9 560.2c.5 0 1 .1 1.3.4.4.3.6.6.9 1 .2.4.4.9.5 1.4s.1 1.1.1 1.6c0 .6 0 1.1-.1 1.6s-.2 1-.5 1.4c-.2.4-.5.8-.9 1-.4.3-.8.4-1.3.4s-1-.1-1.3-.4c-.4-.3-.6-.6-.9-1-.3-.4-.4-.9-.5-1.4s-.1-1.1-.1-1.6c0-.6 0-1.1.1-1.6s.2-1 .5-1.4c.3-.4.5-.8.9-1 .3-.3.8-.4 1.3-.4zm0 .7c-.4 0-.7.1-.9.3-.2.2-.4.5-.6.9l-.3 1.2c-.1.4-.1.9-.1 1.3s0 .9.1 1.3l.3 1.2c.1.4.3.6.6.9.2.2.6.3.9.3.4 0 .7-.1.9-.3.2-.2.4-.5.6-.9l.3-1.2c.1-.4.1-.9.1-1.3s0-.9-.1-1.3l-.3-1.2c-.1-.4-.3-.7-.6-.9-.2-.1-.5-.3-.9-.3zM334.4 568.2h4.5v.8h-5.4v-8.5h5.3v.8h-4.4v2.9h4.1v.8h-4.1v3.2zM343.4 563.9l2.3-3.4h1l-2.8 4 3.1 4.5h-1.1l-2.6-3.8-2.6 3.8h-1.1l3.1-4.5-2.8-4h1.1l2.4 3.4z"/></g><g class="st7"><path class="st2" d="M255.4 648.2h-.9v-8.5h5.1v.8h-4.3v2.9h4v.8h-4l.1 4zM260.6 648.2h-.9l3.7-8.5h.8l3.6 8.5h-1l-.9-2.2h-4.4l-.9 2.2zm1.3-3h3.7l-1.9-4.5-1.8 4.5zM269.9 647.4h4v.8h-4.8v-8.5h.9v7.7h-.1zM282 646.8c-.1.2-.3.4-.5.6-.2.2-.4.4-.7.5s-.6.3-.9.3c-.3.1-.7.1-1.1.1-.6 0-1.2-.1-1.8-.3-.5-.2-1-.5-1.4-.9-.4-.4-.7-.9-.9-1.4-.2-.5-.3-1.1-.3-1.8s.1-1.2.3-1.8c.2-.5.5-1 .9-1.4.4-.4.9-.7 1.4-.9.5-.2 1.1-.3 1.8-.3.3 0 .6 0 .9.1.3.1.6.2.8.3.3.1.5.3.7.4.2.1.4.4.5.6l-.7.5c-.1-.1-.2-.3-.4-.4-.1-.1-.3-.3-.5-.4-.2-.1-.4-.2-.7-.3-.2-.1-.5-.1-.8-.1-.6 0-1 .1-1.5.3-.4.2-.8.5-1.1.8-.3.3-.5.7-.7 1.2-.2.4-.2.9-.2 1.4s.1 1 .2 1.4c.2.4.4.8.7 1.2.3.3.7.6 1.1.8.4.2.9.3 1.5.3.5 0 1-.1 1.4-.3.4-.2.8-.5 1.1-1l.9.5zM291.7 643.9c0 .6-.1 1.2-.3 1.8-.2.6-.5 1-.9 1.4-.4.4-.9.7-1.4.9-.5.2-1.1.3-1.8.3-.6 0-1.2-.1-1.8-.3-.6-.2-1-.5-1.4-.9-.4-.4-.7-.9-.9-1.4-.2-.5-.3-1.1-.3-1.8s.1-1.2.3-1.8c.2-.5.5-1 .9-1.4.4-.4.9-.7 1.4-.9.5-.2 1.1-.3 1.8-.3.6 0 1.2.1 1.8.3.6.2 1 .5 1.4.9.4.4.7.9.9 1.4.2.5.3 1.2.3 1.8zm-.9.1c0-.5-.1-1-.2-1.4-.1-.4-.4-.8-.7-1.2-.3-.3-.7-.6-1.1-.8-.4-.2-.9-.3-1.5-.3-.5 0-1 .1-1.5.3-.4.2-.8.5-1.1.8-.3.3-.5.7-.7 1.2-.2.4-.2.9-.2 1.4s.1 1 .2 1.4c.2.4.4.8.7 1.2.3.3.7.6 1.1.8.4.2.9.3 1.5.3.5 0 1-.1 1.5-.3.4-.2.8-.5 1.1-.8.3-.3.5-.7.7-1.2.2-.5.2-1 .2-1.4zM299.5 646.9v-7.2h.9v8.5h-1.1l-4.9-7.3v7.3h-.9v-8.5h1.1l4.9 7.2zM309.1 644.5c-.2.1-.3.1-.6.2s-.5.1-.7.1c-.4 0-.7-.1-1-.2s-.6-.3-.8-.5c-.2-.2-.4-.5-.5-.8-.1-.3-.2-.7-.2-1.1s.1-.8.2-1.1c.1-.3.3-.6.6-.8.2-.2.5-.4.9-.5.3-.1.7-.2 1.1-.2.4 0 .8.1 1.1.2.3.1.6.3.9.5.2.2.4.5.6.8.1.3.2.7.2 1.1 0 .4-.1.8-.2 1.2-.2.4-.3.7-.5 1.1l-2.3 3.7h-1l2.2-3.7zm.9-2.3c0-.3 0-.5-.1-.8-.1-.2-.2-.4-.4-.6-.2-.2-.4-.3-.6-.4-.2-.1-.5-.2-.8-.2s-.5.1-.8.2c-.2.1-.4.2-.6.4-.2.2-.3.4-.4.6-.1.2-.1.5-.1.8 0 .3 0 .5.1.8.1.2.2.4.4.6.2.2.4.3.6.4.2.1.5.1.8.1s.5 0 .8-.1c.2-.1.4-.2.6-.4.2-.2.3-.4.4-.6 0-.3.1-.6.1-.8zM315 639.5c.5 0 1 .1 1.3.4.4.3.6.6.9 1 .2.4.4.9.5 1.4s.1 1.1.1 1.6c0 .6 0 1.1-.1 1.6s-.2 1-.5 1.4c-.2.4-.5.8-.9 1-.4.3-.8.4-1.3.4s-1-.1-1.3-.4c-.4-.3-.6-.6-.9-1s-.4-.9-.5-1.4-.1-1.1-.1-1.6c0-.6 0-1.1.1-1.6s.2-1 .5-1.4.5-.8.9-1c.3-.3.8-.4 1.3-.4zm0 .7c-.4 0-.7.1-.9.3-.2.2-.4.5-.6.9l-.3 1.2c-.1.4-.1.9-.1 1.3s0 .9.1 1.3l.3 1.2c.1.4.3.6.6.9.2.2.6.3.9.3.4 0 .7-.1.9-.3.2-.2.4-.5.6-.9l.3-1.2c.1-.4.1-.9.1-1.3s0-.9-.1-1.3l-.3-1.2c-.1-.4-.3-.7-.6-.9-.2-.2-.5-.3-.9-.3zM322 639.5c.5 0 1 .1 1.3.4.4.3.6.6.9 1 .2.4.4.9.5 1.4s.1 1.1.1 1.6c0 .6 0 1.1-.1 1.6s-.2 1-.5 1.4c-.2.4-.5.8-.9 1-.4.3-.8.4-1.3.4s-1-.1-1.3-.4c-.4-.3-.6-.6-.9-1s-.4-.9-.5-1.4-.1-1.1-.1-1.6c0-.6 0-1.1.1-1.6s.2-1 .5-1.4.5-.8.9-1c.3-.3.7-.4 1.3-.4zm0 .7c-.4 0-.7.1-.9.3-.2.2-.4.5-.6.9l-.3 1.2c-.1.4-.1.9-.1 1.3s0 .9.1 1.3l.3 1.2c.1.4.3.6.6.9.2.2.6.3.9.3.4 0 .7-.1.9-.3.2-.2.4-.5.6-.9l.3-1.2c.1-.4.1-.9.1-1.3s0-.9-.1-1.3l-.3-1.2c-.1-.4-.3-.7-.6-.9-.3-.2-.6-.3-.9-.3zM326.6 639.7h2.5c.3 0 .6 0 1 .1l.9.3c.3.2.5.4.6.7.1.3.2.6.2 1.1 0 .4-.1.8-.4 1.2s-.6.6-1.1.7c.6.1 1 .3 1.4.6.4.4.5.9.5 1.5 0 .4-.1.7-.2 1-.1.3-.4.5-.6.7-.3.2-.6.4-1 .5-.4.1-.8.2-1.3.2h-2.5v-8.6zm.8 3.7h1.7c.2 0 .4 0 .6-.1.2 0 .4-.1.6-.2s.3-.3.4-.5c.1-.2.2-.4.2-.7 0-.3-.1-.5-.2-.7-.1-.2-.3-.3-.4-.5l-.6-.3c-.2-.1-.5-.1-.8-.1h-1.5v3.1zm0 4.1h1.6c.3 0 .6 0 .9-.1.3-.1.5-.2.7-.3s.4-.3.5-.5c.1-.2.2-.5.2-.8 0-.6-.2-1-.6-1.3-.4-.3-.9-.4-1.6-.4h-1.8l.1 3.4z"/></g></g><path class="st8" d="M406 224.4v-11.3M422.3 224.4v-11.3M438.6 224.4v-11.3M454.9 224.4v-11.3M471.1 224.4v-11.3M487.4 224.4v-11.3M503.7 224.4v-11.3M520 224.4v-11.3M536.3 224.4v-11.3M552.5 224.4v-11.3M568.8 224.4v-11.3"/><g><path class="st8" d="M601 224.4v-11.3M617.3 224.4v-11.3M633.6 224.4v-11.3M649.9 224.4v-11.3M666.2 224.4v-11.3M682.4 224.4v-11.3M698.7 224.4v-11.3M715 224.4v-11.3M731.3 224.4v-11.3M747.6 224.4v-11.3M763.8 224.4v-11.3"/><g class="st9"><path class="st2" d="M585.4 204.4h1v20h-1z"/></g></g><g><path class="st8" d="M794.6 224.4v-11.3M810.9 224.4v-11.3M827.2 224.4v-11.3M843.5 224.4v-11.3M859.7 224.4v-11.3M876 224.4v-11.3M892.3 224.4v-11.3M908.6 224.4v-11.3M924.9 224.4v-11.3M941.1 224.4v-11.3M957.4 224.4v-11.3"/><g class="st9"><path class="st2" d="M779 204.4h1v20h-1z"/></g></g><g><path class="st8" d="M989.7 224.4v-11.3M1005.9 224.4v-11.3M1022.2 224.4v-11.3M1038.5 224.4v-11.3M1054.8 224.4v-11.3M1071.1 224.4v-11.3M1087.3 224.4v-11.3M1103.6 224.4v-11.3M1119.9 224.4v-11.3M1136.2 224.4v-11.3M1152.5 224.4v-11.3"/><g class="st9"><path class="st2" d="M974 204.4h1v20h-1z"/></g></g><g><path class="st8" d="M1184.8 224.4v-11.3M1201.1 224.4v-11.3M1217.3 224.4v-11.3M1233.6 224.4v-11.3M1249.9 224.4v-11.3M1266.2 224.4v-11.3M1282.5 224.4v-11.3M1298.7 224.4v-11.3"/><g class="st9"><path class="st2" d="M1169.1 204.4h1v20h-1z"/></g></g><g class="st1"><path class="st2" d="M402.7 253.5c.1.5.3.9.7 1.2.3.3.8.5 1.4.5.4 0 .8-.1 1.1-.2.3-.2.5-.4.7-.6.2-.3.3-.6.3-.9.1-.3.1-.7.1-1.1v-8.7h1.3v8.8c0 .4 0 .8-.1 1.3s-.3.9-.5 1.3-.6.7-1 1c-.4.2-1 .4-1.7.4-.9 0-1.6-.2-2.2-.7-.6-.5-.9-1.1-1.1-1.8l1-.5zM411.1 256h-1.4l5.3-12.3h1.2l5.3 12.3h-1.4l-1.4-3.2h-6.4l-1.2 3.2zm1.8-4.4h5.4l-2.7-6.6-2.7 6.6zM432.1 254.2v-10.5h1.3V256h-1.6l-7.2-10.6V256h-1.3v-12.3h1.6l7.2 10.5zM444.4 243.4c.8 0 1.4.2 1.9.6s.9.9 1.2 1.5c.3.6.5 1.3.7 2.1s.2 1.6.2 2.4-.1 1.6-.2 2.4c-.1.8-.4 1.5-.7 2.1-.3.6-.7 1.1-1.2 1.5-.5.4-1.2.6-1.9.6-.8 0-1.4-.2-1.9-.6-.5-.4-.9-.9-1.2-1.5s-.5-1.3-.7-2.1c-.1-.8-.2-1.6-.2-2.4s.1-1.6.2-2.4c.1-.8.3-1.5.7-2.1.3-.6.7-1.1 1.2-1.5.5-.4 1.2-.6 1.9-.6zm0 1c-.5 0-1 .2-1.4.5-.4.3-.6.8-.9 1.3-.2.5-.4 1.1-.4 1.8-.1.6-.1 1.3-.1 1.9s0 1.2.1 1.9c.1.6.2 1.2.4 1.7s.5.9.9 1.3.8.5 1.4.5c.5 0 1-.2 1.3-.5.4-.3.6-.8.9-1.3.2-.5.4-1.1.4-1.7.1-.6.1-1.3.1-1.9s0-1.2-.1-1.9c-.1-.6-.2-1.2-.4-1.8-.2-.5-.5-1-.9-1.3-.3-.3-.7-.5-1.3-.5zM458.3 256h-7.9v-1.3l5.1-5.1c.2-.2.4-.4.5-.6.1-.2.3-.4.5-.7s.2-.5.3-.7c.1-.3.1-.5.1-.8 0-.4-.1-.7-.2-1-.1-.3-.3-.5-.5-.7s-.5-.4-.8-.5-.6-.2-.9-.2c-.7 0-1.2.2-1.7.6s-.7.9-.9 1.6l-1.2-.2c.1-.4.2-.8.5-1.2.2-.4.5-.7.8-1s.7-.5 1.1-.6c.4-.1.9-.2 1.4-.2s1 .1 1.4.2c.4.1.8.4 1.2.6.3.3.6.6.8 1.1.2.4.3.9.3 1.5 0 .4-.1.8-.2 1.1-.1.3-.3.7-.4 1l-.6.9c-.2.3-.5.5-.8.8l-4.4 4.4h6.5v1z"/></g><g class="st1"><path class="st2" d="M752.4 253.5c.1.5.3.9.7 1.2.3.3.8.5 1.4.5.4 0 .8-.1 1.1-.2.3-.2.5-.4.7-.6.2-.3.3-.6.3-.9.1-.3.1-.7.1-1.1v-8.7h1.3v8.8c0 .4 0 .8-.1 1.3s-.3.9-.5 1.3-.6.7-1 1c-.4.2-1 .4-1.7.4-.9 0-1.6-.2-2.2-.7-.6-.5-.9-1.1-1.1-1.8l1-.5zM760.7 256h-1.4l5.3-12.3h1.2l5.3 12.3h-1.4l-1.4-3.2h-6.4l-1.2 3.2zm1.8-4.4h5.4l-2.7-6.6-2.7 6.6zM781.7 254.2v-10.5h1.3V256h-1.6l-7.2-10.6V256h-1.3v-12.3h1.6l7.2 10.5zM794.1 243.4c.8 0 1.4.2 1.9.6s.9.9 1.2 1.5.5 1.3.7 2.1.2 1.6.2 2.4-.1 1.6-.2 2.4-.4 1.5-.7 2.1-.7 1.1-1.2 1.5c-.5.4-1.2.6-1.9.6-.8 0-1.4-.2-1.9-.6-.5-.4-.9-.9-1.2-1.5s-.5-1.3-.7-2.1c-.1-.8-.2-1.6-.2-2.4s.1-1.6.2-2.4c.1-.8.3-1.5.7-2.1.3-.6.7-1.1 1.2-1.5.4-.4 1.1-.6 1.9-.6zm0 1c-.5 0-1 .2-1.4.5s-.6.8-.9 1.3c-.2.5-.4 1.1-.4 1.8-.1.6-.1 1.3-.1 1.9s0 1.2.1 1.9c.1.6.2 1.2.4 1.7s.5.9.9 1.3.8.5 1.4.5c.5 0 1-.2 1.3-.5.4-.3.6-.8.9-1.3.2-.5.4-1.1.4-1.7.1-.6.1-1.3.1-1.9s0-1.2-.1-1.9c-.1-.6-.2-1.2-.4-1.8-.2-.5-.5-1-.9-1.3s-.8-.5-1.3-.5zM802.9 249h.5c.4 0 .8 0 1.1-.1s.7-.2.9-.4c.3-.2.5-.4.6-.7.2-.3.2-.6.2-1 0-.3-.1-.7-.2-1s-.3-.5-.5-.7-.5-.4-.8-.5-.6-.2-.9-.2c-.5 0-1 .1-1.4.4-.4.2-.7.6-1 1.1l-1.1-.6c.4-.7.9-1.2 1.5-1.5s1.3-.5 2-.5c.5 0 .9.1 1.4.2.4.1.8.4 1.2.6.3.3.6.6.8 1s.3.9.3 1.4c0 .7-.2 1.3-.6 1.8s-.9.8-1.5 1c.7.2 1.3.5 1.8 1s.7 1.2.7 2c0 .6-.1 1.1-.3 1.6s-.5.8-.9 1.2-.8.6-1.3.7c-.5.2-1 .3-1.5.3-.9 0-1.7-.2-2.4-.7s-1.2-1.1-1.5-1.9l1.2-.4c.2.6.6 1.1 1 1.4.5.3 1 .5 1.7.5.3 0 .7-.1 1-.2.3-.1.6-.3.9-.5.2-.2.5-.5.6-.8s.2-.7.2-1.1c0-.5-.1-.9-.3-1.2s-.4-.6-.7-.8-.6-.3-1-.4-.8-.1-1.2-.1h-.5v-.9z"/></g><g class="st1"><path class="st2" d="M1143.8 253.5c.1.5.3.9.7 1.2s.8.5 1.4.5c.4 0 .8-.1 1.1-.2.3-.2.5-.4.7-.6.2-.3.3-.6.3-.9.1-.3.1-.7.1-1.1v-8.7h1.3v8.8c0 .4 0 .8-.1 1.3s-.3.9-.5 1.3-.6.7-1 1c-.4.2-1 .4-1.7.4-.9 0-1.6-.2-2.2-.7-.6-.5-.9-1.1-1.1-1.8l1-.5zM1152.1 256h-1.4l5.3-12.3h1.2l5.3 12.3h-1.4l-1.4-3.2h-6.4l-1.2 3.2zm1.8-4.4h5.4l-2.7-6.6-2.7 6.6zM1173.1 254.2v-10.5h1.3V256h-1.6l-7.2-10.6V256h-1.3v-12.3h1.6l7.2 10.5zM1185.4 243.4c.8 0 1.4.2 1.9.6s.9.9 1.2 1.5c.3.6.5 1.3.7 2.1s.2 1.6.2 2.4-.1 1.6-.2 2.4-.4 1.5-.7 2.1c-.3.6-.7 1.1-1.2 1.5-.5.4-1.2.6-1.9.6-.8 0-1.4-.2-1.9-.6-.5-.4-.9-.9-1.2-1.5-.3-.6-.5-1.3-.7-2.1-.1-.8-.2-1.6-.2-2.4s.1-1.6.2-2.4.3-1.5.7-2.1c.3-.6.7-1.1 1.2-1.5s1.2-.6 1.9-.6zm0 1c-.5 0-1 .2-1.4.5s-.6.8-.9 1.3c-.2.5-.4 1.1-.4 1.8-.1.6-.1 1.3-.1 1.9s0 1.2.1 1.9c.1.6.2 1.2.4 1.7s.5.9.9 1.3.8.5 1.4.5c.5 0 1-.2 1.3-.5.4-.3.6-.8.9-1.3.2-.5.4-1.1.4-1.7.1-.6.1-1.3.1-1.9s0-1.2-.1-1.9c-.1-.6-.2-1.2-.4-1.8-.2-.5-.5-1-.9-1.3-.3-.3-.7-.5-1.3-.5zM1198.1 251.9h1.8v1.1h-1.8v3h-1.2v-3h-5.6v-1.2l5.2-8.1h1.6v8.2zm-1.2-6.8l-4.3 6.8h4.3v-6.8z"/></g><path class="st8" d="M391.6 204.4v514.1"/></g></svg>