<svg id="UI_Elements_1" xmlns="http://www.w3.org/2000/svg" viewBox="-77 -258 636 1128"><style>.st0{opacity:.75}.st1{opacity:.5;enable-background:new}.st1,.st2{fill:#f8f8f7}.st3{opacity:.5}</style><g class="st0"><path class="st1" d="M59.4 483.2l.1-24.5h1.4v26.4H59l-17.9-24.5H41v24.5h-1.4v-26.4h1.9l17.9 24.5zM85.2 476.5c0 1.3-.2 2.5-.7 3.6-.4 1.1-1.1 2.1-1.9 2.9s-1.8 1.4-2.9 1.9-2.3.7-3.7.7c-1.3 0-2.5-.2-3.6-.7s-2.1-1.1-2.9-1.9-1.4-1.8-1.9-2.9c-.4-1.1-.7-2.3-.7-3.6s.2-2.5.7-3.6c.4-1.1 1.1-2.1 1.9-2.9s1.7-1.4 2.9-1.9c1.1-.4 2.3-.7 3.6-.7 1.3 0 2.6.2 3.7.7 1.1.4 2.1 1.1 2.9 1.9s1.4 1.8 1.9 2.9c.4 1.1.7 2.3.7 3.6zm-1.4 0c0-1.1-.2-2.1-.5-3.1-.4-1-.9-1.8-1.5-2.5-.7-.7-1.5-1.3-2.4-1.7s-2-.6-3.2-.6-2.3.2-3.2.6-1.7 1-2.4 1.7-1.2 1.6-1.5 2.5c-.3 1-.5 2-.5 3.1s.2 2.1.5 3.1.9 1.8 1.5 2.5c.7.7 1.5 1.3 2.4 1.7s2 .6 3.2.6 2.3-.2 3.2-.6c.9-.4 1.8-1 2.4-1.7.7-.7 1.2-1.6 1.5-2.5.2-1 .5-2 .5-3.1zM92.3 468c0 .2 0 .5.1.9v3.2h.1c.2-.7.6-1.3 1-1.9s1-1 1.5-1.4c.6-.4 1.2-.7 1.9-.9.7-.2 1.4-.3 2.1-.3 1.2 0 2.2.2 3 .6s1.5.9 2 1.6.9 1.4 1.1 2.3.4 1.8.4 2.7v10.5h-1.4v-10.1c0-.8-.1-1.5-.2-2.3-.2-.8-.4-1.5-.8-2.1s-.9-1.1-1.6-1.5-1.5-.6-2.5-.6c-.9 0-1.7.2-2.4.5-.8.3-1.4.9-2 1.5-.6.7-1 1.5-1.4 2.5-.3 1-.5 2.1-.5 3.4v8.7h-1.4v-13-.9-1.2c0-.4 0-.8-.1-1.1 0-.4-.1-.7-.1-.9h1.2v-.2zM121.3 470.8c-1-1.5-2.5-2.3-4.5-2.3-.4 0-.9.1-1.4.2s-.9.3-1.4.6c-.4.3-.7.6-1 1.1-.3.4-.4 1-.4 1.6 0 1 .4 1.8 1.1 2.3s1.9 1 3.5 1.4c.8.2 1.5.4 2.2.7.7.2 1.3.6 1.8.9.5.4.9.8 1.2 1.3.3.5.4 1.2.4 1.9 0 .8-.2 1.6-.5 2.2s-.8 1.2-1.3 1.6-1.2.7-1.9 1c-.7.2-1.4.3-2.2.3-1.3 0-2.5-.2-3.6-.7s-2-1.2-2.7-2.3l1.1-.8c.6.8 1.3 1.5 2.2 1.9s1.9.7 3 .7c.5 0 1.1-.1 1.6-.2s1-.4 1.5-.7.8-.7 1-1.2c.3-.5.4-1 .4-1.7s-.2-1.3-.5-1.7-.7-.8-1.2-1.1-1.1-.5-1.7-.7-1.3-.4-2-.5c-1.5-.4-2.6-.9-3.4-1.6s-1.2-1.7-1.2-3c0-.8.2-1.4.5-2s.7-1.1 1.3-1.5c.5-.4 1.1-.7 1.8-.9s1.3-.3 2-.3c1.2 0 2.3.2 3.2.7.9.4 1.7 1.1 2.2 2l-1.1.8zM135.3 469h-5v12c0 1.2.3 2 .8 2.5.6.5 1.3.7 2.1.7.7 0 1.4-.1 2-.4l.1 1.2c-.3.1-.7.2-1.1.3-.4.1-.8.1-1.2.1-1.2 0-2.2-.3-2.9-1-.7-.7-1.1-1.7-1.1-3.1V469h-3.7v-1.1h3.7v-5h1.4v5h5l-.1 1.1zM156.4 476.5c0 1.3-.2 2.5-.7 3.6-.4 1.1-1.1 2.1-1.9 2.9s-1.8 1.4-2.9 1.9c-1.1.5-2.3.7-3.7.7-1.3 0-2.5-.2-3.6-.7s-2.1-1.1-2.9-1.9-1.4-1.8-1.9-2.9c-.4-1.1-.7-2.3-.7-3.6s.2-2.5.7-3.6c.4-1.1 1.1-2.1 1.9-2.9s1.7-1.4 2.9-1.9c1.1-.4 2.3-.7 3.6-.7 1.3 0 2.6.2 3.7.7 1.1.4 2.1 1.1 2.9 1.9s1.4 1.8 1.9 2.9c.6 1.1.7 2.3.7 3.6zm-1.4 0c0-1.1-.2-2.1-.5-3.1-.4-1-.9-1.8-1.5-2.5-.7-.7-1.5-1.3-2.4-1.7s-2-.6-3.2-.6c-1.2 0-2.3.2-3.2.6s-1.7 1-2.4 1.7-1.2 1.6-1.5 2.5c-.3 1-.5 2-.5 3.1s.2 2.1.5 3.1.9 1.8 1.5 2.5c.7.7 1.5 1.3 2.4 1.7s2 .6 3.2.6c1.2 0 2.3-.2 3.2-.6s1.8-1 2.4-1.7c.7-.7 1.2-1.6 1.5-2.5.4-1 .5-2 .5-3.1zM163.8 494.1h-1.4V468h1.4v4.1h.1c.7-1.5 1.7-2.7 3.1-3.5 1.3-.8 2.7-1.2 4.3-1.2 1.3 0 2.5.2 3.6.7s2 1.1 2.8 1.9c.8.8 1.3 1.8 1.8 2.9.4 1.1.6 2.3.6 3.6s-.2 2.5-.6 3.6-1 2.1-1.8 2.9c-.8.8-1.7 1.5-2.8 1.9-1.1.5-2.2.7-3.5.7-.7 0-1.5-.1-2.2-.3-.7-.2-1.4-.5-2.1-.9-.6-.4-1.2-.9-1.8-1.4-.5-.6-1-1.2-1.3-2h-.1v13.1h-.1zm14.7-17.6c0-1.1-.2-2.1-.5-3.1s-.8-1.8-1.5-2.5c-.6-.7-1.4-1.3-2.3-1.7-.9-.4-1.9-.7-3.1-.7-1.1 0-2.1.2-3 .6s-1.7 1-2.4 1.7-1.2 1.6-1.6 2.5-.6 2-.6 3.1.2 2.1.6 3.1c.4 1 .9 1.8 1.6 2.5s1.5 1.3 2.4 1.7 1.9.6 3 .6 2.2-.2 3.1-.6c.9-.4 1.7-1 2.3-1.7s1.1-1.6 1.5-2.5c.4-.8.5-1.9.5-3z"/><path class="st2" d="M230.9 477.2h4.2v1.2h-4.2v6.7h-1.4v-6.7h-12.3v-1.5l11.7-18.2h2v18.5zm-1.4-16.9h-.1l-10.8 16.9h10.9v-16.9z"/><path class="st1" d="M252 457.3h.8v7.1h9.8v-7.1h.8v15.4h-.8v-7.6h-9.8v7.6h-.8v-15.4zM269.8 472.7h-.8v-15.4h4.3c.6 0 1.2.1 1.8.2.6.1 1.1.3 1.6.6s.8.7 1.1 1.2.4 1.1.4 1.9c0 .7-.1 1.3-.4 1.7-.3.5-.6.9-1 1.2s-.9.5-1.4.7-1 .2-1.6.3l4.6 7.6h-1l-4.5-7.6h-3.3v7.6h.2zm0-8.3h3.4c1.4 0 2.4-.3 3.1-.8s1.1-1.3 1.1-2.4c0-.6-.1-1.1-.4-1.5-.2-.4-.6-.7-1-1s-.9-.4-1.4-.5-1.1-.2-1.7-.2h-3.3v6.4h.2zM290.8 459.2c-.4-.5-.9-.9-1.5-1.2s-1.3-.4-2-.4c-.5 0-1 .1-1.4.2s-.9.3-1.3.6-.7.6-.9 1c-.2.4-.3.9-.3 1.5 0 .8.2 1.4.6 1.9s.9.8 1.5 1.1 1.3.6 2 .8 1.4.5 2 .8 1.1.7 1.5 1.2.6 1.2.6 2.1c0 .7-.1 1.3-.4 1.8s-.6 1-1 1.3-1 .6-1.5.8c-.6.2-1.2.3-1.8.3-1 0-1.8-.2-2.6-.5s-1.5-.8-2-1.5l.5-.5c.6.6 1.2 1 1.8 1.3.7.3 1.4.5 2.2.5.5 0 1-.1 1.5-.2.5-.2.9-.4 1.3-.7s.7-.6.9-1.1c.2-.4.3-.9.3-1.5s-.1-1.1-.4-1.5c-.2-.4-.6-.7-.9-1-.4-.3-.8-.5-1.3-.7l-1.5-.6-1.5-.6c-.5-.2-.9-.5-1.3-.8s-.7-.7-.9-1.2c-.2-.5-.4-1-.4-1.7s.1-1.3.4-1.8.6-.9 1.1-1.3c.4-.3 1-.6 1.5-.8s1.2-.3 1.8-.3c.9 0 1.7.2 2.4.5s1.3.7 1.7 1.3l-.7.9z"/><path class="st2" d="M317.5 485.1h-1.4v-24.7l-4.9 4.2-.9-1 5.9-4.9h1.3v26.4zM343.7 477.2h4.2v1.2h-4.2v6.7h-1.4v-6.7H330v-1.5l11.7-18.2h2v18.5zm-1.4-16.9h-.1l-10.8 16.9h10.9v-16.9z"/><path class="st1" d="M364.8 457.3h1.3l6.2 14.1 6.2-14.1h1.3v15.4h-.8v-14.4h-.1l-6.4 14.4h-.5l-6.4-14.4v14.4h-.7l-.1-15.4zM386.2 472.7h-.8v-15.4h.8v15.4zM403.3 471.6v-14.3h.8v15.4H403l-10.4-14.3v14.3h-.8v-15.4h1.1l10.4 14.3zM417.4 459.2c-.4-.5-.9-.9-1.5-1.2-.6-.3-1.3-.4-2-.4-.5 0-1 .1-1.4.2s-.9.3-1.3.6-.7.6-.9 1-.3.9-.3 1.5c0 .8.2 1.4.6 1.9s.9.8 1.5 1.1c.6.3 1.3.6 2 .8.7.2 1.4.5 2 .8s1.1.7 1.5 1.2.6 1.2.6 2.1c0 .7-.1 1.3-.4 1.8s-.6 1-1 1.3-1 .6-1.5.8c-.6.2-1.2.3-1.8.3-1 0-1.8-.2-2.6-.5s-1.5-.8-2-1.5l.5-.5c.6.6 1.2 1 1.8 1.3.7.3 1.4.5 2.2.5.5 0 1-.1 1.5-.2.5-.2.9-.4 1.3-.7.4-.3.7-.6.9-1.1.2-.4.3-.9.3-1.5s-.1-1.1-.4-1.5c-.2-.4-.6-.7-.9-1-.4-.3-.8-.5-1.3-.7l-1.5-.6-1.5-.6c-.5-.2-.9-.5-1.3-.8s-.7-.7-.9-1.2-.4-1-.4-1.7.1-1.3.4-1.8.6-.9 1.1-1.3c.4-.3 1-.6 1.5-.8s1.2-.3 1.8-.3c.9 0 1.7.2 2.4.5s1.3.7 1.7 1.3l-.7.9z"/></g><path class="st2" d="M-25.6 275.3h19.2c4.7 0 9.1.6 13.3 1.9s7.9 3.2 11.1 5.8 5.7 5.9 7.6 10c1.9 4 2.8 8.8 2.8 14.3s-.9 10.2-2.8 14.2-4.4 7.3-7.6 9.9-6.9 4.6-11.1 5.9-8.6 1.9-13.3 1.9h-19.2v-63.9zm3.3 60.9h14.9c4.8 0 9.1-.6 13.1-1.9s7.4-3.1 10.2-5.6c2.8-2.4 5-5.5 6.6-9.1s2.4-7.7 2.4-12.5-.8-8.9-2.4-12.5-3.8-6.6-6.6-9.1c-2.8-2.4-6.2-4.3-10.2-5.6-4-1.3-8.3-1.9-13.1-1.9h-14.9v58.2zM48.6 339.2h-3.7l27.7-64h3.8l26.9 64h-3.7l-7.4-17.9h-36l-7.6 17.9zm8.8-20.9h33.5l-16.5-40.1-17 40.1zM126.4 336.2h31.2v3h-34.5v-64h3.3v61z"/><g><path class="st2" d="M294.4 275.2h5.5l25.9 58.6 25.9-58.6h5.5v64h-3.3v-59.9h-.3l-26.7 59.9h-2.2l-26.8-59.9h-.2v59.9h-3.3v-64zM375.8 275.3H395c4.7 0 9.1.6 13.3 1.9s7.9 3.2 11.1 5.8 5.7 5.9 7.6 10c1.9 4 2.8 8.8 2.8 14.3s-.9 10.2-2.8 14.2-4.4 7.3-7.6 9.9-6.9 4.6-11.1 5.9-8.6 1.9-13.3 1.9h-19.2v-63.9zm3.4 60.9h14.9c4.8 0 9.1-.6 13.1-1.9s7.4-3.1 10.2-5.6c2.8-2.4 5-5.5 6.6-9.1s2.4-7.7 2.4-12.5-.8-8.9-2.4-12.5-3.8-6.6-6.6-9.1c-2.8-2.4-6.2-4.3-10.2-5.6-4-1.3-8.3-1.9-13.1-1.9h-14.9v58.2zM459.2 335.2h.3l17.5-60h4.5l17.8 60h.2l17.6-60h3.5l-19.1 64h-4.4l-17.8-60h-.2l-17.5 60h-4.4l-19.1-64h3.5l17.6 60z"/></g><g class="st3"><path class="st2" d="M247.9 297.5l-13.2.4-16.3-24.1h-6l10.3 24.5-13.6.4-2.7-2.9h-3l2.2 5.3-2.2 5.3h2.9l2.7-2.9 13.6.4-10.2 24.5h6l16.3-24.1 13.2.4c1.4 0 3.8-1.5 3.8-3.4v-.4c-.1-1.8-2.4-3.4-3.8-3.4z"/></g><g><g class="st0"><path class="st2" d="M-23.3 386.2h-1.2v-21l-4.2 3.6-.7-.9 5-4.1h1.1v22.4zM-8.6 372.6c0 .3-.1.5-.3.8s-.4.3-.7.3-.5-.1-.7-.3-.3-.5-.3-.8.1-.5.3-.8c.2-.2.4-.3.7-.3s.5.1.7.3c.3.3.3.5.3.8zm0 12.7c0 .3-.1.6-.3.8s-.4.3-.7.3-.5-.1-.7-.3-.3-.5-.3-.8.1-.5.3-.8c.2-.2.4-.3.7-.3s.5.1.7.3.3.5.3.8zM5.4 363.4c1.4 0 2.6.4 3.5 1.1s1.6 1.6 2.2 2.8c.5 1.1.9 2.4 1.1 3.8.2 1.4.3 2.7.3 4.1s-.1 2.7-.3 4.1-.6 2.6-1.1 3.8c-.5 1.1-1.3 2-2.2 2.7s-2.1 1.1-3.5 1.1-2.6-.4-3.5-1.1-1.6-1.6-2.2-2.7c-.5-1.1-.9-2.4-1.1-3.8s-.3-2.7-.3-4.1c0-1.3.1-2.7.3-4.1s.6-2.6 1.1-3.8c.5-1.1 1.2-2 2.2-2.8s2.2-1.1 3.5-1.1zm0 1c-.9 0-1.6.2-2.2.5s-1.2.8-1.6 1.4-.8 1.2-1.1 2-.5 1.5-.6 2.3-.2 1.6-.3 2.3c-.1.8-.1 1.5-.1 2.1s0 1.3.1 2.1.2 1.5.3 2.3.4 1.5.6 2.3.6 1.4 1.1 2c.4.6 1 1 1.6 1.4.6.3 1.4.5 2.2.5.9 0 1.6-.2 2.2-.5s1.2-.8 1.6-1.4c.4-.6.8-1.2 1.1-2 .3-.7.5-1.5.6-2.3s.2-1.6.3-2.3c.1-.8.1-1.5.1-2.1s0-1.3-.1-2.1-.2-1.5-.3-2.3-.4-1.5-.6-2.3c-.3-.7-.6-1.4-1.1-2-.4-.6-1-1-1.6-1.4-.5-.3-1.2-.5-2.2-.5zM24.9 363.4c1.4 0 2.6.4 3.5 1.1s1.6 1.6 2.2 2.8c.5 1.1.9 2.4 1.1 3.8.2 1.4.3 2.7.3 4.1s-.1 2.7-.3 4.1-.6 2.6-1.1 3.8c-.5 1.1-1.3 2-2.2 2.7s-2.1 1.1-3.5 1.1-2.5-.4-3.5-1.1-1.6-1.6-2.2-2.7c-.5-1.1-.9-2.4-1.1-3.8s-.3-2.7-.3-4.1c0-1.3.1-2.7.3-4.1.2-1.4.6-2.6 1.1-3.8.5-1.1 1.2-2 2.2-2.8s2.2-1.1 3.5-1.1zm0 1c-.9 0-1.6.2-2.2.5s-1.2.8-1.6 1.4-.8 1.2-1.1 2-.5 1.5-.6 2.3-.2 1.6-.3 2.3c-.1.8-.1 1.5-.1 2.1s0 1.3.1 2.1.2 1.5.3 2.3.4 1.5.6 2.3.6 1.4 1.1 2c.4.6 1 1 1.6 1.4.6.3 1.4.5 2.2.5.9 0 1.6-.2 2.2-.5s1.2-.8 1.6-1.4.8-1.2 1.1-2c.3-.7.5-1.5.6-2.3s.2-1.6.3-2.3c.1-.8.1-1.5.1-2.1s0-1.3-.1-2.1-.2-1.5-.3-2.3-.4-1.5-.6-2.3c-.3-.7-.6-1.4-1.1-2-.4-.6-1-1-1.6-1.4-.5-.3-1.2-.5-2.2-.5zM39.9 393.8h-1.2v-22.2h1.2v3.5h.1c.6-1.3 1.5-2.3 2.6-3s2.3-1 3.6-1c1.1 0 2.1.2 3 .6s1.7.9 2.3 1.6 1.1 1.5 1.5 2.5c.4.9.5 2 .5 3.1s-.2 2.1-.5 3c-.4.9-.9 1.8-1.5 2.4-.7.7-1.4 1.2-2.3 1.6s-1.9.6-3 .6c-.6 0-1.3-.1-1.9-.3s-1.2-.4-1.8-.7c-.5-.3-1-.7-1.5-1.2s-.8-1-1.1-1.7h-.1l.1 11.2zm12.5-14.9c0-.9-.1-1.8-.4-2.6s-.7-1.5-1.3-2.2c-.5-.6-1.2-1.1-2-1.5s-1.6-.6-2.6-.6c-.9 0-1.7.2-2.5.5s-1.4.8-2 1.5c-.6.6-1 1.3-1.3 2.2-.3.8-.5 1.7-.5 2.6s.2 1.8.5 2.6.8 1.5 1.3 2.1c.6.6 1.2 1.1 2 1.5s1.6.5 2.5.5c1 0 1.8-.2 2.6-.5.8-.4 1.4-.8 2-1.5.5-.6 1-1.3 1.3-2.1s.4-1.5.4-2.5zM60.2 375.2v-.8-1-1c0-.3 0-.6-.1-.8h1.1v3.3h.1c.4-1.2 1.1-2.1 2.1-2.8 1-.7 2-1 3.1-1 1.3 0 2.4.4 3.2 1.1s1.4 1.7 1.7 3c.4-1.3 1.1-2.3 2.1-3s2.1-1 3.4-1c1 0 1.8.2 2.5.5s1.2.8 1.6 1.4.7 1.3.9 2c.2.8.3 1.6.3 2.4v8.7H81v-8.4c0-.7-.1-1.4-.2-2.1s-.4-1.3-.7-1.8c-.3-.5-.8-1-1.3-1.3s-1.2-.5-2-.5-1.5.2-2.1.5-1.2.8-1.6 1.4-.8 1.3-1 2.1-.4 1.7-.4 2.7v7.5h-1.3v-8.8c0-1.7-.3-3-1-4-.7-.9-1.7-1.4-3-1.4-.7 0-1.3.1-1.9.4s-1.2.7-1.6 1.3c-.5.6-.8 1.3-1.1 2.2-.3.9-.4 1.9-.4 3v7.1h-1.2v-10.9z"/><path class="st1" d="M107.6 386.8c-1.6 0-3-.3-4.1-.8s-2-1.2-2.6-2c-.7-.8-1.1-1.8-1.4-2.9s-.4-2.2-.4-3.4v-14h1.3v13.8c0 .9.1 1.8.3 2.8.2 1 .5 1.8 1.1 2.6.5.8 1.3 1.5 2.2 2s2.2.8 3.7.8 2.7-.3 3.7-.8 1.7-1.2 2.2-1.9.9-1.7 1.1-2.6c.2-1 .3-1.9.3-2.8v-13.8h1.2v14c0 1.2-.1 2.3-.4 3.4s-.8 2.1-1.4 2.9c-.7.8-1.5 1.5-2.6 2-1.2.5-2.5.7-4.2.7zM130 386.2h-1.2v-21.3h-7.6v-1h16.4v1H130v21.3zM161.4 383.3c-.4.6-1 1.1-1.6 1.5s-1.2.8-1.9 1.1c-.7.3-1.4.5-2.2.7-.8.2-1.6.2-2.4.2-1.7 0-3.2-.3-4.7-.9-1.4-.6-2.6-1.4-3.6-2.5-1-1-1.8-2.3-2.4-3.7-.6-1.4-.9-3-.9-4.7s.3-3.3.9-4.7c.6-1.4 1.4-2.7 2.4-3.7s2.2-1.9 3.7-2.5c1.4-.6 3-.9 4.6-.9 1.5 0 2.9.3 4.2.8 1.4.5 2.5 1.3 3.4 2.3l-.9.8c-.4-.4-.8-.8-1.3-1.2s-1.1-.6-1.6-.9c-.6-.2-1.2-.4-1.8-.5s-1.3-.2-1.9-.2c-1.6 0-3 .3-4.2.8-1.3.6-2.3 1.3-3.2 2.3s-1.6 2.1-2.1 3.4-.7 2.7-.7 4.2.2 2.9.7 4.2 1.2 2.4 2.1 3.4 2 1.7 3.2 2.3c1.3.6 2.7.9 4.2.9 1.4 0 2.7-.3 4-.8 1.3-.5 2.4-1.3 3.2-2.4l.8.7z"/></g><g class="st0"><path class="st2" d="M306 363.4c1.4 0 2.6.4 3.5 1.1s1.6 1.6 2.2 2.8c.5 1.1.9 2.4 1.1 3.8s.3 2.7.3 4.1-.1 2.7-.3 4.1c-.2 1.4-.6 2.6-1.1 3.8-.5 1.1-1.3 2-2.2 2.7s-2.1 1.1-3.5 1.1-2.6-.4-3.5-1.1-1.6-1.6-2.2-2.7c-.5-1.1-.9-2.4-1.1-3.8s-.3-2.7-.3-4.1c0-1.3.1-2.7.3-4.1.2-1.4.6-2.6 1.1-3.8.5-1.1 1.2-2 2.2-2.8s2-1.1 3.5-1.1zm0 1c-.9 0-1.6.2-2.2.5s-1.2.8-1.6 1.4-.8 1.2-1.1 2c-.3.8-.5 1.5-.6 2.3s-.2 1.6-.3 2.3c-.1.8-.1 1.5-.1 2.1s0 1.3.1 2.1.2 1.5.3 2.3c.1.8.4 1.5.6 2.3s.6 1.4 1.1 2c.4.6 1 1 1.6 1.4.6.3 1.4.5 2.2.5.9 0 1.6-.2 2.2-.5s1.2-.8 1.6-1.4.8-1.2 1.1-2c.3-.7.5-1.5.6-2.3s.2-1.6.3-2.3c.1-.8.1-1.5.1-2.1s0-1.3-.1-2.1-.2-1.5-.3-2.3c-.1-.8-.4-1.5-.6-2.3-.3-.7-.6-1.4-1.1-2-.4-.6-1-1-1.6-1.4-.5-.3-1.3-.5-2.2-.5zM330.9 364.9h-9.5l-.2 8.1c.5-.3 1.1-.4 1.8-.6.6-.1 1.2-.2 1.8-.2 1.1 0 2 .2 2.9.5s1.6.8 2.2 1.5c.6.6 1.1 1.4 1.4 2.3s.5 1.8.5 2.8c0 1.1-.2 2.2-.6 3.1s-.9 1.7-1.5 2.3c-.6.6-1.4 1.1-2.2 1.4-.8.3-1.7.5-2.7.5-1.5 0-2.8-.3-3.8-.9s-1.8-1.4-2.5-2.4l1-.6c.5.9 1.2 1.6 2.1 2.1s1.9.8 3.1.8c.7 0 1.5-.1 2.2-.4s1.3-.7 1.9-1.2c.5-.5 1-1.2 1.3-1.9s.5-1.7.5-2.6-.1-1.7-.4-2.5c-.3-.7-.7-1.4-1.2-1.9s-1.2-1-2-1.3-1.6-.5-2.6-.5c-.8 0-1.5.1-2.2.3s-1.4.5-2.1.8l.2-10.6h10.6v1.1zM341.7 372.6c0 .3-.1.5-.3.8-.2.3-.4.3-.7.3s-.5-.1-.7-.3c-.2-.2-.3-.5-.3-.8s.1-.5.3-.8c.2-.2.4-.3.7-.3s.5.1.7.3c.1.3.3.5.3.8zm0 12.7c0 .3-.1.6-.3.8-.2.2-.4.3-.7.3s-.5-.1-.7-.3c-.2-.2-.3-.5-.3-.8s.1-.5.3-.8c.2-.2.4-.3.7-.3s.5.1.7.3c.1.2.3.5.3.8zM357 386.2h-1.2v-21l-4.2 3.6-.7-.9 5-4.1h1.1v22.4zM379.2 379.5h3.6v1h-3.6v5.7H378v-5.7h-10.4v-1.3l9.9-15.5h1.7v15.8zm-1.2-14.3l-9.2 14.3h9.2v-14.3zM390 393.8h-1.2v-22.2h1.2v3.5h.1c.6-1.3 1.5-2.3 2.6-3s2.3-1 3.6-1c1.1 0 2.1.2 3 .6s1.7.9 2.3 1.6c.6.7 1.1 1.5 1.5 2.5.4.9.5 2 .5 3.1s-.2 2.1-.5 3c-.4.9-.9 1.8-1.5 2.4-.7.7-1.4 1.2-2.3 1.6s-1.9.6-3 .6c-.6 0-1.3-.1-1.9-.3s-1.2-.4-1.8-.7c-.5-.3-1-.7-1.5-1.2s-.8-1-1.1-1.7h-.1l.1 11.2zm12.5-14.9c0-.9-.1-1.8-.4-2.6s-.7-1.5-1.3-2.2c-.5-.6-1.2-1.1-2-1.5s-1.6-.6-2.6-.6c-.9 0-1.7.2-2.5.5s-1.4.8-2 1.5c-.6.6-1 1.3-1.3 2.2-.3.8-.5 1.7-.5 2.6s.2 1.8.5 2.6.8 1.5 1.3 2.1c.6.6 1.2 1.1 2 1.5s1.6.5 2.5.5c1 0 1.8-.2 2.6-.5.8-.4 1.4-.8 2-1.5.5-.6 1-1.3 1.3-2.1s.4-1.5.4-2.5zM410.4 375.2v-.8-1-1c0-.3 0-.6-.1-.8h1.1v3.3h.1c.4-1.2 1.1-2.1 2.1-2.8s2-1 3.1-1c1.3 0 2.4.4 3.2 1.1s1.4 1.7 1.7 3c.4-1.3 1.1-2.3 2.1-3s2.1-1 3.4-1c1 0 1.8.2 2.5.5s1.2.8 1.6 1.4.7 1.3.9 2c.2.8.3 1.6.3 2.4v8.7h-1.2v-8.4c0-.7-.1-1.4-.2-2.1s-.4-1.3-.7-1.8c-.3-.5-.8-1-1.3-1.3s-1.2-.5-2-.5-1.5.2-2.1.5-1.2.8-1.6 1.4-.8 1.3-1 2.1c-.2.8-.4 1.7-.4 2.7v7.5h-1.2v-8.8c0-1.7-.3-3-1-4-.7-.9-1.7-1.4-3-1.4-.7 0-1.3.1-1.9.4s-1.2.7-1.6 1.3c-.5.6-.8 1.3-1.1 2.2s-.4 1.9-.4 3v7.1h-1.2l-.1-10.9z"/><path class="st1" d="M457.9 386.8c-1.6 0-3-.3-4.1-.8s-2-1.2-2.6-2c-.7-.8-1.1-1.8-1.4-2.9s-.4-2.2-.4-3.4v-14h1.2v13.8c0 .9.1 1.8.3 2.8.2 1 .5 1.8 1.1 2.6.5.8 1.3 1.5 2.2 2s2.2.8 3.7.8 2.7-.3 3.7-.8 1.7-1.2 2.2-1.9.9-1.7 1.1-2.6c.2-1 .3-1.9.3-2.8v-13.8h1.2v14c0 1.2-.1 2.3-.4 3.4s-.8 2.1-1.4 2.9c-.7.8-1.5 1.5-2.6 2s-2.6.7-4.1.7zM480.3 386.2h-1.2v-21.3h-7.7v-1h16.4v1h-7.6c.1 0 .1 21.3.1 21.3zM511.7 383.3c-.4.6-1 1.1-1.6 1.5s-1.2.8-1.9 1.1-1.4.5-2.2.7c-.8.2-1.6.2-2.4.2-1.7 0-3.2-.3-4.7-.9-1.4-.6-2.6-1.4-3.6-2.5-1-1-1.8-2.3-2.4-3.7-.6-1.4-.9-3-.9-4.7s.3-3.3.9-4.7c.6-1.4 1.4-2.7 2.4-3.7s2.2-1.9 3.7-2.5c1.4-.6 3-.9 4.6-.9 1.5 0 2.9.3 4.2.8 1.4.5 2.5 1.3 3.4 2.3l-.9.8c-.4-.4-.8-.8-1.3-1.2s-1.1-.6-1.6-.9c-.6-.2-1.2-.4-1.8-.5s-1.3-.2-1.9-.2c-1.6 0-3 .3-4.2.8-1.3.6-2.3 1.3-3.2 2.3s-1.6 2.1-2.1 3.4-.7 2.7-.7 4.2.2 2.9.7 4.2 1.2 2.4 2.1 3.4 2 1.7 3.2 2.3c1.3.6 2.7.9 4.2.9 1.4 0 2.7-.3 4-.8s2.4-1.3 3.2-2.4l.8.7z"/></g></g><g class="st0"><path class="st2" d="M62.2 140.1c-.6.8-1.3 1.5-2.2 2.1-.8.6-1.7 1.1-2.7 1.6s-2 .7-3.1 1c-1.1.2-2.2.3-3.4.3-2.4 0-4.5-.4-6.5-1.2-2-.8-3.7-2-5.1-3.4-1.4-1.5-2.5-3.2-3.3-5.2s-1.2-4.2-1.2-6.6c0-2.4.4-4.6 1.2-6.6s1.9-3.8 3.3-5.2c1.4-1.5 3.1-2.6 5.1-3.4s4.1-1.2 6.5-1.2c2 0 4 .4 5.9 1.1s3.4 1.8 4.7 3.2l-1.2 1.1c-.5-.6-1.2-1.2-1.9-1.7s-1.5-.9-2.3-1.2-1.7-.6-2.5-.8c-.8-.2-1.8-.3-2.7-.3-2.2 0-4.1.4-5.9 1.2-1.8.8-3.3 1.9-4.5 3.2-1.3 1.4-2.2 3-2.9 4.8s-1 3.8-1 5.8c0 2.1.3 4 1 5.8.7 1.8 1.6 3.4 2.9 4.8 1.3 1.4 2.8 2.4 4.5 3.2 1.8.8 3.7 1.2 5.9 1.2 1.9 0 3.7-.4 5.6-1.1 1.8-.7 3.3-1.9 4.5-3.4l1.3.9zM68.3 112.9h1.6v14.4h19.8v-14.4h1.6v31.3h-1.6v-15.5H69.9v15.5h-1.6v-31.3zM102 144.2h-1.6v-31.3h1.6v31.3zM136.9 140.1c-.6.8-1.3 1.5-2.2 2.1-.8.6-1.7 1.1-2.7 1.6s-2 .7-3.1 1c-1.1.2-2.2.3-3.4.3-2.4 0-4.5-.4-6.5-1.2-2-.8-3.7-2-5.1-3.4-1.4-1.5-2.5-3.2-3.3-5.2s-1.2-4.2-1.2-6.6c0-2.4.4-4.6 1.2-6.6.8-2 1.9-3.8 3.3-5.2 1.4-1.5 3.1-2.6 5.1-3.4s4.1-1.2 6.5-1.2c2 0 4 .4 5.9 1.1s3.4 1.8 4.7 3.2l-1.2 1.1c-.5-.6-1.2-1.2-1.9-1.7s-1.5-.9-2.3-1.2c-.8-.3-1.7-.6-2.5-.8-.8-.2-1.8-.3-2.7-.3-2.2 0-4.1.4-5.9 1.2-1.8.8-3.3 1.9-4.5 3.2-1.3 1.4-2.2 3-2.9 4.8-.7 1.8-1 3.8-1 5.8 0 2.1.3 4 1 5.8.7 1.8 1.6 3.4 2.9 4.8 1.3 1.4 2.8 2.4 4.5 3.2 1.8.8 3.7 1.2 5.9 1.2 1.9 0 3.7-.4 5.6-1.1 1.8-.7 3.3-1.9 4.5-3.4l1.3.9zM141 144.2h-1.8l13.5-31.3h1.8l13.2 31.3h-1.8l-3.6-8.8h-17.6l-3.7 8.8zm4.4-10.2h16.4l-8.1-19.6-8.3 19.6zM197.4 117.1c-1.1-1.1-2.6-2-4.3-2.6-1.7-.6-3.5-.9-5.3-.9-2.2 0-4.2.4-6 1.2-1.8.8-3.3 1.9-4.6 3.2-1.3 1.4-2.2 2.9-2.9 4.8-.7 1.9-1 3.8-1 5.8s.3 4 1 5.8c.7 1.8 1.6 3.4 2.9 4.8 1.3 1.4 2.8 2.5 4.6 3.3 1.8.8 3.9 1.2 6.2 1.2 2 0 3.8-.2 5.4-.6s3-.9 4.2-1.5v-11.5h-7.9v-1.6h9.5v13.8c-1.4.8-3 1.5-5 2-1.9.5-4.1.8-6.4.8-2.4 0-4.7-.4-6.7-1.3s-3.8-2-5.2-3.5-2.6-3.2-3.4-5.2-1.2-4.2-1.2-6.6c0-2.4.4-4.6 1.2-6.6.8-2 1.9-3.7 3.4-5.2 1.4-1.5 3.1-2.6 5.1-3.4s4.2-1.2 6.6-1.2c2.2 0 4.2.3 6 1 1.8.7 3.3 1.6 4.7 2.8l-.9 1.2zM238.6 128.6c0 2.4-.4 4.6-1.2 6.6-.8 2-1.9 3.8-3.4 5.2-1.4 1.5-3.2 2.6-5.1 3.4-2 .8-4.1 1.2-6.4 1.2s-4.5-.4-6.5-1.2c-2-.8-3.7-2-5.1-3.4-1.4-1.5-2.6-3.2-3.4-5.2s-1.2-4.2-1.2-6.6c0-2.4.4-4.6 1.2-6.6.8-2 1.9-3.8 3.4-5.2 1.4-1.5 3.2-2.6 5.1-3.4 2-.8 4.1-1.2 6.5-1.2 2.3 0 4.5.4 6.4 1.2 2 .8 3.7 2 5.1 3.4 1.4 1.5 2.6 3.2 3.4 5.2.9 2 1.2 4.2 1.2 6.6zm-1.7 0c0-2.1-.3-4-1-5.8-.7-1.8-1.7-3.4-2.9-4.8-1.3-1.4-2.8-2.4-4.6-3.2-1.8-.8-3.7-1.2-5.9-1.2s-4.2.4-5.9 1.2c-1.8.8-3.3 1.9-4.6 3.2-1.3 1.4-2.2 3-2.9 4.8-.7 1.8-1 3.8-1 5.8 0 2.1.3 4 1 5.8.7 1.8 1.6 3.4 2.9 4.8 1.3 1.4 2.8 2.4 4.6 3.2 1.8.8 3.8 1.2 5.9 1.2 2.2 0 4.2-.4 5.9-1.2 1.8-.8 3.3-1.9 4.6-3.2 1.3-1.3 2.2-2.9 2.9-4.8.6-1.8 1-3.7 1-5.8zM257.2 112.9h2.7l12.7 28.6 12.7-28.6h2.7v31.3h-1.6v-29.3h-.1l-13.1 29.3h-1.1L259 114.9h-.1v29.3h-1.6l-.1-31.3zM298.5 144.2h-1.6v-31.3h1.6v31.3zM307.7 113h9.4c2.3 0 4.5.3 6.5.9s3.9 1.6 5.4 2.8c1.6 1.3 2.8 2.9 3.7 4.9.9 2 1.4 4.3 1.4 7s-.5 5-1.4 7-2.2 3.6-3.7 4.9c-1.6 1.3-3.4 2.2-5.4 2.9-2 .6-4.2.9-6.5.9h-9.4V113zm1.6 29.8h7.3c2.3 0 4.5-.3 6.4-.9s3.6-1.5 5-2.7 2.5-2.7 3.2-4.4c.8-1.8 1.2-3.8 1.2-6.1s-.4-4.3-1.2-6.1c-.8-1.8-1.8-3.2-3.2-4.4-1.4-1.2-3-2.1-5-2.7s-4.1-.9-6.4-.9h-7.3v28.2zM348.4 142.3L357 113h2.2l8.7 29.3h.1l8.6-29.3h1.7l-9.3 31.3h-2.1l-8.7-29.3h-.1l-8.6 29.3h-2.2l-9.4-31.3h1.7l8.8 29.3zM381.9 144.2h-1.8l13.5-31.3h1.8l13.2 31.3h-1.7l-3.6-8.8h-17.6l-3.8 8.8zm4.4-10.2h16.4l-8.1-19.6-8.3 19.6zM422.5 144.2h-1.6v-13.6l-11-17.7h2l9.9 16.2 9.9-16.2h1.9l-11 17.7-.1 13.6z"/></g></svg>